<?xml version="1.0" encoding="UTF-8" standalone="no"?>
<!DOCTYPE svg PUBLIC "-//W3C//DTD SVG 1.1//EN"
 "http://www.w3.org/Graphics/SVG/1.1/DTD/svg11.dtd">
<!-- Generated by graphviz version 2.40.1 (20161225.0304)
 -->
<!-- Title: %3 Pages: 1 -->
<svg width="422pt" height="399pt"
 viewBox="0.00 0.00 422.00 399.42" xmlns="http://www.w3.org/2000/svg" xmlns:xlink="http://www.w3.org/1999/xlink">
<g id="graph0" class="graph" transform="scale(1 1) rotate(0) translate(4 395.4249)">
<title>%3</title>
<polygon fill="#ffffff" stroke="transparent" points="-4,4 -4,-395.4249 418,-395.4249 418,4 -4,4"/>
<!-- x0 -->
<g id="node1" class="node">
<title>x0</title>
<polygon fill="#d3d3d3" stroke="#000000" points="36,-391.4249 0,-391.4249 0,-355.4249 36,-355.4249 36,-391.4249"/>
<text text-anchor="middle" x="18" y="-370.7249" font-family="Times,serif" font-size="9.00" fill="#000000">x0</text>
</g>
<!-- 145 -->
<g id="node13" class="node">
<title>145</title>
<ellipse fill="#ffffff" stroke="#000000" cx="186" cy="-292.2013" rx="20.7202" ry="20.7202"/>
<text text-anchor="middle" x="186" y="-289.5013" font-family="Times,serif" font-size="9.00" fill="#000000">145</text>
</g>
<!-- x0&#45;&gt;145 -->
<g id="edge9" class="edge">
<title>x0&#45;&gt;145</title>
<path fill="none" stroke="#ff0000" stroke-width=".5662" d="M36.1921,-360.333C39.0646,-358.5511 42.0589,-356.8486 45,-355.4249 91.6816,-332.8284 111.1286,-345.4315 156,-319.4249 158.5671,-317.9371 161.1028,-316.2003 163.5478,-314.337"/>
<polygon fill="#ff0000" stroke="#ff0000" stroke-width=".5662" points="166.0376,-316.8158 171.4247,-307.6928 161.5242,-311.4651 166.0376,-316.8158"/>
</g>
<!-- 18066 -->
<g id="node17" class="node">
<title>18066</title>
<ellipse fill="#ffffff" stroke="#000000" cx="120" cy="-292.2013" rx="27.4491" ry="27.4491"/>
<text text-anchor="middle" x="120" y="-289.5013" font-family="Times,serif" font-size="9.00" fill="#000000">18066</text>
</g>
<!-- x0&#45;&gt;18066 -->
<g id="edge13" class="edge">
<title>x0&#45;&gt;18066</title>
<path fill="none" stroke="#ff0000" stroke-width=".4128" d="M36.2356,-358.9038C51.2058,-346.9828 72.7076,-329.8607 90.1779,-315.949"/>
<polygon fill="#ff0000" stroke="#ff0000" stroke-width=".4128" points="92.7415,-318.3817 98.384,-309.4143 88.381,-312.9057 92.7415,-318.3817"/>
</g>
<!-- x1 -->
<g id="node2" class="node">
<title>x1</title>
<polygon fill="#d3d3d3" stroke="#000000" points="90,-391.4249 54,-391.4249 54,-355.4249 90,-355.4249 90,-391.4249"/>
<text text-anchor="middle" x="72" y="-370.7249" font-family="Times,serif" font-size="9.00" fill="#000000">x1</text>
</g>
<!-- x1&#45;&gt;145 -->
<g id="edge10" class="edge">
<title>x1&#45;&gt;145</title>
<path fill="none" stroke="#00ff00" stroke-width=".258" d="M90.2595,-361.1637C93.1751,-359.2314 96.1646,-357.2651 99,-355.4249 124.1339,-339.1135 132.1491,-337.5609 156,-319.4249 158.3618,-317.629 160.76,-315.6857 163.1183,-313.6923"/>
<polygon fill="#00ff00" stroke="#00ff00" stroke-width=".258" points="165.6808,-316.0994 170.8723,-306.8637 161.0544,-310.8461 165.6808,-316.0994"/>
</g>
<!-- x1&#45;&gt;18066 -->
<g id="edge20" class="edge">
<title>x1&#45;&gt;18066</title>
<path fill="none" stroke="#ff0000" stroke-width=".2959" d="M82.6528,-355.3988C88.0472,-346.2705 94.7607,-334.9101 101.002,-324.3489"/>
<polygon fill="#ff0000" stroke="#ff0000" stroke-width=".2959" points="104.0198,-326.1218 106.0943,-315.732 97.9934,-322.5604 104.0198,-326.1218"/>
</g>
<!-- x2 -->
<g id="node3" class="node">
<title>x2</title>
<polygon fill="#d3d3d3" stroke="#000000" points="144,-391.4249 108,-391.4249 108,-355.4249 144,-355.4249 144,-391.4249"/>
<text text-anchor="middle" x="126" y="-370.7249" font-family="Times,serif" font-size="9.00" fill="#000000">x2</text>
</g>
<!-- x2&#45;&gt;145 -->
<g id="edge8" class="edge">
<title>x2&#45;&gt;145</title>
<path fill="none" stroke="#ff0000" stroke-width=".6048" d="M139.3159,-355.3988C147.6191,-344.1586 158.4223,-329.534 167.5449,-317.1845"/>
<polygon fill="#ff0000" stroke="#ff0000" stroke-width=".6048" points="170.4141,-319.1909 173.5406,-309.0679 164.7837,-315.0317 170.4141,-319.1909"/>
</g>
<!-- x2&#45;&gt;18066 -->
<g id="edge28" class="edge">
<title>x2&#45;&gt;18066</title>
<path fill="none" stroke="#ff0000" stroke-width=".4975" d="M124.6684,-355.3988C124.1015,-347.7245 123.4181,-338.4725 122.7511,-329.4441"/>
<polygon fill="#ff0000" stroke="#ff0000" stroke-width=".4975" points="126.2395,-329.1567 122.0123,-319.4418 119.2586,-329.6725 126.2395,-329.1567"/>
</g>
<!-- x3 -->
<g id="node4" class="node">
<title>x3</title>
<polygon fill="#d3d3d3" stroke="#000000" points="198,-391.4249 162,-391.4249 162,-355.4249 198,-355.4249 198,-391.4249"/>
<text text-anchor="middle" x="180" y="-370.7249" font-family="Times,serif" font-size="9.00" fill="#000000">x3</text>
</g>
<!-- x3&#45;&gt;145 -->
<g id="edge3" class="edge">
<title>x3&#45;&gt;145</title>
<path fill="none" stroke="#ff0000" stroke-width=".2462" d="M181.3316,-355.3988C182.0328,-345.9069 182.9122,-334.0014 183.7182,-323.0907"/>
<polygon fill="#ff0000" stroke="#ff0000" stroke-width=".2462" points="187.2139,-323.2766 184.4602,-313.0459 180.2329,-322.7608 187.2139,-323.2766"/>
</g>
<!-- x3&#45;&gt;18066 -->
<g id="edge26" class="edge">
<title>x3&#45;&gt;18066</title>
<path fill="none" stroke="#00ff00" stroke-width=".3341" d="M166.6841,-355.3988C159.531,-345.7155 150.5225,-333.5205 142.3315,-322.4321"/>
<polygon fill="#00ff00" stroke="#00ff00" stroke-width=".3341" points="145.0284,-320.1923 136.2715,-314.2285 139.398,-324.3515 145.0284,-320.1923"/>
</g>
<!-- 74906 -->
<g id="node20" class="node">
<title>74906</title>
<ellipse fill="#ffffff" stroke="#000000" cx="252" cy="-292.2013" rx="27.4491" ry="27.4491"/>
<text text-anchor="middle" x="252" y="-289.5013" font-family="Times,serif" font-size="9.00" fill="#000000">74906</text>
</g>
<!-- x3&#45;&gt;74906 -->
<g id="edge27" class="edge">
<title>x3&#45;&gt;74906</title>
<path fill="none" stroke="#00ff00" stroke-width=".2943" d="M195.9791,-355.3988C205.0677,-345.1459 216.6525,-332.0771 226.9259,-320.4876"/>
<polygon fill="#00ff00" stroke="#00ff00" stroke-width=".2943" points="229.7676,-322.5581 233.7819,-312.7532 224.5294,-317.9147 229.7676,-322.5581"/>
</g>
<!-- x4 -->
<g id="node5" class="node">
<title>x4</title>
<polygon fill="#d3d3d3" stroke="#000000" points="252,-391.4249 216,-391.4249 216,-355.4249 252,-355.4249 252,-391.4249"/>
<text text-anchor="middle" x="234" y="-370.7249" font-family="Times,serif" font-size="9.00" fill="#000000">x4</text>
</g>
<!-- x4&#45;&gt;145 -->
<g id="edge2" class="edge">
<title>x4&#45;&gt;145</title>
<path fill="none" stroke="#00ff00" stroke-width=".8596" d="M223.3472,-355.3988C217.0086,-344.6727 208.8486,-330.8647 201.7736,-318.8928"/>
<polygon fill="#00ff00" stroke="#00ff00" stroke-width=".8596" points="204.7238,-317.0055 196.623,-310.1771 198.6975,-320.5668 204.7238,-317.0055"/>
</g>
<!-- x4&#45;&gt;18066 -->
<g id="edge12" class="edge">
<title>x4&#45;&gt;18066</title>
<path fill="none" stroke="#00ff00" stroke-width=".1337" d="M215.8813,-361.1971C199.9757,-350.3881 176.2802,-334.1032 156,-319.4249 154.1433,-318.0811 152.2409,-316.689 150.3275,-315.2771"/>
<polygon fill="#00ff00" stroke="#00ff00" stroke-width=".1337" points="152.0846,-312.2214 141.9757,-309.0494 147.9001,-317.833 152.0846,-312.2214"/>
</g>
<!-- 30674 -->
<g id="node18" class="node">
<title>30674</title>
<ellipse fill="#ffffff" stroke="#000000" cx="324" cy="-292.2013" rx="27.4491" ry="27.4491"/>
<text text-anchor="middle" x="324" y="-289.5013" font-family="Times,serif" font-size="9.00" fill="#000000">30674</text>
</g>
<!-- x4&#45;&gt;30674 -->
<g id="edge16" class="edge">
<title>x4&#45;&gt;30674</title>
<path fill="none" stroke="#ff0000" stroke-width=".368" d="M252.2128,-356.9881C264.7809,-345.6456 281.732,-330.3475 296.0063,-317.4652"/>
<polygon fill="#ff0000" stroke="#ff0000" stroke-width=".368" points="298.5374,-319.8955 303.6163,-310.5973 293.8475,-314.6989 298.5374,-319.8955"/>
</g>
<!-- x4&#45;&gt;74906 -->
<g id="edge24" class="edge">
<title>x4&#45;&gt;74906</title>
<path fill="none" stroke="#00ff00" stroke-width=".4038" d="M237.9948,-355.3988C239.7442,-347.5047 241.8636,-337.9412 243.9184,-328.6689"/>
<polygon fill="#00ff00" stroke="#00ff00" stroke-width=".4038" points="247.3556,-329.335 246.1022,-318.8145 240.5214,-327.8204 247.3556,-329.335"/>
</g>
<!-- x5 -->
<g id="node6" class="node">
<title>x5</title>
<polygon fill="#d3d3d3" stroke="#000000" points="414,-391.4249 378,-391.4249 378,-355.4249 414,-355.4249 414,-391.4249"/>
<text text-anchor="middle" x="396" y="-370.7249" font-family="Times,serif" font-size="9.00" fill="#000000">x5</text>
</g>
<!-- x5&#45;&gt;145 -->
<g id="edge4" class="edge">
<title>x5&#45;&gt;145</title>
<path fill="none" stroke="#ff0000" stroke-width=".5139" d="M377.9088,-360.1131C375.0224,-358.3615 371.9973,-356.726 369,-355.4249 304.9201,-327.6083 277.8331,-351.9313 216,-319.4249 213.2259,-317.9665 210.5085,-316.191 207.9122,-314.2528"/>
<polygon fill="#ff0000" stroke="#ff0000" stroke-width=".5139" points="210.0176,-311.4504 200.1099,-307.6972 205.5146,-316.8098 210.0176,-311.4504"/>
</g>
<!-- x5&#45;&gt;30674 -->
<g id="edge19" class="edge">
<title>x5&#45;&gt;30674</title>
<path fill="none" stroke="#ff0000" stroke-width=".3709" d="M380.0209,-355.3988C370.9323,-345.1459 359.3475,-332.0771 349.0741,-320.4876"/>
<polygon fill="#ff0000" stroke="#ff0000" stroke-width=".3709" points="351.4706,-317.9147 342.2181,-312.7532 346.2324,-322.5581 351.4706,-317.9147"/>
</g>
<!-- x6 -->
<g id="node7" class="node">
<title>x6</title>
<polygon fill="#d3d3d3" stroke="#000000" points="360,-391.4249 324,-391.4249 324,-355.4249 360,-355.4249 360,-391.4249"/>
<text text-anchor="middle" x="342" y="-370.7249" font-family="Times,serif" font-size="9.00" fill="#000000">x6</text>
</g>
<!-- x6&#45;&gt;145 -->
<g id="edge7" class="edge">
<title>x6&#45;&gt;145</title>
<path fill="none" stroke="#ff0000" stroke-width=".9" d="M323.7622,-360.4254C320.896,-358.6307 317.9156,-356.9 315,-355.4249 273.2237,-334.2887 256.0883,-343.6103 216,-319.4249 213.4594,-317.8922 210.9415,-316.1253 208.5077,-314.2431"/>
<polygon fill="#ff0000" stroke="#ff0000" stroke-width=".9" points="210.536,-311.3739 200.6468,-307.572 206.0066,-316.711 210.536,-311.3739"/>
</g>
<!-- x6&#45;&gt;30674 -->
<g id="edge18" class="edge">
<title>x6&#45;&gt;30674</title>
<path fill="none" stroke="#00ff00" stroke-width=".3335" d="M338.0052,-355.3988C336.2558,-347.5047 334.1364,-337.9412 332.0816,-328.6689"/>
<polygon fill="#00ff00" stroke="#00ff00" stroke-width=".3335" points="335.4786,-327.8204 329.8978,-318.8145 328.6444,-329.335 335.4786,-327.8204"/>
</g>
<!-- x6&#45;&gt;74906 -->
<g id="edge32" class="edge">
<title>x6&#45;&gt;74906</title>
<path fill="none" stroke="#ff0000" stroke-width=".311" d="M323.7872,-356.9881C311.2191,-345.6456 294.268,-330.3475 279.9937,-317.4652"/>
<polygon fill="#ff0000" stroke="#ff0000" stroke-width=".311" points="282.1525,-314.6989 272.3837,-310.5973 277.4626,-319.8955 282.1525,-314.6989"/>
</g>
<!-- x7 -->
<g id="node8" class="node">
<title>x7</title>
<polygon fill="#d3d3d3" stroke="#000000" points="306,-391.4249 270,-391.4249 270,-355.4249 306,-355.4249 306,-391.4249"/>
<text text-anchor="middle" x="288" y="-370.7249" font-family="Times,serif" font-size="9.00" fill="#000000">x7</text>
</g>
<!-- x7&#45;&gt;145 -->
<g id="edge5" class="edge">
<title>x7&#45;&gt;145</title>
<path fill="none" stroke="#ff0000" stroke-width=".4967" d="M269.89,-360.563C255.1102,-349.8964 233.832,-334.1486 216,-319.4249 213.712,-317.5358 211.3634,-315.53 209.0363,-313.4972"/>
<polygon fill="#ff0000" stroke="#ff0000" stroke-width=".4967" points="211.1168,-310.6627 201.3265,-306.6128 206.4544,-315.884 211.1168,-310.6627"/>
</g>
<!-- x7&#45;&gt;30674 -->
<g id="edge17" class="edge">
<title>x7&#45;&gt;30674</title>
<path fill="none" stroke="#ff0000" stroke-width=".4284" d="M295.9896,-355.3988C299.757,-346.8986 304.3824,-336.4628 308.7808,-326.5391"/>
<polygon fill="#ff0000" stroke="#ff0000" stroke-width=".4284" points="312.0405,-327.8221 312.8928,-317.2615 305.6409,-324.9856 312.0405,-327.8221"/>
</g>
<!-- y0 -->
<g id="node9" class="node">
<title>y0</title>
<ellipse fill="#add8e6" stroke="#000000" cx="120" cy="-17.6777" rx="17.8571" ry="17.8571"/>
<text text-anchor="middle" x="120" y="-14.9777" font-family="Times,serif" font-size="9.00" fill="#000000">y0</text>
</g>
<!-- 363586 -->
<g id="node10" class="node">
<title>363586</title>
<ellipse fill="#ffffff" stroke="#000000" cx="255" cy="-198.5721" rx="30.3115" ry="30.3115"/>
<text text-anchor="middle" x="255" y="-195.8721" font-family="Times,serif" font-size="9.00" fill="#000000">363586</text>
</g>
<!-- 102676 -->
<g id="node16" class="node">
<title>102676</title>
<ellipse fill="#ffffff" stroke="#000000" cx="189" cy="-101.7609" rx="30.3115" ry="30.3115"/>
<text text-anchor="middle" x="189" y="-99.0609" font-family="Times,serif" font-size="9.00" fill="#000000">102676</text>
</g>
<!-- 363586&#45;&gt;102676 -->
<g id="edge34" class="edge">
<title>363586&#45;&gt;102676</title>
<path fill="none" stroke="#00ff00" stroke-width=".3149" d="M237.8316,-173.3888C229.9492,-161.8267 220.4876,-147.948 212.0004,-135.4987"/>
<polygon fill="#00ff00" stroke="#00ff00" stroke-width=".3149" points="214.8366,-133.4455 206.3117,-127.1544 209.0528,-137.3886 214.8366,-133.4455"/>
</g>
<!-- 19883 -->
<g id="node11" class="node">
<title>19883</title>
<ellipse fill="#ffffff" stroke="#000000" cx="48" cy="-198.5721" rx="27.4491" ry="27.4491"/>
<text text-anchor="middle" x="48" y="-195.8721" font-family="Times,serif" font-size="9.00" fill="#000000">19883</text>
</g>
<!-- 320024 -->
<g id="node19" class="node">
<title>320024</title>
<ellipse fill="#ffffff" stroke="#000000" cx="50" cy="-101.7609" rx="30.3115" ry="30.3115"/>
<text text-anchor="middle" x="50" y="-99.0609" font-family="Times,serif" font-size="9.00" fill="#000000">320024</text>
</g>
<!-- 19883&#45;&gt;320024 -->
<g id="edge30" class="edge">
<title>19883&#45;&gt;320024</title>
<path fill="none" stroke="#ff0000" stroke-width=".2258" d="M48.5624,-171.3472C48.7494,-162.2984 48.9617,-152.0197 49.1647,-142.1919"/>
<polygon fill="#ff0000" stroke="#ff0000" stroke-width=".2258" points="52.6641,-142.2542 49.3715,-132.184 45.6656,-142.1095 52.6641,-142.2542"/>
</g>
<!-- 20334 -->
<g id="node12" class="node">
<title>20334</title>
<ellipse fill="#ffffff" stroke="#000000" cx="120" cy="-198.5721" rx="27.4491" ry="27.4491"/>
<text text-anchor="middle" x="120" y="-195.8721" font-family="Times,serif" font-size="9.00" fill="#000000">20334</text>
</g>
<!-- 147 -->
<g id="node15" class="node">
<title>147</title>
<ellipse fill="#ffffff" stroke="#000000" cx="120" cy="-101.7609" rx="20.7202" ry="20.7202"/>
<text text-anchor="middle" x="120" y="-99.0609" font-family="Times,serif" font-size="9.00" fill="#000000">147</text>
</g>
<!-- 20334&#45;&gt;147 -->
<g id="edge15" class="edge">
<title>20334&#45;&gt;147</title>
<path fill="none" stroke="#ff0000" stroke-width=".3328" d="M120,-171.3472C120,-159.4086 120,-145.3289 120,-132.9687"/>
<polygon fill="#ff0000" stroke="#ff0000" stroke-width=".3328" points="123.5001,-132.6464 120,-122.6465 116.5001,-132.6465 123.5001,-132.6464"/>
</g>
<!-- 146 -->
<g id="node14" class="node">
<title>146</title>
<ellipse fill="#ffffff" stroke="#000000" cx="186" cy="-198.5721" rx="20.7202" ry="20.7202"/>
<text text-anchor="middle" x="186" y="-195.8721" font-family="Times,serif" font-size="9.00" fill="#000000">146</text>
</g>
<!-- 145&#45;&gt;146 -->
<g id="edge6" class="edge">
<title>145&#45;&gt;146</title>
<path fill="none" stroke="#ff0000" stroke-width=".9" d="M186,-270.9554C186,-258.8646 186,-243.4915 186,-230.0254"/>
<polygon fill="#ff0000" stroke="#ff0000" stroke-width=".9" points="189.5001,-229.7339 186,-219.734 182.5001,-229.734 189.5001,-229.7339"/>
</g>
<!-- 146&#45;&gt;147 -->
<g id="edge11" class="edge">
<title>146&#45;&gt;147</title>
<path fill="none" stroke="#ff0000" stroke-width=".9" d="M174.2005,-181.2642C164.0336,-166.351 149.2109,-144.6086 137.6353,-127.629"/>
<polygon fill="#ff0000" stroke="#ff0000" stroke-width=".9" points="140.4447,-125.5365 131.9199,-119.2454 134.6609,-129.4795 140.4447,-125.5365"/>
</g>
<!-- 146&#45;&gt;102676 -->
<g id="edge21" class="edge">
<title>146&#45;&gt;102676</title>
<path fill="none" stroke="#ff0000" stroke-width=".154" d="M186.651,-177.5655C186.9682,-167.3287 187.3609,-154.6542 187.7339,-142.6181"/>
<polygon fill="#ff0000" stroke="#ff0000" stroke-width=".154" points="191.2427,-142.3862 188.0542,-132.2825 184.246,-142.1693 191.2427,-142.3862"/>
</g>
<!-- 147&#45;&gt;y0 -->
<g id="edge1" class="edge">
<title>147&#45;&gt;y0</title>
<path fill="none" stroke="#ff0000" stroke-width=".893" d="M120,-80.5432C120,-69.999 120,-57.1168 120,-45.7654"/>
<polygon fill="#ff0000" stroke="#ff0000" stroke-width=".893" points="123.5001,-45.4774 120,-35.4774 116.5001,-45.4775 123.5001,-45.4774"/>
</g>
<!-- 102676&#45;&gt;y0 -->
<g id="edge22" class="edge">
<title>102676&#45;&gt;y0</title>
<path fill="none" stroke="#00ff00" stroke-width=".3485" d="M169.4119,-77.891C159.5372,-65.8576 147.6442,-51.3648 138.0008,-39.6134"/>
<polygon fill="#00ff00" stroke="#00ff00" stroke-width=".3485" points="140.4868,-37.1255 131.4375,-31.6154 135.0755,-41.566 140.4868,-37.1255"/>
</g>
<!-- 18066&#45;&gt;19883 -->
<g id="edge29" class="edge">
<title>18066&#45;&gt;19883</title>
<path fill="none" stroke="#00ff00" stroke-width=".1753" d="M103.3008,-270.4856C93.6682,-257.9593 81.4182,-242.0293 70.8972,-228.3478"/>
<polygon fill="#00ff00" stroke="#00ff00" stroke-width=".1753" points="73.4791,-225.9637 64.6087,-220.1701 67.9301,-230.2309 73.4791,-225.9637"/>
</g>
<!-- 18066&#45;&gt;20334 -->
<g id="edge14" class="edge">
<title>18066&#45;&gt;20334</title>
<path fill="none" stroke="#ff0000" stroke-width=".1638" d="M120,-264.8682C120,-255.9098 120,-245.793 120,-236.2101"/>
<polygon fill="#ff0000" stroke="#ff0000" stroke-width=".1638" points="123.5001,-236.1013 120,-226.1013 116.5001,-236.1014 123.5001,-236.1013"/>
</g>
<!-- 18066&#45;&gt;146 -->
<g id="edge25" class="edge">
<title>18066&#45;&gt;146</title>
<path fill="none" stroke="#ff0000" stroke-width=".7509" d="M135.9768,-269.5363C145.6442,-255.8218 157.9959,-238.2994 168.0066,-224.098"/>
<polygon fill="#ff0000" stroke="#ff0000" stroke-width=".7509" points="170.9913,-225.9385 173.8922,-215.7486 165.2699,-221.9055 170.9913,-225.9385"/>
</g>
<!-- 30674&#45;&gt;146 -->
<g id="edge23" class="edge">
<title>30674&#45;&gt;146</title>
<path fill="none" stroke="#ff0000" stroke-width=".9" d="M302.7551,-275.124C298.0129,-271.6009 292.9265,-268.0359 288,-264.9777 257.6035,-246.1083 244.9535,-249.9943 216,-228.9777 212.9393,-226.7561 209.9075,-224.2128 207.0145,-221.5644"/>
<polygon fill="#ff0000" stroke="#ff0000" stroke-width=".9" points="209.3499,-218.9526 199.7563,-214.4565 204.4521,-223.9539 209.3499,-218.9526"/>
</g>
<!-- 320024&#45;&gt;y0 -->
<g id="edge31" class="edge">
<title>320024&#45;&gt;y0</title>
<path fill="none" stroke="#00ff00" stroke-width=".1564" d="M69.4989,-78.3391C79.754,-66.0208 92.234,-51.0299 102.2218,-39.0326"/>
<polygon fill="#00ff00" stroke="#00ff00" stroke-width=".1564" points="104.9721,-41.1994 108.6804,-31.2747 99.5923,-36.7207 104.9721,-41.1994"/>
</g>
<!-- 74906&#45;&gt;363586 -->
<g id="edge33" class="edge">
<title>74906&#45;&gt;363586</title>
<path fill="none" stroke="#ff0000" stroke-width=".1032" d="M252.8758,-264.8682C253.1343,-256.7987 253.423,-247.7893 253.7022,-239.0769"/>
<polygon fill="#ff0000" stroke="#ff0000" stroke-width=".1032" points="257.201,-239.1668 254.0231,-229.0598 250.2046,-238.9426 257.201,-239.1668"/>
</g>
</g>
</svg>
