<?xml version="1.0" encoding="UTF-8" standalone="no"?>
<!DOCTYPE svg PUBLIC "-//W3C//DTD SVG 1.1//EN"
 "http://www.w3.org/Graphics/SVG/1.1/DTD/svg11.dtd">
<!-- Generated by graphviz version 2.40.1 (20161225.0304)
 -->
<!-- Title: %3 Pages: 1 -->
<svg width="422pt" height="329pt"
 viewBox="0.00 0.00 422.00 329.42" xmlns="http://www.w3.org/2000/svg" xmlns:xlink="http://www.w3.org/1999/xlink">
<g id="graph0" class="graph" transform="scale(1 1) rotate(0) translate(4 325.4214)">
<title>%3</title>
<polygon fill="#ffffff" stroke="transparent" points="-4,4 -4,-325.4214 418,-325.4214 418,4 -4,4"/>
<!-- x0 -->
<g id="node1" class="node">
<title>x0</title>
<polygon fill="#d3d3d3" stroke="#000000" points="252,-321.4214 216,-321.4214 216,-285.4214 252,-285.4214 252,-321.4214"/>
<text text-anchor="middle" x="234" y="-300.7214" font-family="Times,serif" font-size="9.00" fill="#000000">x0</text>
</g>
<!-- 4 -->
<g id="node10" class="node">
<title>4</title>
<ellipse fill="#ffffff" stroke="#000000" cx="232" cy="-225.3797" rx="14.4914" ry="14.4914"/>
<text text-anchor="middle" x="232" y="-222.6797" font-family="Times,serif" font-size="9.00" fill="#000000">4</text>
</g>
<!-- x0&#45;&gt;4 -->
<g id="edge19" class="edge">
<title>x0&#45;&gt;4</title>
<path fill="none" stroke="#ff0000" stroke-width=".1412" d="M233.5361,-285.3209C233.2703,-274.9476 232.9327,-261.7738 232.6417,-250.4198"/>
<polygon fill="#ff0000" stroke="#ff0000" stroke-width=".1412" points="236.136,-250.1495 232.3809,-240.2425 229.1383,-250.3289 236.136,-250.1495"/>
</g>
<!-- 4532 -->
<g id="node13" class="node">
<title>4532</title>
<ellipse fill="#ffffff" stroke="#000000" cx="289" cy="-225.3797" rx="24.0833" ry="24.0833"/>
<text text-anchor="middle" x="289" y="-222.6797" font-family="Times,serif" font-size="9.00" fill="#000000">4532</text>
</g>
<!-- x0&#45;&gt;4532 -->
<g id="edge13" class="edge">
<title>x0&#45;&gt;4532</title>
<path fill="none" stroke="#00ff00" stroke-width=".5228" d="M246.7563,-285.3209C253.4169,-275.8699 261.7158,-264.0944 269.1903,-253.4884"/>
<polygon fill="#00ff00" stroke="#00ff00" stroke-width=".5228" points="272.0613,-255.4904 274.9611,-245.3001 266.3394,-251.4579 272.0613,-255.4904"/>
</g>
<!-- x1 -->
<g id="node2" class="node">
<title>x1</title>
<polygon fill="#d3d3d3" stroke="#000000" points="360,-321.4214 324,-321.4214 324,-285.4214 360,-285.4214 360,-321.4214"/>
<text text-anchor="middle" x="342" y="-300.7214" font-family="Times,serif" font-size="9.00" fill="#000000">x1</text>
</g>
<!-- x1&#45;&gt;4 -->
<g id="edge5" class="edge">
<title>x1&#45;&gt;4</title>
<path fill="none" stroke="#00ff00" stroke-width=".1261" d="M323.7653,-291.1215C320.8465,-289.1942 317.8496,-287.2395 315,-285.4214 289.1041,-268.8983 280.1335,-268.4261 256,-249.4214 253.6543,-247.5742 251.2978,-245.5174 249.0265,-243.4061"/>
<polygon fill="#00ff00" stroke="#00ff00" stroke-width=".1261" points="251.3472,-240.7789 241.772,-236.2437 246.4291,-245.7602 251.3472,-240.7789"/>
</g>
<!-- x1&#45;&gt;4532 -->
<g id="edge15" class="edge">
<title>x1&#45;&gt;4532</title>
<path fill="none" stroke="#ff0000" stroke-width=".5663" d="M329.7075,-285.3209C323.3527,-275.9635 315.4503,-264.3274 308.3035,-253.8038"/>
<polygon fill="#ff0000" stroke="#ff0000" stroke-width=".5663" points="311.0421,-251.6064 302.5284,-245.3001 305.2512,-255.5391 311.0421,-251.6064"/>
</g>
<!-- 4470 -->
<g id="node14" class="node">
<title>4470</title>
<ellipse fill="#ffffff" stroke="#000000" cx="355" cy="-225.3797" rx="24.0833" ry="24.0833"/>
<text text-anchor="middle" x="355" y="-222.6797" font-family="Times,serif" font-size="9.00" fill="#000000">4470</text>
</g>
<!-- x1&#45;&gt;4470 -->
<g id="edge18" class="edge">
<title>x1&#45;&gt;4470</title>
<path fill="none" stroke="#00ff00" stroke-width=".375" d="M345.0151,-285.3209C346.3122,-277.5346 347.872,-268.1704 349.3692,-259.1824"/>
<polygon fill="#00ff00" stroke="#00ff00" stroke-width=".375" points="352.8249,-259.7378 351.0157,-249.2986 345.92,-258.5875 352.8249,-259.7378"/>
</g>
<!-- x2 -->
<g id="node3" class="node">
<title>x2</title>
<polygon fill="#d3d3d3" stroke="#000000" points="306,-321.4214 270,-321.4214 270,-285.4214 306,-285.4214 306,-321.4214"/>
<text text-anchor="middle" x="288" y="-300.7214" font-family="Times,serif" font-size="9.00" fill="#000000">x2</text>
</g>
<!-- x2&#45;&gt;4 -->
<g id="edge3" class="edge">
<title>x2&#45;&gt;4</title>
<path fill="none" stroke="#ff0000" stroke-width=".1532" d="M275.0117,-285.3209C266.4838,-273.4363 255.3181,-257.8759 246.5005,-245.5876"/>
<polygon fill="#ff0000" stroke="#ff0000" stroke-width=".1532" points="249.2399,-243.4017 240.5662,-237.3175 243.5526,-247.4828 249.2399,-243.4017"/>
</g>
<!-- x2&#45;&gt;4532 -->
<g id="edge17" class="edge">
<title>x2&#45;&gt;4532</title>
<path fill="none" stroke="#00ff00" stroke-width=".6672" d="M288.2319,-285.3209C288.3298,-277.683 288.4471,-268.5269 288.5603,-259.6969"/>
<polygon fill="#00ff00" stroke="#00ff00" stroke-width=".6672" points="292.0612,-259.6355 288.6898,-249.5914 285.0618,-259.5457 292.0612,-259.6355"/>
</g>
<!-- x3 -->
<g id="node4" class="node">
<title>x3</title>
<polygon fill="#d3d3d3" stroke="#000000" points="414,-321.4214 378,-321.4214 378,-285.4214 414,-285.4214 414,-321.4214"/>
<text text-anchor="middle" x="396" y="-300.7214" font-family="Times,serif" font-size="9.00" fill="#000000">x3</text>
</g>
<!-- x3&#45;&gt;4 -->
<g id="edge9" class="edge">
<title>x3&#45;&gt;4</title>
<path fill="none" stroke="#00ff00" stroke-width=".1143" d="M377.8145,-290.3157C374.9411,-288.5357 371.9448,-286.8374 369,-285.4214 321.4971,-262.5796 301.0091,-276.8523 256,-249.4214 253.4505,-247.8675 250.9708,-245.9881 248.6329,-243.9726"/>
<polygon fill="#00ff00" stroke="#00ff00" stroke-width=".1143" points="250.9436,-241.3374 241.336,-236.8713 246.0615,-246.3539 250.9436,-241.3374"/>
</g>
<!-- x3&#45;&gt;4532 -->
<g id="edge16" class="edge">
<title>x3&#45;&gt;4532</title>
<path fill="none" stroke="#ff0000" stroke-width=".6335" d="M377.8489,-290.1827C361.1248,-277.9847 336.0591,-259.7028 316.8108,-245.6638"/>
<polygon fill="#ff0000" stroke="#ff0000" stroke-width=".6335" points="318.8354,-242.8085 308.6936,-239.7435 314.7105,-248.464 318.8354,-242.8085"/>
</g>
<!-- x3&#45;&gt;4470 -->
<g id="edge11" class="edge">
<title>x3&#45;&gt;4470</title>
<path fill="none" stroke="#00ff00" stroke-width=".2587" d="M386.4907,-285.3209C381.8542,-276.4954 376.1527,-265.6428 370.881,-255.6085"/>
<polygon fill="#00ff00" stroke="#00ff00" stroke-width=".2587" points="373.9528,-253.9298 366.2034,-246.7049 367.7559,-257.1854 373.9528,-253.9298"/>
</g>
<!-- x4 -->
<g id="node5" class="node">
<title>x4</title>
<polygon fill="#d3d3d3" stroke="#000000" points="144,-321.4214 108,-321.4214 108,-285.4214 144,-285.4214 144,-321.4214"/>
<text text-anchor="middle" x="126" y="-300.7214" font-family="Times,serif" font-size="9.00" fill="#000000">x4</text>
</g>
<!-- x4&#45;&gt;4 -->
<g id="edge7" class="edge">
<title>x4&#45;&gt;4</title>
<path fill="none" stroke="#00ff00" stroke-width=".2485" d="M144.4638,-289.8275C163.393,-275.8911 192.7325,-254.2901 212.1511,-239.9933"/>
<polygon fill="#00ff00" stroke="#00ff00" stroke-width=".2485" points="214.3243,-242.7396 220.3021,-233.9922 210.1741,-237.1026 214.3243,-242.7396"/>
</g>
<!-- x5 -->
<g id="node6" class="node">
<title>x5</title>
<polygon fill="#d3d3d3" stroke="#000000" points="198,-321.4214 162,-321.4214 162,-285.4214 198,-285.4214 198,-321.4214"/>
<text text-anchor="middle" x="180" y="-300.7214" font-family="Times,serif" font-size="9.00" fill="#000000">x5</text>
</g>
<!-- x5&#45;&gt;4 -->
<g id="edge4" class="edge">
<title>x5&#45;&gt;4</title>
<path fill="none" stroke="#ff0000" stroke-width=".416" d="M192.0605,-285.3209C199.8068,-273.6952 209.8969,-258.5521 217.9971,-246.3953"/>
<polygon fill="#ff0000" stroke="#ff0000" stroke-width=".416" points="221.0994,-248.0514 223.7317,-237.7888 215.2741,-244.1699 221.0994,-248.0514"/>
</g>
<!-- x6 -->
<g id="node7" class="node">
<title>x6</title>
<polygon fill="#d3d3d3" stroke="#000000" points="36,-321.4214 0,-321.4214 0,-285.4214 36,-285.4214 36,-321.4214"/>
<text text-anchor="middle" x="18" y="-300.7214" font-family="Times,serif" font-size="9.00" fill="#000000">x6</text>
</g>
<!-- x6&#45;&gt;4 -->
<g id="edge2" class="edge">
<title>x6&#45;&gt;4</title>
<path fill="none" stroke="#00ff00" stroke-width=".2488" d="M36.1884,-290.3217C39.0614,-288.5408 42.0568,-286.8407 45,-285.4214 100.6276,-258.5953 171.1468,-239.6738 207.6408,-230.8999"/>
<polygon fill="#00ff00" stroke="#00ff00" stroke-width=".2488" points="208.4748,-234.2993 217.4063,-228.6004 206.8703,-227.4857 208.4748,-234.2993"/>
</g>
<!-- x7 -->
<g id="node8" class="node">
<title>x7</title>
<polygon fill="#d3d3d3" stroke="#000000" points="90,-321.4214 54,-321.4214 54,-285.4214 90,-285.4214 90,-321.4214"/>
<text text-anchor="middle" x="72" y="-300.7214" font-family="Times,serif" font-size="9.00" fill="#000000">x7</text>
</g>
<!-- x7&#45;&gt;4 -->
<g id="edge8" class="edge">
<title>x7&#45;&gt;4</title>
<path fill="none" stroke="#ff0000" stroke-width=".3925" d="M90.0465,-290.8054C92.9896,-288.9189 96.0434,-287.0598 99,-285.4214 136.333,-264.7331 182.1312,-245.2705 209.0832,-234.3807"/>
<polygon fill="#ff0000" stroke="#ff0000" stroke-width=".3925" points="210.4473,-237.6047 218.4331,-230.6421 207.8483,-231.105 210.4473,-237.6047"/>
</g>
<!-- y0 -->
<g id="node9" class="node">
<title>y0</title>
<ellipse fill="#add8e6" stroke="#000000" cx="289" cy="-17.6777" rx="17.8571" ry="17.8571"/>
<text text-anchor="middle" x="289" y="-14.9777" font-family="Times,serif" font-size="9.00" fill="#000000">y0</text>
</g>
<!-- 5 -->
<g id="node11" class="node">
<title>5</title>
<ellipse fill="#ffffff" stroke="#000000" cx="289" cy="-150.8424" rx="14.4914" ry="14.4914"/>
<text text-anchor="middle" x="289" y="-148.1424" font-family="Times,serif" font-size="9.00" fill="#000000">5</text>
</g>
<!-- 4&#45;&gt;5 -->
<g id="edge1" class="edge">
<title>4&#45;&gt;5</title>
<path fill="none" stroke="#ff0000" stroke-width=".516" d="M240.9063,-213.7333C249.6391,-202.3136 263.1291,-184.6731 273.602,-170.978"/>
<polygon fill="#ff0000" stroke="#ff0000" stroke-width=".516" points="276.6738,-172.7227 279.9682,-162.6531 271.1133,-168.4705 276.6738,-172.7227"/>
</g>
<!-- 6 -->
<g id="node12" class="node">
<title>6</title>
<ellipse fill="#ffffff" stroke="#000000" cx="289" cy="-85.851" rx="14.4914" ry="14.4914"/>
<text text-anchor="middle" x="289" y="-83.151" font-family="Times,serif" font-size="9.00" fill="#000000">6</text>
</g>
<!-- 5&#45;&gt;6 -->
<g id="edge6" class="edge">
<title>5&#45;&gt;6</title>
<path fill="none" stroke="#ff0000" stroke-width=".3034" d="M289,-136.0949C289,-128.6163 289,-119.3285 289,-110.7804"/>
<polygon fill="#ff0000" stroke="#ff0000" stroke-width=".3034" points="292.5001,-110.5402 289,-100.5402 285.5001,-110.5402 292.5001,-110.5402"/>
</g>
<!-- 6&#45;&gt;y0 -->
<g id="edge10" class="edge">
<title>6&#45;&gt;y0</title>
<path fill="none" stroke="#ff0000" stroke-width=".1662" d="M289,-71.0584C289,-63.7084 289,-54.5739 289,-45.9508"/>
<polygon fill="#ff0000" stroke="#ff0000" stroke-width=".1662" points="292.5001,-45.8405 289,-35.8405 285.5001,-45.8406 292.5001,-45.8405"/>
</g>
<!-- 4532&#45;&gt;5 -->
<g id="edge14" class="edge">
<title>4532&#45;&gt;5</title>
<path fill="none" stroke="#00ff00" stroke-width=".1927" d="M289,-200.9734C289,-192.8256 289,-183.7428 289,-175.5707"/>
<polygon fill="#00ff00" stroke="#00ff00" stroke-width=".1927" points="292.5001,-175.5074 289,-165.5074 285.5001,-175.5075 292.5001,-175.5074"/>
</g>
<!-- 4470&#45;&gt;5 -->
<g id="edge12" class="edge">
<title>4470&#45;&gt;5</title>
<path fill="none" stroke="#00ff00" stroke-width=".2611" d="M339.0232,-207.3363C328.954,-195.9646 315.9728,-181.3043 305.7578,-169.7679"/>
<polygon fill="#00ff00" stroke="#00ff00" stroke-width=".2611" points="308.1395,-167.178 298.8898,-162.0115 302.8987,-171.8186 308.1395,-167.178"/>
</g>
</g>
</svg>
