<?xml version="1.0" encoding="UTF-8" standalone="no"?>
<!DOCTYPE svg PUBLIC "-//W3C//DTD SVG 1.1//EN"
 "http://www.w3.org/Graphics/SVG/1.1/DTD/svg11.dtd">
<!-- Generated by graphviz version 2.40.1 (20161225.0304)
 -->
<!-- Title: %3 Pages: 1 -->
<svg width="422pt" height="406pt"
 viewBox="0.00 0.00 422.00 405.79" xmlns="http://www.w3.org/2000/svg" xmlns:xlink="http://www.w3.org/1999/xlink">
<g id="graph0" class="graph" transform="scale(1 1) rotate(0) translate(4 401.7889)">
<title>%3</title>
<polygon fill="#ffffff" stroke="transparent" points="-4,4 -4,-401.7889 418,-401.7889 418,4 -4,4"/>
<!-- x0 -->
<g id="node1" class="node">
<title>x0</title>
<polygon fill="#d3d3d3" stroke="#000000" points="252,-397.7889 216,-397.7889 216,-361.7889 252,-361.7889 252,-397.7889"/>
<text text-anchor="middle" x="234" y="-377.0889" font-family="Times,serif" font-size="9.00" fill="#000000">x0</text>
</g>
<!-- 339610 -->
<g id="node16" class="node">
<title>339610</title>
<ellipse fill="#ffffff" stroke="#000000" cx="275" cy="-295.3833" rx="30.3115" ry="30.3115"/>
<text text-anchor="middle" x="275" y="-292.6833" font-family="Times,serif" font-size="9.00" fill="#000000">339610</text>
</g>
<!-- x0&#45;&gt;339610 -->
<g id="edge14" class="edge">
<title>x0&#45;&gt;339610</title>
<path fill="none" stroke="#ff0000" stroke-width=".4826" d="M242.8964,-361.4741C247.0797,-352.862 252.2244,-342.2709 257.1598,-332.1105"/>
<polygon fill="#ff0000" stroke="#ff0000" stroke-width=".4826" points="260.3788,-333.494 261.5999,-322.9697 254.0823,-330.4354 260.3788,-333.494"/>
</g>
<!-- 154 -->
<g id="node17" class="node">
<title>154</title>
<ellipse fill="#ffffff" stroke="#000000" cx="180" cy="-295.3833" rx="20.7202" ry="20.7202"/>
<text text-anchor="middle" x="180" y="-292.6833" font-family="Times,serif" font-size="9.00" fill="#000000">154</text>
</g>
<!-- x0&#45;&gt;154 -->
<g id="edge4" class="edge">
<title>x0&#45;&gt;154</title>
<path fill="none" stroke="#ff0000" stroke-width=".3993" d="M222.2828,-361.4741C214.8227,-349.8135 205.0416,-334.525 196.766,-321.5897"/>
<polygon fill="#ff0000" stroke="#ff0000" stroke-width=".3993" points="199.6617,-319.6213 191.3243,-313.0839 193.7652,-323.3937 199.6617,-319.6213"/>
</g>
<!-- x1 -->
<g id="node2" class="node">
<title>x1</title>
<polygon fill="#d3d3d3" stroke="#000000" points="414,-397.7889 378,-397.7889 378,-361.7889 414,-361.7889 414,-397.7889"/>
<text text-anchor="middle" x="396" y="-377.0889" font-family="Times,serif" font-size="9.00" fill="#000000">x1</text>
</g>
<!-- 354763 -->
<g id="node12" class="node">
<title>354763</title>
<ellipse fill="#ffffff" stroke="#000000" cx="354" cy="-295.3833" rx="30.3115" ry="30.3115"/>
<text text-anchor="middle" x="354" y="-292.6833" font-family="Times,serif" font-size="9.00" fill="#000000">354763</text>
</g>
<!-- x1&#45;&gt;354763 -->
<g id="edge19" class="edge">
<title>x1&#45;&gt;354763</title>
<path fill="none" stroke="#ff0000" stroke-width=".4939" d="M386.8866,-361.4741C382.5643,-352.7877 377.2402,-342.0881 372.1447,-331.8478"/>
<polygon fill="#ff0000" stroke="#ff0000" stroke-width=".4939" points="375.1531,-330.0371 367.5646,-322.6435 368.8861,-333.1556 375.1531,-330.0371"/>
</g>
<!-- x2 -->
<g id="node3" class="node">
<title>x2</title>
<polygon fill="#d3d3d3" stroke="#000000" points="306,-397.7889 270,-397.7889 270,-361.7889 306,-361.7889 306,-397.7889"/>
<text text-anchor="middle" x="288" y="-377.0889" font-family="Times,serif" font-size="9.00" fill="#000000">x2</text>
</g>
<!-- x2&#45;&gt;339610 -->
<g id="edge28" class="edge">
<title>x2&#45;&gt;339610</title>
<path fill="none" stroke="#00ff00" stroke-width=".2138" d="M285.1792,-361.4741C284.0072,-353.865 282.5974,-344.7111 281.2055,-335.6743"/>
<polygon fill="#00ff00" stroke="#00ff00" stroke-width=".2138" points="284.637,-334.9605 279.6554,-325.6098 277.7185,-336.0261 284.637,-334.9605"/>
</g>
<!-- x2&#45;&gt;154 -->
<g id="edge3" class="edge">
<title>x2&#45;&gt;154</title>
<path fill="none" stroke="#ff0000" stroke-width=".3014" d="M269.6793,-365.4706C251.7753,-351.4781 224.3998,-330.0832 204.6045,-314.6125"/>
<polygon fill="#ff0000" stroke="#ff0000" stroke-width=".3014" points="206.6691,-311.784 196.6346,-308.3838 202.3586,-317.2994 206.6691,-311.784"/>
</g>
<!-- x3 -->
<g id="node4" class="node">
<title>x3</title>
<polygon fill="#d3d3d3" stroke="#000000" points="360,-397.7889 324,-397.7889 324,-361.7889 360,-361.7889 360,-397.7889"/>
<text text-anchor="middle" x="342" y="-377.0889" font-family="Times,serif" font-size="9.00" fill="#000000">x3</text>
</g>
<!-- x3&#45;&gt;354763 -->
<g id="edge17" class="edge">
<title>x3&#45;&gt;354763</title>
<path fill="none" stroke="#ff0000" stroke-width=".4797" d="M344.6038,-361.4741C345.6856,-353.865 346.987,-344.7111 348.2718,-335.6743"/>
<polygon fill="#ff0000" stroke="#ff0000" stroke-width=".4797" points="351.7602,-336.0029 349.7027,-325.6098 344.8299,-335.0176 351.7602,-336.0029"/>
</g>
<!-- x3&#45;&gt;339610 -->
<g id="edge23" class="edge">
<title>x3&#45;&gt;339610</title>
<path fill="none" stroke="#ff0000" stroke-width=".1276" d="M327.462,-361.4741C319.5957,-351.5642 309.6494,-339.0341 300.5375,-327.555"/>
<polygon fill="#ff0000" stroke="#ff0000" stroke-width=".1276" points="303.0503,-325.091 294.0916,-319.4347 297.5676,-329.4431 303.0503,-325.091"/>
</g>
<!-- x4 -->
<g id="node5" class="node">
<title>x4</title>
<polygon fill="#d3d3d3" stroke="#000000" points="36,-397.7889 0,-397.7889 0,-361.7889 36,-361.7889 36,-397.7889"/>
<text text-anchor="middle" x="18" y="-377.0889" font-family="Times,serif" font-size="9.00" fill="#000000">x4</text>
</g>
<!-- x4&#45;&gt;154 -->
<g id="edge6" class="edge">
<title>x4&#45;&gt;154</title>
<path fill="none" stroke="#00ff00" stroke-width=".1945" d="M36.0949,-367.2585C39.0317,-365.361 42.0709,-363.476 45,-361.7889 80.8362,-341.1479 123.9847,-320.6375 151.6923,-307.9918"/>
<polygon fill="#00ff00" stroke="#00ff00" stroke-width=".1945" points="153.1477,-311.175 160.8116,-303.8596 150.2585,-304.799 153.1477,-311.175"/>
</g>
<!-- x5 -->
<g id="node6" class="node">
<title>x5</title>
<polygon fill="#d3d3d3" stroke="#000000" points="90,-397.7889 54,-397.7889 54,-361.7889 90,-361.7889 90,-397.7889"/>
<text text-anchor="middle" x="72" y="-377.0889" font-family="Times,serif" font-size="9.00" fill="#000000">x5</text>
</g>
<!-- x5&#45;&gt;154 -->
<g id="edge1" class="edge">
<title>x5&#45;&gt;154</title>
<path fill="none" stroke="#ff0000" stroke-width=".3358" d="M90.3207,-365.4706C108.2247,-351.4781 135.6002,-330.0832 155.3955,-314.6125"/>
<polygon fill="#ff0000" stroke="#ff0000" stroke-width=".3358" points="157.6414,-317.2994 163.3654,-308.3838 153.3309,-311.784 157.6414,-317.2994"/>
</g>
<!-- x6 -->
<g id="node7" class="node">
<title>x6</title>
<polygon fill="#d3d3d3" stroke="#000000" points="144,-397.7889 108,-397.7889 108,-361.7889 144,-361.7889 144,-397.7889"/>
<text text-anchor="middle" x="126" y="-377.0889" font-family="Times,serif" font-size="9.00" fill="#000000">x6</text>
</g>
<!-- x6&#45;&gt;154 -->
<g id="edge2" class="edge">
<title>x6&#45;&gt;154</title>
<path fill="none" stroke="#00ff00" stroke-width=".2043" d="M137.7172,-361.4741C145.1773,-349.8135 154.9584,-334.525 163.234,-321.5897"/>
<polygon fill="#00ff00" stroke="#00ff00" stroke-width=".2043" points="166.2348,-323.3937 168.6757,-313.0839 160.3383,-319.6213 166.2348,-323.3937"/>
</g>
<!-- x7 -->
<g id="node8" class="node">
<title>x7</title>
<polygon fill="#d3d3d3" stroke="#000000" points="198,-397.7889 162,-397.7889 162,-361.7889 198,-361.7889 198,-397.7889"/>
<text text-anchor="middle" x="180" y="-377.0889" font-family="Times,serif" font-size="9.00" fill="#000000">x7</text>
</g>
<!-- x7&#45;&gt;154 -->
<g id="edge7" class="edge">
<title>x7&#45;&gt;154</title>
<path fill="none" stroke="#ff0000" stroke-width=".345" d="M180,-361.4741C180,-351.3029 180,-338.3713 180,-326.649"/>
<polygon fill="#ff0000" stroke="#ff0000" stroke-width=".345" points="183.5001,-326.3374 180,-316.3374 176.5001,-326.3374 183.5001,-326.3374"/>
</g>
<!-- y0 -->
<g id="node9" class="node">
<title>y0</title>
<ellipse fill="#add8e6" stroke="#000000" cx="246" cy="-17.6777" rx="17.8571" ry="17.8571"/>
<text text-anchor="middle" x="246" y="-14.9777" font-family="Times,serif" font-size="9.00" fill="#000000">y0</text>
</g>
<!-- 358692 -->
<g id="node10" class="node">
<title>358692</title>
<ellipse fill="#ffffff" stroke="#000000" cx="131" cy="-101.7609" rx="30.3115" ry="30.3115"/>
<text text-anchor="middle" x="131" y="-99.0609" font-family="Times,serif" font-size="9.00" fill="#000000">358692</text>
</g>
<!-- 358692&#45;&gt;y0 -->
<g id="edge27" class="edge">
<title>358692&#45;&gt;y0</title>
<path fill="none" stroke="#ff0000" stroke-width=".1174" d="M155.4546,-82.9961C160.5706,-79.12 165.9458,-75.0837 171,-71.3553 188.2866,-58.6033 208.0522,-44.4753 222.9511,-33.9156"/>
<polygon fill="#ff0000" stroke="#ff0000" stroke-width=".1174" points="225.3898,-36.4778 231.5333,-27.8459 221.3478,-30.7626 225.3898,-36.4778"/>
</g>
<!-- 9637 -->
<g id="node11" class="node">
<title>9637</title>
<ellipse fill="#ffffff" stroke="#000000" cx="282" cy="-101.7609" rx="24.0833" ry="24.0833"/>
<text text-anchor="middle" x="282" y="-99.0609" font-family="Times,serif" font-size="9.00" fill="#000000">9637</text>
</g>
<!-- 9637&#45;&gt;y0 -->
<g id="edge9" class="edge">
<title>9637&#45;&gt;y0</title>
<path fill="none" stroke="#00ff00" stroke-width=".5436" d="M272.3527,-79.2282C267.6489,-68.2419 261.9674,-54.9718 257.0859,-43.5704"/>
<polygon fill="#00ff00" stroke="#00ff00" stroke-width=".5436" points="260.2002,-41.9516 253.0467,-34.1363 253.7652,-44.7067 260.2002,-41.9516"/>
</g>
<!-- 155 -->
<g id="node18" class="node">
<title>155</title>
<ellipse fill="#ffffff" stroke="#000000" cx="282" cy="-198.5721" rx="20.7202" ry="20.7202"/>
<text text-anchor="middle" x="282" y="-195.8721" font-family="Times,serif" font-size="9.00" fill="#000000">155</text>
</g>
<!-- 354763&#45;&gt;155 -->
<g id="edge18" class="edge">
<title>354763&#45;&gt;155</title>
<path fill="none" stroke="#ff0000" stroke-width=".521" d="M335.8314,-270.9537C325.0358,-256.4381 311.3782,-238.074 300.5212,-223.4757"/>
<polygon fill="#ff0000" stroke="#ff0000" stroke-width=".521" points="303.2714,-221.3086 294.4952,-215.3731 297.6544,-225.486 303.2714,-221.3086"/>
</g>
<!-- 358655 -->
<g id="node20" class="node">
<title>358655</title>
<ellipse fill="#ffffff" stroke="#000000" cx="354" cy="-198.5721" rx="30.3115" ry="30.3115"/>
<text text-anchor="middle" x="354" y="-195.8721" font-family="Times,serif" font-size="9.00" fill="#000000">358655</text>
</g>
<!-- 354763&#45;&gt;358655 -->
<g id="edge24" class="edge">
<title>354763&#45;&gt;358655</title>
<path fill="none" stroke="#ff0000" stroke-width=".4377" d="M354,-264.7516C354,-256.6387 354,-247.7523 354,-239.1987"/>
<polygon fill="#ff0000" stroke="#ff0000" stroke-width=".4377" points="357.5001,-239.0045 354,-229.0045 350.5001,-239.0045 357.5001,-239.0045"/>
</g>
<!-- 356881 -->
<g id="node13" class="node">
<title>356881</title>
<ellipse fill="#ffffff" stroke="#000000" cx="137" cy="-198.5721" rx="30.3115" ry="30.3115"/>
<text text-anchor="middle" x="137" y="-195.8721" font-family="Times,serif" font-size="9.00" fill="#000000">356881</text>
</g>
<!-- 356881&#45;&gt;358692 -->
<g id="edge26" class="edge">
<title>356881&#45;&gt;358692</title>
<path fill="none" stroke="#00ff00" stroke-width=".1459" d="M135.118,-168.2061C134.6147,-160.0849 134.0624,-151.1732 133.5303,-142.5877"/>
<polygon fill="#00ff00" stroke="#00ff00" stroke-width=".1459" points="137.0079,-142.1164 132.8959,-132.3521 130.0213,-142.5495 137.0079,-142.1164"/>
</g>
<!-- 338163 -->
<g id="node14" class="node">
<title>338163</title>
<ellipse fill="#ffffff" stroke="#000000" cx="210" cy="-101.7609" rx="30.3115" ry="30.3115"/>
<text text-anchor="middle" x="210" y="-99.0609" font-family="Times,serif" font-size="9.00" fill="#000000">338163</text>
</g>
<!-- 338163&#45;&gt;y0 -->
<g id="edge13" class="edge">
<title>338163&#45;&gt;y0</title>
<path fill="none" stroke="#00ff00" stroke-width=".1892" d="M221.9875,-73.7624C226.1773,-63.9764 230.8582,-53.0435 234.9666,-43.4478"/>
<polygon fill="#00ff00" stroke="#00ff00" stroke-width=".1892" points="238.2777,-44.6067 238.9961,-34.0363 231.8427,-41.8516 238.2777,-44.6067"/>
</g>
<!-- 9717 -->
<g id="node15" class="node">
<title>9717</title>
<ellipse fill="#ffffff" stroke="#000000" cx="215" cy="-198.5721" rx="24.0833" ry="24.0833"/>
<text text-anchor="middle" x="215" y="-195.8721" font-family="Times,serif" font-size="9.00" fill="#000000">9717</text>
</g>
<!-- 9717&#45;&gt;9637 -->
<g id="edge11" class="edge">
<title>9717&#45;&gt;9637</title>
<path fill="none" stroke="#ff0000" stroke-width=".2692" d="M228.8824,-178.5128C238.5846,-164.4937 251.6764,-145.5769 262.4348,-130.0315"/>
<polygon fill="#ff0000" stroke="#ff0000" stroke-width=".2692" points="265.3225,-132.0092 268.1353,-121.7946 259.5665,-128.0256 265.3225,-132.0092"/>
</g>
<!-- 9717&#45;&gt;338163 -->
<g id="edge12" class="edge">
<title>9717&#45;&gt;338163</title>
<path fill="none" stroke="#00ff00" stroke-width=".6027" d="M213.7383,-174.1426C213.2428,-164.5492 212.6605,-153.2749 212.105,-142.5176"/>
<polygon fill="#00ff00" stroke="#00ff00" stroke-width=".6027" points="215.5954,-142.2403 211.5842,-132.4341 208.6047,-142.6014 215.5954,-142.2403"/>
</g>
<!-- 339610&#45;&gt;9717 -->
<g id="edge16" class="edge">
<title>339610&#45;&gt;9717</title>
<path fill="none" stroke="#ff0000" stroke-width=".1508" d="M258.9211,-269.4397C250.9676,-256.6066 241.3368,-241.0671 233.1227,-227.8135"/>
<polygon fill="#ff0000" stroke="#ff0000" stroke-width=".1508" points="235.9434,-225.7206 227.7004,-219.0644 229.9934,-229.4082 235.9434,-225.7206"/>
</g>
<!-- 339610&#45;&gt;155 -->
<g id="edge15" class="edge">
<title>339610&#45;&gt;155</title>
<path fill="none" stroke="#ff0000" stroke-width=".4012" d="M277.1956,-265.0173C278.0039,-253.8393 278.9204,-241.1637 279.7346,-229.9023"/>
<polygon fill="#ff0000" stroke="#ff0000" stroke-width=".4012" points="283.2467,-229.8601 280.4771,-219.6337 276.265,-229.3552 283.2467,-229.8601"/>
</g>
<!-- 154&#45;&gt;356881 -->
<g id="edge22" class="edge">
<title>154&#45;&gt;356881</title>
<path fill="none" stroke="#00ff00" stroke-width=".1599" d="M171.5046,-276.2565C166.3739,-264.7051 159.6605,-249.5905 153.5205,-235.7667"/>
<polygon fill="#00ff00" stroke="#00ff00" stroke-width=".1599" points="156.6458,-234.1806 149.3878,-226.4623 150.2484,-237.0221 156.6458,-234.1806"/>
</g>
<!-- 154&#45;&gt;9717 -->
<g id="edge10" class="edge">
<title>154&#45;&gt;9717</title>
<path fill="none" stroke="#ff0000" stroke-width=".3132" d="M187.252,-275.324C191.8723,-262.5441 197.9641,-245.6941 203.2625,-231.0384"/>
<polygon fill="#ff0000" stroke="#ff0000" stroke-width=".3132" points="206.6676,-231.914 206.7761,-221.3197 200.0846,-229.534 206.6676,-231.914"/>
</g>
<!-- 154&#45;&gt;155 -->
<g id="edge5" class="edge">
<title>154&#45;&gt;155</title>
<path fill="none" stroke="#00ff00" stroke-width=".9" d="M195.4916,-280.6798C212.5148,-264.5226 240.0161,-238.4202 259.4345,-219.9897"/>
<polygon fill="#00ff00" stroke="#00ff00" stroke-width=".9" points="261.8531,-222.5196 266.6968,-213.0968 257.0342,-217.4424 261.8531,-222.5196"/>
</g>
<!-- 155&#45;&gt;9637 -->
<g id="edge8" class="edge">
<title>155&#45;&gt;9637</title>
<path fill="none" stroke="#ff0000" stroke-width=".415" d="M282,-177.5655C282,-165.5118 282,-150.0783 282,-136.2868"/>
<polygon fill="#ff0000" stroke="#ff0000" stroke-width=".415" points="285.5001,-136.1436 282,-126.1436 278.5001,-136.1436 285.5001,-136.1436"/>
</g>
<!-- 356637 -->
<g id="node19" class="node">
<title>356637</title>
<ellipse fill="#ffffff" stroke="#000000" cx="354" cy="-101.7609" rx="30.3115" ry="30.3115"/>
<text text-anchor="middle" x="354" y="-99.0609" font-family="Times,serif" font-size="9.00" fill="#000000">356637</text>
</g>
<!-- 155&#45;&gt;356637 -->
<g id="edge20" class="edge">
<title>155&#45;&gt;356637</title>
<path fill="none" stroke="#ff0000" stroke-width=".1432" d="M294.5414,-181.7089C304.1279,-168.8189 317.6454,-150.6433 329.3698,-134.8787"/>
<polygon fill="#ff0000" stroke="#ff0000" stroke-width=".1432" points="332.5033,-136.5303 335.6626,-126.4175 326.8864,-132.3529 332.5033,-136.5303"/>
</g>
<!-- 356637&#45;&gt;y0 -->
<g id="edge21" class="edge">
<title>356637&#45;&gt;y0</title>
<path fill="none" stroke="#ff0000" stroke-width=".1084" d="M329.6623,-82.7801C324.806,-78.9946 319.7415,-75.048 315,-71.3553 299.382,-59.1923 281.7674,-45.4895 268.2448,-34.9732"/>
<polygon fill="#ff0000" stroke="#ff0000" stroke-width=".1084" points="270.0542,-31.9465 260.0115,-28.5708 265.7571,-37.4724 270.0542,-31.9465"/>
</g>
<!-- 358655&#45;&gt;356637 -->
<g id="edge25" class="edge">
<title>358655&#45;&gt;356637</title>
<path fill="none" stroke="#ff0000" stroke-width=".1341" d="M354,-167.9405C354,-159.8276 354,-150.9411 354,-142.3875"/>
<polygon fill="#ff0000" stroke="#ff0000" stroke-width=".1341" points="357.5001,-142.1933 354,-132.1933 350.5001,-142.1934 357.5001,-142.1933"/>
</g>
</g>
</svg>
