<?xml version="1.0" encoding="UTF-8" standalone="no"?>
<!DOCTYPE svg PUBLIC "-//W3C//DTD SVG 1.1//EN"
 "http://www.w3.org/Graphics/SVG/1.1/DTD/svg11.dtd">
<!-- Generated by graphviz version 2.40.1 (20161225.0304)
 -->
<!-- Title: %3 Pages: 1 -->
<svg width="422pt" height="380pt"
 viewBox="0.00 0.00 422.00 380.33" xmlns="http://www.w3.org/2000/svg" xmlns:xlink="http://www.w3.org/1999/xlink">
<g id="graph0" class="graph" transform="scale(1 1) rotate(0) translate(4 376.333)">
<title>%3</title>
<polygon fill="#ffffff" stroke="transparent" points="-4,4 -4,-376.333 418,-376.333 418,4 -4,4"/>
<!-- x0 -->
<g id="node1" class="node">
<title>x0</title>
<polygon fill="#d3d3d3" stroke="#000000" points="306,-372.333 270,-372.333 270,-336.333 306,-336.333 306,-372.333"/>
<text text-anchor="middle" x="288" y="-351.633" font-family="Times,serif" font-size="9.00" fill="#000000">x0</text>
</g>
<!-- 41763 -->
<g id="node12" class="node">
<title>41763</title>
<ellipse fill="#ffffff" stroke="#000000" cx="288" cy="-273.1094" rx="27.4491" ry="27.4491"/>
<text text-anchor="middle" x="288" y="-270.4094" font-family="Times,serif" font-size="9.00" fill="#000000">41763</text>
</g>
<!-- x0&#45;&gt;41763 -->
<g id="edge15" class="edge">
<title>x0&#45;&gt;41763</title>
<path fill="none" stroke="#ff0000" stroke-width=".443" d="M288,-336.3069C288,-328.6326 288,-319.3806 288,-310.3522"/>
<polygon fill="#ff0000" stroke="#ff0000" stroke-width=".443" points="291.5001,-310.3498 288,-300.3499 284.5001,-310.3499 291.5001,-310.3498"/>
</g>
<!-- 19 -->
<g id="node14" class="node">
<title>19</title>
<ellipse fill="#ffffff" stroke="#000000" cx="221" cy="-273.1094" rx="17.8571" ry="17.8571"/>
<text text-anchor="middle" x="221" y="-270.4094" font-family="Times,serif" font-size="9.00" fill="#000000">19</text>
</g>
<!-- x0&#45;&gt;19 -->
<g id="edge2" class="edge">
<title>x0&#45;&gt;19</title>
<path fill="none" stroke="#ff0000" stroke-width=".2658" d="M273.1305,-336.3069C263.0106,-324.0385 249.5647,-307.7382 238.8633,-294.765"/>
<polygon fill="#ff0000" stroke="#ff0000" stroke-width=".2658" points="241.3532,-292.2831 232.2899,-286.7961 235.9532,-296.7374 241.3532,-292.2831"/>
</g>
<!-- 65563 -->
<g id="node16" class="node">
<title>65563</title>
<ellipse fill="#ffffff" stroke="#000000" cx="153" cy="-273.1094" rx="27.4491" ry="27.4491"/>
<text text-anchor="middle" x="153" y="-270.4094" font-family="Times,serif" font-size="9.00" fill="#000000">65563</text>
</g>
<!-- x0&#45;&gt;65563 -->
<g id="edge21" class="edge">
<title>x0&#45;&gt;65563</title>
<path fill="none" stroke="#00ff00" stroke-width=".3509" d="M269.8511,-341.8947C266.9212,-339.9853 263.8983,-338.0725 261,-336.333 232.0151,-318.9379 223.001,-317.7013 194,-300.333 190.8068,-298.4207 187.5131,-296.3708 184.2456,-294.2857"/>
<polygon fill="#00ff00" stroke="#00ff00" stroke-width=".3509" points="186.0352,-291.2745 175.7445,-288.7539 182.2173,-297.1417 186.0352,-291.2745"/>
</g>
<!-- x1 -->
<g id="node2" class="node">
<title>x1</title>
<polygon fill="#d3d3d3" stroke="#000000" points="198,-372.333 162,-372.333 162,-336.333 198,-336.333 198,-372.333"/>
<text text-anchor="middle" x="180" y="-351.633" font-family="Times,serif" font-size="9.00" fill="#000000">x1</text>
</g>
<!-- x1&#45;&gt;41763 -->
<g id="edge18" class="edge">
<title>x1&#45;&gt;41763</title>
<path fill="none" stroke="#ff0000" stroke-width=".1439" d="M198.3207,-340.5546C214.6769,-328.2536 238.9378,-310.0077 258.1027,-295.5943"/>
<polygon fill="#ff0000" stroke="#ff0000" stroke-width=".1439" points="260.3456,-298.2869 266.2339,-289.479 256.1381,-292.6924 260.3456,-298.2869"/>
</g>
<!-- x1&#45;&gt;19 -->
<g id="edge6" class="edge">
<title>x1&#45;&gt;19</title>
<path fill="none" stroke="#ff0000" stroke-width=".1821" d="M189.0992,-336.3069C194.8143,-324.985 202.2628,-310.2291 208.5249,-297.8234"/>
<polygon fill="#ff0000" stroke="#ff0000" stroke-width=".1821" points="211.6522,-299.3949 213.034,-288.8906 205.4032,-296.2405 211.6522,-299.3949"/>
</g>
<!-- x1&#45;&gt;65563 -->
<g id="edge19" class="edge">
<title>x1&#45;&gt;65563</title>
<path fill="none" stroke="#ff0000" stroke-width=".425" d="M174.0078,-336.3069C171.3097,-328.1901 168.0248,-318.3083 164.8617,-308.7929"/>
<polygon fill="#ff0000" stroke="#ff0000" stroke-width=".425" points="168.1151,-307.4842 161.6393,-299.0988 161.4725,-309.6923 168.1151,-307.4842"/>
</g>
<!-- x2 -->
<g id="node3" class="node">
<title>x2</title>
<polygon fill="#d3d3d3" stroke="#000000" points="144,-372.333 108,-372.333 108,-336.333 144,-336.333 144,-372.333"/>
<text text-anchor="middle" x="126" y="-351.633" font-family="Times,serif" font-size="9.00" fill="#000000">x2</text>
</g>
<!-- x2&#45;&gt;19 -->
<g id="edge8" class="edge">
<title>x2&#45;&gt;19</title>
<path fill="none" stroke="#ff0000" stroke-width=".3039" d="M144.317,-338.6723C160.1637,-325.1236 183.0856,-305.5257 199.7381,-291.288"/>
<polygon fill="#ff0000" stroke="#ff0000" stroke-width=".3039" points="202.0247,-293.9379 207.3509,-284.7792 197.4758,-288.6175 202.0247,-293.9379"/>
</g>
<!-- x2&#45;&gt;65563 -->
<g id="edge25" class="edge">
<title>x2&#45;&gt;65563</title>
<path fill="none" stroke="#00ff00" stroke-width=".2794" d="M131.9922,-336.3069C134.6903,-328.1901 137.9752,-318.3083 141.1383,-308.7929"/>
<polygon fill="#00ff00" stroke="#00ff00" stroke-width=".2794" points="144.5275,-309.6923 144.3607,-299.0988 137.8849,-307.4842 144.5275,-309.6923"/>
</g>
<!-- x3 -->
<g id="node4" class="node">
<title>x3</title>
<polygon fill="#d3d3d3" stroke="#000000" points="36,-372.333 0,-372.333 0,-336.333 36,-336.333 36,-372.333"/>
<text text-anchor="middle" x="18" y="-351.633" font-family="Times,serif" font-size="9.00" fill="#000000">x3</text>
</g>
<!-- 61890 -->
<g id="node11" class="node">
<title>61890</title>
<ellipse fill="#ffffff" stroke="#000000" cx="72" cy="-273.1094" rx="27.4491" ry="27.4491"/>
<text text-anchor="middle" x="72" y="-270.4094" font-family="Times,serif" font-size="9.00" fill="#000000">61890</text>
</g>
<!-- x3&#45;&gt;61890 -->
<g id="edge16" class="edge">
<title>x3&#45;&gt;61890</title>
<path fill="none" stroke="#ff0000" stroke-width=".306" d="M29.9844,-336.3069C36.2118,-326.9399 44.002,-315.2224 51.1772,-304.4299"/>
<polygon fill="#ff0000" stroke="#ff0000" stroke-width=".306" points="54.1362,-306.3008 56.758,-296.0355 48.3069,-302.4253 54.1362,-306.3008"/>
</g>
<!-- x3&#45;&gt;19 -->
<g id="edge7" class="edge">
<title>x3&#45;&gt;19</title>
<path fill="none" stroke="#00ff00" stroke-width=".1831" d="M36.1075,-341.0585C38.9917,-339.3018 42.0118,-337.6549 45,-336.333 105.3302,-309.6448 130.3321,-330.5006 189,-300.333 193.1251,-298.2119 197.1754,-295.4646 200.9336,-292.5332"/>
<polygon fill="#00ff00" stroke="#00ff00" stroke-width=".1831" points="203.2675,-295.1428 208.6097,-285.9934 198.7278,-289.8144 203.2675,-295.1428"/>
</g>
<!-- x3&#45;&gt;65563 -->
<g id="edge26" class="edge">
<title>x3&#45;&gt;65563</title>
<path fill="none" stroke="#00ff00" stroke-width=".4449" d="M36.1893,-341.9609C39.1139,-340.043 42.1246,-338.1101 45,-336.333 72.4327,-319.3787 80.2015,-316.6807 108,-300.333 112.2059,-297.8596 116.6168,-295.2326 120.9636,-292.6239"/>
<polygon fill="#00ff00" stroke="#00ff00" stroke-width=".4449" points="122.9539,-295.5109 129.7103,-287.3499 119.3393,-289.5163 122.9539,-295.5109"/>
</g>
<!-- x4 -->
<g id="node5" class="node">
<title>x4</title>
<polygon fill="#d3d3d3" stroke="#000000" points="360,-372.333 324,-372.333 324,-336.333 360,-336.333 360,-372.333"/>
<text text-anchor="middle" x="342" y="-351.633" font-family="Times,serif" font-size="9.00" fill="#000000">x4</text>
</g>
<!-- x4&#45;&gt;41763 -->
<g id="edge22" class="edge">
<title>x4&#45;&gt;41763</title>
<path fill="none" stroke="#ff0000" stroke-width=".1008" d="M330.0156,-336.3069C323.7882,-326.9399 315.998,-315.2224 308.8228,-304.4299"/>
<polygon fill="#ff0000" stroke="#ff0000" stroke-width=".1008" points="311.6931,-302.4253 303.242,-296.0355 305.8638,-306.3008 311.6931,-302.4253"/>
</g>
<!-- x4&#45;&gt;19 -->
<g id="edge4" class="edge">
<title>x4&#45;&gt;19</title>
<path fill="none" stroke="#00ff00" stroke-width=".3187" d="M323.8107,-341.9609C320.8861,-340.043 317.8754,-338.1101 315,-336.333 287.5673,-319.3787 278.2489,-319.0679 252,-300.333 248.4583,-297.8052 244.8518,-294.944 241.4107,-292.0501"/>
<polygon fill="#00ff00" stroke="#00ff00" stroke-width=".3187" points="243.6198,-289.3323 233.79,-285.3795 239.0093,-294.5995 243.6198,-289.3323"/>
</g>
<!-- x5 -->
<g id="node6" class="node">
<title>x5</title>
<polygon fill="#d3d3d3" stroke="#000000" points="414,-372.333 378,-372.333 378,-336.333 414,-336.333 414,-372.333"/>
<text text-anchor="middle" x="396" y="-351.633" font-family="Times,serif" font-size="9.00" fill="#000000">x5</text>
</g>
<!-- x5&#45;&gt;41763 -->
<g id="edge12" class="edge">
<title>x5&#45;&gt;41763</title>
<path fill="none" stroke="#ff0000" stroke-width=".4265" d="M377.6793,-340.5546C361.3231,-328.2536 337.0622,-310.0077 317.8973,-295.5943"/>
<polygon fill="#ff0000" stroke="#ff0000" stroke-width=".4265" points="319.8619,-292.6924 309.7661,-289.479 315.6544,-298.2869 319.8619,-292.6924"/>
</g>
<!-- x5&#45;&gt;19 -->
<g id="edge1" class="edge">
<title>x5&#45;&gt;19</title>
<path fill="none" stroke="#ff0000" stroke-width=".3432" d="M377.8271,-341.2012C374.9519,-339.4247 371.9518,-337.7344 369,-336.333 319.8518,-312.9995 299.494,-326.872 252,-300.333 248.2015,-298.2105 244.4601,-295.5623 240.9626,-292.7574"/>
<polygon fill="#ff0000" stroke="#ff0000" stroke-width=".3432" points="243.169,-290.0376 233.3322,-286.102 238.5677,-295.3129 243.169,-290.0376"/>
</g>
<!-- x6 -->
<g id="node7" class="node">
<title>x6</title>
<polygon fill="#d3d3d3" stroke="#000000" points="252,-372.333 216,-372.333 216,-336.333 252,-336.333 252,-372.333"/>
<text text-anchor="middle" x="234" y="-351.633" font-family="Times,serif" font-size="9.00" fill="#000000">x6</text>
</g>
<!-- x6&#45;&gt;19 -->
<g id="edge3" class="edge">
<title>x6&#45;&gt;19</title>
<path fill="none" stroke="#00ff00" stroke-width=".3241" d="M231.1149,-336.3069C229.454,-325.9299 227.3315,-312.6683 225.46,-300.9754"/>
<polygon fill="#00ff00" stroke="#00ff00" stroke-width=".3241" points="228.8688,-300.1269 223.8323,-290.8057 221.9568,-301.2332 228.8688,-300.1269"/>
</g>
<!-- x7 -->
<g id="node8" class="node">
<title>x7</title>
<polygon fill="#d3d3d3" stroke="#000000" points="90,-372.333 54,-372.333 54,-336.333 90,-336.333 90,-372.333"/>
<text text-anchor="middle" x="72" y="-351.633" font-family="Times,serif" font-size="9.00" fill="#000000">x7</text>
</g>
<!-- x7&#45;&gt;61890 -->
<g id="edge24" class="edge">
<title>x7&#45;&gt;61890</title>
<path fill="none" stroke="#00ff00" stroke-width=".1207" d="M72,-336.3069C72,-328.6326 72,-319.3806 72,-310.3522"/>
<polygon fill="#00ff00" stroke="#00ff00" stroke-width=".1207" points="75.5001,-310.3498 72,-300.3499 68.5001,-310.3499 75.5001,-310.3498"/>
</g>
<!-- x7&#45;&gt;19 -->
<g id="edge5" class="edge">
<title>x7&#45;&gt;19</title>
<path fill="none" stroke="#ff0000" stroke-width=".3473" d="M90.2805,-341.4162C93.1408,-339.6101 96.1082,-337.8542 99,-336.333 137.1279,-316.2766 152.109,-322.5829 189,-300.333 192.972,-297.9374 196.9453,-295.0521 200.6742,-292.0681"/>
<polygon fill="#ff0000" stroke="#ff0000" stroke-width=".3473" points="203.0072,-294.6785 208.3513,-285.5302 198.4686,-289.3492 203.0072,-294.6785"/>
</g>
<!-- y0 -->
<g id="node9" class="node">
<title>y0</title>
<ellipse fill="#add8e6" stroke="#000000" cx="189" cy="-17.6777" rx="17.8571" ry="17.8571"/>
<text text-anchor="middle" x="189" y="-14.9777" font-family="Times,serif" font-size="9.00" fill="#000000">y0</text>
</g>
<!-- 57025 -->
<g id="node10" class="node">
<title>57025</title>
<ellipse fill="#ffffff" stroke="#000000" cx="153" cy="-182.6622" rx="27.4491" ry="27.4491"/>
<text text-anchor="middle" x="153" y="-179.9622" font-family="Times,serif" font-size="9.00" fill="#000000">57025</text>
</g>
<!-- 8937 -->
<g id="node13" class="node">
<title>8937</title>
<ellipse fill="#ffffff" stroke="#000000" cx="189" cy="-95.397" rx="24.0833" ry="24.0833"/>
<text text-anchor="middle" x="189" y="-92.697" font-family="Times,serif" font-size="9.00" fill="#000000">8937</text>
</g>
<!-- 57025&#45;&gt;8937 -->
<g id="edge14" class="edge">
<title>57025&#45;&gt;8937</title>
<path fill="none" stroke="#00ff00" stroke-width=".2899" d="M163.4127,-157.4215C167.2752,-148.0587 171.7081,-137.313 175.7874,-127.4248"/>
<polygon fill="#00ff00" stroke="#00ff00" stroke-width=".2899" points="179.1363,-128.4844 179.7145,-117.9054 172.6653,-125.8149 179.1363,-128.4844"/>
</g>
<!-- 61890&#45;&gt;57025 -->
<g id="edge23" class="edge">
<title>61890&#45;&gt;57025</title>
<path fill="none" stroke="#ff0000" stroke-width=".1365" d="M90.3802,-252.5856C101.4615,-240.2118 115.7298,-224.2794 127.847,-210.7488"/>
<polygon fill="#ff0000" stroke="#ff0000" stroke-width=".1365" points="130.6285,-212.8893 134.6926,-203.1049 125.4139,-208.2193 130.6285,-212.8893"/>
</g>
<!-- 41763&#45;&gt;57025 -->
<g id="edge20" class="edge">
<title>41763&#45;&gt;57025</title>
<path fill="none" stroke="#00ff00" stroke-width=".2441" d="M265.2858,-257.3639C259.672,-253.5519 253.6478,-249.5276 248,-245.8858 222.1836,-229.239 214.3932,-227.1713 189,-209.8858 187.1053,-208.5961 185.1736,-207.2457 183.2381,-205.8653"/>
<polygon fill="#00ff00" stroke="#00ff00" stroke-width=".2441" points="184.9687,-202.7948 174.8308,-199.7166 180.8364,-208.445 184.9687,-202.7948"/>
</g>
<!-- 8937&#45;&gt;y0 -->
<g id="edge9" class="edge">
<title>8937&#45;&gt;y0</title>
<path fill="none" stroke="#ff0000" stroke-width=".3908" d="M189,-71.2321C189,-63.086 189,-53.9295 189,-45.5228"/>
<polygon fill="#ff0000" stroke="#ff0000" stroke-width=".3908" points="192.5001,-45.4076 189,-35.4076 185.5001,-45.4076 192.5001,-45.4076"/>
</g>
<!-- 19&#45;&gt;57025 -->
<g id="edge13" class="edge">
<title>19&#45;&gt;57025</title>
<path fill="none" stroke="#ff0000" stroke-width=".1046" d="M210.375,-258.9771C201.109,-246.6523 187.3536,-228.3562 175.6342,-212.768"/>
<polygon fill="#ff0000" stroke="#ff0000" stroke-width=".1046" points="178.1811,-210.3314 169.3742,-204.4417 172.586,-214.538 178.1811,-210.3314"/>
</g>
<!-- 11672 -->
<g id="node15" class="node">
<title>11672</title>
<ellipse fill="#ffffff" stroke="#000000" cx="225" cy="-182.6622" rx="26.9811" ry="26.9811"/>
<text text-anchor="middle" x="225" y="-179.9622" font-family="Times,serif" font-size="9.00" fill="#000000">11672</text>
</g>
<!-- 19&#45;&gt;11672 -->
<g id="edge10" class="edge">
<title>19&#45;&gt;11672</title>
<path fill="none" stroke="#00ff00" stroke-width=".8155" d="M221.7903,-255.24C222.2385,-245.1043 222.8166,-232.0323 223.3584,-219.7808"/>
<polygon fill="#00ff00" stroke="#00ff00" stroke-width=".8155" points="226.8561,-219.9098 223.8014,-209.7649 219.8629,-219.6005 226.8561,-219.9098"/>
</g>
<!-- 11672&#45;&gt;8937 -->
<g id="edge11" class="edge">
<title>11672&#45;&gt;8937</title>
<path fill="none" stroke="#00ff00" stroke-width=".6617" d="M214.5873,-157.4215C210.7248,-148.0587 206.2919,-137.313 202.2126,-127.4248"/>
<polygon fill="#00ff00" stroke="#00ff00" stroke-width=".6617" points="205.3347,-125.8149 198.2855,-117.9054 198.8637,-128.4844 205.3347,-125.8149"/>
</g>
<!-- 65563&#45;&gt;57025 -->
<g id="edge17" class="edge">
<title>65563&#45;&gt;57025</title>
<path fill="none" stroke="#ff0000" stroke-width=".8151" d="M153,-245.4808C153,-237.5031 153,-228.6599 153,-220.1881"/>
<polygon fill="#ff0000" stroke="#ff0000" stroke-width=".8151" points="156.5001,-220.1216 153,-210.1216 149.5001,-220.1217 156.5001,-220.1216"/>
</g>
</g>
</svg>
