<?xml version="1.0" encoding="UTF-8" standalone="no"?>
<!DOCTYPE svg PUBLIC "-//W3C//DTD SVG 1.1//EN"
 "http://www.w3.org/Graphics/SVG/1.1/DTD/svg11.dtd">
<!-- Generated by graphviz version 2.40.1 (20161225.0304)
 -->
<!-- Title: %3 Pages: 1 -->
<svg width="581pt" height="406pt"
 viewBox="0.00 0.00 581.08 405.79" xmlns="http://www.w3.org/2000/svg" xmlns:xlink="http://www.w3.org/1999/xlink">
<g id="graph0" class="graph" transform="scale(1 1) rotate(0) translate(4 401.7889)">
<title>%3</title>
<polygon fill="#ffffff" stroke="transparent" points="-4,4 -4,-401.7889 577.0833,-401.7889 577.0833,4 -4,4"/>
<!-- x0 -->
<g id="node1" class="node">
<title>x0</title>
<polygon fill="#d3d3d3" stroke="#000000" points="121.4056,-397.7889 85.4056,-397.7889 85.4056,-361.7889 121.4056,-361.7889 121.4056,-397.7889"/>
<text text-anchor="middle" x="103.4056" y="-377.0889" font-family="Times,serif" font-size="9.00" fill="#000000">x0</text>
</g>
<!-- x1 -->
<g id="node2" class="node">
<title>x1</title>
<polygon fill="#d3d3d3" stroke="#000000" points="175.4056,-397.7889 139.4056,-397.7889 139.4056,-361.7889 175.4056,-361.7889 175.4056,-397.7889"/>
<text text-anchor="middle" x="157.4056" y="-377.0889" font-family="Times,serif" font-size="9.00" fill="#000000">x1</text>
</g>
<!-- x2 -->
<g id="node3" class="node">
<title>x2</title>
<polygon fill="#d3d3d3" stroke="#000000" points="349.4056,-397.7889 313.4056,-397.7889 313.4056,-361.7889 349.4056,-361.7889 349.4056,-397.7889"/>
<text text-anchor="middle" x="331.4056" y="-377.0889" font-family="Times,serif" font-size="9.00" fill="#000000">x2</text>
</g>
<!-- 40 -->
<g id="node13" class="node">
<title>40</title>
<ellipse fill="#ffffff" stroke="#000000" cx="404.4056" cy="-295.3833" rx="17.8571" ry="17.8571"/>
<text text-anchor="middle" x="404.4056" y="-292.6833" font-family="Times,serif" font-size="9.00" fill="#000000">40</text>
</g>
<!-- x2&#45;&gt;40 -->
<g id="edge8" class="edge">
<title>x2&#45;&gt;40</title>
<path fill="none" stroke="#00ff00" stroke-width=".5424" d="M347.2455,-361.4741C358.673,-348.2612 374.1291,-330.3902 386.0879,-316.563"/>
<polygon fill="#00ff00" stroke="#00ff00" stroke-width=".5424" points="388.7737,-318.8079 392.668,-308.9548 383.4792,-314.2288 388.7737,-318.8079"/>
</g>
<!-- 106233 -->
<g id="node20" class="node">
<title>106233</title>
<ellipse fill="#ffffff" stroke="#000000" cx="338.4056" cy="-295.3833" rx="30.3115" ry="30.3115"/>
<text text-anchor="middle" x="338.4056" y="-292.6833" font-family="Times,serif" font-size="9.00" fill="#000000">106233</text>
</g>
<!-- x2&#45;&gt;106233 -->
<g id="edge13" class="edge">
<title>x2&#45;&gt;106233</title>
<path fill="none" stroke="#00ff00" stroke-width=".3448" d="M332.9245,-361.4741C333.5497,-353.9355 334.3006,-344.8805 335.0433,-335.9253"/>
<polygon fill="#00ff00" stroke="#00ff00" stroke-width=".3448" points="338.5326,-336.1984 335.8712,-325.9433 331.5566,-335.6198 338.5326,-336.1984"/>
</g>
<!-- x3 -->
<g id="node4" class="node">
<title>x3</title>
<polygon fill="#d3d3d3" stroke="#000000" points="283.4056,-397.7889 247.4056,-397.7889 247.4056,-361.7889 283.4056,-361.7889 283.4056,-397.7889"/>
<text text-anchor="middle" x="265.4056" y="-377.0889" font-family="Times,serif" font-size="9.00" fill="#000000">x3</text>
</g>
<!-- 108031 -->
<g id="node24" class="node">
<title>108031</title>
<ellipse fill="#ffffff" stroke="#000000" cx="259.4056" cy="-295.3833" rx="30.3115" ry="30.3115"/>
<text text-anchor="middle" x="259.4056" y="-292.6833" font-family="Times,serif" font-size="9.00" fill="#000000">108031</text>
</g>
<!-- x3&#45;&gt;108031 -->
<g id="edge34" class="edge">
<title>x3&#45;&gt;108031</title>
<path fill="none" stroke="#ff0000" stroke-width=".3534" d="M264.1037,-361.4741C263.5678,-353.9355 262.9241,-344.8805 262.2875,-335.9253"/>
<polygon fill="#ff0000" stroke="#ff0000" stroke-width=".3534" points="265.7783,-335.6699 261.578,-325.9433 258.7959,-336.1663 265.7783,-335.6699"/>
</g>
<!-- x4 -->
<g id="node5" class="node">
<title>x4</title>
<polygon fill="#d3d3d3" stroke="#000000" points="457.4056,-397.7889 421.4056,-397.7889 421.4056,-361.7889 457.4056,-361.7889 457.4056,-397.7889"/>
<text text-anchor="middle" x="439.4056" y="-377.0889" font-family="Times,serif" font-size="9.00" fill="#000000">x4</text>
</g>
<!-- x4&#45;&gt;40 -->
<g id="edge5" class="edge">
<title>x4&#45;&gt;40</title>
<path fill="none" stroke="#ff0000" stroke-width=".1983" d="M431.8111,-361.4741C426.9407,-349.7286 420.5439,-334.3023 415.1555,-321.3077"/>
<polygon fill="#ff0000" stroke="#ff0000" stroke-width=".1983" points="418.337,-319.8425 411.2735,-311.9458 411.8709,-322.5238 418.337,-319.8425"/>
</g>
<!-- x5 -->
<g id="node6" class="node">
<title>x5</title>
<polygon fill="#d3d3d3" stroke="#000000" points="403.4056,-397.7889 367.4056,-397.7889 367.4056,-361.7889 403.4056,-361.7889 403.4056,-397.7889"/>
<text text-anchor="middle" x="385.4056" y="-377.0889" font-family="Times,serif" font-size="9.00" fill="#000000">x5</text>
</g>
<!-- x5&#45;&gt;40 -->
<g id="edge4" class="edge">
<title>x5&#45;&gt;40</title>
<path fill="none" stroke="#00ff00" stroke-width=".4025" d="M389.5283,-361.4741C392.0693,-350.1862 395.3755,-335.4986 398.2256,-322.8371"/>
<polygon fill="#00ff00" stroke="#00ff00" stroke-width=".4025" points="401.7041,-323.3216 400.4857,-312.797 394.875,-321.7842 401.7041,-323.3216"/>
</g>
<!-- x5&#45;&gt;106233 -->
<g id="edge12" class="edge">
<title>x5&#45;&gt;106233</title>
<path fill="none" stroke="#00ff00" stroke-width=".1554" d="M375.2073,-361.4741C370.2375,-352.5491 364.0843,-341.4987 358.241,-331.0049"/>
<polygon fill="#00ff00" stroke="#00ff00" stroke-width=".1554" points="361.1462,-329.0279 353.2233,-321.9938 355.0304,-332.4334 361.1462,-329.0279"/>
</g>
<!-- x6 -->
<g id="node7" class="node">
<title>x6</title>
<polygon fill="#d3d3d3" stroke="#000000" points="511.4056,-397.7889 475.4056,-397.7889 475.4056,-361.7889 511.4056,-361.7889 511.4056,-397.7889"/>
<text text-anchor="middle" x="493.4056" y="-377.0889" font-family="Times,serif" font-size="9.00" fill="#000000">x6</text>
</g>
<!-- x6&#45;&gt;40 -->
<g id="edge1" class="edge">
<title>x6&#45;&gt;40</title>
<path fill="none" stroke="#ff0000" stroke-width=".2642" d="M475.3951,-362.7082C460.7754,-348.8432 440.1584,-329.2904 424.9072,-314.8265"/>
<polygon fill="#ff0000" stroke="#ff0000" stroke-width=".2642" points="427.1454,-312.1256 417.4811,-307.7838 422.3285,-317.2047 427.1454,-312.1256"/>
</g>
<!-- x7 -->
<g id="node8" class="node">
<title>x7</title>
<polygon fill="#d3d3d3" stroke="#000000" points="229.4056,-397.7889 193.4056,-397.7889 193.4056,-361.7889 229.4056,-361.7889 229.4056,-397.7889"/>
<text text-anchor="middle" x="211.4056" y="-377.0889" font-family="Times,serif" font-size="9.00" fill="#000000">x7</text>
</g>
<!-- x7&#45;&gt;40 -->
<g id="edge2" class="edge">
<title>x7&#45;&gt;40</title>
<path fill="none" stroke="#00ff00" stroke-width=".4054" d="M229.5232,-366.537C232.406,-364.7771 235.423,-363.1234 238.4056,-361.7889 296.6568,-335.7256 322.9688,-359.0925 377.4056,-325.7889 380.9623,-323.6129 384.3151,-320.8226 387.3686,-317.8171"/>
<polygon fill="#00ff00" stroke="#00ff00" stroke-width=".4054" points="390.1989,-319.9044 394.2885,-310.1307 384.9966,-315.2209 390.1989,-319.9044"/>
</g>
<!-- 175040 -->
<g id="node18" class="node">
<title>175040</title>
<ellipse fill="#ffffff" stroke="#000000" cx="105.4056" cy="-295.3833" rx="30.3115" ry="30.3115"/>
<text text-anchor="middle" x="105.4056" y="-292.6833" font-family="Times,serif" font-size="9.00" fill="#000000">175040</text>
</g>
<!-- x7&#45;&gt;175040 -->
<g id="edge35" class="edge">
<title>x7&#45;&gt;175040</title>
<path fill="none" stroke="#00ff00" stroke-width=".145" d="M192.9418,-365.0866C177.6133,-352.8808 155.4582,-335.2392 137.2727,-320.7584"/>
<polygon fill="#00ff00" stroke="#00ff00" stroke-width=".145" points="139.2385,-317.8496 129.2353,-314.3584 134.878,-323.3257 139.2385,-317.8496"/>
</g>
<!-- x7&#45;&gt;108031 -->
<g id="edge14" class="edge">
<title>x7&#45;&gt;108031</title>
<path fill="none" stroke="#00ff00" stroke-width=".5452" d="M221.8209,-361.4741C226.9477,-352.4589 233.3076,-341.2753 239.3289,-330.6871"/>
<polygon fill="#00ff00" stroke="#00ff00" stroke-width=".5452" points="242.3717,-332.4167 244.2727,-321.9938 236.2868,-328.9563 242.3717,-332.4167"/>
</g>
<!-- y0 -->
<g id="node9" class="node">
<title>y0</title>
<ellipse fill="#add8e6" stroke="#000000" cx="359.4056" cy="-17.6777" rx="17.8571" ry="17.8571"/>
<text text-anchor="middle" x="359.4056" y="-14.9777" font-family="Times,serif" font-size="9.00" fill="#000000">y0</text>
</g>
<!-- 120323 -->
<g id="node10" class="node">
<title>120323</title>
<ellipse fill="#ffffff" stroke="#000000" cx="410.4056" cy="-198.5721" rx="30.3115" ry="30.3115"/>
<text text-anchor="middle" x="410.4056" y="-195.8721" font-family="Times,serif" font-size="9.00" fill="#000000">120323</text>
</g>
<!-- 42 -->
<g id="node15" class="node">
<title>42</title>
<ellipse fill="#ffffff" stroke="#000000" cx="359.4056" cy="-101.7609" rx="17.8571" ry="17.8571"/>
<text text-anchor="middle" x="359.4056" y="-99.0609" font-family="Times,serif" font-size="9.00" fill="#000000">42</text>
</g>
<!-- 120323&#45;&gt;42 -->
<g id="edge24" class="edge">
<title>120323&#45;&gt;42</title>
<path fill="none" stroke="#ff0000" stroke-width=".3759" d="M396.1992,-171.6048C388.7277,-157.4219 379.6351,-140.1617 372.3582,-126.3484"/>
<polygon fill="#ff0000" stroke="#ff0000" stroke-width=".3759" points="375.4102,-124.6323 367.6528,-117.4162 369.217,-127.8949 375.4102,-124.6323"/>
</g>
<!-- 118794 -->
<g id="node11" class="node">
<title>118794</title>
<ellipse fill="#ffffff" stroke="#000000" cx="188.4056" cy="-101.7609" rx="30.3461" ry="30.3461"/>
<text text-anchor="middle" x="188.4056" y="-99.0609" font-family="Times,serif" font-size="9.00" fill="#000000">118794</text>
</g>
<!-- 118794&#45;&gt;y0 -->
<g id="edge20" class="edge">
<title>118794&#45;&gt;y0</title>
<path fill="none" stroke="#ff0000" stroke-width=".2799" d="M215.501,-88.4377C248.1031,-72.4068 302.4072,-45.7046 334.1609,-30.0909"/>
<polygon fill="#ff0000" stroke="#ff0000" stroke-width=".2799" points="335.8131,-33.1787 343.2425,-25.6253 332.7243,-26.8971 335.8131,-33.1787"/>
</g>
<!-- 138786 -->
<g id="node12" class="node">
<title>138786</title>
<ellipse fill="#ffffff" stroke="#000000" cx="467.4056" cy="-101.7609" rx="30.3115" ry="30.3115"/>
<text text-anchor="middle" x="467.4056" y="-99.0609" font-family="Times,serif" font-size="9.00" fill="#000000">138786</text>
</g>
<!-- 138786&#45;&gt;y0 -->
<g id="edge26" class="edge">
<title>138786&#45;&gt;y0</title>
<path fill="none" stroke="#ff0000" stroke-width=".1053" d="M443.1683,-82.891C424.783,-68.5771 399.7037,-49.0517 381.79,-35.105"/>
<polygon fill="#ff0000" stroke="#ff0000" stroke-width=".1053" points="383.673,-32.1354 373.6323,-28.7538 379.3727,-37.6588 383.673,-32.1354"/>
</g>
<!-- 41 -->
<g id="node14" class="node">
<title>41</title>
<ellipse fill="#ffffff" stroke="#000000" cx="555.4056" cy="-198.5721" rx="17.8571" ry="17.8571"/>
<text text-anchor="middle" x="555.4056" y="-195.8721" font-family="Times,serif" font-size="9.00" fill="#000000">41</text>
</g>
<!-- 40&#45;&gt;41 -->
<g id="edge7" class="edge">
<title>40&#45;&gt;41</title>
<path fill="none" stroke="#00ff00" stroke-width=".7774" d="M421.1645,-288.6753C446.0891,-278.2189 493.7095,-256.3621 528.4056,-228.9777 531.6179,-226.4423 534.7599,-223.4961 537.6987,-220.4551"/>
<polygon fill="#00ff00" stroke="#00ff00" stroke-width=".7774" points="540.4257,-222.6569 544.5094,-212.8807 535.2205,-217.9765 540.4257,-222.6569"/>
</g>
<!-- 112767 -->
<g id="node19" class="node">
<title>112767</title>
<ellipse fill="#ffffff" stroke="#000000" cx="489.4056" cy="-198.5721" rx="30.3461" ry="30.3461"/>
<text text-anchor="middle" x="489.4056" y="-195.8721" font-family="Times,serif" font-size="9.00" fill="#000000">112767</text>
</g>
<!-- 40&#45;&gt;112767 -->
<g id="edge16" class="edge">
<title>40&#45;&gt;112767</title>
<path fill="none" stroke="#ff0000" stroke-width=".2522" d="M416.2245,-281.9221C428.0919,-268.4056 446.7934,-247.1055 462.32,-229.4214"/>
<polygon fill="#ff0000" stroke="#ff0000" stroke-width=".2522" points="465.2267,-231.4156 469.1944,-221.5917 459.9665,-226.7971 465.2267,-231.4156"/>
</g>
<!-- 118749 -->
<g id="node21" class="node">
<title>118749</title>
<ellipse fill="#ffffff" stroke="#000000" cx="266.4056" cy="-198.5721" rx="30.3461" ry="30.3461"/>
<text text-anchor="middle" x="266.4056" y="-195.8721" font-family="Times,serif" font-size="9.00" fill="#000000">118749</text>
</g>
<!-- 40&#45;&gt;118749 -->
<g id="edge18" class="edge">
<title>40&#45;&gt;118749</title>
<path fill="none" stroke="#ff0000" stroke-width=".1743" d="M393.5757,-280.9895C388.9937,-275.5267 383.344,-269.5311 377.4056,-264.9777 349.0141,-243.2079 335.6623,-248.0705 305.4056,-228.9777 302.9551,-227.4314 300.4729,-225.7643 298.0099,-224.0352"/>
<polygon fill="#ff0000" stroke="#ff0000" stroke-width=".1743" points="299.9179,-221.0941 289.7841,-218.0027 295.7782,-226.7389 299.9179,-221.0941"/>
</g>
<!-- 3828 -->
<g id="node23" class="node">
<title>3828</title>
<ellipse fill="#ffffff" stroke="#000000" cx="338.4056" cy="-198.5721" rx="24.0833" ry="24.0833"/>
<text text-anchor="middle" x="338.4056" y="-195.8721" font-family="Times,serif" font-size="9.00" fill="#000000">3828</text>
</g>
<!-- 40&#45;&gt;3828 -->
<g id="edge11" class="edge">
<title>40&#45;&gt;3828</title>
<path fill="none" stroke="#ff0000" stroke-width=".8245" d="M394.3816,-280.6798C384.7392,-266.5359 369.9012,-244.771 357.9243,-227.2028"/>
<polygon fill="#ff0000" stroke="#ff0000" stroke-width=".8245" points="360.4895,-224.752 351.9646,-218.461 354.7057,-228.6951 360.4895,-224.752"/>
</g>
<!-- 41&#45;&gt;42 -->
<g id="edge6" class="edge">
<title>41&#45;&gt;42</title>
<path fill="none" stroke="#00ff00" stroke-width=".9" d="M545.0979,-184.1208C540.5112,-178.5201 534.7192,-172.4407 528.4056,-168.1665 489.2893,-141.6858 472.2673,-149.7011 428.4056,-132.1665 413.7793,-126.3194 397.6585,-119.2514 384.6795,-113.4021"/>
<polygon fill="#00ff00" stroke="#00ff00" stroke-width=".9" points="385.9958,-110.1559 375.4436,-109.207 383.1009,-116.5293 385.9958,-110.1559"/>
</g>
<!-- 42&#45;&gt;y0 -->
<g id="edge3" class="edge">
<title>42&#45;&gt;y0</title>
<path fill="none" stroke="#00ff00" stroke-width=".7387" d="M359.4056,-83.929C359.4056,-72.7812 359.4056,-58.1884 359.4056,-45.5366"/>
<polygon fill="#00ff00" stroke="#00ff00" stroke-width=".7387" points="362.9057,-45.4838 359.4056,-35.4839 355.9057,-45.4839 362.9057,-45.4838"/>
</g>
<!-- 163901 -->
<g id="node16" class="node">
<title>163901</title>
<ellipse fill="#ffffff" stroke="#000000" cx="30.4056" cy="-198.5721" rx="30.3115" ry="30.3115"/>
<text text-anchor="middle" x="30.4056" y="-195.8721" font-family="Times,serif" font-size="9.00" fill="#000000">163901</text>
</g>
<!-- 163901&#45;&gt;118794 -->
<g id="edge29" class="edge">
<title>163901&#45;&gt;118794</title>
<path fill="none" stroke="#ff0000" stroke-width=".1026" d="M54.5582,-179.3736C59.696,-175.529 65.1565,-171.6151 70.4056,-168.1665 97.1157,-150.6183 128.7359,-132.9801 152.5179,-120.2967"/>
<polygon fill="#ff0000" stroke="#ff0000" stroke-width=".1026" points="154.3431,-123.2907 161.5444,-115.5195 151.0687,-117.1038 154.3431,-123.2907"/>
</g>
<!-- 165567 -->
<g id="node17" class="node">
<title>165567</title>
<ellipse fill="#ffffff" stroke="#000000" cx="109.4056" cy="-198.5721" rx="30.3115" ry="30.3115"/>
<text text-anchor="middle" x="109.4056" y="-195.8721" font-family="Times,serif" font-size="9.00" fill="#000000">165567</text>
</g>
<!-- 165567&#45;&gt;118794 -->
<g id="edge32" class="edge">
<title>165567&#45;&gt;118794</title>
<path fill="none" stroke="#ff0000" stroke-width=".4609" d="M128.9337,-174.6413C139.0744,-162.2142 151.5983,-146.8667 162.5339,-133.4656"/>
<polygon fill="#ff0000" stroke="#ff0000" stroke-width=".4609" points="165.4915,-135.3771 169.1021,-125.4165 160.068,-130.9515 165.4915,-135.3771"/>
</g>
<!-- 175040&#45;&gt;163901 -->
<g id="edge36" class="edge">
<title>175040&#45;&gt;163901</title>
<path fill="none" stroke="#ff0000" stroke-width=".3562" d="M86.4799,-270.9537C76.9927,-258.7075 65.3836,-243.7222 55.1944,-230.5699"/>
<polygon fill="#ff0000" stroke="#ff0000" stroke-width=".3562" points="57.9565,-228.4203 49.0654,-222.6585 52.4228,-232.7073 57.9565,-228.4203"/>
</g>
<!-- 112767&#45;&gt;138786 -->
<g id="edge25" class="edge">
<title>112767&#45;&gt;138786</title>
<path fill="none" stroke="#00ff00" stroke-width=".2245" d="M482.6853,-168.9995C480.6994,-160.2607 478.4931,-150.5516 476.3887,-141.2912"/>
<polygon fill="#00ff00" stroke="#00ff00" stroke-width=".2245" points="479.7895,-140.4618 474.1605,-131.486 472.9636,-142.013 479.7895,-140.4618"/>
</g>
<!-- 112767&#45;&gt;42 -->
<g id="edge15" class="edge">
<title>112767&#45;&gt;42</title>
<path fill="none" stroke="#ff0000" stroke-width=".3298" d="M465.3344,-180.1868C460.0942,-176.209 454.5723,-172.036 449.4056,-168.1665 426.5658,-151.0611 400.2912,-131.7121 382.0513,-118.3319"/>
<polygon fill="#ff0000" stroke="#ff0000" stroke-width=".3298" points="383.9274,-115.3676 373.7928,-112.2789 379.7893,-121.0135 383.9274,-115.3676"/>
</g>
<!-- 106233&#45;&gt;120323 -->
<g id="edge23" class="edge">
<title>106233&#45;&gt;120323</title>
<path fill="none" stroke="#ff0000" stroke-width=".1229" d="M356.5742,-270.9537C365.5277,-258.915 376.4498,-244.2291 386.1101,-231.2398"/>
<polygon fill="#ff0000" stroke="#ff0000" stroke-width=".1229" points="389.0835,-233.1067 392.2428,-222.9938 383.4666,-228.9293 389.0835,-233.1067"/>
</g>
<!-- 106233&#45;&gt;163901 -->
<g id="edge28" class="edge">
<title>106233&#45;&gt;163901</title>
<path fill="none" stroke="#00ff00" stroke-width=".4575" d="M315.5027,-274.9718C310.1898,-271.1202 304.3428,-267.5109 298.4056,-264.9777 204.0467,-224.718 164.7645,-269.2374 70.4056,-228.9777 67.5298,-227.7507 64.6751,-226.2712 61.892,-224.634"/>
<polygon fill="#00ff00" stroke="#00ff00" stroke-width=".4575" points="63.5856,-221.5586 53.3085,-218.9836 59.7367,-227.4055 63.5856,-221.5586"/>
</g>
<!-- 106233&#45;&gt;112767 -->
<g id="edge33" class="edge">
<title>106233&#45;&gt;112767</title>
<path fill="none" stroke="#ff0000" stroke-width=".2069" d="M362.2034,-275.6337C367.1042,-271.9115 372.3231,-268.1849 377.4056,-264.9777 407.6623,-245.8849 419.0327,-247.885 449.4056,-228.9777 452.1456,-227.272 454.9291,-225.4243 457.6864,-223.5111"/>
<polygon fill="#ff0000" stroke="#ff0000" stroke-width=".2069" points="459.7465,-226.3407 465.8095,-217.6521 455.6515,-220.6634 459.7465,-226.3407"/>
</g>
<!-- 118890 -->
<g id="node22" class="node">
<title>118890</title>
<ellipse fill="#ffffff" stroke="#000000" cx="188.4056" cy="-198.5721" rx="30.3461" ry="30.3461"/>
<text text-anchor="middle" x="188.4056" y="-195.8721" font-family="Times,serif" font-size="9.00" fill="#000000">118890</text>
</g>
<!-- 106233&#45;&gt;118890 -->
<g id="edge21" class="edge">
<title>106233&#45;&gt;118890</title>
<path fill="none" stroke="#ff0000" stroke-width=".3668" d="M314.3669,-276.0074C309.2208,-272.1756 303.7281,-268.3118 298.4056,-264.9777 268.4223,-246.1959 257.2734,-247.9426 227.4056,-228.9777 224.9595,-227.4245 222.4805,-225.7524 220.0198,-224.0197"/>
<polygon fill="#ff0000" stroke="#ff0000" stroke-width=".3668" points="221.9297,-221.0798 211.7985,-217.9799 217.7853,-226.7211 221.9297,-221.0798"/>
</g>
<!-- 106233&#45;&gt;3828 -->
<g id="edge10" class="edge">
<title>106233&#45;&gt;3828</title>
<path fill="none" stroke="#00ff00" stroke-width=".3463" d="M338.4056,-264.7516C338.4056,-254.7198 338.4056,-243.5052 338.4056,-233.1996"/>
<polygon fill="#00ff00" stroke="#00ff00" stroke-width=".3463" points="341.9057,-232.8767 338.4056,-222.8767 334.9057,-232.8767 341.9057,-232.8767"/>
</g>
<!-- 118749&#45;&gt;118794 -->
<g id="edge19" class="edge">
<title>118749&#45;&gt;118794</title>
<path fill="none" stroke="#00ff00" stroke-width=".5738" d="M247.1247,-174.6413C237.1123,-162.2142 224.747,-146.8667 213.9498,-133.4656"/>
<polygon fill="#00ff00" stroke="#00ff00" stroke-width=".5738" points="216.4641,-131.0077 207.4647,-125.4165 211.0132,-135.3994 216.4641,-131.0077"/>
</g>
<!-- 118749&#45;&gt;42 -->
<g id="edge37" class="edge">
<title>118749&#45;&gt;42</title>
<path fill="none" stroke="#ff0000" stroke-width=".3981" d="M287.5087,-176.6042C303.2596,-160.2078 324.6186,-137.9735 339.957,-122.0065"/>
<polygon fill="#ff0000" stroke="#ff0000" stroke-width=".3981" points="342.5485,-124.361 346.9522,-114.7247 337.5004,-119.5116 342.5485,-124.361"/>
</g>
<!-- 118890&#45;&gt;118794 -->
<g id="edge30" class="edge">
<title>118890&#45;&gt;118794</title>
<path fill="none" stroke="#ff0000" stroke-width=".5026" d="M188.4056,-168.2061C188.4056,-159.916 188.4056,-150.8021 188.4056,-142.0523"/>
<polygon fill="#ff0000" stroke="#ff0000" stroke-width=".5026" points="191.9057,-142.0192 188.4056,-132.0192 184.9057,-142.0193 191.9057,-142.0192"/>
</g>
<!-- 118890&#45;&gt;42 -->
<g id="edge22" class="edge">
<title>118890&#45;&gt;42</title>
<path fill="none" stroke="#00ff00" stroke-width=".1264" d="M211.7904,-179.1515C216.8117,-175.3229 222.182,-171.4718 227.4056,-168.1665 262.7374,-145.8105 306.5847,-125.0043 333.7833,-112.8362"/>
<polygon fill="#00ff00" stroke="#00ff00" stroke-width=".1264" points="335.2749,-116.0037 343.004,-108.7572 332.4429,-109.6021 335.2749,-116.0037"/>
</g>
<!-- 3828&#45;&gt;42 -->
<g id="edge9" class="edge">
<title>3828&#45;&gt;42</title>
<path fill="none" stroke="#00ff00" stroke-width=".9" d="M343.5966,-174.6413C346.6069,-160.7637 350.4072,-143.2439 353.5273,-128.86"/>
<polygon fill="#00ff00" stroke="#00ff00" stroke-width=".9" points="356.9585,-129.5521 355.658,-119.0374 350.1176,-128.0682 356.9585,-129.5521"/>
</g>
<!-- 108031&#45;&gt;165567 -->
<g id="edge31" class="edge">
<title>108031&#45;&gt;165567</title>
<path fill="none" stroke="#ff0000" stroke-width=".1355" d="M232.6835,-280.3249C210.095,-267.3433 177.0873,-247.7756 149.4056,-228.9777 146.9701,-227.3238 144.4815,-225.5775 141.9962,-223.792"/>
<polygon fill="#ff0000" stroke="#ff0000" stroke-width=".1355" points="143.7703,-220.7521 133.6407,-217.647 139.623,-226.3913 143.7703,-220.7521"/>
</g>
<!-- 108031&#45;&gt;118749 -->
<g id="edge27" class="edge">
<title>108031&#45;&gt;118749</title>
<path fill="none" stroke="#ff0000" stroke-width=".396" d="M261.6012,-265.0173C262.2007,-256.7271 262.8596,-247.6133 263.4923,-238.8635"/>
<polygon fill="#ff0000" stroke="#ff0000" stroke-width=".396" points="266.9874,-239.0568 264.2177,-228.8304 260.0056,-238.5519 266.9874,-239.0568"/>
</g>
<!-- 108031&#45;&gt;3828 -->
<g id="edge17" class="edge">
<title>108031&#45;&gt;3828</title>
<path fill="none" stroke="#00ff00" stroke-width=".226" d="M278.9337,-271.4524C290.3159,-257.504 304.7007,-239.8761 316.4718,-225.4511"/>
<polygon fill="#00ff00" stroke="#00ff00" stroke-width=".226" points="319.4473,-227.3406 323.0579,-217.38 314.0238,-222.915 319.4473,-227.3406"/>
</g>
</g>
</svg>
