<?xml version="1.0" encoding="UTF-8" standalone="no"?>
<!DOCTYPE svg PUBLIC "-//W3C//DTD SVG 1.1//EN"
 "http://www.w3.org/Graphics/SVG/1.1/DTD/svg11.dtd">
<!-- Generated by graphviz version 2.40.1 (20161225.0304)
 -->
<!-- Title: %3 Pages: 1 -->
<svg width="449pt" height="399pt"
 viewBox="0.00 0.00 449.41 399.42" xmlns="http://www.w3.org/2000/svg" xmlns:xlink="http://www.w3.org/1999/xlink">
<g id="graph0" class="graph" transform="scale(1 1) rotate(0) translate(4 395.4249)">
<title>%3</title>
<polygon fill="#ffffff" stroke="transparent" points="-4,4 -4,-395.4249 445.4056,-395.4249 445.4056,4 -4,4"/>
<!-- x0 -->
<g id="node1" class="node">
<title>x0</title>
<polygon fill="#d3d3d3" stroke="#000000" points="36,-391.4249 0,-391.4249 0,-355.4249 36,-355.4249 36,-391.4249"/>
<text text-anchor="middle" x="18" y="-370.7249" font-family="Times,serif" font-size="9.00" fill="#000000">x0</text>
</g>
<!-- 20487 -->
<g id="node12" class="node">
<title>20487</title>
<ellipse fill="#ffffff" stroke="#000000" cx="126" cy="-292.2013" rx="27.4491" ry="27.4491"/>
<text text-anchor="middle" x="126" y="-289.5013" font-family="Times,serif" font-size="9.00" fill="#000000">20487</text>
</g>
<!-- x0&#45;&gt;20487 -->
<g id="edge18" class="edge">
<title>x0&#45;&gt;20487</title>
<path fill="none" stroke="#ff0000" stroke-width=".3696" d="M36.3207,-359.6464C52.6769,-347.3455 76.9378,-329.0995 96.1027,-314.6862"/>
<polygon fill="#ff0000" stroke="#ff0000" stroke-width=".3696" points="98.3456,-317.3788 104.2339,-308.5709 94.1381,-311.7843 98.3456,-317.3788"/>
</g>
<!-- 280 -->
<g id="node18" class="node">
<title>280</title>
<ellipse fill="#ffffff" stroke="#000000" cx="216" cy="-292.2013" rx="20.7202" ry="20.7202"/>
<text text-anchor="middle" x="216" y="-289.5013" font-family="Times,serif" font-size="9.00" fill="#000000">280</text>
</g>
<!-- x0&#45;&gt;280 -->
<g id="edge3" class="edge">
<title>x0&#45;&gt;280</title>
<path fill="none" stroke="#ff0000" stroke-width=".2906" d="M36.1729,-360.293C39.0481,-358.5166 42.0482,-356.8263 45,-355.4249 94.1482,-332.0914 111.5304,-339.7429 162,-319.4249 170.7746,-315.8925 180.0612,-311.4746 188.4127,-307.2321"/>
<polygon fill="#ff0000" stroke="#ff0000" stroke-width=".2906" points="190.1117,-310.2936 197.3674,-302.5731 186.8808,-304.0838 190.1117,-310.2936"/>
</g>
<!-- x1 -->
<g id="node2" class="node">
<title>x1</title>
<polygon fill="#d3d3d3" stroke="#000000" points="90,-391.4249 54,-391.4249 54,-355.4249 90,-355.4249 90,-391.4249"/>
<text text-anchor="middle" x="72" y="-370.7249" font-family="Times,serif" font-size="9.00" fill="#000000">x1</text>
</g>
<!-- x1&#45;&gt;20487 -->
<g id="edge19" class="edge">
<title>x1&#45;&gt;20487</title>
<path fill="none" stroke="#00ff00" stroke-width=".425" d="M83.9844,-355.3988C90.2118,-346.0317 98.002,-334.3142 105.1772,-323.5218"/>
<polygon fill="#00ff00" stroke="#00ff00" stroke-width=".425" points="108.1362,-325.3927 110.758,-315.1274 102.3069,-321.5172 108.1362,-325.3927"/>
</g>
<!-- x1&#45;&gt;280 -->
<g id="edge2" class="edge">
<title>x1&#45;&gt;280</title>
<path fill="none" stroke="#ff0000" stroke-width=".3573" d="M90.1526,-360.9926C93.082,-359.0824 96.1037,-357.1678 99,-355.4249 128.8643,-337.4538 164.1923,-318.6924 188.1552,-306.3219"/>
<polygon fill="#ff0000" stroke="#ff0000" stroke-width=".3573" points="189.761,-309.4319 197.0579,-301.7503 186.5634,-303.2049 189.761,-309.4319"/>
</g>
<!-- x2 -->
<g id="node3" class="node">
<title>x2</title>
<polygon fill="#d3d3d3" stroke="#000000" points="144,-391.4249 108,-391.4249 108,-355.4249 144,-355.4249 144,-391.4249"/>
<text text-anchor="middle" x="126" y="-370.7249" font-family="Times,serif" font-size="9.00" fill="#000000">x2</text>
</g>
<!-- x2&#45;&gt;20487 -->
<g id="edge14" class="edge">
<title>x2&#45;&gt;20487</title>
<path fill="none" stroke="#ff0000" stroke-width=".3621" d="M126,-355.3988C126,-347.7245 126,-338.4725 126,-329.4441"/>
<polygon fill="#ff0000" stroke="#ff0000" stroke-width=".3621" points="129.5001,-329.4417 126,-319.4418 122.5001,-329.4418 129.5001,-329.4417"/>
</g>
<!-- x2&#45;&gt;280 -->
<g id="edge8" class="edge">
<title>x2&#45;&gt;280</title>
<path fill="none" stroke="#ff0000" stroke-width=".2787" d="M144.2128,-356.9881C158.297,-344.2774 177.8853,-326.5993 193.0426,-312.92"/>
<polygon fill="#ff0000" stroke="#ff0000" stroke-width=".2787" points="195.4336,-315.4768 200.5124,-306.1786 190.7437,-310.2801 195.4336,-315.4768"/>
</g>
<!-- x3 -->
<g id="node4" class="node">
<title>x3</title>
<polygon fill="#d3d3d3" stroke="#000000" points="198,-391.4249 162,-391.4249 162,-355.4249 198,-355.4249 198,-391.4249"/>
<text text-anchor="middle" x="180" y="-370.7249" font-family="Times,serif" font-size="9.00" fill="#000000">x3</text>
</g>
<!-- x3&#45;&gt;20487 -->
<g id="edge16" class="edge">
<title>x3&#45;&gt;20487</title>
<path fill="none" stroke="#ff0000" stroke-width=".6026" d="M168.0156,-355.3988C161.7882,-346.0317 153.998,-334.3142 146.8228,-323.5218"/>
<polygon fill="#ff0000" stroke="#ff0000" stroke-width=".6026" points="149.6931,-321.5172 141.242,-315.1274 143.8638,-325.3927 149.6931,-321.5172"/>
</g>
<!-- x3&#45;&gt;280 -->
<g id="edge24" class="edge">
<title>x3&#45;&gt;280</title>
<path fill="none" stroke="#00ff00" stroke-width=".3643" d="M187.9896,-355.3988C192.5209,-345.1751 198.2932,-332.1515 203.419,-320.5867"/>
<polygon fill="#00ff00" stroke="#00ff00" stroke-width=".3643" points="206.6789,-321.8693 207.5312,-311.3088 200.2793,-319.0328 206.6789,-321.8693"/>
</g>
<!-- x4 -->
<g id="node5" class="node">
<title>x4</title>
<polygon fill="#d3d3d3" stroke="#000000" points="252,-391.4249 216,-391.4249 216,-355.4249 252,-355.4249 252,-391.4249"/>
<text text-anchor="middle" x="234" y="-370.7249" font-family="Times,serif" font-size="9.00" fill="#000000">x4</text>
</g>
<!-- x4&#45;&gt;20487 -->
<g id="edge27" class="edge">
<title>x4&#45;&gt;20487</title>
<path fill="none" stroke="#ff0000" stroke-width=".1147" d="M215.6793,-359.6464C199.3231,-347.3455 175.0622,-329.0995 155.8973,-314.6862"/>
<polygon fill="#ff0000" stroke="#ff0000" stroke-width=".1147" points="157.8619,-311.7843 147.7661,-308.5709 153.6544,-317.3788 157.8619,-311.7843"/>
</g>
<!-- x4&#45;&gt;280 -->
<g id="edge4" class="edge">
<title>x4&#45;&gt;280</title>
<path fill="none" stroke="#00ff00" stroke-width=".2336" d="M230.0052,-355.3988C227.886,-345.836 225.2239,-333.8236 222.7913,-322.8466"/>
<polygon fill="#00ff00" stroke="#00ff00" stroke-width=".2336" points="226.1353,-321.7591 220.5545,-312.7532 219.3011,-323.2737 226.1353,-321.7591"/>
</g>
<!-- x5 -->
<g id="node6" class="node">
<title>x5</title>
<polygon fill="#d3d3d3" stroke="#000000" points="306,-391.4249 270,-391.4249 270,-355.4249 306,-355.4249 306,-391.4249"/>
<text text-anchor="middle" x="288" y="-370.7249" font-family="Times,serif" font-size="9.00" fill="#000000">x5</text>
</g>
<!-- x5&#45;&gt;280 -->
<g id="edge1" class="edge">
<title>x5&#45;&gt;280</title>
<path fill="none" stroke="#ff0000" stroke-width=".5663" d="M272.0209,-355.3988C261.591,-343.6328 247.8738,-328.1584 236.6236,-315.467"/>
<polygon fill="#ff0000" stroke="#ff0000" stroke-width=".5663" points="239.2416,-313.144 229.9891,-307.9825 234.0034,-317.7874 239.2416,-313.144"/>
</g>
<!-- x6 -->
<g id="node7" class="node">
<title>x6</title>
<polygon fill="#d3d3d3" stroke="#000000" points="360,-391.4249 324,-391.4249 324,-355.4249 360,-355.4249 360,-391.4249"/>
<text text-anchor="middle" x="342" y="-370.7249" font-family="Times,serif" font-size="9.00" fill="#000000">x6</text>
</g>
<!-- x6&#45;&gt;280 -->
<g id="edge5" class="edge">
<title>x6&#45;&gt;280</title>
<path fill="none" stroke="#00ff00" stroke-width=".2368" d="M323.7323,-361.1762C320.8178,-359.2423 317.8308,-357.2722 315,-355.4249 290.5627,-339.4783 262.5151,-321.6065 242.5272,-308.9435"/>
<polygon fill="#00ff00" stroke="#00ff00" stroke-width=".2368" points="244.2744,-305.9072 233.9526,-303.5174 240.5313,-311.8224 244.2744,-305.9072"/>
</g>
<!-- x7 -->
<g id="node8" class="node">
<title>x7</title>
<polygon fill="#d3d3d3" stroke="#000000" points="414,-391.4249 378,-391.4249 378,-355.4249 414,-355.4249 414,-391.4249"/>
<text text-anchor="middle" x="396" y="-370.7249" font-family="Times,serif" font-size="9.00" fill="#000000">x7</text>
</g>
<!-- x7&#45;&gt;280 -->
<g id="edge6" class="edge">
<title>x7&#45;&gt;280</title>
<path fill="none" stroke="#ff0000" stroke-width=".3736" d="M377.9992,-360.7249C375.0502,-358.8493 371.9826,-357.0155 369,-355.4249 327.5808,-333.3362 276.7364,-313.6984 245.3518,-302.3749"/>
<polygon fill="#ff0000" stroke="#ff0000" stroke-width=".3736" points="246.477,-299.0604 235.8824,-298.9981 244.1257,-305.6537 246.477,-299.0604"/>
</g>
<!-- y0 -->
<g id="node9" class="node">
<title>y0</title>
<ellipse fill="#add8e6" stroke="#000000" cx="231" cy="-17.6777" rx="17.8571" ry="17.8571"/>
<text text-anchor="middle" x="231" y="-14.9777" font-family="Times,serif" font-size="9.00" fill="#000000">y0</text>
</g>
<!-- 5317 -->
<g id="node10" class="node">
<title>5317</title>
<ellipse fill="#ffffff" stroke="#000000" cx="339" cy="-198.5721" rx="24.0833" ry="24.0833"/>
<text text-anchor="middle" x="339" y="-195.8721" font-family="Times,serif" font-size="9.00" fill="#000000">5317</text>
</g>
<!-- 137842 -->
<g id="node16" class="node">
<title>137842</title>
<ellipse fill="#ffffff" stroke="#000000" cx="339" cy="-101.7609" rx="30.3115" ry="30.3115"/>
<text text-anchor="middle" x="339" y="-99.0609" font-family="Times,serif" font-size="9.00" fill="#000000">137842</text>
</g>
<!-- 5317&#45;&gt;137842 -->
<g id="edge29" class="edge">
<title>5317&#45;&gt;137842</title>
<path fill="none" stroke="#00ff00" stroke-width=".1104" d="M339,-174.1426C339,-164.5492 339,-153.2749 339,-142.5176"/>
<polygon fill="#00ff00" stroke="#00ff00" stroke-width=".1104" points="342.5001,-142.4341 339,-132.4341 335.5001,-142.4342 342.5001,-142.4341"/>
</g>
<!-- 43335 -->
<g id="node11" class="node">
<title>43335</title>
<ellipse fill="#ffffff" stroke="#000000" cx="126" cy="-198.5721" rx="27.4491" ry="27.4491"/>
<text text-anchor="middle" x="126" y="-195.8721" font-family="Times,serif" font-size="9.00" fill="#000000">43335</text>
</g>
<!-- 1655 -->
<g id="node17" class="node">
<title>1655</title>
<ellipse fill="#ffffff" stroke="#000000" cx="164" cy="-101.7609" rx="24.0833" ry="24.0833"/>
<text text-anchor="middle" x="164" y="-99.0609" font-family="Times,serif" font-size="9.00" fill="#000000">1655</text>
</g>
<!-- 43335&#45;&gt;1655 -->
<g id="edge26" class="edge">
<title>43335&#45;&gt;1655</title>
<path fill="none" stroke="#ff0000" stroke-width=".1863" d="M135.9841,-173.1361C140.7153,-161.0825 146.4175,-146.5552 151.4391,-133.7618"/>
<polygon fill="#ff0000" stroke="#ff0000" stroke-width=".1863" points="154.7233,-134.9737 155.1192,-124.3863 148.2073,-132.416 154.7233,-134.9737"/>
</g>
<!-- 20487&#45;&gt;43335 -->
<g id="edge28" class="edge">
<title>20487&#45;&gt;43335</title>
<path fill="none" stroke="#ff0000" stroke-width=".172" d="M126,-264.8682C126,-255.9098 126,-245.793 126,-236.2101"/>
<polygon fill="#ff0000" stroke="#ff0000" stroke-width=".172" points="129.5001,-236.1013 126,-226.1013 122.5001,-236.1014 129.5001,-236.1013"/>
</g>
<!-- 20112 -->
<g id="node15" class="node">
<title>20112</title>
<ellipse fill="#ffffff" stroke="#000000" cx="198" cy="-198.5721" rx="26.9811" ry="26.9811"/>
<text text-anchor="middle" x="198" y="-195.8721" font-family="Times,serif" font-size="9.00" fill="#000000">20112</text>
</g>
<!-- 20487&#45;&gt;20112 -->
<g id="edge15" class="edge">
<title>20487&#45;&gt;20112</title>
<path fill="none" stroke="#ff0000" stroke-width=".861" d="M142.6992,-270.4856C152.3318,-257.9593 164.5818,-242.0293 175.1028,-228.3478"/>
<polygon fill="#ff0000" stroke="#ff0000" stroke-width=".861" points="178.0699,-230.2309 181.3913,-220.1701 172.5209,-225.9637 178.0699,-230.2309"/>
</g>
<!-- 281 -->
<g id="node19" class="node">
<title>281</title>
<ellipse fill="#ffffff" stroke="#000000" cx="60" cy="-198.5721" rx="20.7202" ry="20.7202"/>
<text text-anchor="middle" x="60" y="-195.8721" font-family="Times,serif" font-size="9.00" fill="#000000">281</text>
</g>
<!-- 20487&#45;&gt;281 -->
<g id="edge17" class="edge">
<title>20487&#45;&gt;281</title>
<path fill="none" stroke="#00ff00" stroke-width=".2354" d="M110.0232,-269.5363C100.3558,-255.8218 88.0041,-238.2994 77.9934,-224.098"/>
<polygon fill="#00ff00" stroke="#00ff00" stroke-width=".2354" points="80.7301,-221.9055 72.1078,-215.7486 75.0087,-225.9385 80.7301,-221.9055"/>
</g>
<!-- 139337 -->
<g id="node13" class="node">
<title>139337</title>
<ellipse fill="#ffffff" stroke="#000000" cx="411" cy="-198.5721" rx="30.3115" ry="30.3115"/>
<text text-anchor="middle" x="411" y="-195.8721" font-family="Times,serif" font-size="9.00" fill="#000000">139337</text>
</g>
<!-- 139337&#45;&gt;137842 -->
<g id="edge32" class="edge">
<title>139337&#45;&gt;137842</title>
<path fill="none" stroke="#00ff00" stroke-width=".1075" d="M392.8314,-174.1426C383.8779,-162.1038 372.9558,-147.4179 363.2955,-134.4286"/>
<polygon fill="#00ff00" stroke="#00ff00" stroke-width=".1075" points="365.939,-132.1181 357.1628,-126.1827 360.3221,-136.2955 365.939,-132.1181"/>
</g>
<!-- 39120 -->
<g id="node14" class="node">
<title>39120</title>
<ellipse fill="#ffffff" stroke="#000000" cx="270" cy="-198.5721" rx="27.4491" ry="27.4491"/>
<text text-anchor="middle" x="270" y="-195.8721" font-family="Times,serif" font-size="9.00" fill="#000000">39120</text>
</g>
<!-- 282 -->
<g id="node20" class="node">
<title>282</title>
<ellipse fill="#ffffff" stroke="#000000" cx="231" cy="-101.7609" rx="20.7202" ry="20.7202"/>
<text text-anchor="middle" x="231" y="-99.0609" font-family="Times,serif" font-size="9.00" fill="#000000">282</text>
</g>
<!-- 39120&#45;&gt;282 -->
<g id="edge23" class="edge">
<title>39120&#45;&gt;282</title>
<path fill="none" stroke="#00ff00" stroke-width=".3023" d="M259.7532,-173.1361C254.4867,-160.0628 248.0478,-144.0794 242.5994,-130.5545"/>
<polygon fill="#00ff00" stroke="#00ff00" stroke-width=".3023" points="245.8212,-129.1853 238.838,-121.2175 239.3282,-131.801 245.8212,-129.1853"/>
</g>
<!-- 20112&#45;&gt;1655 -->
<g id="edge21" class="edge">
<title>20112&#45;&gt;1655</title>
<path fill="none" stroke="#00ff00" stroke-width=".2406" d="M188.9779,-172.8827C184.8176,-161.0368 179.833,-146.8436 175.4146,-134.2628"/>
<polygon fill="#00ff00" stroke="#00ff00" stroke-width=".2406" points="178.6351,-132.8699 172.0192,-124.5946 172.0306,-135.1895 178.6351,-132.8699"/>
</g>
<!-- 20112&#45;&gt;282 -->
<g id="edge13" class="edge">
<title>20112&#45;&gt;282</title>
<path fill="none" stroke="#00ff00" stroke-width=".5391" d="M206.7568,-172.8827C211.1085,-160.116 216.3897,-144.6229 220.9105,-131.3602"/>
<polygon fill="#00ff00" stroke="#00ff00" stroke-width=".5391" points="224.2778,-132.3294 224.1915,-121.735 217.6522,-130.0709 224.2778,-132.3294"/>
</g>
<!-- 137842&#45;&gt;y0 -->
<g id="edge30" class="edge">
<title>137842&#45;&gt;y0</title>
<path fill="none" stroke="#00ff00" stroke-width=".1359" d="M314.7627,-82.891C296.3774,-68.5771 271.2981,-49.0517 253.3844,-35.105"/>
<polygon fill="#00ff00" stroke="#00ff00" stroke-width=".1359" points="255.2674,-32.1354 245.2267,-28.7538 250.9672,-37.6588 255.2674,-32.1354"/>
</g>
<!-- 1655&#45;&gt;y0 -->
<g id="edge10" class="edge">
<title>1655&#45;&gt;y0</title>
<path fill="none" stroke="#ff0000" stroke-width=".1813" d="M179.2033,-82.6811C189.3382,-69.9621 202.696,-53.1985 213.3079,-39.8808"/>
<polygon fill="#ff0000" stroke="#ff0000" stroke-width=".1813" points="216.3288,-41.7059 219.8234,-31.704 210.8543,-37.3436 216.3288,-41.7059"/>
</g>
<!-- 280&#45;&gt;5317 -->
<g id="edge11" class="edge">
<title>280&#45;&gt;5317</title>
<path fill="none" stroke="#ff0000" stroke-width=".6052" d="M233.7507,-280.7411C252.273,-268.5526 281.9164,-248.3914 306,-228.9777 308.608,-226.8754 311.2709,-224.6215 313.8967,-222.3262"/>
<polygon fill="#ff0000" stroke="#ff0000" stroke-width=".6052" points="316.4745,-224.7152 321.5708,-215.4266 311.7944,-219.5098 316.4745,-224.7152"/>
</g>
<!-- 280&#45;&gt;43335 -->
<g id="edge25" class="edge">
<title>280&#45;&gt;43335</title>
<path fill="none" stroke="#00ff00" stroke-width=".1165" d="M201.5399,-277.1582C188.2682,-263.3513 168.2862,-242.5634 152.2066,-225.8355"/>
<polygon fill="#00ff00" stroke="#00ff00" stroke-width=".1165" points="154.5847,-223.2589 145.1314,-218.475 149.5381,-228.1099 154.5847,-223.2589"/>
</g>
<!-- 280&#45;&gt;139337 -->
<g id="edge31" class="edge">
<title>280&#45;&gt;139337</title>
<path fill="none" stroke="#00ff00" stroke-width=".1171" d="M236.0231,-286.0735C266.5243,-276.3077 325.9403,-255.5718 372,-228.9777 374.5093,-227.5289 377.0349,-225.9336 379.5288,-224.2556"/>
<polygon fill="#00ff00" stroke="#00ff00" stroke-width=".1171" points="381.7208,-226.9909 387.8161,-218.3249 377.647,-221.2983 381.7208,-226.9909"/>
</g>
<!-- 280&#45;&gt;39120 -->
<g id="edge22" class="edge">
<title>280&#45;&gt;39120</title>
<path fill="none" stroke="#00ff00" stroke-width=".1461" d="M226.6687,-273.7032C233.6277,-261.6372 242.9052,-245.5511 251.0899,-231.3598"/>
<polygon fill="#00ff00" stroke="#00ff00" stroke-width=".1461" points="254.3111,-232.7802 256.2753,-222.369 248.2473,-229.2829 254.3111,-232.7802"/>
</g>
<!-- 280&#45;&gt;20112 -->
<g id="edge12" class="edge">
<title>280&#45;&gt;20112</title>
<path fill="none" stroke="#ff0000" stroke-width=".9" d="M212.0052,-271.422C209.9661,-260.8154 207.4244,-247.5943 205.0681,-235.3378"/>
<polygon fill="#ff0000" stroke="#ff0000" stroke-width=".9" points="208.4726,-234.507 203.1475,-225.3476 201.5985,-235.8286 208.4726,-234.507"/>
</g>
<!-- 280&#45;&gt;281 -->
<g id="edge20" class="edge">
<title>280&#45;&gt;281</title>
<path fill="none" stroke="#ff0000" stroke-width=".1604" d="M197.0147,-282.6108C186.6677,-277.3888 173.6347,-270.8191 162,-264.9777 130.0265,-248.9248 118.9535,-249.9943 90,-228.9777 86.9393,-226.7561 83.9075,-224.2128 81.0145,-221.5644"/>
<polygon fill="#ff0000" stroke="#ff0000" stroke-width=".1604" points="83.3499,-218.9526 73.7563,-214.4565 78.4521,-223.9539 83.3499,-218.9526"/>
</g>
<!-- 281&#45;&gt;1655 -->
<g id="edge9" class="edge">
<title>281&#45;&gt;1655</title>
<path fill="none" stroke="#00ff00" stroke-width=".1676" d="M74.4708,-183.5449C79.3417,-178.5841 84.8484,-173.0799 90,-168.1665 105.7037,-153.1889 123.8301,-136.907 138.2123,-124.2141"/>
<polygon fill="#00ff00" stroke="#00ff00" stroke-width=".1676" points="140.5787,-126.794 145.7781,-117.5627 135.9568,-121.5367 140.5787,-126.794"/>
</g>
<!-- 282&#45;&gt;y0 -->
<g id="edge7" class="edge">
<title>282&#45;&gt;y0</title>
<path fill="none" stroke="#00ff00" stroke-width=".4105" d="M231,-80.5432C231,-69.999 231,-57.1168 231,-45.7654"/>
<polygon fill="#00ff00" stroke="#00ff00" stroke-width=".4105" points="234.5001,-45.4774 231,-35.4774 227.5001,-45.4775 234.5001,-45.4774"/>
</g>
</g>
</svg>
