<?xml version="1.0" encoding="UTF-8" standalone="no"?>
<!DOCTYPE svg PUBLIC "-//W3C//DTD SVG 1.1//EN"
 "http://www.w3.org/Graphics/SVG/1.1/DTD/svg11.dtd">
<!-- Generated by graphviz version 2.40.1 (20161225.0304)
 -->
<!-- Title: %3 Pages: 1 -->
<svg width="536pt" height="387pt"
 viewBox="0.00 0.00 536.27 386.70" xmlns="http://www.w3.org/2000/svg" xmlns:xlink="http://www.w3.org/1999/xlink">
<g id="graph0" class="graph" transform="scale(1 1) rotate(0) translate(4 382.697)">
<title>%3</title>
<polygon fill="#ffffff" stroke="transparent" points="-4,4 -4,-382.697 532.2652,-382.697 532.2652,4 -4,4"/>
<!-- x0 -->
<g id="node1" class="node">
<title>x0</title>
<polygon fill="#d3d3d3" stroke="#000000" points="96.0416,-378.697 60.0416,-378.697 60.0416,-342.697 96.0416,-342.697 96.0416,-378.697"/>
<text text-anchor="middle" x="78.0416" y="-357.997" font-family="Times,serif" font-size="9.00" fill="#000000">x0</text>
</g>
<!-- 421 -->
<g id="node15" class="node">
<title>421</title>
<ellipse fill="#ffffff" stroke="#000000" cx="159.0416" cy="-279.4734" rx="20.7202" ry="20.7202"/>
<text text-anchor="middle" x="159.0416" y="-276.7734" font-family="Times,serif" font-size="9.00" fill="#000000">421</text>
</g>
<!-- x0&#45;&gt;421 -->
<g id="edge3" class="edge">
<title>x0&#45;&gt;421</title>
<path fill="none" stroke="#ff0000" stroke-width=".3231" d="M96.0182,-342.6709C108.0962,-330.5595 124.0928,-314.5187 136.9474,-301.6287"/>
<polygon fill="#ff0000" stroke="#ff0000" stroke-width=".3231" points="139.5164,-304.0091 144.0994,-294.4568 134.5598,-299.0662 139.5164,-304.0091"/>
</g>
<!-- x1 -->
<g id="node2" class="node">
<title>x1</title>
<polygon fill="#d3d3d3" stroke="#000000" points="42.0416,-378.697 6.0416,-378.697 6.0416,-342.697 42.0416,-342.697 42.0416,-378.697"/>
<text text-anchor="middle" x="24.0416" y="-357.997" font-family="Times,serif" font-size="9.00" fill="#000000">x1</text>
</g>
<!-- x1&#45;&gt;421 -->
<g id="edge4" class="edge">
<title>x1&#45;&gt;421</title>
<path fill="none" stroke="#00ff00" stroke-width=".2858" d="M42.1002,-348.1027C45.0417,-346.2135 48.0919,-344.3477 51.0416,-342.697 84.3599,-324.0511 97.2027,-327.7697 129.0416,-306.697 131.5159,-305.0594 133.9894,-303.2222 136.3952,-301.2957"/>
<polygon fill="#00ff00" stroke="#00ff00" stroke-width=".2858" points="138.9218,-303.7389 144.2165,-294.5618 134.3546,-298.4341 138.9218,-303.7389"/>
</g>
<!-- 6073 -->
<g id="node18" class="node">
<title>6073</title>
<ellipse fill="#ffffff" stroke="#000000" cx="24.0416" cy="-279.4734" rx="24.0833" ry="24.0833"/>
<text text-anchor="middle" x="24.0416" y="-276.7734" font-family="Times,serif" font-size="9.00" fill="#000000">6073</text>
</g>
<!-- x1&#45;&gt;6073 -->
<g id="edge16" class="edge">
<title>x1&#45;&gt;6073</title>
<path fill="none" stroke="#ff0000" stroke-width=".5292" d="M24.0416,-342.6709C24.0416,-334.1378 24.0416,-323.6541 24.0416,-313.6961"/>
<polygon fill="#ff0000" stroke="#ff0000" stroke-width=".5292" points="27.5417,-313.6129 24.0416,-303.6129 20.5417,-313.613 27.5417,-313.6129"/>
</g>
<!-- 56827 -->
<g id="node26" class="node">
<title>56827</title>
<ellipse fill="#ffffff" stroke="#000000" cx="93.0416" cy="-279.4734" rx="27.4491" ry="27.4491"/>
<text text-anchor="middle" x="93.0416" y="-276.7734" font-family="Times,serif" font-size="9.00" fill="#000000">56827</text>
</g>
<!-- x1&#45;&gt;56827 -->
<g id="edge44" class="edge">
<title>x1&#45;&gt;56827</title>
<path fill="none" stroke="#ff0000" stroke-width=".3051" d="M39.355,-342.6709C48.0003,-332.494 59.0026,-319.5426 68.7933,-308.0174"/>
<polygon fill="#ff0000" stroke="#ff0000" stroke-width=".3051" points="71.5271,-310.2053 75.334,-300.318 66.1922,-305.6732 71.5271,-310.2053"/>
</g>
<!-- x2 -->
<g id="node3" class="node">
<title>x2</title>
<polygon fill="#d3d3d3" stroke="#000000" points="150.0416,-378.697 114.0416,-378.697 114.0416,-342.697 150.0416,-342.697 150.0416,-378.697"/>
<text text-anchor="middle" x="132.0416" y="-357.997" font-family="Times,serif" font-size="9.00" fill="#000000">x2</text>
</g>
<!-- x2&#45;&gt;421 -->
<g id="edge5" class="edge">
<title>x2&#45;&gt;421</title>
<path fill="none" stroke="#ff0000" stroke-width=".3276" d="M138.0338,-342.6709C141.3262,-332.7663 145.4922,-320.2339 149.2445,-308.9458"/>
<polygon fill="#ff0000" stroke="#ff0000" stroke-width=".3276" points="152.57,-310.0372 152.4032,-299.4437 145.9274,-307.8291 152.57,-310.0372"/>
</g>
<!-- x3 -->
<g id="node4" class="node">
<title>x3</title>
<polygon fill="#d3d3d3" stroke="#000000" points="373.0416,-378.697 337.0416,-378.697 337.0416,-342.697 373.0416,-342.697 373.0416,-378.697"/>
<text text-anchor="middle" x="355.0416" y="-357.997" font-family="Times,serif" font-size="9.00" fill="#000000">x3</text>
</g>
<!-- 6302 -->
<g id="node12" class="node">
<title>6302</title>
<ellipse fill="#ffffff" stroke="#000000" cx="432.0416" cy="-279.4734" rx="24.0833" ry="24.0833"/>
<text text-anchor="middle" x="432.0416" y="-276.7734" font-family="Times,serif" font-size="9.00" fill="#000000">6302</text>
</g>
<!-- x3&#45;&gt;6302 -->
<g id="edge29" class="edge">
<title>x3&#45;&gt;6302</title>
<path fill="none" stroke="#ff0000" stroke-width=".3613" d="M372.1304,-342.6709C382.7709,-331.4468 396.6106,-316.8479 408.3074,-304.5095"/>
<polygon fill="#ff0000" stroke="#ff0000" stroke-width=".3613" points="410.9257,-306.8349 415.2655,-297.1697 405.8456,-302.019 410.9257,-306.8349"/>
</g>
<!-- x3&#45;&gt;421 -->
<g id="edge8" class="edge">
<title>x3&#45;&gt;421</title>
<path fill="none" stroke="#00ff00" stroke-width=".2756" d="M337.0411,-350.2207C331.9727,-347.5337 326.3831,-344.8093 321.0416,-342.697 264.4932,-320.3351 242.3606,-335.9351 189.0416,-306.697 186.2936,-305.1901 183.5932,-303.3828 181.0071,-301.4256"/>
<polygon fill="#00ff00" stroke="#00ff00" stroke-width=".2756" points="183.1156,-298.6251 173.2177,-294.8459 178.5986,-303.9726 183.1156,-298.6251"/>
</g>
<!-- 19784 -->
<g id="node20" class="node">
<title>19784</title>
<ellipse fill="#ffffff" stroke="#000000" cx="363.0416" cy="-279.4734" rx="27.4491" ry="27.4491"/>
<text text-anchor="middle" x="363.0416" y="-276.7734" font-family="Times,serif" font-size="9.00" fill="#000000">19784</text>
</g>
<!-- x3&#45;&gt;19784 -->
<g id="edge26" class="edge">
<title>x3&#45;&gt;19784</title>
<path fill="none" stroke="#ff0000" stroke-width=".773" d="M356.8171,-342.6709C357.573,-334.9966 358.4842,-325.7446 359.3735,-316.7162"/>
<polygon fill="#ff0000" stroke="#ff0000" stroke-width=".773" points="362.8615,-317.0088 360.3586,-306.7138 355.8952,-316.3226 362.8615,-317.0088"/>
</g>
<!-- 36045 -->
<g id="node21" class="node">
<title>36045</title>
<ellipse fill="#ffffff" stroke="#000000" cx="291.0416" cy="-279.4734" rx="27.4491" ry="27.4491"/>
<text text-anchor="middle" x="291.0416" y="-276.7734" font-family="Times,serif" font-size="9.00" fill="#000000">36045</text>
</g>
<!-- x3&#45;&gt;36045 -->
<g id="edge37" class="edge">
<title>x3&#45;&gt;36045</title>
<path fill="none" stroke="#ff0000" stroke-width=".2716" d="M340.838,-342.6709C333.0147,-332.7422 323.1107,-320.1729 314.1995,-308.8635"/>
<polygon fill="#ff0000" stroke="#ff0000" stroke-width=".2716" points="316.8684,-306.5954 307.9301,-300.9069 311.3701,-310.9278 316.8684,-306.5954"/>
</g>
<!-- x4 -->
<g id="node5" class="node">
<title>x4</title>
<polygon fill="#d3d3d3" stroke="#000000" points="204.0416,-378.697 168.0416,-378.697 168.0416,-342.697 204.0416,-342.697 204.0416,-378.697"/>
<text text-anchor="middle" x="186.0416" y="-357.997" font-family="Times,serif" font-size="9.00" fill="#000000">x4</text>
</g>
<!-- x4&#45;&gt;421 -->
<g id="edge11" class="edge">
<title>x4&#45;&gt;421</title>
<path fill="none" stroke="#00ff00" stroke-width=".259" d="M180.0495,-342.6709C176.757,-332.7663 172.5911,-320.2339 168.8387,-308.9458"/>
<polygon fill="#00ff00" stroke="#00ff00" stroke-width=".259" points="172.1559,-307.8291 165.6801,-299.4437 165.5133,-310.0372 172.1559,-307.8291"/>
</g>
<!-- 4962 -->
<g id="node24" class="node">
<title>4962</title>
<ellipse fill="#ffffff" stroke="#000000" cx="222.0416" cy="-279.4734" rx="24.0833" ry="24.0833"/>
<text text-anchor="middle" x="222.0416" y="-276.7734" font-family="Times,serif" font-size="9.00" fill="#000000">4962</text>
</g>
<!-- x4&#45;&gt;4962 -->
<g id="edge12" class="edge">
<title>x4&#45;&gt;4962</title>
<path fill="none" stroke="#ff0000" stroke-width=".471" d="M194.0312,-342.6709C198.1968,-333.2724 203.4111,-321.5077 208.2078,-310.6854"/>
<polygon fill="#ff0000" stroke="#ff0000" stroke-width=".471" points="211.4264,-312.061 212.2787,-301.5005 205.0268,-309.2246 211.4264,-312.061"/>
</g>
<!-- x5 -->
<g id="node6" class="node">
<title>x5</title>
<polygon fill="#d3d3d3" stroke="#000000" points="438.0416,-378.697 402.0416,-378.697 402.0416,-342.697 438.0416,-342.697 438.0416,-378.697"/>
<text text-anchor="middle" x="420.0416" y="-357.997" font-family="Times,serif" font-size="9.00" fill="#000000">x5</text>
</g>
<!-- x5&#45;&gt;6302 -->
<g id="edge15" class="edge">
<title>x5&#45;&gt;6302</title>
<path fill="none" stroke="#00ff00" stroke-width=".3336" d="M422.7048,-342.6709C423.9757,-334.0684 425.5396,-323.4835 427.0214,-313.4534"/>
<polygon fill="#00ff00" stroke="#00ff00" stroke-width=".3336" points="430.5211,-313.7122 428.5203,-303.308 423.5963,-312.6891 430.5211,-313.7122"/>
</g>
<!-- x5&#45;&gt;421 -->
<g id="edge10" class="edge">
<title>x5&#45;&gt;421</title>
<path fill="none" stroke="#ff0000" stroke-width=".2204" d="M401.8775,-350.9241C395.7186,-347.9288 388.7082,-344.8575 382.0416,-342.697 299.0344,-315.7967 267.203,-345.4866 189.0416,-306.697 186.2342,-305.3037 183.4951,-303.5706 180.8857,-301.6582"/>
<polygon fill="#ff0000" stroke="#ff0000" stroke-width=".2204" points="182.9876,-298.8537 173.0669,-295.1348 178.5032,-304.2287 182.9876,-298.8537"/>
</g>
<!-- 53969 -->
<g id="node22" class="node">
<title>53969</title>
<ellipse fill="#ffffff" stroke="#000000" cx="501.0416" cy="-279.4734" rx="27.4491" ry="27.4491"/>
<text text-anchor="middle" x="501.0416" y="-276.7734" font-family="Times,serif" font-size="9.00" fill="#000000">53969</text>
</g>
<!-- x5&#45;&gt;53969 -->
<g id="edge41" class="edge">
<title>x5&#45;&gt;53969</title>
<path fill="none" stroke="#00ff00" stroke-width=".5225" d="M438.0182,-342.6709C448.7482,-331.9112 462.571,-318.0503 474.5358,-306.0524"/>
<polygon fill="#00ff00" stroke="#00ff00" stroke-width=".5225" points="477.1182,-308.4195 481.7012,-298.8672 472.1616,-303.4765 477.1182,-308.4195"/>
</g>
<!-- x5&#45;&gt;4962 -->
<g id="edge22" class="edge">
<title>x5&#45;&gt;4962</title>
<path fill="none" stroke="#ff0000" stroke-width=".2936" d="M401.7531,-351.2799C395.5859,-348.3084 388.6021,-345.1611 382.0416,-342.697 327.1196,-322.0683 306.9987,-333.9447 255.0416,-306.697 252.682,-305.4595 250.3356,-304.0343 248.0451,-302.4981"/>
<polygon fill="#ff0000" stroke="#ff0000" stroke-width=".2936" points="249.6876,-299.3571 239.5782,-296.1868 245.5041,-304.9695 249.6876,-299.3571"/>
</g>
<!-- x6 -->
<g id="node7" class="node">
<title>x6</title>
<polygon fill="#d3d3d3" stroke="#000000" points="258.0416,-378.697 222.0416,-378.697 222.0416,-342.697 258.0416,-342.697 258.0416,-378.697"/>
<text text-anchor="middle" x="240.0416" y="-357.997" font-family="Times,serif" font-size="9.00" fill="#000000">x6</text>
</g>
<!-- x6&#45;&gt;421 -->
<g id="edge6" class="edge">
<title>x6&#45;&gt;421</title>
<path fill="none" stroke="#ff0000" stroke-width=".2268" d="M222.0651,-342.6709C209.9871,-330.5595 193.9904,-314.5187 181.1359,-301.6287"/>
<polygon fill="#ff0000" stroke="#ff0000" stroke-width=".2268" points="183.5235,-299.0662 173.9838,-294.4568 178.5669,-304.0091 183.5235,-299.0662"/>
</g>
<!-- x6&#45;&gt;4962 -->
<g id="edge33" class="edge">
<title>x6&#45;&gt;4962</title>
<path fill="none" stroke="#00ff00" stroke-width=".4141" d="M236.0468,-342.6709C234.1049,-333.9077 231.707,-323.0875 229.4475,-312.892"/>
<polygon fill="#00ff00" stroke="#00ff00" stroke-width=".4141" points="232.8371,-312.01 227.2563,-303.0041 226.0029,-313.5245 232.8371,-312.01"/>
</g>
<!-- x7 -->
<g id="node8" class="node">
<title>x7</title>
<polygon fill="#d3d3d3" stroke="#000000" points="312.0416,-378.697 276.0416,-378.697 276.0416,-342.697 312.0416,-342.697 312.0416,-378.697"/>
<text text-anchor="middle" x="294.0416" y="-357.997" font-family="Times,serif" font-size="9.00" fill="#000000">x7</text>
</g>
<!-- x7&#45;&gt;421 -->
<g id="edge2" class="edge">
<title>x7&#45;&gt;421</title>
<path fill="none" stroke="#ff0000" stroke-width=".2184" d="M275.9831,-348.1027C273.0415,-346.2135 269.9913,-344.3477 267.0416,-342.697 233.7233,-324.0511 220.8806,-327.7697 189.0416,-306.697 186.5674,-305.0594 184.0939,-303.2222 181.6881,-301.2957"/>
<polygon fill="#ff0000" stroke="#ff0000" stroke-width=".2184" points="183.7287,-298.4341 173.8668,-294.5618 179.1614,-303.7389 183.7287,-298.4341"/>
</g>
<!-- x7&#45;&gt;4962 -->
<g id="edge14" class="edge">
<title>x7&#45;&gt;4962</title>
<path fill="none" stroke="#ff0000" stroke-width=".289" d="M278.0625,-342.6709C268.3428,-331.706 255.7681,-317.5204 244.9957,-305.368"/>
<polygon fill="#ff0000" stroke="#ff0000" stroke-width=".289" points="247.4776,-302.8915 238.2251,-297.73 242.2394,-307.5349 247.4776,-302.8915"/>
</g>
<!-- y0 -->
<g id="node9" class="node">
<title>y0</title>
<ellipse fill="#add8e6" stroke="#000000" cx="289.0416" cy="-17.6777" rx="17.8571" ry="17.8571"/>
<text text-anchor="middle" x="289.0416" y="-14.9777" font-family="Times,serif" font-size="9.00" fill="#000000">y0</text>
</g>
<!-- 28431 -->
<g id="node10" class="node">
<title>28431</title>
<ellipse fill="#ffffff" stroke="#000000" cx="157.0416" cy="-189.0262" rx="27.4491" ry="27.4491"/>
<text text-anchor="middle" x="157.0416" y="-186.3262" font-family="Times,serif" font-size="9.00" fill="#000000">28431</text>
</g>
<!-- 22676 -->
<g id="node11" class="node">
<title>22676</title>
<ellipse fill="#ffffff" stroke="#000000" cx="157.0416" cy="-98.579" rx="27.4491" ry="27.4491"/>
<text text-anchor="middle" x="157.0416" y="-95.879" font-family="Times,serif" font-size="9.00" fill="#000000">22676</text>
</g>
<!-- 28431&#45;&gt;22676 -->
<g id="edge32" class="edge">
<title>28431&#45;&gt;22676</title>
<path fill="none" stroke="#00ff00" stroke-width=".2113" d="M157.0416,-161.3976C157.0416,-153.4198 157.0416,-144.5767 157.0416,-136.1048"/>
<polygon fill="#00ff00" stroke="#00ff00" stroke-width=".2113" points="160.5417,-136.0383 157.0416,-126.0384 153.5417,-136.0384 160.5417,-136.0383"/>
</g>
<!-- 423 -->
<g id="node17" class="node">
<title>423</title>
<ellipse fill="#ffffff" stroke="#000000" cx="223.0416" cy="-98.579" rx="20.7202" ry="20.7202"/>
<text text-anchor="middle" x="223.0416" y="-95.879" font-family="Times,serif" font-size="9.00" fill="#000000">423</text>
</g>
<!-- 28431&#45;&gt;423 -->
<g id="edge39" class="edge">
<title>28431&#45;&gt;423</title>
<path fill="none" stroke="#ff0000" stroke-width=".1163" d="M173.3562,-166.6684C182.813,-153.7088 194.7505,-137.3495 204.5541,-123.9145"/>
<polygon fill="#ff0000" stroke="#ff0000" stroke-width=".1163" points="207.5735,-125.7143 210.6409,-115.5731 201.9189,-121.588 207.5735,-125.7143"/>
</g>
<!-- 22676&#45;&gt;y0 -->
<g id="edge28" class="edge">
<title>22676&#45;&gt;y0</title>
<path fill="none" stroke="#ff0000" stroke-width=".3055" d="M178.3956,-81.6729C183.131,-78.1391 188.1871,-74.5265 193.0416,-71.3553 216.3968,-56.0988 244.3601,-40.774 264.0658,-30.4275"/>
<polygon fill="#ff0000" stroke="#ff0000" stroke-width=".3055" points="265.7631,-33.4899 273.0198,-25.7703 262.5331,-27.2796 265.7631,-33.4899"/>
</g>
<!-- 14494 -->
<g id="node13" class="node">
<title>14494</title>
<ellipse fill="#ffffff" stroke="#000000" cx="361.0416" cy="-189.0262" rx="27.4491" ry="27.4491"/>
<text text-anchor="middle" x="361.0416" y="-186.3262" font-family="Times,serif" font-size="9.00" fill="#000000">14494</text>
</g>
<!-- 6302&#45;&gt;14494 -->
<g id="edge23" class="edge">
<title>6302&#45;&gt;14494</title>
<path fill="none" stroke="#ff0000" stroke-width=".2046" d="M416.9844,-260.2919C407.5457,-248.2679 395.1823,-232.5181 384.4791,-218.8833"/>
<polygon fill="#ff0000" stroke="#ff0000" stroke-width=".2046" points="386.9983,-216.4241 378.0705,-210.7193 381.4921,-220.7464 386.9983,-216.4241"/>
</g>
<!-- 34975 -->
<g id="node14" class="node">
<title>34975</title>
<ellipse fill="#ffffff" stroke="#000000" cx="427.0416" cy="-98.579" rx="27.4491" ry="27.4491"/>
<text text-anchor="middle" x="427.0416" y="-95.879" font-family="Times,serif" font-size="9.00" fill="#000000">34975</text>
</g>
<!-- 14494&#45;&gt;34975 -->
<g id="edge36" class="edge">
<title>14494&#45;&gt;34975</title>
<path fill="none" stroke="#00ff00" stroke-width=".101" d="M377.3562,-166.6684C385.6684,-155.2774 395.8971,-141.2598 404.9088,-128.9101"/>
<polygon fill="#00ff00" stroke="#00ff00" stroke-width=".101" points="407.8474,-130.8206 410.9147,-120.6795 402.1928,-126.6944 407.8474,-130.8206"/>
</g>
<!-- 9668 -->
<g id="node19" class="node">
<title>9668</title>
<ellipse fill="#ffffff" stroke="#000000" cx="358.0416" cy="-98.579" rx="24.0833" ry="24.0833"/>
<text text-anchor="middle" x="358.0416" y="-95.879" font-family="Times,serif" font-size="9.00" fill="#000000">9668</text>
</g>
<!-- 14494&#45;&gt;9668 -->
<g id="edge24" class="edge">
<title>14494&#45;&gt;9668</title>
<path fill="none" stroke="#00ff00" stroke-width=".1626" d="M360.1252,-161.3976C359.8273,-152.4141 359.4929,-142.3332 359.1807,-132.9209"/>
<polygon fill="#00ff00" stroke="#00ff00" stroke-width=".1626" points="362.6704,-132.5508 358.8408,-122.6724 355.6743,-132.7829 362.6704,-132.5508"/>
</g>
<!-- 12781 -->
<g id="node25" class="node">
<title>12781</title>
<ellipse fill="#ffffff" stroke="#000000" cx="289.0416" cy="-98.579" rx="27.4491" ry="27.4491"/>
<text text-anchor="middle" x="289.0416" y="-95.879" font-family="Times,serif" font-size="9.00" fill="#000000">12781</text>
</g>
<!-- 14494&#45;&gt;12781 -->
<g id="edge34" class="edge">
<title>14494&#45;&gt;12781</title>
<path fill="none" stroke="#ff0000" stroke-width=".3394" d="M343.9786,-167.5914C334.6318,-155.8499 322.9041,-141.1174 312.6872,-128.2828"/>
<polygon fill="#ff0000" stroke="#ff0000" stroke-width=".3394" points="315.1981,-125.8172 306.2317,-120.1733 309.7214,-130.1769 315.1981,-125.8172"/>
</g>
<!-- 34975&#45;&gt;y0 -->
<g id="edge35" class="edge">
<title>34975&#45;&gt;y0</title>
<path fill="none" stroke="#ff0000" stroke-width=".4262" d="M405.7482,-81.579C401.009,-78.051 395.9361,-74.4646 391.0416,-71.3553 365.9616,-55.4229 335.6604,-39.9144 314.6323,-29.698"/>
<polygon fill="#ff0000" stroke="#ff0000" stroke-width=".4262" points="315.9263,-26.4368 305.3968,-25.2617 312.8952,-32.7466 315.9263,-26.4368"/>
</g>
<!-- 421&#45;&gt;28431 -->
<g id="edge31" class="edge">
<title>421&#45;&gt;28431</title>
<path fill="none" stroke="#ff0000" stroke-width=".7974" d="M158.5778,-258.4956C158.3679,-249.0044 158.1133,-237.4902 157.8722,-226.588"/>
<polygon fill="#ff0000" stroke="#ff0000" stroke-width=".7974" points="161.3674,-226.3289 157.6471,-216.4088 154.3691,-226.4837 161.3674,-226.3289"/>
</g>
<!-- 422 -->
<g id="node16" class="node">
<title>422</title>
<ellipse fill="#ffffff" stroke="#000000" cx="223.0416" cy="-189.0262" rx="20.7202" ry="20.7202"/>
<text text-anchor="middle" x="223.0416" y="-186.3262" font-family="Times,serif" font-size="9.00" fill="#000000">422</text>
</g>
<!-- 421&#45;&gt;422 -->
<g id="edge1" class="edge">
<title>421&#45;&gt;422</title>
<path fill="none" stroke="#ff0000" stroke-width=".9" d="M171.3815,-262.0343C180.9158,-248.5599 194.2519,-229.7129 204.9858,-214.5433"/>
<polygon fill="#ff0000" stroke="#ff0000" stroke-width=".9" points="208.0376,-216.2898 210.9567,-206.105 202.3234,-212.2465 208.0376,-216.2898"/>
</g>
<!-- 10070 -->
<g id="node23" class="node">
<title>10070</title>
<ellipse fill="#ffffff" stroke="#000000" cx="85.0416" cy="-189.0262" rx="27.4491" ry="27.4491"/>
<text text-anchor="middle" x="85.0416" y="-186.3262" font-family="Times,serif" font-size="9.00" fill="#000000">10070</text>
</g>
<!-- 421&#45;&gt;10070 -->
<g id="edge21" class="edge">
<title>421&#45;&gt;10070</title>
<path fill="none" stroke="#00ff00" stroke-width=".9" d="M145.8119,-263.3032C135.5695,-250.7844 121.1128,-233.1145 108.8693,-218.1498"/>
<polygon fill="#00ff00" stroke="#00ff00" stroke-width=".9" points="111.3771,-215.6876 102.3359,-210.1642 105.9593,-220.1202 111.3771,-215.6876"/>
</g>
<!-- 422&#45;&gt;22676 -->
<g id="edge30" class="edge">
<title>422&#45;&gt;22676</title>
<path fill="none" stroke="#ff0000" stroke-width=".9" d="M210.6275,-172.0137C201.7625,-159.8651 189.5975,-143.194 179.0988,-128.8064"/>
<polygon fill="#ff0000" stroke="#ff0000" stroke-width=".9" points="181.8694,-126.6655 173.1475,-120.6506 176.2148,-130.7917 181.8694,-126.6655"/>
</g>
<!-- 422&#45;&gt;423 -->
<g id="edge7" class="edge">
<title>422&#45;&gt;423</title>
<path fill="none" stroke="#ff0000" stroke-width=".803" d="M223.0416,-168.0484C223.0416,-156.6328 223.0416,-142.2909 223.0416,-129.6069"/>
<polygon fill="#ff0000" stroke="#ff0000" stroke-width=".803" points="226.5417,-129.4429 223.0416,-119.4429 219.5417,-129.443 226.5417,-129.4429"/>
</g>
<!-- 422&#45;&gt;12781 -->
<g id="edge19" class="edge">
<title>422&#45;&gt;12781</title>
<path fill="none" stroke="#00ff00" stroke-width=".4059" d="M235.4557,-172.0137C244.3207,-159.8651 256.4857,-143.194 266.9844,-128.8064"/>
<polygon fill="#00ff00" stroke="#00ff00" stroke-width=".4059" points="269.8685,-130.7917 272.9358,-120.6506 264.2139,-126.6655 269.8685,-130.7917"/>
</g>
<!-- 423&#45;&gt;y0 -->
<g id="edge9" class="edge">
<title>423&#45;&gt;y0</title>
<path fill="none" stroke="#ff0000" stroke-width=".871" d="M236.3977,-82.2074C246.4418,-69.8956 260.3032,-52.9046 271.2812,-39.448"/>
<polygon fill="#ff0000" stroke="#ff0000" stroke-width=".871" points="274.0747,-41.5606 277.6841,-31.5995 268.6507,-37.1356 274.0747,-41.5606"/>
</g>
<!-- 6073&#45;&gt;10070 -->
<g id="edge18" class="edge">
<title>6073&#45;&gt;10070</title>
<path fill="none" stroke="#00ff00" stroke-width=".3607" d="M37.5795,-259.4002C45.2795,-247.9831 55.0944,-233.4301 63.7983,-220.5246"/>
<polygon fill="#00ff00" stroke="#00ff00" stroke-width=".3607" points="66.9171,-222.1597 69.6069,-211.9119 61.1136,-218.2456 66.9171,-222.1597"/>
</g>
<!-- 9668&#45;&gt;y0 -->
<g id="edge17" class="edge">
<title>9668&#45;&gt;y0</title>
<path fill="none" stroke="#00ff00" stroke-width=".2301" d="M342.3845,-80.2212C331.9471,-67.9835 318.1906,-51.8543 307.2619,-39.0406"/>
<polygon fill="#00ff00" stroke="#00ff00" stroke-width=".2301" points="309.7041,-36.5105 300.5518,-31.1732 304.3781,-41.053 309.7041,-36.5105"/>
</g>
<!-- 19784&#45;&gt;14494 -->
<g id="edge25" class="edge">
<title>19784&#45;&gt;14494</title>
<path fill="none" stroke="#00ff00" stroke-width=".4539" d="M362.4307,-251.8448C362.2543,-243.8671 362.0587,-235.0239 361.8714,-226.5521"/>
<polygon fill="#00ff00" stroke="#00ff00" stroke-width=".4539" points="365.3691,-226.4057 361.6488,-216.4856 358.3708,-226.5606 365.3691,-226.4057"/>
</g>
<!-- 36045&#45;&gt;28431 -->
<g id="edge38" class="edge">
<title>36045&#45;&gt;28431</title>
<path fill="none" stroke="#00ff00" stroke-width=".4537" d="M269.6484,-262.6269C264.9154,-259.0894 259.8703,-255.4603 255.0416,-252.2498 228.5074,-234.6077 219.5759,-233.8919 193.0416,-216.2498 190.9291,-214.8452 188.7751,-213.3605 186.624,-211.8384"/>
<polygon fill="#00ff00" stroke="#00ff00" stroke-width=".4537" points="188.5784,-208.9319 178.4348,-205.8726 184.4567,-214.5898 188.5784,-208.9319"/>
</g>
<!-- 36045&#45;&gt;14494 -->
<g id="edge40" class="edge">
<title>36045&#45;&gt;14494</title>
<path fill="none" stroke="#00ff00" stroke-width=".3763" d="M307.9867,-257.5786C317.0148,-245.9133 328.2501,-231.3962 338.0542,-218.7283"/>
<polygon fill="#00ff00" stroke="#00ff00" stroke-width=".3763" points="340.9,-220.7697 344.2526,-210.7193 335.3643,-216.4854 340.9,-220.7697"/>
</g>
<!-- 53969&#45;&gt;14494 -->
<g id="edge42" class="edge">
<title>53969&#45;&gt;14494</title>
<path fill="none" stroke="#ff0000" stroke-width=".1" d="M479.2148,-262.413C474.5973,-258.9614 469.7081,-255.4207 465.0416,-252.2498 441.7487,-236.4219 414.5209,-219.9384 393.7687,-207.7719"/>
<polygon fill="#ff0000" stroke="#ff0000" stroke-width=".1" points="395.4172,-204.6816 385.015,-202.6703 391.8925,-210.7295 395.4172,-204.6816"/>
</g>
<!-- 10070&#45;&gt;22676 -->
<g id="edge27" class="edge">
<title>10070&#45;&gt;22676</title>
<path fill="none" stroke="#ff0000" stroke-width=".2677" d="M102.1046,-167.5914C111.4514,-155.8499 123.1791,-141.1174 133.396,-128.2828"/>
<polygon fill="#ff0000" stroke="#ff0000" stroke-width=".2677" points="136.3618,-130.1769 139.8516,-120.1733 130.8852,-125.8172 136.3618,-130.1769"/>
</g>
<!-- 4962&#45;&gt;14494 -->
<g id="edge43" class="edge">
<title>4962&#45;&gt;14494</title>
<path fill="none" stroke="#00ff00" stroke-width=".373" d="M240.5006,-263.4164C245.1404,-259.6139 250.1845,-255.672 255.0416,-252.2498 278.5397,-235.6937 306.5179,-219.1281 327.8286,-207.1092"/>
<polygon fill="#00ff00" stroke="#00ff00" stroke-width=".373" points="329.7933,-210.0207 336.8152,-202.0869 326.3784,-203.9102 329.7933,-210.0207"/>
</g>
<!-- 4962&#45;&gt;422 -->
<g id="edge13" class="edge">
<title>4962&#45;&gt;422</title>
<path fill="none" stroke="#ff0000" stroke-width=".5928" d="M222.3096,-255.2352C222.4292,-244.4182 222.5716,-231.543 222.6988,-220.0349"/>
<polygon fill="#ff0000" stroke="#ff0000" stroke-width=".5928" points="226.1994,-219.9869 222.8103,-209.9488 219.1999,-219.9095 226.1994,-219.9869"/>
</g>
<!-- 12781&#45;&gt;y0 -->
<g id="edge20" class="edge">
<title>12781&#45;&gt;y0</title>
<path fill="none" stroke="#00ff00" stroke-width=".4461" d="M289.0416,-71.1895C289.0416,-63.0299 289.0416,-54.0761 289.0416,-45.8665"/>
<polygon fill="#00ff00" stroke="#00ff00" stroke-width=".4461" points="292.5417,-45.6323 289.0416,-35.6323 285.5417,-45.6323 292.5417,-45.6323"/>
</g>
<!-- 56827&#45;&gt;28431 -->
<g id="edge45" class="edge">
<title>56827&#45;&gt;28431</title>
<path fill="none" stroke="#ff0000" stroke-width=".1" d="M108.8619,-257.1156C116.862,-245.8096 126.693,-231.9161 135.3837,-219.634"/>
<polygon fill="#ff0000" stroke="#ff0000" stroke-width=".1" points="138.2625,-221.625 141.1816,-211.4402 132.5483,-217.5816 138.2625,-221.625"/>
</g>
</g>
</svg>
