<?xml version="1.0" encoding="UTF-8" standalone="no"?>
<!DOCTYPE svg PUBLIC "-//W3C//DTD SVG 1.1//EN"
 "http://www.w3.org/Graphics/SVG/1.1/DTD/svg11.dtd">
<!-- Generated by graphviz version 2.40.1 (20161225.0304)
 -->
<!-- Title: %3 Pages: 1 -->
<svg width="422pt" height="399pt"
 viewBox="0.00 0.00 422.00 399.42" xmlns="http://www.w3.org/2000/svg" xmlns:xlink="http://www.w3.org/1999/xlink">
<g id="graph0" class="graph" transform="scale(1 1) rotate(0) translate(4 395.4249)">
<title>%3</title>
<polygon fill="#ffffff" stroke="transparent" points="-4,4 -4,-395.4249 418,-395.4249 418,4 -4,4"/>
<!-- x0 -->
<g id="node1" class="node">
<title>x0</title>
<polygon fill="#d3d3d3" stroke="#000000" points="414,-391.4249 378,-391.4249 378,-355.4249 414,-355.4249 414,-391.4249"/>
<text text-anchor="middle" x="396" y="-370.7249" font-family="Times,serif" font-size="9.00" fill="#000000">x0</text>
</g>
<!-- 98873 -->
<g id="node17" class="node">
<title>98873</title>
<ellipse fill="#ffffff" stroke="#000000" cx="342" cy="-289.0193" rx="27.4491" ry="27.4491"/>
<text text-anchor="middle" x="342" y="-286.3193" font-family="Times,serif" font-size="9.00" fill="#000000">98873</text>
</g>
<!-- x0&#45;&gt;98873 -->
<g id="edge14" class="edge">
<title>x0&#45;&gt;98873</title>
<path fill="none" stroke="#ff0000" stroke-width=".2739" d="M384.2828,-355.1102C377.856,-345.0647 369.7067,-332.3267 362.2813,-320.7204"/>
<polygon fill="#ff0000" stroke="#ff0000" stroke-width=".2739" points="365.1222,-318.6663 356.7847,-312.1289 359.2257,-322.4387 365.1222,-318.6663"/>
</g>
<!-- x1 -->
<g id="node2" class="node">
<title>x1</title>
<polygon fill="#d3d3d3" stroke="#000000" points="360,-391.4249 324,-391.4249 324,-355.4249 360,-355.4249 360,-391.4249"/>
<text text-anchor="middle" x="342" y="-370.7249" font-family="Times,serif" font-size="9.00" fill="#000000">x1</text>
</g>
<!-- x1&#45;&gt;98873 -->
<g id="edge10" class="edge">
<title>x1&#45;&gt;98873</title>
<path fill="none" stroke="#00ff00" stroke-width=".3147" d="M342,-355.1102C342,-346.6897 342,-336.3774 342,-326.4255"/>
<polygon fill="#00ff00" stroke="#00ff00" stroke-width=".3147" points="345.5001,-326.2795 342,-316.2795 338.5001,-326.2796 345.5001,-326.2795"/>
</g>
<!-- 138716 -->
<g id="node18" class="node">
<title>138716</title>
<ellipse fill="#ffffff" stroke="#000000" cx="266" cy="-289.0193" rx="30.3115" ry="30.3115"/>
<text text-anchor="middle" x="266" y="-286.3193" font-family="Times,serif" font-size="9.00" fill="#000000">138716</text>
</g>
<!-- x1&#45;&gt;138716 -->
<g id="edge22" class="edge">
<title>x1&#45;&gt;138716</title>
<path fill="none" stroke="#00ff00" stroke-width=".5321" d="M325.5091,-355.1102C316.1264,-344.6897 304.1349,-331.372 293.3782,-319.4255"/>
<polygon fill="#00ff00" stroke="#00ff00" stroke-width=".5321" points="295.82,-316.9067 286.5276,-311.8173 290.6179,-321.5907 295.82,-316.9067"/>
</g>
<!-- x2 -->
<g id="node3" class="node">
<title>x2</title>
<polygon fill="#d3d3d3" stroke="#000000" points="252,-391.4249 216,-391.4249 216,-355.4249 252,-355.4249 252,-391.4249"/>
<text text-anchor="middle" x="234" y="-370.7249" font-family="Times,serif" font-size="9.00" fill="#000000">x2</text>
</g>
<!-- 120312 -->
<g id="node12" class="node">
<title>120312</title>
<ellipse fill="#ffffff" stroke="#000000" cx="187" cy="-289.0193" rx="30.3115" ry="30.3115"/>
<text text-anchor="middle" x="187" y="-286.3193" font-family="Times,serif" font-size="9.00" fill="#000000">120312</text>
</g>
<!-- x2&#45;&gt;120312 -->
<g id="edge23" class="edge">
<title>x2&#45;&gt;120312</title>
<path fill="none" stroke="#ff0000" stroke-width=".3627" d="M223.8017,-355.1102C218.8319,-346.1851 212.6787,-335.1348 206.8354,-324.641"/>
<polygon fill="#ff0000" stroke="#ff0000" stroke-width=".3627" points="209.7406,-322.6639 201.8177,-315.6298 203.6248,-326.0694 209.7406,-322.6639"/>
</g>
<!-- 68202 -->
<g id="node13" class="node">
<title>68202</title>
<ellipse fill="#ffffff" stroke="#000000" cx="111" cy="-289.0193" rx="27.4491" ry="27.4491"/>
<text text-anchor="middle" x="111" y="-286.3193" font-family="Times,serif" font-size="9.00" fill="#000000">68202</text>
</g>
<!-- x2&#45;&gt;68202 -->
<g id="edge8" class="edge">
<title>x2&#45;&gt;68202</title>
<path fill="none" stroke="#ff0000" stroke-width=".4198" d="M215.7653,-361.1251C212.8465,-359.1978 209.8496,-357.2431 207,-355.4249 181.1041,-338.9019 173.0388,-337.22 148,-319.4249 145.2892,-317.4983 142.5221,-315.4315 139.7827,-313.3152"/>
<polygon fill="#ff0000" stroke="#ff0000" stroke-width=".4198" points="141.7352,-310.3961 131.7307,-306.9091 137.3771,-315.874 141.7352,-310.3961"/>
</g>
<!-- x2&#45;&gt;98873 -->
<g id="edge29" class="edge">
<title>x2&#45;&gt;98873</title>
<path fill="none" stroke="#ff0000" stroke-width=".1328" d="M252.2374,-359.8504C266.6652,-349.0405 287.2643,-333.4488 305,-319.4249 307.6087,-317.3622 310.3056,-315.2017 312.9993,-313.0244"/>
<polygon fill="#ff0000" stroke="#ff0000" stroke-width=".1328" points="315.4374,-315.5526 320.9798,-306.523 311.0162,-310.1255 315.4374,-315.5526"/>
</g>
<!-- x3 -->
<g id="node4" class="node">
<title>x3</title>
<polygon fill="#d3d3d3" stroke="#000000" points="306,-391.4249 270,-391.4249 270,-355.4249 306,-355.4249 306,-391.4249"/>
<text text-anchor="middle" x="288" y="-370.7249" font-family="Times,serif" font-size="9.00" fill="#000000">x3</text>
</g>
<!-- x3&#45;&gt;120312 -->
<g id="edge16" class="edge">
<title>x3&#45;&gt;120312</title>
<path fill="none" stroke="#00ff00" stroke-width=".1202" d="M269.9432,-358.3349C255.7049,-346.4359 235.4995,-329.5503 218.5963,-315.4244"/>
<polygon fill="#00ff00" stroke="#00ff00" stroke-width=".1202" points="220.522,-312.4724 210.6043,-308.7454 216.0332,-317.8437 220.522,-312.4724"/>
</g>
<!-- x3&#45;&gt;98873 -->
<g id="edge15" class="edge">
<title>x3&#45;&gt;98873</title>
<path fill="none" stroke="#ff0000" stroke-width=".3392" d="M299.7172,-355.1102C306.144,-345.0647 314.2933,-332.3267 321.7187,-320.7204"/>
<polygon fill="#ff0000" stroke="#ff0000" stroke-width=".3392" points="324.7743,-322.4387 327.2153,-312.1289 318.8778,-318.6663 324.7743,-322.4387"/>
</g>
<!-- x3&#45;&gt;138716 -->
<g id="edge20" class="edge">
<title>x3&#45;&gt;138716</title>
<path fill="none" stroke="#00ff00" stroke-width=".2076" d="M283.2263,-355.1102C281.1846,-347.2768 278.7161,-337.8062 276.2935,-328.5117"/>
<polygon fill="#00ff00" stroke="#00ff00" stroke-width=".2076" points="279.6143,-327.375 273.7052,-318.5811 272.8406,-329.1406 279.6143,-327.375"/>
</g>
<!-- x4 -->
<g id="node5" class="node">
<title>x4</title>
<polygon fill="#d3d3d3" stroke="#000000" points="144,-391.4249 108,-391.4249 108,-355.4249 144,-355.4249 144,-391.4249"/>
<text text-anchor="middle" x="126" y="-370.7249" font-family="Times,serif" font-size="9.00" fill="#000000">x4</text>
</g>
<!-- x4&#45;&gt;68202 -->
<g id="edge3" class="edge">
<title>x4&#45;&gt;68202</title>
<path fill="none" stroke="#00ff00" stroke-width=".2248" d="M122.7452,-355.1102C121.2201,-346.5283 119.3458,-335.9814 117.546,-325.8538"/>
<polygon fill="#00ff00" stroke="#00ff00" stroke-width=".2248" points="120.9825,-325.1875 115.7867,-315.9542 114.0905,-326.4124 120.9825,-325.1875"/>
</g>
<!-- x4&#45;&gt;138716 -->
<g id="edge17" class="edge">
<title>x4&#45;&gt;138716</title>
<path fill="none" stroke="#ff0000" stroke-width=".1967" d="M144.0964,-360.8972C147.033,-358.9993 150.0718,-357.1135 153,-355.4249 184.338,-337.3537 195.2367,-338.4582 226,-319.4249 228.587,-317.8243 231.2115,-316.0955 233.8153,-314.3032"/>
<polygon fill="#ff0000" stroke="#ff0000" stroke-width=".1967" points="235.903,-317.113 241.9899,-308.4412 231.8237,-311.4245 235.903,-317.113"/>
</g>
<!-- x5 -->
<g id="node6" class="node">
<title>x5</title>
<polygon fill="#d3d3d3" stroke="#000000" points="90,-391.4249 54,-391.4249 54,-355.4249 90,-355.4249 90,-391.4249"/>
<text text-anchor="middle" x="72" y="-370.7249" font-family="Times,serif" font-size="9.00" fill="#000000">x5</text>
</g>
<!-- x5&#45;&gt;120312 -->
<g id="edge18" class="edge">
<title>x5&#45;&gt;120312</title>
<path fill="none" stroke="#ff0000" stroke-width=".2708" d="M90.2821,-360.462C105.5277,-349.6043 127.7817,-333.6441 147,-319.4249 149.3667,-317.6739 151.8045,-315.8561 154.2537,-314.0195"/>
<polygon fill="#ff0000" stroke="#ff0000" stroke-width=".2708" points="156.6602,-316.5885 162.5372,-307.7731 152.4455,-310.9995 156.6602,-316.5885"/>
</g>
<!-- x5&#45;&gt;68202 -->
<g id="edge9" class="edge">
<title>x5&#45;&gt;68202</title>
<path fill="none" stroke="#ff0000" stroke-width=".2687" d="M80.4624,-355.1102C84.7595,-345.8101 90.1229,-334.2024 95.1506,-323.3214"/>
<polygon fill="#ff0000" stroke="#ff0000" stroke-width=".2687" points="98.4299,-324.5685 99.4471,-314.0226 92.0754,-321.6323 98.4299,-324.5685"/>
</g>
<!-- x6 -->
<g id="node7" class="node">
<title>x6</title>
<polygon fill="#d3d3d3" stroke="#000000" points="36,-391.4249 0,-391.4249 0,-355.4249 36,-355.4249 36,-391.4249"/>
<text text-anchor="middle" x="18" y="-370.7249" font-family="Times,serif" font-size="9.00" fill="#000000">x6</text>
</g>
<!-- x6&#45;&gt;68202 -->
<g id="edge6" class="edge">
<title>x6&#45;&gt;68202</title>
<path fill="none" stroke="#00ff00" stroke-width=".223" d="M36.3738,-356.7491C49.7169,-344.6391 68.0092,-328.0372 83.1436,-314.3014"/>
<polygon fill="#00ff00" stroke="#00ff00" stroke-width=".223" points="85.6745,-316.7311 90.7272,-307.4187 80.97,-311.5476 85.6745,-316.7311"/>
</g>
<!-- x7 -->
<g id="node8" class="node">
<title>x7</title>
<polygon fill="#d3d3d3" stroke="#000000" points="198,-391.4249 162,-391.4249 162,-355.4249 198,-355.4249 198,-391.4249"/>
<text text-anchor="middle" x="180" y="-370.7249" font-family="Times,serif" font-size="9.00" fill="#000000">x7</text>
</g>
<!-- x7&#45;&gt;120312 -->
<g id="edge21" class="edge">
<title>x7&#45;&gt;120312</title>
<path fill="none" stroke="#ff0000" stroke-width=".2516" d="M181.5189,-355.1102C182.1441,-347.5715 182.8951,-338.5165 183.6377,-329.5614"/>
<polygon fill="#ff0000" stroke="#ff0000" stroke-width=".2516" points="187.127,-329.8344 184.4656,-319.5793 180.151,-329.2558 187.127,-329.8344"/>
</g>
<!-- x7&#45;&gt;68202 -->
<g id="edge1" class="edge">
<title>x7&#45;&gt;68202</title>
<path fill="none" stroke="#ff0000" stroke-width=".2728" d="M165.028,-355.1102C156.1843,-344.2919 144.788,-330.3511 134.7433,-318.0638"/>
<polygon fill="#ff0000" stroke="#ff0000" stroke-width=".2728" points="137.4172,-315.8046 128.3782,-310.2776 131.9976,-320.235 137.4172,-315.8046"/>
</g>
<!-- x7&#45;&gt;98873 -->
<g id="edge28" class="edge">
<title>x7&#45;&gt;98873</title>
<path fill="none" stroke="#00ff00" stroke-width=".1185" d="M198.2422,-360.4339C201.1077,-358.6381 204.0868,-356.9048 207,-355.4249 248.3695,-334.4094 264.7311,-342.4793 305,-319.4249 307.8862,-317.7726 310.7738,-315.8942 313.5918,-313.9009"/>
<polygon fill="#00ff00" stroke="#00ff00" stroke-width=".1185" points="315.9236,-316.5248 321.7666,-307.6868 311.6875,-310.9521 315.9236,-316.5248"/>
</g>
<!-- y0 -->
<g id="node9" class="node">
<title>y0</title>
<ellipse fill="#add8e6" stroke="#000000" cx="303" cy="-17.6777" rx="17.8571" ry="17.8571"/>
<text text-anchor="middle" x="303" y="-14.9777" font-family="Times,serif" font-size="9.00" fill="#000000">y0</text>
</g>
<!-- 67910 -->
<g id="node10" class="node">
<title>67910</title>
<ellipse fill="#ffffff" stroke="#000000" cx="267" cy="-192.2082" rx="27.4491" ry="27.4491"/>
<text text-anchor="middle" x="267" y="-189.5082" font-family="Times,serif" font-size="9.00" fill="#000000">67910</text>
</g>
<!-- 72082 -->
<g id="node14" class="node">
<title>72082</title>
<ellipse fill="#ffffff" stroke="#000000" cx="267" cy="-98.579" rx="27.4491" ry="27.4491"/>
<text text-anchor="middle" x="267" y="-95.879" font-family="Times,serif" font-size="9.00" fill="#000000">72082</text>
</g>
<!-- 67910&#45;&gt;72082 -->
<g id="edge4" class="edge">
<title>67910&#45;&gt;72082</title>
<path fill="none" stroke="#ff0000" stroke-width=".9" d="M267,-164.875C267,-155.9166 267,-145.7998 267,-136.2169"/>
<polygon fill="#ff0000" stroke="#ff0000" stroke-width=".9" points="270.5001,-136.1081 267,-126.1082 263.5001,-136.1082 270.5001,-136.1081"/>
</g>
<!-- 140008 -->
<g id="node11" class="node">
<title>140008</title>
<ellipse fill="#ffffff" stroke="#000000" cx="191" cy="-192.2082" rx="30.3115" ry="30.3115"/>
<text text-anchor="middle" x="191" y="-189.5082" font-family="Times,serif" font-size="9.00" fill="#000000">140008</text>
</g>
<!-- 140008&#45;&gt;72082 -->
<g id="edge27" class="edge">
<title>140008&#45;&gt;72082</title>
<path fill="none" stroke="#ff0000" stroke-width=".8419" d="M210.178,-168.5816C220.2287,-156.1995 232.6295,-140.9221 243.2794,-127.8019"/>
<polygon fill="#ff0000" stroke="#ff0000" stroke-width=".8419" points="246.0626,-129.9266 249.6474,-119.9567 240.6277,-125.515 246.0626,-129.9266"/>
</g>
<!-- 120312&#45;&gt;140008 -->
<g id="edge25" class="edge">
<title>120312&#45;&gt;140008</title>
<path fill="none" stroke="#ff0000" stroke-width=".3109" d="M188.2656,-258.3877C188.6008,-250.2748 188.968,-241.3884 189.3214,-232.8347"/>
<polygon fill="#ff0000" stroke="#ff0000" stroke-width=".3109" points="192.8267,-232.7765 189.7426,-222.6405 185.8327,-232.4875 192.8267,-232.7765"/>
</g>
<!-- 68202&#45;&gt;67910 -->
<g id="edge2" class="edge">
<title>68202&#45;&gt;67910</title>
<path fill="none" stroke="#ff0000" stroke-width=".8749" d="M131.3817,-270.6019C136.5935,-266.3695 142.3322,-262.0948 148,-258.6137 181.9159,-237.7832 196.0841,-243.4443 230,-222.6137 232.8339,-220.8732 235.6855,-218.9343 238.4802,-216.9014"/>
<polygon fill="#ff0000" stroke="#ff0000" stroke-width=".8749" points="240.8368,-219.5039 246.6183,-210.6256 236.5621,-213.9607 240.8368,-219.5039"/>
</g>
<!-- 68202&#45;&gt;140008 -->
<g id="edge19" class="edge">
<title>68202&#45;&gt;140008</title>
<path fill="none" stroke="#00ff00" stroke-width=".1902" d="M128.3588,-268.0128C139.0604,-255.0623 152.986,-238.2104 164.9888,-223.6853"/>
<polygon fill="#00ff00" stroke="#00ff00" stroke-width=".1902" points="167.7546,-225.8329 171.4266,-215.8947 162.3585,-221.3738 167.7546,-225.8329"/>
</g>
<!-- 72082&#45;&gt;y0 -->
<g id="edge5" class="edge">
<title>72082&#45;&gt;y0</title>
<path fill="none" stroke="#ff0000" stroke-width=".9" d="M278.1933,-73.4247C282.4213,-63.9232 287.237,-53.1012 291.4933,-43.5362"/>
<polygon fill="#ff0000" stroke="#ff0000" stroke-width=".9" points="294.8104,-44.6908 295.6783,-34.1315 288.415,-41.8448 294.8104,-44.6908"/>
</g>
<!-- 82965 -->
<g id="node15" class="node">
<title>82965</title>
<ellipse fill="#ffffff" stroke="#000000" cx="340" cy="-98.579" rx="27.4491" ry="27.4491"/>
<text text-anchor="middle" x="340" y="-95.879" font-family="Times,serif" font-size="9.00" fill="#000000">82965</text>
</g>
<!-- 82965&#45;&gt;y0 -->
<g id="edge7" class="edge">
<title>82965&#45;&gt;y0</title>
<path fill="none" stroke="#00ff00" stroke-width=".4831" d="M328.4958,-73.4247C324.1045,-63.8232 319.0966,-52.8732 314.6884,-43.2346"/>
<polygon fill="#00ff00" stroke="#00ff00" stroke-width=".4831" points="317.8672,-41.7698 310.5251,-34.1315 311.5014,-44.6813 317.8672,-41.7698"/>
</g>
<!-- 115224 -->
<g id="node16" class="node">
<title>115224</title>
<ellipse fill="#ffffff" stroke="#000000" cx="342" cy="-192.2082" rx="30.3461" ry="30.3461"/>
<text text-anchor="middle" x="342" y="-189.5082" font-family="Times,serif" font-size="9.00" fill="#000000">115224</text>
</g>
<!-- 115224&#45;&gt;82965 -->
<g id="edge13" class="edge">
<title>115224&#45;&gt;82965</title>
<path fill="none" stroke="#00ff00" stroke-width=".3243" d="M341.3507,-161.8094C341.1755,-153.6097 340.9839,-144.6406 340.8015,-136.1014"/>
<polygon fill="#00ff00" stroke="#00ff00" stroke-width=".3243" points="344.2981,-135.902 340.5853,-125.979 337.2997,-136.0515 344.2981,-135.902"/>
</g>
<!-- 98873&#45;&gt;67910 -->
<g id="edge11" class="edge">
<title>98873&#45;&gt;67910</title>
<path fill="none" stroke="#ff0000" stroke-width=".373" d="M324.9813,-267.0514C314.6486,-253.7137 301.3233,-236.5132 290.053,-221.9654"/>
<polygon fill="#ff0000" stroke="#ff0000" stroke-width=".373" points="292.5841,-219.5175 283.693,-213.7557 287.0504,-223.8045 292.5841,-219.5175"/>
</g>
<!-- 98873&#45;&gt;140008 -->
<g id="edge26" class="edge">
<title>98873&#45;&gt;140008</title>
<path fill="none" stroke="#ff0000" stroke-width=".7424" d="M321.5203,-270.758C316.3115,-266.5209 310.5987,-262.2049 305,-258.6137 274.2145,-238.867 262.1543,-241.7733 231,-222.6137 228.4087,-221.0201 225.781,-219.2964 223.1751,-217.5076"/>
<polygon fill="#ff0000" stroke="#ff0000" stroke-width=".7424" points="225.1649,-214.6277 214.9964,-211.6522 221.09,-220.3194 225.1649,-214.6277"/>
</g>
<!-- 98873&#45;&gt;115224 -->
<g id="edge12" class="edge">
<title>98873&#45;&gt;115224</title>
<path fill="none" stroke="#ff0000" stroke-width=".2341" d="M342,-261.7944C342,-252.7457 342,-242.4669 342,-232.6391"/>
<polygon fill="#ff0000" stroke="#ff0000" stroke-width=".2341" points="345.5001,-232.6312 342,-222.6312 338.5001,-232.6312 345.5001,-232.6312"/>
</g>
<!-- 138716&#45;&gt;140008 -->
<g id="edge24" class="edge">
<title>138716&#45;&gt;140008</title>
<path fill="none" stroke="#00ff00" stroke-width=".1102" d="M247.0743,-264.5898C237.5871,-252.3436 225.978,-237.3583 215.7888,-224.206"/>
<polygon fill="#00ff00" stroke="#00ff00" stroke-width=".1102" points="218.551,-222.0563 209.6598,-216.2945 213.0172,-226.3433 218.551,-222.0563"/>
</g>
</g>
</svg>
