<?xml version="1.0" encoding="UTF-8" standalone="no"?>
<!DOCTYPE svg PUBLIC "-//W3C//DTD SVG 1.1//EN"
 "http://www.w3.org/Graphics/SVG/1.1/DTD/svg11.dtd">
<!-- Generated by graphviz version 2.40.1 (20161225.0304)
 -->
<!-- Title: %3 Pages: 1 -->
<svg width="552pt" height="387pt"
 viewBox="0.00 0.00 552.45 386.70" xmlns="http://www.w3.org/2000/svg" xmlns:xlink="http://www.w3.org/1999/xlink">
<g id="graph0" class="graph" transform="scale(1 1) rotate(0) translate(4 382.697)">
<title>%3</title>
<polygon fill="#ffffff" stroke="transparent" points="-4,4 -4,-382.697 548.4472,-382.697 548.4472,4 -4,4"/>
<!-- x0 -->
<g id="node1" class="node">
<title>x0</title>
<polygon fill="#d3d3d3" stroke="#000000" points="340.2236,-378.697 304.2236,-378.697 304.2236,-342.697 340.2236,-342.697 340.2236,-378.697"/>
<text text-anchor="middle" x="322.2236" y="-357.997" font-family="Times,serif" font-size="9.00" fill="#000000">x0</text>
</g>
<!-- 310 -->
<g id="node17" class="node">
<title>310</title>
<ellipse fill="#ffffff" stroke="#000000" cx="382.2236" cy="-279.4734" rx="20.7202" ry="20.7202"/>
<text text-anchor="middle" x="382.2236" y="-276.7734" font-family="Times,serif" font-size="9.00" fill="#000000">310</text>
</g>
<!-- x0&#45;&gt;310 -->
<g id="edge2" class="edge">
<title>x0&#45;&gt;310</title>
<path fill="none" stroke="#00ff00" stroke-width=".2624" d="M335.5396,-342.6709C343.8427,-331.4307 354.6459,-316.8061 363.7685,-304.4566"/>
<polygon fill="#00ff00" stroke="#00ff00" stroke-width=".2624" points="366.6377,-306.463 369.7643,-296.34 361.0073,-302.3038 366.6377,-306.463"/>
</g>
<!-- x1 -->
<g id="node2" class="node">
<title>x1</title>
<polygon fill="#d3d3d3" stroke="#000000" points="448.2236,-378.697 412.2236,-378.697 412.2236,-342.697 448.2236,-342.697 448.2236,-378.697"/>
<text text-anchor="middle" x="430.2236" y="-357.997" font-family="Times,serif" font-size="9.00" fill="#000000">x1</text>
</g>
<!-- x1&#45;&gt;310 -->
<g id="edge4" class="edge">
<title>x1&#45;&gt;310</title>
<path fill="none" stroke="#ff0000" stroke-width=".1869" d="M419.5709,-342.6709C413.2322,-331.9448 405.0722,-318.1368 397.9972,-306.1648"/>
<polygon fill="#ff0000" stroke="#ff0000" stroke-width=".1869" points="400.9474,-304.2776 392.8466,-297.4492 394.9211,-307.8389 400.9474,-304.2776"/>
</g>
<!-- x2 -->
<g id="node3" class="node">
<title>x2</title>
<polygon fill="#d3d3d3" stroke="#000000" points="67.2236,-378.697 31.2236,-378.697 31.2236,-342.697 67.2236,-342.697 67.2236,-378.697"/>
<text text-anchor="middle" x="49.2236" y="-357.997" font-family="Times,serif" font-size="9.00" fill="#000000">x2</text>
</g>
<!-- x2&#45;&gt;310 -->
<g id="edge1" class="edge">
<title>x2&#45;&gt;310</title>
<path fill="none" stroke="#00ff00" stroke-width=".2583" d="M67.4224,-350.1425C72.9797,-347.3229 79.2134,-344.5485 85.2236,-342.697 199.6572,-307.4445 243.6583,-357.208 352.2236,-306.697 355.0652,-305.3749 357.8266,-303.6882 360.4496,-301.8038"/>
<polygon fill="#00ff00" stroke="#00ff00" stroke-width=".2583" points="362.8151,-304.3892 368.2853,-295.3157 358.3508,-298.9976 362.8151,-304.3892"/>
</g>
<!-- 27863 -->
<g id="node25" class="node">
<title>27863</title>
<ellipse fill="#ffffff" stroke="#000000" cx="40.2236" cy="-279.4734" rx="27.4491" ry="27.4491"/>
<text text-anchor="middle" x="40.2236" y="-276.7734" font-family="Times,serif" font-size="9.00" fill="#000000">27863</text>
</g>
<!-- x2&#45;&gt;27863 -->
<g id="edge48" class="edge">
<title>x2&#45;&gt;27863</title>
<path fill="none" stroke="#ff0000" stroke-width=".231" d="M47.2262,-342.6709C46.3759,-334.9966 45.3507,-325.7446 44.3503,-316.7162"/>
<polygon fill="#ff0000" stroke="#ff0000" stroke-width=".231" points="47.8221,-316.2675 43.242,-306.7138 40.8647,-317.0385 47.8221,-316.2675"/>
</g>
<!-- x3 -->
<g id="node4" class="node">
<title>x3</title>
<polygon fill="#d3d3d3" stroke="#000000" points="394.2236,-378.697 358.2236,-378.697 358.2236,-342.697 394.2236,-342.697 394.2236,-378.697"/>
<text text-anchor="middle" x="376.2236" y="-357.997" font-family="Times,serif" font-size="9.00" fill="#000000">x3</text>
</g>
<!-- x3&#45;&gt;310 -->
<g id="edge5" class="edge">
<title>x3&#45;&gt;310</title>
<path fill="none" stroke="#ff0000" stroke-width=".1759" d="M377.5552,-342.6709C378.2564,-333.1789 379.1358,-321.2735 379.9418,-310.3627"/>
<polygon fill="#ff0000" stroke="#ff0000" stroke-width=".1759" points="383.4375,-310.5487 380.6838,-300.318 376.4565,-310.0329 383.4375,-310.5487"/>
</g>
<!-- 1610 -->
<g id="node23" class="node">
<title>1610</title>
<ellipse fill="#ffffff" stroke="#000000" cx="319.2236" cy="-279.4734" rx="24.0833" ry="24.0833"/>
<text text-anchor="middle" x="319.2236" y="-276.7734" font-family="Times,serif" font-size="9.00" fill="#000000">1610</text>
</g>
<!-- x3&#45;&gt;1610 -->
<g id="edge7" class="edge">
<title>x3&#45;&gt;1610</title>
<path fill="none" stroke="#00ff00" stroke-width=".2108" d="M363.5735,-342.6709C356.3599,-332.3917 347.16,-319.2821 339.0114,-307.6705"/>
<polygon fill="#00ff00" stroke="#00ff00" stroke-width=".2108" points="341.6447,-305.3298 333.0354,-299.1548 335.9148,-309.3509 341.6447,-305.3298"/>
</g>
<!-- 5882 -->
<g id="node31" class="node">
<title>5882</title>
<ellipse fill="#ffffff" stroke="#000000" cx="517.2236" cy="-279.4734" rx="24.0833" ry="24.0833"/>
<text text-anchor="middle" x="517.2236" y="-276.7734" font-family="Times,serif" font-size="9.00" fill="#000000">5882</text>
</g>
<!-- x3&#45;&gt;5882 -->
<g id="edge31" class="edge">
<title>x3&#45;&gt;5882</title>
<path fill="none" stroke="#00ff00" stroke-width=".157" d="M394.2617,-348.0659C397.2059,-346.1814 400.2623,-344.3268 403.2236,-342.697 437.7374,-323.7023 450.7207,-327.4227 484.2236,-306.697 486.4895,-305.2953 488.7685,-303.7517 491.0122,-302.1337"/>
<polygon fill="#00ff00" stroke="#00ff00" stroke-width=".157" points="493.613,-304.5476 499.3901,-295.6664 489.3355,-299.0066 493.613,-304.5476"/>
</g>
<!-- x4 -->
<g id="node5" class="node">
<title>x4</title>
<polygon fill="#d3d3d3" stroke="#000000" points="276.2236,-378.697 240.2236,-378.697 240.2236,-342.697 276.2236,-342.697 276.2236,-378.697"/>
<text text-anchor="middle" x="258.2236" y="-357.997" font-family="Times,serif" font-size="9.00" fill="#000000">x4</text>
</g>
<!-- x4&#45;&gt;1610 -->
<g id="edge39" class="edge">
<title>x4&#45;&gt;1610</title>
<path fill="none" stroke="#00ff00" stroke-width=".9" d="M271.7615,-342.6709C279.6134,-332.2157 289.6645,-318.8324 298.4941,-307.0755"/>
<polygon fill="#00ff00" stroke="#00ff00" stroke-width=".9" points="301.452,-308.9651 304.6586,-298.8672 295.8548,-304.7615 301.452,-308.9651"/>
</g>
<!-- 7289 -->
<g id="node30" class="node">
<title>7289</title>
<ellipse fill="#ffffff" stroke="#000000" cx="253.2236" cy="-279.4734" rx="24.0833" ry="24.0833"/>
<text text-anchor="middle" x="253.2236" y="-276.7734" font-family="Times,serif" font-size="9.00" fill="#000000">7289</text>
</g>
<!-- x4&#45;&gt;7289 -->
<g id="edge25" class="edge">
<title>x4&#45;&gt;7289</title>
<path fill="none" stroke="#00ff00" stroke-width=".6065" d="M257.1139,-342.6709C256.5887,-334.1378 255.9433,-323.6541 255.3303,-313.6961"/>
<polygon fill="#00ff00" stroke="#00ff00" stroke-width=".6065" points="258.8175,-313.379 254.7096,-303.6129 251.8307,-313.8091 258.8175,-313.379"/>
</g>
<!-- x5 -->
<g id="node6" class="node">
<title>x5</title>
<polygon fill="#d3d3d3" stroke="#000000" points="502.2236,-378.697 466.2236,-378.697 466.2236,-342.697 502.2236,-342.697 502.2236,-378.697"/>
<text text-anchor="middle" x="484.2236" y="-357.997" font-family="Times,serif" font-size="9.00" fill="#000000">x5</text>
</g>
<!-- x5&#45;&gt;310 -->
<g id="edge3" class="edge">
<title>x5&#45;&gt;310</title>
<path fill="none" stroke="#00ff00" stroke-width=".321" d="M466.1136,-347.8351C451.3338,-337.1684 430.0556,-321.4207 412.2236,-306.697 409.9356,-304.8079 407.587,-302.802 405.2599,-300.7693"/>
<polygon fill="#00ff00" stroke="#00ff00" stroke-width=".321" points="407.3404,-297.9347 397.5501,-293.8849 402.678,-303.1561 407.3404,-297.9347"/>
</g>
<!-- 16832 -->
<g id="node21" class="node">
<title>16832</title>
<ellipse fill="#ffffff" stroke="#000000" cx="448.2236" cy="-279.4734" rx="27.4491" ry="27.4491"/>
<text text-anchor="middle" x="448.2236" y="-276.7734" font-family="Times,serif" font-size="9.00" fill="#000000">16832</text>
</g>
<!-- x5&#45;&gt;16832 -->
<g id="edge26" class="edge">
<title>x5&#45;&gt;16832</title>
<path fill="none" stroke="#00ff00" stroke-width=".4436" d="M476.234,-342.6709C472.4666,-334.1706 467.8412,-323.7349 463.4428,-313.8112"/>
<polygon fill="#00ff00" stroke="#00ff00" stroke-width=".4436" points="466.5827,-312.2577 459.3308,-304.5336 460.1831,-315.0941 466.5827,-312.2577"/>
</g>
<!-- x5&#45;&gt;5882 -->
<g id="edge18" class="edge">
<title>x5&#45;&gt;5882</title>
<path fill="none" stroke="#ff0000" stroke-width=".2028" d="M491.5474,-342.6709C495.2982,-333.4389 499.9766,-321.9238 504.3086,-311.2614"/>
<polygon fill="#ff0000" stroke="#ff0000" stroke-width=".2028" points="507.6315,-312.3811 508.153,-301.7991 501.1463,-309.7462 507.6315,-312.3811"/>
</g>
<!-- x6 -->
<g id="node7" class="node">
<title>x6</title>
<polygon fill="#d3d3d3" stroke="#000000" points="209.2236,-378.697 173.2236,-378.697 173.2236,-342.697 209.2236,-342.697 209.2236,-378.697"/>
<text text-anchor="middle" x="191.2236" y="-357.997" font-family="Times,serif" font-size="9.00" fill="#000000">x6</text>
</g>
<!-- 25332 -->
<g id="node29" class="node">
<title>25332</title>
<ellipse fill="#ffffff" stroke="#000000" cx="184.2236" cy="-279.4734" rx="27.4491" ry="27.4491"/>
<text text-anchor="middle" x="184.2236" y="-276.7734" font-family="Times,serif" font-size="9.00" fill="#000000">25332</text>
</g>
<!-- x6&#45;&gt;25332 -->
<g id="edge41" class="edge">
<title>x6&#45;&gt;25332</title>
<path fill="none" stroke="#ff0000" stroke-width=".2972" d="M189.6701,-342.6709C189.0087,-334.9966 188.2113,-325.7446 187.4333,-316.7162"/>
<polygon fill="#ff0000" stroke="#ff0000" stroke-width=".2972" points="190.917,-316.3764 186.5712,-306.7138 183.9429,-316.9775 190.917,-316.3764"/>
</g>
<!-- x6&#45;&gt;7289 -->
<g id="edge33" class="edge">
<title>x6&#45;&gt;7289</title>
<path fill="none" stroke="#00ff00" stroke-width=".5643" d="M204.9834,-342.6709C212.9641,-332.2157 223.1799,-318.8324 232.1543,-307.0755"/>
<polygon fill="#00ff00" stroke="#00ff00" stroke-width=".5643" points="235.1344,-308.9397 238.4199,-298.8672 229.5701,-304.6924 235.1344,-308.9397"/>
</g>
<!-- x7 -->
<g id="node8" class="node">
<title>x7</title>
<polygon fill="#d3d3d3" stroke="#000000" points="130.2236,-378.697 94.2236,-378.697 94.2236,-342.697 130.2236,-342.697 130.2236,-378.697"/>
<text text-anchor="middle" x="112.2236" y="-357.997" font-family="Times,serif" font-size="9.00" fill="#000000">x7</text>
</g>
<!-- 26014 -->
<g id="node12" class="node">
<title>26014</title>
<ellipse fill="#ffffff" stroke="#000000" cx="112.2236" cy="-279.4734" rx="27.4491" ry="27.4491"/>
<text text-anchor="middle" x="112.2236" y="-276.7734" font-family="Times,serif" font-size="9.00" fill="#000000">26014</text>
</g>
<!-- x7&#45;&gt;26014 -->
<g id="edge43" class="edge">
<title>x7&#45;&gt;26014</title>
<path fill="none" stroke="#00ff00" stroke-width=".1918" d="M112.2236,-342.6709C112.2236,-334.9966 112.2236,-325.7446 112.2236,-316.7162"/>
<polygon fill="#00ff00" stroke="#00ff00" stroke-width=".1918" points="115.7237,-316.7138 112.2236,-306.7138 108.7237,-316.7139 115.7237,-316.7138"/>
</g>
<!-- y0 -->
<g id="node9" class="node">
<title>y0</title>
<ellipse fill="#add8e6" stroke="#000000" cx="274.2236" cy="-17.6777" rx="17.8571" ry="17.8571"/>
<text text-anchor="middle" x="274.2236" y="-14.9777" font-family="Times,serif" font-size="9.00" fill="#000000">y0</text>
</g>
<!-- 19718 -->
<g id="node10" class="node">
<title>19718</title>
<ellipse fill="#ffffff" stroke="#000000" cx="171.2236" cy="-98.579" rx="27.4491" ry="27.4491"/>
<text text-anchor="middle" x="171.2236" y="-95.879" font-family="Times,serif" font-size="9.00" fill="#000000">19718</text>
</g>
<!-- 19718&#45;&gt;y0 -->
<g id="edge30" class="edge">
<title>19718&#45;&gt;y0</title>
<path fill="none" stroke="#00ff00" stroke-width=".2005" d="M193.0673,-81.4219C210.5246,-67.71 234.8785,-48.5812 252.345,-34.8622"/>
<polygon fill="#00ff00" stroke="#00ff00" stroke-width=".2005" points="254.6035,-37.5388 260.3058,-28.6094 250.2796,-32.0339 254.6035,-37.5388"/>
</g>
<!-- 19210 -->
<g id="node11" class="node">
<title>19210</title>
<ellipse fill="#ffffff" stroke="#000000" cx="309.2236" cy="-98.579" rx="27.4491" ry="27.4491"/>
<text text-anchor="middle" x="309.2236" y="-95.879" font-family="Times,serif" font-size="9.00" fill="#000000">19210</text>
</g>
<!-- 19210&#45;&gt;y0 -->
<g id="edge29" class="edge">
<title>19210&#45;&gt;y0</title>
<path fill="none" stroke="#ff0000" stroke-width=".2841" d="M298.3412,-73.4247C294.2306,-63.9232 289.5487,-53.1012 285.4107,-43.5362"/>
<polygon fill="#ff0000" stroke="#ff0000" stroke-width=".2841" points="288.5249,-41.9197 281.342,-34.1315 282.1004,-44.6992 288.5249,-41.9197"/>
</g>
<!-- 311 -->
<g id="node18" class="node">
<title>311</title>
<ellipse fill="#ffffff" stroke="#000000" cx="382.2236" cy="-189.0262" rx="20.754" ry="20.754"/>
<text text-anchor="middle" x="382.2236" y="-186.3262" font-family="Times,serif" font-size="9.00" fill="#000000">311</text>
</g>
<!-- 26014&#45;&gt;311 -->
<g id="edge44" class="edge">
<title>26014&#45;&gt;311</title>
<path fill="none" stroke="#00ff00" stroke-width=".1868" d="M132.8786,-261.2722C137.6576,-257.819 142.9081,-254.5668 148.2236,-252.2498 232.6215,-215.4606 269.5551,-256.7758 352.2236,-216.2498 355.0378,-214.8702 357.7813,-213.146 360.3934,-211.239"/>
<polygon fill="#00ff00" stroke="#00ff00" stroke-width=".1868" points="362.7727,-213.8123 368.2155,-204.7224 358.2921,-208.4341 362.7727,-213.8123"/>
</g>
<!-- 6720 -->
<g id="node20" class="node">
<title>6720</title>
<ellipse fill="#ffffff" stroke="#000000" cx="113.2236" cy="-189.0262" rx="24.0833" ry="24.0833"/>
<text text-anchor="middle" x="113.2236" y="-186.3262" font-family="Times,serif" font-size="9.00" fill="#000000">6720</text>
</g>
<!-- 26014&#45;&gt;6720 -->
<g id="edge50" class="edge">
<title>26014&#45;&gt;6720</title>
<path fill="none" stroke="#ff0000" stroke-width=".3058" d="M112.5291,-251.8448C112.6284,-242.8613 112.7399,-232.7805 112.8439,-223.3682"/>
<polygon fill="#ff0000" stroke="#ff0000" stroke-width=".3058" points="116.3464,-223.1577 112.9572,-213.1196 109.3468,-223.0802 116.3464,-223.1577"/>
</g>
<!-- 3238 -->
<g id="node13" class="node">
<title>3238</title>
<ellipse fill="#ffffff" stroke="#000000" cx="240.2236" cy="-98.579" rx="24.0833" ry="24.0833"/>
<text text-anchor="middle" x="240.2236" y="-95.879" font-family="Times,serif" font-size="9.00" fill="#000000">3238</text>
</g>
<!-- 3238&#45;&gt;y0 -->
<g id="edge10" class="edge">
<title>3238&#45;&gt;y0</title>
<path fill="none" stroke="#00ff00" stroke-width=".7278" d="M249.6945,-76.0434C253.9234,-65.9811 258.9311,-54.0653 263.3158,-43.6322"/>
<polygon fill="#00ff00" stroke="#00ff00" stroke-width=".7278" points="266.6352,-44.7676 267.283,-34.1925 260.1819,-42.0554 266.6352,-44.7676"/>
</g>
<!-- 35630 -->
<g id="node14" class="node">
<title>35630</title>
<ellipse fill="#ffffff" stroke="#000000" cx="27.2236" cy="-98.579" rx="27.4491" ry="27.4491"/>
<text text-anchor="middle" x="27.2236" y="-95.879" font-family="Times,serif" font-size="9.00" fill="#000000">35630</text>
</g>
<!-- 35630&#45;&gt;y0 -->
<g id="edge52" class="edge">
<title>35630&#45;&gt;y0</title>
<path fill="none" stroke="#ff0000" stroke-width=".2506" d="M48.0149,-80.6752C52.7854,-77.2036 57.998,-73.8686 63.2236,-71.3553 124.9557,-41.6656 205.0258,-27.1113 246.5346,-21.1421"/>
<polygon fill="#ff0000" stroke="#ff0000" stroke-width=".2506" points="247.0319,-24.6067 256.4604,-19.7741 246.0761,-17.6723 247.0319,-24.6067"/>
</g>
<!-- 24244 -->
<g id="node15" class="node">
<title>24244</title>
<ellipse fill="#ffffff" stroke="#000000" cx="381.2236" cy="-98.579" rx="27.4491" ry="27.4491"/>
<text text-anchor="middle" x="381.2236" y="-95.879" font-family="Times,serif" font-size="9.00" fill="#000000">24244</text>
</g>
<!-- 24244&#45;&gt;y0 -->
<g id="edge38" class="edge">
<title>24244&#45;&gt;y0</title>
<path fill="none" stroke="#00ff00" stroke-width=".1557" d="M359.3124,-82.0121C341.0498,-68.2041 315.1362,-48.6112 296.7142,-34.6825"/>
<polygon fill="#00ff00" stroke="#00ff00" stroke-width=".1557" points="298.6731,-31.7758 288.5855,-28.5365 294.4513,-37.3594 298.6731,-31.7758"/>
</g>
<!-- 3252 -->
<g id="node16" class="node">
<title>3252</title>
<ellipse fill="#ffffff" stroke="#000000" cx="319.2236" cy="-189.0262" rx="24.0833" ry="24.0833"/>
<text text-anchor="middle" x="319.2236" y="-186.3262" font-family="Times,serif" font-size="9.00" fill="#000000">3252</text>
</g>
<!-- 3252&#45;&gt;19210 -->
<g id="edge28" class="edge">
<title>3252&#45;&gt;19210</title>
<path fill="none" stroke="#00ff00" stroke-width=".2589" d="M316.5438,-164.788C315.5562,-155.8555 314.4135,-145.5196 313.3288,-135.709"/>
<polygon fill="#00ff00" stroke="#00ff00" stroke-width=".2589" points="316.8062,-135.3111 312.2284,-125.7563 309.8486,-136.0804 316.8062,-135.3111"/>
</g>
<!-- 3252&#45;&gt;3238 -->
<g id="edge12" class="edge">
<title>3252&#45;&gt;3238</title>
<path fill="none" stroke="#00ff00" stroke-width=".4817" d="M303.2368,-170.7228C291.6722,-157.4825 275.8799,-139.4019 262.9983,-124.6537"/>
<polygon fill="#00ff00" stroke="#00ff00" stroke-width=".4817" points="265.4011,-122.0842 256.1867,-116.8551 260.129,-126.6891 265.4011,-122.0842"/>
</g>
<!-- 3388 -->
<g id="node19" class="node">
<title>3388</title>
<ellipse fill="#ffffff" stroke="#000000" cx="450.2236" cy="-98.579" rx="24.0833" ry="24.0833"/>
<text text-anchor="middle" x="450.2236" y="-95.879" font-family="Times,serif" font-size="9.00" fill="#000000">3388</text>
</g>
<!-- 3252&#45;&gt;3388 -->
<g id="edge16" class="edge">
<title>3252&#45;&gt;3388</title>
<path fill="none" stroke="#ff0000" stroke-width=".2022" d="M337.6057,-172.8584C342.2479,-169.0592 347.3123,-165.1466 352.2236,-161.8026 379.5206,-143.2164 389.9267,-144.3887 417.2236,-125.8026 419.3723,-124.3395 421.5503,-122.7677 423.7094,-121.1442"/>
<polygon fill="#ff0000" stroke="#ff0000" stroke-width=".2022" points="426.146,-123.6806 431.8415,-114.7468 421.8179,-118.1789 426.146,-123.6806"/>
</g>
<!-- 2413 -->
<g id="node28" class="node">
<title>2413</title>
<ellipse fill="#ffffff" stroke="#000000" cx="516.2236" cy="-98.579" rx="24.0833" ry="24.0833"/>
<text text-anchor="middle" x="516.2236" y="-95.879" font-family="Times,serif" font-size="9.00" fill="#000000">2413</text>
</g>
<!-- 3252&#45;&gt;2413 -->
<g id="edge15" class="edge">
<title>3252&#45;&gt;2413</title>
<path fill="none" stroke="#ff0000" stroke-width=".9" d="M336.7445,-172.2827C341.4906,-168.4112 346.8188,-164.6094 352.2236,-161.8026 405.8093,-133.9746 429.6379,-153.6306 483.2236,-125.8026 485.5882,-124.5746 487.9382,-123.1561 490.2311,-121.6247"/>
<polygon fill="#ff0000" stroke="#ff0000" stroke-width=".9" points="492.7685,-124.0994 498.7027,-115.3224 488.5903,-118.4831 492.7685,-124.0994"/>
</g>
<!-- 310&#45;&gt;3252 -->
<g id="edge11" class="edge">
<title>310&#45;&gt;3252</title>
<path fill="none" stroke="#00ff00" stroke-width=".9" d="M370.0766,-262.0343C361.2292,-249.3324 349.0563,-231.856 338.8385,-217.1866"/>
<polygon fill="#00ff00" stroke="#00ff00" stroke-width=".9" points="341.6758,-215.1364 333.0882,-208.9312 335.9318,-219.1373 341.6758,-215.1364"/>
</g>
<!-- 310&#45;&gt;311 -->
<g id="edge17" class="edge">
<title>310&#45;&gt;311</title>
<path fill="none" stroke="#ff0000" stroke-width=".5267" d="M382.2236,-258.4956C382.2236,-247.08 382.2236,-232.7381 382.2236,-220.0541"/>
<polygon fill="#ff0000" stroke="#ff0000" stroke-width=".5267" points="385.7237,-219.8901 382.2236,-209.8902 378.7237,-219.8902 385.7237,-219.8901"/>
</g>
<!-- 7241 -->
<g id="node22" class="node">
<title>7241</title>
<ellipse fill="#ffffff" stroke="#000000" cx="448.2236" cy="-189.0262" rx="24.0833" ry="24.0833"/>
<text text-anchor="middle" x="448.2236" y="-186.3262" font-family="Times,serif" font-size="9.00" fill="#000000">7241</text>
</g>
<!-- 310&#45;&gt;7241 -->
<g id="edge24" class="edge">
<title>310&#45;&gt;7241</title>
<path fill="none" stroke="#ff0000" stroke-width=".4061" d="M394.6377,-262.461C404.0021,-249.6278 417.0489,-231.7484 427.9241,-216.8449"/>
<polygon fill="#ff0000" stroke="#ff0000" stroke-width=".4061" points="430.9647,-218.6156 434.032,-208.4745 425.3101,-214.4894 430.9647,-218.6156"/>
</g>
<!-- 20345 -->
<g id="node27" class="node">
<title>20345</title>
<ellipse fill="#ffffff" stroke="#000000" cx="184.2236" cy="-189.0262" rx="27.4491" ry="27.4491"/>
<text text-anchor="middle" x="184.2236" y="-186.3262" font-family="Times,serif" font-size="9.00" fill="#000000">20345</text>
</g>
<!-- 310&#45;&gt;20345 -->
<g id="edge34" class="edge">
<title>310&#45;&gt;20345</title>
<path fill="none" stroke="#ff0000" stroke-width=".1291" d="M367.5537,-264.1409C362.9366,-259.8942 357.6251,-255.5498 352.2236,-252.2498 310.1084,-226.5198 255.8076,-208.4288 220.5149,-198.3723"/>
<polygon fill="#ff0000" stroke="#ff0000" stroke-width=".1291" points="221.2212,-194.9359 210.649,-195.6294 219.3461,-201.6801 221.2212,-194.9359"/>
</g>
<!-- 311&#45;&gt;24244 -->
<g id="edge37" class="edge">
<title>311&#45;&gt;24244</title>
<path fill="none" stroke="#00ff00" stroke-width=".1276" d="M381.9917,-168.0484C381.8867,-158.5572 381.7594,-147.043 381.6389,-136.1407"/>
<polygon fill="#00ff00" stroke="#00ff00" stroke-width=".1276" points="385.1368,-135.9222 381.5264,-125.9616 378.1372,-135.9997 385.1368,-135.9222"/>
</g>
<!-- 311&#45;&gt;3388 -->
<g id="edge13" class="edge">
<title>311&#45;&gt;3388</title>
<path fill="none" stroke="#00ff00" stroke-width=".1832" d="M394.6959,-172.4368C404.4658,-159.4416 418.2646,-141.0878 429.6622,-125.9278"/>
<polygon fill="#00ff00" stroke="#00ff00" stroke-width=".1832" points="432.4945,-127.9848 435.7063,-117.8885 426.8994,-123.7783 432.4945,-127.9848"/>
</g>
<!-- 311&#45;&gt;2413 -->
<g id="edge8" class="edge">
<title>311&#45;&gt;2413</title>
<path fill="none" stroke="#ff0000" stroke-width=".2563" d="M397.8316,-175.0534C403.169,-170.5771 409.2924,-165.7596 415.2236,-161.8026 443.6703,-142.8244 454.777,-144.7807 483.2236,-125.8026 485.4401,-124.3238 487.6834,-122.7249 489.9025,-121.0686"/>
<polygon fill="#ff0000" stroke="#ff0000" stroke-width=".2563" points="492.5291,-123.4563 498.2334,-114.5282 488.2065,-117.9504 492.5291,-123.4563"/>
</g>
<!-- 3388&#45;&gt;y0 -->
<g id="edge14" class="edge">
<title>3388&#45;&gt;y0</title>
<path fill="none" stroke="#ff0000" stroke-width=".3623" d="M432.5182,-82.1718C427.7757,-78.2939 422.4953,-74.4048 417.2236,-71.3553 379.4427,-49.5004 331.1309,-33.5594 301.4475,-24.9619"/>
<polygon fill="#ff0000" stroke="#ff0000" stroke-width=".3623" points="302.3477,-21.5793 291.7728,-22.2295 300.445,-28.3158 302.3477,-21.5793"/>
</g>
<!-- 6720&#45;&gt;3238 -->
<g id="edge21" class="edge">
<title>6720&#45;&gt;3238</title>
<path fill="none" stroke="#ff0000" stroke-width=".4074" d="M132.1862,-173.6491C137.3058,-169.6719 142.903,-165.4776 148.2236,-161.8026 173.4987,-144.3447 182.2017,-143.6214 207.2236,-125.8026 209.3411,-124.2947 211.4963,-122.6902 213.6395,-121.0438"/>
<polygon fill="#ff0000" stroke="#ff0000" stroke-width=".4074" points="216.0922,-123.5652 221.7402,-114.6013 211.735,-118.0866 216.0922,-123.5652"/>
</g>
<!-- 6720&#45;&gt;35630 -->
<g id="edge51" class="edge">
<title>6720&#45;&gt;35630</title>
<path fill="none" stroke="#ff0000" stroke-width=".1926" d="M96.6419,-171.587C84.3388,-158.6477 67.3248,-140.7538 53.2201,-125.9198"/>
<polygon fill="#ff0000" stroke="#ff0000" stroke-width=".1926" points="55.577,-123.3192 46.1499,-118.4839 50.5041,-128.1427 55.577,-123.3192"/>
</g>
<!-- 26574 -->
<g id="node24" class="node">
<title>26574</title>
<ellipse fill="#ffffff" stroke="#000000" cx="99.2236" cy="-98.579" rx="27.4491" ry="27.4491"/>
<text text-anchor="middle" x="99.2236" y="-95.879" font-family="Times,serif" font-size="9.00" fill="#000000">26574</text>
</g>
<!-- 6720&#45;&gt;26574 -->
<g id="edge45" class="edge">
<title>6720&#45;&gt;26574</title>
<path fill="none" stroke="#00ff00" stroke-width=".3812" d="M109.5453,-165.2622C108.1503,-156.25 106.5262,-145.7575 104.9849,-135.7998"/>
<polygon fill="#00ff00" stroke="#00ff00" stroke-width=".3812" points="108.4102,-135.0477 103.4217,-125.7008 101.4926,-136.1185 108.4102,-135.0477"/>
</g>
<!-- 16832&#45;&gt;311 -->
<g id="edge27" class="edge">
<title>16832&#45;&gt;311</title>
<path fill="none" stroke="#00ff00" stroke-width=".1755" d="M431.909,-257.1156C422.3897,-244.0702 410.3565,-227.5799 400.5166,-214.0951"/>
<polygon fill="#00ff00" stroke="#00ff00" stroke-width=".1755" points="403.1375,-211.7491 394.4156,-205.7342 397.4829,-215.8753 403.1375,-211.7491"/>
</g>
<!-- 16832&#45;&gt;7241 -->
<g id="edge35" class="edge">
<title>16832&#45;&gt;7241</title>
<path fill="none" stroke="#ff0000" stroke-width=".2139" d="M448.2236,-251.8448C448.2236,-242.8613 448.2236,-232.7805 448.2236,-223.3682"/>
<polygon fill="#ff0000" stroke="#ff0000" stroke-width=".2139" points="451.7237,-223.1196 448.2236,-213.1196 444.7237,-223.1196 451.7237,-223.1196"/>
</g>
<!-- 7241&#45;&gt;3388 -->
<g id="edge22" class="edge">
<title>7241&#45;&gt;3388</title>
<path fill="none" stroke="#ff0000" stroke-width=".2119" d="M448.7596,-164.788C448.9748,-155.0551 449.2269,-143.656 449.4606,-133.0857"/>
<polygon fill="#ff0000" stroke="#ff0000" stroke-width=".2119" points="452.9641,-132.959 449.6862,-122.8841 445.9659,-132.8042 452.9641,-132.959"/>
</g>
<!-- 7241&#45;&gt;2413 -->
<g id="edge40" class="edge">
<title>7241&#45;&gt;2413</title>
<path fill="none" stroke="#00ff00" stroke-width=".3392" d="M462.9786,-169.4005C472.4888,-156.7509 484.9943,-140.1173 495.4959,-126.149"/>
<polygon fill="#00ff00" stroke="#00ff00" stroke-width=".3392" points="498.5192,-127.9519 501.731,-117.8556 492.9241,-123.7454 498.5192,-127.9519"/>
</g>
<!-- 1610&#45;&gt;311 -->
<g id="edge6" class="edge">
<title>1610&#45;&gt;311</title>
<path fill="none" stroke="#ff0000" stroke-width=".5113" d="M333.2054,-259.4002C342.4515,-246.1258 354.6504,-228.6123 364.5654,-214.3776"/>
<polygon fill="#ff0000" stroke="#ff0000" stroke-width=".5113" points="367.5533,-216.2115 370.3969,-206.0054 361.8093,-212.2106 367.5533,-216.2115"/>
</g>
<!-- 1610&#45;&gt;6720 -->
<g id="edge20" class="edge">
<title>1610&#45;&gt;6720</title>
<path fill="none" stroke="#ff0000" stroke-width=".1674" d="M301.7278,-262.6811C296.9813,-258.8106 291.6466,-255.0214 286.2236,-252.2498 229.782,-223.4032 205.0734,-244.2833 148.2236,-216.2498 145.2548,-214.7858 142.2958,-213.0455 139.4271,-211.1631"/>
<polygon fill="#ff0000" stroke="#ff0000" stroke-width=".1674" points="141.3339,-208.2233 131.1726,-205.2236 137.2454,-213.9052 141.3339,-208.2233"/>
</g>
<!-- 26574&#45;&gt;y0 -->
<g id="edge46" class="edge">
<title>26574&#45;&gt;y0</title>
<path fill="none" stroke="#00ff00" stroke-width=".1155" d="M120.2565,-81.1413C125.0119,-77.6406 130.1573,-74.1759 135.2236,-71.3553 172.0615,-50.8465 218.3345,-34.6946 247.097,-25.6647"/>
<polygon fill="#00ff00" stroke="#00ff00" stroke-width=".1155" points="248.322,-28.9499 256.8516,-22.6653 246.2646,-22.259 248.322,-28.9499"/>
</g>
<!-- 27863&#45;&gt;6720 -->
<g id="edge49" class="edge">
<title>27863&#45;&gt;6720</title>
<path fill="none" stroke="#00ff00" stroke-width=".3542" d="M57.5236,-258.0387C67.719,-245.4066 80.7083,-229.3127 91.5784,-215.8447"/>
<polygon fill="#00ff00" stroke="#00ff00" stroke-width=".3542" points="94.4717,-217.8326 98.0287,-207.8527 89.0245,-213.4362 94.4717,-217.8326"/>
</g>
<!-- 38745 -->
<g id="node26" class="node">
<title>38745</title>
<ellipse fill="#ffffff" stroke="#000000" cx="517.2236" cy="-189.0262" rx="27.4491" ry="27.4491"/>
<text text-anchor="middle" x="517.2236" y="-186.3262" font-family="Times,serif" font-size="9.00" fill="#000000">38745</text>
</g>
<!-- 38745&#45;&gt;2413 -->
<g id="edge55" class="edge">
<title>38745&#45;&gt;2413</title>
<path fill="none" stroke="#00ff00" stroke-width=".5025" d="M516.9181,-161.3976C516.8188,-152.4141 516.7074,-142.3332 516.6033,-132.9209"/>
<polygon fill="#00ff00" stroke="#00ff00" stroke-width=".5025" points="520.1004,-132.633 516.49,-122.6724 513.1009,-132.7105 520.1004,-132.633"/>
</g>
<!-- 20345&#45;&gt;19718 -->
<g id="edge36" class="edge">
<title>20345&#45;&gt;19718</title>
<path fill="none" stroke="#ff0000" stroke-width=".7098" d="M180.3232,-161.889C179.1406,-153.661 177.8205,-144.4767 176.5607,-135.7115"/>
<polygon fill="#ff0000" stroke="#ff0000" stroke-width=".7098" points="180.0085,-135.0973 175.1213,-125.6969 173.0797,-136.0932 180.0085,-135.0973"/>
</g>
<!-- 2413&#45;&gt;y0 -->
<g id="edge9" class="edge">
<title>2413&#45;&gt;y0</title>
<path fill="none" stroke="#ff0000" stroke-width=".444" d="M498.7351,-81.7724C493.9884,-77.9022 488.6518,-74.1167 483.2236,-71.3553 422.8407,-40.6383 343.4746,-26.533 302.0766,-20.8983"/>
<polygon fill="#ff0000" stroke="#ff0000" stroke-width=".444" points="302.2952,-17.3975 291.9286,-19.5848 301.3966,-24.3396 302.2952,-17.3975"/>
</g>
<!-- 25332&#45;&gt;311 -->
<g id="edge47" class="edge">
<title>25332&#45;&gt;311</title>
<path fill="none" stroke="#00ff00" stroke-width=".4025" d="M205.0479,-261.6374C209.8163,-258.1615 215.0198,-254.8077 220.2236,-252.2498 274.7965,-225.4249 298.9047,-245.4879 352.2236,-216.2498 354.9717,-214.7428 357.6721,-212.9356 360.2581,-210.9783"/>
<polygon fill="#00ff00" stroke="#00ff00" stroke-width=".4025" points="362.6667,-213.5254 368.0475,-204.3986 358.1496,-208.1778 362.6667,-213.5254"/>
</g>
<!-- 25332&#45;&gt;6720 -->
<g id="edge53" class="edge">
<title>25332&#45;&gt;6720</title>
<path fill="none" stroke="#00ff00" stroke-width=".2575" d="M167.3976,-258.0387C157.5495,-245.4931 145.021,-229.533 134.4934,-216.1218"/>
<polygon fill="#00ff00" stroke="#00ff00" stroke-width=".2575" points="137.1667,-213.859 128.2388,-208.1541 131.6605,-218.1813 137.1667,-213.859"/>
</g>
<!-- 25332&#45;&gt;20345 -->
<g id="edge42" class="edge">
<title>25332&#45;&gt;20345</title>
<path fill="none" stroke="#00ff00" stroke-width=".3148" d="M184.2236,-251.8448C184.2236,-243.8671 184.2236,-235.0239 184.2236,-226.5521"/>
<polygon fill="#00ff00" stroke="#00ff00" stroke-width=".3148" points="187.7237,-226.4856 184.2236,-216.4856 180.7237,-226.4856 187.7237,-226.4856"/>
</g>
<!-- 7289&#45;&gt;311 -->
<g id="edge32" class="edge">
<title>7289&#45;&gt;311</title>
<path fill="none" stroke="#00ff00" stroke-width=".336" d="M271.5905,-263.2831C276.2332,-259.4846 281.3016,-255.578 286.2236,-252.2498 313.903,-233.5335 324.9931,-235.6132 352.2236,-216.2498 354.6954,-214.4921 357.1858,-212.5541 359.6183,-210.5463"/>
<polygon fill="#00ff00" stroke="#00ff00" stroke-width=".336" points="362.3268,-212.8276 367.5547,-203.6124 357.7212,-207.5561 362.3268,-212.8276"/>
</g>
<!-- 7289&#45;&gt;6720 -->
<g id="edge23" class="edge">
<title>7289&#45;&gt;6720</title>
<path fill="none" stroke="#00ff00" stroke-width=".2532" d="M235.2874,-263.4422C230.5493,-259.5571 225.3288,-255.5706 220.2236,-252.2498 190.2331,-232.7416 178.491,-235.3255 148.2236,-216.2498 145.5738,-214.5798 142.8822,-212.7529 140.229,-210.8613"/>
<polygon fill="#00ff00" stroke="#00ff00" stroke-width=".2532" points="142.0916,-207.8842 131.9831,-204.711 137.9064,-213.4954 142.0916,-207.8842"/>
</g>
<!-- 5882&#45;&gt;311 -->
<g id="edge19" class="edge">
<title>5882&#45;&gt;311</title>
<path fill="none" stroke="#ff0000" stroke-width=".3007" d="M499.2474,-263.5031C494.5101,-259.6168 489.3,-255.6145 484.2236,-252.2498 455.3921,-233.1398 444.0551,-235.3597 415.2236,-216.2498 412.0664,-214.1571 408.8574,-211.8178 405.7426,-209.4131"/>
<polygon fill="#ff0000" stroke="#ff0000" stroke-width=".3007" points="407.7984,-206.5747 397.8177,-203.0199 403.4032,-212.0228 407.7984,-206.5747"/>
</g>
<!-- 5882&#45;&gt;38745 -->
<g id="edge54" class="edge">
<title>5882&#45;&gt;38745</title>
<path fill="none" stroke="#ff0000" stroke-width=".1408" d="M517.2236,-255.2352C517.2236,-246.4737 517.2236,-236.3618 517.2236,-226.7199"/>
<polygon fill="#ff0000" stroke="#ff0000" stroke-width=".1408" points="520.7237,-226.5278 517.2236,-216.5279 513.7237,-226.5279 520.7237,-226.5278"/>
</g>
</g>
</svg>
