<?xml version="1.0" encoding="UTF-8" standalone="no"?>
<!DOCTYPE svg PUBLIC "-//W3C//DTD SVG 1.1//EN"
 "http://www.w3.org/Graphics/SVG/1.1/DTD/svg11.dtd">
<!-- Generated by graphviz version 2.40.1 (20161225.0304)
 -->
<!-- Title: %3 Pages: 1 -->
<svg width="428pt" height="367pt"
 viewBox="0.00 0.00 427.81 367.14" xmlns="http://www.w3.org/2000/svg" xmlns:xlink="http://www.w3.org/1999/xlink">
<g id="graph0" class="graph" transform="scale(1 1) rotate(0) translate(4 363.139)">
<title>%3</title>
<polygon fill="#ffffff" stroke="transparent" points="-4,4 -4,-363.139 423.8086,-363.139 423.8086,4 -4,4"/>
<!-- x0 -->
<g id="node1" class="node">
<title>x0</title>
<polygon fill="#d3d3d3" stroke="#000000" points="252,-359.139 216,-359.139 216,-323.139 252,-323.139 252,-359.139"/>
<text text-anchor="middle" x="234" y="-338.439" font-family="Times,serif" font-size="9.00" fill="#000000">x0</text>
</g>
<!-- 1193 -->
<g id="node11" class="node">
<title>1193</title>
<ellipse fill="#ffffff" stroke="#000000" cx="264" cy="-263.3304" rx="23.6187" ry="23.6187"/>
<text text-anchor="middle" x="264" y="-260.6304" font-family="Times,serif" font-size="9.00" fill="#000000">1193</text>
</g>
<!-- x0&#45;&gt;1193 -->
<g id="edge23" class="edge">
<title>x0&#45;&gt;1193</title>
<path fill="none" stroke="#00ff00" stroke-width=".7756" d="M240.958,-323.0926C244.144,-314.8294 248.0172,-304.7838 251.6717,-295.3053"/>
<polygon fill="#00ff00" stroke="#00ff00" stroke-width=".7756" points="255.0311,-296.3212 255.363,-285.7315 248.4998,-293.8029 255.0311,-296.3212"/>
</g>
<!-- 1194 -->
<g id="node12" class="node">
<title>1194</title>
<ellipse fill="#ffffff" stroke="#000000" cx="198" cy="-263.3304" rx="23.6187" ry="23.6187"/>
<text text-anchor="middle" x="198" y="-260.6304" font-family="Times,serif" font-size="9.00" fill="#000000">1194</text>
</g>
<!-- x0&#45;&gt;1194 -->
<g id="edge33" class="edge">
<title>x0&#45;&gt;1194</title>
<path fill="none" stroke="#ff0000" stroke-width=".1975" d="M225.6504,-323.0926C221.6838,-314.5193 216.8295,-304.0275 212.3015,-294.2409"/>
<polygon fill="#ff0000" stroke="#ff0000" stroke-width=".1975" points="215.4755,-292.7657 208.0998,-285.1597 209.1225,-295.7051 215.4755,-292.7657"/>
</g>
<!-- 1195 -->
<g id="node13" class="node">
<title>1195</title>
<ellipse fill="#ffffff" stroke="#000000" cx="330" cy="-263.3304" rx="23.6187" ry="23.6187"/>
<text text-anchor="middle" x="330" y="-260.6304" font-family="Times,serif" font-size="9.00" fill="#000000">1195</text>
</g>
<!-- x0&#45;&gt;1195 -->
<g id="edge26" class="edge">
<title>x0&#45;&gt;1195</title>
<path fill="none" stroke="#ff0000" stroke-width=".4779" d="M252.0569,-326.5038C266.4875,-314.8077 286.9298,-298.2391 303.2588,-285.0043"/>
<polygon fill="#ff0000" stroke="#ff0000" stroke-width=".4779" points="305.8044,-287.4464 311.3693,-278.4307 301.3967,-282.0083 305.8044,-287.4464"/>
</g>
<!-- x1 -->
<g id="node2" class="node">
<title>x1</title>
<polygon fill="#d3d3d3" stroke="#000000" points="414,-359.139 378,-359.139 378,-323.139 414,-323.139 414,-359.139"/>
<text text-anchor="middle" x="396" y="-338.439" font-family="Times,serif" font-size="9.00" fill="#000000">x1</text>
</g>
<!-- x1&#45;&gt;1193 -->
<g id="edge20" class="edge">
<title>x1&#45;&gt;1193</title>
<path fill="none" stroke="#ff0000" stroke-width=".9" d="M377.8955,-328.6254C374.9599,-326.7257 371.9236,-324.8356 369,-323.139 338.056,-305.1815 327.6066,-305.6657 297,-287.139 295.2776,-286.0964 293.5296,-284.9908 291.7833,-283.8493"/>
<polygon fill="#ff0000" stroke="#ff0000" stroke-width=".9" points="293.418,-280.7269 283.1892,-277.9662 289.4639,-286.5031 293.418,-280.7269"/>
</g>
<!-- x1&#45;&gt;1195 -->
<g id="edge19" class="edge">
<title>x1&#45;&gt;1195</title>
<path fill="none" stroke="#ff0000" stroke-width=".9" d="M380.6924,-323.0926C372.1737,-313.0498 361.4219,-300.3742 352.0145,-289.2837"/>
<polygon fill="#ff0000" stroke="#ff0000" stroke-width=".9" points="354.5911,-286.9105 345.4532,-281.5485 349.2528,-291.4386 354.5911,-286.9105"/>
</g>
<!-- 1197 -->
<g id="node14" class="node">
<title>1197</title>
<ellipse fill="#ffffff" stroke="#000000" cx="396" cy="-263.3304" rx="23.6187" ry="23.6187"/>
<text text-anchor="middle" x="396" y="-260.6304" font-family="Times,serif" font-size="9.00" fill="#000000">1197</text>
</g>
<!-- x1&#45;&gt;1197 -->
<g id="edge22" class="edge">
<title>x1&#45;&gt;1197</title>
<path fill="none" stroke="#ff0000" stroke-width=".5258" d="M396,-323.0926C396,-315.413 396,-306.1939 396,-297.3213"/>
<polygon fill="#ff0000" stroke="#ff0000" stroke-width=".5258" points="399.5001,-297.1778 396,-287.1778 392.5001,-297.1779 399.5001,-297.1778"/>
</g>
<!-- x2 -->
<g id="node3" class="node">
<title>x2</title>
<polygon fill="#d3d3d3" stroke="#000000" points="360,-359.139 324,-359.139 324,-323.139 360,-323.139 360,-359.139"/>
<text text-anchor="middle" x="342" y="-338.439" font-family="Times,serif" font-size="9.00" fill="#000000">x2</text>
</g>
<!-- x2&#45;&gt;1193 -->
<g id="edge17" class="edge">
<title>x2&#45;&gt;1193</title>
<path fill="none" stroke="#00ff00" stroke-width=".7371" d="M323.9092,-323.0926C313.277,-312.4865 299.7013,-298.9441 288.1622,-287.4333"/>
<polygon fill="#00ff00" stroke="#00ff00" stroke-width=".7371" points="290.4765,-284.7982 280.9248,-280.2137 285.5328,-289.7541 290.4765,-284.7982"/>
</g>
<!-- x2&#45;&gt;1194 -->
<g id="edge25" class="edge">
<title>x2&#45;&gt;1194</title>
<path fill="none" stroke="#ff0000" stroke-width=".4756" d="M323.9809,-328.4731C321.0343,-326.5931 317.9721,-324.749 315,-323.139 279.2859,-303.7927 266.3502,-307.1425 231,-287.139 229.2477,-286.1474 227.4765,-285.0816 225.7125,-283.9702"/>
<polygon fill="#ff0000" stroke="#ff0000" stroke-width=".4756" points="227.3243,-280.8367 217.071,-278.1681 223.4222,-286.6483 227.3243,-280.8367"/>
</g>
<!-- x2&#45;&gt;1195 -->
<g id="edge11" class="edge">
<title>x2&#45;&gt;1195</title>
<path fill="none" stroke="#ff0000" stroke-width=".3673" d="M339.2168,-323.0926C338.0095,-315.2643 336.5555,-305.8363 335.1628,-296.8063"/>
<polygon fill="#ff0000" stroke="#ff0000" stroke-width=".3673" points="338.6164,-296.2364 333.633,-286.8867 331.6982,-297.3034 338.6164,-296.2364"/>
</g>
<!-- x2&#45;&gt;1197 -->
<g id="edge9" class="edge">
<title>x2&#45;&gt;1197</title>
<path fill="none" stroke="#00ff00" stroke-width=".1023" d="M354.5244,-323.0926C361.0478,-313.693 369.1718,-301.9872 376.4964,-291.4331"/>
<polygon fill="#00ff00" stroke="#00ff00" stroke-width=".1023" points="379.5822,-293.1255 382.4084,-282.9146 373.8314,-289.1344 379.5822,-293.1255"/>
</g>
<!-- x3 -->
<g id="node4" class="node">
<title>x3</title>
<polygon fill="#d3d3d3" stroke="#000000" points="306,-359.139 270,-359.139 270,-323.139 306,-323.139 306,-359.139"/>
<text text-anchor="middle" x="288" y="-338.439" font-family="Times,serif" font-size="9.00" fill="#000000">x3</text>
</g>
<!-- x3&#45;&gt;1193 -->
<g id="edge29" class="edge">
<title>x3&#45;&gt;1193</title>
<path fill="none" stroke="#00ff00" stroke-width=".6248" d="M282.4336,-323.0926C279.9523,-315.0482 276.95,-305.3147 274.0953,-296.0596"/>
<polygon fill="#00ff00" stroke="#00ff00" stroke-width=".6248" points="277.3792,-294.8314 271.0872,-286.3072 270.6902,-296.8946 277.3792,-294.8314"/>
</g>
<!-- x3&#45;&gt;1194 -->
<g id="edge2" class="edge">
<title>x3&#45;&gt;1194</title>
<path fill="none" stroke="#ff0000" stroke-width=".2783" d="M269.7872,-325.3933C256.6123,-314.0031 238.6211,-298.449 223.9459,-285.7617"/>
<polygon fill="#ff0000" stroke="#ff0000" stroke-width=".2783" points="226.0397,-282.9452 216.1858,-279.0527 221.4616,-288.2406 226.0397,-282.9452"/>
</g>
<!-- x3&#45;&gt;1195 -->
<g id="edge24" class="edge">
<title>x3&#45;&gt;1195</title>
<path fill="none" stroke="#00ff00" stroke-width=".9" d="M297.7412,-323.0926C302.528,-314.2247 308.4228,-303.3041 313.8581,-293.2346"/>
<polygon fill="#00ff00" stroke="#00ff00" stroke-width=".9" points="317.0056,-294.7721 318.6757,-284.3097 310.8457,-291.447 317.0056,-294.7721"/>
</g>
<!-- x3&#45;&gt;1197 -->
<g id="edge3" class="edge">
<title>x3&#45;&gt;1197</title>
<path fill="none" stroke="#00ff00" stroke-width=".1086" d="M306.1899,-328.0498C321.3806,-317.1169 343.6057,-301.1172 363,-287.139 364.6334,-285.9618 366.3121,-284.7516 368.0058,-283.5303"/>
<polygon fill="#00ff00" stroke="#00ff00" stroke-width=".1086" points="370.3955,-286.1222 376.4586,-277.4338 366.3006,-280.4448 370.3955,-286.1222"/>
</g>
<!-- x4 -->
<g id="node5" class="node">
<title>x4</title>
<polygon fill="#d3d3d3" stroke="#000000" points="90,-359.139 54,-359.139 54,-323.139 90,-323.139 90,-359.139"/>
<text text-anchor="middle" x="72" y="-338.439" font-family="Times,serif" font-size="9.00" fill="#000000">x4</text>
</g>
<!-- 1191 -->
<g id="node10" class="node">
<title>1191</title>
<ellipse fill="#ffffff" stroke="#000000" cx="132" cy="-263.3304" rx="23.6187" ry="23.6187"/>
<text text-anchor="middle" x="132" y="-260.6304" font-family="Times,serif" font-size="9.00" fill="#000000">1191</text>
</g>
<!-- x4&#45;&gt;1191 -->
<g id="edge28" class="edge">
<title>x4&#45;&gt;1191</title>
<path fill="none" stroke="#00ff00" stroke-width=".7518" d="M85.916,-323.0926C93.4195,-313.3619 102.829,-301.1597 111.1859,-290.3223"/>
<polygon fill="#00ff00" stroke="#00ff00" stroke-width=".7518" points="113.9874,-292.4209 117.3223,-282.3646 108.4441,-288.1463 113.9874,-292.4209"/>
</g>
<!-- x4&#45;&gt;1194 -->
<g id="edge32" class="edge">
<title>x4&#45;&gt;1194</title>
<path fill="none" stroke="#ff0000" stroke-width=".444" d="M90.1586,-328.7167C93.0872,-326.8052 96.1072,-324.8875 99,-323.139 127.5955,-305.8549 136.729,-304.949 165,-287.139 166.7035,-286.0658 168.4368,-284.9365 170.172,-283.7768"/>
<polygon fill="#ff0000" stroke="#ff0000" stroke-width=".444" points="172.5082,-286.4163 178.7361,-277.8453 168.5225,-280.6618 172.5082,-286.4163"/>
</g>
<!-- 1198 -->
<g id="node15" class="node">
<title>1198</title>
<ellipse fill="#ffffff" stroke="#000000" cx="66" cy="-263.3304" rx="23.6187" ry="23.6187"/>
<text text-anchor="middle" x="66" y="-260.6304" font-family="Times,serif" font-size="9.00" fill="#000000">1198</text>
</g>
<!-- x4&#45;&gt;1198 -->
<g id="edge5" class="edge">
<title>x4&#45;&gt;1198</title>
<path fill="none" stroke="#00ff00" stroke-width=".4889" d="M70.6084,-323.0926C70.0162,-315.413 69.3053,-306.1939 68.6211,-297.3213"/>
<polygon fill="#00ff00" stroke="#00ff00" stroke-width=".4889" points="72.0975,-296.8791 67.8389,-287.1778 65.1182,-297.4174 72.0975,-296.8791"/>
</g>
<!-- x5 -->
<g id="node6" class="node">
<title>x5</title>
<polygon fill="#d3d3d3" stroke="#000000" points="144,-359.139 108,-359.139 108,-323.139 144,-323.139 144,-359.139"/>
<text text-anchor="middle" x="126" y="-338.439" font-family="Times,serif" font-size="9.00" fill="#000000">x5</text>
</g>
<!-- x5&#45;&gt;1191 -->
<g id="edge10" class="edge">
<title>x5&#45;&gt;1191</title>
<path fill="none" stroke="#ff0000" stroke-width=".7763" d="M127.3916,-323.0926C127.9838,-315.413 128.6947,-306.1939 129.3789,-297.3213"/>
<polygon fill="#ff0000" stroke="#ff0000" stroke-width=".7763" points="132.8818,-297.4174 130.1611,-287.1778 125.9025,-296.8791 132.8818,-297.4174"/>
</g>
<!-- x5&#45;&gt;1193 -->
<g id="edge1" class="edge">
<title>x5&#45;&gt;1193</title>
<path fill="none" stroke="#ff0000" stroke-width=".1294" d="M144.0586,-328.5447C147.0001,-326.6555 150.0503,-324.7898 153,-323.139 186.3183,-304.4931 198.0322,-306.3979 231,-287.139 232.7385,-286.1234 234.4989,-285.0389 236.2548,-283.9133"/>
<polygon fill="#ff0000" stroke="#ff0000" stroke-width=".1294" points="238.559,-286.5799 244.8744,-278.0731 234.6325,-280.7849 238.559,-286.5799"/>
</g>
<!-- x5&#45;&gt;1198 -->
<g id="edge12" class="edge">
<title>x5&#45;&gt;1198</title>
<path fill="none" stroke="#00ff00" stroke-width=".2272" d="M112.084,-323.0926C104.5805,-313.3619 95.171,-301.1597 86.8141,-290.3223"/>
<polygon fill="#00ff00" stroke="#00ff00" stroke-width=".2272" points="89.5559,-288.1463 80.6777,-282.3646 84.0126,-292.4209 89.5559,-288.1463"/>
</g>
<!-- x6 -->
<g id="node7" class="node">
<title>x6</title>
<polygon fill="#d3d3d3" stroke="#000000" points="198,-359.139 162,-359.139 162,-323.139 198,-323.139 198,-359.139"/>
<text text-anchor="middle" x="180" y="-338.439" font-family="Times,serif" font-size="9.00" fill="#000000">x6</text>
</g>
<!-- x6&#45;&gt;1191 -->
<g id="edge6" class="edge">
<title>x6&#45;&gt;1191</title>
<path fill="none" stroke="#00ff00" stroke-width=".8459" d="M168.8672,-323.0926C163.2551,-313.9954 156.3103,-302.7378 149.9669,-292.455"/>
<polygon fill="#00ff00" stroke="#00ff00" stroke-width=".8459" points="152.8249,-290.4215 144.5958,-283.7483 146.8673,-294.0968 152.8249,-290.4215"/>
</g>
<!-- x6&#45;&gt;1197 -->
<g id="edge21" class="edge">
<title>x6&#45;&gt;1197</title>
<path fill="none" stroke="#00ff00" stroke-width=".3329" d="M198.0862,-327.8156C200.9733,-326.0657 203.9999,-324.4337 207,-323.139 272.3317,-294.9455 298.2008,-316.5359 363,-287.139 365.0386,-286.2142 367.0782,-285.1535 369.0872,-284.0048"/>
<polygon fill="#00ff00" stroke="#00ff00" stroke-width=".3329" points="371.0674,-286.8929 377.602,-278.5533 367.293,-280.9977 371.0674,-286.8929"/>
</g>
<!-- x6&#45;&gt;1198 -->
<g id="edge34" class="edge">
<title>x6&#45;&gt;1198</title>
<path fill="none" stroke="#00ff00" stroke-width=".4343" d="M161.6609,-328.9251C138.2399,-313.3248 100.5275,-288.1987 99,-287.139 97.3457,-285.9914 95.6507,-284.8042 93.9446,-283.6005"/>
<polygon fill="#00ff00" stroke="#00ff00" stroke-width=".4343" points="95.633,-280.5058 85.4586,-277.5509 91.5696,-286.2057 95.633,-280.5058"/>
</g>
<!-- x7 -->
<g id="node8" class="node">
<title>x7</title>
<polygon fill="#d3d3d3" stroke="#000000" points="36,-359.139 0,-359.139 0,-323.139 36,-323.139 36,-359.139"/>
<text text-anchor="middle" x="18" y="-338.439" font-family="Times,serif" font-size="9.00" fill="#000000">x7</text>
</g>
<!-- x7&#45;&gt;1191 -->
<g id="edge4" class="edge">
<title>x7&#45;&gt;1191</title>
<path fill="none" stroke="#ff0000" stroke-width=".8991" d="M36.3391,-328.9251C59.7601,-313.3248 97.4725,-288.1987 99,-287.139 100.6543,-285.9914 102.3493,-284.8042 104.0554,-283.6005"/>
<polygon fill="#ff0000" stroke="#ff0000" stroke-width=".8991" points="106.4304,-286.2057 112.5414,-277.5509 102.367,-280.5058 106.4304,-286.2057"/>
</g>
<!-- x7&#45;&gt;1198 -->
<g id="edge7" class="edge">
<title>x7&#45;&gt;1198</title>
<path fill="none" stroke="#00ff00" stroke-width=".3734" d="M29.1328,-323.0926C34.7449,-313.9954 41.6897,-302.7378 48.0331,-292.455"/>
<polygon fill="#00ff00" stroke="#00ff00" stroke-width=".3734" points="51.1327,-294.0968 53.4042,-283.7483 45.1751,-290.4215 51.1327,-294.0968"/>
</g>
<!-- y0 -->
<g id="node9" class="node">
<title>y0</title>
<ellipse fill="#add8e6" stroke="#000000" cx="231" cy="-17.6777" rx="17.8571" ry="17.8571"/>
<text text-anchor="middle" x="231" y="-14.9777" font-family="Times,serif" font-size="9.00" fill="#000000">y0</text>
</g>
<!-- 1201 -->
<g id="node16" class="node">
<title>1201</title>
<ellipse fill="#ffffff" stroke="#000000" cx="198" cy="-179.4802" rx="24.0833" ry="24.0833"/>
<text text-anchor="middle" x="198" y="-176.7802" font-family="Times,serif" font-size="9.00" fill="#000000">1201</text>
</g>
<!-- 1191&#45;&gt;1201 -->
<g id="edge30" class="edge">
<title>1191&#45;&gt;1201</title>
<path fill="none" stroke="#ff0000" stroke-width=".3655" d="M146.9764,-244.3035C155.7525,-233.1539 166.9818,-218.8876 176.6705,-206.5785"/>
<polygon fill="#ff0000" stroke="#ff0000" stroke-width=".3655" points="179.648,-208.4545 183.0828,-198.4318 174.1475,-204.1249 179.648,-208.4545"/>
</g>
<!-- 1193&#45;&gt;1201 -->
<g id="edge16" class="edge">
<title>1193&#45;&gt;1201</title>
<path fill="none" stroke="#00ff00" stroke-width=".3628" d="M249.0236,-244.3035C240.2475,-233.1539 229.0182,-218.8876 219.3295,-206.5785"/>
<polygon fill="#00ff00" stroke="#00ff00" stroke-width=".3628" points="221.8525,-204.1249 212.9172,-198.4318 216.352,-208.4545 221.8525,-204.1249"/>
</g>
<!-- 1202 -->
<g id="node17" class="node">
<title>1202</title>
<ellipse fill="#ffffff" stroke="#000000" cx="264" cy="-179.4802" rx="24.0833" ry="24.0833"/>
<text text-anchor="middle" x="264" y="-176.7802" font-family="Times,serif" font-size="9.00" fill="#000000">1202</text>
</g>
<!-- 1193&#45;&gt;1202 -->
<g id="edge13" class="edge">
<title>1193&#45;&gt;1202</title>
<path fill="none" stroke="#ff0000" stroke-width=".1267" d="M264,-239.0775C264,-231.1686 264,-222.2328 264,-213.7326"/>
<polygon fill="#ff0000" stroke="#ff0000" stroke-width=".1267" points="267.5001,-213.6786 264,-203.6787 260.5001,-213.6787 267.5001,-213.6786"/>
</g>
<!-- 1194&#45;&gt;1201 -->
<g id="edge27" class="edge">
<title>1194&#45;&gt;1201</title>
<path fill="none" stroke="#ff0000" stroke-width=".3135" d="M198,-239.0775C198,-231.1686 198,-222.2328 198,-213.7326"/>
<polygon fill="#ff0000" stroke="#ff0000" stroke-width=".3135" points="201.5001,-213.6786 198,-203.6787 194.5001,-213.6787 201.5001,-213.6786"/>
</g>
<!-- 1195&#45;&gt;1201 -->
<g id="edge18" class="edge">
<title>1195&#45;&gt;1201</title>
<path fill="none" stroke="#ff0000" stroke-width=".4449" d="M310.7361,-248.8156C306.2968,-245.6447 301.5428,-242.3837 297,-239.5219 268.729,-221.7118 259.2297,-221.3973 231,-203.5219 229.2932,-202.4411 227.5575,-201.303 225.8203,-200.1338"/>
<polygon fill="#ff0000" stroke="#ff0000" stroke-width=".4449" points="227.4536,-197.0053 217.2511,-194.1488 223.4454,-202.7442 227.4536,-197.0053"/>
</g>
<!-- 1197&#45;&gt;1202 -->
<g id="edge15" class="edge">
<title>1197&#45;&gt;1202</title>
<path fill="none" stroke="#00ff00" stroke-width=".1689" d="M376.6371,-248.9689C372.2029,-245.79 367.476,-242.487 363,-239.5219 340.2871,-224.4756 313.8745,-208.5317 294.046,-196.858"/>
<polygon fill="#00ff00" stroke="#00ff00" stroke-width=".1689" points="295.5592,-193.6881 285.1615,-191.6536 292.021,-199.7281 295.5592,-193.6881"/>
</g>
<!-- 1198&#45;&gt;1201 -->
<g id="edge14" class="edge">
<title>1198&#45;&gt;1201</title>
<path fill="none" stroke="#00ff00" stroke-width=".5701" d="M85.3629,-248.9689C89.7971,-245.79 94.524,-242.487 99,-239.5219 121.7129,-224.4756 148.1255,-208.5317 167.954,-196.858"/>
<polygon fill="#00ff00" stroke="#00ff00" stroke-width=".5701" points="169.979,-199.7281 176.8385,-191.6536 166.4408,-193.6881 169.979,-199.7281"/>
</g>
<!-- 1204 -->
<g id="node18" class="node">
<title>1204</title>
<ellipse fill="#ffffff" stroke="#000000" cx="231" cy="-95.397" rx="24.0833" ry="24.0833"/>
<text text-anchor="middle" x="231" y="-92.697" font-family="Times,serif" font-size="9.00" fill="#000000">1204</text>
</g>
<!-- 1201&#45;&gt;1204 -->
<g id="edge8" class="edge">
<title>1201&#45;&gt;1204</title>
<path fill="none" stroke="#00ff00" stroke-width=".879" d="M206.8434,-156.9475C210.3945,-147.8994 214.5535,-137.3023 218.4101,-127.4757"/>
<polygon fill="#00ff00" stroke="#00ff00" stroke-width=".879" points="221.7368,-128.5794 222.1322,-117.9919 215.2207,-126.022 221.7368,-128.5794"/>
</g>
<!-- 1202&#45;&gt;1204 -->
<g id="edge35" class="edge">
<title>1202&#45;&gt;1204</title>
<path fill="none" stroke="#ff0000" stroke-width=".2297" d="M255.1566,-156.9475C251.6055,-147.8994 247.4465,-137.3023 243.5899,-127.4757"/>
<polygon fill="#ff0000" stroke="#ff0000" stroke-width=".2297" points="246.7793,-126.022 239.8678,-117.9919 240.2632,-128.5794 246.7793,-126.022"/>
</g>
<!-- 1204&#45;&gt;y0 -->
<g id="edge31" class="edge">
<title>1204&#45;&gt;y0</title>
<path fill="none" stroke="#00ff00" stroke-width=".7339" d="M231,-71.2321C231,-63.086 231,-53.9295 231,-45.5228"/>
<polygon fill="#00ff00" stroke="#00ff00" stroke-width=".7339" points="234.5001,-45.4076 231,-35.4076 227.5001,-45.4076 234.5001,-45.4076"/>
</g>
</g>
</svg>
