<?xml version="1.0" encoding="UTF-8" standalone="no"?>
<!DOCTYPE svg PUBLIC "-//W3C//DTD SVG 1.1//EN"
 "http://www.w3.org/Graphics/SVG/1.1/DTD/svg11.dtd">
<!-- Generated by graphviz version 2.40.1 (20161225.0304)
 -->
<!-- Title: %3 Pages: 1 -->
<svg width="422pt" height="349pt"
 viewBox="0.00 0.00 422.00 348.51" xmlns="http://www.w3.org/2000/svg" xmlns:xlink="http://www.w3.org/1999/xlink">
<g id="graph0" class="graph" transform="scale(1 1) rotate(0) translate(4 344.5132)">
<title>%3</title>
<polygon fill="#ffffff" stroke="transparent" points="-4,4 -4,-344.5132 418,-344.5132 418,4 -4,4"/>
<!-- x0 -->
<g id="node1" class="node">
<title>x0</title>
<polygon fill="#d3d3d3" stroke="#000000" points="414,-340.5132 378,-340.5132 378,-304.5132 414,-304.5132 414,-340.5132"/>
<text text-anchor="middle" x="396" y="-319.8132" font-family="Times,serif" font-size="9.00" fill="#000000">x0</text>
</g>
<!-- 856 -->
<g id="node13" class="node">
<title>856</title>
<ellipse fill="#ffffff" stroke="#000000" cx="267" cy="-247.6536" rx="20.7202" ry="20.7202"/>
<text text-anchor="middle" x="267" y="-244.9536" font-family="Times,serif" font-size="9.00" fill="#000000">856</text>
</g>
<!-- x0&#45;&gt;856 -->
<g id="edge2" class="edge">
<title>x0&#45;&gt;856</title>
<path fill="none" stroke="#ff0000" stroke-width=".5831" d="M377.8955,-309.9996C374.9599,-308.1 371.9236,-306.2099 369,-304.5132 338.056,-286.5558 327.7667,-286.7727 297,-268.5132 295.4998,-267.6229 293.9757,-266.6831 292.4502,-265.7148"/>
<polygon fill="#ff0000" stroke="#ff0000" stroke-width=".5831" points="294.1196,-262.6219 283.8537,-260.0025 290.2455,-268.4521 294.1196,-262.6219"/>
</g>
<!-- 861 -->
<g id="node15" class="node">
<title>861</title>
<ellipse fill="#ffffff" stroke="#000000" cx="327" cy="-247.6536" rx="20.7202" ry="20.7202"/>
<text text-anchor="middle" x="327" y="-244.9536" font-family="Times,serif" font-size="9.00" fill="#000000">861</text>
</g>
<!-- x0&#45;&gt;861 -->
<g id="edge17" class="edge">
<title>x0&#45;&gt;861</title>
<path fill="none" stroke="#ff0000" stroke-width=".6547" d="M379.297,-304.3918C369.9255,-294.2244 358.1413,-281.4394 348.1326,-270.5808"/>
<polygon fill="#ff0000" stroke="#ff0000" stroke-width=".6547" points="350.5694,-268.0604 341.2184,-263.0795 345.4223,-272.8046 350.5694,-268.0604"/>
</g>
<!-- x1 -->
<g id="node2" class="node">
<title>x1</title>
<polygon fill="#d3d3d3" stroke="#000000" points="360,-340.5132 324,-340.5132 324,-304.5132 360,-304.5132 360,-340.5132"/>
<text text-anchor="middle" x="342" y="-319.8132" font-family="Times,serif" font-size="9.00" fill="#000000">x1</text>
</g>
<!-- x1&#45;&gt;856 -->
<g id="edge6" class="edge">
<title>x1&#45;&gt;856</title>
<path fill="none" stroke="#00ff00" stroke-width=".7349" d="M323.8446,-304.3918C313.4183,-293.9851 300.2447,-280.8361 289.2052,-269.8172"/>
<polygon fill="#00ff00" stroke="#00ff00" stroke-width=".7349" points="291.5137,-267.1763 281.9634,-262.589 286.5685,-272.1307 291.5137,-267.1763"/>
</g>
<!-- 860 -->
<g id="node14" class="node">
<title>860</title>
<ellipse fill="#ffffff" stroke="#000000" cx="207" cy="-247.6536" rx="20.7202" ry="20.7202"/>
<text text-anchor="middle" x="207" y="-244.9536" font-family="Times,serif" font-size="9.00" fill="#000000">860</text>
</g>
<!-- x1&#45;&gt;860 -->
<g id="edge23" class="edge">
<title>x1&#45;&gt;860</title>
<path fill="none" stroke="#ff0000" stroke-width=".2198" d="M323.9414,-309.919C320.9999,-308.0297 317.9497,-306.164 315,-304.5132 281.6817,-285.8674 270.1342,-287.4843 237,-268.5132 235.4861,-267.6464 233.9512,-266.7252 232.4174,-265.7711"/>
<polygon fill="#ff0000" stroke="#ff0000" stroke-width=".2198" points="234.0749,-262.672 223.7971,-260.0996 230.2275,-268.5199 234.0749,-262.672"/>
</g>
<!-- x1&#45;&gt;861 -->
<g id="edge11" class="edge">
<title>x1&#45;&gt;861</title>
<path fill="none" stroke="#ff0000" stroke-width=".9" d="M338.3689,-304.3918C336.7985,-296.5543 334.9164,-287.1614 333.1397,-278.2944"/>
<polygon fill="#ff0000" stroke="#ff0000" stroke-width=".9" points="336.5239,-277.3691 331.1273,-268.2517 329.6603,-278.7445 336.5239,-277.3691"/>
</g>
<!-- x2 -->
<g id="node3" class="node">
<title>x2</title>
<polygon fill="#d3d3d3" stroke="#000000" points="252,-340.5132 216,-340.5132 216,-304.5132 252,-304.5132 252,-340.5132"/>
<text text-anchor="middle" x="234" y="-319.8132" font-family="Times,serif" font-size="9.00" fill="#000000">x2</text>
</g>
<!-- x2&#45;&gt;856 -->
<g id="edge4" class="edge">
<title>x2&#45;&gt;856</title>
<path fill="none" stroke="#ff0000" stroke-width=".7026" d="M241.9884,-304.3918C245.6976,-295.9776 250.1971,-285.7706 254.3515,-276.3464"/>
<polygon fill="#ff0000" stroke="#ff0000" stroke-width=".7026" points="257.6772,-277.4788 258.5084,-266.9166 251.272,-274.6552 257.6772,-277.4788"/>
</g>
<!-- x2&#45;&gt;861 -->
<g id="edge5" class="edge">
<title>x2&#45;&gt;861</title>
<path fill="none" stroke="#ff0000" stroke-width=".7519" d="M252.3738,-307.7234C266.6664,-296.2186 286.6377,-280.1429 302.3238,-267.5165"/>
<polygon fill="#ff0000" stroke="#ff0000" stroke-width=".7519" points="304.9389,-269.9046 310.5341,-260.9077 300.5496,-264.4516 304.9389,-269.9046"/>
</g>
<!-- 862 -->
<g id="node16" class="node">
<title>862</title>
<ellipse fill="#ffffff" stroke="#000000" cx="147" cy="-247.6536" rx="20.7202" ry="20.7202"/>
<text text-anchor="middle" x="147" y="-244.9536" font-family="Times,serif" font-size="9.00" fill="#000000">862</text>
</g>
<!-- x2&#45;&gt;862 -->
<g id="edge26" class="edge">
<title>x2&#45;&gt;862</title>
<path fill="none" stroke="#00ff00" stroke-width=".1375" d="M215.9735,-307.0023C202.9094,-295.7611 185.1123,-280.4476 170.8687,-268.1916"/>
<polygon fill="#00ff00" stroke="#00ff00" stroke-width=".1375" points="172.8186,-265.252 162.9556,-261.3826 168.2529,-270.5581 172.8186,-265.252"/>
</g>
<!-- x3 -->
<g id="node4" class="node">
<title>x3</title>
<polygon fill="#d3d3d3" stroke="#000000" points="306,-340.5132 270,-340.5132 270,-304.5132 306,-304.5132 306,-340.5132"/>
<text text-anchor="middle" x="288" y="-319.8132" font-family="Times,serif" font-size="9.00" fill="#000000">x3</text>
</g>
<!-- x3&#45;&gt;856 -->
<g id="edge12" class="edge">
<title>x3&#45;&gt;856</title>
<path fill="none" stroke="#ff0000" stroke-width=".7021" d="M282.9165,-304.3918C280.6763,-296.4062 277.9832,-286.8059 275.4547,-277.7925"/>
<polygon fill="#ff0000" stroke="#ff0000" stroke-width=".7021" points="278.7738,-276.6656 272.7028,-267.9826 272.034,-278.5563 278.7738,-276.6656"/>
</g>
<!-- x3&#45;&gt;861 -->
<g id="edge8" class="edge">
<title>x3&#45;&gt;861</title>
<path fill="none" stroke="#00ff00" stroke-width=".8536" d="M297.4408,-304.3918C301.985,-295.6693 307.5329,-285.0202 312.5898,-275.3137"/>
<polygon fill="#00ff00" stroke="#00ff00" stroke-width=".8536" points="315.7225,-276.8757 317.2388,-266.3899 309.5144,-273.6414 315.7225,-276.8757"/>
</g>
<!-- x3&#45;&gt;862 -->
<g id="edge27" class="edge">
<title>x3&#45;&gt;862</title>
<path fill="none" stroke="#00ff00" stroke-width=".1496" d="M269.9809,-309.8473C267.0343,-307.9673 263.9721,-306.1232 261,-304.5132 225.2859,-285.167 212.5231,-288.2082 177,-268.5132 175.4743,-267.6674 173.9302,-266.7625 172.3893,-265.8211"/>
<polygon fill="#00ff00" stroke="#00ff00" stroke-width=".1496" points="174.0366,-262.7169 163.7485,-260.1859 170.2127,-268.5802 174.0366,-262.7169"/>
</g>
<!-- x4 -->
<g id="node5" class="node">
<title>x4</title>
<polygon fill="#d3d3d3" stroke="#000000" points="144,-340.5132 108,-340.5132 108,-304.5132 144,-304.5132 144,-340.5132"/>
<text text-anchor="middle" x="126" y="-319.8132" font-family="Times,serif" font-size="9.00" fill="#000000">x4</text>
</g>
<!-- 855 -->
<g id="node12" class="node">
<title>855</title>
<ellipse fill="#ffffff" stroke="#000000" cx="87" cy="-247.6536" rx="20.7202" ry="20.7202"/>
<text text-anchor="middle" x="87" y="-244.9536" font-family="Times,serif" font-size="9.00" fill="#000000">855</text>
</g>
<!-- x4&#45;&gt;855 -->
<g id="edge18" class="edge">
<title>x4&#45;&gt;855</title>
<path fill="none" stroke="#ff0000" stroke-width=".6099" d="M116.5592,-304.3918C112.015,-295.6693 106.4671,-285.0202 101.4102,-275.3137"/>
<polygon fill="#ff0000" stroke="#ff0000" stroke-width=".6099" points="104.4856,-273.6414 96.7612,-266.3899 98.2775,-276.8757 104.4856,-273.6414"/>
</g>
<!-- x4&#45;&gt;860 -->
<g id="edge24" class="edge">
<title>x4&#45;&gt;860</title>
<path fill="none" stroke="#ff0000" stroke-width=".2151" d="M144.3802,-305.5264C156.131,-294.6664 171.4655,-280.4943 184.0186,-268.8928"/>
<polygon fill="#ff0000" stroke="#ff0000" stroke-width=".2151" points="186.4499,-271.4117 191.4183,-262.054 181.6988,-266.2709 186.4499,-271.4117"/>
</g>
<!-- x4&#45;&gt;862 -->
<g id="edge16" class="edge">
<title>x4&#45;&gt;862</title>
<path fill="none" stroke="#ff0000" stroke-width=".9" d="M131.0835,-304.3918C133.3237,-296.4062 136.0168,-286.8059 138.5453,-277.7925"/>
<polygon fill="#ff0000" stroke="#ff0000" stroke-width=".9" points="141.966,-278.5563 141.2972,-267.9826 135.2262,-276.6656 141.966,-278.5563"/>
</g>
<!-- x5 -->
<g id="node6" class="node">
<title>x5</title>
<polygon fill="#d3d3d3" stroke="#000000" points="198,-340.5132 162,-340.5132 162,-304.5132 198,-304.5132 198,-340.5132"/>
<text text-anchor="middle" x="180" y="-319.8132" font-family="Times,serif" font-size="9.00" fill="#000000">x5</text>
</g>
<!-- x5&#45;&gt;855 -->
<g id="edge21" class="edge">
<title>x5&#45;&gt;855</title>
<path fill="none" stroke="#00ff00" stroke-width=".5475" d="M161.6262,-307.7234C147.3336,-296.2186 127.3623,-280.1429 111.6762,-267.5165"/>
<polygon fill="#00ff00" stroke="#00ff00" stroke-width=".5475" points="113.4504,-264.4516 103.4659,-260.9077 109.0611,-269.9046 113.4504,-264.4516"/>
</g>
<!-- x5&#45;&gt;856 -->
<g id="edge29" class="edge">
<title>x5&#45;&gt;856</title>
<path fill="none" stroke="#00ff00" stroke-width=".2159" d="M198.0265,-307.0023C211.0906,-295.7611 228.8877,-280.4476 243.1313,-268.1916"/>
<polygon fill="#00ff00" stroke="#00ff00" stroke-width=".2159" points="245.7471,-270.5581 251.0444,-261.3826 241.1814,-265.252 245.7471,-270.5581"/>
</g>
<!-- x5&#45;&gt;860 -->
<g id="edge22" class="edge">
<title>x5&#45;&gt;860</title>
<path fill="none" stroke="#00ff00" stroke-width=".291" d="M186.5359,-304.3918C189.493,-296.1932 193.0638,-286.2927 196.3893,-277.0726"/>
<polygon fill="#00ff00" stroke="#00ff00" stroke-width=".291" points="199.7603,-278.0419 199.8608,-267.4476 193.1755,-275.6669 199.7603,-278.0419"/>
</g>
<!-- x5&#45;&gt;862 -->
<g id="edge7" class="edge">
<title>x5&#45;&gt;862</title>
<path fill="none" stroke="#ff0000" stroke-width=".331" d="M172.0116,-304.3918C168.3024,-295.9776 163.8029,-285.7706 159.6485,-276.3464"/>
<polygon fill="#ff0000" stroke="#ff0000" stroke-width=".331" points="162.728,-274.6552 155.4916,-266.9166 156.3228,-277.4788 162.728,-274.6552"/>
</g>
<!-- x6 -->
<g id="node7" class="node">
<title>x6</title>
<polygon fill="#d3d3d3" stroke="#000000" points="36,-340.5132 0,-340.5132 0,-304.5132 36,-304.5132 36,-340.5132"/>
<text text-anchor="middle" x="18" y="-319.8132" font-family="Times,serif" font-size="9.00" fill="#000000">x6</text>
</g>
<!-- x6&#45;&gt;855 -->
<g id="edge19" class="edge">
<title>x6&#45;&gt;855</title>
<path fill="none" stroke="#00ff00" stroke-width=".5409" d="M34.703,-304.3918C44.0745,-294.2244 55.8587,-281.4394 65.8674,-270.5808"/>
<polygon fill="#00ff00" stroke="#00ff00" stroke-width=".5409" points="68.5777,-272.8046 72.7816,-263.0795 63.4306,-268.0604 68.5777,-272.8046"/>
</g>
<!-- x6&#45;&gt;862 -->
<g id="edge9" class="edge">
<title>x6&#45;&gt;862</title>
<path fill="none" stroke="#00ff00" stroke-width=".9" d="M36.1045,-309.9996C39.0401,-308.1 42.0764,-306.2099 45,-304.5132 75.944,-286.5558 86.2333,-286.7727 117,-268.5132 118.5002,-267.6229 120.0243,-266.6831 121.5498,-265.7148"/>
<polygon fill="#00ff00" stroke="#00ff00" stroke-width=".9" points="123.7545,-268.4521 130.1463,-260.0025 119.8804,-262.6219 123.7545,-268.4521"/>
</g>
<!-- x7 -->
<g id="node8" class="node">
<title>x7</title>
<polygon fill="#d3d3d3" stroke="#000000" points="90,-340.5132 54,-340.5132 54,-304.5132 90,-304.5132 90,-340.5132"/>
<text text-anchor="middle" x="72" y="-319.8132" font-family="Times,serif" font-size="9.00" fill="#000000">x7</text>
</g>
<!-- x7&#45;&gt;855 -->
<g id="edge13" class="edge">
<title>x7&#45;&gt;855</title>
<path fill="none" stroke="#00ff00" stroke-width=".4672" d="M75.6311,-304.3918C77.2015,-296.5543 79.0836,-287.1614 80.8603,-278.2944"/>
<polygon fill="#00ff00" stroke="#00ff00" stroke-width=".4672" points="84.3397,-278.7445 82.8727,-268.2517 77.4761,-277.3691 84.3397,-278.7445"/>
</g>
<!-- x7&#45;&gt;862 -->
<g id="edge28" class="edge">
<title>x7&#45;&gt;862</title>
<path fill="none" stroke="#ff0000" stroke-width=".3025" d="M90.1554,-304.3918C100.5817,-293.9851 113.7553,-280.8361 124.7948,-269.8172"/>
<polygon fill="#ff0000" stroke="#ff0000" stroke-width=".3025" points="127.4315,-272.1307 132.0366,-262.589 122.4863,-267.1763 127.4315,-272.1307"/>
</g>
<!-- y0 -->
<g id="node9" class="node">
<title>y0</title>
<ellipse fill="#add8e6" stroke="#000000" cx="207" cy="-17.6777" rx="17.8571" ry="17.8571"/>
<text text-anchor="middle" x="207" y="-14.9777" font-family="Times,serif" font-size="9.00" fill="#000000">y0</text>
</g>
<!-- 864 -->
<g id="node10" class="node">
<title>864</title>
<ellipse fill="#ffffff" stroke="#000000" cx="207" cy="-169.9343" rx="20.7202" ry="20.7202"/>
<text text-anchor="middle" x="207" y="-167.2343" font-family="Times,serif" font-size="9.00" fill="#000000">864</text>
</g>
<!-- 868 -->
<g id="node11" class="node">
<title>868</title>
<ellipse fill="#ffffff" stroke="#000000" cx="207" cy="-92.215" rx="20.7202" ry="20.7202"/>
<text text-anchor="middle" x="207" y="-89.515" font-family="Times,serif" font-size="9.00" fill="#000000">868</text>
</g>
<!-- 864&#45;&gt;868 -->
<g id="edge10" class="edge">
<title>864&#45;&gt;868</title>
<path fill="none" stroke="#ff0000" stroke-width=".9" d="M207,-148.6971C207,-140.8369 207,-131.7562 207,-123.206"/>
<polygon fill="#ff0000" stroke="#ff0000" stroke-width=".9" points="210.5001,-123.1573 207,-113.1574 203.5001,-123.1574 210.5001,-123.1573"/>
</g>
<!-- 868&#45;&gt;y0 -->
<g id="edge1" class="edge">
<title>868&#45;&gt;y0</title>
<path fill="none" stroke="#00ff00" stroke-width=".9" d="M207,-71.055C207,-63.1867 207,-54.1323 207,-45.7418"/>
<polygon fill="#00ff00" stroke="#00ff00" stroke-width=".9" points="210.5001,-45.6082 207,-35.6083 203.5001,-45.6083 210.5001,-45.6082"/>
</g>
<!-- 855&#45;&gt;864 -->
<g id="edge15" class="edge">
<title>855&#45;&gt;864</title>
<path fill="none" stroke="#ff0000" stroke-width=".6693" d="M104.0446,-235.6088C108.2547,-232.6873 112.7704,-229.5985 117,-226.7939 137.9872,-212.8777 162.1283,-197.6683 180.1213,-186.4842"/>
<polygon fill="#ff0000" stroke="#ff0000" stroke-width=".6693" points="182.2645,-189.2737 188.9208,-181.0308 178.577,-183.3237 182.2645,-189.2737"/>
</g>
<!-- 856&#45;&gt;864 -->
<g id="edge20" class="edge">
<title>856&#45;&gt;864</title>
<path fill="none" stroke="#00ff00" stroke-width=".656" d="M253.9809,-230.7897C245.827,-220.2278 235.1778,-206.4335 226.08,-194.6491"/>
<polygon fill="#00ff00" stroke="#00ff00" stroke-width=".656" points="228.669,-192.2751 219.7876,-186.4983 223.1281,-196.5528 228.669,-192.2751"/>
</g>
<!-- 860&#45;&gt;864 -->
<g id="edge25" class="edge">
<title>860&#45;&gt;864</title>
<path fill="none" stroke="#00ff00" stroke-width=".2718" d="M207,-226.4164C207,-218.5562 207,-209.4755 207,-200.9253"/>
<polygon fill="#00ff00" stroke="#00ff00" stroke-width=".2718" points="210.5001,-200.8766 207,-190.8767 203.5001,-200.8767 210.5001,-200.8766"/>
</g>
<!-- 861&#45;&gt;864 -->
<g id="edge3" class="edge">
<title>861&#45;&gt;864</title>
<path fill="none" stroke="#00ff00" stroke-width=".6073" d="M309.9554,-235.6088C305.7453,-232.6873 301.2296,-229.5985 297,-226.7939 276.0128,-212.8777 251.8717,-197.6683 233.8787,-186.4842"/>
<polygon fill="#00ff00" stroke="#00ff00" stroke-width=".6073" points="235.423,-183.3237 225.0792,-181.0308 231.7355,-189.2737 235.423,-183.3237"/>
</g>
<!-- 862&#45;&gt;864 -->
<g id="edge14" class="edge">
<title>862&#45;&gt;864</title>
<path fill="none" stroke="#00ff00" stroke-width=".5999" d="M160.0191,-230.7897C168.173,-220.2278 178.8222,-206.4335 187.92,-194.6491"/>
<polygon fill="#00ff00" stroke="#00ff00" stroke-width=".5999" points="190.8719,-196.5528 194.2124,-186.4983 185.331,-192.2751 190.8719,-196.5528"/>
</g>
</g>
</svg>
