<?xml version="1.0" encoding="UTF-8" standalone="no"?>
<!DOCTYPE svg PUBLIC "-//W3C//DTD SVG 1.1//EN"
 "http://www.w3.org/Graphics/SVG/1.1/DTD/svg11.dtd">
<!-- Generated by graphviz version 2.40.1 (20161225.0304)
 -->
<!-- Title: %3 Pages: 1 -->
<svg width="452pt" height="368pt"
 viewBox="0.00 0.00 452.08 367.61" xmlns="http://www.w3.org/2000/svg" xmlns:xlink="http://www.w3.org/1999/xlink">
<g id="graph0" class="graph" transform="scale(1 1) rotate(0) translate(4 363.6051)">
<title>%3</title>
<polygon fill="#ffffff" stroke="transparent" points="-4,4 -4,-363.6051 448.0833,-363.6051 448.0833,4 -4,4"/>
<!-- x0 -->
<g id="node1" class="node">
<title>x0</title>
<polygon fill="#d3d3d3" stroke="#000000" points="438.0416,-359.6051 402.0416,-359.6051 402.0416,-323.6051 438.0416,-323.6051 438.0416,-359.6051"/>
<text text-anchor="middle" x="420.0416" y="-338.9051" font-family="Times,serif" font-size="9.00" fill="#000000">x0</text>
</g>
<!-- 2594 -->
<g id="node13" class="node">
<title>2594</title>
<ellipse fill="#ffffff" stroke="#000000" cx="354.0416" cy="-263.5635" rx="24.0833" ry="24.0833"/>
<text text-anchor="middle" x="354.0416" y="-260.8635" font-family="Times,serif" font-size="9.00" fill="#000000">2594</text>
</g>
<!-- x0&#45;&gt;2594 -->
<g id="edge46" class="edge">
<title>x0&#45;&gt;2594</title>
<path fill="none" stroke="#ff0000" stroke-width=".3269" d="M404.734,-323.5046C396.2766,-313.5042 385.6181,-300.901 376.2594,-289.8348"/>
<polygon fill="#ff0000" stroke="#ff0000" stroke-width=".3269" points="378.8545,-287.4832 369.7245,-282.1077 373.5095,-292.0034 378.8545,-287.4832"/>
</g>
<!-- 2596 -->
<g id="node15" class="node">
<title>2596</title>
<ellipse fill="#ffffff" stroke="#000000" cx="420.0416" cy="-263.5635" rx="24.0833" ry="24.0833"/>
<text text-anchor="middle" x="420.0416" y="-260.8635" font-family="Times,serif" font-size="9.00" fill="#000000">2596</text>
</g>
<!-- x0&#45;&gt;2596 -->
<g id="edge33" class="edge">
<title>x0&#45;&gt;2596</title>
<path fill="none" stroke="#ff0000" stroke-width=".7283" d="M420.0416,-323.5046C420.0416,-315.8668 420.0416,-306.7107 420.0416,-297.8806"/>
<polygon fill="#ff0000" stroke="#ff0000" stroke-width=".7283" points="423.5417,-297.7752 420.0416,-287.7752 416.5417,-297.7752 423.5417,-297.7752"/>
</g>
<!-- x1 -->
<g id="node2" class="node">
<title>x1</title>
<polygon fill="#d3d3d3" stroke="#000000" points="330.0416,-359.6051 294.0416,-359.6051 294.0416,-323.6051 330.0416,-323.6051 330.0416,-359.6051"/>
<text text-anchor="middle" x="312.0416" y="-338.9051" font-family="Times,serif" font-size="9.00" fill="#000000">x1</text>
</g>
<!-- 2591 -->
<g id="node10" class="node">
<title>2591</title>
<ellipse fill="#ffffff" stroke="#000000" cx="156.0416" cy="-263.5635" rx="24.0833" ry="24.0833"/>
<text text-anchor="middle" x="156.0416" y="-260.8635" font-family="Times,serif" font-size="9.00" fill="#000000">2591</text>
</g>
<!-- x1&#45;&gt;2591 -->
<g id="edge3" class="edge">
<title>x1&#45;&gt;2591</title>
<path fill="none" stroke="#00ff00" stroke-width=".3469" d="M293.7905,-328.6317C290.9262,-326.8334 287.9498,-325.0948 285.0416,-323.6051 244.4848,-302.8305 229.1575,-309.2191 189.0416,-287.6051 187.2632,-286.6469 185.4717,-285.6041 183.6921,-284.5073"/>
<polygon fill="#00ff00" stroke="#00ff00" stroke-width=".3469" points="185.2708,-281.3532 175.0092,-278.7167 181.3869,-287.1769 185.2708,-281.3532"/>
</g>
<!-- x1&#45;&gt;2594 -->
<g id="edge21" class="edge">
<title>x1&#45;&gt;2594</title>
<path fill="none" stroke="#00ff00" stroke-width=".6088" d="M321.7828,-323.5046C326.5325,-314.6792 332.3731,-303.8266 337.7733,-293.7923"/>
<polygon fill="#00ff00" stroke="#00ff00" stroke-width=".6088" points="340.9079,-295.3532 342.5649,-284.8887 334.7438,-292.0358 340.9079,-295.3532"/>
</g>
<!-- x1&#45;&gt;2596 -->
<g id="edge34" class="edge">
<title>x1&#45;&gt;2596</title>
<path fill="none" stroke="#ff0000" stroke-width=".8318" d="M330.2485,-328.5394C345.4493,-317.6205 367.6798,-301.6281 387.0416,-287.6051 388.6778,-286.4201 390.3586,-285.201 392.0539,-283.9701"/>
<polygon fill="#ff0000" stroke="#ff0000" stroke-width=".8318" points="394.4821,-286.5319 400.5111,-277.8198 390.365,-280.8706 394.4821,-286.5319"/>
</g>
<!-- x2 -->
<g id="node3" class="node">
<title>x2</title>
<polygon fill="#d3d3d3" stroke="#000000" points="276.0416,-359.6051 240.0416,-359.6051 240.0416,-323.6051 276.0416,-323.6051 276.0416,-359.6051"/>
<text text-anchor="middle" x="258.0416" y="-338.9051" font-family="Times,serif" font-size="9.00" fill="#000000">x2</text>
</g>
<!-- 2592 -->
<g id="node11" class="node">
<title>2592</title>
<ellipse fill="#ffffff" stroke="#000000" cx="222.0416" cy="-263.5635" rx="24.0833" ry="24.0833"/>
<text text-anchor="middle" x="222.0416" y="-260.8635" font-family="Times,serif" font-size="9.00" fill="#000000">2592</text>
</g>
<!-- x2&#45;&gt;2592 -->
<g id="edge40" class="edge">
<title>x2&#45;&gt;2592</title>
<path fill="none" stroke="#00ff00" stroke-width=".439" d="M249.692,-323.5046C245.7254,-314.9057 240.8711,-304.3824 236.3431,-294.5666"/>
<polygon fill="#00ff00" stroke="#00ff00" stroke-width=".439" points="239.5084,-293.0725 232.1415,-285.4581 233.1521,-296.0047 239.5084,-293.0725"/>
</g>
<!-- x2&#45;&gt;2594 -->
<g id="edge14" class="edge">
<title>x2&#45;&gt;2594</title>
<path fill="none" stroke="#ff0000" stroke-width=".448" d="M276.0985,-326.9261C290.4366,-315.2702 310.7096,-298.7895 326.9859,-285.558"/>
<polygon fill="#ff0000" stroke="#ff0000" stroke-width=".448" points="329.5288,-288.0015 335.0805,-278.9776 325.1132,-282.5698 329.5288,-288.0015"/>
</g>
<!-- 2595 -->
<g id="node14" class="node">
<title>2595</title>
<ellipse fill="#ffffff" stroke="#000000" cx="90.0416" cy="-263.5635" rx="24.0833" ry="24.0833"/>
<text text-anchor="middle" x="90.0416" y="-260.8635" font-family="Times,serif" font-size="9.00" fill="#000000">2595</text>
</g>
<!-- x2&#45;&gt;2595 -->
<g id="edge11" class="edge">
<title>x2&#45;&gt;2595</title>
<path fill="none" stroke="#ff0000" stroke-width=".12" d="M239.8391,-328.5346C236.9681,-326.7498 233.9769,-325.0407 231.0416,-323.6051 185.5901,-301.3755 168.0208,-310.7757 123.0416,-287.6051 121.2457,-286.68 119.4407,-285.6629 117.6508,-284.5857"/>
<polygon fill="#ff0000" stroke="#ff0000" stroke-width=".12" points="119.2166,-281.426 108.9403,-278.8475 115.3657,-287.2716 119.2166,-281.426"/>
</g>
<!-- x2&#45;&gt;2596 -->
<g id="edge1" class="edge">
<title>x2&#45;&gt;2596</title>
<path fill="none" stroke="#ff0000" stroke-width=".7315" d="M276.267,-328.5808C279.1349,-326.7895 282.1191,-325.0664 285.0416,-323.6051 328.0403,-302.1058 344.4996,-309.9945 387.0416,-287.6051 388.8293,-286.6643 390.628,-285.6349 392.413,-284.5485"/>
<polygon fill="#ff0000" stroke="#ff0000" stroke-width=".7315" points="394.7078,-287.2266 401.1106,-278.7854 390.8413,-281.3913 394.7078,-287.2266"/>
</g>
<!-- x3 -->
<g id="node4" class="node">
<title>x3</title>
<polygon fill="#d3d3d3" stroke="#000000" points="384.0416,-359.6051 348.0416,-359.6051 348.0416,-323.6051 384.0416,-323.6051 384.0416,-359.6051"/>
<text text-anchor="middle" x="366.0416" y="-338.9051" font-family="Times,serif" font-size="9.00" fill="#000000">x3</text>
</g>
<!-- x3&#45;&gt;2594 -->
<g id="edge23" class="edge">
<title>x3&#45;&gt;2594</title>
<path fill="none" stroke="#ff0000" stroke-width=".7872" d="M363.2584,-323.5046C362.074,-315.8021 360.6522,-306.5554 359.2839,-297.6562"/>
<polygon fill="#ff0000" stroke="#ff0000" stroke-width=".7872" points="362.6987,-296.8342 357.7195,-287.4823 355.78,-297.8981 362.6987,-296.8342"/>
</g>
<!-- x3&#45;&gt;2596 -->
<g id="edge6" class="edge">
<title>x3&#45;&gt;2596</title>
<path fill="none" stroke="#00ff00" stroke-width=".9" d="M378.566,-323.5046C385.0408,-314.1473 393.0923,-302.5111 400.3739,-291.9876"/>
<polygon fill="#00ff00" stroke="#00ff00" stroke-width=".9" points="403.446,-293.6988 406.2579,-283.4839 397.6897,-289.7157 403.446,-293.6988"/>
</g>
<!-- 2598 -->
<g id="node16" class="node">
<title>2598</title>
<ellipse fill="#ffffff" stroke="#000000" cx="288.0416" cy="-263.5635" rx="24.0833" ry="24.0833"/>
<text text-anchor="middle" x="288.0416" y="-260.8635" font-family="Times,serif" font-size="9.00" fill="#000000">2598</text>
</g>
<!-- x3&#45;&gt;2598 -->
<g id="edge29" class="edge">
<title>x3&#45;&gt;2598</title>
<path fill="none" stroke="#ff0000" stroke-width=".2821" d="M347.9508,-323.5046C337.3925,-312.9407 323.9313,-299.4723 312.4445,-287.9794"/>
<polygon fill="#ff0000" stroke="#ff0000" stroke-width=".2821" points="314.7762,-285.3613 305.2315,-280.7625 309.8251,-290.3097 314.7762,-285.3613"/>
</g>
<!-- x4 -->
<g id="node5" class="node">
<title>x4</title>
<polygon fill="#d3d3d3" stroke="#000000" points="168.0416,-359.6051 132.0416,-359.6051 132.0416,-323.6051 168.0416,-323.6051 168.0416,-359.6051"/>
<text text-anchor="middle" x="150.0416" y="-338.9051" font-family="Times,serif" font-size="9.00" fill="#000000">x4</text>
</g>
<!-- x4&#45;&gt;2591 -->
<g id="edge20" class="edge">
<title>x4&#45;&gt;2591</title>
<path fill="none" stroke="#00ff00" stroke-width=".159" d="M151.4332,-323.5046C152.0204,-315.8668 152.7244,-306.7107 153.4033,-297.8806"/>
<polygon fill="#00ff00" stroke="#00ff00" stroke-width=".159" points="156.9032,-298.0141 154.1802,-287.7752 149.9238,-297.4775 156.9032,-298.0141"/>
</g>
<!-- x4&#45;&gt;2592 -->
<g id="edge9" class="edge">
<title>x4&#45;&gt;2592</title>
<path fill="none" stroke="#00ff00" stroke-width=".2669" d="M166.7408,-323.5046C176.2592,-313.1876 188.3332,-300.1004 198.7694,-288.7885"/>
<polygon fill="#00ff00" stroke="#00ff00" stroke-width=".2669" points="201.4728,-291.0199 205.6812,-281.2967 196.3279,-286.2733 201.4728,-291.0199"/>
</g>
<!-- 2593 -->
<g id="node12" class="node">
<title>2593</title>
<ellipse fill="#ffffff" stroke="#000000" cx="24.0416" cy="-263.5635" rx="24.0833" ry="24.0833"/>
<text text-anchor="middle" x="24.0416" y="-260.8635" font-family="Times,serif" font-size="9.00" fill="#000000">2593</text>
</g>
<!-- x4&#45;&gt;2593 -->
<g id="edge36" class="edge">
<title>x4&#45;&gt;2593</title>
<path fill="none" stroke="#ff0000" stroke-width=".484" d="M131.8808,-331.7923C112.8892,-321.362 82.3768,-304.126 57.0416,-287.6051 55.3494,-286.5017 53.625,-285.3459 51.8965,-284.1632"/>
<polygon fill="#ff0000" stroke="#ff0000" stroke-width=".484" points="53.5412,-281.0405 43.3504,-278.1422 49.5095,-286.7629 53.5412,-281.0405"/>
</g>
<!-- x4&#45;&gt;2595 -->
<g id="edge42" class="edge">
<title>x4&#45;&gt;2595</title>
<path fill="none" stroke="#00ff00" stroke-width=".456" d="M136.1256,-323.5046C128.6221,-313.7448 119.2126,-301.506 110.8557,-290.6362"/>
<polygon fill="#00ff00" stroke="#00ff00" stroke-width=".456" points="113.5891,-288.4492 104.7193,-282.6546 108.0396,-292.7157 113.5891,-288.4492"/>
</g>
<!-- x4&#45;&gt;2598 -->
<g id="edge27" class="edge">
<title>x4&#45;&gt;2598</title>
<path fill="none" stroke="#ff0000" stroke-width=".1379" d="M168.1002,-329.0109C171.0417,-327.1216 174.0919,-325.2559 177.0416,-323.6051 210.3599,-304.9593 222.1185,-306.9402 255.0416,-287.6051 256.7836,-286.5821 258.5467,-285.4889 260.3047,-284.3538"/>
<polygon fill="#ff0000" stroke="#ff0000" stroke-width=".1379" points="262.6478,-286.9919 268.9298,-278.4603 258.6986,-281.2122 262.6478,-286.9919"/>
</g>
<!-- x5 -->
<g id="node6" class="node">
<title>x5</title>
<polygon fill="#d3d3d3" stroke="#000000" points="48.0416,-359.6051 12.0416,-359.6051 12.0416,-323.6051 48.0416,-323.6051 48.0416,-359.6051"/>
<text text-anchor="middle" x="30.0416" y="-338.9051" font-family="Times,serif" font-size="9.00" fill="#000000">x5</text>
</g>
<!-- x5&#45;&gt;2593 -->
<g id="edge32" class="edge">
<title>x5&#45;&gt;2593</title>
<path fill="none" stroke="#ff0000" stroke-width=".9" d="M28.65,-323.5046C28.0628,-315.8668 27.3589,-306.7107 26.68,-297.8806"/>
<polygon fill="#ff0000" stroke="#ff0000" stroke-width=".9" points="30.1594,-297.4775 25.9031,-287.7752 23.18,-298.0141 30.1594,-297.4775"/>
</g>
<!-- x5&#45;&gt;2595 -->
<g id="edge22" class="edge">
<title>x5&#45;&gt;2595</title>
<path fill="none" stroke="#ff0000" stroke-width=".4157" d="M43.9576,-323.5046C51.4612,-313.7448 60.8706,-301.506 69.2276,-290.6362"/>
<polygon fill="#ff0000" stroke="#ff0000" stroke-width=".4157" points="72.0436,-292.7157 75.364,-282.6546 66.4941,-288.4492 72.0436,-292.7157"/>
</g>
<!-- x6 -->
<g id="node7" class="node">
<title>x6</title>
<polygon fill="#d3d3d3" stroke="#000000" points="222.0416,-359.6051 186.0416,-359.6051 186.0416,-323.6051 222.0416,-323.6051 222.0416,-359.6051"/>
<text text-anchor="middle" x="204.0416" y="-338.9051" font-family="Times,serif" font-size="9.00" fill="#000000">x6</text>
</g>
<!-- x6&#45;&gt;2591 -->
<g id="edge47" class="edge">
<title>x6&#45;&gt;2591</title>
<path fill="none" stroke="#ff0000" stroke-width=".1322" d="M192.9088,-323.5046C187.2967,-314.3802 180.352,-303.0889 174.0085,-292.7753"/>
<polygon fill="#ff0000" stroke="#ff0000" stroke-width=".1322" points="176.8576,-290.7267 168.6374,-284.0425 170.8951,-294.394 176.8576,-290.7267"/>
</g>
<!-- x6&#45;&gt;2592 -->
<g id="edge31" class="edge">
<title>x6&#45;&gt;2592</title>
<path fill="none" stroke="#ff0000" stroke-width=".2222" d="M208.2164,-323.5046C210.0274,-315.6529 212.2084,-306.1967 214.2974,-297.1396"/>
<polygon fill="#ff0000" stroke="#ff0000" stroke-width=".2222" points="217.7551,-297.7212 216.5922,-287.1903 210.9342,-296.1479 217.7551,-297.7212"/>
</g>
<!-- x6&#45;&gt;2593 -->
<g id="edge12" class="edge">
<title>x6&#45;&gt;2593</title>
<path fill="none" stroke="#00ff00" stroke-width=".2615" d="M185.8775,-328.4546C183.0012,-326.6807 179.9983,-324.9961 177.0416,-323.6051 126.6572,-299.9017 106.922,-312.3518 57.0416,-287.6051 55.2319,-286.7073 53.4162,-285.7114 51.6181,-284.6504"/>
<polygon fill="#00ff00" stroke="#00ff00" stroke-width=".2615" points="53.1738,-281.4864 42.8857,-278.9555 49.35,-287.3498 53.1738,-281.4864"/>
</g>
<!-- x6&#45;&gt;2594 -->
<g id="edge13" class="edge">
<title>x6&#45;&gt;2594</title>
<path fill="none" stroke="#ff0000" stroke-width=".1081" d="M222.3221,-328.6883C225.1824,-326.8822 228.1498,-325.1263 231.0416,-323.6051 269.1696,-303.5487 283.3393,-308.4506 321.0416,-287.6051 322.8096,-286.6276 324.5929,-285.5698 326.3662,-284.4617"/>
<polygon fill="#ff0000" stroke="#ff0000" stroke-width=".1081" points="328.6829,-287.1219 335.0325,-278.6405 324.7797,-281.3111 328.6829,-287.1219"/>
</g>
<!-- x6&#45;&gt;2595 -->
<g id="edge35" class="edge">
<title>x6&#45;&gt;2595</title>
<path fill="none" stroke="#ff0000" stroke-width=".7306" d="M186.0326,-329.5991C183.0301,-327.5974 179.9479,-325.5426 177.0416,-323.6051 153.0416,-307.6051 146.7035,-304.101 123.0416,-287.6051 121.3844,-286.4498 119.6872,-285.2537 117.9794,-284.0403"/>
<polygon fill="#ff0000" stroke="#ff0000" stroke-width=".7306" points="119.6516,-280.9319 109.4888,-277.9371 115.5658,-286.6158 119.6516,-280.9319"/>
</g>
<!-- x6&#45;&gt;2598 -->
<g id="edge5" class="edge">
<title>x6&#45;&gt;2598</title>
<path fill="none" stroke="#ff0000" stroke-width=".1245" d="M222.2684,-324.6713C234.2078,-313.5788 249.9688,-298.9357 263.0692,-286.7645"/>
<polygon fill="#ff0000" stroke="#ff0000" stroke-width=".1245" points="265.4822,-289.3002 270.4261,-279.9295 260.7177,-284.1719 265.4822,-289.3002"/>
</g>
<!-- x7 -->
<g id="node8" class="node">
<title>x7</title>
<polygon fill="#d3d3d3" stroke="#000000" points="108.0416,-359.6051 72.0416,-359.6051 72.0416,-323.6051 108.0416,-323.6051 108.0416,-359.6051"/>
<text text-anchor="middle" x="90.0416" y="-338.9051" font-family="Times,serif" font-size="9.00" fill="#000000">x7</text>
</g>
<!-- x7&#45;&gt;2591 -->
<g id="edge41" class="edge">
<title>x7&#45;&gt;2591</title>
<path fill="none" stroke="#00ff00" stroke-width=".1082" d="M105.3492,-323.5046C113.8066,-313.5042 124.4652,-300.901 133.8239,-289.8348"/>
<polygon fill="#00ff00" stroke="#00ff00" stroke-width=".1082" points="136.5737,-292.0034 140.3587,-282.1077 131.2288,-287.4832 136.5737,-292.0034"/>
</g>
<!-- x7&#45;&gt;2593 -->
<g id="edge26" class="edge">
<title>x7&#45;&gt;2593</title>
<path fill="none" stroke="#ff0000" stroke-width=".9" d="M74.734,-323.5046C66.2766,-313.5042 55.6181,-300.901 46.2594,-289.8348"/>
<polygon fill="#ff0000" stroke="#ff0000" stroke-width=".9" points="48.8545,-287.4832 39.7245,-282.1077 43.5095,-292.0034 48.8545,-287.4832"/>
</g>
<!-- x7&#45;&gt;2595 -->
<g id="edge37" class="edge">
<title>x7&#45;&gt;2595</title>
<path fill="none" stroke="#ff0000" stroke-width=".3667" d="M90.0416,-323.5046C90.0416,-315.8668 90.0416,-306.7107 90.0416,-297.8806"/>
<polygon fill="#ff0000" stroke="#ff0000" stroke-width=".3667" points="93.5417,-297.7752 90.0416,-287.7752 86.5417,-297.7752 93.5417,-297.7752"/>
</g>
<!-- y0 -->
<g id="node9" class="node">
<title>y0</title>
<ellipse fill="#add8e6" stroke="#000000" cx="222.0416" cy="-17.6777" rx="17.8571" ry="17.8571"/>
<text text-anchor="middle" x="222.0416" y="-14.9777" font-family="Times,serif" font-size="9.00" fill="#000000">y0</text>
</g>
<!-- 2599 -->
<g id="node17" class="node">
<title>2599</title>
<ellipse fill="#ffffff" stroke="#000000" cx="156.0416" cy="-179.4802" rx="24.0833" ry="24.0833"/>
<text text-anchor="middle" x="156.0416" y="-176.7802" font-family="Times,serif" font-size="9.00" fill="#000000">2599</text>
</g>
<!-- 2591&#45;&gt;2599 -->
<g id="edge7" class="edge">
<title>2591&#45;&gt;2599</title>
<path fill="none" stroke="#00ff00" stroke-width=".3021" d="M156.0416,-239.2431C156.0416,-231.3123 156.0416,-222.3516 156.0416,-213.8278"/>
<polygon fill="#00ff00" stroke="#00ff00" stroke-width=".3021" points="159.5417,-213.7459 156.0416,-203.7459 152.5417,-213.746 159.5417,-213.7459"/>
</g>
<!-- 2600 -->
<g id="node18" class="node">
<title>2600</title>
<ellipse fill="#ffffff" stroke="#000000" cx="288.0416" cy="-179.4802" rx="24.0833" ry="24.0833"/>
<text text-anchor="middle" x="288.0416" y="-176.7802" font-family="Times,serif" font-size="9.00" fill="#000000">2600</text>
</g>
<!-- 2591&#45;&gt;2600 -->
<g id="edge17" class="edge">
<title>2591&#45;&gt;2600</title>
<path fill="none" stroke="#ff0000" stroke-width=".1024" d="M175.2927,-248.8949C179.7328,-245.6936 184.4902,-242.4039 189.0416,-239.5219 217.2713,-221.6465 226.812,-221.3973 255.0416,-203.5219 256.7484,-202.4411 258.4842,-201.303 260.2213,-200.1338"/>
<polygon fill="#ff0000" stroke="#ff0000" stroke-width=".1024" points="262.5962,-202.7442 268.7905,-194.1488 258.588,-197.0053 262.5962,-202.7442"/>
</g>
<!-- 2592&#45;&gt;2599 -->
<g id="edge24" class="edge">
<title>2592&#45;&gt;2599</title>
<path fill="none" stroke="#ff0000" stroke-width=".17" d="M207.0652,-244.4837C198.2892,-233.3031 187.0599,-218.9971 177.3711,-206.6538"/>
<polygon fill="#ff0000" stroke="#ff0000" stroke-width=".17" points="179.8864,-204.1896 170.9588,-198.4845 174.3801,-208.5118 179.8864,-204.1896"/>
</g>
<!-- 2593&#45;&gt;2599 -->
<g id="edge45" class="edge">
<title>2593&#45;&gt;2599</title>
<path fill="none" stroke="#ff0000" stroke-width=".2584" d="M43.3924,-249.0485C47.8273,-245.8392 52.5574,-242.5074 57.0416,-239.5219 79.7196,-224.4231 106.1343,-208.4822 125.9725,-196.8231"/>
<polygon fill="#ff0000" stroke="#ff0000" stroke-width=".2584" points="127.9954,-199.6948 134.862,-191.6263 124.4625,-193.6516 127.9954,-199.6948"/>
</g>
<!-- 2601 -->
<g id="node19" class="node">
<title>2601</title>
<ellipse fill="#ffffff" stroke="#000000" cx="222.0416" cy="-179.4802" rx="24.0833" ry="24.0833"/>
<text text-anchor="middle" x="222.0416" y="-176.7802" font-family="Times,serif" font-size="9.00" fill="#000000">2601</text>
</g>
<!-- 2593&#45;&gt;2601 -->
<g id="edge8" class="edge">
<title>2593&#45;&gt;2601</title>
<path fill="none" stroke="#ff0000" stroke-width=".4843" d="M42.8415,-248.081C47.3049,-244.9218 52.186,-241.8551 57.0416,-239.5219 111.8517,-213.1849 134.2316,-229.8588 189.0416,-203.5219 190.8625,-202.6469 192.687,-201.6688 194.4916,-200.6213"/>
<polygon fill="#ff0000" stroke="#ff0000" stroke-width=".4843" points="196.7453,-203.3321 203.2418,-194.9627 192.944,-197.4541 196.7453,-203.3321"/>
</g>
<!-- 2594&#45;&gt;2601 -->
<g id="edge18" class="edge">
<title>2594&#45;&gt;2601</title>
<path fill="none" stroke="#ff0000" stroke-width=".8278" d="M334.7905,-248.8949C330.3505,-245.6936 325.593,-242.4039 321.0416,-239.5219 292.812,-221.6465 283.2713,-221.3973 255.0416,-203.5219 253.3349,-202.4411 251.5991,-201.303 249.862,-200.1338"/>
<polygon fill="#ff0000" stroke="#ff0000" stroke-width=".8278" points="251.4952,-197.0053 241.2927,-194.1488 247.487,-202.7442 251.4952,-197.0053"/>
</g>
<!-- 2595&#45;&gt;2599 -->
<g id="edge16" class="edge">
<title>2595&#45;&gt;2599</title>
<path fill="none" stroke="#ff0000" stroke-width=".5528" d="M105.0181,-244.4837C113.7941,-233.3031 125.0234,-218.9971 134.7121,-206.6538"/>
<polygon fill="#ff0000" stroke="#ff0000" stroke-width=".5528" points="137.7032,-208.5118 141.1245,-198.4845 132.1968,-204.1896 137.7032,-208.5118"/>
</g>
<!-- 2595&#45;&gt;2601 -->
<g id="edge15" class="edge">
<title>2595&#45;&gt;2601</title>
<path fill="none" stroke="#ff0000" stroke-width=".3461" d="M109.2927,-248.8949C113.7328,-245.6936 118.4902,-242.4039 123.0416,-239.5219 151.2713,-221.6465 160.812,-221.3973 189.0416,-203.5219 190.7484,-202.4411 192.4842,-201.303 194.2213,-200.1338"/>
<polygon fill="#ff0000" stroke="#ff0000" stroke-width=".3461" points="196.5962,-202.7442 202.7905,-194.1488 192.588,-197.0053 196.5962,-202.7442"/>
</g>
<!-- 2596&#45;&gt;2599 -->
<g id="edge44" class="edge">
<title>2596&#45;&gt;2599</title>
<path fill="none" stroke="#00ff00" stroke-width=".2542" d="M401.3845,-247.7667C396.9137,-244.6239 391.9935,-241.6432 387.0416,-239.5219 304.8254,-204.3014 271.2579,-238.7424 189.0416,-203.5219 187.1847,-202.7264 185.3322,-201.81 183.5062,-200.8096"/>
<polygon fill="#00ff00" stroke="#00ff00" stroke-width=".2542" points="185.0284,-197.6326 174.6988,-195.277 181.3049,-203.5601 185.0284,-197.6326"/>
</g>
<!-- 2596&#45;&gt;2600 -->
<g id="edge38" class="edge">
<title>2596&#45;&gt;2600</title>
<path fill="none" stroke="#00ff00" stroke-width=".3285" d="M400.6908,-249.0485C396.256,-245.8392 391.5258,-242.5074 387.0416,-239.5219 364.3637,-224.4231 337.9489,-208.4822 318.1108,-196.8231"/>
<polygon fill="#00ff00" stroke="#00ff00" stroke-width=".3285" points="319.6207,-193.6516 309.2213,-191.6263 316.0879,-199.6948 319.6207,-193.6516"/>
</g>
<!-- 2596&#45;&gt;2601 -->
<g id="edge39" class="edge">
<title>2596&#45;&gt;2601</title>
<path fill="none" stroke="#ff0000" stroke-width=".4984" d="M401.2418,-248.081C396.7784,-244.9218 391.8973,-241.8551 387.0416,-239.5219 332.2316,-213.1849 309.8517,-229.8588 255.0416,-203.5219 253.2208,-202.6469 251.3963,-201.6688 249.5917,-200.6213"/>
<polygon fill="#ff0000" stroke="#ff0000" stroke-width=".4984" points="251.1392,-197.4541 240.8415,-194.9627 247.338,-203.3321 251.1392,-197.4541"/>
</g>
<!-- 2598&#45;&gt;2600 -->
<g id="edge28" class="edge">
<title>2598&#45;&gt;2600</title>
<path fill="none" stroke="#00ff00" stroke-width=".2536" d="M288.0416,-239.2431C288.0416,-231.3123 288.0416,-222.3516 288.0416,-213.8278"/>
<polygon fill="#00ff00" stroke="#00ff00" stroke-width=".2536" points="291.5417,-213.7459 288.0416,-203.7459 284.5417,-213.746 291.5417,-213.7459"/>
</g>
<!-- 2598&#45;&gt;2601 -->
<g id="edge2" class="edge">
<title>2598&#45;&gt;2601</title>
<path fill="none" stroke="#00ff00" stroke-width=".1562" d="M273.0652,-244.4837C264.2892,-233.3031 253.0599,-218.9971 243.3711,-206.6538"/>
<polygon fill="#00ff00" stroke="#00ff00" stroke-width=".1562" points="245.8864,-204.1896 236.9588,-198.4845 240.3801,-208.5118 245.8864,-204.1896"/>
</g>
<!-- 2604 -->
<g id="node21" class="node">
<title>2604</title>
<ellipse fill="#ffffff" stroke="#000000" cx="189.0416" cy="-95.397" rx="24.0833" ry="24.0833"/>
<text text-anchor="middle" x="189.0416" y="-92.697" font-family="Times,serif" font-size="9.00" fill="#000000">2604</text>
</g>
<!-- 2599&#45;&gt;2604 -->
<g id="edge30" class="edge">
<title>2599&#45;&gt;2604</title>
<path fill="none" stroke="#ff0000" stroke-width=".285" d="M164.885,-156.9475C168.4361,-147.8994 172.5951,-137.3023 176.4517,-127.4757"/>
<polygon fill="#ff0000" stroke="#ff0000" stroke-width=".285" points="179.7784,-128.5794 180.1738,-117.9919 173.2623,-126.022 179.7784,-128.5794"/>
</g>
<!-- 2600&#45;&gt;2604 -->
<g id="edge43" class="edge">
<title>2600&#45;&gt;2604</title>
<path fill="none" stroke="#00ff00" stroke-width=".5603" d="M269.4205,-163.6648C254.2099,-150.746 232.5224,-132.3263 215.5077,-117.8753"/>
<polygon fill="#00ff00" stroke="#00ff00" stroke-width=".5603" points="217.467,-114.9473 207.5793,-111.1415 212.9355,-120.2827 217.467,-114.9473"/>
</g>
<!-- 2603 -->
<g id="node20" class="node">
<title>2603</title>
<ellipse fill="#ffffff" stroke="#000000" cx="255.0416" cy="-95.397" rx="24.0833" ry="24.0833"/>
<text text-anchor="middle" x="255.0416" y="-92.697" font-family="Times,serif" font-size="9.00" fill="#000000">2603</text>
</g>
<!-- 2601&#45;&gt;2603 -->
<g id="edge19" class="edge">
<title>2601&#45;&gt;2603</title>
<path fill="none" stroke="#ff0000" stroke-width=".3202" d="M230.885,-156.9475C234.4361,-147.8994 238.5951,-137.3023 242.4517,-127.4757"/>
<polygon fill="#ff0000" stroke="#ff0000" stroke-width=".3202" points="245.7784,-128.5794 246.1738,-117.9919 239.2623,-126.022 245.7784,-128.5794"/>
</g>
<!-- 2601&#45;&gt;2604 -->
<g id="edge25" class="edge">
<title>2601&#45;&gt;2604</title>
<path fill="none" stroke="#ff0000" stroke-width=".9" d="M213.1982,-156.9475C209.6472,-147.8994 205.4881,-137.3023 201.6315,-127.4757"/>
<polygon fill="#ff0000" stroke="#ff0000" stroke-width=".9" points="204.8209,-126.022 197.9094,-117.9919 198.3048,-128.5794 204.8209,-126.022"/>
</g>
<!-- 2603&#45;&gt;y0 -->
<g id="edge10" class="edge">
<title>2603&#45;&gt;y0</title>
<path fill="none" stroke="#ff0000" stroke-width=".4976" d="M245.4967,-72.9173C241.5974,-63.734 237.0638,-53.0568 233.0276,-43.551"/>
<polygon fill="#ff0000" stroke="#ff0000" stroke-width=".4976" points="236.1789,-42.0174 229.0489,-34.1807 229.7357,-44.7533 236.1789,-42.0174"/>
</g>
<!-- 2604&#45;&gt;y0 -->
<g id="edge4" class="edge">
<title>2604&#45;&gt;y0</title>
<path fill="none" stroke="#ff0000" stroke-width=".9" d="M198.5866,-72.9173C202.4859,-63.734 207.0195,-53.0568 211.0557,-43.551"/>
<polygon fill="#ff0000" stroke="#ff0000" stroke-width=".9" points="214.3476,-44.7533 215.0343,-34.1807 207.9043,-42.0174 214.3476,-44.7533"/>
</g>
</g>
</svg>
