<?xml version="1.0" encoding="UTF-8" standalone="no"?>
<!DOCTYPE svg PUBLIC "-//W3C//DTD SVG 1.1//EN"
 "http://www.w3.org/Graphics/SVG/1.1/DTD/svg11.dtd">
<!-- Generated by graphviz version 2.40.1 (20161225.0304)
 -->
<!-- Title: %3 Pages: 1 -->
<svg width="452pt" height="368pt"
 viewBox="0.00 0.00 452.08 367.61" xmlns="http://www.w3.org/2000/svg" xmlns:xlink="http://www.w3.org/1999/xlink">
<g id="graph0" class="graph" transform="scale(1 1) rotate(0) translate(4 363.6051)">
<title>%3</title>
<polygon fill="#ffffff" stroke="transparent" points="-4,4 -4,-363.6051 448.0833,-363.6051 448.0833,4 -4,4"/>
<!-- x0 -->
<g id="node1" class="node">
<title>x0</title>
<polygon fill="#d3d3d3" stroke="#000000" points="100.0416,-359.6051 64.0416,-359.6051 64.0416,-323.6051 100.0416,-323.6051 100.0416,-359.6051"/>
<text text-anchor="middle" x="82.0416" y="-338.9051" font-family="Times,serif" font-size="9.00" fill="#000000">x0</text>
</g>
<!-- 2913 -->
<g id="node10" class="node">
<title>2913</title>
<ellipse fill="#ffffff" stroke="#000000" cx="288.0416" cy="-263.5635" rx="24.0833" ry="24.0833"/>
<text text-anchor="middle" x="288.0416" y="-260.8635" font-family="Times,serif" font-size="9.00" fill="#000000">2913</text>
</g>
<!-- x0&#45;&gt;2913 -->
<g id="edge3" class="edge">
<title>x0&#45;&gt;2913</title>
<path fill="none" stroke="#00ff00" stroke-width=".1842" d="M100.1454,-328.3219C103.03,-326.5664 106.0513,-324.9222 109.0416,-323.6051 170.2043,-296.6665 194.4527,-315.8106 255.0416,-287.6051 256.8731,-286.7525 258.7058,-285.7918 260.5167,-284.7576"/>
<polygon fill="#00ff00" stroke="#00ff00" stroke-width=".1842" points="262.7559,-287.4795 269.2836,-279.1345 258.9766,-281.5873 262.7559,-287.4795"/>
</g>
<!-- 2914 -->
<g id="node11" class="node">
<title>2914</title>
<ellipse fill="#ffffff" stroke="#000000" cx="24.0416" cy="-263.5635" rx="24.0833" ry="24.0833"/>
<text text-anchor="middle" x="24.0416" y="-260.8635" font-family="Times,serif" font-size="9.00" fill="#000000">2914</text>
</g>
<!-- x0&#45;&gt;2914 -->
<g id="edge10" class="edge">
<title>x0&#45;&gt;2914</title>
<path fill="none" stroke="#00ff00" stroke-width=".382" d="M68.5895,-323.5046C61.46,-313.9116 52.5505,-301.9235 44.5768,-291.1945"/>
<polygon fill="#00ff00" stroke="#00ff00" stroke-width=".382" points="47.2088,-288.8683 38.4346,-282.9299 41.5904,-293.0438 47.2088,-288.8683"/>
</g>
<!-- 2919 -->
<g id="node15" class="node">
<title>2919</title>
<ellipse fill="#ffffff" stroke="#000000" cx="156.0416" cy="-263.5635" rx="24.0833" ry="24.0833"/>
<text text-anchor="middle" x="156.0416" y="-260.8635" font-family="Times,serif" font-size="9.00" fill="#000000">2919</text>
</g>
<!-- x0&#45;&gt;2919 -->
<g id="edge35" class="edge">
<title>x0&#45;&gt;2919</title>
<path fill="none" stroke="#00ff00" stroke-width=".5483" d="M99.2047,-323.5046C109.0568,-313.1145 121.573,-299.9147 132.3509,-288.5481"/>
<polygon fill="#00ff00" stroke="#00ff00" stroke-width=".5483" points="135.1397,-290.6937 139.4807,-281.029 130.0602,-285.8772 135.1397,-290.6937"/>
</g>
<!-- x1 -->
<g id="node2" class="node">
<title>x1</title>
<polygon fill="#d3d3d3" stroke="#000000" points="154.0416,-359.6051 118.0416,-359.6051 118.0416,-323.6051 154.0416,-323.6051 154.0416,-359.6051"/>
<text text-anchor="middle" x="136.0416" y="-338.9051" font-family="Times,serif" font-size="9.00" fill="#000000">x1</text>
</g>
<!-- x1&#45;&gt;2913 -->
<g id="edge13" class="edge">
<title>x1&#45;&gt;2913</title>
<path fill="none" stroke="#ff0000" stroke-width=".5257" d="M154.3119,-328.6687C157.1736,-326.8653 160.1441,-325.1154 163.0416,-323.6051 201.9776,-303.3101 216.5363,-308.7059 255.0416,-287.6051 256.8132,-286.6343 258.5994,-285.5816 260.3749,-284.4774"/>
<polygon fill="#ff0000" stroke="#ff0000" stroke-width=".5257" points="262.6877,-287.1409 269.0469,-278.6668 258.7911,-281.3256 262.6877,-287.1409"/>
</g>
<!-- 2917 -->
<g id="node13" class="node">
<title>2917</title>
<ellipse fill="#ffffff" stroke="#000000" cx="90.0416" cy="-263.5635" rx="24.0833" ry="24.0833"/>
<text text-anchor="middle" x="90.0416" y="-260.8635" font-family="Times,serif" font-size="9.00" fill="#000000">2917</text>
</g>
<!-- x1&#45;&gt;2917 -->
<g id="edge12" class="edge">
<title>x1&#45;&gt;2917</title>
<path fill="none" stroke="#ff0000" stroke-width=".6332" d="M125.3727,-323.5046C120.0355,-314.4498 113.4406,-303.2612 107.3992,-293.0116"/>
<polygon fill="#ff0000" stroke="#ff0000" stroke-width=".6332" points="110.3713,-291.1611 102.2782,-284.3235 104.3409,-294.7156 110.3713,-291.1611"/>
</g>
<!-- x1&#45;&gt;2919 -->
<g id="edge37" class="edge">
<title>x1&#45;&gt;2919</title>
<path fill="none" stroke="#00ff00" stroke-width=".2092" d="M140.6803,-323.5046C142.7311,-315.5023 145.209,-305.8334 147.5704,-296.6191"/>
<polygon fill="#00ff00" stroke="#00ff00" stroke-width=".2092" points="150.9691,-297.4551 150.0613,-286.8993 144.1883,-295.7173 150.9691,-297.4551"/>
</g>
<!-- x2 -->
<g id="node3" class="node">
<title>x2</title>
<polygon fill="#d3d3d3" stroke="#000000" points="43.0416,-359.6051 7.0416,-359.6051 7.0416,-323.6051 43.0416,-323.6051 43.0416,-359.6051"/>
<text text-anchor="middle" x="25.0416" y="-338.9051" font-family="Times,serif" font-size="9.00" fill="#000000">x2</text>
</g>
<!-- x2&#45;&gt;2914 -->
<g id="edge30" class="edge">
<title>x2&#45;&gt;2914</title>
<path fill="none" stroke="#00ff00" stroke-width=".3728" d="M24.8097,-323.5046C24.7118,-315.8668 24.5945,-306.7107 24.4814,-297.8806"/>
<polygon fill="#00ff00" stroke="#00ff00" stroke-width=".3728" points="27.9798,-297.7295 24.3519,-287.7752 20.9804,-297.8193 27.9798,-297.7295"/>
</g>
<!-- 2918 -->
<g id="node14" class="node">
<title>2918</title>
<ellipse fill="#ffffff" stroke="#000000" cx="222.0416" cy="-263.5635" rx="24.0833" ry="24.0833"/>
<text text-anchor="middle" x="222.0416" y="-260.8635" font-family="Times,serif" font-size="9.00" fill="#000000">2918</text>
</g>
<!-- x2&#45;&gt;2918 -->
<g id="edge15" class="edge">
<title>x2&#45;&gt;2918</title>
<path fill="none" stroke="#ff0000" stroke-width=".3323" d="M43.3411,-329.5376C47.1115,-327.3651 51.1279,-325.2665 55.0416,-323.6051 111.8064,-299.509 133.4076,-314.2082 189.0416,-287.6051 190.8642,-286.7336 192.6899,-285.7582 194.4955,-284.7128"/>
<polygon fill="#ff0000" stroke="#ff0000" stroke-width=".3323" points="196.747,-287.4252 203.2483,-279.0597 192.9491,-281.545 196.747,-287.4252"/>
</g>
<!-- x3 -->
<g id="node4" class="node">
<title>x3</title>
<polygon fill="#d3d3d3" stroke="#000000" points="208.0416,-359.6051 172.0416,-359.6051 172.0416,-323.6051 208.0416,-323.6051 208.0416,-359.6051"/>
<text text-anchor="middle" x="190.0416" y="-338.9051" font-family="Times,serif" font-size="9.00" fill="#000000">x3</text>
</g>
<!-- x3&#45;&gt;2913 -->
<g id="edge19" class="edge">
<title>x3&#45;&gt;2913</title>
<path fill="none" stroke="#ff0000" stroke-width=".6565" d="M208.4747,-326.9261C223.2059,-315.195 244.0742,-298.5767 260.7434,-285.3023"/>
<polygon fill="#ff0000" stroke="#ff0000" stroke-width=".6565" points="263.3805,-287.6765 269.0228,-278.709 259.0198,-282.2006 263.3805,-287.6765"/>
</g>
<!-- x3&#45;&gt;2917 -->
<g id="edge1" class="edge">
<title>x3&#45;&gt;2917</title>
<path fill="none" stroke="#ff0000" stroke-width=".7465" d="M171.7001,-327.2911C156.4849,-315.4169 134.6255,-298.3575 117.3516,-284.8767"/>
<polygon fill="#ff0000" stroke="#ff0000" stroke-width=".7465" points="119.3261,-281.9779 109.2893,-278.5847 115.0194,-287.4963 119.3261,-281.9779"/>
</g>
<!-- x3&#45;&gt;2918 -->
<g id="edge6" class="edge">
<title>x3&#45;&gt;2918</title>
<path fill="none" stroke="#ff0000" stroke-width=".1272" d="M197.4635,-323.5046C200.8976,-315.1295 205.0803,-304.9287 209.0145,-295.3341"/>
<polygon fill="#ff0000" stroke="#ff0000" stroke-width=".1272" points="212.2733,-296.6119 212.8288,-286.0317 205.7966,-293.9562 212.2733,-296.6119"/>
</g>
<!-- x3&#45;&gt;2919 -->
<g id="edge23" class="edge">
<title>x3&#45;&gt;2919</title>
<path fill="none" stroke="#ff0000" stroke-width=".3445" d="M182.1559,-323.5046C178.4777,-315.0619 173.9913,-304.7641 169.7819,-295.1021"/>
<polygon fill="#ff0000" stroke="#ff0000" stroke-width=".3445" points="172.9079,-293.5142 165.7051,-285.7444 166.4905,-296.3101 172.9079,-293.5142"/>
</g>
<!-- x4 -->
<g id="node5" class="node">
<title>x4</title>
<polygon fill="#d3d3d3" stroke="#000000" points="262.0416,-359.6051 226.0416,-359.6051 226.0416,-323.6051 262.0416,-323.6051 262.0416,-359.6051"/>
<text text-anchor="middle" x="244.0416" y="-338.9051" font-family="Times,serif" font-size="9.00" fill="#000000">x4</text>
</g>
<!-- x4&#45;&gt;2913 -->
<g id="edge8" class="edge">
<title>x4&#45;&gt;2913</title>
<path fill="none" stroke="#00ff00" stroke-width=".1715" d="M254.2467,-323.5046C259.2614,-314.6102 265.4369,-303.6569 271.1311,-293.5572"/>
<polygon fill="#00ff00" stroke="#00ff00" stroke-width=".1715" points="274.3156,-295.0354 276.1781,-284.6056 268.218,-291.5975 274.3156,-295.0354"/>
</g>
<!-- 2915 -->
<g id="node12" class="node">
<title>2915</title>
<ellipse fill="#ffffff" stroke="#000000" cx="420.0416" cy="-263.5635" rx="24.0833" ry="24.0833"/>
<text text-anchor="middle" x="420.0416" y="-260.8635" font-family="Times,serif" font-size="9.00" fill="#000000">2915</text>
</g>
<!-- x4&#45;&gt;2915 -->
<g id="edge20" class="edge">
<title>x4&#45;&gt;2915</title>
<path fill="none" stroke="#00ff00" stroke-width=".9" d="M262.2176,-328.4796C265.0923,-326.7023 268.0916,-325.0101 271.0416,-323.6051 319.7782,-300.3947 338.7986,-311.8246 387.0416,-287.6051 388.8471,-286.6987 390.6595,-285.6962 392.455,-284.6301"/>
<polygon fill="#00ff00" stroke="#00ff00" stroke-width=".9" points="394.7285,-287.3253 401.1807,-278.9217 390.8963,-281.4675 394.7285,-287.3253"/>
</g>
<!-- x4&#45;&gt;2918 -->
<g id="edge28" class="edge">
<title>x4&#45;&gt;2918</title>
<path fill="none" stroke="#ff0000" stroke-width=".1249" d="M238.9391,-323.5046C236.6832,-315.5023 233.9576,-305.8334 231.36,-296.6191"/>
<polygon fill="#ff0000" stroke="#ff0000" stroke-width=".1249" points="234.702,-295.5745 228.62,-286.8993 227.9646,-297.4738 234.702,-295.5745"/>
</g>
<!-- x4&#45;&gt;2919 -->
<g id="edge40" class="edge">
<title>x4&#45;&gt;2919</title>
<path fill="none" stroke="#00ff00" stroke-width=".1133" d="M225.808,-325.4348C213.0648,-314.1338 195.8697,-298.8845 181.7392,-286.353"/>
<polygon fill="#00ff00" stroke="#00ff00" stroke-width=".1133" points="184.0559,-283.7295 174.2519,-279.7131 179.4114,-288.9668 184.0559,-283.7295"/>
</g>
<!-- 2920 -->
<g id="node16" class="node">
<title>2920</title>
<ellipse fill="#ffffff" stroke="#000000" cx="354.0416" cy="-263.5635" rx="24.0833" ry="24.0833"/>
<text text-anchor="middle" x="354.0416" y="-260.8635" font-family="Times,serif" font-size="9.00" fill="#000000">2920</text>
</g>
<!-- x4&#45;&gt;2920 -->
<g id="edge32" class="edge">
<title>x4&#45;&gt;2920</title>
<path fill="none" stroke="#ff0000" stroke-width=".9" d="M262.1537,-329.0401C277.7988,-318.1539 300.9843,-301.9427 321.0416,-287.6051 322.6851,-286.4303 324.3716,-285.2191 326.0713,-283.9942"/>
<polygon fill="#ff0000" stroke="#ff0000" stroke-width=".9" points="328.4945,-286.5607 334.5401,-277.8601 324.3882,-280.8916 328.4945,-286.5607"/>
</g>
<!-- x5 -->
<g id="node6" class="node">
<title>x5</title>
<polygon fill="#d3d3d3" stroke="#000000" points="424.0416,-359.6051 388.0416,-359.6051 388.0416,-323.6051 424.0416,-323.6051 424.0416,-359.6051"/>
<text text-anchor="middle" x="406.0416" y="-338.9051" font-family="Times,serif" font-size="9.00" fill="#000000">x5</text>
</g>
<!-- x5&#45;&gt;2913 -->
<g id="edge16" class="edge">
<title>x5&#45;&gt;2913</title>
<path fill="none" stroke="#00ff00" stroke-width=".2649" d="M387.7947,-329.3244C384.8775,-327.3946 381.8842,-325.4342 379.0416,-323.6051 353.5273,-307.1883 346.2088,-304.5493 321.0416,-287.6051 319.3659,-286.4769 317.6542,-285.3019 315.9354,-284.1045"/>
<polygon fill="#00ff00" stroke="#00ff00" stroke-width=".2649" points="317.5929,-280.9884 307.4154,-278.0442 313.5355,-286.6926 317.5929,-280.9884"/>
</g>
<!-- x5&#45;&gt;2915 -->
<g id="edge22" class="edge">
<title>x5&#45;&gt;2915</title>
<path fill="none" stroke="#ff0000" stroke-width=".3629" d="M409.2887,-323.5046C410.6855,-315.7183 412.3653,-306.3542 413.9777,-297.3661"/>
<polygon fill="#ff0000" stroke="#ff0000" stroke-width=".3629" points="417.43,-297.9432 415.7508,-287.4823 410.54,-296.7072 417.43,-297.9432"/>
</g>
<!-- x5&#45;&gt;2920 -->
<g id="edge14" class="edge">
<title>x5&#45;&gt;2920</title>
<path fill="none" stroke="#ff0000" stroke-width=".9" d="M393.9811,-323.5046C387.793,-314.2176 380.1094,-302.686 373.1392,-292.2251"/>
<polygon fill="#ff0000" stroke="#ff0000" stroke-width=".9" points="375.9582,-290.1438 367.5005,-283.7626 370.1329,-294.0253 375.9582,-290.1438"/>
</g>
<!-- x6 -->
<g id="node7" class="node">
<title>x6</title>
<polygon fill="#d3d3d3" stroke="#000000" points="316.0416,-359.6051 280.0416,-359.6051 280.0416,-323.6051 316.0416,-323.6051 316.0416,-359.6051"/>
<text text-anchor="middle" x="298.0416" y="-338.9051" font-family="Times,serif" font-size="9.00" fill="#000000">x6</text>
</g>
<!-- x6&#45;&gt;2913 -->
<g id="edge38" class="edge">
<title>x6&#45;&gt;2913</title>
<path fill="none" stroke="#00ff00" stroke-width=".1565" d="M295.7223,-323.5046C294.7353,-315.8021 293.5505,-306.5554 292.4102,-297.6562"/>
<polygon fill="#00ff00" stroke="#00ff00" stroke-width=".1565" points="295.8492,-296.9564 291.1065,-287.4823 288.906,-297.8461 295.8492,-296.9564"/>
</g>
<!-- x6&#45;&gt;2915 -->
<g id="edge34" class="edge">
<title>x6&#45;&gt;2915</title>
<path fill="none" stroke="#ff0000" stroke-width=".8341" d="M316.2418,-329.2505C319.165,-327.3303 322.1724,-325.3921 325.0416,-323.6051 352.0886,-306.7596 360.3511,-305.0098 387.0416,-287.6051 388.7338,-286.5017 390.4582,-285.3459 392.1867,-284.1632"/>
<polygon fill="#ff0000" stroke="#ff0000" stroke-width=".8341" points="394.5737,-286.7629 400.7328,-278.1422 390.5421,-281.0405 394.5737,-286.7629"/>
</g>
<!-- x6&#45;&gt;2918 -->
<g id="edge2" class="edge">
<title>x6&#45;&gt;2918</title>
<path fill="none" stroke="#ff0000" stroke-width=".2846" d="M280.4147,-323.5046C270.199,-313.0146 257.1944,-299.6606 246.0539,-288.2208"/>
<polygon fill="#ff0000" stroke="#ff0000" stroke-width=".2846" points="248.5344,-285.7513 239.0502,-281.029 243.5195,-290.635 248.5344,-285.7513"/>
</g>
<!-- x6&#45;&gt;2919 -->
<g id="edge24" class="edge">
<title>x6&#45;&gt;2919</title>
<path fill="none" stroke="#ff0000" stroke-width=".1939" d="M280.01,-328.9622C277.065,-327.0792 274.0067,-325.2282 271.0416,-323.6051 236.1283,-304.4935 223.5498,-307.4391 189.0416,-287.6051 187.2901,-286.5984 185.5196,-285.5179 183.756,-284.3925"/>
<polygon fill="#ff0000" stroke="#ff0000" stroke-width=".1939" points="185.355,-281.2476 175.1159,-278.525 181.4223,-287.0385 185.355,-281.2476"/>
</g>
<!-- x6&#45;&gt;2920 -->
<g id="edge18" class="edge">
<title>x6&#45;&gt;2920</title>
<path fill="none" stroke="#00ff00" stroke-width=".9" d="M311.0299,-323.5046C317.8626,-313.9827 326.3885,-302.101 334.0433,-291.4332"/>
<polygon fill="#00ff00" stroke="#00ff00" stroke-width=".9" points="336.9602,-293.3716 339.9466,-283.2063 331.2729,-289.2905 336.9602,-293.3716"/>
</g>
<!-- x7 -->
<g id="node8" class="node">
<title>x7</title>
<polygon fill="#d3d3d3" stroke="#000000" points="370.0416,-359.6051 334.0416,-359.6051 334.0416,-323.6051 370.0416,-323.6051 370.0416,-359.6051"/>
<text text-anchor="middle" x="352.0416" y="-338.9051" font-family="Times,serif" font-size="9.00" fill="#000000">x7</text>
</g>
<!-- x7&#45;&gt;2913 -->
<g id="edge26" class="edge">
<title>x7&#45;&gt;2913</title>
<path fill="none" stroke="#00ff00" stroke-width=".1378" d="M337.1979,-323.5046C329.1353,-313.6731 319.0096,-301.3259 310.0469,-290.3967"/>
<polygon fill="#00ff00" stroke="#00ff00" stroke-width=".1378" points="312.5206,-287.8936 303.4731,-282.3806 307.1079,-292.3324 312.5206,-287.8936"/>
</g>
<!-- x7&#45;&gt;2915 -->
<g id="edge25" class="edge">
<title>x7&#45;&gt;2915</title>
<path fill="none" stroke="#ff0000" stroke-width=".4007" d="M367.8131,-323.5046C376.5899,-313.4318 387.6676,-300.7183 397.36,-289.5945"/>
<polygon fill="#ff0000" stroke="#ff0000" stroke-width=".4007" points="400.1895,-291.6749 404.1201,-281.8361 394.9119,-287.0763 400.1895,-291.6749"/>
</g>
<!-- x7&#45;&gt;2918 -->
<g id="edge36" class="edge">
<title>x7&#45;&gt;2918</title>
<path fill="none" stroke="#ff0000" stroke-width=".1685" d="M333.9201,-329.1207C330.9867,-327.2172 327.9555,-325.3183 325.0416,-323.6051 294.8836,-305.8739 284.8242,-305.96 255.0416,-287.6051 253.3218,-286.5452 251.5759,-285.4233 249.8311,-284.2664"/>
<polygon fill="#ff0000" stroke="#ff0000" stroke-width=".1685" points="251.4543,-281.133 241.2412,-278.3145 247.4675,-286.8868 251.4543,-281.133"/>
</g>
<!-- x7&#45;&gt;2919 -->
<g id="edge21" class="edge">
<title>x7&#45;&gt;2919</title>
<path fill="none" stroke="#00ff00" stroke-width=".1792" d="M333.9176,-328.3675C331.0357,-326.6057 328.0206,-324.9476 325.0416,-323.6051 268.0363,-297.9162 245.5001,-314.4746 189.0416,-287.6051 187.2175,-286.737 185.3905,-285.7642 183.5839,-284.7208"/>
<polygon fill="#00ff00" stroke="#00ff00" stroke-width=".1792" points="185.1292,-281.5526 174.8286,-279.073 181.3347,-287.4349 185.1292,-281.5526"/>
</g>
<!-- x7&#45;&gt;2920 -->
<g id="edge7" class="edge">
<title>x7&#45;&gt;2920</title>
<path fill="none" stroke="#ff0000" stroke-width=".4884" d="M352.5055,-323.5046C352.7012,-315.8668 352.9359,-306.7107 353.1622,-297.8806"/>
<polygon fill="#ff0000" stroke="#ff0000" stroke-width=".4884" points="356.6637,-297.8616 353.4211,-287.7752 349.666,-297.6822 356.6637,-297.8616"/>
</g>
<!-- y0 -->
<g id="node9" class="node">
<title>y0</title>
<ellipse fill="#add8e6" stroke="#000000" cx="222.0416" cy="-17.6777" rx="17.8571" ry="17.8571"/>
<text text-anchor="middle" x="222.0416" y="-14.9777" font-family="Times,serif" font-size="9.00" fill="#000000">y0</text>
</g>
<!-- 2923 -->
<g id="node18" class="node">
<title>2923</title>
<ellipse fill="#ffffff" stroke="#000000" cx="271.0416" cy="-179.4802" rx="24.0833" ry="24.0833"/>
<text text-anchor="middle" x="271.0416" y="-176.7802" font-family="Times,serif" font-size="9.00" fill="#000000">2923</text>
</g>
<!-- 2913&#45;&gt;2923 -->
<g id="edge9" class="edge">
<title>2913&#45;&gt;2923</title>
<path fill="none" stroke="#00ff00" stroke-width=".306" d="M283.2156,-239.6935C281.5505,-231.4579 279.6525,-222.0702 277.8587,-213.1978"/>
<polygon fill="#00ff00" stroke="#00ff00" stroke-width=".306" points="281.2333,-212.2269 275.8209,-203.1189 274.3721,-213.6142 281.2333,-212.2269"/>
</g>
<!-- 2922 -->
<g id="node17" class="node">
<title>2922</title>
<ellipse fill="#ffffff" stroke="#000000" cx="189.0416" cy="-179.4802" rx="24.0833" ry="24.0833"/>
<text text-anchor="middle" x="189.0416" y="-176.7802" font-family="Times,serif" font-size="9.00" fill="#000000">2922</text>
</g>
<!-- 2914&#45;&gt;2922 -->
<g id="edge33" class="edge">
<title>2914&#45;&gt;2922</title>
<path fill="none" stroke="#ff0000" stroke-width=".2891" d="M43.1423,-248.6476C47.5902,-245.4591 52.3888,-242.2371 57.0416,-239.5219 89.7701,-220.4224 129.6437,-203.0264 156.9467,-191.9332"/>
<polygon fill="#ff0000" stroke="#ff0000" stroke-width=".2891" points="158.423,-195.1122 166.4005,-188.14 155.8163,-188.6156 158.423,-195.1122"/>
</g>
<!-- 2914&#45;&gt;2923 -->
<g id="edge11" class="edge">
<title>2914&#45;&gt;2923</title>
<path fill="none" stroke="#ff0000" stroke-width=".9" d="M42.7549,-247.8946C47.2228,-244.7452 52.1276,-241.7294 57.0416,-239.5219 125.5087,-208.764 151.1674,-228.2325 222.0416,-203.5219 228.1483,-201.3927 234.4816,-198.6901 240.4867,-195.871"/>
<polygon fill="#ff0000" stroke="#ff0000" stroke-width=".9" points="242.1386,-198.9592 249.5733,-191.411 239.0542,-192.6753 242.1386,-198.9592"/>
</g>
<!-- 2915&#45;&gt;2923 -->
<g id="edge5" class="edge">
<title>2915&#45;&gt;2923</title>
<path fill="none" stroke="#00ff00" stroke-width=".8194" d="M400.8365,-248.8214C396.3941,-245.6239 391.6241,-242.3543 387.0416,-239.5219 359.2378,-222.3362 325.969,-205.4687 302.2038,-194.0092"/>
<polygon fill="#00ff00" stroke="#00ff00" stroke-width=".8194" points="303.4932,-190.7464 292.9612,-189.594 300.4758,-197.0627 303.4932,-190.7464"/>
</g>
<!-- 2917&#45;&gt;2923 -->
<g id="edge39" class="edge">
<title>2917&#45;&gt;2923</title>
<path fill="none" stroke="#ff0000" stroke-width=".5509" d="M108.9903,-248.3751C113.4461,-245.2007 118.2863,-242.0534 123.0416,-239.5219 164.3691,-217.5209 178.9635,-221.8597 222.0416,-203.5219 227.9921,-200.9888 234.2525,-198.0976 240.2347,-195.2192"/>
<polygon fill="#ff0000" stroke="#ff0000" stroke-width=".5509" points="241.8862,-198.3076 249.3216,-190.76 238.8023,-192.0234 241.8862,-198.3076"/>
</g>
<!-- 2918&#45;&gt;2922 -->
<g id="edge29" class="edge">
<title>2918&#45;&gt;2922</title>
<path fill="none" stroke="#00ff00" stroke-width=".2941" d="M213.1982,-241.0307C209.6472,-231.9827 205.4881,-221.3856 201.6315,-211.559"/>
<polygon fill="#00ff00" stroke="#00ff00" stroke-width=".2941" points="204.8209,-210.1052 197.9094,-202.0752 198.3048,-212.6627 204.8209,-210.1052"/>
</g>
<!-- 2919&#45;&gt;2922 -->
<g id="edge4" class="edge">
<title>2919&#45;&gt;2922</title>
<path fill="none" stroke="#00ff00" stroke-width=".3203" d="M164.885,-241.0307C168.4361,-231.9827 172.5951,-221.3856 176.4517,-211.559"/>
<polygon fill="#00ff00" stroke="#00ff00" stroke-width=".3203" points="179.7784,-212.6627 180.1738,-202.0752 173.2623,-210.1052 179.7784,-212.6627"/>
</g>
<!-- 2920&#45;&gt;2923 -->
<g id="edge17" class="edge">
<title>2920&#45;&gt;2923</title>
<path fill="none" stroke="#00ff00" stroke-width=".8313" d="M336.844,-246.1414C324.7448,-233.8843 308.3903,-217.3164 295.0129,-203.7644"/>
<polygon fill="#00ff00" stroke="#00ff00" stroke-width=".8313" points="297.4493,-201.2503 287.9333,-196.5923 292.4675,-206.1679 297.4493,-201.2503"/>
</g>
<!-- 2926 -->
<g id="node19" class="node">
<title>2926</title>
<ellipse fill="#ffffff" stroke="#000000" cx="222.0416" cy="-95.397" rx="24.0833" ry="24.0833"/>
<text text-anchor="middle" x="222.0416" y="-92.697" font-family="Times,serif" font-size="9.00" fill="#000000">2926</text>
</g>
<!-- 2922&#45;&gt;2926 -->
<g id="edge41" class="edge">
<title>2922&#45;&gt;2926</title>
<path fill="none" stroke="#ff0000" stroke-width=".1978" d="M197.885,-156.9475C201.4361,-147.8994 205.5951,-137.3023 209.4517,-127.4757"/>
<polygon fill="#ff0000" stroke="#ff0000" stroke-width=".1978" points="212.7784,-128.5794 213.1738,-117.9919 206.2623,-126.022 212.7784,-128.5794"/>
</g>
<!-- 2923&#45;&gt;2926 -->
<g id="edge31" class="edge">
<title>2923&#45;&gt;2926</title>
<path fill="none" stroke="#ff0000" stroke-width=".7047" d="M258.9293,-158.6956C253.0398,-148.5893 245.8542,-136.2591 239.395,-125.1751"/>
<polygon fill="#ff0000" stroke="#ff0000" stroke-width=".7047" points="242.2435,-123.1116 234.1845,-116.2339 236.1955,-126.6361 242.2435,-123.1116"/>
</g>
<!-- 2926&#45;&gt;y0 -->
<g id="edge27" class="edge">
<title>2926&#45;&gt;y0</title>
<path fill="none" stroke="#00ff00" stroke-width=".9" d="M222.0416,-71.2321C222.0416,-63.086 222.0416,-53.9295 222.0416,-45.5228"/>
<polygon fill="#00ff00" stroke="#00ff00" stroke-width=".9" points="225.5417,-45.4076 222.0416,-35.4076 218.5417,-45.4076 225.5417,-45.4076"/>
</g>
</g>
</svg>
