<?xml version="1.0" encoding="UTF-8" standalone="no"?>
<!DOCTYPE svg PUBLIC "-//W3C//DTD SVG 1.1//EN"
 "http://www.w3.org/Graphics/SVG/1.1/DTD/svg11.dtd">
<!-- Generated by graphviz version 2.40.1 (20161225.0304)
 -->
<!-- Title: %3 Pages: 1 -->
<svg width="422pt" height="366pt"
 viewBox="0.00 0.00 422.00 366.21" xmlns="http://www.w3.org/2000/svg" xmlns:xlink="http://www.w3.org/1999/xlink">
<g id="graph0" class="graph" transform="scale(1 1) rotate(0) translate(4 362.2068)">
<title>%3</title>
<polygon fill="#ffffff" stroke="transparent" points="-4,4 -4,-362.2068 418,-362.2068 418,4 -4,4"/>
<!-- x0 -->
<g id="node1" class="node">
<title>x0</title>
<polygon fill="#d3d3d3" stroke="#000000" points="360,-358.2068 324,-358.2068 324,-322.2068 360,-322.2068 360,-358.2068"/>
<text text-anchor="middle" x="342" y="-337.5068" font-family="Times,serif" font-size="9.00" fill="#000000">x0</text>
</g>
<!-- 1180 -->
<g id="node14" class="node">
<title>1180</title>
<ellipse fill="#ffffff" stroke="#000000" cx="234" cy="-262.3982" rx="23.6187" ry="23.6187"/>
<text text-anchor="middle" x="234" y="-259.6982" font-family="Times,serif" font-size="9.00" fill="#000000">1180</text>
</g>
<!-- x0&#45;&gt;1180 -->
<g id="edge1" class="edge">
<title>x0&#45;&gt;1180</title>
<path fill="none" stroke="#ff0000" stroke-width=".9" d="M323.8101,-327.1176C308.6194,-316.1847 286.3943,-300.1849 267,-286.2068 265.3666,-285.0296 263.6879,-283.8194 261.9942,-282.5981"/>
<polygon fill="#ff0000" stroke="#ff0000" stroke-width=".9" points="263.6994,-279.5126 253.5414,-276.5015 259.6045,-285.19 263.6994,-279.5126"/>
</g>
<!-- 1182 -->
<g id="node15" class="node">
<title>1182</title>
<ellipse fill="#ffffff" stroke="#000000" cx="300" cy="-262.3982" rx="23.6187" ry="23.6187"/>
<text text-anchor="middle" x="300" y="-259.6982" font-family="Times,serif" font-size="9.00" fill="#000000">1182</text>
</g>
<!-- x0&#45;&gt;1182 -->
<g id="edge22" class="edge">
<title>x0&#45;&gt;1182</title>
<path fill="none" stroke="#ff0000" stroke-width=".2567" d="M332.2588,-322.1604C327.472,-313.2925 321.5772,-302.3719 316.1419,-292.3024"/>
<polygon fill="#ff0000" stroke="#ff0000" stroke-width=".2567" points="319.1543,-290.5148 311.3243,-283.3775 312.9944,-293.8398 319.1543,-290.5148"/>
</g>
<!-- x1 -->
<g id="node2" class="node">
<title>x1</title>
<polygon fill="#d3d3d3" stroke="#000000" points="414,-358.2068 378,-358.2068 378,-322.2068 414,-322.2068 414,-358.2068"/>
<text text-anchor="middle" x="396" y="-337.5068" font-family="Times,serif" font-size="9.00" fill="#000000">x1</text>
</g>
<!-- x1&#45;&gt;1180 -->
<g id="edge16" class="edge">
<title>x1&#45;&gt;1180</title>
<path fill="none" stroke="#00ff00" stroke-width=".5996" d="M377.7747,-327.1824C374.9068,-325.3912 371.9226,-323.6681 369,-322.2068 326.0013,-300.7074 309.5938,-308.4977 267,-286.2068 265.2161,-285.2732 263.4204,-284.2524 261.6376,-283.1754"/>
<polygon fill="#00ff00" stroke="#00ff00" stroke-width=".5996" points="263.2256,-280.0309 252.9461,-277.4652 259.382,-285.8813 263.2256,-280.0309"/>
</g>
<!-- x1&#45;&gt;1182 -->
<g id="edge7" class="edge">
<title>x1&#45;&gt;1182</title>
<path fill="none" stroke="#ff0000" stroke-width=".8215" d="M377.9431,-325.5716C363.5125,-313.8755 343.0702,-297.3069 326.7412,-284.0721"/>
<polygon fill="#ff0000" stroke="#ff0000" stroke-width=".8215" points="328.6033,-281.0761 318.6307,-277.4985 324.1956,-286.5142 328.6033,-281.0761"/>
</g>
<!-- x2 -->
<g id="node3" class="node">
<title>x2</title>
<polygon fill="#d3d3d3" stroke="#000000" points="252,-358.2068 216,-358.2068 216,-322.2068 252,-322.2068 252,-358.2068"/>
<text text-anchor="middle" x="234" y="-337.5068" font-family="Times,serif" font-size="9.00" fill="#000000">x2</text>
</g>
<!-- x2&#45;&gt;1180 -->
<g id="edge17" class="edge">
<title>x2&#45;&gt;1180</title>
<path fill="none" stroke="#ff0000" stroke-width=".9" d="M234,-322.1604C234,-314.4808 234,-305.2617 234,-296.3891"/>
<polygon fill="#ff0000" stroke="#ff0000" stroke-width=".9" points="237.5001,-296.2456 234,-286.2456 230.5001,-296.2457 237.5001,-296.2456"/>
</g>
<!-- x2&#45;&gt;1182 -->
<g id="edge20" class="edge">
<title>x2&#45;&gt;1182</title>
<path fill="none" stroke="#ff0000" stroke-width=".2308" d="M249.3076,-322.1604C257.8263,-312.1176 268.5781,-299.442 277.9855,-288.3515"/>
<polygon fill="#ff0000" stroke="#ff0000" stroke-width=".2308" points="280.7472,-290.5064 284.5468,-280.6163 275.4089,-285.9783 280.7472,-290.5064"/>
</g>
<!-- x3 -->
<g id="node4" class="node">
<title>x3</title>
<polygon fill="#d3d3d3" stroke="#000000" points="306,-358.2068 270,-358.2068 270,-322.2068 306,-322.2068 306,-358.2068"/>
<text text-anchor="middle" x="288" y="-337.5068" font-family="Times,serif" font-size="9.00" fill="#000000">x3</text>
</g>
<!-- x3&#45;&gt;1180 -->
<g id="edge13" class="edge">
<title>x3&#45;&gt;1180</title>
<path fill="none" stroke="#ff0000" stroke-width=".9" d="M275.4756,-322.1604C268.9522,-312.7608 260.8282,-301.0549 253.5036,-290.5009"/>
<polygon fill="#ff0000" stroke="#ff0000" stroke-width=".9" points="256.1686,-288.2022 247.5916,-281.9824 250.4178,-292.1933 256.1686,-288.2022"/>
</g>
<!-- x3&#45;&gt;1182 -->
<g id="edge3" class="edge">
<title>x3&#45;&gt;1182</title>
<path fill="none" stroke="#00ff00" stroke-width=".9" d="M290.7832,-322.1604C291.9905,-314.3321 293.4445,-304.9041 294.8372,-295.8741"/>
<polygon fill="#00ff00" stroke="#00ff00" stroke-width=".9" points="298.3018,-296.3712 296.367,-285.9545 291.3836,-295.3042 298.3018,-296.3712"/>
</g>
<!-- x4 -->
<g id="node5" class="node">
<title>x4</title>
<polygon fill="#d3d3d3" stroke="#000000" points="36,-358.2068 0,-358.2068 0,-322.2068 36,-322.2068 36,-358.2068"/>
<text text-anchor="middle" x="18" y="-337.5068" font-family="Times,serif" font-size="9.00" fill="#000000">x4</text>
</g>
<!-- 1177 -->
<g id="node12" class="node">
<title>1177</title>
<ellipse fill="#ffffff" stroke="#000000" cx="87" cy="-262.3982" rx="23.6187" ry="23.6187"/>
<text text-anchor="middle" x="87" y="-259.6982" font-family="Times,serif" font-size="9.00" fill="#000000">1177</text>
</g>
<!-- x4&#45;&gt;1177 -->
<g id="edge11" class="edge">
<title>x4&#45;&gt;1177</title>
<path fill="none" stroke="#ff0000" stroke-width=".8897" d="M34.0034,-322.1604C42.9734,-312.0453 54.3117,-299.2595 64.1969,-288.1124"/>
<polygon fill="#ff0000" stroke="#ff0000" stroke-width=".8897" points="67.0671,-290.1509 71.0834,-280.3468 61.8298,-285.5065 67.0671,-290.1509"/>
</g>
<!-- 1178 -->
<g id="node13" class="node">
<title>1178</title>
<ellipse fill="#ffffff" stroke="#000000" cx="153" cy="-262.3982" rx="23.6187" ry="23.6187"/>
<text text-anchor="middle" x="153" y="-259.6982" font-family="Times,serif" font-size="9.00" fill="#000000">1178</text>
</g>
<!-- x4&#45;&gt;1178 -->
<g id="edge9" class="edge">
<title>x4&#45;&gt;1178</title>
<path fill="none" stroke="#ff0000" stroke-width=".6486" d="M36.0806,-327.6516C39.0193,-325.7573 42.0628,-323.8798 45,-322.2068 77.1282,-303.9068 88.2157,-305.0978 120,-286.2068 121.7308,-285.1781 123.4852,-284.0834 125.2365,-282.95"/>
<polygon fill="#ff0000" stroke="#ff0000" stroke-width=".6486" points="127.5481,-285.6105 133.8438,-277.089 123.6082,-279.8245 127.5481,-285.6105"/>
</g>
<!-- x5 -->
<g id="node6" class="node">
<title>x5</title>
<polygon fill="#d3d3d3" stroke="#000000" points="90,-358.2068 54,-358.2068 54,-322.2068 90,-322.2068 90,-358.2068"/>
<text text-anchor="middle" x="72" y="-337.5068" font-family="Times,serif" font-size="9.00" fill="#000000">x5</text>
</g>
<!-- x5&#45;&gt;1177 -->
<g id="edge21" class="edge">
<title>x5&#45;&gt;1177</title>
<path fill="none" stroke="#00ff00" stroke-width=".8217" d="M75.479,-322.1604C76.9881,-314.3321 78.8057,-304.9041 80.5465,-295.8741"/>
<polygon fill="#00ff00" stroke="#00ff00" stroke-width=".8217" points="84.0025,-296.4363 82.4588,-285.9545 77.129,-295.1111 84.0025,-296.4363"/>
</g>
<!-- x5&#45;&gt;1178 -->
<g id="edge14" class="edge">
<title>x5&#45;&gt;1178</title>
<path fill="none" stroke="#ff0000" stroke-width=".2809" d="M90.3802,-322.5508C101.6671,-311.7086 116.2605,-297.6902 128.5195,-285.9142"/>
<polygon fill="#ff0000" stroke="#ff0000" stroke-width=".2809" points="131.0132,-288.3719 135.8003,-278.9202 126.1639,-283.3237 131.0132,-288.3719"/>
</g>
<!-- x6 -->
<g id="node7" class="node">
<title>x6</title>
<polygon fill="#d3d3d3" stroke="#000000" points="144,-358.2068 108,-358.2068 108,-322.2068 144,-322.2068 144,-358.2068"/>
<text text-anchor="middle" x="126" y="-337.5068" font-family="Times,serif" font-size="9.00" fill="#000000">x6</text>
</g>
<!-- x6&#45;&gt;1177 -->
<g id="edge2" class="edge">
<title>x6&#45;&gt;1177</title>
<path fill="none" stroke="#00ff00" stroke-width=".9" d="M116.9546,-322.1604C112.6233,-313.5191 107.315,-302.9286 102.3765,-293.0758"/>
<polygon fill="#00ff00" stroke="#00ff00" stroke-width=".9" points="105.4089,-291.3146 97.7989,-283.9431 99.151,-294.4513 105.4089,-291.3146"/>
</g>
<!-- x6&#45;&gt;1178 -->
<g id="edge10" class="edge">
<title>x6&#45;&gt;1178</title>
<path fill="none" stroke="#00ff00" stroke-width=".5373" d="M132.2622,-322.1604C135.1065,-313.9638 138.5593,-304.0135 141.8249,-294.6026"/>
<polygon fill="#00ff00" stroke="#00ff00" stroke-width=".5373" points="145.1552,-295.6815 145.127,-285.0867 138.542,-293.3866 145.1552,-295.6815"/>
</g>
<!-- x7 -->
<g id="node8" class="node">
<title>x7</title>
<polygon fill="#d3d3d3" stroke="#000000" points="198,-358.2068 162,-358.2068 162,-322.2068 198,-322.2068 198,-358.2068"/>
<text text-anchor="middle" x="180" y="-337.5068" font-family="Times,serif" font-size="9.00" fill="#000000">x7</text>
</g>
<!-- x7&#45;&gt;1177 -->
<g id="edge15" class="edge">
<title>x7&#45;&gt;1177</title>
<path fill="none" stroke="#00ff00" stroke-width=".4212" d="M161.6262,-324.8343C147.7422,-313.2182 128.4995,-297.1189 113.0318,-284.1778"/>
<polygon fill="#00ff00" stroke="#00ff00" stroke-width=".4212" points="115.2513,-281.4712 105.3356,-277.7388 110.7594,-286.84 115.2513,-281.4712"/>
</g>
<!-- x7&#45;&gt;1178 -->
<g id="edge4" class="edge">
<title>x7&#45;&gt;1178</title>
<path fill="none" stroke="#ff0000" stroke-width=".3517" d="M173.7378,-322.1604C170.8935,-313.9638 167.4407,-304.0135 164.1751,-294.6026"/>
<polygon fill="#ff0000" stroke="#ff0000" stroke-width=".3517" points="167.458,-293.3866 160.873,-285.0867 160.8448,-295.6815 167.458,-293.3866"/>
</g>
<!-- x7&#45;&gt;1180 -->
<g id="edge8" class="edge">
<title>x7&#45;&gt;1180</title>
<path fill="none" stroke="#ff0000" stroke-width=".1321" d="M192.5244,-322.1604C199.0478,-312.7608 207.1718,-301.0549 214.4964,-290.5009"/>
<polygon fill="#ff0000" stroke="#ff0000" stroke-width=".1321" points="217.5822,-292.1933 220.4084,-281.9824 211.8314,-288.2022 217.5822,-292.1933"/>
</g>
<!-- y0 -->
<g id="node9" class="node">
<title>y0</title>
<ellipse fill="#add8e6" stroke="#000000" cx="193" cy="-17.6777" rx="17.8571" ry="17.8571"/>
<text text-anchor="middle" x="193" y="-14.9777" font-family="Times,serif" font-size="9.00" fill="#000000">y0</text>
</g>
<!-- 1185 -->
<g id="node10" class="node">
<title>1185</title>
<ellipse fill="#ffffff" stroke="#000000" cx="193" cy="-178.7811" rx="23.6187" ry="23.6187"/>
<text text-anchor="middle" x="193" y="-176.0811" font-family="Times,serif" font-size="9.00" fill="#000000">1185</text>
</g>
<!-- 1189 -->
<g id="node11" class="node">
<title>1189</title>
<ellipse fill="#ffffff" stroke="#000000" cx="193" cy="-95.1639" rx="23.6187" ry="23.6187"/>
<text text-anchor="middle" x="193" y="-92.4639" font-family="Times,serif" font-size="9.00" fill="#000000">1189</text>
</g>
<!-- 1185&#45;&gt;1189 -->
<g id="edge12" class="edge">
<title>1185&#45;&gt;1189</title>
<path fill="none" stroke="#00ff00" stroke-width=".9" d="M193,-154.5955C193,-146.6401 193,-137.6426 193,-129.1001"/>
<polygon fill="#00ff00" stroke="#00ff00" stroke-width=".9" points="196.5001,-129.0063 193,-119.0063 189.5001,-129.0064 196.5001,-129.0063"/>
</g>
<!-- 1189&#45;&gt;y0 -->
<g id="edge5" class="edge">
<title>1189&#45;&gt;y0</title>
<path fill="none" stroke="#00ff00" stroke-width=".7678" d="M193,-71.0715C193,-63.1637 193,-54.3008 193,-46.1027"/>
<polygon fill="#00ff00" stroke="#00ff00" stroke-width=".7678" points="196.5001,-45.8447 193,-35.8448 189.5001,-45.8448 196.5001,-45.8447"/>
</g>
<!-- 1177&#45;&gt;1185 -->
<g id="edge18" class="edge">
<title>1177&#45;&gt;1185</title>
<path fill="none" stroke="#00ff00" stroke-width=".5255" d="M105.9507,-247.4491C122.7576,-234.1912 147.4865,-214.684 166.2965,-199.8459"/>
<polygon fill="#00ff00" stroke="#00ff00" stroke-width=".5255" points="168.5298,-202.5421 174.2134,-193.6007 164.1944,-197.0462 168.5298,-202.5421"/>
</g>
<!-- 1178&#45;&gt;1185 -->
<g id="edge19" class="edge">
<title>1178&#45;&gt;1185</title>
<path fill="none" stroke="#ff0000" stroke-width=".6802" d="M163.301,-240.8647C167.838,-231.3805 173.2536,-220.0595 178.2102,-209.698"/>
<polygon fill="#ff0000" stroke="#ff0000" stroke-width=".6802" points="181.4368,-211.0636 182.5949,-200.5322 175.1221,-208.0428 181.4368,-211.0636"/>
</g>
<!-- 1180&#45;&gt;1185 -->
<g id="edge6" class="edge">
<title>1180&#45;&gt;1185</title>
<path fill="none" stroke="#ff0000" stroke-width=".7536" d="M223.4415,-240.8647C218.7547,-231.3064 213.1533,-219.8825 208.0405,-209.4553"/>
<polygon fill="#ff0000" stroke="#ff0000" stroke-width=".7536" points="211.0679,-207.6794 203.5227,-200.2416 204.7828,-210.7612 211.0679,-207.6794"/>
</g>
<!-- 1182&#45;&gt;1185 -->
<g id="edge23" class="edge">
<title>1182&#45;&gt;1185</title>
<path fill="none" stroke="#ff0000" stroke-width=".4806" d="M280.8705,-247.4491C263.9051,-234.1912 238.9429,-214.684 219.9555,-199.8459"/>
<polygon fill="#ff0000" stroke="#ff0000" stroke-width=".4806" points="221.9984,-197.0005 211.9638,-193.6007 217.6881,-202.5161 221.9984,-197.0005"/>
</g>
</g>
</svg>
