<?xml version="1.0" encoding="UTF-8" standalone="no"?>
<!DOCTYPE svg PUBLIC "-//W3C//DTD SVG 1.1//EN"
 "http://www.w3.org/Graphics/SVG/1.1/DTD/svg11.dtd">
<!-- Generated by graphviz version 2.38.0 (20140413.2041)
 -->
<!-- Title: %3 Pages: 1 -->
<svg width="422pt" height="373pt"
 viewBox="0.00 0.00 422.00 373.26" xmlns="http://www.w3.org/2000/svg" xmlns:xlink="http://www.w3.org/1999/xlink">
<g id="graph0" class="graph" transform="scale(1 1) rotate(0) translate(4 369.262)">
<title>%3</title>
<polygon fill="white" stroke="none" points="-4,4 -4,-369.262 418,-369.262 418,4 -4,4"/>
<!-- x0 -->
<g id="node1" class="node"><title>x0</title>
<polygon fill="lightgray" stroke="black" points="36,-365.262 0,-365.262 0,-329.262 36,-329.262 36,-365.262"/>
<text text-anchor="middle" x="18" y="-345.062" font-family="Times,serif" font-size="9.00">x0</text>
</g>
<!-- 1189 -->
<g id="node10" class="node"><title>1189</title>
<ellipse fill="white" stroke="black" cx="153" cy="-268.513" rx="25" ry="25"/>
<text text-anchor="middle" x="153" y="-266.313" font-family="Times,serif" font-size="9.00">1189</text>
</g>
<!-- x0&#45;&gt;1189 -->
<g id="edge5" class="edge"><title>x0&#45;&gt;1189</title>
<path fill="none" stroke="green" stroke-width="0.515929" d="M36.2137,-334.599C39.1352,-332.784 42.1385,-330.953 45,-329.262 70.7132,-314.071 100.44,-297.711 122.189,-285.957"/>
<polygon fill="green" stroke="green" stroke-width="0.515929" points="124.136,-288.884 131.281,-281.061 120.817,-282.721 124.136,-288.884"/>
</g>
<!-- x1 -->
<g id="node2" class="node"><title>x1</title>
<polygon fill="lightgray" stroke="black" points="360,-365.262 324,-365.262 324,-329.262 360,-329.262 360,-365.262"/>
<text text-anchor="middle" x="342" y="-345.062" font-family="Times,serif" font-size="9.00">x1</text>
</g>
<!-- x2 -->
<g id="node3" class="node"><title>x2</title>
<polygon fill="lightgray" stroke="black" points="90,-365.262 54,-365.262 54,-329.262 90,-329.262 90,-365.262"/>
<text text-anchor="middle" x="72" y="-345.062" font-family="Times,serif" font-size="9.00">x2</text>
</g>
<!-- x2&#45;&gt;1189 -->
<g id="edge7" class="edge"><title>x2&#45;&gt;1189</title>
<path fill="none" stroke="green" stroke-width="0.20714" d="M89.9765,-329.229C101.17,-318.623 115.728,-304.829 128.033,-293.17"/>
<polygon fill="green" stroke="green" stroke-width="0.20714" points="130.501,-295.653 135.352,-286.235 125.686,-290.572 130.501,-295.653"/>
</g>
<!-- x3 -->
<g id="node4" class="node"><title>x3</title>
<polygon fill="lightgray" stroke="black" points="414,-365.262 378,-365.262 378,-329.262 414,-329.262 414,-365.262"/>
<text text-anchor="middle" x="396" y="-345.062" font-family="Times,serif" font-size="9.00">x3</text>
</g>
<!-- x4 -->
<g id="node5" class="node"><title>x4</title>
<polygon fill="lightgray" stroke="black" points="144,-365.262 108,-365.262 108,-329.262 144,-329.262 144,-365.262"/>
<text text-anchor="middle" x="126" y="-345.062" font-family="Times,serif" font-size="9.00">x4</text>
</g>
<!-- x4&#45;&gt;1189 -->
<g id="edge2" class="edge"><title>x4&#45;&gt;1189</title>
<path fill="none" stroke="red" stroke-width="0.170818" d="M131.992,-329.229C134.852,-321.1 138.37,-311.099 141.705,-301.621"/>
<polygon fill="red" stroke="red" stroke-width="0.170818" points="145.06,-302.63 145.077,-292.035 138.457,-300.306 145.06,-302.63"/>
</g>
<!-- x5 -->
<g id="node6" class="node"><title>x5</title>
<polygon fill="lightgray" stroke="black" points="198,-365.262 162,-365.262 162,-329.262 198,-329.262 198,-365.262"/>
<text text-anchor="middle" x="180" y="-345.062" font-family="Times,serif" font-size="9.00">x5</text>
</g>
<!-- x5&#45;&gt;1189 -->
<g id="edge4" class="edge"><title>x5&#45;&gt;1189</title>
<path fill="none" stroke="green" stroke-width="0.201356" d="M174.008,-329.229C171.148,-321.1 167.63,-311.099 164.295,-301.621"/>
<polygon fill="green" stroke="green" stroke-width="0.201356" points="167.543,-300.306 160.923,-292.035 160.94,-302.63 167.543,-300.306"/>
</g>
<!-- x6 -->
<g id="node7" class="node"><title>x6</title>
<polygon fill="lightgray" stroke="black" points="252,-365.262 216,-365.262 216,-329.262 252,-329.262 252,-365.262"/>
<text text-anchor="middle" x="234" y="-345.062" font-family="Times,serif" font-size="9.00">x6</text>
</g>
<!-- x6&#45;&gt;1189 -->
<g id="edge1" class="edge"><title>x6&#45;&gt;1189</title>
<path fill="none" stroke="red" stroke-width="0.175352" d="M216.023,-329.229C204.83,-318.623 190.272,-304.829 177.967,-293.17"/>
<polygon fill="red" stroke="red" stroke-width="0.175352" points="180.314,-290.572 170.648,-286.235 175.499,-295.653 180.314,-290.572"/>
</g>
<!-- x7 -->
<g id="node8" class="node"><title>x7</title>
<polygon fill="lightgray" stroke="black" points="306,-365.262 270,-365.262 270,-329.262 306,-329.262 306,-365.262"/>
<text text-anchor="middle" x="288" y="-345.062" font-family="Times,serif" font-size="9.00">x7</text>
</g>
<!-- x7&#45;&gt;1189 -->
<g id="edge8" class="edge"><title>x7&#45;&gt;1189</title>
<path fill="none" stroke="green" stroke-width="0.222695" d="M269.786,-334.599C266.865,-332.784 263.861,-330.953 261,-329.262 235.287,-314.071 205.56,-297.711 183.811,-285.957"/>
<polygon fill="green" stroke="green" stroke-width="0.222695" points="185.183,-282.721 174.719,-281.061 181.864,-288.884 185.183,-282.721"/>
</g>
<!-- y0 -->
<g id="node9" class="node"><title>y0</title>
<ellipse fill="lightblue" stroke="black" cx="153" cy="-18.3848" rx="18.2703" ry="18.2703"/>
<text text-anchor="middle" x="153" y="-16.1848" font-family="Times,serif" font-size="9.00">y0</text>
</g>
<!-- 1190 -->
<g id="node11" class="node"><title>1190</title>
<ellipse fill="white" stroke="black" cx="153" cy="-183.016" rx="25" ry="25"/>
<text text-anchor="middle" x="153" y="-180.816" font-family="Times,serif" font-size="9.00">1190</text>
</g>
<!-- 1189&#45;&gt;1190 -->
<g id="edge3" class="edge"><title>1189&#45;&gt;1190</title>
<path fill="none" stroke="red" stroke-width="0.366938" d="M153,-243.362C153,-235.418 153,-226.434 153,-217.903"/>
<polygon fill="red" stroke="red" stroke-width="0.366938" points="156.5,-217.824 153,-207.824 149.5,-217.824 156.5,-217.824"/>
</g>
<!-- 1191 -->
<g id="node12" class="node"><title>1191</title>
<ellipse fill="white" stroke="black" cx="153" cy="-97.5183" rx="25" ry="25"/>
<text text-anchor="middle" x="153" y="-95.3183" font-family="Times,serif" font-size="9.00">1191</text>
</g>
<!-- 1190&#45;&gt;1191 -->
<g id="edge9" class="edge"><title>1190&#45;&gt;1191</title>
<path fill="none" stroke="green" stroke-width="0.273689" d="M153,-157.865C153,-149.921 153,-140.936 153,-132.406"/>
<polygon fill="green" stroke="green" stroke-width="0.273689" points="156.5,-132.327 153,-122.327 149.5,-132.327 156.5,-132.327"/>
</g>
<!-- 1191&#45;&gt;y0 -->
<g id="edge6" class="edge"><title>1191&#45;&gt;y0</title>
<path fill="none" stroke="red" stroke-width="0.462578" d="M153,-72.5356C153,-64.4509 153,-55.3634 153,-47.02"/>
<polygon fill="red" stroke="red" stroke-width="0.462578" points="156.5,-46.981 153,-36.9811 149.5,-46.9811 156.5,-46.981"/>
</g>
</g>
</svg>
