<?xml version="1.0" encoding="UTF-8" standalone="no"?>
<!DOCTYPE svg PUBLIC "-//W3C//DTD SVG 1.1//EN"
 "http://www.w3.org/Graphics/SVG/1.1/DTD/svg11.dtd">
<!-- Generated by graphviz version 2.38.0 (20140413.2041)
 -->
<!-- Title: %3 Pages: 1 -->
<svg width="422pt" height="314pt"
 viewBox="0.00 0.00 422.00 313.87" xmlns="http://www.w3.org/2000/svg" xmlns:xlink="http://www.w3.org/1999/xlink">
<g id="graph0" class="graph" transform="scale(1 1) rotate(0) translate(4 309.865)">
<title>%3</title>
<polygon fill="white" stroke="none" points="-4,4 -4,-309.865 418,-309.865 418,4 -4,4"/>
<!-- x0 -->
<g id="node1" class="node"><title>x0</title>
<polygon fill="lightgray" stroke="black" points="36,-305.865 0,-305.865 0,-269.865 36,-269.865 36,-305.865"/>
<text text-anchor="middle" x="18" y="-285.665" font-family="Times,serif" font-size="9.00">x0</text>
</g>
<!-- x1 -->
<g id="node2" class="node"><title>x1</title>
<polygon fill="lightgray" stroke="black" points="90,-305.865 54,-305.865 54,-269.865 90,-269.865 90,-305.865"/>
<text text-anchor="middle" x="72" y="-285.665" font-family="Times,serif" font-size="9.00">x1</text>
</g>
<!-- 1 -->
<g id="node10" class="node"><title>1</title>
<ellipse fill="white" stroke="black" cx="180" cy="-219.016" rx="14.7" ry="14.7"/>
<text text-anchor="middle" x="180" y="-216.816" font-family="Times,serif" font-size="9.00">1</text>
</g>
<!-- x1&#45;&gt;1 -->
<g id="edge7" class="edge"><title>x1&#45;&gt;1</title>
<path fill="none" stroke="red" stroke-width="0.105723" d="M90.284,-275.318C93.1964,-273.488 96.1785,-271.621 99,-269.865 119.272,-257.245 142.49,-242.976 158.855,-232.947"/>
<polygon fill="red" stroke="red" stroke-width="0.105723" points="160.925,-235.784 167.625,-227.577 157.269,-229.814 160.925,-235.784"/>
</g>
<!-- x2 -->
<g id="node3" class="node"><title>x2</title>
<polygon fill="lightgray" stroke="black" points="144,-305.865 108,-305.865 108,-269.865 144,-269.865 144,-305.865"/>
<text text-anchor="middle" x="126" y="-285.665" font-family="Times,serif" font-size="9.00">x2</text>
</g>
<!-- x2&#45;&gt;1 -->
<g id="edge6" class="edge"><title>x2&#45;&gt;1</title>
<path fill="none" stroke="green" stroke-width="0.515445" d="M139.906,-269.65C147.447,-260.314 156.786,-248.753 164.553,-239.138"/>
<polygon fill="green" stroke="green" stroke-width="0.515445" points="167.328,-241.273 170.889,-231.294 161.883,-236.874 167.328,-241.273"/>
</g>
<!-- x3 -->
<g id="node4" class="node"><title>x3</title>
<polygon fill="lightgray" stroke="black" points="198,-305.865 162,-305.865 162,-269.865 198,-269.865 198,-305.865"/>
<text text-anchor="middle" x="180" y="-285.665" font-family="Times,serif" font-size="9.00">x3</text>
</g>
<!-- x3&#45;&gt;1 -->
<g id="edge4" class="edge"><title>x3&#45;&gt;1</title>
<path fill="none" stroke="green" stroke-width="0.360739" d="M180,-269.65C180,-261.925 180,-252.676 180,-244.266"/>
<polygon fill="green" stroke="green" stroke-width="0.360739" points="183.5,-244.241 180,-234.241 176.5,-244.241 183.5,-244.241"/>
</g>
<!-- x4 -->
<g id="node5" class="node"><title>x4</title>
<polygon fill="lightgray" stroke="black" points="252,-305.865 216,-305.865 216,-269.865 252,-269.865 252,-305.865"/>
<text text-anchor="middle" x="234" y="-285.665" font-family="Times,serif" font-size="9.00">x4</text>
</g>
<!-- x4&#45;&gt;1 -->
<g id="edge2" class="edge"><title>x4&#45;&gt;1</title>
<path fill="none" stroke="red" stroke-width="0.40786" d="M220.094,-269.65C212.553,-260.314 203.214,-248.753 195.447,-239.138"/>
<polygon fill="red" stroke="red" stroke-width="0.40786" points="198.117,-236.874 189.111,-231.294 192.672,-241.273 198.117,-236.874"/>
</g>
<!-- x5 -->
<g id="node6" class="node"><title>x5</title>
<polygon fill="lightgray" stroke="black" points="306,-305.865 270,-305.865 270,-269.865 306,-269.865 306,-305.865"/>
<text text-anchor="middle" x="288" y="-285.665" font-family="Times,serif" font-size="9.00">x5</text>
</g>
<!-- x5&#45;&gt;1 -->
<g id="edge3" class="edge"><title>x5&#45;&gt;1</title>
<path fill="none" stroke="red" stroke-width="0.355687" d="M269.716,-275.318C266.804,-273.488 263.822,-271.621 261,-269.865 240.728,-257.245 217.51,-242.976 201.145,-232.947"/>
<polygon fill="red" stroke="red" stroke-width="0.355687" points="202.731,-229.814 192.375,-227.577 199.075,-235.784 202.731,-229.814"/>
</g>
<!-- x6 -->
<g id="node7" class="node"><title>x6</title>
<polygon fill="lightgray" stroke="black" points="360,-305.865 324,-305.865 324,-269.865 360,-269.865 360,-305.865"/>
<text text-anchor="middle" x="342" y="-285.665" font-family="Times,serif" font-size="9.00">x6</text>
</g>
<!-- x7 -->
<g id="node8" class="node"><title>x7</title>
<polygon fill="lightgray" stroke="black" points="414,-305.865 378,-305.865 378,-269.865 414,-269.865 414,-305.865"/>
<text text-anchor="middle" x="396" y="-285.665" font-family="Times,serif" font-size="9.00">x7</text>
</g>
<!-- y0 -->
<g id="node9" class="node"><title>y0</title>
<ellipse fill="lightblue" stroke="black" cx="180" cy="-18.3848" rx="18.2703" ry="18.2703"/>
<text text-anchor="middle" x="180" y="-16.1848" font-family="Times,serif" font-size="9.00">y0</text>
</g>
<!-- 2 -->
<g id="node11" class="node"><title>2</title>
<ellipse fill="white" stroke="black" cx="180" cy="-153.317" rx="14.7" ry="14.7"/>
<text text-anchor="middle" x="180" y="-151.117" font-family="Times,serif" font-size="9.00">2</text>
</g>
<!-- 1&#45;&gt;2 -->
<g id="edge5" class="edge"><title>1&#45;&gt;2</title>
<path fill="none" stroke="red" stroke-width="0.300125" d="M180,-203.879C180,-196.457 180,-187.153 180,-178.617"/>
<polygon fill="red" stroke="red" stroke-width="0.300125" points="183.5,-178.414 180,-168.415 176.5,-178.415 183.5,-178.414"/>
</g>
<!-- 3 -->
<g id="node12" class="node"><title>3</title>
<ellipse fill="white" stroke="black" cx="180" cy="-87.6188" rx="14.7" ry="14.7"/>
<text text-anchor="middle" x="180" y="-85.4188" font-family="Times,serif" font-size="9.00">3</text>
</g>
<!-- 2&#45;&gt;3 -->
<g id="edge8" class="edge"><title>2&#45;&gt;3</title>
<path fill="none" stroke="green" stroke-width="0.304503" d="M180,-138.181C180,-130.758 180,-121.455 180,-112.918"/>
<polygon fill="green" stroke="green" stroke-width="0.304503" points="183.5,-112.716 180,-102.716 176.5,-112.716 183.5,-112.716"/>
</g>
<!-- 3&#45;&gt;y0 -->
<g id="edge1" class="edge"><title>3&#45;&gt;y0</title>
<path fill="none" stroke="red" stroke-width="0.205299" d="M180,-72.6879C180,-65.3594 180,-56.1037 180,-47.3701"/>
<polygon fill="red" stroke="red" stroke-width="0.205299" points="183.5,-47.1404 180,-37.1404 176.5,-47.1405 183.5,-47.1404"/>
</g>
</g>
</svg>
