<?xml version="1.0" encoding="UTF-8" standalone="no"?>
<!DOCTYPE svg PUBLIC "-//W3C//DTD SVG 1.1//EN"
 "http://www.w3.org/Graphics/SVG/1.1/DTD/svg11.dtd">
<!-- Generated by graphviz version 2.38.0 (20140413.2041)
 -->
<!-- Title: %3 Pages: 1 -->
<svg width="476pt" height="45pt"
 viewBox="0.00 0.00 476.38 44.77" xmlns="http://www.w3.org/2000/svg" xmlns:xlink="http://www.w3.org/1999/xlink">
<g id="graph0" class="graph" transform="scale(1 1) rotate(0) translate(4 40.7696)">
<title>%3</title>
<polygon fill="white" stroke="none" points="-4,4 -4,-40.7696 472.385,-40.7696 472.385,4 -4,4"/>
<!-- x0 -->
<g id="node1" class="node"><title>x0</title>
<polygon fill="lightgray" stroke="black" points="36,-36.3848 0,-36.3848 0,-0.384776 36,-0.384776 36,-36.3848"/>
<text text-anchor="middle" x="18" y="-16.1848" font-family="Times,serif" font-size="9.00">x0</text>
</g>
<!-- x1 -->
<g id="node2" class="node"><title>x1</title>
<polygon fill="lightgray" stroke="black" points="90,-36.3848 54,-36.3848 54,-0.384776 90,-0.384776 90,-36.3848"/>
<text text-anchor="middle" x="72" y="-16.1848" font-family="Times,serif" font-size="9.00">x1</text>
</g>
<!-- x2 -->
<g id="node3" class="node"><title>x2</title>
<polygon fill="lightgray" stroke="black" points="144,-36.3848 108,-36.3848 108,-0.384776 144,-0.384776 144,-36.3848"/>
<text text-anchor="middle" x="126" y="-16.1848" font-family="Times,serif" font-size="9.00">x2</text>
</g>
<!-- x3 -->
<g id="node4" class="node"><title>x3</title>
<polygon fill="lightgray" stroke="black" points="198,-36.3848 162,-36.3848 162,-0.384776 198,-0.384776 198,-36.3848"/>
<text text-anchor="middle" x="180" y="-16.1848" font-family="Times,serif" font-size="9.00">x3</text>
</g>
<!-- x4 -->
<g id="node5" class="node"><title>x4</title>
<polygon fill="lightgray" stroke="black" points="252,-36.3848 216,-36.3848 216,-0.384776 252,-0.384776 252,-36.3848"/>
<text text-anchor="middle" x="234" y="-16.1848" font-family="Times,serif" font-size="9.00">x4</text>
</g>
<!-- x5 -->
<g id="node6" class="node"><title>x5</title>
<polygon fill="lightgray" stroke="black" points="306,-36.3848 270,-36.3848 270,-0.384776 306,-0.384776 306,-36.3848"/>
<text text-anchor="middle" x="288" y="-16.1848" font-family="Times,serif" font-size="9.00">x5</text>
</g>
<!-- x6 -->
<g id="node7" class="node"><title>x6</title>
<polygon fill="lightgray" stroke="black" points="360,-36.3848 324,-36.3848 324,-0.384776 360,-0.384776 360,-36.3848"/>
<text text-anchor="middle" x="342" y="-16.1848" font-family="Times,serif" font-size="9.00">x6</text>
</g>
<!-- x7 -->
<g id="node8" class="node"><title>x7</title>
<polygon fill="lightgray" stroke="black" points="414,-36.3848 378,-36.3848 378,-0.384776 414,-0.384776 414,-36.3848"/>
<text text-anchor="middle" x="396" y="-16.1848" font-family="Times,serif" font-size="9.00">x7</text>
</g>
<!-- y0 -->
<g id="node9" class="node"><title>y0</title>
<ellipse fill="lightblue" stroke="black" cx="450" cy="-18.3848" rx="18.2703" ry="18.2703"/>
<text text-anchor="middle" x="450" y="-16.1848" font-family="Times,serif" font-size="9.00">y0</text>
</g>
</g>
</svg>
