<?xml version="1.0" encoding="UTF-8" standalone="no"?>
<!DOCTYPE svg PUBLIC "-//W3C//DTD SVG 1.1//EN"
 "http://www.w3.org/Graphics/SVG/1.1/DTD/svg11.dtd">
<!-- Generated by graphviz version 2.38.0 (20140413.2041)
 -->
<!-- Title: %3 Pages: 1 -->
<svg width="554pt" height="294pt"
 viewBox="0.00 0.00 553.75 294.19" xmlns="http://www.w3.org/2000/svg" xmlns:xlink="http://www.w3.org/1999/xlink">
<g id="graph0" class="graph" transform="scale(1 1) rotate(0) translate(4 290.191)">
<title>%3</title>
<polygon fill="white" stroke="none" points="-4,4 -4,-290.191 549.749,-290.191 549.749,4 -4,4"/>
<!-- x0 -->
<g id="node1" class="node"><title>x0</title>
<polygon fill="lightgray" stroke="black" points="36,-279.442 0,-279.442 0,-243.442 36,-243.442 36,-279.442"/>
<text text-anchor="middle" x="18" y="-259.242" font-family="Times,serif" font-size="9.00">x0</text>
</g>
<!-- x1 -->
<g id="node2" class="node"><title>x1</title>
<polygon fill="lightgray" stroke="black" points="90,-279.442 54,-279.442 54,-243.442 90,-243.442 90,-279.442"/>
<text text-anchor="middle" x="72" y="-259.242" font-family="Times,serif" font-size="9.00">x1</text>
</g>
<!-- x2 -->
<g id="node3" class="node"><title>x2</title>
<polygon fill="lightgray" stroke="black" points="144,-279.442 108,-279.442 108,-243.442 144,-243.442 144,-279.442"/>
<text text-anchor="middle" x="126" y="-259.242" font-family="Times,serif" font-size="9.00">x2</text>
</g>
<!-- x3 -->
<g id="node4" class="node"><title>x3</title>
<polygon fill="lightgray" stroke="black" points="198,-279.442 162,-279.442 162,-243.442 198,-243.442 198,-279.442"/>
<text text-anchor="middle" x="180" y="-259.242" font-family="Times,serif" font-size="9.00">x3</text>
</g>
<!-- x4 -->
<g id="node5" class="node"><title>x4</title>
<polygon fill="lightgray" stroke="black" points="252,-279.442 216,-279.442 216,-243.442 252,-243.442 252,-279.442"/>
<text text-anchor="middle" x="234" y="-259.242" font-family="Times,serif" font-size="9.00">x4</text>
</g>
<!-- x5 -->
<g id="node6" class="node"><title>x5</title>
<polygon fill="lightgray" stroke="black" points="306,-279.442 270,-279.442 270,-243.442 306,-243.442 306,-279.442"/>
<text text-anchor="middle" x="288" y="-259.242" font-family="Times,serif" font-size="9.00">x5</text>
</g>
<!-- x6 -->
<g id="node7" class="node"><title>x6</title>
<polygon fill="lightgray" stroke="black" points="360,-279.442 324,-279.442 324,-243.442 360,-243.442 360,-279.442"/>
<text text-anchor="middle" x="342" y="-259.242" font-family="Times,serif" font-size="9.00">x6</text>
</g>
<!-- x7 -->
<g id="node8" class="node"><title>x7</title>
<polygon fill="lightgray" stroke="black" points="414,-279.442 378,-279.442 378,-243.442 414,-243.442 414,-279.442"/>
<text text-anchor="middle" x="396" y="-259.242" font-family="Times,serif" font-size="9.00">x7</text>
</g>
<!-- y0 -->
<g id="node9" class="node"><title>y0</title>
<ellipse fill="lightblue" stroke="black" cx="489" cy="-18.3848" rx="18.2703" ry="18.2703"/>
<text text-anchor="middle" x="489" y="-16.1848" font-family="Times,serif" font-size="9.00">y0</text>
</g>
<!-- 770 -->
<g id="node10" class="node"><title>770</title>
<ellipse fill="white" stroke="black" cx="457" cy="-175.945" rx="21.4286" ry="21.4286"/>
<text text-anchor="middle" x="457" y="-173.745" font-family="Times,serif" font-size="9.00">770</text>
</g>
<!-- 771 -->
<g id="node11" class="node"><title>771</title>
<ellipse fill="white" stroke="black" cx="489" cy="-93.9828" rx="21.4286" ry="21.4286"/>
<text text-anchor="middle" x="489" y="-91.7828" font-family="Times,serif" font-size="9.00">771</text>
</g>
<!-- 770&#45;&gt;771 -->
<g id="edge2" class="edge"><title>770&#45;&gt;771</title>
<path fill="none" stroke="green" stroke-width="0.191636" d="M464.584,-155.995C468.461,-146.306 473.26,-134.315 477.574,-123.534"/>
<polygon fill="green" stroke="green" stroke-width="0.191636" points="480.894,-124.658 481.36,-114.074 474.395,-122.057 480.894,-124.658"/>
</g>
<!-- 771&#45;&gt;y0 -->
<g id="edge1" class="edge"><title>771&#45;&gt;y0</title>
<path fill="none" stroke="red" stroke-width="0.420437" d="M489,-72.4816C489,-64.5864 489,-55.4368 489,-46.9802"/>
<polygon fill="red" stroke="red" stroke-width="0.420437" points="492.5,-46.7856 489,-36.7857 485.5,-46.7857 492.5,-46.7856"/>
</g>
<!-- 1679 -->
<g id="node12" class="node"><title>1679</title>
<ellipse fill="white" stroke="black" cx="521" cy="-175.945" rx="25" ry="25"/>
<text text-anchor="middle" x="521" y="-173.745" font-family="Times,serif" font-size="9.00">1679</text>
</g>
<!-- 1679&#45;&gt;771 -->
<g id="edge4" class="edge"><title>1679&#45;&gt;771</title>
<path fill="none" stroke="green" stroke-width="0.233659" d="M512.086,-152.671C508.463,-143.616 504.232,-133.043 500.388,-123.44"/>
<polygon fill="green" stroke="green" stroke-width="0.233659" points="503.531,-121.872 496.566,-113.888 497.032,-124.473 503.531,-121.872"/>
</g>
<!-- 1649 -->
<g id="node13" class="node"><title>1649</title>
<ellipse fill="white" stroke="black" cx="457" cy="-261.442" rx="25" ry="25"/>
<text text-anchor="middle" x="457" y="-259.242" font-family="Times,serif" font-size="9.00">1649</text>
</g>
<!-- 1649&#45;&gt;770 -->
<g id="edge3" class="edge"><title>1649&#45;&gt;770</title>
<path fill="none" stroke="green" stroke-width="0.121903" d="M457,-236.291C457,-227.333 457,-217.051 457,-207.59"/>
<polygon fill="green" stroke="green" stroke-width="0.121903" points="460.5,-207.37 457,-197.37 453.5,-207.371 460.5,-207.37"/>
</g>
</g>
</svg>
