<?xml version="1.0" encoding="UTF-8" standalone="no"?>
<!DOCTYPE svg PUBLIC "-//W3C//DTD SVG 1.1//EN"
 "http://www.w3.org/Graphics/SVG/1.1/DTD/svg11.dtd">
<!-- Generated by graphviz version 2.38.0 (20140413.2041)
 -->
<!-- Title: %3 Pages: 1 -->
<svg width="476pt" height="118pt"
 viewBox="0.00 0.00 476.38 117.54" xmlns="http://www.w3.org/2000/svg" xmlns:xlink="http://www.w3.org/1999/xlink">
<g id="graph0" class="graph" transform="scale(1 1) rotate(0) translate(4 113.539)">
<title>%3</title>
<polygon fill="white" stroke="none" points="-4,4 -4,-113.539 472.385,-113.539 472.385,4 -4,4"/>
<!-- x0 -->
<g id="node1" class="node"><title>x0</title>
<polygon fill="lightgray" stroke="black" points="36,-109.154 0,-109.154 0,-73.1543 36,-73.1543 36,-109.154"/>
<text text-anchor="middle" x="18" y="-88.9543" font-family="Times,serif" font-size="9.00">x0</text>
</g>
<!-- x1 -->
<g id="node2" class="node"><title>x1</title>
<polygon fill="lightgray" stroke="black" points="90,-109.154 54,-109.154 54,-73.1543 90,-73.1543 90,-109.154"/>
<text text-anchor="middle" x="72" y="-88.9543" font-family="Times,serif" font-size="9.00">x1</text>
</g>
<!-- x2 -->
<g id="node3" class="node"><title>x2</title>
<polygon fill="lightgray" stroke="black" points="144,-109.154 108,-109.154 108,-73.1543 144,-73.1543 144,-109.154"/>
<text text-anchor="middle" x="126" y="-88.9543" font-family="Times,serif" font-size="9.00">x2</text>
</g>
<!-- x3 -->
<g id="node4" class="node"><title>x3</title>
<polygon fill="lightgray" stroke="black" points="198,-109.154 162,-109.154 162,-73.1543 198,-73.1543 198,-109.154"/>
<text text-anchor="middle" x="180" y="-88.9543" font-family="Times,serif" font-size="9.00">x3</text>
</g>
<!-- x4 -->
<g id="node5" class="node"><title>x4</title>
<polygon fill="lightgray" stroke="black" points="252,-109.154 216,-109.154 216,-73.1543 252,-73.1543 252,-109.154"/>
<text text-anchor="middle" x="234" y="-88.9543" font-family="Times,serif" font-size="9.00">x4</text>
</g>
<!-- x5 -->
<g id="node6" class="node"><title>x5</title>
<polygon fill="lightgray" stroke="black" points="306,-109.154 270,-109.154 270,-73.1543 306,-73.1543 306,-109.154"/>
<text text-anchor="middle" x="288" y="-88.9543" font-family="Times,serif" font-size="9.00">x5</text>
</g>
<!-- x6 -->
<g id="node7" class="node"><title>x6</title>
<polygon fill="lightgray" stroke="black" points="360,-109.154 324,-109.154 324,-73.1543 360,-73.1543 360,-109.154"/>
<text text-anchor="middle" x="342" y="-88.9543" font-family="Times,serif" font-size="9.00">x6</text>
</g>
<!-- x7 -->
<g id="node8" class="node"><title>x7</title>
<polygon fill="lightgray" stroke="black" points="414,-109.154 378,-109.154 378,-73.1543 414,-73.1543 414,-109.154"/>
<text text-anchor="middle" x="396" y="-88.9543" font-family="Times,serif" font-size="9.00">x7</text>
</g>
<!-- y0 -->
<g id="node9" class="node"><title>y0</title>
<ellipse fill="lightblue" stroke="black" cx="450" cy="-18.3848" rx="18.2703" ry="18.2703"/>
<text text-anchor="middle" x="450" y="-16.1848" font-family="Times,serif" font-size="9.00">y0</text>
</g>
<!-- 78 -->
<g id="node10" class="node"><title>78</title>
<ellipse fill="white" stroke="black" cx="450" cy="-91.1543" rx="18.2703" ry="18.2703"/>
<text text-anchor="middle" x="450" y="-88.9543" font-family="Times,serif" font-size="9.00">78</text>
</g>
<!-- 78&#45;&gt;y0 -->
<g id="edge1" class="edge"><title>78&#45;&gt;y0</title>
<path fill="none" stroke="red" stroke-width="0.397281" d="M450,-72.6607C450,-64.9784 450,-55.7693 450,-47.185"/>
<polygon fill="red" stroke="red" stroke-width="0.397281" points="453.5,-47.1687 450,-37.1687 446.5,-47.1687 453.5,-47.1687"/>
</g>
</g>
</svg>
