<?xml version="1.0" encoding="UTF-8" standalone="no"?>
<!DOCTYPE svg PUBLIC "-//W3C//DTD SVG 1.1//EN"
 "http://www.w3.org/Graphics/SVG/1.1/DTD/svg11.dtd">
<!-- Generated by graphviz version 2.40.1 (20161225.0304)
 -->
<!-- Title: %3 Pages: 1 -->
<svg width="470pt" height="349pt"
 viewBox="0.00 0.00 469.72 348.51" xmlns="http://www.w3.org/2000/svg" xmlns:xlink="http://www.w3.org/1999/xlink">
<g id="graph0" class="graph" transform="scale(1 1) rotate(0) translate(4 344.5132)">
<title>%3</title>
<polygon fill="#ffffff" stroke="transparent" points="-4,4 -4,-344.5132 465.7193,-344.5132 465.7193,4 -4,4"/>
<!-- x0 -->
<g id="node1" class="node">
<title>x0</title>
<polygon fill="#d3d3d3" stroke="#000000" points="227.8597,-340.5132 191.8597,-340.5132 191.8597,-304.5132 227.8597,-304.5132 227.8597,-340.5132"/>
<text text-anchor="middle" x="209.8597" y="-319.8132" font-family="Times,serif" font-size="9.00" fill="#000000">x0</text>
</g>
<!-- 491 -->
<g id="node11" class="node">
<title>491</title>
<ellipse fill="#ffffff" stroke="#000000" cx="200.8597" cy="-247.6536" rx="20.7202" ry="20.7202"/>
<text text-anchor="middle" x="200.8597" y="-244.9536" font-family="Times,serif" font-size="9.00" fill="#000000">491</text>
</g>
<!-- x0&#45;&gt;491 -->
<g id="edge4" class="edge">
<title>x0&#45;&gt;491</title>
<path fill="none" stroke="#ff0000" stroke-width=".2794" d="M207.681,-304.3918C206.7462,-296.6165 205.6274,-287.3104 204.5688,-278.5057"/>
<polygon fill="#ff0000" stroke="#ff0000" stroke-width=".2794" points="208.0372,-278.0324 203.3685,-268.5217 201.0873,-278.868 208.0372,-278.0324"/>
</g>
<!-- 492 -->
<g id="node12" class="node">
<title>492</title>
<ellipse fill="#ffffff" stroke="#000000" cx="20.8597" cy="-247.6536" rx="20.7202" ry="20.7202"/>
<text text-anchor="middle" x="20.8597" y="-244.9536" font-family="Times,serif" font-size="9.00" fill="#000000">492</text>
</g>
<!-- x0&#45;&gt;492 -->
<g id="edge7" class="edge">
<title>x0&#45;&gt;492</title>
<path fill="none" stroke="#00ff00" stroke-width=".2952" d="M191.7266,-309.2956C188.8459,-307.531 185.8336,-305.8668 182.8597,-304.5132 127.5134,-279.3225 105.9566,-294.2445 50.8597,-268.5132 49.279,-267.7751 47.6918,-266.9548 46.1176,-266.0785"/>
<polygon fill="#00ff00" stroke="#00ff00" stroke-width=".2952" points="47.7188,-262.9522 37.3816,-260.6302 44.0145,-268.8918 47.7188,-262.9522"/>
</g>
<!-- 493 -->
<g id="node13" class="node">
<title>493</title>
<ellipse fill="#ffffff" stroke="#000000" cx="80.8597" cy="-247.6536" rx="20.7202" ry="20.7202"/>
<text text-anchor="middle" x="80.8597" y="-244.9536" font-family="Times,serif" font-size="9.00" fill="#000000">493</text>
</g>
<!-- x0&#45;&gt;493 -->
<g id="edge15" class="edge">
<title>x0&#45;&gt;493</title>
<path fill="none" stroke="#00ff00" stroke-width=".1826" d="M191.7551,-309.9996C188.8195,-308.1 185.7832,-306.2099 182.8597,-304.5132 151.9157,-286.5558 141.6264,-286.7727 110.8597,-268.5132 109.3595,-267.6229 107.8354,-266.6831 106.3099,-265.7148"/>
<polygon fill="#00ff00" stroke="#00ff00" stroke-width=".1826" points="107.9793,-262.6219 97.7133,-260.0025 104.1052,-268.4521 107.9793,-262.6219"/>
</g>
<!-- 494 -->
<g id="node14" class="node">
<title>494</title>
<ellipse fill="#ffffff" stroke="#000000" cx="440.8597" cy="-247.6536" rx="20.7202" ry="20.7202"/>
<text text-anchor="middle" x="440.8597" y="-244.9536" font-family="Times,serif" font-size="9.00" fill="#000000">494</text>
</g>
<!-- x0&#45;&gt;494 -->
<g id="edge1" class="edge">
<title>x0&#45;&gt;494</title>
<path fill="none" stroke="#00ff00" stroke-width=".1051" d="M227.9197,-309.1284C230.8104,-307.3869 233.845,-305.7737 236.8597,-304.5132 309.719,-274.0509 338.3019,-299.6873 410.8597,-268.5132 412.4625,-267.8246 414.0671,-267.0432 415.6547,-266.1969"/>
<polygon fill="#00ff00" stroke="#00ff00" stroke-width=".1051" points="417.7217,-269.0356 424.4293,-260.8345 414.0714,-263.0627 417.7217,-269.0356"/>
</g>
<!-- 496 -->
<g id="node16" class="node">
<title>496</title>
<ellipse fill="#ffffff" stroke="#000000" cx="260.8597" cy="-247.6536" rx="20.7202" ry="20.7202"/>
<text text-anchor="middle" x="260.8597" y="-244.9536" font-family="Times,serif" font-size="9.00" fill="#000000">496</text>
</g>
<!-- x0&#45;&gt;496 -->
<g id="edge25" class="edge">
<title>x0&#45;&gt;496</title>
<path fill="none" stroke="#ff0000" stroke-width=".5204" d="M222.2053,-304.3918C228.4983,-295.1547 236.2632,-283.7572 243.1786,-273.6065"/>
<polygon fill="#ff0000" stroke="#ff0000" stroke-width=".5204" points="246.241,-275.3277 248.9788,-265.0927 240.456,-271.3864 246.241,-275.3277"/>
</g>
<!-- 497 -->
<g id="node17" class="node">
<title>497</title>
<ellipse fill="#ffffff" stroke="#000000" cx="140.8597" cy="-247.6536" rx="20.7202" ry="20.7202"/>
<text text-anchor="middle" x="140.8597" y="-244.9536" font-family="Times,serif" font-size="9.00" fill="#000000">497</text>
</g>
<!-- x0&#45;&gt;497 -->
<g id="edge6" class="edge">
<title>x0&#45;&gt;497</title>
<path fill="none" stroke="#00ff00" stroke-width=".3491" d="M193.1567,-304.3918C183.7851,-294.2244 172.0009,-281.4394 161.9922,-270.5808"/>
<polygon fill="#00ff00" stroke="#00ff00" stroke-width=".3491" points="164.4291,-268.0604 155.0781,-263.0795 159.282,-272.8046 164.4291,-268.0604"/>
</g>
<!-- 498 -->
<g id="node18" class="node">
<title>498</title>
<ellipse fill="#ffffff" stroke="#000000" cx="380.8597" cy="-247.6536" rx="20.7202" ry="20.7202"/>
<text text-anchor="middle" x="380.8597" y="-244.9536" font-family="Times,serif" font-size="9.00" fill="#000000">498</text>
</g>
<!-- x0&#45;&gt;498 -->
<g id="edge42" class="edge">
<title>x0&#45;&gt;498</title>
<path fill="none" stroke="#00ff00" stroke-width=".6631" d="M228.0419,-309.4009C230.9157,-307.6218 233.9131,-305.9255 236.8597,-304.5132 284.7735,-281.5487 303.1728,-291.9457 350.8597,-268.5132 352.4253,-267.7439 354.0008,-266.8991 355.566,-266.004"/>
<polygon fill="#00ff00" stroke="#00ff00" stroke-width=".6631" points="357.6911,-268.8015 364.2761,-260.5016 353.9525,-262.8834 357.6911,-268.8015"/>
</g>
<!-- x1 -->
<g id="node2" class="node">
<title>x1</title>
<polygon fill="#d3d3d3" stroke="#000000" points="389.8597,-340.5132 353.8597,-340.5132 353.8597,-304.5132 389.8597,-304.5132 389.8597,-340.5132"/>
<text text-anchor="middle" x="371.8597" y="-319.8132" font-family="Times,serif" font-size="9.00" fill="#000000">x1</text>
</g>
<!-- x1&#45;&gt;491 -->
<g id="edge66" class="edge">
<title>x1&#45;&gt;491</title>
<path fill="none" stroke="#ff0000" stroke-width=".3316" d="M353.6774,-309.4009C350.8036,-307.6218 347.8062,-305.9255 344.8597,-304.5132 296.9458,-281.5487 278.5465,-291.9457 230.8597,-268.5132 229.294,-267.7439 227.7185,-266.8991 226.1533,-266.004"/>
<polygon fill="#ff0000" stroke="#ff0000" stroke-width=".3316" points="227.7668,-262.8834 217.4432,-260.5016 224.0282,-268.8015 227.7668,-262.8834"/>
</g>
<!-- x1&#45;&gt;494 -->
<g id="edge56" class="edge">
<title>x1&#45;&gt;494</title>
<path fill="none" stroke="#00ff00" stroke-width=".2199" d="M388.5626,-304.3918C397.9342,-294.2244 409.7184,-281.4394 419.7271,-270.5808"/>
<polygon fill="#00ff00" stroke="#00ff00" stroke-width=".2199" points="422.4373,-272.8046 426.6412,-263.0795 417.2902,-268.0604 422.4373,-272.8046"/>
</g>
<!-- 495 -->
<g id="node15" class="node">
<title>495</title>
<ellipse fill="#ffffff" stroke="#000000" cx="320.8597" cy="-247.6536" rx="20.7202" ry="20.7202"/>
<text text-anchor="middle" x="320.8597" y="-244.9536" font-family="Times,serif" font-size="9.00" fill="#000000">495</text>
</g>
<!-- x1&#45;&gt;495 -->
<g id="edge53" class="edge">
<title>x1&#45;&gt;495</title>
<path fill="none" stroke="#00ff00" stroke-width=".24" d="M359.514,-304.3918C353.221,-295.1547 345.4561,-283.7572 338.5407,-273.6065"/>
<polygon fill="#00ff00" stroke="#00ff00" stroke-width=".24" points="341.2633,-271.3864 332.7405,-265.0927 335.4783,-275.3277 341.2633,-271.3864"/>
</g>
<!-- x1&#45;&gt;496 -->
<g id="edge51" class="edge">
<title>x1&#45;&gt;496</title>
<path fill="none" stroke="#00ff00" stroke-width=".294" d="M353.5816,-310.3409C330.6448,-295.0642 293.9156,-270.594 290.8597,-268.5132 289.4177,-267.5314 287.9393,-266.5198 286.449,-265.4962"/>
<polygon fill="#00ff00" stroke="#00ff00" stroke-width=".294" points="288.17,-262.4311 277.9535,-259.6251 284.1903,-268.1897 288.17,-262.4311"/>
</g>
<!-- x1&#45;&gt;497 -->
<g id="edge47" class="edge">
<title>x1&#45;&gt;497</title>
<path fill="none" stroke="#ff0000" stroke-width=".4657" d="M353.7996,-309.1284C350.9089,-307.3869 347.8743,-305.7737 344.8597,-304.5132 272.0003,-274.0509 243.4174,-299.6873 170.8597,-268.5132 169.2568,-267.8246 167.6522,-267.0432 166.0646,-266.1969"/>
<polygon fill="#ff0000" stroke="#ff0000" stroke-width=".4657" points="167.6479,-263.0627 157.29,-260.8345 163.9976,-269.0356 167.6479,-263.0627"/>
</g>
<!-- x1&#45;&gt;498 -->
<g id="edge19" class="edge">
<title>x1&#45;&gt;498</title>
<path fill="none" stroke="#00ff00" stroke-width=".2398" d="M374.0383,-304.3918C374.9731,-296.6165 376.0919,-287.3104 377.1505,-278.5057"/>
<polygon fill="#00ff00" stroke="#00ff00" stroke-width=".2398" points="380.632,-278.868 378.3508,-268.5217 373.6821,-278.0324 380.632,-278.868"/>
</g>
<!-- x2 -->
<g id="node3" class="node">
<title>x2</title>
<polygon fill="#d3d3d3" stroke="#000000" points="119.8597,-340.5132 83.8597,-340.5132 83.8597,-304.5132 119.8597,-304.5132 119.8597,-340.5132"/>
<text text-anchor="middle" x="101.8597" y="-319.8132" font-family="Times,serif" font-size="9.00" fill="#000000">x2</text>
</g>
<!-- x2&#45;&gt;491 -->
<g id="edge44" class="edge">
<title>x2&#45;&gt;491</title>
<path fill="none" stroke="#ff0000" stroke-width=".1534" d="M120.0178,-308.7828C135.7524,-296.885 158.6645,-279.5598 176.0821,-266.3893"/>
<polygon fill="#ff0000" stroke="#ff0000" stroke-width=".1534" points="178.2703,-269.1227 184.1356,-260.2996 174.0483,-263.5393 178.2703,-269.1227"/>
</g>
<!-- x2&#45;&gt;492 -->
<g id="edge38" class="edge">
<title>x2&#45;&gt;492</title>
<path fill="none" stroke="#ff0000" stroke-width=".7498" d="M83.4795,-305.5264C71.7287,-294.6664 56.3941,-280.4943 43.841,-268.8928"/>
<polygon fill="#ff0000" stroke="#ff0000" stroke-width=".7498" points="46.1608,-266.2709 36.4413,-262.054 41.4097,-271.4117 46.1608,-266.2709"/>
</g>
<!-- x2&#45;&gt;493 -->
<g id="edge70" class="edge">
<title>x2&#45;&gt;493</title>
<path fill="none" stroke="#00ff00" stroke-width=".1788" d="M96.7761,-304.3918C94.536,-296.4062 91.8429,-286.8059 89.3144,-277.7925"/>
<polygon fill="#00ff00" stroke="#00ff00" stroke-width=".1788" points="92.6334,-276.6656 86.5625,-267.9826 85.8936,-278.5563 92.6334,-276.6656"/>
</g>
<!-- x2&#45;&gt;495 -->
<g id="edge3" class="edge">
<title>x2&#45;&gt;495</title>
<path fill="none" stroke="#00ff00" stroke-width=".1065" d="M119.9364,-309.168C122.8248,-307.421 125.8543,-305.7957 128.8597,-304.5132 196.6976,-275.5647 223.3083,-298.1244 290.8597,-268.5132 292.4574,-267.8129 294.058,-267.0223 295.6426,-266.1689"/>
<polygon fill="#00ff00" stroke="#00ff00" stroke-width=".1065" points="297.7182,-269.0016 304.4083,-260.7862 294.0552,-263.0364 297.7182,-269.0016"/>
</g>
<!-- x2&#45;&gt;496 -->
<g id="edge52" class="edge">
<title>x2&#45;&gt;496</title>
<path fill="none" stroke="#ff0000" stroke-width=".4954" d="M120.085,-309.4889C122.9529,-307.6976 125.9371,-305.9745 128.8597,-304.5132 171.8584,-283.0139 188.0734,-290.4324 230.8597,-268.5132 232.4123,-267.7178 233.9775,-266.8526 235.5347,-265.9418"/>
<polygon fill="#ff0000" stroke="#ff0000" stroke-width=".4954" points="237.6777,-268.7261 244.2222,-260.3942 233.9103,-262.8263 237.6777,-268.7261"/>
</g>
<!-- x2&#45;&gt;497 -->
<g id="edge10" class="edge">
<title>x2&#45;&gt;497</title>
<path fill="none" stroke="#00ff00" stroke-width=".3227" d="M111.3005,-304.3918C115.8447,-295.6693 121.3926,-285.0202 126.4494,-275.3137"/>
<polygon fill="#00ff00" stroke="#00ff00" stroke-width=".3227" points="129.5821,-276.8757 131.0985,-266.3899 123.3741,-273.6414 129.5821,-276.8757"/>
</g>
<!-- x3 -->
<g id="node4" class="node">
<title>x3</title>
<polygon fill="#d3d3d3" stroke="#000000" points="443.8597,-340.5132 407.8597,-340.5132 407.8597,-304.5132 443.8597,-304.5132 443.8597,-340.5132"/>
<text text-anchor="middle" x="425.8597" y="-319.8132" font-family="Times,serif" font-size="9.00" fill="#000000">x3</text>
</g>
<!-- x3&#45;&gt;494 -->
<g id="edge45" class="edge">
<title>x3&#45;&gt;494</title>
<path fill="none" stroke="#ff0000" stroke-width=".2576" d="M429.4907,-304.3918C431.0612,-296.5543 432.9433,-287.1614 434.72,-278.2944"/>
<polygon fill="#ff0000" stroke="#ff0000" stroke-width=".2576" points="438.1993,-278.7445 436.7323,-268.2517 431.3357,-277.3691 438.1993,-278.7445"/>
</g>
<!-- x3&#45;&gt;495 -->
<g id="edge49" class="edge">
<title>x3&#45;&gt;495</title>
<path fill="none" stroke="#ff0000" stroke-width=".2609" d="M407.57,-309.4737C390.5518,-297.3406 365.039,-279.1512 346.0886,-265.6406"/>
<polygon fill="#ff0000" stroke="#ff0000" stroke-width=".2609" points="348.0719,-262.7561 337.8976,-259.8008 344.0082,-268.4558 348.0719,-262.7561"/>
</g>
<!-- x3&#45;&gt;496 -->
<g id="edge36" class="edge">
<title>x3&#45;&gt;496</title>
<path fill="none" stroke="#00ff00" stroke-width=".3567" d="M407.6571,-309.4428C404.7861,-307.6579 401.7949,-305.9488 398.8597,-304.5132 353.4081,-282.2836 336.0914,-291.1867 290.8597,-268.5132 289.3001,-267.7315 287.7295,-266.877 286.1681,-265.9744"/>
<polygon fill="#00ff00" stroke="#00ff00" stroke-width=".3567" points="287.7867,-262.8562 277.4686,-260.4505 284.0344,-268.7656 287.7867,-262.8562"/>
</g>
<!-- x3&#45;&gt;498 -->
<g id="edge27" class="edge">
<title>x3&#45;&gt;498</title>
<path fill="none" stroke="#00ff00" stroke-width=".1883" d="M414.9664,-304.3918C409.5495,-295.3806 402.8967,-284.3132 396.9094,-274.3531"/>
<polygon fill="#00ff00" stroke="#00ff00" stroke-width=".1883" points="399.8044,-272.3756 391.6526,-265.6081 393.8049,-275.9821 399.8044,-272.3756"/>
</g>
<!-- x4 -->
<g id="node5" class="node">
<title>x4</title>
<polygon fill="#d3d3d3" stroke="#000000" points="335.8597,-340.5132 299.8597,-340.5132 299.8597,-304.5132 335.8597,-304.5132 335.8597,-340.5132"/>
<text text-anchor="middle" x="317.8597" y="-319.8132" font-family="Times,serif" font-size="9.00" fill="#000000">x4</text>
</g>
<!-- x4&#45;&gt;491 -->
<g id="edge40" class="edge">
<title>x4&#45;&gt;491</title>
<path fill="none" stroke="#ff0000" stroke-width=".4054" d="M299.6368,-310.1947C296.7165,-308.2698 293.716,-306.3208 290.8597,-304.5132 264.5812,-287.8834 256.9741,-285.3995 230.8597,-268.5132 229.3947,-267.566 227.8984,-266.5815 226.3942,-265.5788"/>
<polygon fill="#ff0000" stroke="#ff0000" stroke-width=".4054" points="228.0947,-262.5024 217.8588,-259.7678 224.1552,-268.2887 228.0947,-262.5024"/>
</g>
<!-- x4&#45;&gt;493 -->
<g id="edge35" class="edge">
<title>x4&#45;&gt;493</title>
<path fill="none" stroke="#ff0000" stroke-width=".4029" d="M299.807,-309.1105C296.9153,-307.3714 293.8785,-305.7637 290.8597,-304.5132 215.4856,-273.2923 185.9245,-300.4705 110.8597,-268.5132 109.2546,-267.8299 107.6481,-267.0527 106.0592,-266.2096"/>
<polygon fill="#ff0000" stroke="#ff0000" stroke-width=".4029" points="107.6407,-263.0746 97.2806,-260.8564 103.9962,-269.0511 107.6407,-263.0746"/>
</g>
<!-- x4&#45;&gt;494 -->
<g id="edge39" class="edge">
<title>x4&#45;&gt;494</title>
<path fill="none" stroke="#ff0000" stroke-width=".3991" d="M336.0183,-310.0909C338.9469,-308.1794 341.9668,-306.2618 344.8597,-304.5132 373.4552,-287.2291 382.4347,-286.0765 410.8597,-268.5132 412.3437,-267.5963 413.8551,-266.6356 415.3709,-265.6512"/>
<polygon fill="#ff0000" stroke="#ff0000" stroke-width=".3991" points="417.5919,-268.3756 423.9394,-259.8927 413.6873,-262.5657 417.5919,-268.3756"/>
</g>
<!-- x4&#45;&gt;495 -->
<g id="edge64" class="edge">
<title>x4&#45;&gt;495</title>
<path fill="none" stroke="#ff0000" stroke-width=".1866" d="M318.5859,-304.3918C318.8941,-296.701 319.2623,-287.5125 319.6117,-278.7929"/>
<polygon fill="#ff0000" stroke="#ff0000" stroke-width=".1866" points="323.12,-278.6539 320.0234,-268.5217 316.1256,-278.3735 323.12,-278.6539"/>
</g>
<!-- x5 -->
<g id="node6" class="node">
<title>x5</title>
<polygon fill="#d3d3d3" stroke="#000000" points="65.8597,-340.5132 29.8597,-340.5132 29.8597,-304.5132 65.8597,-304.5132 65.8597,-340.5132"/>
<text text-anchor="middle" x="47.8597" y="-319.8132" font-family="Times,serif" font-size="9.00" fill="#000000">x5</text>
</g>
<!-- x5&#45;&gt;491 -->
<g id="edge29" class="edge">
<title>x5&#45;&gt;491</title>
<path fill="none" stroke="#ff0000" stroke-width=".4155" d="M66.1108,-309.5398C68.9751,-307.7415 71.9515,-306.0029 74.8597,-304.5132 115.4165,-283.7386 130.5081,-289.6838 170.8597,-268.5132 172.4044,-267.7028 173.9635,-266.8257 175.516,-265.9057"/>
<polygon fill="#ff0000" stroke="#ff0000" stroke-width=".4155" points="177.6692,-268.6825 184.1899,-260.3319 173.885,-262.7935 177.6692,-268.6825"/>
</g>
<!-- x5&#45;&gt;492 -->
<g id="edge22" class="edge">
<title>x5&#45;&gt;492</title>
<path fill="none" stroke="#ff0000" stroke-width=".4033" d="M41.3237,-304.3918C38.3667,-296.1932 34.7958,-286.2927 31.4703,-277.0726"/>
<polygon fill="#ff0000" stroke="#ff0000" stroke-width=".4033" points="34.6841,-275.6669 27.9988,-267.4476 28.0993,-278.0419 34.6841,-275.6669"/>
</g>
<!-- x5&#45;&gt;493 -->
<g id="edge31" class="edge">
<title>x5&#45;&gt;493</title>
<path fill="none" stroke="#00ff00" stroke-width=".5375" d="M55.848,-304.3918C59.5572,-295.9776 64.0567,-285.7706 68.2111,-276.3464"/>
<polygon fill="#00ff00" stroke="#00ff00" stroke-width=".5375" points="71.5369,-277.4788 72.368,-266.9166 65.1316,-274.6552 71.5369,-277.4788"/>
</g>
<!-- x5&#45;&gt;495 -->
<g id="edge5" class="edge">
<title>x5&#45;&gt;495</title>
<path fill="none" stroke="#00ff00" stroke-width=".6597" d="M65.8768,-309.0228C68.7734,-307.2959 71.8211,-305.7148 74.8597,-304.5132 165.3643,-268.7234 200.7097,-305.1872 290.8597,-268.5132 292.4756,-267.8559 294.0905,-267.099 295.686,-266.2717"/>
<polygon fill="#00ff00" stroke="#00ff00" stroke-width=".6597" points="297.7293,-269.1266 304.4833,-260.9635 294.1129,-263.1331 297.7293,-269.1266"/>
</g>
<!-- x5&#45;&gt;496 -->
<g id="edge30" class="edge">
<title>x5&#45;&gt;496</title>
<path fill="none" stroke="#ff0000" stroke-width=".2046" d="M65.9458,-309.1899C68.833,-307.4399 71.8596,-305.8079 74.8597,-304.5132 140.1914,-276.3197 165.807,-297.3449 230.8597,-268.5132 232.4545,-267.8064 234.0529,-267.0107 235.6357,-266.1534"/>
<polygon fill="#ff0000" stroke="#ff0000" stroke-width=".2046" points="237.7161,-268.9827 244.3965,-260.7594 234.0461,-263.0219 237.7161,-268.9827"/>
</g>
<!-- x5&#45;&gt;497 -->
<g id="edge54" class="edge">
<title>x5&#45;&gt;497</title>
<path fill="none" stroke="#ff0000" stroke-width=".3559" d="M66.2335,-307.7234C80.5261,-296.2186 100.4974,-280.1429 116.1834,-267.5165"/>
<polygon fill="#ff0000" stroke="#ff0000" stroke-width=".3559" points="118.7985,-269.9046 124.3938,-260.9077 114.4092,-264.4516 118.7985,-269.9046"/>
</g>
<!-- x6 -->
<g id="node7" class="node">
<title>x6</title>
<polygon fill="#d3d3d3" stroke="#000000" points="281.8597,-340.5132 245.8597,-340.5132 245.8597,-304.5132 281.8597,-304.5132 281.8597,-340.5132"/>
<text text-anchor="middle" x="263.8597" y="-319.8132" font-family="Times,serif" font-size="9.00" fill="#000000">x6</text>
</g>
<!-- x6&#45;&gt;491 -->
<g id="edge71" class="edge">
<title>x6&#45;&gt;491</title>
<path fill="none" stroke="#00ff00" stroke-width=".2242" d="M248.6091,-304.3918C240.3097,-294.53 229.9378,-282.2056 220.9829,-271.565"/>
<polygon fill="#00ff00" stroke="#00ff00" stroke-width=".2242" points="223.586,-269.2225 214.4691,-263.825 218.2302,-273.7298 223.586,-269.2225"/>
</g>
<!-- x6&#45;&gt;492 -->
<g id="edge21" class="edge">
<title>x6&#45;&gt;492</title>
<path fill="none" stroke="#ff0000" stroke-width=".31" d="M245.814,-309.0936C242.9213,-307.3569 239.8823,-305.7543 236.8597,-304.5132 158.9685,-272.5327 128.434,-301.2546 50.8597,-268.5132 49.2524,-267.8349 47.6443,-267.0616 46.0541,-266.2215"/>
<polygon fill="#ff0000" stroke="#ff0000" stroke-width=".31" points="47.6339,-263.0858 37.2719,-260.877 43.9949,-269.0656 47.6339,-263.0858"/>
</g>
<!-- x6&#45;&gt;493 -->
<g id="edge13" class="edge">
<title>x6&#45;&gt;493</title>
<path fill="none" stroke="#00ff00" stroke-width=".3601" d="M245.7118,-309.3277C242.8332,-307.5587 239.8254,-305.8847 236.8597,-304.5132 183.9975,-280.0676 163.48,-293.4751 110.8597,-268.5132 109.2835,-267.7656 107.6998,-266.9378 106.1283,-266.0558"/>
<polygon fill="#00ff00" stroke="#00ff00" stroke-width=".3601" points="107.7332,-262.9312 97.4,-260.591 104.0185,-268.8643 107.7332,-262.9312"/>
</g>
<!-- x6&#45;&gt;494 -->
<g id="edge23" class="edge">
<title>x6&#45;&gt;494</title>
<path fill="none" stroke="#00ff00" stroke-width=".4089" d="M282.0238,-309.3627C284.9001,-307.5888 287.903,-305.9042 290.8597,-304.5132 341.2441,-280.8099 360.7096,-292.7087 410.8597,-268.5132 412.4308,-267.7552 414.0107,-266.9193 415.5791,-266.031"/>
<polygon fill="#00ff00" stroke="#00ff00" stroke-width=".4089" points="417.6963,-268.8342 424.2988,-260.5483 413.9702,-262.9083 417.6963,-268.8342"/>
</g>
<!-- x6&#45;&gt;495 -->
<g id="edge59" class="edge">
<title>x6&#45;&gt;495</title>
<path fill="none" stroke="#00ff00" stroke-width=".2345" d="M277.6578,-304.3918C284.9892,-294.7633 294.108,-282.7873 302.0759,-272.3229"/>
<polygon fill="#00ff00" stroke="#00ff00" stroke-width=".2345" points="304.8896,-274.4049 308.163,-264.3284 299.3203,-270.1642 304.8896,-274.4049"/>
</g>
<!-- x6&#45;&gt;496 -->
<g id="edge46" class="edge">
<title>x6&#45;&gt;496</title>
<path fill="none" stroke="#ff0000" stroke-width=".1071" d="M263.1334,-304.3918C262.8252,-296.701 262.457,-287.5125 262.1076,-278.7929"/>
<polygon fill="#ff0000" stroke="#ff0000" stroke-width=".1071" points="265.5937,-278.3735 261.6959,-268.5217 258.5993,-278.6539 265.5937,-278.3735"/>
</g>
<!-- x6&#45;&gt;497 -->
<g id="edge61" class="edge">
<title>x6&#45;&gt;497</title>
<path fill="none" stroke="#00ff00" stroke-width=".1147" d="M245.701,-310.0909C242.7724,-308.1794 239.7525,-306.2618 236.8597,-304.5132 208.2641,-287.2291 199.2846,-286.0765 170.8597,-268.5132 169.3756,-267.5963 167.8642,-266.6356 166.3484,-265.6512"/>
<polygon fill="#00ff00" stroke="#00ff00" stroke-width=".1147" points="168.032,-262.5657 157.7799,-259.8927 164.1274,-268.3756 168.032,-262.5657"/>
</g>
<!-- x6&#45;&gt;498 -->
<g id="edge58" class="edge">
<title>x6&#45;&gt;498</title>
<path fill="none" stroke="#ff0000" stroke-width=".4708" d="M282.0825,-310.1947C285.0028,-308.2698 288.0033,-306.3208 290.8597,-304.5132 317.1381,-287.8834 324.7452,-285.3995 350.8597,-268.5132 352.3246,-267.566 353.8209,-266.5815 355.3251,-265.5788"/>
<polygon fill="#ff0000" stroke="#ff0000" stroke-width=".4708" points="357.5641,-268.2887 363.8605,-259.7678 353.6246,-262.5024 357.5641,-268.2887"/>
</g>
<!-- x7 -->
<g id="node8" class="node">
<title>x7</title>
<polygon fill="#d3d3d3" stroke="#000000" points="173.8597,-340.5132 137.8597,-340.5132 137.8597,-304.5132 173.8597,-304.5132 173.8597,-340.5132"/>
<text text-anchor="middle" x="155.8597" y="-319.8132" font-family="Times,serif" font-size="9.00" fill="#000000">x7</text>
</g>
<!-- x7&#45;&gt;491 -->
<g id="edge37" class="edge">
<title>x7&#45;&gt;491</title>
<path fill="none" stroke="#00ff00" stroke-width=".1891" d="M166.7529,-304.3918C172.1698,-295.3806 178.8226,-284.3132 184.8099,-274.3531"/>
<polygon fill="#00ff00" stroke="#00ff00" stroke-width=".1891" points="187.9144,-275.9821 190.0667,-265.6081 181.9149,-272.3756 187.9144,-275.9821"/>
</g>
<!-- x7&#45;&gt;492 -->
<g id="edge24" class="edge">
<title>x7&#45;&gt;492</title>
<path fill="none" stroke="#00ff00" stroke-width=".1472" d="M137.8011,-309.919C134.8596,-308.0297 131.8094,-306.164 128.8597,-304.5132 95.5413,-285.8674 83.9939,-287.4843 50.8597,-268.5132 49.3457,-267.6464 47.8109,-266.7252 46.2771,-265.7711"/>
<polygon fill="#00ff00" stroke="#00ff00" stroke-width=".1472" points="47.9346,-262.672 37.6567,-260.0996 44.0871,-268.5199 47.9346,-262.672"/>
</g>
<!-- x7&#45;&gt;493 -->
<g id="edge63" class="edge">
<title>x7&#45;&gt;493</title>
<path fill="none" stroke="#00ff00" stroke-width=".5939" d="M137.7042,-304.3918C127.278,-293.9851 114.1043,-280.8361 103.0648,-269.8172"/>
<polygon fill="#00ff00" stroke="#00ff00" stroke-width=".5939" points="105.3733,-267.1763 95.823,-262.589 100.4282,-272.1307 105.3733,-267.1763"/>
</g>
<!-- x7&#45;&gt;494 -->
<g id="edge9" class="edge">
<title>x7&#45;&gt;494</title>
<path fill="none" stroke="#ff0000" stroke-width=".2179" d="M173.8676,-308.9995C176.7655,-307.2758 179.816,-305.7018 182.8597,-304.5132 278.4203,-267.1955 315.6689,-306.7646 410.8597,-268.5132 412.4783,-267.8628 414.0955,-267.1114 415.6927,-266.2882"/>
<polygon fill="#ff0000" stroke="#ff0000" stroke-width=".2179" points="417.7307,-269.1467 424.4948,-260.9921 414.1218,-263.1487 417.7307,-269.1467"/>
</g>
<!-- x7&#45;&gt;496 -->
<g id="edge14" class="edge">
<title>x7&#45;&gt;496</title>
<path fill="none" stroke="#ff0000" stroke-width=".3716" d="M174.1493,-309.4737C191.1675,-297.3406 216.6803,-279.1512 235.6307,-265.6406"/>
<polygon fill="#ff0000" stroke="#ff0000" stroke-width=".3716" points="237.7111,-268.4558 243.8217,-259.8008 233.6474,-262.7561 237.7111,-268.4558"/>
</g>
<!-- x7&#45;&gt;497 -->
<g id="edge68" class="edge">
<title>x7&#45;&gt;497</title>
<path fill="none" stroke="#00ff00" stroke-width=".8401" d="M152.2286,-304.3918C150.6581,-296.5543 148.776,-287.1614 146.9993,-278.2944"/>
<polygon fill="#00ff00" stroke="#00ff00" stroke-width=".8401" points="150.3836,-277.3691 144.987,-268.2517 143.52,-278.7445 150.3836,-277.3691"/>
</g>
<!-- x7&#45;&gt;498 -->
<g id="edge26" class="edge">
<title>x7&#45;&gt;498</title>
<path fill="none" stroke="#00ff00" stroke-width=".5167" d="M173.9278,-309.1475C176.8174,-307.4034 179.8495,-305.7843 182.8597,-304.5132 253.2069,-274.8084 280.8065,-298.9052 350.8597,-268.5132 352.46,-267.8189 354.0628,-267.0331 355.6489,-266.1834"/>
<polygon fill="#00ff00" stroke="#00ff00" stroke-width=".5167" points="357.72,-269.0192 364.4192,-260.8111 354.0636,-263.05 357.72,-269.0192"/>
</g>
<!-- y0 -->
<g id="node9" class="node">
<title>y0</title>
<ellipse fill="#add8e6" stroke="#000000" cx="170.8597" cy="-17.6777" rx="17.8571" ry="17.8571"/>
<text text-anchor="middle" x="170.8597" y="-14.9777" font-family="Times,serif" font-size="9.00" fill="#000000">y0</text>
</g>
<!-- 504 -->
<g id="node10" class="node">
<title>504</title>
<ellipse fill="#ffffff" stroke="#000000" cx="200.8597" cy="-92.215" rx="20.7202" ry="20.7202"/>
<text text-anchor="middle" x="200.8597" y="-89.515" font-family="Times,serif" font-size="9.00" fill="#000000">504</text>
</g>
<!-- 504&#45;&gt;y0 -->
<g id="edge41" class="edge">
<title>504&#45;&gt;y0</title>
<path fill="none" stroke="#00ff00" stroke-width=".8321" d="M192.9775,-72.6312C189.4214,-63.7956 185.1704,-53.2337 181.3497,-43.7411"/>
<polygon fill="#00ff00" stroke="#00ff00" stroke-width=".8321" points="184.5519,-42.3231 177.5712,-34.3531 178.0582,-44.9367 184.5519,-42.3231"/>
</g>
<!-- 499 -->
<g id="node19" class="node">
<title>499</title>
<ellipse fill="#ffffff" stroke="#000000" cx="260.8597" cy="-169.9343" rx="20.7202" ry="20.7202"/>
<text text-anchor="middle" x="260.8597" y="-167.2343" font-family="Times,serif" font-size="9.00" fill="#000000">499</text>
</g>
<!-- 491&#45;&gt;499 -->
<g id="edge17" class="edge">
<title>491&#45;&gt;499</title>
<path fill="none" stroke="#00ff00" stroke-width=".2167" d="M213.8788,-230.7897C222.0326,-220.2278 232.6819,-206.4335 241.7796,-194.6491"/>
<polygon fill="#00ff00" stroke="#00ff00" stroke-width=".2167" points="244.7316,-196.5528 248.0721,-186.4983 239.1907,-192.2751 244.7316,-196.5528"/>
</g>
<!-- 500 -->
<g id="node20" class="node">
<title>500</title>
<ellipse fill="#ffffff" stroke="#000000" cx="200.8597" cy="-169.9343" rx="20.7202" ry="20.7202"/>
<text text-anchor="middle" x="200.8597" y="-167.2343" font-family="Times,serif" font-size="9.00" fill="#000000">500</text>
</g>
<!-- 491&#45;&gt;500 -->
<g id="edge50" class="edge">
<title>491&#45;&gt;500</title>
<path fill="none" stroke="#ff0000" stroke-width=".4854" d="M200.8597,-226.4164C200.8597,-218.5562 200.8597,-209.4755 200.8597,-200.9253"/>
<polygon fill="#ff0000" stroke="#ff0000" stroke-width=".4854" points="204.3597,-200.8766 200.8597,-190.8767 197.3597,-200.8767 204.3597,-200.8766"/>
</g>
<!-- 502 -->
<g id="node21" class="node">
<title>502</title>
<ellipse fill="#ffffff" stroke="#000000" cx="140.8597" cy="-169.9343" rx="20.7202" ry="20.7202"/>
<text text-anchor="middle" x="140.8597" y="-167.2343" font-family="Times,serif" font-size="9.00" fill="#000000">502</text>
</g>
<!-- 491&#45;&gt;502 -->
<g id="edge28" class="edge">
<title>491&#45;&gt;502</title>
<path fill="none" stroke="#ff0000" stroke-width=".4013" d="M187.8405,-230.7897C179.6867,-220.2278 169.0374,-206.4335 159.9397,-194.6491"/>
<polygon fill="#ff0000" stroke="#ff0000" stroke-width=".4013" points="162.5286,-192.2751 153.6472,-186.4983 156.9877,-196.5528 162.5286,-192.2751"/>
</g>
<!-- 492&#45;&gt;500 -->
<g id="edge62" class="edge">
<title>492&#45;&gt;500</title>
<path fill="none" stroke="#ff0000" stroke-width=".1428" d="M37.4205,-234.7589C41.6452,-231.8632 46.2889,-228.9991 50.8597,-226.7939 101.0097,-202.5985 120.7096,-214.9894 170.8597,-190.7939 172.4308,-190.0359 174.0107,-189.2 175.5791,-188.3117"/>
<polygon fill="#ff0000" stroke="#ff0000" stroke-width=".1428" points="177.6963,-191.1149 184.2988,-182.829 173.9702,-185.189 177.6963,-191.1149"/>
</g>
<!-- 492&#45;&gt;502 -->
<g id="edge20" class="edge">
<title>492&#45;&gt;502</title>
<path fill="none" stroke="#ff0000" stroke-width=".1821" d="M37.9043,-235.6088C42.1143,-232.6873 46.6301,-229.5985 50.8597,-226.7939 71.8468,-212.8777 95.988,-197.6683 113.9809,-186.4842"/>
<polygon fill="#ff0000" stroke="#ff0000" stroke-width=".1821" points="116.1242,-189.2737 122.7804,-181.0308 112.4366,-183.3237 116.1242,-189.2737"/>
</g>
<!-- 493&#45;&gt;499 -->
<g id="edge48" class="edge">
<title>493&#45;&gt;499</title>
<path fill="none" stroke="#ff0000" stroke-width=".9" d="M97.4205,-234.7589C101.6452,-231.8632 106.2889,-228.9991 110.8597,-226.7939 161.0097,-202.5985 180.7096,-214.9894 230.8597,-190.7939 232.4308,-190.0359 234.0107,-189.2 235.5791,-188.3117"/>
<polygon fill="#ff0000" stroke="#ff0000" stroke-width=".9" points="237.6963,-191.1149 244.2988,-182.829 233.9702,-185.189 237.6963,-191.1149"/>
</g>
<!-- 493&#45;&gt;500 -->
<g id="edge69" class="edge">
<title>493&#45;&gt;500</title>
<path fill="none" stroke="#ff0000" stroke-width=".3153" d="M97.8588,-235.5394C102.0703,-232.62 106.5981,-229.5496 110.8597,-226.7939 136.9741,-209.9077 144.7452,-207.6802 170.8597,-190.7939 172.3246,-189.8467 173.8209,-188.8622 175.3251,-187.8595"/>
<polygon fill="#ff0000" stroke="#ff0000" stroke-width=".3153" points="177.5641,-190.5694 183.8605,-182.0485 173.6246,-184.7831 177.5641,-190.5694"/>
</g>
<!-- 493&#45;&gt;502 -->
<g id="edge33" class="edge">
<title>493&#45;&gt;502</title>
<path fill="none" stroke="#ff0000" stroke-width=".6172" d="M93.8788,-230.7897C102.0326,-220.2278 112.6819,-206.4335 121.7796,-194.6491"/>
<polygon fill="#ff0000" stroke="#ff0000" stroke-width=".6172" points="124.7316,-196.5528 128.0721,-186.4983 119.1907,-192.2751 124.7316,-196.5528"/>
</g>
<!-- 494&#45;&gt;499 -->
<g id="edge8" class="edge">
<title>494&#45;&gt;499</title>
<path fill="none" stroke="#00ff00" stroke-width=".6755" d="M424.184,-234.9866C419.9628,-232.0839 415.3494,-229.1597 410.8597,-226.7939 371.0143,-205.7985 321.6513,-188.6387 290.6963,-178.847"/>
<polygon fill="#00ff00" stroke="#00ff00" stroke-width=".6755" points="291.5329,-175.4419 280.9446,-175.8139 289.4538,-182.126 291.5329,-175.4419"/>
</g>
<!-- 494&#45;&gt;500 -->
<g id="edge55" class="edge">
<title>494&#45;&gt;500</title>
<path fill="none" stroke="#00ff00" stroke-width=".3271" d="M424.4387,-234.4508C420.2097,-231.5644 415.529,-228.7818 410.8597,-226.7939 335.7948,-194.8367 305.9245,-222.7512 230.8597,-190.7939 229.2546,-190.1106 227.6481,-189.3334 226.0592,-188.4903"/>
<polygon fill="#00ff00" stroke="#00ff00" stroke-width=".3271" points="227.6407,-185.3553 217.2806,-183.1371 223.9962,-191.3318 227.6407,-185.3553"/>
</g>
<!-- 495&#45;&gt;499 -->
<g id="edge60" class="edge">
<title>495&#45;&gt;499</title>
<path fill="none" stroke="#ff0000" stroke-width=".1709" d="M307.8405,-230.7897C299.6867,-220.2278 289.0374,-206.4335 279.9397,-194.6491"/>
<polygon fill="#ff0000" stroke="#ff0000" stroke-width=".1709" points="282.5286,-192.2751 273.6472,-186.4983 276.9877,-196.5528 282.5286,-192.2751"/>
</g>
<!-- 495&#45;&gt;502 -->
<g id="edge67" class="edge">
<title>495&#45;&gt;502</title>
<path fill="none" stroke="#ff0000" stroke-width=".4971" d="M304.2988,-234.7589C300.0741,-231.8632 295.4304,-228.9991 290.8597,-226.7939 240.7096,-202.5985 221.0097,-214.9894 170.8597,-190.7939 169.2885,-190.0359 167.7086,-189.2 166.1402,-188.3117"/>
<polygon fill="#ff0000" stroke="#ff0000" stroke-width=".4971" points="167.7491,-185.189 157.4205,-182.829 164.023,-191.1149 167.7491,-185.189"/>
</g>
<!-- 496&#45;&gt;499 -->
<g id="edge34" class="edge">
<title>496&#45;&gt;499</title>
<path fill="none" stroke="#00ff00" stroke-width=".8029" d="M260.8597,-226.4164C260.8597,-218.5562 260.8597,-209.4755 260.8597,-200.9253"/>
<polygon fill="#00ff00" stroke="#00ff00" stroke-width=".8029" points="264.3597,-200.8766 260.8597,-190.8767 257.3597,-200.8767 264.3597,-200.8766"/>
</g>
<!-- 496&#45;&gt;500 -->
<g id="edge65" class="edge">
<title>496&#45;&gt;500</title>
<path fill="none" stroke="#ff0000" stroke-width=".5283" d="M247.8405,-230.7897C239.6867,-220.2278 229.0374,-206.4335 219.9397,-194.6491"/>
<polygon fill="#ff0000" stroke="#ff0000" stroke-width=".5283" points="222.5286,-192.2751 213.6472,-186.4983 216.9877,-196.5528 222.5286,-192.2751"/>
</g>
<!-- 496&#45;&gt;502 -->
<g id="edge2" class="edge">
<title>496&#45;&gt;502</title>
<path fill="none" stroke="#00ff00" stroke-width=".2649" d="M243.8605,-235.5394C239.649,-232.62 235.1212,-229.5496 230.8597,-226.7939 204.7452,-209.9077 196.9741,-207.6802 170.8597,-190.7939 169.3947,-189.8467 167.8984,-188.8622 166.3942,-187.8595"/>
<polygon fill="#00ff00" stroke="#00ff00" stroke-width=".2649" points="168.0947,-184.7831 157.8588,-182.0485 164.1552,-190.5694 168.0947,-184.7831"/>
</g>
<!-- 497&#45;&gt;499 -->
<g id="edge12" class="edge">
<title>497&#45;&gt;499</title>
<path fill="none" stroke="#00ff00" stroke-width=".4254" d="M157.8588,-235.5394C162.0703,-232.62 166.5981,-229.5496 170.8597,-226.7939 196.9741,-209.9077 204.7452,-207.6802 230.8597,-190.7939 232.3246,-189.8467 233.8209,-188.8622 235.3251,-187.8595"/>
<polygon fill="#00ff00" stroke="#00ff00" stroke-width=".4254" points="237.5641,-190.5694 243.8605,-182.0485 233.6246,-184.7831 237.5641,-190.5694"/>
</g>
<!-- 497&#45;&gt;500 -->
<g id="edge43" class="edge">
<title>497&#45;&gt;500</title>
<path fill="none" stroke="#00ff00" stroke-width=".1052" d="M153.8788,-230.7897C162.0326,-220.2278 172.6819,-206.4335 181.7796,-194.6491"/>
<polygon fill="#00ff00" stroke="#00ff00" stroke-width=".1052" points="184.7316,-196.5528 188.0721,-186.4983 179.1907,-192.2751 184.7316,-196.5528"/>
</g>
<!-- 498&#45;&gt;500 -->
<g id="edge72" class="edge">
<title>498&#45;&gt;500</title>
<path fill="none" stroke="#00ff00" stroke-width=".2315" d="M364.2988,-234.7589C360.0741,-231.8632 355.4304,-228.9991 350.8597,-226.7939 300.7096,-202.5985 281.0097,-214.9894 230.8597,-190.7939 229.2885,-190.0359 227.7086,-189.2 226.1402,-188.3117"/>
<polygon fill="#00ff00" stroke="#00ff00" stroke-width=".2315" points="227.7491,-185.189 217.4205,-182.829 224.023,-191.1149 227.7491,-185.189"/>
</g>
<!-- 498&#45;&gt;502 -->
<g id="edge57" class="edge">
<title>498&#45;&gt;502</title>
<path fill="none" stroke="#ff0000" stroke-width=".4659" d="M364.4387,-234.4508C360.2097,-231.5644 355.529,-228.7818 350.8597,-226.7939 275.7948,-194.8367 245.9245,-222.7512 170.8597,-190.7939 169.2546,-190.1106 167.6481,-189.3334 166.0592,-188.4903"/>
<polygon fill="#ff0000" stroke="#ff0000" stroke-width=".4659" points="167.6407,-185.3553 157.2806,-183.1371 163.9962,-191.3318 167.6407,-185.3553"/>
</g>
<!-- 499&#45;&gt;504 -->
<g id="edge18" class="edge">
<title>499&#45;&gt;504</title>
<path fill="none" stroke="#ff0000" stroke-width=".8206" d="M247.8405,-153.0704C239.6867,-142.5085 229.0374,-128.7142 219.9397,-116.9298"/>
<polygon fill="#ff0000" stroke="#ff0000" stroke-width=".8206" points="222.5286,-114.5558 213.6472,-108.779 216.9877,-118.8335 222.5286,-114.5558"/>
</g>
<!-- 500&#45;&gt;504 -->
<g id="edge11" class="edge">
<title>500&#45;&gt;504</title>
<path fill="none" stroke="#00ff00" stroke-width=".1983" d="M200.8597,-148.6971C200.8597,-140.8369 200.8597,-131.7562 200.8597,-123.206"/>
<polygon fill="#00ff00" stroke="#00ff00" stroke-width=".1983" points="204.3597,-123.1573 200.8597,-113.1574 197.3597,-123.1574 204.3597,-123.1573"/>
</g>
<!-- 503 -->
<g id="node22" class="node">
<title>503</title>
<ellipse fill="#ffffff" stroke="#000000" cx="140.8597" cy="-92.215" rx="20.7202" ry="20.7202"/>
<text text-anchor="middle" x="140.8597" y="-89.515" font-family="Times,serif" font-size="9.00" fill="#000000">503</text>
</g>
<!-- 502&#45;&gt;503 -->
<g id="edge16" class="edge">
<title>502&#45;&gt;503</title>
<path fill="none" stroke="#00ff00" stroke-width=".1418" d="M140.8597,-148.6971C140.8597,-140.8369 140.8597,-131.7562 140.8597,-123.206"/>
<polygon fill="#00ff00" stroke="#00ff00" stroke-width=".1418" points="144.3597,-123.1573 140.8597,-113.1574 137.3597,-123.1574 144.3597,-123.1573"/>
</g>
<!-- 503&#45;&gt;y0 -->
<g id="edge32" class="edge">
<title>503&#45;&gt;y0</title>
<path fill="none" stroke="#ff0000" stroke-width=".1503" d="M148.7418,-72.6312C152.2979,-63.7956 156.5489,-53.2337 160.3696,-43.7411"/>
<polygon fill="#ff0000" stroke="#ff0000" stroke-width=".1503" points="163.6611,-44.9367 164.1481,-34.3531 157.1674,-42.3231 163.6611,-44.9367"/>
</g>
</g>
</svg>
