<?xml version="1.0" encoding="UTF-8" standalone="no"?>
<!DOCTYPE svg PUBLIC "-//W3C//DTD SVG 1.1//EN"
 "http://www.w3.org/Graphics/SVG/1.1/DTD/svg11.dtd">
<!-- Generated by graphviz version 2.40.1 (20161225.0304)
 -->
<!-- Title: %3 Pages: 1 -->
<svg width="548pt" height="368pt"
 viewBox="0.00 0.00 548.04 367.61" xmlns="http://www.w3.org/2000/svg" xmlns:xlink="http://www.w3.org/1999/xlink">
<g id="graph0" class="graph" transform="scale(1 1) rotate(0) translate(4 363.6051)">
<title>%3</title>
<polygon fill="#ffffff" stroke="transparent" points="-4,4 -4,-363.6051 544.0416,-363.6051 544.0416,4 -4,4"/>
<!-- x0 -->
<g id="node1" class="node">
<title>x0</title>
<polygon fill="#d3d3d3" stroke="#000000" points="90,-359.6051 54,-359.6051 54,-323.6051 90,-323.6051 90,-359.6051"/>
<text text-anchor="middle" x="72" y="-338.9051" font-family="Times,serif" font-size="9.00" fill="#000000">x0</text>
</g>
<!-- 2847 -->
<g id="node14" class="node">
<title>2847</title>
<ellipse fill="#ffffff" stroke="#000000" cx="54" cy="-263.5635" rx="24.0833" ry="24.0833"/>
<text text-anchor="middle" x="54" y="-260.8635" font-family="Times,serif" font-size="9.00" fill="#000000">2847</text>
</g>
<!-- x0&#45;&gt;2847 -->
<g id="edge6" class="edge">
<title>x0&#45;&gt;2847</title>
<path fill="none" stroke="#00ff00" stroke-width=".4581" d="M67.8252,-323.5046C66.0142,-315.6529 63.8332,-306.1967 61.7442,-297.1396"/>
<polygon fill="#00ff00" stroke="#00ff00" stroke-width=".4581" points="65.1074,-296.1479 59.4494,-287.1903 58.2865,-297.7212 65.1074,-296.1479"/>
</g>
<!-- 2848 -->
<g id="node15" class="node">
<title>2848</title>
<ellipse fill="#ffffff" stroke="#000000" cx="120" cy="-263.5635" rx="24.0833" ry="24.0833"/>
<text text-anchor="middle" x="120" y="-260.8635" font-family="Times,serif" font-size="9.00" fill="#000000">2848</text>
</g>
<!-- x0&#45;&gt;2848 -->
<g id="edge4" class="edge">
<title>x0&#45;&gt;2848</title>
<path fill="none" stroke="#00ff00" stroke-width=".6177" d="M83.1328,-323.5046C88.7449,-314.3802 95.6897,-303.0889 102.0331,-292.7753"/>
<polygon fill="#00ff00" stroke="#00ff00" stroke-width=".6177" points="105.1465,-294.394 107.4042,-284.0425 99.184,-290.7267 105.1465,-294.394"/>
</g>
<!-- x1 -->
<g id="node2" class="node">
<title>x1</title>
<polygon fill="#d3d3d3" stroke="#000000" points="204,-359.6051 168,-359.6051 168,-323.6051 204,-323.6051 204,-359.6051"/>
<text text-anchor="middle" x="186" y="-338.9051" font-family="Times,serif" font-size="9.00" fill="#000000">x1</text>
</g>
<!-- 2843 -->
<g id="node10" class="node">
<title>2843</title>
<ellipse fill="#ffffff" stroke="#000000" cx="252" cy="-263.5635" rx="24.0833" ry="24.0833"/>
<text text-anchor="middle" x="252" y="-260.8635" font-family="Times,serif" font-size="9.00" fill="#000000">2843</text>
</g>
<!-- x1&#45;&gt;2843 -->
<g id="edge24" class="edge">
<title>x1&#45;&gt;2843</title>
<path fill="none" stroke="#ff0000" stroke-width=".5423" d="M201.3076,-323.5046C209.765,-313.5042 220.4235,-300.901 229.7823,-289.8348"/>
<polygon fill="#ff0000" stroke="#ff0000" stroke-width=".5423" points="232.5321,-292.0034 236.3171,-282.1077 227.1872,-287.4832 232.5321,-292.0034"/>
</g>
<!-- 2845 -->
<g id="node12" class="node">
<title>2845</title>
<ellipse fill="#ffffff" stroke="#000000" cx="186" cy="-263.5635" rx="24.0833" ry="24.0833"/>
<text text-anchor="middle" x="186" y="-260.8635" font-family="Times,serif" font-size="9.00" fill="#000000">2845</text>
</g>
<!-- x1&#45;&gt;2845 -->
<g id="edge45" class="edge">
<title>x1&#45;&gt;2845</title>
<path fill="none" stroke="#ff0000" stroke-width=".3243" d="M186,-323.5046C186,-315.8668 186,-306.7107 186,-297.8806"/>
<polygon fill="#ff0000" stroke="#ff0000" stroke-width=".3243" points="189.5001,-297.7752 186,-287.7752 182.5001,-297.7752 189.5001,-297.7752"/>
</g>
<!-- x1&#45;&gt;2847 -->
<g id="edge28" class="edge">
<title>x1&#45;&gt;2847</title>
<path fill="none" stroke="#ff0000" stroke-width=".2669" d="M167.8446,-331.7022C163.0198,-329.0705 157.8125,-326.2301 153,-323.6051 123.6667,-307.6051 115.2297,-305.4805 87,-287.6051 85.2932,-286.5244 83.5575,-285.3863 81.8203,-284.217"/>
<polygon fill="#ff0000" stroke="#ff0000" stroke-width=".2669" points="83.4536,-281.0886 73.2511,-278.232 79.4454,-286.8275 83.4536,-281.0886"/>
</g>
<!-- x2 -->
<g id="node3" class="node">
<title>x2</title>
<polygon fill="#d3d3d3" stroke="#000000" points="144,-359.6051 108,-359.6051 108,-323.6051 144,-323.6051 144,-359.6051"/>
<text text-anchor="middle" x="126" y="-338.9051" font-family="Times,serif" font-size="9.00" fill="#000000">x2</text>
</g>
<!-- x2&#45;&gt;2845 -->
<g id="edge43" class="edge">
<title>x2&#45;&gt;2845</title>
<path fill="none" stroke="#ff0000" stroke-width=".387" d="M139.916,-323.5046C147.4195,-313.7448 156.829,-301.506 165.1859,-290.6362"/>
<polygon fill="#ff0000" stroke="#ff0000" stroke-width=".387" points="168.002,-292.7157 171.3223,-282.6546 162.4525,-288.4492 168.002,-292.7157"/>
</g>
<!-- x2&#45;&gt;2847 -->
<g id="edge40" class="edge">
<title>x2&#45;&gt;2847</title>
<path fill="none" stroke="#00ff00" stroke-width=".4597" d="M109.3008,-323.5046C99.7825,-313.1876 87.7084,-300.1004 77.2722,-288.7885"/>
<polygon fill="#00ff00" stroke="#00ff00" stroke-width=".4597" points="79.7138,-286.2733 70.3604,-281.2967 74.5688,-291.0199 79.7138,-286.2733"/>
</g>
<!-- x2&#45;&gt;2848 -->
<g id="edge41" class="edge">
<title>x2&#45;&gt;2848</title>
<path fill="none" stroke="#00ff00" stroke-width=".6409" d="M124.6084,-323.5046C124.0212,-315.8668 123.3172,-306.7107 122.6384,-297.8806"/>
<polygon fill="#00ff00" stroke="#00ff00" stroke-width=".6409" points="126.1178,-297.4775 121.8614,-287.7752 119.1384,-298.0141 126.1178,-297.4775"/>
</g>
<!-- x3 -->
<g id="node4" class="node">
<title>x3</title>
<polygon fill="#d3d3d3" stroke="#000000" points="36,-359.6051 0,-359.6051 0,-323.6051 36,-323.6051 36,-359.6051"/>
<text text-anchor="middle" x="18" y="-338.9051" font-family="Times,serif" font-size="9.00" fill="#000000">x3</text>
</g>
<!-- x3&#45;&gt;2847 -->
<g id="edge37" class="edge">
<title>x3&#45;&gt;2847</title>
<path fill="none" stroke="#ff0000" stroke-width=".2651" d="M26.3496,-323.5046C30.3162,-314.9057 35.1705,-304.3824 39.6985,-294.5666"/>
<polygon fill="#ff0000" stroke="#ff0000" stroke-width=".2651" points="42.8895,-296.0047 43.9002,-285.4581 36.5332,-293.0725 42.8895,-296.0047"/>
</g>
<!-- x4 -->
<g id="node5" class="node">
<title>x4</title>
<polygon fill="#d3d3d3" stroke="#000000" points="432,-359.6051 396,-359.6051 396,-323.6051 432,-323.6051 432,-359.6051"/>
<text text-anchor="middle" x="414" y="-338.9051" font-family="Times,serif" font-size="9.00" fill="#000000">x4</text>
</g>
<!-- x4&#45;&gt;2843 -->
<g id="edge48" class="edge">
<title>x4&#45;&gt;2843</title>
<path fill="none" stroke="#00ff00" stroke-width=".2791" d="M395.7747,-328.5808C392.9068,-326.7895 389.9226,-325.0664 387,-323.6051 344.0013,-302.1058 327.542,-309.9945 285,-287.6051 283.2123,-286.6643 281.4136,-285.6349 279.6286,-284.5485"/>
<polygon fill="#00ff00" stroke="#00ff00" stroke-width=".2791" points="281.2004,-281.3913 270.931,-278.7854 277.3338,-287.2266 281.2004,-281.3913"/>
</g>
<!-- 2844 -->
<g id="node11" class="node">
<title>2844</title>
<ellipse fill="#ffffff" stroke="#000000" cx="318" cy="-263.5635" rx="24.0833" ry="24.0833"/>
<text text-anchor="middle" x="318" y="-260.8635" font-family="Times,serif" font-size="9.00" fill="#000000">2844</text>
</g>
<!-- x4&#45;&gt;2844 -->
<g id="edge46" class="edge">
<title>x4&#45;&gt;2844</title>
<path fill="none" stroke="#ff0000" stroke-width=".9" d="M395.9431,-326.9261C381.605,-315.2702 361.332,-298.7895 345.0557,-285.558"/>
<polygon fill="#ff0000" stroke="#ff0000" stroke-width=".9" points="346.9284,-282.5698 336.9611,-278.9776 342.5129,-288.0015 346.9284,-282.5698"/>
</g>
<!-- 2846 -->
<g id="node13" class="node">
<title>2846</title>
<ellipse fill="#ffffff" stroke="#000000" cx="384" cy="-263.5635" rx="24.0833" ry="24.0833"/>
<text text-anchor="middle" x="384" y="-260.8635" font-family="Times,serif" font-size="9.00" fill="#000000">2846</text>
</g>
<!-- x4&#45;&gt;2846 -->
<g id="edge13" class="edge">
<title>x4&#45;&gt;2846</title>
<path fill="none" stroke="#00ff00" stroke-width=".7023" d="M407.042,-323.5046C403.856,-315.2167 399.9828,-305.1411 396.3283,-295.6342"/>
<polygon fill="#00ff00" stroke="#00ff00" stroke-width=".7023" points="399.4921,-294.1099 392.637,-286.0317 392.9582,-296.6216 399.4921,-294.1099"/>
</g>
<!-- 2849 -->
<g id="node16" class="node">
<title>2849</title>
<ellipse fill="#ffffff" stroke="#000000" cx="450" cy="-263.5635" rx="24.0833" ry="24.0833"/>
<text text-anchor="middle" x="450" y="-260.8635" font-family="Times,serif" font-size="9.00" fill="#000000">2849</text>
</g>
<!-- x4&#45;&gt;2849 -->
<g id="edge9" class="edge">
<title>x4&#45;&gt;2849</title>
<path fill="none" stroke="#ff0000" stroke-width=".4223" d="M422.3496,-323.5046C426.3162,-314.9057 431.1705,-304.3824 435.6985,-294.5666"/>
<polygon fill="#ff0000" stroke="#ff0000" stroke-width=".4223" points="438.8895,-296.0047 439.9002,-285.4581 432.5332,-293.0725 438.8895,-296.0047"/>
</g>
<!-- 2850 -->
<g id="node17" class="node">
<title>2850</title>
<ellipse fill="#ffffff" stroke="#000000" cx="516" cy="-263.5635" rx="24.0833" ry="24.0833"/>
<text text-anchor="middle" x="516" y="-260.8635" font-family="Times,serif" font-size="9.00" fill="#000000">2850</text>
</g>
<!-- x4&#45;&gt;2850 -->
<g id="edge27" class="edge">
<title>x4&#45;&gt;2850</title>
<path fill="none" stroke="#00ff00" stroke-width=".2467" d="M432.2356,-327.6528C447.8952,-315.6714 470.7019,-298.2217 488.5648,-284.5545"/>
<polygon fill="#00ff00" stroke="#00ff00" stroke-width=".2467" points="491.0686,-287.0459 496.8838,-278.1896 486.8149,-281.4864 491.0686,-287.0459"/>
</g>
<!-- x5 -->
<g id="node6" class="node">
<title>x5</title>
<polygon fill="#d3d3d3" stroke="#000000" points="270,-359.6051 234,-359.6051 234,-323.6051 270,-323.6051 270,-359.6051"/>
<text text-anchor="middle" x="252" y="-338.9051" font-family="Times,serif" font-size="9.00" fill="#000000">x5</text>
</g>
<!-- x5&#45;&gt;2843 -->
<g id="edge33" class="edge">
<title>x5&#45;&gt;2843</title>
<path fill="none" stroke="#ff0000" stroke-width=".1357" d="M252,-323.5046C252,-315.8668 252,-306.7107 252,-297.8806"/>
<polygon fill="#ff0000" stroke="#ff0000" stroke-width=".1357" points="255.5001,-297.7752 252,-287.7752 248.5001,-297.7752 255.5001,-297.7752"/>
</g>
<!-- x5&#45;&gt;2844 -->
<g id="edge15" class="edge">
<title>x5&#45;&gt;2844</title>
<path fill="none" stroke="#ff0000" stroke-width=".5999" d="M267.3076,-323.5046C275.765,-313.5042 286.4235,-300.901 295.7823,-289.8348"/>
<polygon fill="#ff0000" stroke="#ff0000" stroke-width=".5999" points="298.5321,-292.0034 302.3171,-282.1077 293.1872,-287.4832 298.5321,-292.0034"/>
</g>
<!-- x5&#45;&gt;2846 -->
<g id="edge16" class="edge">
<title>x5&#45;&gt;2846</title>
<path fill="none" stroke="#ff0000" stroke-width=".6916" d="M270.1045,-329.0915C273.0401,-327.1918 276.0764,-325.3017 279,-323.6051 309.944,-305.6476 320.4364,-306.2026 351,-287.6051 352.7258,-286.555 354.4763,-285.4407 356.2247,-284.2896"/>
<polygon fill="#ff0000" stroke="#ff0000" stroke-width=".6916" points="358.5829,-286.9147 364.8241,-278.3532 354.6062,-281.154 358.5829,-286.9147"/>
</g>
<!-- x5&#45;&gt;2848 -->
<g id="edge49" class="edge">
<title>x5&#45;&gt;2848</title>
<path fill="none" stroke="#00ff00" stroke-width=".3842" d="M233.7109,-332.5372C213.5298,-322.3242 180.2924,-304.887 153,-287.6051 151.2932,-286.5244 149.5575,-285.3863 147.8203,-284.217"/>
<polygon fill="#00ff00" stroke="#00ff00" stroke-width=".3842" points="149.4536,-281.0886 139.2511,-278.232 145.4454,-286.8275 149.4536,-281.0886"/>
</g>
<!-- x6 -->
<g id="node7" class="node">
<title>x6</title>
<polygon fill="#d3d3d3" stroke="#000000" points="378,-359.6051 342,-359.6051 342,-323.6051 378,-323.6051 378,-359.6051"/>
<text text-anchor="middle" x="360" y="-338.9051" font-family="Times,serif" font-size="9.00" fill="#000000">x6</text>
</g>
<!-- x6&#45;&gt;2843 -->
<g id="edge22" class="edge">
<title>x6&#45;&gt;2843</title>
<path fill="none" stroke="#00ff00" stroke-width=".2958" d="M341.7931,-328.5394C326.5923,-317.6205 304.3619,-301.6281 285,-287.6051 283.3639,-286.4201 281.683,-285.201 279.9877,-283.9701"/>
<polygon fill="#00ff00" stroke="#00ff00" stroke-width=".2958" points="281.6766,-280.8706 271.5305,-277.8198 277.5596,-286.5319 281.6766,-280.8706"/>
</g>
<!-- x6&#45;&gt;2844 -->
<g id="edge3" class="edge">
<title>x6&#45;&gt;2844</title>
<path fill="none" stroke="#00ff00" stroke-width=".7385" d="M350.2588,-323.5046C345.5091,-314.6792 339.6686,-303.8266 334.2683,-293.7923"/>
<polygon fill="#00ff00" stroke="#00ff00" stroke-width=".7385" points="337.2978,-292.0358 329.4767,-284.8887 331.1338,-295.3532 337.2978,-292.0358"/>
</g>
<!-- x6&#45;&gt;2845 -->
<g id="edge12" class="edge">
<title>x6&#45;&gt;2845</title>
<path fill="none" stroke="#00ff00" stroke-width=".2324" d="M341.8177,-328.4928C338.9439,-326.7137 335.9466,-325.0174 333,-323.6051 285.0861,-300.6406 266.4257,-311.5617 219,-287.6051 217.1968,-286.6943 215.3861,-285.6882 213.5919,-284.6195"/>
<polygon fill="#00ff00" stroke="#00ff00" stroke-width=".2324" points="215.1523,-281.4576 204.8698,-278.904 211.3156,-287.3125 215.1523,-281.4576"/>
</g>
<!-- x6&#45;&gt;2846 -->
<g id="edge32" class="edge">
<title>x6&#45;&gt;2846</title>
<path fill="none" stroke="#ff0000" stroke-width=".5296" d="M365.5664,-323.5046C368.0477,-315.4362 371.05,-305.6735 373.9047,-296.3907"/>
<polygon fill="#ff0000" stroke="#ff0000" stroke-width=".5296" points="377.3187,-297.1962 376.9128,-286.6091 370.6279,-295.1385 377.3187,-297.1962"/>
</g>
<!-- x6&#45;&gt;2849 -->
<g id="edge23" class="edge">
<title>x6&#45;&gt;2849</title>
<path fill="none" stroke="#ff0000" stroke-width=".2899" d="M378.2128,-325.8122C391.3877,-314.388 409.3789,-298.7872 424.0541,-286.0619"/>
<polygon fill="#ff0000" stroke="#ff0000" stroke-width=".2899" points="426.552,-288.5285 431.8142,-279.3329 421.9661,-283.2399 426.552,-288.5285"/>
</g>
<!-- x6&#45;&gt;2850 -->
<g id="edge34" class="edge">
<title>x6&#45;&gt;2850</title>
<path fill="none" stroke="#00ff00" stroke-width=".5157" d="M378.2511,-328.6317C381.1155,-326.8334 384.0918,-325.0948 387,-323.6051 427.5569,-302.8305 442.8842,-309.2191 483,-287.6051 484.7785,-286.6469 486.5699,-285.6041 488.3495,-284.5073"/>
<polygon fill="#00ff00" stroke="#00ff00" stroke-width=".5157" points="490.6547,-287.1769 497.0324,-278.7167 486.7709,-281.3532 490.6547,-287.1769"/>
</g>
<!-- x7 -->
<g id="node8" class="node">
<title>x7</title>
<polygon fill="#d3d3d3" stroke="#000000" points="324,-359.6051 288,-359.6051 288,-323.6051 324,-323.6051 324,-359.6051"/>
<text text-anchor="middle" x="306" y="-338.9051" font-family="Times,serif" font-size="9.00" fill="#000000">x7</text>
</g>
<!-- x7&#45;&gt;2843 -->
<g id="edge8" class="edge">
<title>x7&#45;&gt;2843</title>
<path fill="none" stroke="#ff0000" stroke-width=".2376" d="M293.4756,-323.5046C287.0009,-314.1473 278.9494,-302.5111 271.6677,-291.9876"/>
<polygon fill="#ff0000" stroke="#ff0000" stroke-width=".2376" points="274.352,-289.7157 265.7837,-283.4839 268.5956,-293.6988 274.352,-289.7157"/>
</g>
<!-- x7&#45;&gt;2844 -->
<g id="edge7" class="edge">
<title>x7&#45;&gt;2844</title>
<path fill="none" stroke="#ff0000" stroke-width=".4579" d="M308.7832,-323.5046C309.9676,-315.8021 311.3894,-306.5554 312.7578,-297.6562"/>
<polygon fill="#ff0000" stroke="#ff0000" stroke-width=".4579" points="316.2616,-297.8981 314.3221,-287.4823 309.3429,-296.8342 316.2616,-297.8981"/>
</g>
<!-- x7&#45;&gt;2846 -->
<g id="edge14" class="edge">
<title>x7&#45;&gt;2846</title>
<path fill="none" stroke="#ff0000" stroke-width=".4147" d="M324.0908,-323.5046C334.6492,-312.9407 348.1103,-299.4723 359.5971,-287.9794"/>
<polygon fill="#ff0000" stroke="#ff0000" stroke-width=".4147" points="362.2165,-290.3097 366.8102,-280.7625 357.2654,-285.3613 362.2165,-290.3097"/>
</g>
<!-- x7&#45;&gt;2848 -->
<g id="edge25" class="edge">
<title>x7&#45;&gt;2848</title>
<path fill="none" stroke="#00ff00" stroke-width=".3398" d="M287.8522,-328.4196C284.9736,-326.6506 281.9658,-324.9766 279,-323.6051 226.1378,-299.1595 205.3421,-313.1454 153,-287.6051 151.1844,-286.7192 149.3641,-285.7326 147.5626,-284.6787"/>
<polygon fill="#00ff00" stroke="#00ff00" stroke-width=".3398" points="149.114,-281.5129 138.8208,-279.0027 145.302,-287.3839 149.114,-281.5129"/>
</g>
<!-- y0 -->
<g id="node9" class="node">
<title>y0</title>
<ellipse fill="#add8e6" stroke="#000000" cx="318" cy="-17.6777" rx="17.8571" ry="17.8571"/>
<text text-anchor="middle" x="318" y="-14.9777" font-family="Times,serif" font-size="9.00" fill="#000000">y0</text>
</g>
<!-- 2854 -->
<g id="node20" class="node">
<title>2854</title>
<ellipse fill="#ffffff" stroke="#000000" cx="351" cy="-179.4802" rx="24.0833" ry="24.0833"/>
<text text-anchor="middle" x="351" y="-176.7802" font-family="Times,serif" font-size="9.00" fill="#000000">2854</text>
</g>
<!-- 2843&#45;&gt;2854 -->
<g id="edge29" class="edge">
<title>2843&#45;&gt;2854</title>
<path fill="none" stroke="#ff0000" stroke-width=".3905" d="M270.6211,-247.7481C285.8318,-234.8293 307.5192,-216.4096 324.5339,-201.9586"/>
<polygon fill="#ff0000" stroke="#ff0000" stroke-width=".3905" points="327.1061,-204.3659 332.4624,-195.2247 322.5747,-199.0306 327.1061,-204.3659"/>
</g>
<!-- 2852 -->
<g id="node18" class="node">
<title>2852</title>
<ellipse fill="#ffffff" stroke="#000000" cx="219" cy="-179.4802" rx="24.0833" ry="24.0833"/>
<text text-anchor="middle" x="219" y="-176.7802" font-family="Times,serif" font-size="9.00" fill="#000000">2852</text>
</g>
<!-- 2844&#45;&gt;2852 -->
<g id="edge39" class="edge">
<title>2844&#45;&gt;2852</title>
<path fill="none" stroke="#00ff00" stroke-width=".8356" d="M299.3789,-247.7481C284.1682,-234.8293 262.4808,-216.4096 245.4661,-201.9586"/>
<polygon fill="#00ff00" stroke="#00ff00" stroke-width=".8356" points="247.4253,-199.0306 237.5376,-195.2247 242.8939,-204.3659 247.4253,-199.0306"/>
</g>
<!-- 2853 -->
<g id="node19" class="node">
<title>2853</title>
<ellipse fill="#ffffff" stroke="#000000" cx="285" cy="-179.4802" rx="24.0833" ry="24.0833"/>
<text text-anchor="middle" x="285" y="-176.7802" font-family="Times,serif" font-size="9.00" fill="#000000">2853</text>
</g>
<!-- 2844&#45;&gt;2853 -->
<g id="edge44" class="edge">
<title>2844&#45;&gt;2853</title>
<path fill="none" stroke="#ff0000" stroke-width=".1251" d="M309.1566,-241.0307C305.6055,-231.9827 301.4465,-221.3856 297.5899,-211.559"/>
<polygon fill="#ff0000" stroke="#ff0000" stroke-width=".1251" points="300.7793,-210.1052 293.8678,-202.0752 294.2632,-212.6627 300.7793,-210.1052"/>
</g>
<!-- 2844&#45;&gt;2854 -->
<g id="edge19" class="edge">
<title>2844&#45;&gt;2854</title>
<path fill="none" stroke="#ff0000" stroke-width=".4183" d="M326.8434,-241.0307C330.3945,-231.9827 334.5535,-221.3856 338.4101,-211.559"/>
<polygon fill="#ff0000" stroke="#ff0000" stroke-width=".4183" points="341.7368,-212.6627 342.1322,-202.0752 335.2207,-210.1052 341.7368,-212.6627"/>
</g>
<!-- 2845&#45;&gt;2852 -->
<g id="edge18" class="edge">
<title>2845&#45;&gt;2852</title>
<path fill="none" stroke="#ff0000" stroke-width=".4077" d="M194.8434,-241.0307C198.3945,-231.9827 202.5535,-221.3856 206.4101,-211.559"/>
<polygon fill="#ff0000" stroke="#ff0000" stroke-width=".4077" points="209.7368,-212.6627 210.1322,-202.0752 203.2207,-210.1052 209.7368,-212.6627"/>
</g>
<!-- 2846&#45;&gt;2852 -->
<g id="edge26" class="edge">
<title>2846&#45;&gt;2852</title>
<path fill="none" stroke="#00ff00" stroke-width=".6088" d="M365.0513,-248.3751C360.5956,-245.2007 355.7553,-242.0534 351,-239.5219 309.6725,-217.5209 293.3275,-225.5228 252,-203.5219 250.2168,-202.5725 248.4216,-201.5366 246.6392,-200.4452"/>
<polygon fill="#00ff00" stroke="#00ff00" stroke-width=".6088" points="248.2143,-197.2895 237.9487,-194.6686 244.3393,-203.1191 248.2143,-197.2895"/>
</g>
<!-- 2846&#45;&gt;2854 -->
<g id="edge21" class="edge">
<title>2846&#45;&gt;2854</title>
<path fill="none" stroke="#00ff00" stroke-width=".3497" d="M375.1566,-241.0307C371.6055,-231.9827 367.4465,-221.3856 363.5899,-211.559"/>
<polygon fill="#00ff00" stroke="#00ff00" stroke-width=".3497" points="366.7793,-210.1052 359.8678,-202.0752 360.2632,-212.6627 366.7793,-210.1052"/>
</g>
<!-- 2847&#45;&gt;2852 -->
<g id="edge10" class="edge">
<title>2847&#45;&gt;2852</title>
<path fill="none" stroke="#ff0000" stroke-width=".5367" d="M73.1007,-248.6476C77.5485,-245.4591 82.3472,-242.2371 87,-239.5219 119.7284,-220.4224 159.6021,-203.0264 186.9051,-191.9332"/>
<polygon fill="#ff0000" stroke="#ff0000" stroke-width=".5367" points="188.3814,-195.1122 196.3588,-188.14 185.7747,-188.6156 188.3814,-195.1122"/>
</g>
<!-- 2847&#45;&gt;2853 -->
<g id="edge1" class="edge">
<title>2847&#45;&gt;2853</title>
<path fill="none" stroke="#ff0000" stroke-width=".7042" d="M72.7132,-247.8946C77.1812,-244.7452 82.0859,-241.7294 87,-239.5219 155.467,-208.764 183.533,-234.2797 252,-203.5219 253.8428,-202.694 255.6842,-201.7525 257.5019,-200.733"/>
<polygon fill="#ff0000" stroke="#ff0000" stroke-width=".7042" points="259.7248,-203.4672 266.2868,-195.1491 255.9698,-197.5596 259.7248,-203.4672"/>
</g>
<!-- 2847&#45;&gt;2854 -->
<g id="edge30" class="edge">
<title>2847&#45;&gt;2854</title>
<path fill="none" stroke="#00ff00" stroke-width=".4106" d="M72.2658,-247.9219C76.8313,-244.6919 81.8907,-241.6347 87,-239.5219 183.0199,-199.8153 221.9801,-243.2285 318,-203.5219 320.0757,-202.6635 322.1431,-201.6493 324.1725,-200.531"/>
<polygon fill="#00ff00" stroke="#00ff00" stroke-width=".4106" points="326.1495,-203.422 332.7342,-195.1219 322.4106,-197.5041 326.1495,-203.422"/>
</g>
<!-- 2848&#45;&gt;2853 -->
<g id="edge11" class="edge">
<title>2848&#45;&gt;2853</title>
<path fill="none" stroke="#00ff00" stroke-width=".2864" d="M138.9487,-248.3751C143.4044,-245.2007 148.2447,-242.0534 153,-239.5219 194.3275,-217.5209 210.6725,-225.5228 252,-203.5219 253.7832,-202.5725 255.5784,-201.5366 257.3608,-200.4452"/>
<polygon fill="#00ff00" stroke="#00ff00" stroke-width=".2864" points="259.6607,-203.1191 266.0513,-194.6686 255.7857,-197.2895 259.6607,-203.1191"/>
</g>
<!-- 2849&#45;&gt;2853 -->
<g id="edge36" class="edge">
<title>2849&#45;&gt;2853</title>
<path fill="none" stroke="#ff0000" stroke-width=".4721" d="M431.0513,-248.3751C426.5956,-245.2007 421.7553,-242.0534 417,-239.5219 375.6725,-217.5209 359.3275,-225.5228 318,-203.5219 316.2168,-202.5725 314.4216,-201.5366 312.6392,-200.4452"/>
<polygon fill="#ff0000" stroke="#ff0000" stroke-width=".4721" points="314.2143,-197.2895 303.9487,-194.6686 310.3393,-203.1191 314.2143,-197.2895"/>
</g>
<!-- 2849&#45;&gt;2854 -->
<g id="edge5" class="edge">
<title>2849&#45;&gt;2854</title>
<path fill="none" stroke="#00ff00" stroke-width=".2733" d="M431.3789,-247.7481C416.1682,-234.8293 394.4808,-216.4096 377.4661,-201.9586"/>
<polygon fill="#00ff00" stroke="#00ff00" stroke-width=".2733" points="379.4253,-199.0306 369.5376,-195.2247 374.8939,-204.3659 379.4253,-199.0306"/>
</g>
<!-- 2850&#45;&gt;2854 -->
<g id="edge20" class="edge">
<title>2850&#45;&gt;2854</title>
<path fill="none" stroke="#00ff00" stroke-width=".2155" d="M496.8993,-248.6476C492.4515,-245.4591 487.6528,-242.2371 483,-239.5219 450.2716,-220.4224 410.3979,-203.0264 383.0949,-191.9332"/>
<polygon fill="#00ff00" stroke="#00ff00" stroke-width=".2155" points="384.2253,-188.6156 373.6412,-188.14 381.6186,-195.1122 384.2253,-188.6156"/>
</g>
<!-- 2855 -->
<g id="node21" class="node">
<title>2855</title>
<ellipse fill="#ffffff" stroke="#000000" cx="285" cy="-95.397" rx="24.0833" ry="24.0833"/>
<text text-anchor="middle" x="285" y="-92.697" font-family="Times,serif" font-size="9.00" fill="#000000">2855</text>
</g>
<!-- 2852&#45;&gt;2855 -->
<g id="edge31" class="edge">
<title>2852&#45;&gt;2855</title>
<path fill="none" stroke="#ff0000" stroke-width=".6315" d="M233.9764,-160.4004C242.7525,-149.2198 253.9818,-134.9138 263.6705,-122.5705"/>
<polygon fill="#ff0000" stroke="#ff0000" stroke-width=".6315" points="266.6615,-124.4285 270.0828,-114.4013 261.1552,-120.1064 266.6615,-124.4285"/>
</g>
<!-- 2853&#45;&gt;2855 -->
<g id="edge47" class="edge">
<title>2853&#45;&gt;2855</title>
<path fill="none" stroke="#00ff00" stroke-width=".2181" d="M285,-155.1599C285,-147.229 285,-138.2684 285,-129.7446"/>
<polygon fill="#00ff00" stroke="#00ff00" stroke-width=".2181" points="288.5001,-129.6626 285,-119.6627 281.5001,-129.6627 288.5001,-129.6626"/>
</g>
<!-- 2856 -->
<g id="node22" class="node">
<title>2856</title>
<ellipse fill="#ffffff" stroke="#000000" cx="351" cy="-95.397" rx="24.0833" ry="24.0833"/>
<text text-anchor="middle" x="351" y="-92.697" font-family="Times,serif" font-size="9.00" fill="#000000">2856</text>
</g>
<!-- 2853&#45;&gt;2856 -->
<g id="edge17" class="edge">
<title>2853&#45;&gt;2856</title>
<path fill="none" stroke="#ff0000" stroke-width=".1187" d="M299.9764,-160.4004C308.7525,-149.2198 319.9818,-134.9138 329.6705,-122.5705"/>
<polygon fill="#ff0000" stroke="#ff0000" stroke-width=".1187" points="332.6615,-124.4285 336.0828,-114.4013 327.1552,-120.1064 332.6615,-124.4285"/>
</g>
<!-- 2854&#45;&gt;2855 -->
<g id="edge42" class="edge">
<title>2854&#45;&gt;2855</title>
<path fill="none" stroke="#ff0000" stroke-width=".3779" d="M336.0236,-160.4004C327.2475,-149.2198 316.0182,-134.9138 306.3295,-122.5705"/>
<polygon fill="#ff0000" stroke="#ff0000" stroke-width=".3779" points="308.8448,-120.1064 299.9172,-114.4013 303.3385,-124.4285 308.8448,-120.1064"/>
</g>
<!-- 2854&#45;&gt;2856 -->
<g id="edge38" class="edge">
<title>2854&#45;&gt;2856</title>
<path fill="none" stroke="#ff0000" stroke-width=".1805" d="M351,-155.1599C351,-147.229 351,-138.2684 351,-129.7446"/>
<polygon fill="#ff0000" stroke="#ff0000" stroke-width=".1805" points="354.5001,-129.6626 351,-119.6627 347.5001,-129.6627 354.5001,-129.6626"/>
</g>
<!-- 2855&#45;&gt;y0 -->
<g id="edge35" class="edge">
<title>2855&#45;&gt;y0</title>
<path fill="none" stroke="#00ff00" stroke-width=".7587" d="M294.545,-72.9173C298.4443,-63.734 302.9779,-53.0568 307.0141,-43.551"/>
<polygon fill="#00ff00" stroke="#00ff00" stroke-width=".7587" points="310.306,-44.7533 310.9927,-34.1807 303.8627,-42.0174 310.306,-44.7533"/>
</g>
<!-- 2856&#45;&gt;y0 -->
<g id="edge2" class="edge">
<title>2856&#45;&gt;y0</title>
<path fill="none" stroke="#ff0000" stroke-width=".1268" d="M341.455,-72.9173C337.5557,-63.734 333.0221,-53.0568 328.9859,-43.551"/>
<polygon fill="#ff0000" stroke="#ff0000" stroke-width=".1268" points="332.1373,-42.0174 325.0073,-34.1807 325.694,-44.7533 332.1373,-42.0174"/>
</g>
</g>
</svg>
