<?xml version="1.0" encoding="UTF-8" standalone="no"?>
<!DOCTYPE svg PUBLIC "-//W3C//DTD SVG 1.1//EN"
 "http://www.w3.org/Graphics/SVG/1.1/DTD/svg11.dtd">
<!-- Generated by graphviz version 2.40.1 (20161225.0304)
 -->
<!-- Title: %3 Pages: 1 -->
<svg width="452pt" height="368pt"
 viewBox="0.00 0.00 452.08 367.61" xmlns="http://www.w3.org/2000/svg" xmlns:xlink="http://www.w3.org/1999/xlink">
<g id="graph0" class="graph" transform="scale(1 1) rotate(0) translate(4 363.6051)">
<title>%3</title>
<polygon fill="#ffffff" stroke="transparent" points="-4,4 -4,-363.6051 448.0833,-363.6051 448.0833,4 -4,4"/>
<!-- x0 -->
<g id="node1" class="node">
<title>x0</title>
<polygon fill="#d3d3d3" stroke="#000000" points="372.0416,-359.6051 336.0416,-359.6051 336.0416,-323.6051 372.0416,-323.6051 372.0416,-359.6051"/>
<text text-anchor="middle" x="354.0416" y="-338.9051" font-family="Times,serif" font-size="9.00" fill="#000000">x0</text>
</g>
<!-- 2269 -->
<g id="node10" class="node">
<title>2269</title>
<ellipse fill="#ffffff" stroke="#000000" cx="222.0416" cy="-263.5635" rx="24.0833" ry="24.0833"/>
<text text-anchor="middle" x="222.0416" y="-260.8635" font-family="Times,serif" font-size="9.00" fill="#000000">2269</text>
</g>
<!-- x0&#45;&gt;2269 -->
<g id="edge56" class="edge">
<title>x0&#45;&gt;2269</title>
<path fill="none" stroke="#ff0000" stroke-width=".2234" d="M335.9371,-329.0915C333.0015,-327.1918 329.9652,-325.3017 327.0416,-323.6051 296.0977,-305.6476 285.6052,-306.2026 255.0416,-287.6051 253.3158,-286.555 251.5653,-285.4407 249.8169,-284.2896"/>
<polygon fill="#ff0000" stroke="#ff0000" stroke-width=".2234" points="251.4355,-281.154 241.2175,-278.3532 247.4587,-286.9147 251.4355,-281.154"/>
</g>
<!-- 2270 -->
<g id="node11" class="node">
<title>2270</title>
<ellipse fill="#ffffff" stroke="#000000" cx="288.0416" cy="-263.5635" rx="24.0833" ry="24.0833"/>
<text text-anchor="middle" x="288.0416" y="-260.8635" font-family="Times,serif" font-size="9.00" fill="#000000">2270</text>
</g>
<!-- x0&#45;&gt;2270 -->
<g id="edge41" class="edge">
<title>x0&#45;&gt;2270</title>
<path fill="none" stroke="#ff0000" stroke-width=".2094" d="M338.734,-323.5046C330.2766,-313.5042 319.6181,-300.901 310.2594,-289.8348"/>
<polygon fill="#ff0000" stroke="#ff0000" stroke-width=".2094" points="312.8545,-287.4832 303.7245,-282.1077 307.5095,-292.0034 312.8545,-287.4832"/>
</g>
<!-- 2272 -->
<g id="node12" class="node">
<title>2272</title>
<ellipse fill="#ffffff" stroke="#000000" cx="354.0416" cy="-263.5635" rx="24.0833" ry="24.0833"/>
<text text-anchor="middle" x="354.0416" y="-260.8635" font-family="Times,serif" font-size="9.00" fill="#000000">2272</text>
</g>
<!-- x0&#45;&gt;2272 -->
<g id="edge39" class="edge">
<title>x0&#45;&gt;2272</title>
<path fill="none" stroke="#ff0000" stroke-width=".5848" d="M354.0416,-323.5046C354.0416,-315.8668 354.0416,-306.7107 354.0416,-297.8806"/>
<polygon fill="#ff0000" stroke="#ff0000" stroke-width=".5848" points="357.5417,-297.7752 354.0416,-287.7752 350.5417,-297.7752 357.5417,-297.7752"/>
</g>
<!-- 2273 -->
<g id="node13" class="node">
<title>2273</title>
<ellipse fill="#ffffff" stroke="#000000" cx="420.0416" cy="-263.5635" rx="24.0833" ry="24.0833"/>
<text text-anchor="middle" x="420.0416" y="-260.8635" font-family="Times,serif" font-size="9.00" fill="#000000">2273</text>
</g>
<!-- x0&#45;&gt;2273 -->
<g id="edge54" class="edge">
<title>x0&#45;&gt;2273</title>
<path fill="none" stroke="#ff0000" stroke-width=".4163" d="M369.3492,-323.5046C377.8066,-313.5042 388.4652,-300.901 397.8239,-289.8348"/>
<polygon fill="#ff0000" stroke="#ff0000" stroke-width=".4163" points="400.5737,-292.0034 404.3587,-282.1077 395.2288,-287.4832 400.5737,-292.0034"/>
</g>
<!-- 2275 -->
<g id="node15" class="node">
<title>2275</title>
<ellipse fill="#ffffff" stroke="#000000" cx="156.0416" cy="-263.5635" rx="24.0833" ry="24.0833"/>
<text text-anchor="middle" x="156.0416" y="-260.8635" font-family="Times,serif" font-size="9.00" fill="#000000">2275</text>
</g>
<!-- x0&#45;&gt;2275 -->
<g id="edge57" class="edge">
<title>x0&#45;&gt;2275</title>
<path fill="none" stroke="#ff0000" stroke-width=".1613" d="M335.9219,-328.3579C333.0394,-326.5974 330.0231,-324.9422 327.0416,-323.6051 269.2059,-297.6667 246.3252,-314.7413 189.0416,-287.6051 187.2159,-286.7403 185.3878,-285.77 183.5802,-284.7285"/>
<polygon fill="#ff0000" stroke="#ff0000" stroke-width=".1613" points="185.1244,-281.5599 174.8224,-279.0859 181.3331,-287.4443 185.1244,-281.5599"/>
</g>
<!-- x1 -->
<g id="node2" class="node">
<title>x1</title>
<polygon fill="#d3d3d3" stroke="#000000" points="318.0416,-359.6051 282.0416,-359.6051 282.0416,-323.6051 318.0416,-323.6051 318.0416,-359.6051"/>
<text text-anchor="middle" x="300.0416" y="-338.9051" font-family="Times,serif" font-size="9.00" fill="#000000">x1</text>
</g>
<!-- x1&#45;&gt;2270 -->
<g id="edge12" class="edge">
<title>x1&#45;&gt;2270</title>
<path fill="none" stroke="#00ff00" stroke-width=".4653" d="M297.2584,-323.5046C296.074,-315.8021 294.6522,-306.5554 293.2839,-297.6562"/>
<polygon fill="#00ff00" stroke="#00ff00" stroke-width=".4653" points="296.6987,-296.8342 291.7195,-287.4823 289.78,-297.8981 296.6987,-296.8342"/>
</g>
<!-- x1&#45;&gt;2272 -->
<g id="edge10" class="edge">
<title>x1&#45;&gt;2272</title>
<path fill="none" stroke="#ff0000" stroke-width=".5238" d="M312.566,-323.5046C319.0408,-314.1473 327.0923,-302.5111 334.3739,-291.9876"/>
<polygon fill="#ff0000" stroke="#ff0000" stroke-width=".5238" points="337.446,-293.6988 340.2579,-283.4839 331.6897,-289.7157 337.446,-293.6988"/>
</g>
<!-- x1&#45;&gt;2273 -->
<g id="edge38" class="edge">
<title>x1&#45;&gt;2273</title>
<path fill="none" stroke="#00ff00" stroke-width=".2635" d="M318.2644,-329.2866C321.1848,-327.3617 324.1853,-325.4127 327.0416,-323.6051 353.3201,-306.9753 361.1149,-304.7782 387.0416,-287.6051 388.7259,-286.4895 390.4441,-285.3244 392.1679,-284.1345"/>
<polygon fill="#00ff00" stroke="#00ff00" stroke-width=".2635" points="394.5612,-286.7285 400.7013,-278.0943 390.517,-281.015 394.5612,-286.7285"/>
</g>
<!-- 2274 -->
<g id="node14" class="node">
<title>2274</title>
<ellipse fill="#ffffff" stroke="#000000" cx="24.0416" cy="-263.5635" rx="24.0833" ry="24.0833"/>
<text text-anchor="middle" x="24.0416" y="-260.8635" font-family="Times,serif" font-size="9.00" fill="#000000">2274</text>
</g>
<!-- x1&#45;&gt;2274 -->
<g id="edge30" class="edge">
<title>x1&#45;&gt;2274</title>
<path fill="none" stroke="#ff0000" stroke-width=".1838" d="M282.0245,-328.1147C279.1278,-326.3878 276.0802,-324.8067 273.0416,-323.6051 182.537,-287.8153 146.782,-325.2704 57.0416,-287.6051 55.1789,-286.8233 53.3219,-285.9176 51.4924,-284.9252"/>
<polygon fill="#ff0000" stroke="#ff0000" stroke-width=".1838" points="53.0107,-281.7468 42.6758,-279.4143 49.3004,-287.6827 53.0107,-281.7468"/>
</g>
<!-- 2276 -->
<g id="node16" class="node">
<title>2276</title>
<ellipse fill="#ffffff" stroke="#000000" cx="90.0416" cy="-263.5635" rx="24.0833" ry="24.0833"/>
<text text-anchor="middle" x="90.0416" y="-260.8635" font-family="Times,serif" font-size="9.00" fill="#000000">2276</text>
</g>
<!-- x1&#45;&gt;2276 -->
<g id="edge32" class="edge">
<title>x1&#45;&gt;2276</title>
<path fill="none" stroke="#ff0000" stroke-width=".1041" d="M281.9452,-328.3053C279.0595,-326.552 276.036,-324.9129 273.0416,-323.6051 210.2126,-296.1651 185.2861,-316.3466 123.0416,-287.6051 121.2075,-286.7582 119.3728,-285.8019 117.5603,-284.7711"/>
<polygon fill="#ff0000" stroke="#ff0000" stroke-width=".1041" points="119.0985,-281.6001 108.7892,-279.157 115.3248,-287.4958 119.0985,-281.6001"/>
</g>
<!-- x2 -->
<g id="node3" class="node">
<title>x2</title>
<polygon fill="#d3d3d3" stroke="#000000" points="426.0416,-359.6051 390.0416,-359.6051 390.0416,-323.6051 426.0416,-323.6051 426.0416,-359.6051"/>
<text text-anchor="middle" x="408.0416" y="-338.9051" font-family="Times,serif" font-size="9.00" fill="#000000">x2</text>
</g>
<!-- x2&#45;&gt;2270 -->
<g id="edge1" class="edge">
<title>x2&#45;&gt;2270</title>
<path fill="none" stroke="#ff0000" stroke-width=".4825" d="M389.8188,-329.2866C386.8985,-327.3617 383.8979,-325.4127 381.0416,-323.6051 354.7631,-306.9753 346.9684,-304.7782 321.0416,-287.6051 319.3574,-286.4895 317.6392,-285.3244 315.9154,-284.1345"/>
<polygon fill="#ff0000" stroke="#ff0000" stroke-width=".4825" points="317.5663,-281.015 307.3819,-278.0943 313.522,-286.7285 317.5663,-281.015"/>
</g>
<!-- x2&#45;&gt;2272 -->
<g id="edge7" class="edge">
<title>x2&#45;&gt;2272</title>
<path fill="none" stroke="#ff0000" stroke-width=".3612" d="M395.5172,-323.5046C389.0425,-314.1473 380.991,-302.5111 373.7093,-291.9876"/>
<polygon fill="#ff0000" stroke="#ff0000" stroke-width=".3612" points="376.3936,-289.7157 367.8253,-283.4839 370.6372,-293.6988 376.3936,-289.7157"/>
</g>
<!-- x2&#45;&gt;2273 -->
<g id="edge27" class="edge">
<title>x2&#45;&gt;2273</title>
<path fill="none" stroke="#ff0000" stroke-width=".3907" d="M410.8248,-323.5046C412.0092,-315.8021 413.431,-306.5554 414.7994,-297.6562"/>
<polygon fill="#ff0000" stroke="#ff0000" stroke-width=".3907" points="418.3033,-297.8981 416.3638,-287.4823 411.3846,-296.8342 418.3033,-297.8981"/>
</g>
<!-- x3 -->
<g id="node4" class="node">
<title>x3</title>
<polygon fill="#d3d3d3" stroke="#000000" points="210.0416,-359.6051 174.0416,-359.6051 174.0416,-323.6051 210.0416,-323.6051 210.0416,-359.6051"/>
<text text-anchor="middle" x="192.0416" y="-338.9051" font-family="Times,serif" font-size="9.00" fill="#000000">x3</text>
</g>
<!-- x3&#45;&gt;2269 -->
<g id="edge19" class="edge">
<title>x3&#45;&gt;2269</title>
<path fill="none" stroke="#00ff00" stroke-width=".2377" d="M198.9996,-323.5046C202.1856,-315.2167 206.0588,-305.1411 209.7133,-295.6342"/>
<polygon fill="#00ff00" stroke="#00ff00" stroke-width=".2377" points="213.0834,-296.6216 213.4046,-286.0317 206.5495,-294.1099 213.0834,-296.6216"/>
</g>
<!-- x3&#45;&gt;2270 -->
<g id="edge16" class="edge">
<title>x3&#45;&gt;2270</title>
<path fill="none" stroke="#ff0000" stroke-width=".1119" d="M210.0985,-326.9261C224.4366,-315.2702 244.7096,-298.7895 260.9859,-285.558"/>
<polygon fill="#ff0000" stroke="#ff0000" stroke-width=".1119" points="263.5288,-288.0015 269.0805,-278.9776 259.1132,-282.5698 263.5288,-288.0015"/>
</g>
<!-- x3&#45;&gt;2272 -->
<g id="edge44" class="edge">
<title>x3&#45;&gt;2272</title>
<path fill="none" stroke="#00ff00" stroke-width=".5353" d="M210.267,-328.5808C213.1349,-326.7895 216.1191,-325.0664 219.0416,-323.6051 262.0403,-302.1058 278.4996,-309.9945 321.0416,-287.6051 322.8293,-286.6643 324.628,-285.6349 326.413,-284.5485"/>
<polygon fill="#00ff00" stroke="#00ff00" stroke-width=".5353" points="328.7078,-287.2266 335.1106,-278.7854 324.8413,-281.3913 328.7078,-287.2266"/>
</g>
<!-- x3&#45;&gt;2273 -->
<g id="edge52" class="edge">
<title>x3&#45;&gt;2273</title>
<path fill="none" stroke="#ff0000" stroke-width=".6479" d="M210.1098,-328.2394C212.9993,-326.4953 216.0315,-324.8762 219.0416,-323.6051 289.3889,-293.9003 317.3277,-318.7673 387.0416,-287.6051 388.8859,-286.7807 390.7286,-285.8419 392.5471,-284.8244"/>
<polygon fill="#ff0000" stroke="#ff0000" stroke-width=".6479" points="394.7678,-287.5603 401.3345,-279.2459 391.0161,-281.6506 394.7678,-287.5603"/>
</g>
<!-- x3&#45;&gt;2274 -->
<g id="edge48" class="edge">
<title>x3&#45;&gt;2274</title>
<path fill="none" stroke="#ff0000" stroke-width=".2231" d="M173.8391,-328.5346C170.9681,-326.7498 167.9769,-325.0407 165.0416,-323.6051 119.5901,-301.3755 102.0208,-310.7757 57.0416,-287.6051 55.2457,-286.68 53.4407,-285.6629 51.6508,-284.5857"/>
<polygon fill="#ff0000" stroke="#ff0000" stroke-width=".2231" points="53.2166,-281.426 42.9403,-278.8475 49.3657,-287.2716 53.2166,-281.426"/>
</g>
<!-- x3&#45;&gt;2275 -->
<g id="edge4" class="edge">
<title>x3&#45;&gt;2275</title>
<path fill="none" stroke="#ff0000" stroke-width=".1154" d="M183.692,-323.5046C179.7254,-314.9057 174.8711,-304.3824 170.3431,-294.5666"/>
<polygon fill="#ff0000" stroke="#ff0000" stroke-width=".1154" points="173.5084,-293.0725 166.1415,-285.4581 167.1521,-296.0047 173.5084,-293.0725"/>
</g>
<!-- x3&#45;&gt;2276 -->
<g id="edge11" class="edge">
<title>x3&#45;&gt;2276</title>
<path fill="none" stroke="#ff0000" stroke-width=".1472" d="M173.8061,-327.6528C158.1464,-315.6714 135.3397,-298.2217 117.4768,-284.5545"/>
<polygon fill="#ff0000" stroke="#ff0000" stroke-width=".1472" points="119.2267,-281.4864 109.1578,-278.1896 114.9731,-287.0459 119.2267,-281.4864"/>
</g>
<!-- x4 -->
<g id="node5" class="node">
<title>x4</title>
<polygon fill="#d3d3d3" stroke="#000000" points="156.0416,-359.6051 120.0416,-359.6051 120.0416,-323.6051 156.0416,-323.6051 156.0416,-359.6051"/>
<text text-anchor="middle" x="138.0416" y="-338.9051" font-family="Times,serif" font-size="9.00" fill="#000000">x4</text>
</g>
<!-- x4&#45;&gt;2269 -->
<g id="edge14" class="edge">
<title>x4&#45;&gt;2269</title>
<path fill="none" stroke="#ff0000" stroke-width=".3457" d="M156.2684,-324.6713C168.2078,-313.5788 183.9688,-298.9357 197.0692,-286.7645"/>
<polygon fill="#ff0000" stroke="#ff0000" stroke-width=".3457" points="199.4822,-289.3002 204.4261,-279.9295 194.7177,-284.1719 199.4822,-289.3002"/>
</g>
<!-- x4&#45;&gt;2272 -->
<g id="edge28" class="edge">
<title>x4&#45;&gt;2272</title>
<path fill="none" stroke="#ff0000" stroke-width=".1134" d="M156.1278,-328.2818C159.0149,-326.5318 162.0415,-324.8998 165.0416,-323.6051 230.3734,-295.4116 256.3107,-317.152 321.0416,-287.6051 322.8794,-286.7663 324.717,-285.8162 326.5317,-284.7901"/>
<polygon fill="#ff0000" stroke="#ff0000" stroke-width=".1134" points="328.7619,-287.5189 335.3086,-279.1887 324.9961,-281.6181 328.7619,-287.5189"/>
</g>
<!-- x4&#45;&gt;2274 -->
<g id="edge15" class="edge">
<title>x4&#45;&gt;2274</title>
<path fill="none" stroke="#ff0000" stroke-width=".9" d="M120.0326,-329.5991C117.0301,-327.5974 113.9479,-325.5426 111.0416,-323.6051 87.0416,-307.6051 80.7035,-304.101 57.0416,-287.6051 55.3844,-286.4498 53.6872,-285.2537 51.9794,-284.0403"/>
<polygon fill="#ff0000" stroke="#ff0000" stroke-width=".9" points="53.6516,-280.9319 43.4888,-277.9371 49.5658,-286.6158 53.6516,-280.9319"/>
</g>
<!-- x4&#45;&gt;2275 -->
<g id="edge18" class="edge">
<title>x4&#45;&gt;2275</title>
<path fill="none" stroke="#ff0000" stroke-width=".3655" d="M142.2164,-323.5046C144.0274,-315.6529 146.2084,-306.1967 148.2974,-297.1396"/>
<polygon fill="#ff0000" stroke="#ff0000" stroke-width=".3655" points="151.7551,-297.7212 150.5922,-287.1903 144.9342,-296.1479 151.7551,-297.7212"/>
</g>
<!-- x4&#45;&gt;2276 -->
<g id="edge5" class="edge">
<title>x4&#45;&gt;2276</title>
<path fill="none" stroke="#ff0000" stroke-width=".4824" d="M126.9088,-323.5046C121.2967,-314.3802 114.352,-303.0889 108.0085,-292.7753"/>
<polygon fill="#ff0000" stroke="#ff0000" stroke-width=".4824" points="110.8576,-290.7267 102.6374,-284.0425 104.8951,-294.394 110.8576,-290.7267"/>
</g>
<!-- x5 -->
<g id="node6" class="node">
<title>x5</title>
<polygon fill="#d3d3d3" stroke="#000000" points="45.0416,-359.6051 9.0416,-359.6051 9.0416,-323.6051 45.0416,-323.6051 45.0416,-359.6051"/>
<text text-anchor="middle" x="27.0416" y="-338.9051" font-family="Times,serif" font-size="9.00" fill="#000000">x5</text>
</g>
<!-- x5&#45;&gt;2274 -->
<g id="edge6" class="edge">
<title>x5&#45;&gt;2274</title>
<path fill="none" stroke="#00ff00" stroke-width=".7044" d="M26.3458,-323.5046C26.0522,-315.8668 25.7003,-306.7107 25.3608,-297.8806"/>
<polygon fill="#00ff00" stroke="#00ff00" stroke-width=".7044" points="28.854,-297.6334 24.9724,-287.7752 21.8592,-297.9023 28.854,-297.6334"/>
</g>
<!-- x5&#45;&gt;2276 -->
<g id="edge24" class="edge">
<title>x5&#45;&gt;2276</title>
<path fill="none" stroke="#ff0000" stroke-width=".3983" d="M41.6534,-323.5046C49.5901,-313.6731 59.5575,-301.3259 68.3802,-290.3967"/>
<polygon fill="#ff0000" stroke="#ff0000" stroke-width=".3983" points="71.2933,-292.3601 74.8513,-282.3806 65.8466,-287.9632 71.2933,-292.3601"/>
</g>
<!-- x6 -->
<g id="node7" class="node">
<title>x6</title>
<polygon fill="#d3d3d3" stroke="#000000" points="102.0416,-359.6051 66.0416,-359.6051 66.0416,-323.6051 102.0416,-323.6051 102.0416,-359.6051"/>
<text text-anchor="middle" x="84.0416" y="-338.9051" font-family="Times,serif" font-size="9.00" fill="#000000">x6</text>
</g>
<!-- x6&#45;&gt;2270 -->
<g id="edge35" class="edge">
<title>x6&#45;&gt;2270</title>
<path fill="none" stroke="#ff0000" stroke-width=".1356" d="M102.1492,-328.3306C105.0333,-326.5739 108.0534,-324.927 111.0416,-323.6051 171.3719,-296.9168 195.2798,-315.5429 255.0416,-287.6051 256.8717,-286.7496 258.7033,-285.7866 260.5134,-284.7506"/>
<polygon fill="#ff0000" stroke="#ff0000" stroke-width=".1356" points="262.7545,-287.471 269.2782,-279.1228 258.9724,-281.5807 262.7545,-287.471"/>
</g>
<!-- x6&#45;&gt;2274 -->
<g id="edge50" class="edge">
<title>x6&#45;&gt;2274</title>
<path fill="none" stroke="#00ff00" stroke-width=".7612" d="M70.1256,-323.5046C62.6221,-313.7448 53.2126,-301.506 44.8557,-290.6362"/>
<polygon fill="#00ff00" stroke="#00ff00" stroke-width=".7612" points="47.5891,-288.4492 38.7193,-282.6546 42.0396,-292.7157 47.5891,-288.4492"/>
</g>
<!-- x6&#45;&gt;2275 -->
<g id="edge37" class="edge">
<title>x6&#45;&gt;2275</title>
<path fill="none" stroke="#00ff00" stroke-width=".4954" d="M100.7408,-323.5046C110.2592,-313.1876 122.3332,-300.1004 132.7694,-288.7885"/>
<polygon fill="#00ff00" stroke="#00ff00" stroke-width=".4954" points="135.4728,-291.0199 139.6812,-281.2967 130.3279,-286.2733 135.4728,-291.0199"/>
</g>
<!-- x6&#45;&gt;2276 -->
<g id="edge51" class="edge">
<title>x6&#45;&gt;2276</title>
<path fill="none" stroke="#00ff00" stroke-width=".4667" d="M85.4332,-323.5046C86.0204,-315.8668 86.7244,-306.7107 87.4033,-297.8806"/>
<polygon fill="#00ff00" stroke="#00ff00" stroke-width=".4667" points="90.9032,-298.0141 88.1802,-287.7752 83.9238,-297.4775 90.9032,-298.0141"/>
</g>
<!-- x7 -->
<g id="node8" class="node">
<title>x7</title>
<polygon fill="#d3d3d3" stroke="#000000" points="264.0416,-359.6051 228.0416,-359.6051 228.0416,-323.6051 264.0416,-323.6051 264.0416,-359.6051"/>
<text text-anchor="middle" x="246.0416" y="-338.9051" font-family="Times,serif" font-size="9.00" fill="#000000">x7</text>
</g>
<!-- x7&#45;&gt;2270 -->
<g id="edge23" class="edge">
<title>x7&#45;&gt;2270</title>
<path fill="none" stroke="#00ff00" stroke-width=".3966" d="M255.7828,-323.5046C260.5325,-314.6792 266.3731,-303.8266 271.7733,-293.7923"/>
<polygon fill="#00ff00" stroke="#00ff00" stroke-width=".3966" points="274.9079,-295.3532 276.5649,-284.8887 268.7438,-292.0358 274.9079,-295.3532"/>
</g>
<!-- x7&#45;&gt;2272 -->
<g id="edge49" class="edge">
<title>x7&#45;&gt;2272</title>
<path fill="none" stroke="#ff0000" stroke-width=".134" d="M264.2485,-328.5394C279.4493,-317.6205 301.6798,-301.6281 321.0416,-287.6051 322.6778,-286.4201 324.3586,-285.201 326.0539,-283.9701"/>
<polygon fill="#ff0000" stroke="#ff0000" stroke-width=".134" points="328.4821,-286.5319 334.5111,-277.8198 324.365,-280.8706 328.4821,-286.5319"/>
</g>
<!-- x7&#45;&gt;2273 -->
<g id="edge36" class="edge">
<title>x7&#45;&gt;2273</title>
<path fill="none" stroke="#00ff00" stroke-width=".1805" d="M264.2239,-328.4928C267.0977,-326.7137 270.0951,-325.0174 273.0416,-323.6051 320.9555,-300.6406 339.6159,-311.5617 387.0416,-287.6051 388.8448,-286.6943 390.6555,-285.6882 392.4497,-284.6195"/>
<polygon fill="#00ff00" stroke="#00ff00" stroke-width=".1805" points="394.726,-287.3125 401.1718,-278.904 390.8893,-281.4576 394.726,-287.3125"/>
</g>
<!-- x7&#45;&gt;2274 -->
<g id="edge42" class="edge">
<title>x7&#45;&gt;2274</title>
<path fill="none" stroke="#00ff00" stroke-width=".551" d="M227.9648,-328.2598C225.0764,-326.5129 222.047,-324.8876 219.0416,-323.6051 151.2037,-294.6566 124.2625,-317.9589 57.0416,-287.6051 55.2005,-286.7737 53.3602,-285.8295 51.5436,-284.8078"/>
<polygon fill="#00ff00" stroke="#00ff00" stroke-width=".551" points="53.0768,-281.6349 42.7612,-279.2183 49.3182,-287.5403 53.0768,-281.6349"/>
</g>
<!-- x7&#45;&gt;2275 -->
<g id="edge34" class="edge">
<title>x7&#45;&gt;2275</title>
<path fill="none" stroke="#ff0000" stroke-width=".4575" d="M227.8288,-325.8122C214.654,-314.388 196.6627,-298.7872 181.9875,-286.0619"/>
<polygon fill="#ff0000" stroke="#ff0000" stroke-width=".4575" points="184.0755,-283.2399 174.2274,-279.3329 179.4896,-288.5285 184.0755,-283.2399"/>
</g>
<!-- x7&#45;&gt;2276 -->
<g id="edge47" class="edge">
<title>x7&#45;&gt;2276</title>
<path fill="none" stroke="#ff0000" stroke-width=".3591" d="M227.7905,-328.6317C224.9262,-326.8334 221.9498,-325.0948 219.0416,-323.6051 178.4848,-302.8305 163.1575,-309.2191 123.0416,-287.6051 121.2632,-286.6469 119.4717,-285.6041 117.6921,-284.5073"/>
<polygon fill="#ff0000" stroke="#ff0000" stroke-width=".3591" points="119.2708,-281.3532 109.0092,-278.7167 115.3869,-287.1769 119.2708,-281.3532"/>
</g>
<!-- y0 -->
<g id="node9" class="node">
<title>y0</title>
<ellipse fill="#add8e6" stroke="#000000" cx="189.0416" cy="-17.6777" rx="17.8571" ry="17.8571"/>
<text text-anchor="middle" x="189.0416" y="-14.9777" font-family="Times,serif" font-size="9.00" fill="#000000">y0</text>
</g>
<!-- 2278 -->
<g id="node17" class="node">
<title>2278</title>
<ellipse fill="#ffffff" stroke="#000000" cx="288.0416" cy="-179.4802" rx="24.0833" ry="24.0833"/>
<text text-anchor="middle" x="288.0416" y="-176.7802" font-family="Times,serif" font-size="9.00" fill="#000000">2278</text>
</g>
<!-- 2269&#45;&gt;2278 -->
<g id="edge33" class="edge">
<title>2269&#45;&gt;2278</title>
<path fill="none" stroke="#ff0000" stroke-width=".1892" d="M237.0181,-244.4837C245.7941,-233.3031 257.0234,-218.9971 266.7121,-206.6538"/>
<polygon fill="#ff0000" stroke="#ff0000" stroke-width=".1892" points="269.7032,-208.5118 273.1245,-198.4845 264.1968,-204.1896 269.7032,-208.5118"/>
</g>
<!-- 2279 -->
<g id="node18" class="node">
<title>2279</title>
<ellipse fill="#ffffff" stroke="#000000" cx="156.0416" cy="-179.4802" rx="24.0833" ry="24.0833"/>
<text text-anchor="middle" x="156.0416" y="-176.7802" font-family="Times,serif" font-size="9.00" fill="#000000">2279</text>
</g>
<!-- 2269&#45;&gt;2279 -->
<g id="edge3" class="edge">
<title>2269&#45;&gt;2279</title>
<path fill="none" stroke="#00ff00" stroke-width=".4058" d="M207.0652,-244.4837C198.2892,-233.3031 187.0599,-218.9971 177.3711,-206.6538"/>
<polygon fill="#00ff00" stroke="#00ff00" stroke-width=".4058" points="179.8864,-204.1896 170.9588,-198.4845 174.3801,-208.5118 179.8864,-204.1896"/>
</g>
<!-- 2270&#45;&gt;2278 -->
<g id="edge20" class="edge">
<title>2270&#45;&gt;2278</title>
<path fill="none" stroke="#00ff00" stroke-width=".3511" d="M288.0416,-239.2431C288.0416,-231.3123 288.0416,-222.3516 288.0416,-213.8278"/>
<polygon fill="#00ff00" stroke="#00ff00" stroke-width=".3511" points="291.5417,-213.7459 288.0416,-203.7459 284.5417,-213.746 291.5417,-213.7459"/>
</g>
<!-- 2270&#45;&gt;2279 -->
<g id="edge45" class="edge">
<title>2270&#45;&gt;2279</title>
<path fill="none" stroke="#ff0000" stroke-width=".1757" d="M268.7905,-248.8949C264.3505,-245.6936 259.593,-242.4039 255.0416,-239.5219 226.812,-221.6465 217.2713,-221.3973 189.0416,-203.5219 187.3349,-202.4411 185.5991,-201.303 183.862,-200.1338"/>
<polygon fill="#ff0000" stroke="#ff0000" stroke-width=".1757" points="185.4952,-197.0053 175.2927,-194.1488 181.487,-202.7442 185.4952,-197.0053"/>
</g>
<!-- 2272&#45;&gt;2278 -->
<g id="edge46" class="edge">
<title>2272&#45;&gt;2278</title>
<path fill="none" stroke="#00ff00" stroke-width=".6462" d="M339.0652,-244.4837C330.2892,-233.3031 319.0599,-218.9971 309.3711,-206.6538"/>
<polygon fill="#00ff00" stroke="#00ff00" stroke-width=".6462" points="311.8864,-204.1896 302.9588,-198.4845 306.3801,-208.5118 311.8864,-204.1896"/>
</g>
<!-- 2280 -->
<g id="node19" class="node">
<title>2280</title>
<ellipse fill="#ffffff" stroke="#000000" cx="222.0416" cy="-179.4802" rx="24.0833" ry="24.0833"/>
<text text-anchor="middle" x="222.0416" y="-176.7802" font-family="Times,serif" font-size="9.00" fill="#000000">2280</text>
</g>
<!-- 2272&#45;&gt;2280 -->
<g id="edge13" class="edge">
<title>2272&#45;&gt;2280</title>
<path fill="none" stroke="#00ff00" stroke-width=".1467" d="M334.7905,-248.8949C330.3505,-245.6936 325.593,-242.4039 321.0416,-239.5219 292.812,-221.6465 283.2713,-221.3973 255.0416,-203.5219 253.3349,-202.4411 251.5991,-201.303 249.862,-200.1338"/>
<polygon fill="#00ff00" stroke="#00ff00" stroke-width=".1467" points="251.4952,-197.0053 241.2927,-194.1488 247.487,-202.7442 251.4952,-197.0053"/>
</g>
<!-- 2273&#45;&gt;2278 -->
<g id="edge25" class="edge">
<title>2273&#45;&gt;2278</title>
<path fill="none" stroke="#00ff00" stroke-width=".6425" d="M400.6908,-249.0485C396.256,-245.8392 391.5258,-242.5074 387.0416,-239.5219 364.3637,-224.4231 337.9489,-208.4822 318.1108,-196.8231"/>
<polygon fill="#00ff00" stroke="#00ff00" stroke-width=".6425" points="319.6207,-193.6516 309.2213,-191.6263 316.0879,-199.6948 319.6207,-193.6516"/>
</g>
<!-- 2273&#45;&gt;2279 -->
<g id="edge31" class="edge">
<title>2273&#45;&gt;2279</title>
<path fill="none" stroke="#ff0000" stroke-width=".6492" d="M401.3845,-247.7667C396.9137,-244.6239 391.9935,-241.6432 387.0416,-239.5219 304.8254,-204.3014 271.2579,-238.7424 189.0416,-203.5219 187.1847,-202.7264 185.3322,-201.81 183.5062,-200.8096"/>
<polygon fill="#ff0000" stroke="#ff0000" stroke-width=".6492" points="185.0284,-197.6326 174.6988,-195.277 181.3049,-203.5601 185.0284,-197.6326"/>
</g>
<!-- 2274&#45;&gt;2279 -->
<g id="edge53" class="edge">
<title>2274&#45;&gt;2279</title>
<path fill="none" stroke="#00ff00" stroke-width=".5564" d="M43.3924,-249.0485C47.8273,-245.8392 52.5574,-242.5074 57.0416,-239.5219 79.7196,-224.4231 106.1343,-208.4822 125.9725,-196.8231"/>
<polygon fill="#00ff00" stroke="#00ff00" stroke-width=".5564" points="127.9954,-199.6948 134.862,-191.6263 124.4625,-193.6516 127.9954,-199.6948"/>
</g>
<!-- 2275&#45;&gt;2278 -->
<g id="edge17" class="edge">
<title>2275&#45;&gt;2278</title>
<path fill="none" stroke="#00ff00" stroke-width=".1073" d="M175.2927,-248.8949C179.7328,-245.6936 184.4902,-242.4039 189.0416,-239.5219 217.2713,-221.6465 226.812,-221.3973 255.0416,-203.5219 256.7484,-202.4411 258.4842,-201.303 260.2213,-200.1338"/>
<polygon fill="#00ff00" stroke="#00ff00" stroke-width=".1073" points="262.5962,-202.7442 268.7905,-194.1488 258.588,-197.0053 262.5962,-202.7442"/>
</g>
<!-- 2276&#45;&gt;2278 -->
<g id="edge43" class="edge">
<title>2276&#45;&gt;2278</title>
<path fill="none" stroke="#ff0000" stroke-width=".3434" d="M108.8415,-248.081C113.3049,-244.9218 118.186,-241.8551 123.0416,-239.5219 177.8517,-213.1849 200.2316,-229.8588 255.0416,-203.5219 256.8625,-202.6469 258.687,-201.6688 260.4916,-200.6213"/>
<polygon fill="#ff0000" stroke="#ff0000" stroke-width=".3434" points="262.7453,-203.3321 269.2418,-194.9627 258.944,-197.4541 262.7453,-203.3321"/>
</g>
<!-- 2276&#45;&gt;2279 -->
<g id="edge29" class="edge">
<title>2276&#45;&gt;2279</title>
<path fill="none" stroke="#ff0000" stroke-width=".6974" d="M105.0181,-244.4837C113.7941,-233.3031 125.0234,-218.9971 134.7121,-206.6538"/>
<polygon fill="#ff0000" stroke="#ff0000" stroke-width=".6974" points="137.7032,-208.5118 141.1245,-198.4845 132.1968,-204.1896 137.7032,-208.5118"/>
</g>
<!-- 2276&#45;&gt;2280 -->
<g id="edge55" class="edge">
<title>2276&#45;&gt;2280</title>
<path fill="none" stroke="#00ff00" stroke-width=".2755" d="M109.2927,-248.8949C113.7328,-245.6936 118.4902,-242.4039 123.0416,-239.5219 151.2713,-221.6465 160.812,-221.3973 189.0416,-203.5219 190.7484,-202.4411 192.4842,-201.303 194.2213,-200.1338"/>
<polygon fill="#00ff00" stroke="#00ff00" stroke-width=".2755" points="196.5962,-202.7442 202.7905,-194.1488 192.588,-197.0053 196.5962,-202.7442"/>
</g>
<!-- 2281 -->
<g id="node20" class="node">
<title>2281</title>
<ellipse fill="#ffffff" stroke="#000000" cx="222.0416" cy="-95.397" rx="24.0833" ry="24.0833"/>
<text text-anchor="middle" x="222.0416" y="-92.697" font-family="Times,serif" font-size="9.00" fill="#000000">2281</text>
</g>
<!-- 2278&#45;&gt;2281 -->
<g id="edge2" class="edge">
<title>2278&#45;&gt;2281</title>
<path fill="none" stroke="#ff0000" stroke-width=".7576" d="M273.0652,-160.4004C264.2892,-149.2198 253.0599,-134.9138 243.3711,-122.5705"/>
<polygon fill="#ff0000" stroke="#ff0000" stroke-width=".7576" points="245.8864,-120.1064 236.9588,-114.4013 240.3801,-124.4285 245.8864,-120.1064"/>
</g>
<!-- 2282 -->
<g id="node21" class="node">
<title>2282</title>
<ellipse fill="#ffffff" stroke="#000000" cx="156.0416" cy="-95.397" rx="24.0833" ry="24.0833"/>
<text text-anchor="middle" x="156.0416" y="-92.697" font-family="Times,serif" font-size="9.00" fill="#000000">2282</text>
</g>
<!-- 2278&#45;&gt;2282 -->
<g id="edge21" class="edge">
<title>2278&#45;&gt;2282</title>
<path fill="none" stroke="#00ff00" stroke-width=".8199" d="M268.7905,-164.8117C264.3505,-161.6103 259.593,-158.3206 255.0416,-155.4386 226.812,-137.5632 217.2713,-137.314 189.0416,-119.4386 187.3349,-118.3578 185.5991,-117.2198 183.862,-116.0505"/>
<polygon fill="#00ff00" stroke="#00ff00" stroke-width=".8199" points="185.4952,-112.9221 175.2927,-110.0655 181.487,-118.661 185.4952,-112.9221"/>
</g>
<!-- 2279&#45;&gt;2281 -->
<g id="edge22" class="edge">
<title>2279&#45;&gt;2281</title>
<path fill="none" stroke="#ff0000" stroke-width=".4231" d="M171.0181,-160.4004C179.7941,-149.2198 191.0234,-134.9138 200.7121,-122.5705"/>
<polygon fill="#ff0000" stroke="#ff0000" stroke-width=".4231" points="203.7032,-124.4285 207.1245,-114.4013 198.1968,-120.1064 203.7032,-124.4285"/>
</g>
<!-- 2279&#45;&gt;2282 -->
<g id="edge8" class="edge">
<title>2279&#45;&gt;2282</title>
<path fill="none" stroke="#ff0000" stroke-width=".9" d="M156.0416,-155.1599C156.0416,-147.229 156.0416,-138.2684 156.0416,-129.7446"/>
<polygon fill="#ff0000" stroke="#ff0000" stroke-width=".9" points="159.5417,-129.6626 156.0416,-119.6627 152.5417,-129.6627 159.5417,-129.6626"/>
</g>
<!-- 2280&#45;&gt;2281 -->
<g id="edge9" class="edge">
<title>2280&#45;&gt;2281</title>
<path fill="none" stroke="#ff0000" stroke-width=".75" d="M222.0416,-155.1599C222.0416,-147.229 222.0416,-138.2684 222.0416,-129.7446"/>
<polygon fill="#ff0000" stroke="#ff0000" stroke-width=".75" points="225.5417,-129.6626 222.0416,-119.6627 218.5417,-129.6627 225.5417,-129.6626"/>
</g>
<!-- 2281&#45;&gt;y0 -->
<g id="edge26" class="edge">
<title>2281&#45;&gt;y0</title>
<path fill="none" stroke="#ff0000" stroke-width=".1533" d="M212.4967,-72.9173C208.5974,-63.734 204.0638,-53.0568 200.0276,-43.551"/>
<polygon fill="#ff0000" stroke="#ff0000" stroke-width=".1533" points="203.1789,-42.0174 196.0489,-34.1807 196.7357,-44.7533 203.1789,-42.0174"/>
</g>
<!-- 2282&#45;&gt;y0 -->
<g id="edge40" class="edge">
<title>2282&#45;&gt;y0</title>
<path fill="none" stroke="#ff0000" stroke-width=".5395" d="M165.5866,-72.9173C169.4859,-63.734 174.0195,-53.0568 178.0557,-43.551"/>
<polygon fill="#ff0000" stroke="#ff0000" stroke-width=".5395" points="181.3476,-44.7533 182.0343,-34.1807 174.9043,-42.0174 181.3476,-44.7533"/>
</g>
</g>
</svg>
