<?xml version="1.0" encoding="UTF-8" standalone="no"?>
<!DOCTYPE svg PUBLIC "-//W3C//DTD SVG 1.1//EN"
 "http://www.w3.org/Graphics/SVG/1.1/DTD/svg11.dtd">
<!-- Generated by graphviz version 2.40.1 (20161225.0304)
 -->
<!-- Title: %3 Pages: 1 -->
<svg width="470pt" height="349pt"
 viewBox="0.00 0.00 469.72 348.51" xmlns="http://www.w3.org/2000/svg" xmlns:xlink="http://www.w3.org/1999/xlink">
<g id="graph0" class="graph" transform="scale(1 1) rotate(0) translate(4 344.5132)">
<title>%3</title>
<polygon fill="#ffffff" stroke="transparent" points="-4,4 -4,-344.5132 465.7193,-344.5132 465.7193,4 -4,4"/>
<!-- x0 -->
<g id="node1" class="node">
<title>x0</title>
<polygon fill="#d3d3d3" stroke="#000000" points="44.8597,-340.5132 8.8597,-340.5132 8.8597,-304.5132 44.8597,-304.5132 44.8597,-340.5132"/>
<text text-anchor="middle" x="26.8597" y="-319.8132" font-family="Times,serif" font-size="9.00" fill="#000000">x0</text>
</g>
<!-- 477 -->
<g id="node10" class="node">
<title>477</title>
<ellipse fill="#ffffff" stroke="#000000" cx="20.8597" cy="-247.6536" rx="20.7202" ry="20.7202"/>
<text text-anchor="middle" x="20.8597" y="-244.9536" font-family="Times,serif" font-size="9.00" fill="#000000">477</text>
</g>
<!-- x0&#45;&gt;477 -->
<g id="edge44" class="edge">
<title>x0&#45;&gt;477</title>
<path fill="none" stroke="#ff0000" stroke-width=".6556" d="M25.4072,-304.3918C24.784,-296.6165 24.0381,-287.3104 23.3324,-278.5057"/>
<polygon fill="#ff0000" stroke="#ff0000" stroke-width=".6556" points="26.8201,-278.2101 22.5322,-268.5217 19.8424,-278.7694 26.8201,-278.2101"/>
</g>
<!-- 478 -->
<g id="node11" class="node">
<title>478</title>
<ellipse fill="#ffffff" stroke="#000000" cx="80.8597" cy="-247.6536" rx="20.7202" ry="20.7202"/>
<text text-anchor="middle" x="80.8597" y="-244.9536" font-family="Times,serif" font-size="9.00" fill="#000000">478</text>
</g>
<!-- x0&#45;&gt;478 -->
<g id="edge12" class="edge">
<title>x0&#45;&gt;478</title>
<path fill="none" stroke="#ff0000" stroke-width=".1062" d="M39.9315,-304.3918C46.7596,-294.9262 55.2241,-283.1919 62.6803,-272.8554"/>
<polygon fill="#ff0000" stroke="#ff0000" stroke-width=".1062" points="65.6366,-274.7397 68.6484,-264.5819 59.9595,-270.6445 65.6366,-274.7397"/>
</g>
<!-- 480 -->
<g id="node13" class="node">
<title>480</title>
<ellipse fill="#ffffff" stroke="#000000" cx="140.8597" cy="-247.6536" rx="20.7202" ry="20.7202"/>
<text text-anchor="middle" x="140.8597" y="-244.9536" font-family="Times,serif" font-size="9.00" fill="#000000">480</text>
</g>
<!-- x0&#45;&gt;480 -->
<g id="edge5" class="edge">
<title>x0&#45;&gt;480</title>
<path fill="none" stroke="#ff0000" stroke-width=".1369" d="M45.1192,-310.252C48.0347,-308.3197 51.0242,-306.3534 53.8597,-304.5132 78.9936,-288.2018 85.8866,-285.0699 110.8597,-268.5132 112.3136,-267.5493 113.8014,-266.5517 115.299,-265.5389"/>
<polygon fill="#ff0000" stroke="#ff0000" stroke-width=".1369" points="117.5475,-268.2408 123.8153,-259.6988 113.5887,-262.4678 117.5475,-268.2408"/>
</g>
<!-- 482 -->
<g id="node15" class="node">
<title>482</title>
<ellipse fill="#ffffff" stroke="#000000" cx="200.8597" cy="-247.6536" rx="20.7202" ry="20.7202"/>
<text text-anchor="middle" x="200.8597" y="-244.9536" font-family="Times,serif" font-size="9.00" fill="#000000">482</text>
</g>
<!-- x0&#45;&gt;482 -->
<g id="edge10" class="edge">
<title>x0&#45;&gt;482</title>
<path fill="none" stroke="#00ff00" stroke-width=".1036" d="M45.0326,-309.3814C47.9077,-307.6049 50.9079,-305.9146 53.8597,-304.5132 103.0079,-281.1797 121.9422,-292.3267 170.8597,-268.5132 172.4282,-267.7497 174.0059,-266.9094 175.5727,-266.0178"/>
<polygon fill="#00ff00" stroke="#00ff00" stroke-width=".1036" points="177.6938,-268.8182 184.2878,-260.5255 173.9616,-262.8961 177.6938,-268.8182"/>
</g>
<!-- 483 -->
<g id="node16" class="node">
<title>483</title>
<ellipse fill="#ffffff" stroke="#000000" cx="260.8597" cy="-247.6536" rx="20.7202" ry="20.7202"/>
<text text-anchor="middle" x="260.8597" y="-244.9536" font-family="Times,serif" font-size="9.00" fill="#000000">483</text>
</g>
<!-- x0&#45;&gt;483 -->
<g id="edge43" class="edge">
<title>x0&#45;&gt;483</title>
<path fill="none" stroke="#00ff00" stroke-width=".4529" d="M44.9159,-309.1193C47.8072,-307.3791 50.8429,-305.7686 53.8597,-304.5132 127.9761,-273.6717 157.0487,-300.0788 230.8597,-268.5132 232.4636,-267.8273 234.0692,-267.048 235.6575,-266.2034"/>
<polygon fill="#00ff00" stroke="#00ff00" stroke-width=".4529" points="237.7224,-269.0435 244.4341,-260.8456 234.0751,-263.0687 237.7224,-269.0435"/>
</g>
<!-- x1 -->
<g id="node2" class="node">
<title>x1</title>
<polygon fill="#d3d3d3" stroke="#000000" points="152.8597,-340.5132 116.8597,-340.5132 116.8597,-304.5132 152.8597,-304.5132 152.8597,-340.5132"/>
<text text-anchor="middle" x="134.8597" y="-319.8132" font-family="Times,serif" font-size="9.00" fill="#000000">x1</text>
</g>
<!-- x1&#45;&gt;477 -->
<g id="edge37" class="edge">
<title>x1&#45;&gt;477</title>
<path fill="none" stroke="#00ff00" stroke-width=".7996" d="M116.6001,-310.252C113.6846,-308.3197 110.6951,-306.3534 107.8597,-304.5132 82.7257,-288.2018 75.8327,-285.0699 50.8597,-268.5132 49.4057,-267.5493 47.9179,-266.5517 46.4203,-265.5389"/>
<polygon fill="#00ff00" stroke="#00ff00" stroke-width=".7996" points="48.1306,-262.4678 37.904,-259.6988 44.1718,-268.2408 48.1306,-262.4678"/>
</g>
<!-- x1&#45;&gt;478 -->
<g id="edge59" class="edge">
<title>x1&#45;&gt;478</title>
<path fill="none" stroke="#00ff00" stroke-width=".146" d="M121.7878,-304.3918C114.9597,-294.9262 106.4952,-283.1919 99.039,-272.8554"/>
<polygon fill="#00ff00" stroke="#00ff00" stroke-width=".146" points="101.7598,-270.6445 93.0709,-264.5819 96.0827,-274.7397 101.7598,-270.6445"/>
</g>
<!-- x1&#45;&gt;480 -->
<g id="edge31" class="edge">
<title>x1&#45;&gt;480</title>
<path fill="none" stroke="#00ff00" stroke-width=".1886" d="M136.3121,-304.3918C136.9353,-296.6165 137.6812,-287.3104 138.3869,-278.5057"/>
<polygon fill="#00ff00" stroke="#00ff00" stroke-width=".1886" points="141.8769,-278.7694 139.1871,-268.5217 134.8992,-278.2101 141.8769,-278.7694"/>
</g>
<!-- x1&#45;&gt;482 -->
<g id="edge16" class="edge">
<title>x1&#45;&gt;482</title>
<path fill="none" stroke="#00ff00" stroke-width=".2212" d="M150.8364,-304.3918C159.5919,-294.461 170.5489,-282.0331 179.9747,-271.3421"/>
<polygon fill="#00ff00" stroke="#00ff00" stroke-width=".2212" points="182.8344,-273.3909 186.8224,-263.5752 177.5837,-268.7616 182.8344,-273.3909"/>
</g>
<!-- x1&#45;&gt;483 -->
<g id="edge23" class="edge">
<title>x1&#45;&gt;483</title>
<path fill="none" stroke="#00ff00" stroke-width=".4857" d="M152.9901,-310.0438C155.9223,-308.1384 158.9508,-306.235 161.8597,-304.5132 191.6258,-286.8945 201.2673,-286.4225 230.8597,-268.5132 232.3521,-267.61 233.8701,-266.6601 235.3909,-265.684"/>
<polygon fill="#00ff00" stroke="#00ff00" stroke-width=".4857" points="237.6036,-268.415 243.9741,-259.9493 233.7148,-262.5946 237.6036,-268.415"/>
</g>
<!-- 484 -->
<g id="node17" class="node">
<title>484</title>
<ellipse fill="#ffffff" stroke="#000000" cx="320.8597" cy="-247.6536" rx="20.7202" ry="20.7202"/>
<text text-anchor="middle" x="320.8597" y="-244.9536" font-family="Times,serif" font-size="9.00" fill="#000000">484</text>
</g>
<!-- x1&#45;&gt;484 -->
<g id="edge61" class="edge">
<title>x1&#45;&gt;484</title>
<path fill="none" stroke="#00ff00" stroke-width=".1766" d="M152.9999,-309.3113C155.8795,-307.5446 158.8897,-305.8756 161.8597,-304.5132 215.9631,-279.6954 237.0017,-293.8595 290.8597,-268.5132 292.4381,-267.7704 294.0236,-266.9465 295.5964,-266.0674"/>
<polygon fill="#00ff00" stroke="#00ff00" stroke-width=".1766" points="297.7029,-268.8783 304.3287,-260.611 293.9935,-262.9419 297.7029,-268.8783"/>
</g>
<!-- x2 -->
<g id="node3" class="node">
<title>x2</title>
<polygon fill="#d3d3d3" stroke="#000000" points="368.8597,-340.5132 332.8597,-340.5132 332.8597,-304.5132 368.8597,-304.5132 368.8597,-340.5132"/>
<text text-anchor="middle" x="350.8597" y="-319.8132" font-family="Times,serif" font-size="9.00" fill="#000000">x2</text>
</g>
<!-- x2&#45;&gt;477 -->
<g id="edge58" class="edge">
<title>x2&#45;&gt;477</title>
<path fill="none" stroke="#ff0000" stroke-width=".3506" d="M332.5777,-308.753C329.7659,-307.109 326.8128,-305.6233 323.8597,-304.5132 209.302,-261.4513 164.9903,-312.6944 50.8597,-268.5132 49.2328,-267.8835 47.6093,-267.1483 46.0071,-266.3376"/>
<polygon fill="#ff0000" stroke="#ff0000" stroke-width=".3506" points="47.5718,-263.1955 37.1909,-261.0774 43.9851,-269.2069 47.5718,-263.1955"/>
</g>
<!-- x2&#45;&gt;478 -->
<g id="edge18" class="edge">
<title>x2&#45;&gt;478</title>
<path fill="none" stroke="#00ff00" stroke-width=".2274" d="M332.84,-309.0291C329.9437,-307.3013 326.8968,-305.7183 323.8597,-304.5132 234.6182,-269.1051 199.7503,-304.7932 110.8597,-268.5132 109.2445,-267.854 107.6302,-267.0957 106.0351,-266.2673"/>
<polygon fill="#00ff00" stroke="#00ff00" stroke-width=".2274" points="107.6088,-263.1289 97.2391,-260.9559 103.9904,-269.1212 107.6088,-263.1289"/>
</g>
<!-- 479 -->
<g id="node12" class="node">
<title>479</title>
<ellipse fill="#ffffff" stroke="#000000" cx="380.8597" cy="-247.6536" rx="20.7202" ry="20.7202"/>
<text text-anchor="middle" x="380.8597" y="-244.9536" font-family="Times,serif" font-size="9.00" fill="#000000">479</text>
</g>
<!-- x2&#45;&gt;479 -->
<g id="edge79" class="edge">
<title>x2&#45;&gt;479</title>
<path fill="none" stroke="#ff0000" stroke-width=".1052" d="M358.1218,-304.3918C361.4681,-296.0418 365.5218,-285.9264 369.2745,-276.5623"/>
<polygon fill="#ff0000" stroke="#ff0000" stroke-width=".1052" points="372.5627,-277.7659 373.0338,-267.1816 366.065,-275.1619 372.5627,-277.7659"/>
</g>
<!-- 481 -->
<g id="node14" class="node">
<title>481</title>
<ellipse fill="#ffffff" stroke="#000000" cx="440.8597" cy="-247.6536" rx="20.7202" ry="20.7202"/>
<text text-anchor="middle" x="440.8597" y="-244.9536" font-family="Times,serif" font-size="9.00" fill="#000000">481</text>
</g>
<!-- x2&#45;&gt;481 -->
<g id="edge65" class="edge">
<title>x2&#45;&gt;481</title>
<path fill="none" stroke="#ff0000" stroke-width=".2536" d="M369.0725,-307.3643C382.854,-295.9011 401.9058,-280.0544 416.9194,-267.5665"/>
<polygon fill="#ff0000" stroke="#ff0000" stroke-width=".2536" points="419.3357,-270.1091 424.7857,-261.0235 414.8594,-264.7275 419.3357,-270.1091"/>
</g>
<!-- x2&#45;&gt;482 -->
<g id="edge72" class="edge">
<title>x2&#45;&gt;482</title>
<path fill="none" stroke="#ff0000" stroke-width=".1904" d="M332.5943,-309.5674C329.732,-307.7653 326.7599,-306.0183 323.8597,-304.5132 284.519,-284.0986 269.9986,-289.312 230.8597,-268.5132 229.3192,-267.6946 227.7634,-266.8111 226.2136,-265.8862"/>
<polygon fill="#ff0000" stroke="#ff0000" stroke-width=".1904" points="227.8482,-262.7758 217.5471,-260.2983 224.0549,-268.6589 227.8482,-262.7758"/>
</g>
<!-- x2&#45;&gt;483 -->
<g id="edge28" class="edge">
<title>x2&#45;&gt;483</title>
<path fill="none" stroke="#00ff00" stroke-width=".4752" d="M332.6468,-307.3643C318.8653,-295.9011 299.8135,-280.0544 284.7999,-267.5665"/>
<polygon fill="#00ff00" stroke="#00ff00" stroke-width=".4752" points="286.8599,-264.7275 276.9336,-261.0235 282.3836,-270.1091 286.8599,-264.7275"/>
</g>
<!-- x2&#45;&gt;484 -->
<g id="edge50" class="edge">
<title>x2&#45;&gt;484</title>
<path fill="none" stroke="#ff0000" stroke-width=".1298" d="M343.5975,-304.3918C340.2512,-296.0418 336.1975,-285.9264 332.4448,-276.5623"/>
<polygon fill="#ff0000" stroke="#ff0000" stroke-width=".1298" points="335.6543,-275.1619 328.6855,-267.1816 329.1566,-277.7659 335.6543,-275.1619"/>
</g>
<!-- x3 -->
<g id="node4" class="node">
<title>x3</title>
<polygon fill="#d3d3d3" stroke="#000000" points="422.8597,-340.5132 386.8597,-340.5132 386.8597,-304.5132 422.8597,-304.5132 422.8597,-340.5132"/>
<text text-anchor="middle" x="404.8597" y="-319.8132" font-family="Times,serif" font-size="9.00" fill="#000000">x3</text>
</g>
<!-- x3&#45;&gt;480 -->
<g id="edge13" class="edge">
<title>x3&#45;&gt;480</title>
<path fill="none" stroke="#00ff00" stroke-width=".9" d="M386.8349,-309.042C383.9393,-307.3124 380.894,-305.7255 377.8597,-304.5132 291.1434,-269.868 257.2326,-304.0057 170.8597,-268.5132 169.2461,-267.8502 167.633,-267.0889 166.0389,-266.2581"/>
<polygon fill="#00ff00" stroke="#00ff00" stroke-width=".9" points="167.6137,-263.1202 157.2456,-260.9401 163.9912,-269.11 167.6137,-263.1202"/>
</g>
<!-- x3&#45;&gt;481 -->
<g id="edge25" class="edge">
<title>x3&#45;&gt;481</title>
<path fill="none" stroke="#ff0000" stroke-width=".1745" d="M413.5742,-304.3918C417.6945,-295.8241 422.7085,-285.3977 427.3089,-275.8315"/>
<polygon fill="#ff0000" stroke="#ff0000" stroke-width=".1745" points="430.5432,-277.1817 431.723,-266.6527 424.2348,-274.1479 430.5432,-277.1817"/>
</g>
<!-- x3&#45;&gt;482 -->
<g id="edge48" class="edge">
<title>x3&#45;&gt;482</title>
<path fill="none" stroke="#ff0000" stroke-width=".3088" d="M386.7578,-309.2258C383.8729,-307.4709 380.851,-305.8279 377.8597,-304.5132 316.2805,-277.4493 292.1709,-296.1786 230.8597,-268.5132 229.2695,-267.7957 227.6749,-266.9917 226.095,-266.1279"/>
<polygon fill="#ff0000" stroke="#ff0000" stroke-width=".3088" points="227.6884,-262.9982 217.3424,-260.7155 224.0068,-268.9518 227.6884,-262.9982"/>
</g>
<!-- x3&#45;&gt;483 -->
<g id="edge26" class="edge">
<title>x3&#45;&gt;483</title>
<path fill="none" stroke="#ff0000" stroke-width=".406" d="M386.8582,-309.8145C383.9093,-307.9387 380.8418,-306.1046 377.8597,-304.5132 340.9407,-284.813 327.584,-288.5739 290.8597,-268.5132 289.3287,-267.6769 287.7804,-266.7796 286.2363,-265.844"/>
<polygon fill="#ff0000" stroke="#ff0000" stroke-width=".406" points="287.8791,-262.7376 277.5864,-260.2255 284.066,-268.6079 287.8791,-262.7376"/>
</g>
<!-- x3&#45;&gt;484 -->
<g id="edge4" class="edge">
<title>x3&#45;&gt;484</title>
<path fill="none" stroke="#ff0000" stroke-width=".1865" d="M386.6329,-306.2698C374.1288,-295.1263 357.433,-280.2472 343.9918,-268.2686"/>
<polygon fill="#ff0000" stroke="#ff0000" stroke-width=".1865" points="346.3044,-265.6414 336.5101,-261.6011 341.6471,-270.8673 346.3044,-265.6414"/>
</g>
<!-- x4 -->
<g id="node5" class="node">
<title>x4</title>
<polygon fill="#d3d3d3" stroke="#000000" points="98.8597,-340.5132 62.8597,-340.5132 62.8597,-304.5132 98.8597,-304.5132 98.8597,-340.5132"/>
<text text-anchor="middle" x="80.8597" y="-319.8132" font-family="Times,serif" font-size="9.00" fill="#000000">x4</text>
</g>
<!-- x4&#45;&gt;477 -->
<g id="edge32" class="edge">
<title>x4&#45;&gt;477</title>
<path fill="none" stroke="#00ff00" stroke-width=".1062" d="M66.3353,-304.3918C58.5633,-294.695 48.883,-282.6173 40.4538,-272.1004"/>
<polygon fill="#00ff00" stroke="#00ff00" stroke-width=".1062" points="43.0074,-269.6901 34.0223,-264.0761 37.5453,-274.068 43.0074,-269.6901"/>
</g>
<!-- x4&#45;&gt;478 -->
<g id="edge60" class="edge">
<title>x4&#45;&gt;478</title>
<path fill="none" stroke="#ff0000" stroke-width=".5676" d="M80.8597,-304.3918C80.8597,-296.701 80.8597,-287.5125 80.8597,-278.7929"/>
<polygon fill="#ff0000" stroke="#ff0000" stroke-width=".5676" points="84.3597,-278.5217 80.8597,-268.5217 77.3597,-278.5218 84.3597,-278.5217"/>
</g>
<!-- x4&#45;&gt;480 -->
<g id="edge52" class="edge">
<title>x4&#45;&gt;480</title>
<path fill="none" stroke="#ff0000" stroke-width=".3027" d="M95.384,-304.3918C103.156,-294.695 112.8363,-282.6173 121.2655,-272.1004"/>
<polygon fill="#ff0000" stroke="#ff0000" stroke-width=".3027" points="124.174,-274.068 127.697,-264.0761 118.7119,-269.6901 124.174,-274.068"/>
</g>
<!-- x4&#45;&gt;482 -->
<g id="edge47" class="edge">
<title>x4&#45;&gt;482</title>
<path fill="none" stroke="#ff0000" stroke-width=".1958" d="M99.0489,-310.1411C101.9736,-308.2232 104.9843,-306.2903 107.8597,-304.5132 135.2923,-287.5589 143.5943,-285.7353 170.8597,-268.5132 172.3346,-267.5816 173.8388,-266.6094 175.349,-265.6162"/>
<polygon fill="#ff0000" stroke="#ff0000" stroke-width=".1958" points="177.5788,-268.3335 183.9017,-259.8323 173.6574,-262.535 177.5788,-268.3335"/>
</g>
<!-- x4&#45;&gt;484 -->
<g id="edge14" class="edge">
<title>x4&#45;&gt;484</title>
<path fill="none" stroke="#00ff00" stroke-width=".3699" d="M98.9087,-309.1019C101.801,-307.3641 104.8389,-305.7589 107.8597,-304.5132 184.492,-272.9126 214.5403,-300.8624 290.8597,-268.5132 292.4658,-267.8324 294.0731,-267.0572 295.6627,-266.2156"/>
<polygon fill="#00ff00" stroke="#00ff00" stroke-width=".3699" points="297.7238,-269.0584 304.4431,-260.8669 294.0821,-263.0803 297.7238,-269.0584"/>
</g>
<!-- x5 -->
<g id="node6" class="node">
<title>x5</title>
<polygon fill="#d3d3d3" stroke="#000000" points="206.8597,-340.5132 170.8597,-340.5132 170.8597,-304.5132 206.8597,-304.5132 206.8597,-340.5132"/>
<text text-anchor="middle" x="188.8597" y="-319.8132" font-family="Times,serif" font-size="9.00" fill="#000000">x5</text>
</g>
<!-- x5&#45;&gt;477 -->
<g id="edge24" class="edge">
<title>x5&#45;&gt;477</title>
<path fill="none" stroke="#00ff00" stroke-width=".1854" d="M170.6675,-309.4213C167.7951,-307.6394 164.8007,-305.9369 161.8597,-304.5132 115.178,-281.9167 97.3179,-291.5656 50.8597,-268.5132 49.297,-267.7378 47.7238,-266.8883 46.1605,-265.9895"/>
<polygon fill="#00ff00" stroke="#00ff00" stroke-width=".1854" points="47.7765,-262.8701 37.4555,-260.4766 44.0312,-268.7839 47.7765,-262.8701"/>
</g>
<!-- x5&#45;&gt;478 -->
<g id="edge39" class="edge">
<title>x5&#45;&gt;478</title>
<path fill="none" stroke="#ff0000" stroke-width=".4788" d="M170.5707,-309.8672C154.7589,-298.9303 131.2932,-282.6903 110.8597,-268.5132 109.4263,-267.5188 107.9548,-266.4973 106.4698,-265.466"/>
<polygon fill="#ff0000" stroke="#ff0000" stroke-width=".4788" points="108.1985,-262.4053 97.9893,-259.5731 104.2041,-268.1537 108.1985,-262.4053"/>
</g>
<!-- x5&#45;&gt;480 -->
<g id="edge54" class="edge">
<title>x5&#45;&gt;480</title>
<path fill="none" stroke="#00ff00" stroke-width=".4244" d="M177.2402,-304.3918C171.3603,-295.2217 164.1151,-283.9223 157.6422,-273.8273"/>
<polygon fill="#00ff00" stroke="#00ff00" stroke-width=".4244" points="160.5506,-271.8788 152.2065,-265.3498 154.6579,-275.6572 160.5506,-271.8788"/>
</g>
<!-- x5&#45;&gt;482 -->
<g id="edge51" class="edge">
<title>x5&#45;&gt;482</title>
<path fill="none" stroke="#00ff00" stroke-width=".1427" d="M191.7645,-304.3918C193.0209,-296.5543 194.5265,-287.1614 195.9479,-278.2944"/>
<polygon fill="#00ff00" stroke="#00ff00" stroke-width=".1427" points="199.4308,-278.6796 197.5578,-268.2517 192.519,-277.5716 199.4308,-278.6796"/>
</g>
<!-- x5&#45;&gt;483 -->
<g id="edge73" class="edge">
<title>x5&#45;&gt;483</title>
<path fill="none" stroke="#ff0000" stroke-width=".17" d="M206.2888,-304.3918C216.0679,-294.2244 228.3644,-281.4394 238.8083,-270.5808"/>
<polygon fill="#ff0000" stroke="#ff0000" stroke-width=".17" points="241.6136,-272.7131 246.0231,-263.0795 236.5684,-267.8606 241.6136,-272.7131"/>
</g>
<!-- x5&#45;&gt;484 -->
<g id="edge2" class="edge">
<title>x5&#45;&gt;484</title>
<path fill="none" stroke="#ff0000" stroke-width=".3334" d="M206.9403,-309.9581C209.879,-308.0638 212.9225,-306.1862 215.8597,-304.5132 247.9878,-286.2132 258.9121,-287.1268 290.8597,-268.5132 292.367,-267.635 293.8966,-266.7048 295.4265,-265.7438"/>
<polygon fill="#ff0000" stroke="#ff0000" stroke-width=".3334" points="297.6236,-268.487 304.0354,-260.0526 293.7633,-262.6477 297.6236,-268.487"/>
</g>
<!-- x6 -->
<g id="node7" class="node">
<title>x6</title>
<polygon fill="#d3d3d3" stroke="#000000" points="314.8597,-340.5132 278.8597,-340.5132 278.8597,-304.5132 314.8597,-304.5132 314.8597,-340.5132"/>
<text text-anchor="middle" x="296.8597" y="-319.8132" font-family="Times,serif" font-size="9.00" fill="#000000">x6</text>
</g>
<!-- x6&#45;&gt;477 -->
<g id="edge17" class="edge">
<title>x6&#45;&gt;477</title>
<path fill="none" stroke="#00ff00" stroke-width=".1786" d="M278.8449,-309.0168C275.9479,-307.2907 272.8996,-305.7115 269.8597,-304.5132 178.0915,-268.3416 142.2693,-305.5814 50.8597,-268.5132 49.243,-267.8577 47.6275,-267.1022 46.0316,-266.276"/>
<polygon fill="#00ff00" stroke="#00ff00" stroke-width=".1786" points="47.6041,-263.1371 37.233,-260.971 43.9896,-269.1318 47.6041,-263.1371"/>
</g>
<!-- x6&#45;&gt;478 -->
<g id="edge77" class="edge">
<title>x6&#45;&gt;478</title>
<path fill="none" stroke="#00ff00" stroke-width=".5307" d="M278.7782,-309.1787C275.8905,-307.4303 272.8624,-305.8017 269.8597,-304.5132 203.2752,-275.9424 177.1612,-297.7345 110.8597,-268.5132 109.2633,-267.8097 107.6638,-267.0166 106.0801,-266.1613"/>
<polygon fill="#00ff00" stroke="#00ff00" stroke-width=".5307" points="107.6686,-263.0293 97.3168,-260.773 104.0021,-268.9923 107.6686,-263.0293"/>
</g>
<!-- x6&#45;&gt;479 -->
<g id="edge68" class="edge">
<title>x6&#45;&gt;479</title>
<path fill="none" stroke="#ff0000" stroke-width=".2567" d="M315.0864,-306.2698C327.5905,-295.1263 344.2863,-280.2472 357.7275,-268.2686"/>
<polygon fill="#ff0000" stroke="#ff0000" stroke-width=".2567" points="360.0722,-270.8673 365.2092,-261.6011 355.4149,-265.6414 360.0722,-270.8673"/>
</g>
<!-- x6&#45;&gt;480 -->
<g id="edge63" class="edge">
<title>x6&#45;&gt;480</title>
<path fill="none" stroke="#ff0000" stroke-width=".4126" d="M278.6218,-309.5137C275.7557,-307.719 272.7753,-305.9884 269.8597,-304.5132 228.0833,-283.377 212.4271,-290.0574 170.8597,-268.5132 169.3108,-267.7105 167.7486,-266.8395 166.1936,-265.9242"/>
<polygon fill="#ff0000" stroke="#ff0000" stroke-width=".4126" points="167.8212,-262.8103 157.5127,-260.3638 164.0456,-268.7048 167.8212,-262.8103"/>
</g>
<!-- x6&#45;&gt;481 -->
<g id="edge62" class="edge">
<title>x6&#45;&gt;481</title>
<path fill="none" stroke="#ff0000" stroke-width=".1879" d="M314.8611,-309.8145C317.81,-307.9387 320.8775,-306.1046 323.8597,-304.5132 360.7786,-284.813 374.1353,-288.5739 410.8597,-268.5132 412.3906,-267.6769 413.9389,-266.7796 415.483,-265.844"/>
<polygon fill="#ff0000" stroke="#ff0000" stroke-width=".1879" points="417.6533,-268.6079 424.1329,-260.2255 413.8402,-262.7376 417.6533,-268.6079"/>
</g>
<!-- x6&#45;&gt;484 -->
<g id="edge67" class="edge">
<title>x6&#45;&gt;484</title>
<path fill="none" stroke="#ff0000" stroke-width=".5116" d="M302.6694,-304.3918C305.2775,-296.2568 308.4228,-286.4461 311.3591,-277.2871"/>
<polygon fill="#ff0000" stroke="#ff0000" stroke-width=".5116" points="314.708,-278.3057 314.4281,-267.7146 308.0422,-276.1686 314.708,-278.3057"/>
</g>
<!-- x7 -->
<g id="node8" class="node">
<title>x7</title>
<polygon fill="#d3d3d3" stroke="#000000" points="260.8597,-340.5132 224.8597,-340.5132 224.8597,-304.5132 260.8597,-304.5132 260.8597,-340.5132"/>
<text text-anchor="middle" x="242.8597" y="-319.8132" font-family="Times,serif" font-size="9.00" fill="#000000">x7</text>
</g>
<!-- x7&#45;&gt;477 -->
<g id="edge29" class="edge">
<title>x7&#45;&gt;477</title>
<path fill="none" stroke="#ff0000" stroke-width=".1677" d="M224.7873,-309.1576C221.8983,-307.412 218.8674,-305.7899 215.8597,-304.5132 146.7674,-275.1867 119.6615,-298.5147 50.8597,-268.5132 49.2606,-267.8159 47.6589,-267.0278 46.0735,-266.1762"/>
<polygon fill="#ff0000" stroke="#ff0000" stroke-width=".1677" points="47.6598,-263.0433 37.3054,-260.7989 44.0002,-269.0105 47.6598,-263.0433"/>
</g>
<!-- x7&#45;&gt;478 -->
<g id="edge21" class="edge">
<title>x7&#45;&gt;478</title>
<path fill="none" stroke="#ff0000" stroke-width=".5333" d="M224.6461,-309.4653C221.7765,-307.6773 218.7888,-305.9614 215.8597,-304.5132 171.6358,-282.6494 154.8674,-290.8089 110.8597,-268.5132 109.3035,-267.7248 107.7354,-266.8651 106.1761,-265.9585"/>
<polygon fill="#ff0000" stroke="#ff0000" stroke-width=".5333" points="107.7975,-262.8416 97.4824,-260.423 104.0378,-268.7463 107.7975,-262.8416"/>
</g>
<!-- x7&#45;&gt;480 -->
<g id="edge19" class="edge">
<title>x7&#45;&gt;480</title>
<path fill="none" stroke="#ff0000" stroke-width=".2218" d="M224.6241,-309.1298C208.3735,-297.2032 184.4263,-279.6279 166.2944,-266.3206"/>
<polygon fill="#ff0000" stroke="#ff0000" stroke-width=".2218" points="168.0523,-263.2693 157.9196,-260.1742 163.9105,-268.9126 168.0523,-263.2693"/>
</g>
<!-- x7&#45;&gt;481 -->
<g id="edge15" class="edge">
<title>x7&#45;&gt;481</title>
<path fill="none" stroke="#00ff00" stroke-width=".1386" d="M260.9731,-309.2521C263.8565,-307.4935 266.8748,-305.8426 269.8597,-304.5132 328.9421,-278.2002 352.0376,-295.4034 410.8597,-268.5132 412.4462,-267.7879 414.0381,-266.9778 415.6159,-266.1093"/>
<polygon fill="#00ff00" stroke="#00ff00" stroke-width=".1386" points="417.7097,-268.9292 424.3623,-260.6833 414.0196,-262.9808 417.7097,-268.9292"/>
</g>
<!-- x7&#45;&gt;482 -->
<g id="edge69" class="edge">
<title>x7&#45;&gt;482</title>
<path fill="none" stroke="#00ff00" stroke-width=".1873" d="M232.6926,-304.3918C227.7252,-295.5381 221.6443,-284.6995 216.1331,-274.8765"/>
<polygon fill="#00ff00" stroke="#00ff00" stroke-width=".1873" points="219.0241,-272.8762 211.0786,-265.8676 212.9193,-276.3013 219.0241,-272.8762"/>
</g>
<!-- x7&#45;&gt;483 -->
<g id="edge55" class="edge">
<title>x7&#45;&gt;483</title>
<path fill="none" stroke="#ff0000" stroke-width=".1968" d="M247.2169,-304.3918C249.1371,-296.4062 251.4455,-286.8059 253.6128,-277.7925"/>
<polygon fill="#ff0000" stroke="#ff0000" stroke-width=".1968" points="257.0366,-278.5238 255.9715,-267.9826 250.2306,-276.8873 257.0366,-278.5238"/>
</g>
<!-- x7&#45;&gt;484 -->
<g id="edge76" class="edge">
<title>x7&#45;&gt;484</title>
<path fill="none" stroke="#ff0000" stroke-width=".3434" d="M260.9505,-305.1508C272.0995,-294.4506 286.4852,-280.6441 298.3653,-269.2423"/>
<polygon fill="#ff0000" stroke="#ff0000" stroke-width=".3434" points="300.9598,-271.6034 305.7511,-262.1538 296.1127,-266.553 300.9598,-271.6034"/>
</g>
<!-- y0 -->
<g id="node9" class="node">
<title>y0</title>
<ellipse fill="#add8e6" stroke="#000000" cx="200.8597" cy="-17.6777" rx="17.8571" ry="17.8571"/>
<text text-anchor="middle" x="200.8597" y="-14.9777" font-family="Times,serif" font-size="9.00" fill="#000000">y0</text>
</g>
<!-- 485 -->
<g id="node18" class="node">
<title>485</title>
<ellipse fill="#ffffff" stroke="#000000" cx="200.8597" cy="-169.9343" rx="20.7202" ry="20.7202"/>
<text text-anchor="middle" x="200.8597" y="-167.2343" font-family="Times,serif" font-size="9.00" fill="#000000">485</text>
</g>
<!-- 477&#45;&gt;485 -->
<g id="edge78" class="edge">
<title>477&#45;&gt;485</title>
<path fill="none" stroke="#00ff00" stroke-width=".2217" d="M37.4205,-234.7589C41.6452,-231.8632 46.2889,-228.9991 50.8597,-226.7939 101.0097,-202.5985 120.7096,-214.9894 170.8597,-190.7939 172.4308,-190.0359 174.0107,-189.2 175.5791,-188.3117"/>
<polygon fill="#00ff00" stroke="#00ff00" stroke-width=".2217" points="177.6963,-191.1149 184.2988,-182.829 173.9702,-185.189 177.6963,-191.1149"/>
</g>
<!-- 486 -->
<g id="node19" class="node">
<title>486</title>
<ellipse fill="#ffffff" stroke="#000000" cx="260.8597" cy="-169.9343" rx="20.7202" ry="20.7202"/>
<text text-anchor="middle" x="260.8597" y="-167.2343" font-family="Times,serif" font-size="9.00" fill="#000000">486</text>
</g>
<!-- 477&#45;&gt;486 -->
<g id="edge64" class="edge">
<title>477&#45;&gt;486</title>
<path fill="none" stroke="#ff0000" stroke-width=".509" d="M37.2806,-234.4508C41.5096,-231.5644 46.1903,-228.7818 50.8597,-226.7939 125.9245,-194.8367 155.7948,-222.7512 230.8597,-190.7939 232.4647,-190.1106 234.0712,-189.3334 235.6601,-188.4903"/>
<polygon fill="#ff0000" stroke="#ff0000" stroke-width=".509" points="237.7231,-191.3318 244.4387,-183.1371 234.0786,-185.3553 237.7231,-191.3318"/>
</g>
<!-- 487 -->
<g id="node20" class="node">
<title>487</title>
<ellipse fill="#ffffff" stroke="#000000" cx="140.8597" cy="-169.9343" rx="20.7202" ry="20.7202"/>
<text text-anchor="middle" x="140.8597" y="-167.2343" font-family="Times,serif" font-size="9.00" fill="#000000">487</text>
</g>
<!-- 477&#45;&gt;487 -->
<g id="edge56" class="edge">
<title>477&#45;&gt;487</title>
<path fill="none" stroke="#00ff00" stroke-width=".5702" d="M37.9043,-235.6088C42.1143,-232.6873 46.6301,-229.5985 50.8597,-226.7939 71.8468,-212.8777 95.988,-197.6683 113.9809,-186.4842"/>
<polygon fill="#00ff00" stroke="#00ff00" stroke-width=".5702" points="116.1242,-189.2737 122.7804,-181.0308 112.4366,-183.3237 116.1242,-189.2737"/>
</g>
<!-- 478&#45;&gt;485 -->
<g id="edge49" class="edge">
<title>478&#45;&gt;485</title>
<path fill="none" stroke="#00ff00" stroke-width=".4682" d="M97.8588,-235.5394C102.0703,-232.62 106.5981,-229.5496 110.8597,-226.7939 136.9741,-209.9077 144.7452,-207.6802 170.8597,-190.7939 172.3246,-189.8467 173.8209,-188.8622 175.3251,-187.8595"/>
<polygon fill="#00ff00" stroke="#00ff00" stroke-width=".4682" points="177.5641,-190.5694 183.8605,-182.0485 173.6246,-184.7831 177.5641,-190.5694"/>
</g>
<!-- 478&#45;&gt;486 -->
<g id="edge3" class="edge">
<title>478&#45;&gt;486</title>
<path fill="none" stroke="#00ff00" stroke-width=".3094" d="M97.4205,-234.7589C101.6452,-231.8632 106.2889,-228.9991 110.8597,-226.7939 161.0097,-202.5985 180.7096,-214.9894 230.8597,-190.7939 232.4308,-190.0359 234.0107,-189.2 235.5791,-188.3117"/>
<polygon fill="#00ff00" stroke="#00ff00" stroke-width=".3094" points="237.6963,-191.1149 244.2988,-182.829 233.9702,-185.189 237.6963,-191.1149"/>
</g>
<!-- 478&#45;&gt;487 -->
<g id="edge40" class="edge">
<title>478&#45;&gt;487</title>
<path fill="none" stroke="#ff0000" stroke-width=".2868" d="M93.8788,-230.7897C102.0326,-220.2278 112.6819,-206.4335 121.7796,-194.6491"/>
<polygon fill="#ff0000" stroke="#ff0000" stroke-width=".2868" points="124.7316,-196.5528 128.0721,-186.4983 119.1907,-192.2751 124.7316,-196.5528"/>
</g>
<!-- 488 -->
<g id="node21" class="node">
<title>488</title>
<ellipse fill="#ffffff" stroke="#000000" cx="320.8597" cy="-169.9343" rx="20.7202" ry="20.7202"/>
<text text-anchor="middle" x="320.8597" y="-167.2343" font-family="Times,serif" font-size="9.00" fill="#000000">488</text>
</g>
<!-- 478&#45;&gt;488 -->
<g id="edge22" class="edge">
<title>478&#45;&gt;488</title>
<path fill="none" stroke="#ff0000" stroke-width=".1155" d="M97.2806,-234.4508C101.5096,-231.5644 106.1903,-228.7818 110.8597,-226.7939 185.9245,-194.8367 215.7948,-222.7512 290.8597,-190.7939 292.4647,-190.1106 294.0712,-189.3334 295.6601,-188.4903"/>
<polygon fill="#ff0000" stroke="#ff0000" stroke-width=".1155" points="297.7231,-191.3318 304.4387,-183.1371 294.0786,-185.3553 297.7231,-191.3318"/>
</g>
<!-- 479&#45;&gt;485 -->
<g id="edge34" class="edge">
<title>479&#45;&gt;485</title>
<path fill="none" stroke="#00ff00" stroke-width=".1526" d="M364.2988,-234.7589C360.0741,-231.8632 355.4304,-228.9991 350.8597,-226.7939 300.7096,-202.5985 281.0097,-214.9894 230.8597,-190.7939 229.2885,-190.0359 227.7086,-189.2 226.1402,-188.3117"/>
<polygon fill="#00ff00" stroke="#00ff00" stroke-width=".1526" points="227.7491,-185.189 217.4205,-182.829 224.023,-191.1149 227.7491,-185.189"/>
</g>
<!-- 479&#45;&gt;486 -->
<g id="edge1" class="edge">
<title>479&#45;&gt;486</title>
<path fill="none" stroke="#00ff00" stroke-width=".3191" d="M363.8605,-235.5394C359.649,-232.62 355.1212,-229.5496 350.8597,-226.7939 324.7452,-209.9077 316.9741,-207.6802 290.8597,-190.7939 289.3947,-189.8467 287.8984,-188.8622 286.3942,-187.8595"/>
<polygon fill="#00ff00" stroke="#00ff00" stroke-width=".3191" points="288.0947,-184.7831 277.8588,-182.0485 284.1552,-190.5694 288.0947,-184.7831"/>
</g>
<!-- 479&#45;&gt;487 -->
<g id="edge35" class="edge">
<title>479&#45;&gt;487</title>
<path fill="none" stroke="#00ff00" stroke-width=".4591" d="M364.4387,-234.4508C360.2097,-231.5644 355.529,-228.7818 350.8597,-226.7939 275.7948,-194.8367 245.9245,-222.7512 170.8597,-190.7939 169.2546,-190.1106 167.6481,-189.3334 166.0592,-188.4903"/>
<polygon fill="#00ff00" stroke="#00ff00" stroke-width=".4591" points="167.6407,-185.3553 157.2806,-183.1371 163.9962,-191.3318 167.6407,-185.3553"/>
</g>
<!-- 479&#45;&gt;488 -->
<g id="edge27" class="edge">
<title>479&#45;&gt;488</title>
<path fill="none" stroke="#ff0000" stroke-width=".1384" d="M367.8405,-230.7897C359.6867,-220.2278 349.0374,-206.4335 339.9397,-194.6491"/>
<polygon fill="#ff0000" stroke="#ff0000" stroke-width=".1384" points="342.5286,-192.2751 333.6472,-186.4983 336.9877,-196.5528 342.5286,-192.2751"/>
</g>
<!-- 480&#45;&gt;485 -->
<g id="edge8" class="edge">
<title>480&#45;&gt;485</title>
<path fill="none" stroke="#ff0000" stroke-width=".1482" d="M153.8788,-230.7897C162.0326,-220.2278 172.6819,-206.4335 181.7796,-194.6491"/>
<polygon fill="#ff0000" stroke="#ff0000" stroke-width=".1482" points="184.7316,-196.5528 188.0721,-186.4983 179.1907,-192.2751 184.7316,-196.5528"/>
</g>
<!-- 480&#45;&gt;486 -->
<g id="edge30" class="edge">
<title>480&#45;&gt;486</title>
<path fill="none" stroke="#ff0000" stroke-width=".4537" d="M157.8588,-235.5394C162.0703,-232.62 166.5981,-229.5496 170.8597,-226.7939 196.9741,-209.9077 204.7452,-207.6802 230.8597,-190.7939 232.3246,-189.8467 233.8209,-188.8622 235.3251,-187.8595"/>
<polygon fill="#ff0000" stroke="#ff0000" stroke-width=".4537" points="237.5641,-190.5694 243.8605,-182.0485 233.6246,-184.7831 237.5641,-190.5694"/>
</g>
<!-- 480&#45;&gt;487 -->
<g id="edge46" class="edge">
<title>480&#45;&gt;487</title>
<path fill="none" stroke="#ff0000" stroke-width=".305" d="M140.8597,-226.4164C140.8597,-218.5562 140.8597,-209.4755 140.8597,-200.9253"/>
<polygon fill="#ff0000" stroke="#ff0000" stroke-width=".305" points="144.3597,-200.8766 140.8597,-190.8767 137.3597,-200.8767 144.3597,-200.8766"/>
</g>
<!-- 480&#45;&gt;488 -->
<g id="edge74" class="edge">
<title>480&#45;&gt;488</title>
<path fill="none" stroke="#00ff00" stroke-width=".2493" d="M157.4205,-234.7589C161.6452,-231.8632 166.2889,-228.9991 170.8597,-226.7939 221.0097,-202.5985 240.7096,-214.9894 290.8597,-190.7939 292.4308,-190.0359 294.0107,-189.2 295.5791,-188.3117"/>
<polygon fill="#00ff00" stroke="#00ff00" stroke-width=".2493" points="297.6963,-191.1149 304.2988,-182.829 293.9702,-185.189 297.6963,-191.1149"/>
</g>
<!-- 481&#45;&gt;485 -->
<g id="edge9" class="edge">
<title>481&#45;&gt;485</title>
<path fill="none" stroke="#00ff00" stroke-width=".2637" d="M424.4387,-234.4508C420.2097,-231.5644 415.529,-228.7818 410.8597,-226.7939 335.7948,-194.8367 305.9245,-222.7512 230.8597,-190.7939 229.2546,-190.1106 227.6481,-189.3334 226.0592,-188.4903"/>
<polygon fill="#00ff00" stroke="#00ff00" stroke-width=".2637" points="227.6407,-185.3553 217.2806,-183.1371 223.9962,-191.3318 227.6407,-185.3553"/>
</g>
<!-- 481&#45;&gt;486 -->
<g id="edge45" class="edge">
<title>481&#45;&gt;486</title>
<path fill="none" stroke="#ff0000" stroke-width=".3201" d="M424.2988,-234.7589C420.0741,-231.8632 415.4304,-228.9991 410.8597,-226.7939 360.7096,-202.5985 341.0097,-214.9894 290.8597,-190.7939 289.2885,-190.0359 287.7086,-189.2 286.1402,-188.3117"/>
<polygon fill="#ff0000" stroke="#ff0000" stroke-width=".3201" points="287.7491,-185.189 277.4205,-182.829 284.023,-191.1149 287.7491,-185.189"/>
</g>
<!-- 481&#45;&gt;488 -->
<g id="edge42" class="edge">
<title>481&#45;&gt;488</title>
<path fill="none" stroke="#00ff00" stroke-width=".6206" d="M423.815,-235.6088C419.605,-232.6873 415.0892,-229.5985 410.8597,-226.7939 389.8725,-212.8777 365.7313,-197.6683 347.7384,-186.4842"/>
<polygon fill="#00ff00" stroke="#00ff00" stroke-width=".6206" points="349.2827,-183.3237 338.9389,-181.0308 345.5951,-189.2737 349.2827,-183.3237"/>
</g>
<!-- 482&#45;&gt;485 -->
<g id="edge38" class="edge">
<title>482&#45;&gt;485</title>
<path fill="none" stroke="#00ff00" stroke-width=".2195" d="M200.8597,-226.4164C200.8597,-218.5562 200.8597,-209.4755 200.8597,-200.9253"/>
<polygon fill="#00ff00" stroke="#00ff00" stroke-width=".2195" points="204.3597,-200.8766 200.8597,-190.8767 197.3597,-200.8767 204.3597,-200.8766"/>
</g>
<!-- 482&#45;&gt;488 -->
<g id="edge20" class="edge">
<title>482&#45;&gt;488</title>
<path fill="none" stroke="#00ff00" stroke-width=".1796" d="M217.8588,-235.5394C222.0703,-232.62 226.5981,-229.5496 230.8597,-226.7939 256.9741,-209.9077 264.7452,-207.6802 290.8597,-190.7939 292.3246,-189.8467 293.8209,-188.8622 295.3251,-187.8595"/>
<polygon fill="#00ff00" stroke="#00ff00" stroke-width=".1796" points="297.5641,-190.5694 303.8605,-182.0485 293.6246,-184.7831 297.5641,-190.5694"/>
</g>
<!-- 483&#45;&gt;485 -->
<g id="edge41" class="edge">
<title>483&#45;&gt;485</title>
<path fill="none" stroke="#ff0000" stroke-width=".4202" d="M247.8405,-230.7897C239.6867,-220.2278 229.0374,-206.4335 219.9397,-194.6491"/>
<polygon fill="#ff0000" stroke="#ff0000" stroke-width=".4202" points="222.5286,-192.2751 213.6472,-186.4983 216.9877,-196.5528 222.5286,-192.2751"/>
</g>
<!-- 483&#45;&gt;486 -->
<g id="edge6" class="edge">
<title>483&#45;&gt;486</title>
<path fill="none" stroke="#00ff00" stroke-width=".1915" d="M260.8597,-226.4164C260.8597,-218.5562 260.8597,-209.4755 260.8597,-200.9253"/>
<polygon fill="#00ff00" stroke="#00ff00" stroke-width=".1915" points="264.3597,-200.8766 260.8597,-190.8767 257.3597,-200.8767 264.3597,-200.8766"/>
</g>
<!-- 483&#45;&gt;487 -->
<g id="edge75" class="edge">
<title>483&#45;&gt;487</title>
<path fill="none" stroke="#ff0000" stroke-width=".2189" d="M243.8605,-235.5394C239.649,-232.62 235.1212,-229.5496 230.8597,-226.7939 204.7452,-209.9077 196.9741,-207.6802 170.8597,-190.7939 169.3947,-189.8467 167.8984,-188.8622 166.3942,-187.8595"/>
<polygon fill="#ff0000" stroke="#ff0000" stroke-width=".2189" points="168.0947,-184.7831 157.8588,-182.0485 164.1552,-190.5694 168.0947,-184.7831"/>
</g>
<!-- 483&#45;&gt;488 -->
<g id="edge11" class="edge">
<title>483&#45;&gt;488</title>
<path fill="none" stroke="#00ff00" stroke-width=".2953" d="M273.8788,-230.7897C282.0326,-220.2278 292.6819,-206.4335 301.7796,-194.6491"/>
<polygon fill="#00ff00" stroke="#00ff00" stroke-width=".2953" points="304.7316,-196.5528 308.0721,-186.4983 299.1907,-192.2751 304.7316,-196.5528"/>
</g>
<!-- 484&#45;&gt;485 -->
<g id="edge53" class="edge">
<title>484&#45;&gt;485</title>
<path fill="none" stroke="#00ff00" stroke-width=".3648" d="M303.8605,-235.5394C299.649,-232.62 295.1212,-229.5496 290.8597,-226.7939 264.7452,-209.9077 256.9741,-207.6802 230.8597,-190.7939 229.3947,-189.8467 227.8984,-188.8622 226.3942,-187.8595"/>
<polygon fill="#00ff00" stroke="#00ff00" stroke-width=".3648" points="228.0947,-184.7831 217.8588,-182.0485 224.1552,-190.5694 228.0947,-184.7831"/>
</g>
<!-- 484&#45;&gt;486 -->
<g id="edge70" class="edge">
<title>484&#45;&gt;486</title>
<path fill="none" stroke="#ff0000" stroke-width=".1343" d="M307.8405,-230.7897C299.6867,-220.2278 289.0374,-206.4335 279.9397,-194.6491"/>
<polygon fill="#ff0000" stroke="#ff0000" stroke-width=".1343" points="282.5286,-192.2751 273.6472,-186.4983 276.9877,-196.5528 282.5286,-192.2751"/>
</g>
<!-- 484&#45;&gt;488 -->
<g id="edge80" class="edge">
<title>484&#45;&gt;488</title>
<path fill="none" stroke="#ff0000" stroke-width=".2205" d="M320.8597,-226.4164C320.8597,-218.5562 320.8597,-209.4755 320.8597,-200.9253"/>
<polygon fill="#ff0000" stroke="#ff0000" stroke-width=".2205" points="324.3597,-200.8766 320.8597,-190.8767 317.3597,-200.8767 324.3597,-200.8766"/>
</g>
<!-- 489 -->
<g id="node22" class="node">
<title>489</title>
<ellipse fill="#ffffff" stroke="#000000" cx="230.8597" cy="-92.215" rx="20.7202" ry="20.7202"/>
<text text-anchor="middle" x="230.8597" y="-89.515" font-family="Times,serif" font-size="9.00" fill="#000000">489</text>
</g>
<!-- 485&#45;&gt;489 -->
<g id="edge82" class="edge">
<title>485&#45;&gt;489</title>
<path fill="none" stroke="#00ff00" stroke-width=".8493" d="M208.4299,-150.3224C211.8052,-141.5782 215.852,-131.0945 219.5733,-121.4538"/>
<polygon fill="#00ff00" stroke="#00ff00" stroke-width=".8493" points="222.9559,-122.4101 223.2918,-111.8206 216.4255,-119.8893 222.9559,-122.4101"/>
</g>
<!-- 490 -->
<g id="node23" class="node">
<title>490</title>
<ellipse fill="#ffffff" stroke="#000000" cx="170.8597" cy="-92.215" rx="20.7202" ry="20.7202"/>
<text text-anchor="middle" x="170.8597" y="-89.515" font-family="Times,serif" font-size="9.00" fill="#000000">490</text>
</g>
<!-- 485&#45;&gt;490 -->
<g id="edge7" class="edge">
<title>485&#45;&gt;490</title>
<path fill="none" stroke="#00ff00" stroke-width=".3035" d="M193.2894,-150.3224C189.9141,-141.5782 185.8673,-131.0945 182.146,-121.4538"/>
<polygon fill="#00ff00" stroke="#00ff00" stroke-width=".3035" points="185.2938,-119.8893 178.4275,-111.8206 178.7634,-122.4101 185.2938,-119.8893"/>
</g>
<!-- 486&#45;&gt;490 -->
<g id="edge66" class="edge">
<title>486&#45;&gt;490</title>
<path fill="none" stroke="#ff0000" stroke-width=".1094" d="M244.7695,-156.0396C230.8194,-143.9931 210.4414,-126.3957 194.6142,-112.7282"/>
<polygon fill="#ff0000" stroke="#ff0000" stroke-width=".1094" points="196.6667,-109.8762 186.8105,-105.9893 192.0916,-115.1742 196.6667,-109.8762"/>
</g>
<!-- 487&#45;&gt;489 -->
<g id="edge36" class="edge">
<title>487&#45;&gt;489</title>
<path fill="none" stroke="#ff0000" stroke-width=".3023" d="M156.9498,-156.0396C170.8999,-143.9931 191.2779,-126.3957 207.1051,-112.7282"/>
<polygon fill="#ff0000" stroke="#ff0000" stroke-width=".3023" points="209.6277,-115.1742 214.9088,-105.9893 205.0526,-109.8762 209.6277,-115.1742"/>
</g>
<!-- 487&#45;&gt;490 -->
<g id="edge57" class="edge">
<title>487&#45;&gt;490</title>
<path fill="none" stroke="#ff0000" stroke-width=".3948" d="M148.4299,-150.3224C151.8052,-141.5782 155.852,-131.0945 159.5733,-121.4538"/>
<polygon fill="#ff0000" stroke="#ff0000" stroke-width=".3948" points="162.9559,-122.4101 163.2918,-111.8206 156.4255,-119.8893 162.9559,-122.4101"/>
</g>
<!-- 488&#45;&gt;489 -->
<g id="edge81" class="edge">
<title>488&#45;&gt;489</title>
<path fill="none" stroke="#00ff00" stroke-width=".1149" d="M304.7695,-156.0396C290.8194,-143.9931 270.4414,-126.3957 254.6142,-112.7282"/>
<polygon fill="#00ff00" stroke="#00ff00" stroke-width=".1149" points="256.6667,-109.8762 246.8105,-105.9893 252.0916,-115.1742 256.6667,-109.8762"/>
</g>
<!-- 489&#45;&gt;y0 -->
<g id="edge33" class="edge">
<title>489&#45;&gt;y0</title>
<path fill="none" stroke="#ff0000" stroke-width=".4191" d="M222.9775,-72.6312C219.4214,-63.7956 215.1704,-53.2337 211.3497,-43.7411"/>
<polygon fill="#ff0000" stroke="#ff0000" stroke-width=".4191" points="214.5519,-42.3231 207.5712,-34.3531 208.0582,-44.9367 214.5519,-42.3231"/>
</g>
<!-- 490&#45;&gt;y0 -->
<g id="edge71" class="edge">
<title>490&#45;&gt;y0</title>
<path fill="none" stroke="#ff0000" stroke-width=".2" d="M178.7418,-72.6312C182.2979,-63.7956 186.5489,-53.2337 190.3696,-43.7411"/>
<polygon fill="#ff0000" stroke="#ff0000" stroke-width=".2" points="193.6611,-44.9367 194.1481,-34.3531 187.1674,-42.3231 193.6611,-44.9367"/>
</g>
</g>
</svg>
