<?xml version="1.0" encoding="UTF-8" standalone="no"?>
<!DOCTYPE svg PUBLIC "-//W3C//DTD SVG 1.1//EN"
 "http://www.w3.org/Graphics/SVG/1.1/DTD/svg11.dtd">
<!-- Generated by graphviz version 2.40.1 (20161225.0304)
 -->
<!-- Title: %3 Pages: 1 -->
<svg width="464pt" height="348pt"
 viewBox="0.00 0.00 463.72 348.05" xmlns="http://www.w3.org/2000/svg" xmlns:xlink="http://www.w3.org/1999/xlink">
<g id="graph0" class="graph" transform="scale(1 1) rotate(0) translate(4 344.0471)">
<title>%3</title>
<polygon fill="#ffffff" stroke="transparent" points="-4,4 -4,-344.0471 459.7193,-344.0471 459.7193,4 -4,4"/>
<!-- x0 -->
<g id="node1" class="node">
<title>x0</title>
<polygon fill="#d3d3d3" stroke="#000000" points="177.8597,-340.0471 141.8597,-340.0471 141.8597,-304.0471 177.8597,-304.0471 177.8597,-340.0471"/>
<text text-anchor="middle" x="159.8597" y="-319.3471" font-family="Times,serif" font-size="9.00" fill="#000000">x0</text>
</g>
<!-- 99 -->
<g id="node10" class="node">
<title>99</title>
<ellipse fill="#ffffff" stroke="#000000" cx="377.8597" cy="-247.1875" rx="17.8571" ry="17.8571"/>
<text text-anchor="middle" x="377.8597" y="-244.4875" font-family="Times,serif" font-size="9.00" fill="#000000">99</text>
</g>
<!-- x0&#45;&gt;99 -->
<g id="edge45" class="edge">
<title>x0&#45;&gt;99</title>
<path fill="none" stroke="#ff0000" stroke-width=".7354" d="M177.9335,-308.6949C180.8223,-306.9489 183.8527,-305.3257 186.8597,-304.0471 255.5337,-274.8466 283.2462,-299.6259 350.8597,-268.0471 352.671,-267.2011 354.474,-266.2157 356.2395,-265.1422"/>
<polygon fill="#ff0000" stroke="#ff0000" stroke-width=".7354" points="358.4308,-267.8806 364.6175,-259.2797 354.4176,-262.1453 358.4308,-267.8806"/>
</g>
<!-- 101 -->
<g id="node12" class="node">
<title>101</title>
<ellipse fill="#ffffff" stroke="#000000" cx="260.8597" cy="-247.1875" rx="20.7202" ry="20.7202"/>
<text text-anchor="middle" x="260.8597" y="-244.4875" font-family="Times,serif" font-size="9.00" fill="#000000">101</text>
</g>
<!-- x0&#45;&gt;101 -->
<g id="edge82" class="edge">
<title>x0&#45;&gt;101</title>
<path fill="none" stroke="#ff0000" stroke-width=".6156" d="M177.9164,-308.6637C194.0077,-296.7371 217.7201,-279.1618 235.6743,-265.8545"/>
<polygon fill="#ff0000" stroke="#ff0000" stroke-width=".6156" points="238.0172,-268.4746 243.967,-259.7081 233.849,-262.8508 238.0172,-268.4746"/>
</g>
<!-- 104 -->
<g id="node15" class="node">
<title>104</title>
<ellipse fill="#ffffff" stroke="#000000" cx="140.8597" cy="-247.1875" rx="20.7202" ry="20.7202"/>
<text text-anchor="middle" x="140.8597" y="-244.4875" font-family="Times,serif" font-size="9.00" fill="#000000">104</text>
</g>
<!-- x0&#45;&gt;104 -->
<g id="edge75" class="edge">
<title>x0&#45;&gt;104</title>
<path fill="none" stroke="#ff0000" stroke-width=".3293" d="M155.2603,-303.9257C153.2335,-295.9401 150.7968,-286.3398 148.5091,-277.3264"/>
<polygon fill="#ff0000" stroke="#ff0000" stroke-width=".3293" points="151.8719,-276.3482 146.0193,-267.5165 145.0871,-278.0703 151.8719,-276.3482"/>
</g>
<!-- 105 -->
<g id="node16" class="node">
<title>105</title>
<ellipse fill="#ffffff" stroke="#000000" cx="200.8597" cy="-247.1875" rx="20.7202" ry="20.7202"/>
<text text-anchor="middle" x="200.8597" y="-244.4875" font-family="Times,serif" font-size="9.00" fill="#000000">105</text>
</g>
<!-- x0&#45;&gt;105 -->
<g id="edge68" class="edge">
<title>x0&#45;&gt;105</title>
<path fill="none" stroke="#ff0000" stroke-width=".2369" d="M169.7846,-303.9257C174.5978,-295.1376 180.482,-284.3939 185.8303,-274.6288"/>
<polygon fill="#ff0000" stroke="#ff0000" stroke-width=".2369" points="189.0073,-276.1141 190.7413,-265.6621 182.8678,-272.7515 189.0073,-276.1141"/>
</g>
<!-- 106 -->
<g id="node17" class="node">
<title>106</title>
<ellipse fill="#ffffff" stroke="#000000" cx="80.8597" cy="-247.1875" rx="20.7202" ry="20.7202"/>
<text text-anchor="middle" x="80.8597" y="-244.4875" font-family="Times,serif" font-size="9.00" fill="#000000">106</text>
</g>
<!-- x0&#45;&gt;106 -->
<g id="edge50" class="edge">
<title>x0&#45;&gt;106</title>
<path fill="none" stroke="#ff0000" stroke-width=".1923" d="M141.5369,-304.6847C130.2449,-293.9845 115.6748,-280.178 103.6424,-268.7762"/>
<polygon fill="#ff0000" stroke="#ff0000" stroke-width=".1923" points="105.828,-266.0255 96.1619,-261.6877 101.0132,-271.1066 105.828,-266.0255"/>
</g>
<!-- x1 -->
<g id="node2" class="node">
<title>x1</title>
<polygon fill="#d3d3d3" stroke="#000000" points="393.8597,-340.0471 357.8597,-340.0471 357.8597,-304.0471 393.8597,-304.0471 393.8597,-340.0471"/>
<text text-anchor="middle" x="375.8597" y="-319.3471" font-family="Times,serif" font-size="9.00" fill="#000000">x1</text>
</g>
<!-- x1&#45;&gt;99 -->
<g id="edge20" class="edge">
<title>x1&#45;&gt;99</title>
<path fill="none" stroke="#ff0000" stroke-width=".7817" d="M376.3438,-303.9257C376.5764,-295.2187 376.8603,-284.5921 377.1193,-274.8995"/>
<polygon fill="#ff0000" stroke="#ff0000" stroke-width=".7817" points="380.6184,-274.9737 377.3869,-264.8837 373.6209,-274.7866 380.6184,-274.9737"/>
</g>
<!-- x1&#45;&gt;101 -->
<g id="edge61" class="edge">
<title>x1&#45;&gt;101</title>
<path fill="none" stroke="#00ff00" stroke-width=".6348" d="M357.6127,-309.7664C354.6955,-307.8366 351.7023,-305.8762 348.8597,-304.0471 323.3453,-287.6303 316.212,-284.713 290.8597,-268.0471 289.4019,-267.0889 287.9112,-266.0958 286.4114,-265.0864"/>
<polygon fill="#00ff00" stroke="#00ff00" stroke-width=".6348" points="288.1183,-262.0135 277.8885,-259.2562 284.166,-267.791 288.1183,-262.0135"/>
</g>
<!-- 103 -->
<g id="node14" class="node">
<title>103</title>
<ellipse fill="#ffffff" stroke="#000000" cx="434.8597" cy="-247.1875" rx="20.7202" ry="20.7202"/>
<text text-anchor="middle" x="434.8597" y="-244.4875" font-family="Times,serif" font-size="9.00" fill="#000000">103</text>
</g>
<!-- x1&#45;&gt;103 -->
<g id="edge19" class="edge">
<title>x1&#45;&gt;103</title>
<path fill="none" stroke="#00ff00" stroke-width=".3452" d="M390.1419,-303.9257C397.7844,-294.2289 407.3033,-282.1512 415.5921,-271.6343"/>
<polygon fill="#00ff00" stroke="#00ff00" stroke-width=".3452" points="418.4753,-273.6304 421.9164,-263.61 412.9775,-269.2974 418.4753,-273.6304"/>
</g>
<!-- x1&#45;&gt;104 -->
<g id="edge41" class="edge">
<title>x1&#45;&gt;104</title>
<path fill="none" stroke="#ff0000" stroke-width=".677" d="M357.8046,-308.6502C354.9132,-306.9104 351.8771,-305.3008 348.8597,-304.0471 274.3241,-273.0791 245.0885,-299.7432 170.8597,-268.0471 169.2553,-267.3621 167.6494,-266.5835 166.0609,-265.7393"/>
<polygon fill="#ff0000" stroke="#ff0000" stroke-width=".677" points="167.643,-262.6046 157.2837,-260.3832 163.9966,-268.5799 167.643,-262.6046"/>
</g>
<!-- x1&#45;&gt;105 -->
<g id="edge53" class="edge">
<title>x1&#45;&gt;105</title>
<path fill="none" stroke="#00ff00" stroke-width=".1926" d="M357.6897,-308.9089C354.8142,-307.1334 351.8131,-305.445 348.8597,-304.0471 299.2996,-280.5904 280.1878,-291.9878 230.8597,-268.0471 229.2902,-267.2854 227.7118,-266.4467 226.1444,-265.5562"/>
<polygon fill="#00ff00" stroke="#00ff00" stroke-width=".1926" points="227.7548,-262.4342 217.4278,-260.0671 224.0247,-268.3575 227.7548,-262.4342"/>
</g>
<!-- x2 -->
<g id="node3" class="node">
<title>x2</title>
<polygon fill="#d3d3d3" stroke="#000000" points="285.8597,-340.0471 249.8597,-340.0471 249.8597,-304.0471 285.8597,-304.0471 285.8597,-340.0471"/>
<text text-anchor="middle" x="267.8597" y="-319.3471" font-family="Times,serif" font-size="9.00" fill="#000000">x2</text>
</g>
<!-- x2&#45;&gt;99 -->
<g id="edge77" class="edge">
<title>x2&#45;&gt;99</title>
<path fill="none" stroke="#ff0000" stroke-width=".7677" d="M286.1322,-309.8059C289.0461,-307.871 292.0316,-305.8986 294.8597,-304.0471 319.6144,-287.8403 326.6855,-285.1078 350.8597,-268.0471 352.493,-266.8944 354.165,-265.683 355.837,-264.4486"/>
<polygon fill="#ff0000" stroke="#ff0000" stroke-width=".7677" points="358.163,-267.0774 364.0188,-258.2479 353.935,-261.4985 358.163,-267.0774"/>
</g>
<!-- 100 -->
<g id="node11" class="node">
<title>100</title>
<ellipse fill="#ffffff" stroke="#000000" cx="320.8597" cy="-247.1875" rx="20.7202" ry="20.7202"/>
<text text-anchor="middle" x="320.8597" y="-244.4875" font-family="Times,serif" font-size="9.00" fill="#000000">100</text>
</g>
<!-- x2&#45;&gt;100 -->
<g id="edge62" class="edge">
<title>x2&#45;&gt;100</title>
<path fill="none" stroke="#00ff00" stroke-width=".2745" d="M280.6895,-303.9257C287.3432,-294.5277 295.5802,-282.8933 302.86,-272.611"/>
<polygon fill="#00ff00" stroke="#00ff00" stroke-width=".2745" points="305.7723,-274.5546 308.6941,-264.3706 300.0592,-270.5098 305.7723,-274.5546"/>
</g>
<!-- x2&#45;&gt;101 -->
<g id="edge55" class="edge">
<title>x2&#45;&gt;101</title>
<path fill="none" stroke="#ff0000" stroke-width=".617" d="M266.1651,-303.9257C265.4381,-296.1504 264.5679,-286.8443 263.7446,-278.0396"/>
<polygon fill="#ff0000" stroke="#ff0000" stroke-width=".617" points="267.2269,-277.6863 262.811,-268.0556 260.2573,-278.3381 267.2269,-277.6863"/>
</g>
<!-- 102 -->
<g id="node13" class="node">
<title>102</title>
<ellipse fill="#ffffff" stroke="#000000" cx="20.8597" cy="-247.1875" rx="20.7202" ry="20.7202"/>
<text text-anchor="middle" x="20.8597" y="-244.4875" font-family="Times,serif" font-size="9.00" fill="#000000">102</text>
</g>
<!-- x2&#45;&gt;102 -->
<g id="edge37" class="edge">
<title>x2&#45;&gt;102</title>
<path fill="none" stroke="#ff0000" stroke-width=".6062" d="M249.8183,-308.6169C246.925,-306.8816 243.8848,-305.2822 240.8597,-304.0471 161.2893,-271.5598 130.1082,-301.3118 50.8597,-268.0471 49.2511,-267.3719 47.642,-266.6011 46.0509,-265.763"/>
<polygon fill="#ff0000" stroke="#ff0000" stroke-width=".6062" points="47.6297,-262.6268 37.2664,-260.4239 43.9941,-268.6086 47.6297,-262.6268"/>
</g>
<!-- x2&#45;&gt;103 -->
<g id="edge36" class="edge">
<title>x2&#45;&gt;103</title>
<path fill="none" stroke="#ff0000" stroke-width=".5189" d="M286.0552,-308.9623C288.9272,-307.1794 291.9205,-305.4747 294.8597,-304.0471 341.131,-281.573 358.8105,-290.9731 404.8597,-268.0471 406.4213,-267.2696 407.9936,-266.4185 409.5563,-265.5185"/>
<polygon fill="#ff0000" stroke="#ff0000" stroke-width=".5189" points="411.6871,-268.3118 418.2595,-260.0019 407.9395,-262.3994 411.6871,-268.3118"/>
</g>
<!-- x2&#45;&gt;104 -->
<g id="edge76" class="edge">
<title>x2&#45;&gt;104</title>
<path fill="none" stroke="#ff0000" stroke-width=".1054" d="M249.7381,-309.5627C246.8047,-307.6592 243.7735,-305.7603 240.8597,-304.0471 210.7016,-286.3159 200.8427,-286.0727 170.8597,-268.0471 169.3645,-267.1483 167.8445,-266.2018 166.322,-265.2284"/>
<polygon fill="#ff0000" stroke="#ff0000" stroke-width=".1054" points="167.9959,-262.1378 157.7343,-259.5013 164.1121,-267.9615 167.9959,-262.1378"/>
</g>
<!-- x2&#45;&gt;106 -->
<g id="edge2" class="edge">
<title>x2&#45;&gt;106</title>
<path fill="none" stroke="#00ff00" stroke-width=".178" d="M249.7218,-308.8399C246.8418,-307.0739 243.831,-305.4065 240.8597,-304.0471 186.3421,-279.105 165.1305,-293.5216 110.8597,-268.0471 109.2805,-267.3059 107.6944,-266.4832 106.1211,-265.605"/>
<polygon fill="#00ff00" stroke="#00ff00" stroke-width=".178" points="107.7235,-262.4793 97.3875,-260.1514 104.0158,-268.4168 107.7235,-262.4793"/>
</g>
<!-- x3 -->
<g id="node4" class="node">
<title>x3</title>
<polygon fill="#d3d3d3" stroke="#000000" points="447.8597,-340.0471 411.8597,-340.0471 411.8597,-304.0471 447.8597,-304.0471 447.8597,-340.0471"/>
<text text-anchor="middle" x="429.8597" y="-319.3471" font-family="Times,serif" font-size="9.00" fill="#000000">x3</text>
</g>
<!-- x3&#45;&gt;99 -->
<g id="edge80" class="edge">
<title>x3&#45;&gt;99</title>
<path fill="none" stroke="#00ff00" stroke-width=".7941" d="M417.2719,-303.9257C410.3211,-293.9192 401.6091,-281.3774 394.1448,-270.6317"/>
<polygon fill="#00ff00" stroke="#00ff00" stroke-width=".7941" points="396.8139,-268.3391 388.2343,-262.1229 391.0648,-272.3326 396.8139,-268.3391"/>
</g>
<!-- x3&#45;&gt;100 -->
<g id="edge35" class="edge">
<title>x3&#45;&gt;100</title>
<path fill="none" stroke="#00ff00" stroke-width=".8629" d="M411.6324,-309.6485C395.6023,-298.7299 371.6498,-282.3802 350.8597,-268.0471 349.4234,-267.057 347.9495,-266.0388 346.4627,-265.0101"/>
<polygon fill="#00ff00" stroke="#00ff00" stroke-width=".8629" points="348.1888,-261.9479 337.9771,-259.1246 344.1994,-267.6998 348.1888,-261.9479"/>
</g>
<!-- x3&#45;&gt;101 -->
<g id="edge40" class="edge">
<title>x3&#45;&gt;101</title>
<path fill="none" stroke="#ff0000" stroke-width=".9" d="M411.6709,-308.9483C408.7979,-307.1673 405.8026,-305.4669 402.8597,-304.0471 355.7675,-281.328 337.7272,-291.2261 290.8597,-268.0471 289.2959,-267.2738 287.722,-266.4259 286.1581,-265.5283"/>
<polygon fill="#ff0000" stroke="#ff0000" stroke-width=".9" points="287.7732,-262.4085 277.4513,-260.019 284.0302,-268.3238 287.7732,-262.4085"/>
</g>
<!-- x3&#45;&gt;103 -->
<g id="edge39" class="edge">
<title>x3&#45;&gt;103</title>
<path fill="none" stroke="#00ff00" stroke-width=".1919" d="M431.07,-303.9257C431.5893,-296.1504 432.2109,-286.8443 432.799,-278.0396"/>
<polygon fill="#00ff00" stroke="#00ff00" stroke-width=".1919" points="436.2915,-278.2667 433.4658,-268.0556 429.3071,-277.8001 436.2915,-278.2667"/>
</g>
<!-- x3&#45;&gt;105 -->
<g id="edge56" class="edge">
<title>x3&#45;&gt;105</title>
<path fill="none" stroke="#ff0000" stroke-width=".1968" d="M411.797,-308.6685C408.9066,-306.9262 405.8728,-305.311 402.8597,-304.0471 330.838,-273.8374 302.5822,-298.9604 230.8597,-268.0471 229.2576,-267.3566 227.6536,-266.5738 226.0665,-265.7264"/>
<polygon fill="#ff0000" stroke="#ff0000" stroke-width=".1968" points="227.6504,-262.5924 217.2933,-260.3608 223.9982,-268.5642 227.6504,-262.5924"/>
</g>
<!-- x4 -->
<g id="node5" class="node">
<title>x4</title>
<polygon fill="#d3d3d3" stroke="#000000" points="339.8597,-340.0471 303.8597,-340.0471 303.8597,-304.0471 339.8597,-304.0471 339.8597,-340.0471"/>
<text text-anchor="middle" x="321.8597" y="-319.3471" font-family="Times,serif" font-size="9.00" fill="#000000">x4</text>
</g>
<!-- x4&#45;&gt;99 -->
<g id="edge58" class="edge">
<title>x4&#45;&gt;99</title>
<path fill="none" stroke="#00ff00" stroke-width=".1523" d="M335.4157,-303.9257C343.0782,-293.6826 352.7282,-280.7827 360.8898,-269.8724"/>
<polygon fill="#00ff00" stroke="#00ff00" stroke-width=".1523" points="363.8623,-271.7418 367.0498,-261.6378 358.2571,-267.5487 363.8623,-271.7418"/>
</g>
<!-- x4&#45;&gt;100 -->
<g id="edge73" class="edge">
<title>x4&#45;&gt;100</title>
<path fill="none" stroke="#ff0000" stroke-width=".1335" d="M321.6176,-303.9257C321.5148,-296.2349 321.3921,-287.0464 321.2756,-278.3268"/>
<polygon fill="#ff0000" stroke="#ff0000" stroke-width=".1335" points="324.7718,-278.0079 321.1384,-268.0556 317.7724,-278.1015 324.7718,-278.0079"/>
</g>
<!-- x4&#45;&gt;103 -->
<g id="edge7" class="edge">
<title>x4&#45;&gt;103</title>
<path fill="none" stroke="#ff0000" stroke-width=".3828" d="M340.1322,-309.8059C343.0461,-307.871 346.0316,-305.8986 348.8597,-304.0471 373.6144,-287.8403 380.2648,-284.4955 404.8597,-268.0471 406.3098,-267.0773 407.7945,-266.0752 409.2897,-265.0588"/>
<polygon fill="#ff0000" stroke="#ff0000" stroke-width=".3828" points="411.5416,-267.7581 417.7993,-259.2087 407.576,-261.9897 411.5416,-267.7581"/>
</g>
<!-- x4&#45;&gt;104 -->
<g id="edge16" class="edge">
<title>x4&#45;&gt;104</title>
<path fill="none" stroke="#ff0000" stroke-width=".1165" d="M303.7066,-308.8729C300.8287,-307.1024 297.8225,-305.4249 294.8597,-304.0471 242.8241,-279.8493 222.6558,-292.7532 170.8597,-268.0471 169.2851,-267.2961 167.7026,-266.4657 166.1322,-265.5817"/>
<polygon fill="#ff0000" stroke="#ff0000" stroke-width=".1165" points="167.7383,-262.4577 157.4066,-260.111 164.0199,-268.3884 167.7383,-262.4577"/>
</g>
<!-- x4&#45;&gt;105 -->
<g id="edge27" class="edge">
<title>x4&#45;&gt;105</title>
<path fill="none" stroke="#00ff00" stroke-width=".9" d="M303.6809,-309.6579C300.7549,-307.7422 297.741,-305.8145 294.8597,-304.0471 267.0403,-286.9834 258.5107,-285.3823 230.8597,-268.0471 229.3816,-267.1205 227.8749,-266.1522 226.3628,-265.162"/>
<polygon fill="#00ff00" stroke="#00ff00" stroke-width=".9" points="228.0517,-262.0793 217.8047,-259.3867 224.136,-267.8817 228.0517,-262.0793"/>
</g>
<!-- x4&#45;&gt;106 -->
<g id="edge64" class="edge">
<title>x4&#45;&gt;106</title>
<path fill="none" stroke="#00ff00" stroke-width=".4858" d="M303.8117,-308.633C300.9193,-306.8956 297.8811,-305.2912 294.8597,-304.0471 217.8078,-272.3199 187.5973,-300.527 110.8597,-268.0471 109.2531,-267.3672 107.6456,-266.5926 106.0557,-265.7515"/>
<polygon fill="#00ff00" stroke="#00ff00" stroke-width=".4858" points="107.6361,-262.616 97.2747,-260.4042 103.9953,-268.5947 107.6361,-262.616"/>
</g>
<!-- x5 -->
<g id="node6" class="node">
<title>x5</title>
<polygon fill="#d3d3d3" stroke="#000000" points="123.8597,-340.0471 87.8597,-340.0471 87.8597,-304.0471 123.8597,-304.0471 123.8597,-340.0471"/>
<text text-anchor="middle" x="105.8597" y="-319.3471" font-family="Times,serif" font-size="9.00" fill="#000000">x5</text>
</g>
<!-- x5&#45;&gt;99 -->
<g id="edge25" class="edge">
<title>x5&#45;&gt;99</title>
<path fill="none" stroke="#ff0000" stroke-width=".467" d="M123.8752,-308.5527C126.7721,-306.8263 129.8202,-305.2465 132.8597,-304.0471 224.2066,-268.0028 260.8259,-307.2566 350.8597,-268.0471 352.6926,-267.2489 354.5115,-266.2986 356.2882,-265.2502"/>
<polygon fill="#ff0000" stroke="#ff0000" stroke-width=".467" points="358.4556,-268.0067 364.69,-259.4403 354.4743,-262.2492 358.4556,-268.0067"/>
</g>
<!-- x5&#45;&gt;100 -->
<g id="edge65" class="edge">
<title>x5&#45;&gt;100</title>
<path fill="none" stroke="#ff0000" stroke-width=".3289" d="M123.9426,-308.7163C126.8302,-306.9673 129.8578,-305.3376 132.8597,-304.0471 199.0264,-275.6021 224.9745,-297.1385 290.8597,-268.0471 292.4555,-267.3425 294.0547,-266.5485 295.6381,-265.6926"/>
<polygon fill="#ff0000" stroke="#ff0000" stroke-width=".3289" points="297.7168,-268.523 304.4006,-260.3024 294.0492,-262.5608 297.7168,-268.523"/>
</g>
<!-- x5&#45;&gt;101 -->
<g id="edge30" class="edge">
<title>x5&#45;&gt;101</title>
<path fill="none" stroke="#ff0000" stroke-width=".179" d="M124.1018,-309.0561C126.9674,-307.2603 129.9465,-305.527 132.8597,-304.0471 174.2291,-283.0316 189.6978,-289.4666 230.8597,-268.0471 232.4072,-267.2418 233.9684,-266.3689 235.5225,-265.452"/>
<polygon fill="#ff0000" stroke="#ff0000" stroke-width=".179" points="237.6722,-268.2314 244.2012,-259.8873 233.8938,-262.3387 237.6722,-268.2314"/>
</g>
<!-- x5&#45;&gt;102 -->
<g id="edge48" class="edge">
<title>x5&#45;&gt;102</title>
<path fill="none" stroke="#ff0000" stroke-width=".1027" d="M87.8333,-306.1713C75.1233,-294.9776 57.9834,-279.8824 44.2249,-267.7653"/>
<polygon fill="#ff0000" stroke="#ff0000" stroke-width=".1027" points="46.3916,-265.0097 36.5738,-261.027 41.7651,-270.2628 46.3916,-265.0097"/>
</g>
<!-- x5&#45;&gt;104 -->
<g id="edge57" class="edge">
<title>x5&#45;&gt;104</title>
<path fill="none" stroke="#ff0000" stroke-width=".1745" d="M114.3322,-303.9257C118.3379,-295.358 123.2127,-284.9316 127.6853,-275.3654"/>
<polygon fill="#ff0000" stroke="#ff0000" stroke-width=".1745" points="130.9119,-276.7278 131.9768,-266.1866 124.5708,-273.763 130.9119,-276.7278"/>
</g>
<!-- x5&#45;&gt;105 -->
<g id="edge22" class="edge">
<title>x5&#45;&gt;105</title>
<path fill="none" stroke="#00ff00" stroke-width=".5979" d="M124.1766,-307.6134C138.961,-295.9634 159.9038,-279.4606 176.1682,-266.6443"/>
<polygon fill="#00ff00" stroke="#00ff00" stroke-width=".5979" points="178.5014,-269.2618 184.1896,-260.3234 174.1688,-263.7637 178.5014,-269.2618"/>
</g>
<!-- x5&#45;&gt;106 -->
<g id="edge8" class="edge">
<title>x5&#45;&gt;106</title>
<path fill="none" stroke="#ff0000" stroke-width=".316" d="M99.8078,-303.9257C97.0699,-295.7271 93.7635,-285.8266 90.6844,-276.6065"/>
<polygon fill="#ff0000" stroke="#ff0000" stroke-width=".316" points="93.9575,-275.3578 87.47,-266.9815 87.3179,-277.5752 93.9575,-275.3578"/>
</g>
<!-- x6 -->
<g id="node7" class="node">
<title>x6</title>
<polygon fill="#d3d3d3" stroke="#000000" points="69.8597,-340.0471 33.8597,-340.0471 33.8597,-304.0471 69.8597,-304.0471 69.8597,-340.0471"/>
<text text-anchor="middle" x="51.8597" y="-319.3471" font-family="Times,serif" font-size="9.00" fill="#000000">x6</text>
</g>
<!-- x6&#45;&gt;102 -->
<g id="edge72" class="edge">
<title>x6&#45;&gt;102</title>
<path fill="none" stroke="#ff0000" stroke-width=".1536" d="M44.3554,-303.9257C40.8976,-295.5757 36.7087,-285.4602 32.831,-276.0962"/>
<polygon fill="#ff0000" stroke="#ff0000" stroke-width=".1536" points="36.0061,-274.6155 28.9463,-266.7155 29.5387,-277.2937 36.0061,-274.6155"/>
</g>
<!-- x6&#45;&gt;103 -->
<g id="edge5" class="edge">
<title>x6&#45;&gt;103</title>
<path fill="none" stroke="#ff0000" stroke-width=".2646" d="M70.1204,-308.2296C72.9354,-306.5941 75.895,-305.1259 78.8597,-304.0471 215.8419,-254.2009 268.3718,-319.2318 404.8597,-268.0471 406.4931,-267.4346 408.1217,-266.7129 409.7278,-265.9127"/>
<polygon fill="#ff0000" stroke="#ff0000" stroke-width=".2646" points="411.7363,-268.7909 418.5555,-260.6823 408.1681,-262.7686 411.7363,-268.7909"/>
</g>
<!-- x6&#45;&gt;104 -->
<g id="edge54" class="edge">
<title>x6&#45;&gt;104</title>
<path fill="none" stroke="#00ff00" stroke-width=".2343" d="M69.8701,-306.8982C83.4128,-295.5071 102.1019,-279.7874 116.9048,-267.3364"/>
<polygon fill="#00ff00" stroke="#00ff00" stroke-width=".2343" points="119.2716,-269.9192 124.6715,-260.8037 114.7657,-264.5622 119.2716,-269.9192"/>
</g>
<!-- x6&#45;&gt;105 -->
<g id="edge69" class="edge">
<title>x6&#45;&gt;105</title>
<path fill="none" stroke="#ff0000" stroke-width=".9" d="M70.1299,-309.1107C72.9916,-307.3073 75.9621,-305.5574 78.8597,-304.0471 117.7957,-283.7521 132.1242,-288.7223 170.8597,-268.0471 172.3986,-267.2257 173.9532,-266.34 175.5022,-265.4134"/>
<polygon fill="#ff0000" stroke="#ff0000" stroke-width=".9" points="177.6627,-268.1847 184.166,-259.8206 173.8662,-262.3036 177.6627,-268.1847"/>
</g>
<!-- x6&#45;&gt;106 -->
<g id="edge9" class="edge">
<title>x6&#45;&gt;106</title>
<path fill="none" stroke="#ff0000" stroke-width=".8603" d="M58.8797,-303.9257C62.1145,-295.5757 66.0331,-285.4602 69.6606,-276.0962"/>
<polygon fill="#ff0000" stroke="#ff0000" stroke-width=".8603" points="72.9459,-277.3046 73.2947,-266.7155 66.4186,-274.7759 72.9459,-277.3046"/>
</g>
<!-- x7 -->
<g id="node8" class="node">
<title>x7</title>
<polygon fill="#d3d3d3" stroke="#000000" points="231.8597,-340.0471 195.8597,-340.0471 195.8597,-304.0471 231.8597,-304.0471 231.8597,-340.0471"/>
<text text-anchor="middle" x="213.8597" y="-319.3471" font-family="Times,serif" font-size="9.00" fill="#000000">x7</text>
</g>
<!-- x7&#45;&gt;99 -->
<g id="edge71" class="edge">
<title>x7&#45;&gt;99</title>
<path fill="none" stroke="#ff0000" stroke-width=".2937" d="M232.0552,-308.9623C234.9272,-307.1794 237.9205,-305.4747 240.8597,-304.0471 287.131,-281.573 305.4006,-292.122 350.8597,-268.0471 352.6264,-267.1115 354.3965,-266.06 356.1385,-264.9395"/>
<polygon fill="#ff0000" stroke="#ff0000" stroke-width=".2937" points="358.3727,-267.6445 364.4674,-258.9781 354.2985,-261.9523 358.3727,-267.6445"/>
</g>
<!-- x7&#45;&gt;100 -->
<g id="edge79" class="edge">
<title>x7&#45;&gt;100</title>
<path fill="none" stroke="#00ff00" stroke-width=".1798" d="M232.0107,-309.3482C249.3837,-297.1937 275.7582,-278.7415 295.2622,-265.096"/>
<polygon fill="#00ff00" stroke="#00ff00" stroke-width=".1798" points="297.4957,-267.805 303.6831,-259.2046 293.4829,-262.0694 297.4957,-267.805"/>
</g>
<!-- x7&#45;&gt;101 -->
<g id="edge46" class="edge">
<title>x7&#45;&gt;101</title>
<path fill="none" stroke="#ff0000" stroke-width=".4237" d="M225.237,-303.9257C230.9944,-294.7556 238.0887,-283.4562 244.4267,-273.3612"/>
<polygon fill="#ff0000" stroke="#ff0000" stroke-width=".4237" points="247.3961,-275.2139 249.7492,-264.8837 241.4677,-271.4918 247.3961,-275.2139"/>
</g>
<!-- x7&#45;&gt;102 -->
<g id="edge78" class="edge">
<title>x7&#45;&gt;102</title>
<path fill="none" stroke="#ff0000" stroke-width=".4043" d="M195.7356,-308.8095C192.8537,-307.0477 189.8387,-305.3896 186.8597,-304.0471 129.8543,-278.3582 107.6108,-294.2928 50.8597,-268.0471 49.2763,-267.3149 47.6869,-266.4992 46.1111,-265.6265"/>
<polygon fill="#ff0000" stroke="#ff0000" stroke-width=".4043" points="47.71,-262.4993 37.3702,-260.1885 44.0122,-268.4429 47.71,-262.4993"/>
</g>
<!-- x7&#45;&gt;103 -->
<g id="edge11" class="edge">
<title>x7&#45;&gt;103</title>
<path fill="none" stroke="#ff0000" stroke-width=".1553" d="M231.9335,-308.6949C234.8223,-306.9489 237.8527,-305.3257 240.8597,-304.0471 309.5337,-274.8466 336.4747,-297.9184 404.8597,-268.0471 406.4583,-267.3488 408.0597,-266.5598 409.6447,-265.7077"/>
<polygon fill="#ff0000" stroke="#ff0000" stroke-width=".1553" points="411.7188,-268.5415 418.4121,-260.3286 408.0581,-262.5749 411.7188,-268.5415"/>
</g>
<!-- x7&#45;&gt;104 -->
<g id="edge70" class="edge">
<title>x7&#45;&gt;104</title>
<path fill="none" stroke="#ff0000" stroke-width=".1473" d="M196.1884,-303.9257C186.0402,-293.5189 173.2178,-280.37 162.4727,-269.3511"/>
<polygon fill="#ff0000" stroke="#ff0000" stroke-width=".1473" points="164.9114,-266.8388 155.424,-262.1229 159.8998,-271.7259 164.9114,-266.8388"/>
</g>
<!-- x7&#45;&gt;105 -->
<g id="edge1" class="edge">
<title>x7&#45;&gt;105</title>
<path fill="none" stroke="#00ff00" stroke-width=".6456" d="M210.7127,-303.9257C209.3517,-296.0882 207.7205,-286.6953 206.1807,-277.8283"/>
<polygon fill="#00ff00" stroke="#00ff00" stroke-width=".6456" points="209.5961,-277.0393 204.4367,-267.7856 202.6993,-278.237 209.5961,-277.0393"/>
</g>
<!-- x7&#45;&gt;106 -->
<g id="edge59" class="edge">
<title>x7&#45;&gt;106</title>
<path fill="none" stroke="#ff0000" stroke-width=".4416" d="M195.7866,-309.4787C192.8469,-307.5861 189.8011,-305.7126 186.8597,-304.0471 154.3354,-285.6322 143.2021,-286.7795 110.8597,-268.0471 109.3501,-267.1728 107.8186,-266.2456 106.2874,-265.287"/>
<polygon fill="#ff0000" stroke="#ff0000" stroke-width=".4416" points="107.9487,-262.1898 97.6746,-259.6025 104.0927,-268.0321 107.9487,-262.1898"/>
</g>
<!-- y0 -->
<g id="node9" class="node">
<title>y0</title>
<ellipse fill="#add8e6" stroke="#000000" cx="200.8597" cy="-17.6777" rx="17.8571" ry="17.8571"/>
<text text-anchor="middle" x="200.8597" y="-14.9777" font-family="Times,serif" font-size="9.00" fill="#000000">y0</text>
</g>
<!-- 107 -->
<g id="node18" class="node">
<title>107</title>
<ellipse fill="#ffffff" stroke="#000000" cx="320.8597" cy="-169.4682" rx="20.7202" ry="20.7202"/>
<text text-anchor="middle" x="320.8597" y="-166.7682" font-family="Times,serif" font-size="9.00" fill="#000000">107</text>
</g>
<!-- 99&#45;&gt;107 -->
<g id="edge17" class="edge">
<title>99&#45;&gt;107</title>
<path fill="none" stroke="#ff0000" stroke-width=".7198" d="M367.405,-232.9326C359.571,-222.2509 348.6468,-207.3558 339.3502,-194.68"/>
<polygon fill="#ff0000" stroke="#ff0000" stroke-width=".7198" points="341.9686,-192.332 333.2322,-186.3381 336.3239,-196.4718 341.9686,-192.332"/>
</g>
<!-- 108 -->
<g id="node19" class="node">
<title>108</title>
<ellipse fill="#ffffff" stroke="#000000" cx="260.8597" cy="-169.4682" rx="20.7202" ry="20.7202"/>
<text text-anchor="middle" x="260.8597" y="-166.7682" font-family="Times,serif" font-size="9.00" fill="#000000">108</text>
</g>
<!-- 99&#45;&gt;108 -->
<g id="edge47" class="edge">
<title>99&#45;&gt;108</title>
<path fill="none" stroke="#00ff00" stroke-width=".1093" d="M364.0781,-236.0417C359.9064,-232.8047 355.2623,-229.3341 350.8597,-226.3278 325.1774,-208.7913 316.9741,-207.2141 290.8597,-190.3278 289.3947,-189.3806 287.8984,-188.3961 286.3942,-187.3934"/>
<polygon fill="#00ff00" stroke="#00ff00" stroke-width=".1093" points="288.0947,-184.317 277.8588,-181.5823 284.1552,-190.1033 288.0947,-184.317"/>
</g>
<!-- 109 -->
<g id="node20" class="node">
<title>109</title>
<ellipse fill="#ffffff" stroke="#000000" cx="200.8597" cy="-169.4682" rx="20.7202" ry="20.7202"/>
<text text-anchor="middle" x="200.8597" y="-166.7682" font-family="Times,serif" font-size="9.00" fill="#000000">109</text>
</g>
<!-- 99&#45;&gt;109 -->
<g id="edge44" class="edge">
<title>99&#45;&gt;109</title>
<path fill="none" stroke="#00ff00" stroke-width=".3301" d="M364.506,-235.3228C360.3463,-232.0657 355.6015,-228.7642 350.8597,-226.3278 301.3329,-200.881 281.0097,-214.5233 230.8597,-190.3278 229.2885,-189.5698 227.7086,-188.7339 226.1402,-187.8456"/>
<polygon fill="#00ff00" stroke="#00ff00" stroke-width=".3301" points="227.7491,-184.7229 217.4205,-182.3629 224.023,-190.6488 227.7491,-184.7229"/>
</g>
<!-- 110 -->
<g id="node21" class="node">
<title>110</title>
<ellipse fill="#ffffff" stroke="#000000" cx="141.8597" cy="-169.4682" rx="20.754" ry="20.754"/>
<text text-anchor="middle" x="141.8597" y="-166.7682" font-family="Times,serif" font-size="9.00" fill="#000000">110</text>
</g>
<!-- 99&#45;&gt;110 -->
<g id="edge4" class="edge">
<title>99&#45;&gt;110</title>
<path fill="none" stroke="#00ff00" stroke-width=".2149" d="M364.6439,-235.0382C360.4881,-231.7731 355.7108,-228.5386 350.8597,-226.3278 276.6208,-192.4961 245.6668,-222.8839 170.8597,-190.3278 169.4735,-189.7246 168.0884,-189.0471 166.7168,-188.315"/>
<polygon fill="#00ff00" stroke="#00ff00" stroke-width=".2149" points="168.3325,-185.1985 157.9903,-182.8986 164.6409,-191.146 168.3325,-185.1985"/>
</g>
<!-- 100&#45;&gt;107 -->
<g id="edge63" class="edge">
<title>100&#45;&gt;107</title>
<path fill="none" stroke="#00ff00" stroke-width=".403" d="M320.8597,-225.9503C320.8597,-218.0901 320.8597,-209.0094 320.8597,-200.4592"/>
<polygon fill="#00ff00" stroke="#00ff00" stroke-width=".403" points="324.3597,-200.4105 320.8597,-190.4106 317.3597,-200.4106 324.3597,-200.4105"/>
</g>
<!-- 100&#45;&gt;110 -->
<g id="edge38" class="edge">
<title>100&#45;&gt;110</title>
<path fill="none" stroke="#00ff00" stroke-width=".1713" d="M304.2988,-234.2928C300.0741,-231.3971 295.4304,-228.533 290.8597,-226.3278 240.7096,-202.1324 220.8147,-214.9232 170.8597,-190.3278 169.5034,-189.6601 168.1425,-188.9304 166.7902,-188.1566"/>
<polygon fill="#00ff00" stroke="#00ff00" stroke-width=".1713" points="168.4356,-185.0538 158.129,-182.5993 164.6554,-190.9454 168.4356,-185.0538"/>
</g>
<!-- 101&#45;&gt;107 -->
<g id="edge34" class="edge">
<title>101&#45;&gt;107</title>
<path fill="none" stroke="#00ff00" stroke-width=".4303" d="M273.8788,-230.3235C282.0326,-219.7617 292.6819,-205.9674 301.7796,-194.183"/>
<polygon fill="#00ff00" stroke="#00ff00" stroke-width=".4303" points="304.7316,-196.0867 308.0721,-186.0322 299.1907,-191.809 304.7316,-196.0867"/>
</g>
<!-- 101&#45;&gt;108 -->
<g id="edge15" class="edge">
<title>101&#45;&gt;108</title>
<path fill="none" stroke="#ff0000" stroke-width=".2726" d="M260.8597,-225.9503C260.8597,-218.0901 260.8597,-209.0094 260.8597,-200.4592"/>
<polygon fill="#ff0000" stroke="#ff0000" stroke-width=".2726" points="264.3597,-200.4105 260.8597,-190.4106 257.3597,-200.4106 264.3597,-200.4105"/>
</g>
<!-- 101&#45;&gt;109 -->
<g id="edge43" class="edge">
<title>101&#45;&gt;109</title>
<path fill="none" stroke="#00ff00" stroke-width=".4076" d="M247.8405,-230.3235C239.6867,-219.7617 229.0374,-205.9674 219.9397,-194.183"/>
<polygon fill="#00ff00" stroke="#00ff00" stroke-width=".4076" points="222.5286,-191.809 213.6472,-186.0322 216.9877,-196.0867 222.5286,-191.809"/>
</g>
<!-- 101&#45;&gt;110 -->
<g id="edge51" class="edge">
<title>101&#45;&gt;110</title>
<path fill="none" stroke="#00ff00" stroke-width=".279" d="M243.8605,-235.0733C239.649,-232.1539 235.1212,-229.0835 230.8597,-226.3278 204.7452,-209.4416 196.8383,-207.4222 170.8597,-190.3278 169.5968,-189.4969 168.3115,-188.635 167.0196,-187.7557"/>
<polygon fill="#00ff00" stroke="#00ff00" stroke-width=".279" points="168.7633,-184.7043 158.5625,-181.8417 164.7518,-190.4408 168.7633,-184.7043"/>
</g>
<!-- 102&#45;&gt;108 -->
<g id="edge33" class="edge">
<title>102&#45;&gt;108</title>
<path fill="none" stroke="#00ff00" stroke-width=".2438" d="M37.2806,-233.9846C41.5096,-231.0982 46.1903,-228.3157 50.8597,-226.3278 125.9245,-194.3706 155.7948,-222.2851 230.8597,-190.3278 232.4647,-189.6445 234.0712,-188.8673 235.6601,-188.0242"/>
<polygon fill="#00ff00" stroke="#00ff00" stroke-width=".2438" points="237.7231,-190.8657 244.4387,-182.671 234.0786,-184.8892 237.7231,-190.8657"/>
</g>
<!-- 102&#45;&gt;109 -->
<g id="edge3" class="edge">
<title>102&#45;&gt;109</title>
<path fill="none" stroke="#00ff00" stroke-width=".1319" d="M37.4169,-234.2854C41.6417,-231.3899 46.2864,-228.5278 50.8597,-226.3278 101.4209,-202.0049 121.4943,-215.054 171.8597,-190.3278 173.2166,-189.6616 174.5781,-188.9332 175.931,-188.1604"/>
<polygon fill="#00ff00" stroke="#00ff00" stroke-width=".1319" points="178.0644,-190.9502 184.5938,-182.6064 174.2863,-185.0573 178.0644,-190.9502"/>
</g>
<!-- 102&#45;&gt;110 -->
<g id="edge14" class="edge">
<title>102&#45;&gt;110</title>
<path fill="none" stroke="#00ff00" stroke-width=".3308" d="M37.8944,-235.1277C42.1047,-232.2067 46.6231,-229.1218 50.8597,-226.3278 72.2788,-212.2018 96.9909,-196.8173 115.2528,-185.6174"/>
<polygon fill="#00ff00" stroke="#00ff00" stroke-width=".3308" points="117.203,-188.5274 123.9095,-180.3253 113.5519,-182.555 117.203,-188.5274"/>
</g>
<!-- 103&#45;&gt;107 -->
<g id="edge26" class="edge">
<title>103&#45;&gt;107</title>
<path fill="none" stroke="#ff0000" stroke-width=".3648" d="M417.7515,-235.2369C413.5433,-232.3126 409.0444,-229.1989 404.8597,-226.3278 385.501,-213.0464 363.5252,-198.1783 346.9076,-186.9777"/>
<polygon fill="#ff0000" stroke="#ff0000" stroke-width=".3648" points="348.5271,-183.8487 338.2776,-181.1659 344.617,-189.6549 348.5271,-183.8487"/>
</g>
<!-- 103&#45;&gt;108 -->
<g id="edge31" class="edge">
<title>103&#45;&gt;108</title>
<path fill="none" stroke="#ff0000" stroke-width=".8177" d="M418.2761,-234.3395C414.0521,-231.4423 409.4144,-228.5659 404.8597,-226.3278 357.1728,-202.8954 338.5465,-213.7602 290.8597,-190.3278 289.294,-189.5585 287.7185,-188.7137 286.1533,-187.8186"/>
<polygon fill="#ff0000" stroke="#ff0000" stroke-width=".8177" points="287.7668,-184.698 277.4432,-182.3162 284.0282,-190.6161 287.7668,-184.698"/>
</g>
<!-- 103&#45;&gt;109 -->
<g id="edge42" class="edge">
<title>103&#45;&gt;109</title>
<path fill="none" stroke="#ff0000" stroke-width=".1396" d="M418.4293,-234.0065C414.2006,-231.1195 409.5224,-228.3312 404.8597,-226.3278 332.3019,-195.1538 303.4174,-221.5019 230.8597,-190.3278 229.2568,-189.6392 227.6522,-188.8578 226.0646,-188.0115"/>
<polygon fill="#ff0000" stroke="#ff0000" stroke-width=".1396" points="227.6479,-184.8773 217.29,-182.6491 223.9976,-190.8502 227.6479,-184.8773"/>
</g>
<!-- 104&#45;&gt;107 -->
<g id="edge66" class="edge">
<title>104&#45;&gt;107</title>
<path fill="none" stroke="#00ff00" stroke-width=".2194" d="M157.4205,-234.2928C161.6452,-231.3971 166.2889,-228.533 170.8597,-226.3278 221.0097,-202.1324 240.7096,-214.5233 290.8597,-190.3278 292.4308,-189.5698 294.0107,-188.7339 295.5791,-187.8456"/>
<polygon fill="#00ff00" stroke="#00ff00" stroke-width=".2194" points="297.6963,-190.6488 304.2988,-182.3629 293.9702,-184.7229 297.6963,-190.6488"/>
</g>
<!-- 104&#45;&gt;108 -->
<g id="edge13" class="edge">
<title>104&#45;&gt;108</title>
<path fill="none" stroke="#00ff00" stroke-width=".3139" d="M157.8588,-235.0733C162.0703,-232.1539 166.5981,-229.0835 170.8597,-226.3278 196.9741,-209.4416 204.7452,-207.2141 230.8597,-190.3278 232.3246,-189.3806 233.8209,-188.3961 235.3251,-187.3934"/>
<polygon fill="#00ff00" stroke="#00ff00" stroke-width=".3139" points="237.5641,-190.1033 243.8605,-181.5823 233.6246,-184.317 237.5641,-190.1033"/>
</g>
<!-- 104&#45;&gt;110 -->
<g id="edge12" class="edge">
<title>104&#45;&gt;110</title>
<path fill="none" stroke="#ff0000" stroke-width=".1305" d="M141.1329,-225.9503C141.2349,-218.0262 141.3528,-208.8617 141.4636,-200.2507"/>
<polygon fill="#ff0000" stroke="#ff0000" stroke-width=".1305" points="144.9646,-200.1867 141.5936,-190.1424 137.9652,-200.0965 144.9646,-200.1867"/>
</g>
<!-- 105&#45;&gt;107 -->
<g id="edge29" class="edge">
<title>105&#45;&gt;107</title>
<path fill="none" stroke="#00ff00" stroke-width=".7418" d="M217.8588,-235.0733C222.0703,-232.1539 226.5981,-229.0835 230.8597,-226.3278 256.9741,-209.4416 264.7452,-207.2141 290.8597,-190.3278 292.3246,-189.3806 293.8209,-188.3961 295.3251,-187.3934"/>
<polygon fill="#00ff00" stroke="#00ff00" stroke-width=".7418" points="297.5641,-190.1033 303.8605,-181.5823 293.6246,-184.317 297.5641,-190.1033"/>
</g>
<!-- 105&#45;&gt;108 -->
<g id="edge81" class="edge">
<title>105&#45;&gt;108</title>
<path fill="none" stroke="#ff0000" stroke-width=".4235" d="M213.8788,-230.3235C222.0326,-219.7617 232.6819,-205.9674 241.7796,-194.183"/>
<polygon fill="#ff0000" stroke="#ff0000" stroke-width=".4235" points="244.7316,-196.0867 248.0721,-186.0322 239.1907,-191.809 244.7316,-196.0867"/>
</g>
<!-- 105&#45;&gt;109 -->
<g id="edge32" class="edge">
<title>105&#45;&gt;109</title>
<path fill="none" stroke="#ff0000" stroke-width=".4226" d="M200.8597,-225.9503C200.8597,-218.0901 200.8597,-209.0094 200.8597,-200.4592"/>
<polygon fill="#ff0000" stroke="#ff0000" stroke-width=".4226" points="204.3597,-200.4105 200.8597,-190.4106 197.3597,-200.4106 204.3597,-200.4105"/>
</g>
<!-- 105&#45;&gt;110 -->
<g id="edge23" class="edge">
<title>105&#45;&gt;110</title>
<path fill="none" stroke="#ff0000" stroke-width=".3715" d="M188.0575,-230.3235C180.0396,-219.7617 169.5678,-205.9674 160.6217,-194.183"/>
<polygon fill="#ff0000" stroke="#ff0000" stroke-width=".3715" points="163.2684,-191.8808 154.4341,-186.0322 157.6929,-196.1134 163.2684,-191.8808"/>
</g>
<!-- 106&#45;&gt;107 -->
<g id="edge18" class="edge">
<title>106&#45;&gt;107</title>
<path fill="none" stroke="#ff0000" stroke-width=".196" d="M97.2806,-233.9846C101.5096,-231.0982 106.1903,-228.3157 110.8597,-226.3278 185.9245,-194.3706 215.7948,-222.2851 290.8597,-190.3278 292.4647,-189.6445 294.0712,-188.8673 295.6601,-188.0242"/>
<polygon fill="#ff0000" stroke="#ff0000" stroke-width=".196" points="297.7231,-190.8657 304.4387,-182.671 294.0786,-184.8892 297.7231,-190.8657"/>
</g>
<!-- 106&#45;&gt;109 -->
<g id="edge21" class="edge">
<title>106&#45;&gt;109</title>
<path fill="none" stroke="#00ff00" stroke-width=".3197" d="M97.8447,-235.0513C102.0566,-232.1326 106.5881,-229.068 110.8597,-226.3278 137.3567,-209.3303 145.4992,-207.5366 171.8597,-190.3278 173.093,-189.5226 174.3472,-188.6873 175.6076,-187.8344"/>
<polygon fill="#00ff00" stroke="#00ff00" stroke-width=".3197" points="177.6592,-190.6707 183.8636,-182.0825 173.6578,-184.9272 177.6592,-190.6707"/>
</g>
<!-- 106&#45;&gt;110 -->
<g id="edge60" class="edge">
<title>106&#45;&gt;110</title>
<path fill="none" stroke="#00ff00" stroke-width=".5341" d="M93.7962,-230.7052C102.2071,-219.989 113.3212,-205.8286 122.7432,-193.8242"/>
<polygon fill="#00ff00" stroke="#00ff00" stroke-width=".5341" points="125.5208,-195.9541 128.9418,-185.9267 120.0143,-191.6321 125.5208,-195.9541"/>
</g>
<!-- 112 -->
<g id="node23" class="node">
<title>112</title>
<ellipse fill="#ffffff" stroke="#000000" cx="230.8597" cy="-91.9819" rx="20.754" ry="20.754"/>
<text text-anchor="middle" x="230.8597" y="-89.2819" font-family="Times,serif" font-size="9.00" fill="#000000">112</text>
</g>
<!-- 107&#45;&gt;112 -->
<g id="edge24" class="edge">
<title>107&#45;&gt;112</title>
<path fill="none" stroke="#ff0000" stroke-width=".414" d="M304.7695,-155.6152C290.7333,-143.5306 270.1896,-125.8433 254.3216,-112.1817"/>
<polygon fill="#ff0000" stroke="#ff0000" stroke-width=".414" points="256.371,-109.3277 246.5091,-105.4555 251.8038,-114.6325 256.371,-109.3277"/>
</g>
<!-- 111 -->
<g id="node22" class="node">
<title>111</title>
<ellipse fill="#ffffff" stroke="#000000" cx="171.8597" cy="-91.9819" rx="20.2876" ry="20.2876"/>
<text text-anchor="middle" x="171.8597" y="-89.2819" font-family="Times,serif" font-size="9.00" fill="#000000">111</text>
</g>
<!-- 108&#45;&gt;111 -->
<g id="edge6" class="edge">
<title>108&#45;&gt;111</title>
<path fill="none" stroke="#ff0000" stroke-width=".3909" d="M244.9482,-155.6152C231.068,-143.5306 210.7526,-125.8433 195.0609,-112.1817"/>
<polygon fill="#ff0000" stroke="#ff0000" stroke-width=".3909" points="197.1756,-109.3822 187.3353,-105.4555 192.5791,-114.6616 197.1756,-109.3822"/>
</g>
<!-- 108&#45;&gt;112 -->
<g id="edge28" class="edge">
<title>108&#45;&gt;112</title>
<path fill="none" stroke="#ff0000" stroke-width=".4155" d="M253.2894,-149.9151C249.8525,-141.0381 245.7195,-130.3629 241.9426,-120.6079"/>
<polygon fill="#ff0000" stroke="#ff0000" stroke-width=".4155" points="245.198,-119.3221 238.3236,-111.2603 238.6702,-121.8495 245.198,-119.3221"/>
</g>
<!-- 109&#45;&gt;112 -->
<g id="edge67" class="edge">
<title>109&#45;&gt;112</title>
<path fill="none" stroke="#00ff00" stroke-width=".7695" d="M208.4299,-149.9151C211.8668,-141.0381 215.9998,-130.3629 219.7767,-120.6079"/>
<polygon fill="#00ff00" stroke="#00ff00" stroke-width=".7695" points="223.0491,-121.8495 223.3957,-111.2603 216.5213,-119.3221 223.0491,-121.8495"/>
</g>
<!-- 110&#45;&gt;111 -->
<g id="edge74" class="edge">
<title>110&#45;&gt;111</title>
<path fill="none" stroke="#ff0000" stroke-width=".1683" d="M149.4299,-149.9151C152.8668,-141.0381 156.9998,-130.3629 160.7767,-120.6079"/>
<polygon fill="#ff0000" stroke="#ff0000" stroke-width=".1683" points="164.0491,-121.8495 164.3957,-111.2603 157.5213,-119.3221 164.0491,-121.8495"/>
</g>
<!-- 110&#45;&gt;112 -->
<g id="edge10" class="edge">
<title>110&#45;&gt;112</title>
<path fill="none" stroke="#00ff00" stroke-width=".1619" d="M157.7711,-155.6152C171.5661,-143.6048 191.7177,-126.0602 207.3691,-112.4336"/>
<polygon fill="#00ff00" stroke="#00ff00" stroke-width=".1619" points="209.8421,-114.9211 215.086,-105.715 205.2457,-109.6417 209.8421,-114.9211"/>
</g>
<!-- 111&#45;&gt;y0 -->
<g id="edge49" class="edge">
<title>111&#45;&gt;y0</title>
<path fill="none" stroke="#00ff00" stroke-width=".2665" d="M179.3279,-72.8467C182.7656,-64.0385 186.8991,-53.4476 190.6214,-43.9103"/>
<polygon fill="#00ff00" stroke="#00ff00" stroke-width=".2665" points="193.9298,-45.0599 194.3051,-34.4717 187.4088,-42.5148 193.9298,-45.0599"/>
</g>
<!-- 112&#45;&gt;y0 -->
<g id="edge52" class="edge">
<title>112&#45;&gt;y0</title>
<path fill="none" stroke="#ff0000" stroke-width=".8744" d="M223.1339,-72.8467C219.5776,-64.0385 215.3016,-53.4476 211.4509,-43.9103"/>
<polygon fill="#ff0000" stroke="#ff0000" stroke-width=".8744" points="214.6295,-42.4341 207.6402,-34.4717 208.1386,-45.0548 214.6295,-42.4341"/>
</g>
</g>
</svg>
