<?xml version="1.0" encoding="UTF-8" standalone="no"?>
<!DOCTYPE svg PUBLIC "-//W3C//DTD SVG 1.1//EN"
 "http://www.w3.org/Graphics/SVG/1.1/DTD/svg11.dtd">
<!-- Generated by graphviz version 2.38.0 (20140413.2041)
 -->
<!-- Title: %3 Pages: 1 -->
<svg width="673pt" height="390pt"
 viewBox="0.00 0.00 672.58 390.23" xmlns="http://www.w3.org/2000/svg" xmlns:xlink="http://www.w3.org/1999/xlink">
<g id="graph0" class="graph" transform="scale(1 1) rotate(0) translate(4 386.233)">
<title>%3</title>
<polygon fill="white" stroke="none" points="-4,4 -4,-386.233 668.577,-386.233 668.577,4 -4,4"/>
<!-- x0 -->
<g id="node1" class="node"><title>x0</title>
<polygon fill="lightgray" stroke="black" points="448.577,-382.233 412.577,-382.233 412.577,-346.233 448.577,-346.233 448.577,-382.233"/>
<text text-anchor="middle" x="430.577" y="-362.033" font-family="Times,serif" font-size="9.00">x0</text>
</g>
<!-- 77832 -->
<g id="node10" class="node"><title>77832</title>
<ellipse fill="white" stroke="black" cx="384.577" cy="-282.655" rx="27.6545" ry="27.6545"/>
<text text-anchor="middle" x="384.577" y="-280.455" font-family="Times,serif" font-size="9.00">77832</text>
</g>
<!-- x0&#45;&gt;77832 -->
<g id="edge20" class="edge"><title>x0&#45;&gt;77832</title>
<path fill="none" stroke="red" stroke-width="0.9" d="M420.596,-345.965C415.487,-337.127 409.099,-326.077 403.128,-315.747"/>
<polygon fill="red" stroke="red" stroke-width="0.9" points="406.065,-313.834 398.03,-306.928 400.005,-317.337 406.065,-313.834"/>
</g>
<!-- 47706 -->
<g id="node17" class="node"><title>47706</title>
<ellipse fill="white" stroke="black" cx="311.577" cy="-282.655" rx="27.6545" ry="27.6545"/>
<text text-anchor="middle" x="311.577" y="-280.455" font-family="Times,serif" font-size="9.00">47706</text>
</g>
<!-- x0&#45;&gt;47706 -->
<g id="edge15" class="edge"><title>x0&#45;&gt;47706</title>
<path fill="none" stroke="red" stroke-width="0.351227" d="M412.372,-351.699C389.848,-337.416 353.706,-314.445 347.577,-310.233 345.504,-308.808 343.38,-307.319 341.25,-305.804"/>
<polygon fill="red" stroke="red" stroke-width="0.351227" points="343.263,-302.94 333.108,-299.917 339.161,-308.612 343.263,-302.94"/>
</g>
<!-- 99424 -->
<g id="node19" class="node"><title>99424</title>
<ellipse fill="white" stroke="black" cx="457.577" cy="-282.655" rx="27.6545" ry="27.6545"/>
<text text-anchor="middle" x="457.577" y="-280.455" font-family="Times,serif" font-size="9.00">99424</text>
</g>
<!-- x0&#45;&gt;99424 -->
<g id="edge37" class="edge"><title>x0&#45;&gt;99424</title>
<path fill="none" stroke="green" stroke-width="0.599628" d="M436.436,-345.965C439.152,-337.959 442.485,-328.138 445.693,-318.681"/>
<polygon fill="green" stroke="green" stroke-width="0.599628" points="449.062,-319.644 448.961,-309.049 442.434,-317.395 449.062,-319.644"/>
</g>
<!-- x1 -->
<g id="node2" class="node"><title>x1</title>
<polygon fill="lightgray" stroke="black" points="340.577,-382.233 304.577,-382.233 304.577,-346.233 340.577,-346.233 340.577,-382.233"/>
<text text-anchor="middle" x="322.577" y="-362.033" font-family="Times,serif" font-size="9.00">x1</text>
</g>
<!-- x1&#45;&gt;77832 -->
<g id="edge18" class="edge"><title>x1&#45;&gt;77832</title>
<path fill="none" stroke="green" stroke-width="0.9" d="M336.03,-345.965C343.523,-336.349 353.054,-324.115 361.684,-313.039"/>
<polygon fill="green" stroke="green" stroke-width="0.9" points="364.674,-314.896 368.059,-304.856 359.152,-310.594 364.674,-314.896"/>
</g>
<!-- x1&#45;&gt;47706 -->
<g id="edge36" class="edge"><title>x1&#45;&gt;47706</title>
<path fill="none" stroke="red" stroke-width="0.271273" d="M320.19,-345.965C319.144,-338.393 317.873,-329.198 316.632,-320.223"/>
<polygon fill="red" stroke="red" stroke-width="0.271273" points="320.094,-319.708 315.258,-310.281 313.16,-320.666 320.094,-319.708"/>
</g>
<!-- x2 -->
<g id="node3" class="node"><title>x2</title>
<polygon fill="lightgray" stroke="black" points="286.577,-382.233 250.577,-382.233 250.577,-346.233 286.577,-346.233 286.577,-382.233"/>
<text text-anchor="middle" x="268.577" y="-362.033" font-family="Times,serif" font-size="9.00">x2</text>
</g>
<!-- x2&#45;&gt;77832 -->
<g id="edge21" class="edge"><title>x2&#45;&gt;77832</title>
<path fill="none" stroke="red" stroke-width="0.9" d="M286.865,-351.494C303.196,-340.923 327.692,-324.846 348.577,-310.233 350.638,-308.791 352.753,-307.288 354.876,-305.764"/>
<polygon fill="red" stroke="red" stroke-width="0.9" points="356.973,-308.567 363.004,-299.857 352.857,-302.905 356.973,-308.567"/>
</g>
<!-- x2&#45;&gt;47706 -->
<g id="edge8" class="edge"><title>x2&#45;&gt;47706</title>
<path fill="none" stroke="red" stroke-width="0.350981" d="M277.908,-345.965C282.598,-337.286 288.44,-326.475 293.934,-316.306"/>
<polygon fill="red" stroke="red" stroke-width="0.350981" points="297.165,-317.69 298.839,-307.228 291.006,-314.362 297.165,-317.69"/>
</g>
<!-- x3 -->
<g id="node4" class="node"><title>x3</title>
<polygon fill="lightgray" stroke="black" points="394.577,-382.233 358.577,-382.233 358.577,-346.233 394.577,-346.233 394.577,-382.233"/>
<text text-anchor="middle" x="376.577" y="-362.033" font-family="Times,serif" font-size="9.00">x3</text>
</g>
<!-- x3&#45;&gt;77832 -->
<g id="edge19" class="edge"><title>x3&#45;&gt;77832</title>
<path fill="none" stroke="red" stroke-width="0.9" d="M378.313,-345.965C379.066,-338.475 379.979,-329.396 380.872,-320.512"/>
<polygon fill="red" stroke="red" stroke-width="0.9" points="384.383,-320.581 381.9,-310.281 377.418,-319.881 384.383,-320.581"/>
</g>
<!-- x3&#45;&gt;47706 -->
<g id="edge6" class="edge"><title>x3&#45;&gt;47706</title>
<path fill="none" stroke="green" stroke-width="0.507771" d="M362.473,-345.965C354.481,-336.181 344.276,-323.687 335.105,-312.46"/>
<polygon fill="green" stroke="green" stroke-width="0.507771" points="337.693,-310.096 328.656,-304.565 332.272,-314.524 337.693,-310.096"/>
</g>
<!-- x3&#45;&gt;99424 -->
<g id="edge34" class="edge"><title>x3&#45;&gt;99424</title>
<path fill="none" stroke="red" stroke-width="0.127181" d="M394.153,-345.965C404.942,-335.366 418.967,-321.587 431.084,-309.683"/>
<polygon fill="red" stroke="red" stroke-width="0.127181" points="433.656,-312.063 438.336,-302.558 428.75,-307.07 433.656,-312.063"/>
</g>
<!-- x4 -->
<g id="node5" class="node"><title>x4</title>
<polygon fill="lightgray" stroke="black" points="556.577,-382.233 520.577,-382.233 520.577,-346.233 556.577,-346.233 556.577,-382.233"/>
<text text-anchor="middle" x="538.577" y="-362.033" font-family="Times,serif" font-size="9.00">x4</text>
</g>
<!-- 30576 -->
<g id="node22" class="node"><title>30576</title>
<ellipse fill="white" stroke="black" cx="538.577" cy="-282.655" rx="27.6545" ry="27.6545"/>
<text text-anchor="middle" x="538.577" y="-280.455" font-family="Times,serif" font-size="9.00">30576</text>
</g>
<!-- x4&#45;&gt;30576 -->
<g id="edge2" class="edge"><title>x4&#45;&gt;30576</title>
<path fill="none" stroke="red" stroke-width="0.470927" d="M538.577,-345.965C538.577,-338.475 538.577,-329.396 538.577,-320.512"/>
<polygon fill="red" stroke="red" stroke-width="0.470927" points="542.077,-320.281 538.577,-310.281 535.077,-320.281 542.077,-320.281"/>
</g>
<!-- x5 -->
<g id="node6" class="node"><title>x5</title>
<polygon fill="lightgray" stroke="black" points="610.577,-382.233 574.577,-382.233 574.577,-346.233 610.577,-346.233 610.577,-382.233"/>
<text text-anchor="middle" x="592.577" y="-362.033" font-family="Times,serif" font-size="9.00">x5</text>
</g>
<!-- x5&#45;&gt;30576 -->
<g id="edge3" class="edge"><title>x5&#45;&gt;30576</title>
<path fill="none" stroke="green" stroke-width="0.850172" d="M580.86,-345.965C574.594,-336.732 566.691,-325.085 559.418,-314.367"/>
<polygon fill="green" stroke="green" stroke-width="0.850172" points="562.274,-312.343 553.763,-306.034 556.482,-316.274 562.274,-312.343"/>
</g>
<!-- x6 -->
<g id="node7" class="node"><title>x6</title>
<polygon fill="lightgray" stroke="black" points="664.577,-382.233 628.577,-382.233 628.577,-346.233 664.577,-346.233 664.577,-382.233"/>
<text text-anchor="middle" x="646.577" y="-362.033" font-family="Times,serif" font-size="9.00">x6</text>
</g>
<!-- x6&#45;&gt;30576 -->
<g id="edge13" class="edge"><title>x6&#45;&gt;30576</title>
<path fill="none" stroke="green" stroke-width="0.418735" d="M628.256,-349.733C611.9,-337.682 587.639,-319.806 568.474,-305.684"/>
<polygon fill="green" stroke="green" stroke-width="0.418735" points="570.47,-302.807 560.343,-299.693 566.318,-308.443 570.47,-302.807"/>
</g>
<!-- x7 -->
<g id="node8" class="node"><title>x7</title>
<polygon fill="lightgray" stroke="black" points="502.577,-382.233 466.577,-382.233 466.577,-346.233 502.577,-346.233 502.577,-382.233"/>
<text text-anchor="middle" x="484.577" y="-362.033" font-family="Times,serif" font-size="9.00">x7</text>
</g>
<!-- x7&#45;&gt;77832 -->
<g id="edge38" class="edge"><title>x7&#45;&gt;77832</title>
<path fill="none" stroke="green" stroke-width="0.1499" d="M466.236,-348.637C451.602,-336.992 430.822,-320.456 413.887,-306.979"/>
<polygon fill="green" stroke="green" stroke-width="0.1499" points="415.93,-304.132 405.926,-300.644 411.572,-309.61 415.93,-304.132"/>
</g>
<!-- x7&#45;&gt;30576 -->
<g id="edge7" class="edge"><title>x7&#45;&gt;30576</title>
<path fill="none" stroke="green" stroke-width="0.875468" d="M496.294,-345.965C502.56,-336.732 510.463,-325.085 517.737,-314.367"/>
<polygon fill="green" stroke="green" stroke-width="0.875468" points="520.672,-316.274 523.391,-306.034 514.88,-312.343 520.672,-316.274"/>
</g>
<!-- y0 -->
<g id="node9" class="node"><title>y0</title>
<ellipse fill="lightblue" stroke="black" cx="319.577" cy="-18.3848" rx="18.2703" ry="18.2703"/>
<text text-anchor="middle" x="319.577" y="-16.1848" font-family="Times,serif" font-size="9.00">y0</text>
</g>
<!-- 62383 -->
<g id="node12" class="node"><title>62383</title>
<ellipse fill="white" stroke="black" cx="319.577" cy="-191.501" rx="27.6545" ry="27.6545"/>
<text text-anchor="middle" x="319.577" y="-189.301" font-family="Times,serif" font-size="9.00">62383</text>
</g>
<!-- 77832&#45;&gt;62383 -->
<g id="edge22" class="edge"><title>77832&#45;&gt;62383</title>
<path fill="none" stroke="red" stroke-width="0.219918" d="M368.51,-259.617C360.324,-248.389 350.25,-234.572 341.375,-222.399"/>
<polygon fill="red" stroke="red" stroke-width="0.219918" points="344.179,-220.304 335.46,-214.286 338.523,-224.428 344.179,-220.304"/>
</g>
<!-- 95741 -->
<g id="node11" class="node"><title>95741</title>
<ellipse fill="white" stroke="black" cx="100.577" cy="-100.347" rx="27.6545" ry="27.6545"/>
<text text-anchor="middle" x="100.577" y="-98.1467" font-family="Times,serif" font-size="9.00">95741</text>
</g>
<!-- 95741&#45;&gt;y0 -->
<g id="edge25" class="edge"><title>95741&#45;&gt;y0</title>
<path fill="none" stroke="red" stroke-width="0.9" d="M121.481,-82.0169C126.244,-78.6184 131.426,-75.3212 136.577,-72.7696 188.267,-47.1668 254.4,-31.6807 291.349,-24.4035"/>
<polygon fill="red" stroke="red" stroke-width="0.9" points="292.229,-27.7989 301.396,-22.4866 290.917,-20.9229 292.229,-27.7989"/>
</g>
<!-- 62383&#45;&gt;95741 -->
<g id="edge24" class="edge"><title>62383&#45;&gt;95741</title>
<path fill="none" stroke="red" stroke-width="0.837939" d="M292.78,-184.103C256.168,-174.755 189.069,-155.433 136.577,-127.924 134.349,-126.756 132.109,-125.459 129.896,-124.084"/>
<polygon fill="red" stroke="red" stroke-width="0.837939" points="131.826,-121.164 121.571,-118.499 127.926,-126.977 131.826,-121.164"/>
</g>
<!-- 84941 -->
<g id="node14" class="node"><title>84941</title>
<ellipse fill="white" stroke="black" cx="173.577" cy="-100.347" rx="27.6545" ry="27.6545"/>
<text text-anchor="middle" x="173.577" y="-98.1467" font-family="Times,serif" font-size="9.00">84941</text>
</g>
<!-- 62383&#45;&gt;84941 -->
<g id="edge23" class="edge"><title>62383&#45;&gt;84941</title>
<path fill="none" stroke="red" stroke-width="0.338368" d="M295.489,-177.869C272.873,-165.759 238.311,-146.609 209.577,-127.924 207.469,-126.553 205.318,-125.103 203.169,-123.617"/>
<polygon fill="red" stroke="red" stroke-width="0.338368" points="205.161,-120.74 194.984,-117.793 201.103,-126.443 205.161,-120.74"/>
</g>
<!-- 27478 -->
<g id="node15" class="node"><title>27478</title>
<ellipse fill="white" stroke="black" cx="246.577" cy="-100.347" rx="27.6545" ry="27.6545"/>
<text text-anchor="middle" x="246.577" y="-98.1467" font-family="Times,serif" font-size="9.00">27478</text>
</g>
<!-- 62383&#45;&gt;27478 -->
<g id="edge14" class="edge"><title>62383&#45;&gt;27478</title>
<path fill="none" stroke="green" stroke-width="0.33099" d="M302.277,-169.373C292.731,-157.714 280.736,-143.065 270.325,-130.349"/>
<polygon fill="green" stroke="green" stroke-width="0.33099" points="272.796,-127.843 263.753,-122.323 267.38,-132.278 272.796,-127.843"/>
</g>
<!-- 37462 -->
<g id="node16" class="node"><title>37462</title>
<ellipse fill="white" stroke="black" cx="319.577" cy="-100.347" rx="27.6545" ry="27.6545"/>
<text text-anchor="middle" x="319.577" y="-98.1467" font-family="Times,serif" font-size="9.00">37462</text>
</g>
<!-- 62383&#45;&gt;37462 -->
<g id="edge12" class="edge"><title>62383&#45;&gt;37462</title>
<path fill="none" stroke="green" stroke-width="0.206832" d="M319.577,-163.752C319.577,-155.73 319.577,-146.785 319.577,-138.23"/>
<polygon fill="green" stroke="green" stroke-width="0.206832" points="323.077,-138.077 319.577,-128.077 316.077,-138.077 323.077,-138.077"/>
</g>
<!-- 11227 -->
<g id="node18" class="node"><title>11227</title>
<ellipse fill="white" stroke="black" cx="392.577" cy="-100.347" rx="27.6545" ry="27.6545"/>
<text text-anchor="middle" x="392.577" y="-98.1467" font-family="Times,serif" font-size="9.00">11227</text>
</g>
<!-- 62383&#45;&gt;11227 -->
<g id="edge26" class="edge"><title>62383&#45;&gt;11227</title>
<path fill="none" stroke="red" stroke-width="0.171792" d="M336.877,-169.373C346.423,-157.714 358.418,-143.065 368.83,-130.349"/>
<polygon fill="red" stroke="red" stroke-width="0.171792" points="371.774,-132.278 375.401,-122.323 366.358,-127.843 371.774,-132.278"/>
</g>
<!-- 35047 -->
<g id="node20" class="node"><title>35047</title>
<ellipse fill="white" stroke="black" cx="465.577" cy="-100.347" rx="27.6545" ry="27.6545"/>
<text text-anchor="middle" x="465.577" y="-98.1467" font-family="Times,serif" font-size="9.00">35047</text>
</g>
<!-- 62383&#45;&gt;35047 -->
<g id="edge11" class="edge"><title>62383&#45;&gt;35047</title>
<path fill="none" stroke="red" stroke-width="0.283607" d="M343.665,-177.869C366.282,-165.759 400.843,-146.609 429.577,-127.924 431.686,-126.553 433.837,-125.103 435.986,-123.617"/>
<polygon fill="red" stroke="red" stroke-width="0.283607" points="438.051,-126.443 444.17,-117.793 433.993,-120.74 438.051,-126.443"/>
</g>
<!-- 35826 -->
<g id="node23" class="node"><title>35826</title>
<ellipse fill="white" stroke="black" cx="538.577" cy="-100.347" rx="27.6545" ry="27.6545"/>
<text text-anchor="middle" x="538.577" y="-98.1467" font-family="Times,serif" font-size="9.00">35826</text>
</g>
<!-- 62383&#45;&gt;35826 -->
<g id="edge10" class="edge"><title>62383&#45;&gt;35826</title>
<path fill="none" stroke="red" stroke-width="0.309639" d="M346.374,-184.103C382.987,-174.755 450.085,-155.433 502.577,-127.924 504.805,-126.756 507.045,-125.459 509.259,-124.084"/>
<polygon fill="red" stroke="red" stroke-width="0.309639" points="511.228,-126.977 517.583,-118.499 507.329,-121.164 511.228,-126.977"/>
</g>
<!-- 37879 -->
<g id="node24" class="node"><title>37879</title>
<ellipse fill="white" stroke="black" cx="27.5772" cy="-100.347" rx="27.6545" ry="27.6545"/>
<text text-anchor="middle" x="27.5772" y="-98.1467" font-family="Times,serif" font-size="9.00">37879</text>
</g>
<!-- 62383&#45;&gt;37879 -->
<g id="edge17" class="edge"><title>62383&#45;&gt;37879</title>
<path fill="none" stroke="red" stroke-width="0.242408" d="M292.243,-187.42C244.106,-181.223 141.893,-164.587 63.5772,-127.924 61.2993,-126.858 59.0218,-125.636 56.7811,-124.315"/>
<polygon fill="red" stroke="red" stroke-width="0.242408" points="58.6859,-121.379 48.3974,-118.85 54.8632,-127.243 58.6859,-121.379"/>
</g>
<!-- 93124 -->
<g id="node13" class="node"><title>93124</title>
<ellipse fill="white" stroke="black" cx="611.577" cy="-100.347" rx="27.6545" ry="27.6545"/>
<text text-anchor="middle" x="611.577" y="-98.1467" font-family="Times,serif" font-size="9.00">93124</text>
</g>
<!-- 93124&#45;&gt;y0 -->
<g id="edge35" class="edge"><title>93124&#45;&gt;y0</title>
<path fill="none" stroke="green" stroke-width="0.126131" d="M590.819,-81.7083C586.046,-78.329 580.825,-75.1177 575.577,-72.7696 497.946,-38.0303 396.847,-25.5465 348.197,-21.3488"/>
<polygon fill="green" stroke="green" stroke-width="0.126131" points="348.34,-17.8491 338.091,-20.5325 347.777,-24.8264 348.34,-17.8491"/>
</g>
<!-- 84941&#45;&gt;y0 -->
<g id="edge39" class="edge"><title>84941&#45;&gt;y0</title>
<path fill="none" stroke="red" stroke-width="0.214479" d="M194.833,-82.6585C199.574,-79.2201 204.658,-75.7444 209.577,-72.7696 237.109,-56.1204 270.6,-40.4722 293.342,-30.4761"/>
<polygon fill="red" stroke="red" stroke-width="0.214479" points="294.897,-33.6164 302.678,-26.4248 292.111,-27.1949 294.897,-33.6164"/>
</g>
<!-- 27478&#45;&gt;y0 -->
<g id="edge31" class="edge"><title>27478&#45;&gt;y0</title>
<path fill="none" stroke="green" stroke-width="0.479381" d="M264.998,-79.1689C275.947,-67.176 289.799,-52.0025 300.809,-39.9432"/>
<polygon fill="green" stroke="green" stroke-width="0.479381" points="303.416,-42.278 307.574,-32.5329 298.247,-37.5584 303.416,-42.278"/>
</g>
<!-- 37462&#45;&gt;y0 -->
<g id="edge4" class="edge"><title>37462&#45;&gt;y0</title>
<path fill="none" stroke="red" stroke-width="0.168169" d="M319.577,-72.7205C319.577,-64.4151 319.577,-55.2409 319.577,-46.8773"/>
<polygon fill="red" stroke="red" stroke-width="0.168169" points="323.077,-46.8432 319.577,-36.8432 316.077,-46.8432 323.077,-46.8432"/>
</g>
<!-- 47706&#45;&gt;62383 -->
<g id="edge9" class="edge"><title>47706&#45;&gt;62383</title>
<path fill="none" stroke="red" stroke-width="0.442803" d="M313.977,-254.906C314.697,-246.884 315.5,-237.939 316.268,-229.385"/>
<polygon fill="red" stroke="red" stroke-width="0.442803" points="319.771,-229.504 317.179,-219.231 312.799,-228.879 319.771,-229.504"/>
</g>
<!-- 11227&#45;&gt;y0 -->
<g id="edge1" class="edge"><title>11227&#45;&gt;y0</title>
<path fill="none" stroke="red" stroke-width="0.365147" d="M374.156,-79.1689C363.207,-67.176 349.355,-52.0025 338.346,-39.9432"/>
<polygon fill="red" stroke="red" stroke-width="0.365147" points="340.908,-37.5584 331.581,-32.5329 335.738,-42.278 340.908,-37.5584"/>
</g>
<!-- 97390 -->
<g id="node21" class="node"><title>97390</title>
<ellipse fill="white" stroke="black" cx="538.577" cy="-191.501" rx="27.6545" ry="27.6545"/>
<text text-anchor="middle" x="538.577" y="-189.301" font-family="Times,serif" font-size="9.00">97390</text>
</g>
<!-- 99424&#45;&gt;97390 -->
<g id="edge30" class="edge"><title>99424&#45;&gt;97390</title>
<path fill="none" stroke="green" stroke-width="0.175565" d="M475.957,-261.425C487.039,-249.228 501.307,-233.523 513.424,-220.186"/>
<polygon fill="green" stroke="green" stroke-width="0.175565" points="516.136,-222.407 520.27,-212.651 510.955,-217.699 516.136,-222.407"/>
</g>
<!-- 35047&#45;&gt;y0 -->
<g id="edge33" class="edge"><title>35047&#45;&gt;y0</title>
<path fill="none" stroke="red" stroke-width="0.167583" d="M444.321,-82.6585C439.58,-79.2201 434.496,-75.7444 429.577,-72.7696 402.045,-56.1204 368.555,-40.4722 345.813,-30.4761"/>
<polygon fill="red" stroke="red" stroke-width="0.167583" points="347.044,-27.1949 336.477,-26.4248 344.257,-33.6164 347.044,-27.1949"/>
</g>
<!-- 97390&#45;&gt;93124 -->
<g id="edge27" class="edge"><title>97390&#45;&gt;93124</title>
<path fill="none" stroke="green" stroke-width="0.344349" d="M555.877,-169.373C565.423,-157.714 577.418,-143.065 587.83,-130.349"/>
<polygon fill="green" stroke="green" stroke-width="0.344349" points="590.774,-132.278 594.401,-122.323 585.358,-127.843 590.774,-132.278"/>
</g>
<!-- 97390&#45;&gt;35826 -->
<g id="edge28" class="edge"><title>97390&#45;&gt;35826</title>
<path fill="none" stroke="red" stroke-width="0.262815" d="M538.577,-163.752C538.577,-155.73 538.577,-146.785 538.577,-138.23"/>
<polygon fill="red" stroke="red" stroke-width="0.262815" points="542.077,-138.077 538.577,-128.077 535.077,-138.077 542.077,-138.077"/>
</g>
<!-- 30576&#45;&gt;62383 -->
<g id="edge16" class="edge"><title>30576&#45;&gt;62383</title>
<path fill="none" stroke="green" stroke-width="0.527099" d="M515.766,-266.693C509.087,-262.641 501.671,-258.447 494.577,-255.078 448.088,-232.999 391.594,-214.14 355.61,-203.06"/>
<polygon fill="green" stroke="green" stroke-width="0.527099" points="356.616,-199.708 346.03,-200.145 354.578,-206.405 356.616,-199.708"/>
</g>
<!-- 30576&#45;&gt;97390 -->
<g id="edge29" class="edge"><title>30576&#45;&gt;97390</title>
<path fill="none" stroke="red" stroke-width="0.21068" d="M538.577,-254.906C538.577,-246.884 538.577,-237.939 538.577,-229.385"/>
<polygon fill="red" stroke="red" stroke-width="0.21068" points="542.077,-229.231 538.577,-219.231 535.077,-229.231 542.077,-229.231"/>
</g>
<!-- 35826&#45;&gt;y0 -->
<g id="edge32" class="edge"><title>35826&#45;&gt;y0</title>
<path fill="none" stroke="green" stroke-width="0.351948" d="M517.674,-82.0169C512.91,-78.6184 507.729,-75.3212 502.577,-72.7696 450.887,-47.1668 384.754,-31.6807 347.805,-24.4035"/>
<polygon fill="green" stroke="green" stroke-width="0.351948" points="348.237,-20.9229 337.758,-22.4866 346.925,-27.7989 348.237,-20.9229"/>
</g>
<!-- 37879&#45;&gt;y0 -->
<g id="edge5" class="edge"><title>37879&#45;&gt;y0</title>
<path fill="none" stroke="red" stroke-width="0.333905" d="M48.3354,-81.7083C53.108,-78.329 58.3298,-75.1177 63.5772,-72.7696 141.209,-38.0303 242.307,-25.5465 290.958,-21.3488"/>
<polygon fill="red" stroke="red" stroke-width="0.333905" points="291.378,-24.8264 301.063,-20.5325 290.814,-17.8491 291.378,-24.8264"/>
</g>
</g>
</svg>
