<?xml version="1.0" encoding="UTF-8" standalone="no"?>
<!DOCTYPE svg PUBLIC "-//W3C//DTD SVG 1.1//EN"
 "http://www.w3.org/Graphics/SVG/1.1/DTD/svg11.dtd">
<!-- Generated by graphviz version 2.40.1 (20161225.0304)
 -->
<!-- Title: %3 Pages: 1 -->
<svg width="476pt" height="387pt"
 viewBox="0.00 0.00 476.45 386.70" xmlns="http://www.w3.org/2000/svg" xmlns:xlink="http://www.w3.org/1999/xlink">
<g id="graph0" class="graph" transform="scale(1 1) rotate(0) translate(4 382.697)">
<title>%3</title>
<polygon fill="#ffffff" stroke="transparent" points="-4,4 -4,-382.697 472.4472,-382.697 472.4472,4 -4,4"/>
<!-- x0 -->
<g id="node1" class="node">
<title>x0</title>
<polygon fill="#d3d3d3" stroke="#000000" points="153.2236,-378.697 117.2236,-378.697 117.2236,-342.697 153.2236,-342.697 153.2236,-378.697"/>
<text text-anchor="middle" x="135.2236" y="-357.997" font-family="Times,serif" font-size="9.00" fill="#000000">x0</text>
</g>
<!-- 73875 -->
<g id="node12" class="node">
<title>73875</title>
<ellipse fill="#ffffff" stroke="#000000" cx="159.2236" cy="-279.4734" rx="27.4491" ry="27.4491"/>
<text text-anchor="middle" x="159.2236" y="-276.7734" font-family="Times,serif" font-size="9.00" fill="#000000">73875</text>
</g>
<!-- x0&#45;&gt;73875 -->
<g id="edge33" class="edge">
<title>x0&#45;&gt;73875</title>
<path fill="none" stroke="#00ff00" stroke-width=".8201" d="M140.55,-342.6709C142.9279,-334.6234 145.8183,-324.8411 148.6077,-315.4009"/>
<polygon fill="#00ff00" stroke="#00ff00" stroke-width=".8201" points="151.975,-316.3562 151.4522,-305.7743 145.2619,-314.3726 151.975,-316.3562"/>
</g>
<!-- 175 -->
<g id="node14" class="node">
<title>175</title>
<ellipse fill="#ffffff" stroke="#000000" cx="93.2236" cy="-279.4734" rx="20.7202" ry="20.7202"/>
<text text-anchor="middle" x="93.2236" y="-276.7734" font-family="Times,serif" font-size="9.00" fill="#000000">175</text>
</g>
<!-- x0&#45;&gt;175 -->
<g id="edge1" class="edge">
<title>x0&#45;&gt;175</title>
<path fill="none" stroke="#ff0000" stroke-width=".6799" d="M125.9024,-342.6709C120.4868,-332.1975 113.5516,-318.7856 107.4646,-307.0139"/>
<polygon fill="#ff0000" stroke="#ff0000" stroke-width=".6799" points="110.5121,-305.2874 102.8099,-298.0123 104.2942,-308.5026 110.5121,-305.2874"/>
</g>
<!-- 71602 -->
<g id="node18" class="node">
<title>71602</title>
<ellipse fill="#ffffff" stroke="#000000" cx="231.2236" cy="-279.4734" rx="27.4491" ry="27.4491"/>
<text text-anchor="middle" x="231.2236" y="-276.7734" font-family="Times,serif" font-size="9.00" fill="#000000">71602</text>
</g>
<!-- x0&#45;&gt;71602 -->
<g id="edge25" class="edge">
<title>x0&#45;&gt;71602</title>
<path fill="none" stroke="#ff0000" stroke-width=".5095" d="M153.2805,-345.4195C167.0635,-333.7579 186.331,-317.4561 202.2604,-303.9786"/>
<polygon fill="#ff0000" stroke="#ff0000" stroke-width=".5095" points="204.866,-306.3588 210.2394,-297.2277 200.3446,-301.0148 204.866,-306.3588"/>
</g>
<!-- 63080 -->
<g id="node24" class="node">
<title>63080</title>
<ellipse fill="#ffffff" stroke="#000000" cx="27.2236" cy="-279.4734" rx="27.4491" ry="27.4491"/>
<text text-anchor="middle" x="27.2236" y="-276.7734" font-family="Times,serif" font-size="9.00" fill="#000000">63080</text>
</g>
<!-- x0&#45;&gt;63080 -->
<g id="edge19" class="edge">
<title>x0&#45;&gt;63080</title>
<path fill="none" stroke="#ff0000" stroke-width=".4554" d="M117.1591,-347.1796C102.5881,-336.2689 81.5713,-320.5146 63.2236,-306.697 61.3928,-305.3182 59.5103,-303.899 57.6119,-302.4668"/>
<polygon fill="#ff0000" stroke="#ff0000" stroke-width=".4554" points="59.3872,-299.4216 49.2979,-296.1879 55.1686,-305.0076 59.3872,-299.4216"/>
</g>
<!-- x1 -->
<g id="node2" class="node">
<title>x1</title>
<polygon fill="#d3d3d3" stroke="#000000" points="99.2236,-378.697 63.2236,-378.697 63.2236,-342.697 99.2236,-342.697 99.2236,-378.697"/>
<text text-anchor="middle" x="81.2236" y="-357.997" font-family="Times,serif" font-size="9.00" fill="#000000">x1</text>
</g>
<!-- x1&#45;&gt;73875 -->
<g id="edge35" class="edge">
<title>x1&#45;&gt;73875</title>
<path fill="none" stroke="#ff0000" stroke-width=".1107" d="M98.5343,-342.6709C108.6958,-332.0894 121.7377,-318.5085 133.1256,-306.65"/>
<polygon fill="#ff0000" stroke="#ff0000" stroke-width=".1107" points="135.9213,-308.7919 140.3233,-299.1548 130.8723,-303.9433 135.9213,-308.7919"/>
</g>
<!-- x1&#45;&gt;175 -->
<g id="edge2" class="edge">
<title>x1&#45;&gt;175</title>
<path fill="none" stroke="#00ff00" stroke-width=".862" d="M83.8868,-342.6709C85.2891,-333.1789 87.0481,-321.2735 88.66,-310.3627"/>
<polygon fill="#00ff00" stroke="#00ff00" stroke-width=".862" points="92.1448,-310.7221 90.144,-300.318 85.22,-309.699 92.1448,-310.7221"/>
</g>
<!-- x1&#45;&gt;63080 -->
<g id="edge15" class="edge">
<title>x1&#45;&gt;63080</title>
<path fill="none" stroke="#ff0000" stroke-width=".7633" d="M69.2393,-342.6709C63.0118,-333.3038 55.2216,-321.5863 48.0464,-310.7939"/>
<polygon fill="#ff0000" stroke="#ff0000" stroke-width=".7633" points="50.9167,-308.7892 42.4656,-302.3994 45.0874,-312.6648 50.9167,-308.7892"/>
</g>
<!-- x2 -->
<g id="node3" class="node">
<title>x2</title>
<polygon fill="#d3d3d3" stroke="#000000" points="207.2236,-378.697 171.2236,-378.697 171.2236,-342.697 207.2236,-342.697 207.2236,-378.697"/>
<text text-anchor="middle" x="189.2236" y="-357.997" font-family="Times,serif" font-size="9.00" fill="#000000">x2</text>
</g>
<!-- x2&#45;&gt;73875 -->
<g id="edge39" class="edge">
<title>x2&#45;&gt;73875</title>
<path fill="none" stroke="#ff0000" stroke-width=".1574" d="M182.5656,-342.6709C179.5102,-334.3985 175.7777,-324.2929 172.2014,-314.6103"/>
<polygon fill="#ff0000" stroke="#ff0000" stroke-width=".1574" points="175.4561,-313.3201 168.7081,-305.1521 168.8897,-315.7454 175.4561,-313.3201"/>
</g>
<!-- x2&#45;&gt;175 -->
<g id="edge4" class="edge">
<title>x2&#45;&gt;175</title>
<path fill="none" stroke="#ff0000" stroke-width=".8853" d="M171.0899,-346.2739C157.7134,-335.535 139.1484,-320.4215 123.2236,-306.697 120.976,-304.76 118.6545,-302.722 116.3445,-300.6691"/>
<polygon fill="#ff0000" stroke="#ff0000" stroke-width=".8853" points="118.4344,-297.8413 108.6588,-293.756 113.7531,-303.0458 118.4344,-297.8413"/>
</g>
<!-- 62029 -->
<g id="node22" class="node">
<title>62029</title>
<ellipse fill="#ffffff" stroke="#000000" cx="303.2236" cy="-279.4734" rx="27.4491" ry="27.4491"/>
<text text-anchor="middle" x="303.2236" y="-276.7734" font-family="Times,serif" font-size="9.00" fill="#000000">62029</text>
</g>
<!-- x2&#45;&gt;62029 -->
<g id="edge18" class="edge">
<title>x2&#45;&gt;62029</title>
<path fill="none" stroke="#ff0000" stroke-width=".5084" d="M207.3423,-348.4692C223.2479,-337.6602 246.9435,-321.3753 267.2236,-306.697 269.0803,-305.3532 270.9827,-303.961 272.8961,-302.5492"/>
<polygon fill="#ff0000" stroke="#ff0000" stroke-width=".5084" points="275.3235,-305.1051 281.2479,-296.3214 271.139,-299.4934 275.3235,-305.1051"/>
</g>
<!-- x2&#45;&gt;63080 -->
<g id="edge20" class="edge">
<title>x2&#45;&gt;63080</title>
<path fill="none" stroke="#ff0000" stroke-width=".5201" d="M170.9858,-347.6975C168.1196,-345.9028 165.1392,-344.1721 162.2236,-342.697 120.4473,-321.5608 104.3531,-329.0658 63.2236,-306.697 60.995,-305.485 58.7544,-304.1441 56.5403,-302.7263"/>
<polygon fill="#ff0000" stroke="#ff0000" stroke-width=".5201" points="58.4344,-299.7811 48.2146,-296.9872 54.4615,-305.5444 58.4344,-299.7811"/>
</g>
<!-- x3 -->
<g id="node4" class="node">
<title>x3</title>
<polygon fill="#d3d3d3" stroke="#000000" points="45.2236,-378.697 9.2236,-378.697 9.2236,-342.697 45.2236,-342.697 45.2236,-378.697"/>
<text text-anchor="middle" x="27.2236" y="-357.997" font-family="Times,serif" font-size="9.00" fill="#000000">x3</text>
</g>
<!-- x3&#45;&gt;175 -->
<g id="edge5" class="edge">
<title>x3&#45;&gt;175</title>
<path fill="none" stroke="#ff0000" stroke-width=".6807" d="M41.8712,-342.6709C51.217,-331.1693 63.4424,-316.1239 73.6201,-303.5986"/>
<polygon fill="#ff0000" stroke="#ff0000" stroke-width=".6807" points="76.3718,-305.7623 79.9618,-295.7942 70.9392,-301.3479 76.3718,-305.7623"/>
</g>
<!-- x3&#45;&gt;63080 -->
<g id="edge17" class="edge">
<title>x3&#45;&gt;63080</title>
<path fill="none" stroke="#00ff00" stroke-width=".8866" d="M27.2236,-342.6709C27.2236,-334.9966 27.2236,-325.7446 27.2236,-316.7162"/>
<polygon fill="#00ff00" stroke="#00ff00" stroke-width=".8866" points="30.7237,-316.7138 27.2236,-306.7138 23.7237,-316.7139 30.7237,-316.7138"/>
</g>
<!-- x4 -->
<g id="node5" class="node">
<title>x4</title>
<polygon fill="#d3d3d3" stroke="#000000" points="455.2236,-378.697 419.2236,-378.697 419.2236,-342.697 455.2236,-342.697 455.2236,-378.697"/>
<text text-anchor="middle" x="437.2236" y="-357.997" font-family="Times,serif" font-size="9.00" fill="#000000">x4</text>
</g>
<!-- 3879 -->
<g id="node13" class="node">
<title>3879</title>
<ellipse fill="#ffffff" stroke="#000000" cx="372.2236" cy="-279.4734" rx="24.0833" ry="24.0833"/>
<text text-anchor="middle" x="372.2236" y="-276.7734" font-family="Times,serif" font-size="9.00" fill="#000000">3879</text>
</g>
<!-- x4&#45;&gt;3879 -->
<g id="edge8" class="edge">
<title>x4&#45;&gt;3879</title>
<path fill="none" stroke="#00ff00" stroke-width=".2483" d="M422.798,-342.6709C414.2284,-331.9623 403.2005,-318.1819 393.6307,-306.2235"/>
<polygon fill="#00ff00" stroke="#00ff00" stroke-width=".2483" points="396.2674,-303.9167 387.2865,-298.2959 390.802,-308.2905 396.2674,-303.9167"/>
</g>
<!-- 64959 -->
<g id="node20" class="node">
<title>64959</title>
<ellipse fill="#ffffff" stroke="#000000" cx="441.2236" cy="-279.4734" rx="27.4491" ry="27.4491"/>
<text text-anchor="middle" x="441.2236" y="-276.7734" font-family="Times,serif" font-size="9.00" fill="#000000">64959</text>
</g>
<!-- x4&#45;&gt;64959 -->
<g id="edge16" class="edge">
<title>x4&#45;&gt;64959</title>
<path fill="none" stroke="#ff0000" stroke-width=".2087" d="M438.1113,-342.6709C438.4893,-334.9966 438.9449,-325.7446 439.3895,-316.7162"/>
<polygon fill="#ff0000" stroke="#ff0000" stroke-width=".2087" points="442.8859,-316.8739 439.8821,-306.7138 435.8944,-316.5295 442.8859,-316.8739"/>
</g>
<!-- x5 -->
<g id="node6" class="node">
<title>x5</title>
<polygon fill="#d3d3d3" stroke="#000000" points="328.2236,-378.697 292.2236,-378.697 292.2236,-342.697 328.2236,-342.697 328.2236,-378.697"/>
<text text-anchor="middle" x="310.2236" y="-357.997" font-family="Times,serif" font-size="9.00" fill="#000000">x5</text>
</g>
<!-- x5&#45;&gt;3879 -->
<g id="edge10" class="edge">
<title>x5&#45;&gt;3879</title>
<path fill="none" stroke="#00ff00" stroke-width=".9" d="M323.9834,-342.6709C331.9641,-332.2157 342.1799,-318.8324 351.1543,-307.0755"/>
<polygon fill="#00ff00" stroke="#00ff00" stroke-width=".9" points="354.1344,-308.9397 357.4199,-298.8672 348.5701,-304.6924 354.1344,-308.9397"/>
</g>
<!-- x5&#45;&gt;71602 -->
<g id="edge32" class="edge">
<title>x5&#45;&gt;71602</title>
<path fill="none" stroke="#ff0000" stroke-width=".1922" d="M292.691,-342.6709C282.3992,-332.0894 269.1901,-318.5085 257.6562,-306.65"/>
<polygon fill="#ff0000" stroke="#ff0000" stroke-width=".1922" points="259.8475,-303.883 250.3662,-299.1548 254.8295,-308.7636 259.8475,-303.883"/>
</g>
<!-- x5&#45;&gt;64959 -->
<g id="edge23" class="edge">
<title>x5&#45;&gt;64959</title>
<path fill="none" stroke="#00ff00" stroke-width=".7335" d="M328.5004,-351.227C347.943,-340.9428 379.3943,-323.6998 405.2236,-306.697 407.3426,-305.3021 409.5014,-303.8247 411.656,-302.3078"/>
<polygon fill="#00ff00" stroke="#00ff00" stroke-width=".7335" points="413.8191,-305.0625 419.8527,-296.3536 409.705,-299.3991 413.8191,-305.0625"/>
</g>
<!-- x5&#45;&gt;62029 -->
<g id="edge31" class="edge">
<title>x5&#45;&gt;62029</title>
<path fill="none" stroke="#00ff00" stroke-width=".1072" d="M308.6701,-342.6709C308.0087,-334.9966 307.2113,-325.7446 306.4333,-316.7162"/>
<polygon fill="#00ff00" stroke="#00ff00" stroke-width=".1072" points="309.917,-316.3764 305.5712,-306.7138 302.9429,-316.9775 309.917,-316.3764"/>
</g>
<!-- x6 -->
<g id="node7" class="node">
<title>x6</title>
<polygon fill="#d3d3d3" stroke="#000000" points="397.2236,-378.697 361.2236,-378.697 361.2236,-342.697 397.2236,-342.697 397.2236,-378.697"/>
<text text-anchor="middle" x="379.2236" y="-357.997" font-family="Times,serif" font-size="9.00" fill="#000000">x6</text>
</g>
<!-- x6&#45;&gt;3879 -->
<g id="edge14" class="edge">
<title>x6&#45;&gt;3879</title>
<path fill="none" stroke="#ff0000" stroke-width=".3072" d="M377.6701,-342.6709C376.9347,-334.1378 376.0312,-323.6541 375.173,-313.6961"/>
<polygon fill="#ff0000" stroke="#ff0000" stroke-width=".3072" points="378.6498,-313.2755 374.304,-303.6129 371.6757,-313.8766 378.6498,-313.2755"/>
</g>
<!-- x6&#45;&gt;64959 -->
<g id="edge22" class="edge">
<title>x6&#45;&gt;64959</title>
<path fill="none" stroke="#00ff00" stroke-width=".3982" d="M392.9834,-342.6709C400.4317,-332.9131 409.827,-320.6048 418.3429,-309.4485"/>
<polygon fill="#00ff00" stroke="#00ff00" stroke-width=".3982" points="421.3513,-311.2757 424.6368,-301.2031 415.787,-307.0284 421.3513,-311.2757"/>
</g>
<!-- x7 -->
<g id="node8" class="node">
<title>x7</title>
<polygon fill="#d3d3d3" stroke="#000000" points="264.2236,-378.697 228.2236,-378.697 228.2236,-342.697 264.2236,-342.697 264.2236,-378.697"/>
<text text-anchor="middle" x="246.2236" y="-357.997" font-family="Times,serif" font-size="9.00" fill="#000000">x7</text>
</g>
<!-- x7&#45;&gt;3879 -->
<g id="edge11" class="edge">
<title>x7&#45;&gt;3879</title>
<path fill="none" stroke="#00ff00" stroke-width=".9" d="M264.2365,-351.3771C283.3708,-341.2182 314.2435,-324.0789 339.2236,-306.697 341.3574,-305.2123 343.5245,-303.6247 345.676,-301.9901"/>
<polygon fill="#00ff00" stroke="#00ff00" stroke-width=".9" points="348.1205,-304.5192 353.793,-295.5708 343.7783,-299.0286 348.1205,-304.5192"/>
</g>
<!-- x7&#45;&gt;71602 -->
<g id="edge40" class="edge">
<title>x7&#45;&gt;71602</title>
<path fill="none" stroke="#00ff00" stroke-width=".3469" d="M242.8946,-342.6709C241.4648,-334.9286 239.7385,-325.5807 238.0572,-316.4765"/>
<polygon fill="#00ff00" stroke="#00ff00" stroke-width=".3469" points="241.4542,-315.5979 236.1963,-306.3998 234.5706,-316.8692 241.4542,-315.5979"/>
</g>
<!-- y0 -->
<g id="node9" class="node">
<title>y0</title>
<ellipse fill="#add8e6" stroke="#000000" cx="303.2236" cy="-17.6777" rx="17.8571" ry="17.8571"/>
<text text-anchor="middle" x="303.2236" y="-14.9777" font-family="Times,serif" font-size="9.00" fill="#000000">y0</text>
</g>
<!-- 73864 -->
<g id="node10" class="node">
<title>73864</title>
<ellipse fill="#ffffff" stroke="#000000" cx="402.2236" cy="-189.0262" rx="27.4491" ry="27.4491"/>
<text text-anchor="middle" x="402.2236" y="-186.3262" font-family="Times,serif" font-size="9.00" fill="#000000">73864</text>
</g>
<!-- 73103 -->
<g id="node11" class="node">
<title>73103</title>
<ellipse fill="#ffffff" stroke="#000000" cx="435.2236" cy="-98.579" rx="27.4491" ry="27.4491"/>
<text text-anchor="middle" x="435.2236" y="-95.879" font-family="Times,serif" font-size="9.00" fill="#000000">73103</text>
</g>
<!-- 73864&#45;&gt;73103 -->
<g id="edge29" class="edge">
<title>73864&#45;&gt;73103</title>
<path fill="none" stroke="#00ff00" stroke-width=".2416" d="M411.5918,-163.3496C414.936,-154.1837 418.7642,-143.6914 422.3516,-133.8588"/>
<polygon fill="#00ff00" stroke="#00ff00" stroke-width=".2416" points="425.6924,-134.9137 425.832,-124.3198 419.1164,-132.5144 425.6924,-134.9137"/>
</g>
<!-- 73103&#45;&gt;y0 -->
<g id="edge28" class="edge">
<title>73103&#45;&gt;y0</title>
<path fill="none" stroke="#00ff00" stroke-width=".1467" d="M413.8697,-81.6729C409.1342,-78.1391 404.0782,-74.5265 399.2236,-71.3553 375.8684,-56.0988 347.9051,-40.774 328.1994,-30.4275"/>
<polygon fill="#00ff00" stroke="#00ff00" stroke-width=".1467" points="329.7322,-27.2796 319.2454,-25.7703 326.5021,-33.4899 329.7322,-27.2796"/>
</g>
<!-- 70479 -->
<g id="node23" class="node">
<title>70479</title>
<ellipse fill="#ffffff" stroke="#000000" cx="159.2236" cy="-189.0262" rx="27.4491" ry="27.4491"/>
<text text-anchor="middle" x="159.2236" y="-186.3262" font-family="Times,serif" font-size="9.00" fill="#000000">70479</text>
</g>
<!-- 73875&#45;&gt;70479 -->
<g id="edge30" class="edge">
<title>73875&#45;&gt;70479</title>
<path fill="none" stroke="#00ff00" stroke-width=".1997" d="M159.2236,-251.8448C159.2236,-243.8671 159.2236,-235.0239 159.2236,-226.5521"/>
<polygon fill="#00ff00" stroke="#00ff00" stroke-width=".1997" points="162.7237,-226.4856 159.2236,-216.4856 155.7237,-226.4856 162.7237,-226.4856"/>
</g>
<!-- 176 -->
<g id="node15" class="node">
<title>176</title>
<ellipse fill="#ffffff" stroke="#000000" cx="303.2236" cy="-189.0262" rx="20.7202" ry="20.7202"/>
<text text-anchor="middle" x="303.2236" y="-186.3262" font-family="Times,serif" font-size="9.00" fill="#000000">176</text>
</g>
<!-- 3879&#45;&gt;176 -->
<g id="edge9" class="edge">
<title>3879&#45;&gt;176</title>
<path fill="none" stroke="#ff0000" stroke-width=".6989" d="M357.5905,-260.2919C347.2729,-246.7673 333.3594,-228.529 322.1907,-213.8887"/>
<polygon fill="#ff0000" stroke="#ff0000" stroke-width=".6989" points="324.8279,-211.5751 315.9798,-205.7474 319.2625,-215.8209 324.8279,-211.5751"/>
</g>
<!-- 175&#45;&gt;73864 -->
<g id="edge41" class="edge">
<title>175&#45;&gt;73864</title>
<path fill="none" stroke="#ff0000" stroke-width=".2138" d="M107.2232,-263.7597C111.8962,-259.3967 117.4067,-255.0837 123.2236,-252.2498 208.3529,-210.7755 242.0302,-241.7621 333.2236,-216.2498 344.8298,-213.0028 357.1715,-208.4916 368.1599,-204.0745"/>
<polygon fill="#ff0000" stroke="#ff0000" stroke-width=".2138" points="369.5093,-207.304 377.4155,-200.2511 366.8367,-200.8343 369.5093,-207.304"/>
</g>
<!-- 175&#45;&gt;176 -->
<g id="edge3" class="edge">
<title>175&#45;&gt;176</title>
<path fill="none" stroke="#00ff00" stroke-width=".9" d="M107.8478,-264.0651C112.4637,-259.8164 117.7859,-255.4898 123.2236,-252.2498 171.6517,-223.3948 235.2482,-204.9621 272.4381,-195.8476"/>
<polygon fill="#00ff00" stroke="#00ff00" stroke-width=".9" points="273.7216,-199.14 282.6395,-193.4198 272.1009,-192.3302 273.7216,-199.14"/>
</g>
<!-- 177 -->
<g id="node16" class="node">
<title>177</title>
<ellipse fill="#ffffff" stroke="#000000" cx="369.2236" cy="-98.579" rx="20.7202" ry="20.7202"/>
<text text-anchor="middle" x="369.2236" y="-95.879" font-family="Times,serif" font-size="9.00" fill="#000000">177</text>
</g>
<!-- 176&#45;&gt;177 -->
<g id="edge6" class="edge">
<title>176&#45;&gt;177</title>
<path fill="none" stroke="#00ff00" stroke-width=".553" d="M315.6377,-172.0137C325.5937,-158.3699 339.7121,-139.0219 350.9578,-123.6107"/>
<polygon fill="#00ff00" stroke="#00ff00" stroke-width=".553" points="353.7979,-125.6562 356.8652,-115.5151 348.1433,-121.53 353.7979,-125.6562"/>
</g>
<!-- 71090 -->
<g id="node17" class="node">
<title>71090</title>
<ellipse fill="#ffffff" stroke="#000000" cx="231.2236" cy="-98.579" rx="27.4491" ry="27.4491"/>
<text text-anchor="middle" x="231.2236" y="-95.879" font-family="Times,serif" font-size="9.00" fill="#000000">71090</text>
</g>
<!-- 176&#45;&gt;71090 -->
<g id="edge36" class="edge">
<title>176&#45;&gt;71090</title>
<path fill="none" stroke="#00ff00" stroke-width=".2281" d="M290.0177,-172.4368C280.1526,-160.0441 266.408,-142.778 254.6886,-128.0559"/>
<polygon fill="#00ff00" stroke="#00ff00" stroke-width=".2281" points="257.3901,-125.8298 248.4236,-120.1858 251.9134,-130.1895 257.3901,-125.8298"/>
</g>
<!-- 39870 -->
<g id="node19" class="node">
<title>39870</title>
<ellipse fill="#ffffff" stroke="#000000" cx="303.2236" cy="-98.579" rx="27.4491" ry="27.4491"/>
<text text-anchor="middle" x="303.2236" y="-95.879" font-family="Times,serif" font-size="9.00" fill="#000000">39870</text>
</g>
<!-- 176&#45;&gt;39870 -->
<g id="edge13" class="edge">
<title>176&#45;&gt;39870</title>
<path fill="none" stroke="#ff0000" stroke-width=".9" d="M303.2236,-168.0484C303.2236,-158.5572 303.2236,-147.043 303.2236,-136.1407"/>
<polygon fill="#ff0000" stroke="#ff0000" stroke-width=".9" points="306.7237,-135.9615 303.2236,-125.9616 299.7237,-135.9616 306.7237,-135.9615"/>
</g>
<!-- 177&#45;&gt;y0 -->
<g id="edge7" class="edge">
<title>177&#45;&gt;y0</title>
<path fill="none" stroke="#ff0000" stroke-width=".9" d="M355.8675,-82.2074C345.8234,-69.8956 331.9621,-52.9046 320.984,-39.448"/>
<polygon fill="#ff0000" stroke="#ff0000" stroke-width=".9" points="323.6146,-37.1356 314.5811,-31.5995 318.1905,-41.5606 323.6146,-37.1356"/>
</g>
<!-- 71090&#45;&gt;y0 -->
<g id="edge24" class="edge">
<title>71090&#45;&gt;y0</title>
<path fill="none" stroke="#00ff00" stroke-width=".3583" d="M249.3923,-78.1641C260.191,-66.0303 273.8537,-50.6786 284.7122,-38.4776"/>
<polygon fill="#00ff00" stroke="#00ff00" stroke-width=".3583" points="287.351,-40.7772 291.3847,-30.9802 282.122,-36.1234 287.351,-40.7772"/>
</g>
<!-- 71602&#45;&gt;70479 -->
<g id="edge26" class="edge">
<title>71602&#45;&gt;70479</title>
<path fill="none" stroke="#00ff00" stroke-width=".1416" d="M214.1606,-258.0387C204.8138,-246.2971 193.0861,-231.5646 182.8692,-218.7301"/>
<polygon fill="#00ff00" stroke="#00ff00" stroke-width=".1416" points="185.3801,-216.2644 176.4136,-210.6205 179.9034,-220.6241 185.3801,-216.2644"/>
</g>
<!-- 39870&#45;&gt;y0 -->
<g id="edge12" class="edge">
<title>39870&#45;&gt;y0</title>
<path fill="none" stroke="#ff0000" stroke-width=".2104" d="M303.2236,-71.1895C303.2236,-63.0299 303.2236,-54.0761 303.2236,-45.8665"/>
<polygon fill="#ff0000" stroke="#ff0000" stroke-width=".2104" points="306.7237,-45.6323 303.2236,-35.6323 299.7237,-45.6323 306.7237,-45.6323"/>
</g>
<!-- 64959&#45;&gt;73864 -->
<g id="edge34" class="edge">
<title>64959&#45;&gt;73864</title>
<path fill="none" stroke="#ff0000" stroke-width=".657" d="M430.3599,-254.2788C426.2607,-244.7721 421.5234,-233.7855 417.1186,-223.5701"/>
<polygon fill="#ff0000" stroke="#ff0000" stroke-width=".657" points="420.2025,-221.8825 413.029,-214.0857 413.7746,-224.6542 420.2025,-221.8825"/>
</g>
<!-- 64959&#45;&gt;176 -->
<g id="edge37" class="edge">
<title>64959&#45;&gt;176</title>
<path fill="none" stroke="#ff0000" stroke-width=".3545" d="M419.3755,-262.4443C414.7595,-258.9904 409.8763,-255.4408 405.2236,-252.2498 380.379,-235.2099 351.0577,-217.2481 330.2438,-204.8426"/>
<polygon fill="#ff0000" stroke="#ff0000" stroke-width=".3545" points="331.9915,-201.8099 321.6046,-199.7212 328.4219,-207.8314 331.9915,-201.8099"/>
</g>
<!-- 75847 -->
<g id="node21" class="node">
<title>75847</title>
<ellipse fill="#ffffff" stroke="#000000" cx="159.2236" cy="-98.579" rx="27.4491" ry="27.4491"/>
<text text-anchor="middle" x="159.2236" y="-95.879" font-family="Times,serif" font-size="9.00" fill="#000000">75847</text>
</g>
<!-- 75847&#45;&gt;y0 -->
<g id="edge43" class="edge">
<title>75847&#45;&gt;y0</title>
<path fill="none" stroke="#ff0000" stroke-width=".1139" d="M180.4629,-81.4927C185.2055,-77.9701 190.2935,-74.4077 195.2236,-71.3553 222.2068,-54.6495 255.0973,-38.9091 277.4411,-28.8472"/>
<polygon fill="#ff0000" stroke="#ff0000" stroke-width=".1139" points="278.8988,-32.0295 286.6143,-24.7685 276.0548,-25.6332 278.8988,-32.0295"/>
</g>
<!-- 62029&#45;&gt;73864 -->
<g id="edge44" class="edge">
<title>62029&#45;&gt;73864</title>
<path fill="none" stroke="#00ff00" stroke-width=".2569" d="M323.7365,-260.7327C338.4353,-247.3037 358.3994,-229.0643 374.5141,-214.3418"/>
<polygon fill="#00ff00" stroke="#00ff00" stroke-width=".2569" points="377.0537,-216.7624 382.0758,-207.4334 372.3322,-211.5944 377.0537,-216.7624"/>
</g>
<!-- 62029&#45;&gt;176 -->
<g id="edge27" class="edge">
<title>62029&#45;&gt;176</title>
<path fill="none" stroke="#ff0000" stroke-width=".1371" d="M303.2236,-251.8448C303.2236,-241.897 303.2236,-230.6035 303.2236,-220.3623"/>
<polygon fill="#ff0000" stroke="#ff0000" stroke-width=".1371" points="306.7237,-220.1713 303.2236,-210.1714 299.7237,-220.1714 306.7237,-220.1713"/>
</g>
<!-- 70479&#45;&gt;75847 -->
<g id="edge42" class="edge">
<title>70479&#45;&gt;75847</title>
<path fill="none" stroke="#ff0000" stroke-width=".3095" d="M159.2236,-161.3976C159.2236,-153.4198 159.2236,-144.5767 159.2236,-136.1048"/>
<polygon fill="#ff0000" stroke="#ff0000" stroke-width=".3095" points="162.7237,-136.0383 159.2236,-126.0384 155.7237,-136.0384 162.7237,-136.0383"/>
</g>
<!-- 63080&#45;&gt;176 -->
<g id="edge21" class="edge">
<title>63080&#45;&gt;176</title>
<path fill="none" stroke="#00ff00" stroke-width=".9" d="M48.0311,-261.6032C52.8006,-258.1294 58.0087,-254.7851 63.2236,-252.2498 72.7937,-247.5971 210.5391,-212.4692 272.9188,-196.6763"/>
<polygon fill="#00ff00" stroke="#00ff00" stroke-width=".9" points="274.1126,-199.9846 282.9489,-194.1391 272.3959,-193.1984 274.1126,-199.9846"/>
</g>
<!-- 63080&#45;&gt;70479 -->
<g id="edge38" class="edge">
<title>63080&#45;&gt;70479</title>
<path fill="none" stroke="#ff0000" stroke-width=".2913" d="M49.1404,-262.543C53.7515,-259.0819 58.6153,-255.5045 63.2236,-252.2498 84.3318,-237.3417 108.6485,-221.3389 127.5271,-209.1633"/>
<polygon fill="#ff0000" stroke="#ff0000" stroke-width=".2913" points="129.5313,-212.0358 136.053,-203.686 125.7478,-206.1464 129.5313,-212.0358"/>
</g>
</g>
</svg>
