<?xml version="1.0" encoding="UTF-8" standalone="no"?>
<!DOCTYPE svg PUBLIC "-//W3C//DTD SVG 1.1//EN"
 "http://www.w3.org/Graphics/SVG/1.1/DTD/svg11.dtd">
<!-- Generated by graphviz version 2.38.0 (20140413.2041)
 -->
<!-- Title: %3 Pages: 1 -->
<svg width="574pt" height="390pt"
 viewBox="0.00 0.00 574.15 390.23" xmlns="http://www.w3.org/2000/svg" xmlns:xlink="http://www.w3.org/1999/xlink">
<g id="graph0" class="graph" transform="scale(1 1) rotate(0) translate(4 386.233)">
<title>%3</title>
<polygon fill="white" stroke="none" points="-4,4 -4,-386.233 570.154,-386.233 570.154,4 -4,4"/>
<!-- x0 -->
<g id="node1" class="node"><title>x0</title>
<polygon fill="lightgray" stroke="black" points="459.577,-382.233 423.577,-382.233 423.577,-346.233 459.577,-346.233 459.577,-382.233"/>
<text text-anchor="middle" x="441.577" y="-362.033" font-family="Times,serif" font-size="9.00">x0</text>
</g>
<!-- 4776 -->
<g id="node16" class="node"><title>4776</title>
<ellipse fill="white" stroke="black" cx="425.577" cy="-282.655" rx="25" ry="25"/>
<text text-anchor="middle" x="425.577" y="-280.455" font-family="Times,serif" font-size="9.00">4776</text>
</g>
<!-- x0&#45;&gt;4776 -->
<g id="edge1" class="edge"><title>x0&#45;&gt;4776</title>
<path fill="none" stroke="red" stroke-width="0.637077" d="M438.105,-345.965C436.414,-337.552 434.319,-327.135 432.33,-317.242"/>
<polygon fill="red" stroke="red" stroke-width="0.637077" points="435.719,-316.342 430.317,-307.228 428.857,-317.722 435.719,-316.342"/>
</g>
<!-- 81495 -->
<g id="node23" class="node"><title>81495</title>
<ellipse fill="white" stroke="black" cx="495.577" cy="-282.655" rx="27.6545" ry="27.6545"/>
<text text-anchor="middle" x="495.577" y="-280.455" font-family="Times,serif" font-size="9.00">81495</text>
</g>
<!-- x0&#45;&gt;81495 -->
<g id="edge33" class="edge"><title>x0&#45;&gt;81495</title>
<path fill="none" stroke="red" stroke-width="0.125922" d="M453.294,-345.965C459.56,-336.732 467.463,-325.085 474.737,-314.367"/>
<polygon fill="red" stroke="red" stroke-width="0.125922" points="477.672,-316.274 480.391,-306.034 471.88,-312.343 477.672,-316.274"/>
</g>
<!-- x1 -->
<g id="node2" class="node"><title>x1</title>
<polygon fill="lightgray" stroke="black" points="351.577,-382.233 315.577,-382.233 315.577,-346.233 351.577,-346.233 351.577,-382.233"/>
<text text-anchor="middle" x="333.577" y="-362.033" font-family="Times,serif" font-size="9.00">x1</text>
</g>
<!-- 42508 -->
<g id="node11" class="node"><title>42508</title>
<ellipse fill="white" stroke="black" cx="282.577" cy="-282.655" rx="27.6545" ry="27.6545"/>
<text text-anchor="middle" x="282.577" y="-280.455" font-family="Times,serif" font-size="9.00">42508</text>
</g>
<!-- x1&#45;&gt;42508 -->
<g id="edge11" class="edge"><title>x1&#45;&gt;42508</title>
<path fill="none" stroke="green" stroke-width="0.706127" d="M322.511,-345.965C316.698,-336.895 309.392,-325.495 302.624,-314.935"/>
<polygon fill="green" stroke="green" stroke-width="0.706127" points="305.452,-312.862 297.11,-306.331 299.559,-316.639 305.452,-312.862"/>
</g>
<!-- 46244 -->
<g id="node15" class="node"><title>46244</title>
<ellipse fill="white" stroke="black" cx="136.577" cy="-282.655" rx="27.6545" ry="27.6545"/>
<text text-anchor="middle" x="136.577" y="-280.455" font-family="Times,serif" font-size="9.00">46244</text>
</g>
<!-- x1&#45;&gt;46244 -->
<g id="edge28" class="edge"><title>x1&#45;&gt;46244</title>
<path fill="none" stroke="red" stroke-width="0.175348" d="M315.39,-350.765C312.517,-349.096 309.521,-347.52 306.577,-346.233 250.075,-321.528 228.127,-337.011 172.577,-310.233 170.312,-309.14 168.043,-307.899 165.809,-306.565"/>
<polygon fill="red" stroke="red" stroke-width="0.175348" points="167.72,-303.632 157.44,-301.069 163.878,-309.484 167.72,-303.632"/>
</g>
<!-- x1&#45;&gt;4776 -->
<g id="edge5" class="edge"><title>x1&#45;&gt;4776</title>
<path fill="none" stroke="red" stroke-width="0.835767" d="M351.753,-347.511C365.399,-335.708 384.277,-319.379 399.527,-306.188"/>
<polygon fill="red" stroke="red" stroke-width="0.835767" points="401.85,-308.806 407.124,-299.617 397.271,-303.512 401.85,-308.806"/>
</g>
<!-- x2 -->
<g id="node3" class="node"><title>x2</title>
<polygon fill="lightgray" stroke="black" points="513.577,-382.233 477.577,-382.233 477.577,-346.233 513.577,-346.233 513.577,-382.233"/>
<text text-anchor="middle" x="495.577" y="-362.033" font-family="Times,serif" font-size="9.00">x2</text>
</g>
<!-- x2&#45;&gt;4776 -->
<g id="edge10" class="edge"><title>x2&#45;&gt;4776</title>
<path fill="none" stroke="red" stroke-width="0.9" d="M480.388,-345.965C470.955,-335.241 458.658,-321.262 448.103,-309.263"/>
<polygon fill="red" stroke="red" stroke-width="0.9" points="450.698,-306.914 441.465,-301.717 445.442,-311.537 450.698,-306.914"/>
</g>
<!-- x2&#45;&gt;81495 -->
<g id="edge40" class="edge"><title>x2&#45;&gt;81495</title>
<path fill="none" stroke="red" stroke-width="0.232349" d="M495.577,-345.965C495.577,-338.475 495.577,-329.396 495.577,-320.512"/>
<polygon fill="red" stroke="red" stroke-width="0.232349" points="499.077,-320.281 495.577,-310.281 492.077,-320.281 499.077,-320.281"/>
</g>
<!-- x3 -->
<g id="node4" class="node"><title>x3</title>
<polygon fill="lightgray" stroke="black" points="405.577,-382.233 369.577,-382.233 369.577,-346.233 405.577,-346.233 405.577,-382.233"/>
<text text-anchor="middle" x="387.577" y="-362.033" font-family="Times,serif" font-size="9.00">x3</text>
</g>
<!-- x3&#45;&gt;42508 -->
<g id="edge26" class="edge"><title>x3&#45;&gt;42508</title>
<path fill="none" stroke="red" stroke-width="0.723677" d="M369.288,-349.371C353.594,-337.478 330.677,-320.109 312.344,-306.215"/>
<polygon fill="red" stroke="red" stroke-width="0.723677" points="314.369,-303.358 304.285,-300.108 310.141,-308.937 314.369,-303.358"/>
</g>
<!-- x3&#45;&gt;4776 -->
<g id="edge3" class="edge"><title>x3&#45;&gt;4776</title>
<path fill="none" stroke="green" stroke-width="0.879137" d="M395.823,-345.965C400.212,-336.773 405.744,-325.19 410.843,-314.511"/>
<polygon fill="green" stroke="green" stroke-width="0.879137" points="414.022,-315.975 415.173,-305.443 407.706,-312.959 414.022,-315.975"/>
</g>
<!-- 79801 -->
<g id="node18" class="node"><title>79801</title>
<ellipse fill="white" stroke="black" cx="355.577" cy="-282.655" rx="27.6545" ry="27.6545"/>
<text text-anchor="middle" x="355.577" y="-280.455" font-family="Times,serif" font-size="9.00">79801</text>
</g>
<!-- x3&#45;&gt;79801 -->
<g id="edge31" class="edge"><title>x3&#45;&gt;79801</title>
<path fill="none" stroke="red" stroke-width="0.412653" d="M380.634,-345.965C377.325,-337.737 373.246,-327.593 369.347,-317.898"/>
<polygon fill="red" stroke="red" stroke-width="0.412653" points="372.521,-316.411 365.543,-308.439 366.027,-319.022 372.521,-316.411"/>
</g>
<!-- x3&#45;&gt;81495 -->
<g id="edge32" class="edge"><title>x3&#45;&gt;81495</title>
<path fill="none" stroke="red" stroke-width="0.328032" d="M405.632,-349.953C420.197,-339.237 441.212,-323.771 459.577,-310.233 461.602,-308.74 463.69,-307.2 465.793,-305.648"/>
<polygon fill="red" stroke="red" stroke-width="0.328032" points="467.911,-308.436 473.879,-299.682 463.754,-302.803 467.911,-308.436"/>
</g>
<!-- x4 -->
<g id="node5" class="node"><title>x4</title>
<polygon fill="lightgray" stroke="black" points="189.577,-382.233 153.577,-382.233 153.577,-346.233 189.577,-346.233 189.577,-382.233"/>
<text text-anchor="middle" x="171.577" y="-362.033" font-family="Times,serif" font-size="9.00">x4</text>
</g>
<!-- x4&#45;&gt;42508 -->
<g id="edge30" class="edge"><title>x4&#45;&gt;42508</title>
<path fill="none" stroke="red" stroke-width="0.472506" d="M189.839,-350.486C205.072,-339.815 227.319,-324.143 246.577,-310.233 248.616,-308.76 250.715,-307.235 252.826,-305.694"/>
<polygon fill="red" stroke="red" stroke-width="0.472506" points="254.935,-308.487 260.929,-299.75 250.795,-302.843 254.935,-308.487"/>
</g>
<!-- x4&#45;&gt;46244 -->
<g id="edge24" class="edge"><title>x4&#45;&gt;46244</title>
<path fill="none" stroke="red" stroke-width="0.293087" d="M163.983,-345.965C160.296,-337.582 155.734,-327.211 151.397,-317.35"/>
<polygon fill="red" stroke="red" stroke-width="0.293087" points="154.574,-315.879 147.344,-308.135 148.166,-318.698 154.574,-315.879"/>
</g>
<!-- 10293 -->
<g id="node17" class="node"><title>10293</title>
<ellipse fill="white" stroke="black" cx="209.577" cy="-282.655" rx="27.6545" ry="27.6545"/>
<text text-anchor="middle" x="209.577" y="-280.455" font-family="Times,serif" font-size="9.00">10293</text>
</g>
<!-- x4&#45;&gt;10293 -->
<g id="edge9" class="edge"><title>x4&#45;&gt;10293</title>
<path fill="none" stroke="red" stroke-width="0.35965" d="M179.823,-345.965C183.859,-337.513 188.86,-327.039 193.604,-317.106"/>
<polygon fill="red" stroke="red" stroke-width="0.35965" points="196.882,-318.364 198.032,-307.832 190.565,-315.347 196.882,-318.364"/>
</g>
<!-- x5 -->
<g id="node6" class="node"><title>x5</title>
<polygon fill="lightgray" stroke="black" points="243.577,-382.233 207.577,-382.233 207.577,-346.233 243.577,-346.233 243.577,-382.233"/>
<text text-anchor="middle" x="225.577" y="-362.033" font-family="Times,serif" font-size="9.00">x5</text>
</g>
<!-- x5&#45;&gt;42508 -->
<g id="edge20" class="edge"><title>x5&#45;&gt;42508</title>
<path fill="none" stroke="green" stroke-width="0.314032" d="M237.945,-345.965C244.663,-336.587 253.163,-324.721 260.938,-313.865"/>
<polygon fill="green" stroke="green" stroke-width="0.314032" points="263.993,-315.611 266.971,-305.443 258.302,-311.534 263.993,-315.611"/>
</g>
<!-- x5&#45;&gt;46244 -->
<g id="edge15" class="edge"><title>x5&#45;&gt;46244</title>
<path fill="none" stroke="green" stroke-width="0.277169" d="M207.567,-347.129C195.138,-336.016 178.376,-321.028 164.26,-308.407"/>
<polygon fill="green" stroke="green" stroke-width="0.277169" points="166.522,-305.735 156.734,-301.678 161.856,-310.953 166.522,-305.735"/>
</g>
<!-- x5&#45;&gt;10293 -->
<g id="edge19" class="edge"><title>x5&#45;&gt;10293</title>
<path fill="none" stroke="green" stroke-width="0.619261" d="M222.105,-345.965C220.57,-338.327 218.702,-329.037 216.882,-319.987"/>
<polygon fill="green" stroke="green" stroke-width="0.619261" points="220.271,-319.086 214.868,-309.972 213.408,-320.466 220.271,-319.086"/>
</g>
<!-- x6 -->
<g id="node7" class="node"><title>x6</title>
<polygon fill="lightgray" stroke="black" points="297.577,-382.233 261.577,-382.233 261.577,-346.233 297.577,-346.233 297.577,-382.233"/>
<text text-anchor="middle" x="279.577" y="-362.033" font-family="Times,serif" font-size="9.00">x6</text>
</g>
<!-- x6&#45;&gt;42508 -->
<g id="edge27" class="edge"><title>x6&#45;&gt;42508</title>
<path fill="none" stroke="green" stroke-width="0.548664" d="M280.228,-345.965C280.511,-338.475 280.853,-329.396 281.188,-320.512"/>
<polygon fill="green" stroke="green" stroke-width="0.548664" points="284.694,-320.406 281.573,-310.281 277.699,-320.142 284.694,-320.406"/>
</g>
<!-- x6&#45;&gt;10293 -->
<g id="edge16" class="edge"><title>x6&#45;&gt;10293</title>
<path fill="none" stroke="green" stroke-width="0.326343" d="M264.388,-345.965C255.567,-335.938 244.243,-323.064 234.18,-311.624"/>
<polygon fill="green" stroke="green" stroke-width="0.326343" points="236.693,-309.182 227.461,-303.985 231.437,-313.806 236.693,-309.182"/>
</g>
<!-- x7 -->
<g id="node8" class="node"><title>x7</title>
<polygon fill="lightgray" stroke="black" points="135.577,-382.233 99.5772,-382.233 99.5772,-346.233 135.577,-346.233 135.577,-382.233"/>
<text text-anchor="middle" x="117.577" y="-362.033" font-family="Times,serif" font-size="9.00">x7</text>
</g>
<!-- x7&#45;&gt;46244 -->
<g id="edge14" class="edge"><title>x7&#45;&gt;46244</title>
<path fill="none" stroke="red" stroke-width="0.212679" d="M121.7,-345.965C123.559,-338.177 125.829,-328.673 128.029,-319.456"/>
<polygon fill="red" stroke="red" stroke-width="0.212679" points="131.449,-320.203 130.367,-309.664 124.641,-318.577 131.449,-320.203"/>
</g>
<!-- x7&#45;&gt;10293 -->
<g id="edge12" class="edge"><title>x7&#45;&gt;10293</title>
<path fill="none" stroke="green" stroke-width="0.558485" d="M135.753,-347.511C148.744,-336.275 166.476,-320.937 181.305,-308.11"/>
<polygon fill="green" stroke="green" stroke-width="0.558485" points="183.923,-310.473 189.197,-301.284 179.344,-305.179 183.923,-310.473"/>
</g>
<!-- y0 -->
<g id="node9" class="node"><title>y0</title>
<ellipse fill="lightblue" stroke="black" cx="282.577" cy="-18.3848" rx="18.2703" ry="18.2703"/>
<text text-anchor="middle" x="282.577" y="-16.1848" font-family="Times,serif" font-size="9.00">y0</text>
</g>
<!-- 50945 -->
<g id="node10" class="node"><title>50945</title>
<ellipse fill="white" stroke="black" cx="538.577" cy="-100.347" rx="27.6545" ry="27.6545"/>
<text text-anchor="middle" x="538.577" y="-98.1467" font-family="Times,serif" font-size="9.00">50945</text>
</g>
<!-- 50945&#45;&gt;y0 -->
<g id="edge48" class="edge"><title>50945&#45;&gt;y0</title>
<path fill="none" stroke="green" stroke-width="0.219552" d="M517.76,-81.837C512.991,-78.4497 507.786,-75.2026 502.577,-72.7696 437.743,-42.4842 353.85,-28.2743 310.802,-22.5927"/>
<polygon fill="green" stroke="green" stroke-width="0.219552" points="311.133,-19.1068 300.774,-21.3273 310.257,-26.0518 311.133,-19.1068"/>
</g>
<!-- 230 -->
<g id="node25" class="node"><title>230</title>
<ellipse fill="white" stroke="black" cx="282.577" cy="-191.501" rx="21.4286" ry="21.4286"/>
<text text-anchor="middle" x="282.577" y="-189.301" font-family="Times,serif" font-size="9.00">230</text>
</g>
<!-- 42508&#45;&gt;230 -->
<g id="edge22" class="edge"><title>42508&#45;&gt;230</title>
<path fill="none" stroke="red" stroke-width="0.798098" d="M282.577,-254.906C282.577,-244.932 282.577,-233.533 282.577,-223.23"/>
<polygon fill="red" stroke="red" stroke-width="0.798098" points="286.077,-222.995 282.577,-212.995 279.077,-222.995 286.077,-222.995"/>
</g>
<!-- 63508 -->
<g id="node12" class="node"><title>63508</title>
<ellipse fill="white" stroke="black" cx="100.577" cy="-100.347" rx="27.6545" ry="27.6545"/>
<text text-anchor="middle" x="100.577" y="-98.1467" font-family="Times,serif" font-size="9.00">63508</text>
</g>
<!-- 63508&#45;&gt;y0 -->
<g id="edge23" class="edge"><title>63508&#45;&gt;y0</title>
<path fill="none" stroke="red" stroke-width="0.198191" d="M121.614,-82.2752C126.369,-78.8606 131.514,-75.4915 136.577,-72.7696 175.704,-51.7366 224.871,-35.6816 254.994,-26.898"/>
<polygon fill="red" stroke="red" stroke-width="0.198191" points="256.151,-30.2077 264.807,-24.0982 254.23,-23.4763 256.151,-30.2077"/>
</g>
<!-- 88214 -->
<g id="node13" class="node"><title>88214</title>
<ellipse fill="white" stroke="black" cx="392.577" cy="-100.347" rx="27.6545" ry="27.6545"/>
<text text-anchor="middle" x="392.577" y="-98.1467" font-family="Times,serif" font-size="9.00">88214</text>
</g>
<!-- 88214&#45;&gt;y0 -->
<g id="edge42" class="edge"><title>88214&#45;&gt;y0</title>
<path fill="none" stroke="red" stroke-width="0.393509" d="M370.904,-83.2865C366.188,-79.809 361.221,-76.1585 356.577,-72.7696 339.516,-60.3185 320.154,-46.3564 305.516,-35.8345"/>
<polygon fill="red" stroke="red" stroke-width="0.393509" points="307.238,-32.7625 297.074,-29.7719 303.155,-38.4481 307.238,-32.7625"/>
</g>
<!-- 91158 -->
<g id="node14" class="node"><title>91158</title>
<ellipse fill="white" stroke="black" cx="118.577" cy="-191.501" rx="27.6545" ry="27.6545"/>
<text text-anchor="middle" x="118.577" y="-189.301" font-family="Times,serif" font-size="9.00">91158</text>
</g>
<!-- 86082 -->
<g id="node20" class="node"><title>86082</title>
<ellipse fill="white" stroke="black" cx="27.5772" cy="-100.347" rx="27.6545" ry="27.6545"/>
<text text-anchor="middle" x="27.5772" y="-98.1467" font-family="Times,serif" font-size="9.00">86082</text>
</g>
<!-- 91158&#45;&gt;86082 -->
<g id="edge47" class="edge"><title>91158&#45;&gt;86082</title>
<path fill="none" stroke="red" stroke-width="0.274829" d="M99.2784,-171.594C86.1277,-158.71 68.5473,-141.486 54.0861,-127.318"/>
<polygon fill="red" stroke="red" stroke-width="0.274829" points="56.4407,-124.725 46.8481,-120.227 51.5419,-129.725 56.4407,-124.725"/>
</g>
<!-- 46244&#45;&gt;91158 -->
<g id="edge50" class="edge"><title>46244&#45;&gt;91158</title>
<path fill="none" stroke="green" stroke-width="0.17424" d="M131.274,-255.388C129.571,-246.954 127.655,-237.462 125.837,-228.457"/>
<polygon fill="green" stroke="green" stroke-width="0.17424" points="129.252,-227.69 123.842,-218.58 122.391,-229.075 129.252,-227.69"/>
</g>
<!-- 49466 -->
<g id="node19" class="node"><title>49466</title>
<ellipse fill="white" stroke="black" cx="191.577" cy="-191.501" rx="27.6545" ry="27.6545"/>
<text text-anchor="middle" x="191.577" y="-189.301" font-family="Times,serif" font-size="9.00">49466</text>
</g>
<!-- 46244&#45;&gt;49466 -->
<g id="edge29" class="edge"><title>46244&#45;&gt;49466</title>
<path fill="none" stroke="red" stroke-width="0.259623" d="M150.741,-258.696C157.221,-248.193 165.003,-235.577 172.029,-224.189"/>
<polygon fill="red" stroke="red" stroke-width="0.259623" points="175.19,-225.731 177.461,-215.383 169.232,-222.056 175.19,-225.731"/>
</g>
<!-- 46244&#45;&gt;230 -->
<g id="edge46" class="edge"><title>46244&#45;&gt;230</title>
<path fill="none" stroke="green" stroke-width="0.135637" d="M157.984,-265.209C162.717,-261.755 167.758,-258.212 172.577,-255.078 199.814,-237.366 232.288,-219.236 254.861,-207.082"/>
<polygon fill="green" stroke="green" stroke-width="0.135637" points="256.716,-210.059 263.885,-202.257 253.416,-203.886 256.716,-210.059"/>
</g>
<!-- 4776&#45;&gt;230 -->
<g id="edge2" class="edge"><title>4776&#45;&gt;230</title>
<path fill="none" stroke="red" stroke-width="0.788588" d="M407.129,-265.938C402.489,-262.227 397.442,-258.39 392.577,-255.078 365.718,-236.797 333.186,-218.756 310.496,-206.777"/>
<polygon fill="red" stroke="red" stroke-width="0.788588" points="311.903,-203.563 301.42,-202.032 308.66,-209.767 311.903,-203.563"/>
</g>
<!-- 10293&#45;&gt;91158 -->
<g id="edge49" class="edge"><title>10293&#45;&gt;91158</title>
<path fill="none" stroke="green" stroke-width="0.111805" d="M190.278,-262.748C177.128,-249.864 159.547,-232.64 145.086,-218.472"/>
<polygon fill="green" stroke="green" stroke-width="0.111805" points="147.441,-215.879 137.848,-211.381 142.542,-220.88 147.441,-215.879"/>
</g>
<!-- 10293&#45;&gt;49466 -->
<g id="edge21" class="edge"><title>10293&#45;&gt;49466</title>
<path fill="none" stroke="red" stroke-width="0.343146" d="M204.274,-255.388C202.571,-246.954 200.655,-237.462 198.837,-228.457"/>
<polygon fill="red" stroke="red" stroke-width="0.343146" points="202.252,-227.69 196.842,-218.58 195.391,-229.075 202.252,-227.69"/>
</g>
<!-- 88802 -->
<g id="node24" class="node"><title>88802</title>
<ellipse fill="white" stroke="black" cx="428.577" cy="-191.501" rx="27.6545" ry="27.6545"/>
<text text-anchor="middle" x="428.577" y="-189.301" font-family="Times,serif" font-size="9.00">88802</text>
</g>
<!-- 10293&#45;&gt;88802 -->
<g id="edge43" class="edge"><title>10293&#45;&gt;88802</title>
<path fill="none" stroke="green" stroke-width="0.397125" d="M230.571,-264.503C235.329,-261.093 240.485,-257.747 245.577,-255.078 293.558,-229.933 353.743,-211.628 391.694,-201.529"/>
<polygon fill="green" stroke="green" stroke-width="0.397125" points="392.987,-204.809 401.78,-198.899 391.221,-198.035 392.987,-204.809"/>
</g>
<!-- 10293&#45;&gt;230 -->
<g id="edge4" class="edge"><title>10293&#45;&gt;230</title>
<path fill="none" stroke="green" stroke-width="0.801401" d="M226.877,-260.527C237.701,-247.308 251.674,-230.243 262.917,-216.512"/>
<polygon fill="green" stroke="green" stroke-width="0.801401" points="265.884,-218.412 269.512,-208.458 260.468,-213.978 265.884,-218.412"/>
</g>
<!-- 79801&#45;&gt;88802 -->
<g id="edge52" class="edge"><title>79801&#45;&gt;88802</title>
<path fill="none" stroke="red" stroke-width="0.26966" d="M372.877,-260.527C382.423,-248.869 394.418,-234.219 404.83,-221.504"/>
<polygon fill="red" stroke="red" stroke-width="0.26966" points="407.774,-223.432 411.401,-213.478 402.358,-218.998 407.774,-223.432"/>
</g>
<!-- 49466&#45;&gt;63508 -->
<g id="edge25" class="edge"><title>49466&#45;&gt;63508</title>
<path fill="none" stroke="red" stroke-width="0.182558" d="M172.278,-171.594C159.128,-158.71 141.547,-141.486 127.086,-127.318"/>
<polygon fill="red" stroke="red" stroke-width="0.182558" points="129.441,-124.725 119.848,-120.227 124.542,-129.725 129.441,-124.725"/>
</g>
<!-- 40263 -->
<g id="node22" class="node"><title>40263</title>
<ellipse fill="white" stroke="black" cx="173.577" cy="-100.347" rx="27.6545" ry="27.6545"/>
<text text-anchor="middle" x="173.577" y="-98.1467" font-family="Times,serif" font-size="9.00">40263</text>
</g>
<!-- 49466&#45;&gt;40263 -->
<g id="edge18" class="edge"><title>49466&#45;&gt;40263</title>
<path fill="none" stroke="green" stroke-width="0.128469" d="M186.274,-164.234C184.571,-155.8 182.655,-146.307 180.837,-137.303"/>
<polygon fill="green" stroke="green" stroke-width="0.128469" points="184.252,-136.536 178.842,-127.426 177.391,-137.921 184.252,-136.536"/>
</g>
<!-- 86082&#45;&gt;y0 -->
<g id="edge38" class="edge"><title>86082&#45;&gt;y0</title>
<path fill="none" stroke="green" stroke-width="0.434335" d="M48.3962,-81.8412C53.165,-78.4536 58.3699,-75.2053 63.5772,-72.7696 127.954,-42.6569 211.206,-28.4021 254.155,-22.6603"/>
<polygon fill="green" stroke="green" stroke-width="0.434335" points="254.694,-26.1199 264.169,-21.3795 253.806,-19.1764 254.694,-26.1199"/>
</g>
<!-- 47942 -->
<g id="node21" class="node"><title>47942</title>
<ellipse fill="white" stroke="black" cx="465.577" cy="-100.347" rx="27.6545" ry="27.6545"/>
<text text-anchor="middle" x="465.577" y="-98.1467" font-family="Times,serif" font-size="9.00">47942</text>
</g>
<!-- 47942&#45;&gt;y0 -->
<g id="edge13" class="edge"><title>47942&#45;&gt;y0</title>
<path fill="none" stroke="green" stroke-width="0.134319" d="M444.545,-82.2667C439.789,-78.8527 434.644,-75.486 429.577,-72.7696 390.191,-51.6527 340.685,-35.6217 310.353,-26.866"/>
<polygon fill="green" stroke="green" stroke-width="0.134319" points="311.047,-23.4251 300.472,-24.0759 309.144,-30.1617 311.047,-23.4251"/>
</g>
<!-- 40263&#45;&gt;y0 -->
<g id="edge34" class="edge"><title>40263&#45;&gt;y0</title>
<path fill="none" stroke="red" stroke-width="0.141236" d="M195.267,-83.3093C199.982,-79.8303 204.944,-76.1735 209.577,-72.7696 226.342,-60.4513 245.308,-46.5833 259.706,-36.0696"/>
<polygon fill="red" stroke="red" stroke-width="0.141236" points="262.007,-38.7237 268.02,-30.0007 257.879,-33.0698 262.007,-38.7237"/>
</g>
<!-- 81495&#45;&gt;49466 -->
<g id="edge51" class="edge"><title>81495&#45;&gt;49466</title>
<path fill="none" stroke="green" stroke-width="0.354275" d="M474.877,-263.884C470.101,-260.513 464.863,-257.338 459.577,-255.078 373.716,-218.365 342.018,-245.919 252.577,-219.078 243.477,-216.347 233.927,-212.628 225.157,-208.837"/>
<polygon fill="green" stroke="green" stroke-width="0.354275" points="226.561,-205.63 216.003,-204.738 223.7,-212.019 226.561,-205.63"/>
</g>
<!-- 88802&#45;&gt;50945 -->
<g id="edge44" class="edge"><title>88802&#45;&gt;50945</title>
<path fill="none" stroke="red" stroke-width="0.164662" d="M449.526,-173.522C466.468,-159.791 490.515,-140.3 509.352,-125.034"/>
<polygon fill="red" stroke="red" stroke-width="0.164662" points="511.766,-127.582 517.331,-118.566 507.359,-122.144 511.766,-127.582"/>
</g>
<!-- 88802&#45;&gt;47942 -->
<g id="edge45" class="edge"><title>88802&#45;&gt;47942</title>
<path fill="none" stroke="green" stroke-width="0.43446" d="M438.884,-165.667C442.773,-156.296 447.267,-145.466 451.446,-135.397"/>
<polygon fill="green" stroke="green" stroke-width="0.43446" points="454.725,-136.626 455.326,-126.048 448.26,-133.943 454.725,-136.626"/>
</g>
<!-- 230&#45;&gt;50945 -->
<g id="edge17" class="edge"><title>230&#45;&gt;50945</title>
<path fill="none" stroke="green" stroke-width="0.149979" d="M303.009,-185.683C350.414,-174.345 466.578,-145.604 502.577,-127.924 504.835,-126.815 507.097,-125.562 509.327,-124.218"/>
<polygon fill="green" stroke="green" stroke-width="0.149979" points="511.267,-127.131 517.686,-118.703 507.412,-121.288 511.267,-127.131"/>
</g>
<!-- 230&#45;&gt;88214 -->
<g id="edge41" class="edge"><title>230&#45;&gt;88214</title>
<path fill="none" stroke="green" stroke-width="0.236476" d="M298.808,-177.346C315.796,-163.577 342.825,-141.67 363.509,-124.906"/>
<polygon fill="green" stroke="green" stroke-width="0.236476" points="365.807,-127.549 371.372,-118.533 361.4,-122.111 365.807,-127.549"/>
</g>
<!-- 230&#45;&gt;86082 -->
<g id="edge37" class="edge"><title>230&#45;&gt;86082</title>
<path fill="none" stroke="red" stroke-width="0.208246" d="M264.56,-180.26C254.282,-174.772 241.006,-168.266 228.577,-163.924 157.718,-139.17 131.947,-158.898 63.5772,-127.924 61.2862,-126.886 58.9989,-125.686 56.751,-124.38"/>
<polygon fill="red" stroke="red" stroke-width="0.208246" points="58.6497,-121.44 48.3519,-118.948 54.8483,-127.318 58.6497,-121.44"/>
</g>
<!-- 230&#45;&gt;47942 -->
<g id="edge39" class="edge"><title>230&#45;&gt;47942</title>
<path fill="none" stroke="green" stroke-width="0.431819" d="M302.775,-183.609C331.777,-173.338 386.471,-152.559 429.577,-127.924 431.761,-126.676 433.968,-125.319 436.158,-123.899"/>
<polygon fill="green" stroke="green" stroke-width="0.431819" points="438.167,-126.765 444.43,-118.22 434.205,-120.994 438.167,-126.765"/>
</g>
<!-- 230&#45;&gt;40263 -->
<g id="edge35" class="edge"><title>230&#45;&gt;40263</title>
<path fill="none" stroke="red" stroke-width="0.319666" d="M266.494,-177.346C249.66,-163.577 222.877,-141.67 202.381,-124.906"/>
<polygon fill="red" stroke="red" stroke-width="0.319666" points="204.546,-122.155 194.589,-118.533 200.114,-127.574 204.546,-122.155"/>
</g>
<!-- 36472 -->
<g id="node26" class="node"><title>36472</title>
<ellipse fill="white" stroke="black" cx="246.577" cy="-100.347" rx="27.6545" ry="27.6545"/>
<text text-anchor="middle" x="246.577" y="-98.1467" font-family="Times,serif" font-size="9.00">36472</text>
</g>
<!-- 230&#45;&gt;36472 -->
<g id="edge36" class="edge"><title>230&#45;&gt;36472</title>
<path fill="none" stroke="green" stroke-width="0.121751" d="M274.942,-171.594C270.741,-161.188 265.396,-147.951 260.481,-135.78"/>
<polygon fill="green" stroke="green" stroke-width="0.121751" points="263.652,-134.284 256.662,-126.322 257.161,-136.905 263.652,-134.284"/>
</g>
<!-- 23934 -->
<g id="node27" class="node"><title>23934</title>
<ellipse fill="white" stroke="black" cx="319.577" cy="-100.347" rx="27.6545" ry="27.6545"/>
<text text-anchor="middle" x="319.577" y="-98.1467" font-family="Times,serif" font-size="9.00">23934</text>
</g>
<!-- 230&#45;&gt;23934 -->
<g id="edge6" class="edge"><title>230&#45;&gt;23934</title>
<path fill="none" stroke="red" stroke-width="0.9" d="M290.424,-171.594C294.776,-161.107 300.321,-147.746 305.404,-135.497"/>
<polygon fill="red" stroke="red" stroke-width="0.9" points="308.75,-136.567 309.35,-125.989 302.285,-133.883 308.75,-136.567"/>
</g>
<!-- 36472&#45;&gt;y0 -->
<g id="edge8" class="edge"><title>36472&#45;&gt;y0</title>
<path fill="none" stroke="green" stroke-width="0.223079" d="M257.574,-74.921C261.916,-65.276 266.903,-54.2002 271.275,-44.4898"/>
<polygon fill="green" stroke="green" stroke-width="0.223079" points="274.481,-45.8935 275.395,-35.3381 268.098,-43.0198 274.481,-45.8935"/>
</g>
<!-- 23934&#45;&gt;y0 -->
<g id="edge7" class="edge"><title>23934&#45;&gt;y0</title>
<path fill="none" stroke="red" stroke-width="0.80493" d="M308.275,-74.921C303.812,-65.276 298.687,-54.2002 294.194,-44.4898"/>
<polygon fill="red" stroke="red" stroke-width="0.80493" points="297.335,-42.9438 289.959,-35.3381 290.982,-45.8835 297.335,-42.9438"/>
</g>
</g>
</svg>
