<?xml version="1.0" encoding="UTF-8" standalone="no"?>
<!DOCTYPE svg PUBLIC "-//W3C//DTD SVG 1.1//EN"
 "http://www.w3.org/Graphics/SVG/1.1/DTD/svg11.dtd">
<!-- Generated by graphviz version 2.38.0 (20140413.2041)
 -->
<!-- Title: %3 Pages: 1 -->
<svg width="511pt" height="390pt"
 viewBox="0.00 0.00 510.58 390.23" xmlns="http://www.w3.org/2000/svg" xmlns:xlink="http://www.w3.org/1999/xlink">
<g id="graph0" class="graph" transform="scale(1 1) rotate(0) translate(4 386.233)">
<title>%3</title>
<polygon fill="white" stroke="none" points="-4,4 -4,-386.233 506.577,-386.233 506.577,4 -4,4"/>
<!-- x0 -->
<g id="node1" class="node"><title>x0</title>
<polygon fill="lightgray" stroke="black" points="502.577,-382.233 466.577,-382.233 466.577,-346.233 502.577,-346.233 502.577,-382.233"/>
<text text-anchor="middle" x="484.577" y="-362.033" font-family="Times,serif" font-size="9.00">x0</text>
</g>
<!-- 23646 -->
<g id="node21" class="node"><title>23646</title>
<ellipse fill="white" stroke="black" cx="381.577" cy="-282.655" rx="27.6545" ry="27.6545"/>
<text text-anchor="middle" x="381.577" y="-280.455" font-family="Times,serif" font-size="9.00">23646</text>
</g>
<!-- x0&#45;&gt;23646 -->
<g id="edge14" class="edge"><title>x0&#45;&gt;23646</title>
<path fill="none" stroke="red" stroke-width="0.58974" d="M466.163,-349.006C450.946,-337.25 429.047,-320.33 411.344,-306.653"/>
<polygon fill="red" stroke="red" stroke-width="0.58974" points="413.091,-303.58 403.038,-300.236 408.812,-309.119 413.091,-303.58"/>
</g>
<!-- x1 -->
<g id="node2" class="node"><title>x1</title>
<polygon fill="lightgray" stroke="black" points="394.577,-382.233 358.577,-382.233 358.577,-346.233 394.577,-346.233 394.577,-382.233"/>
<text text-anchor="middle" x="376.577" y="-362.033" font-family="Times,serif" font-size="9.00">x1</text>
</g>
<!-- x1&#45;&gt;23646 -->
<g id="edge13" class="edge"><title>x1&#45;&gt;23646</title>
<path fill="none" stroke="red" stroke-width="0.340968" d="M377.662,-345.965C378.133,-338.475 378.703,-329.396 379.261,-320.512"/>
<polygon fill="red" stroke="red" stroke-width="0.340968" points="382.77,-320.481 379.904,-310.281 375.784,-320.042 382.77,-320.481"/>
</g>
<!-- x2 -->
<g id="node3" class="node"><title>x2</title>
<polygon fill="lightgray" stroke="black" points="340.577,-382.233 304.577,-382.233 304.577,-346.233 340.577,-346.233 340.577,-382.233"/>
<text text-anchor="middle" x="322.577" y="-362.033" font-family="Times,serif" font-size="9.00">x2</text>
</g>
<!-- 58118 -->
<g id="node10" class="node"><title>58118</title>
<ellipse fill="white" stroke="black" cx="308.577" cy="-282.655" rx="27.6545" ry="27.6545"/>
<text text-anchor="middle" x="308.577" y="-280.455" font-family="Times,serif" font-size="9.00">58118</text>
</g>
<!-- x2&#45;&gt;58118 -->
<g id="edge29" class="edge"><title>x2&#45;&gt;58118</title>
<path fill="none" stroke="green" stroke-width="0.510401" d="M319.539,-345.965C318.195,-338.327 316.561,-329.037 314.969,-319.987"/>
<polygon fill="green" stroke="green" stroke-width="0.510401" points="318.387,-319.214 313.207,-309.972 311.493,-320.427 318.387,-319.214"/>
</g>
<!-- x2&#45;&gt;23646 -->
<g id="edge9" class="edge"><title>x2&#45;&gt;23646</title>
<path fill="none" stroke="red" stroke-width="0.562552" d="M335.379,-345.965C342.401,-336.495 351.305,-324.485 359.418,-313.543"/>
<polygon fill="red" stroke="red" stroke-width="0.562552" points="362.279,-315.56 365.423,-305.443 356.656,-311.391 362.279,-315.56"/>
</g>
<!-- x3 -->
<g id="node4" class="node"><title>x3</title>
<polygon fill="lightgray" stroke="black" points="448.577,-382.233 412.577,-382.233 412.577,-346.233 448.577,-346.233 448.577,-382.233"/>
<text text-anchor="middle" x="430.577" y="-362.033" font-family="Times,serif" font-size="9.00">x3</text>
</g>
<!-- x3&#45;&gt;23646 -->
<g id="edge10" class="edge"><title>x3&#45;&gt;23646</title>
<path fill="none" stroke="green" stroke-width="0.360353" d="M419.945,-345.965C414.403,-336.966 407.451,-325.675 400.991,-315.184"/>
<polygon fill="green" stroke="green" stroke-width="0.360353" points="403.947,-313.309 395.723,-306.629 397.986,-316.979 403.947,-313.309"/>
</g>
<!-- x4 -->
<g id="node5" class="node"><title>x4</title>
<polygon fill="lightgray" stroke="black" points="178.577,-382.233 142.577,-382.233 142.577,-346.233 178.577,-346.233 178.577,-382.233"/>
<text text-anchor="middle" x="160.577" y="-362.033" font-family="Times,serif" font-size="9.00">x4</text>
</g>
<!-- 46352 -->
<g id="node11" class="node"><title>46352</title>
<ellipse fill="white" stroke="black" cx="174.577" cy="-282.655" rx="27.6545" ry="27.6545"/>
<text text-anchor="middle" x="174.577" y="-280.455" font-family="Times,serif" font-size="9.00">46352</text>
</g>
<!-- x4&#45;&gt;46352 -->
<g id="edge12" class="edge"><title>x4&#45;&gt;46352</title>
<path fill="none" stroke="red" stroke-width="0.9" d="M163.615,-345.965C164.959,-338.327 166.593,-329.037 168.185,-319.987"/>
<polygon fill="red" stroke="red" stroke-width="0.9" points="171.662,-320.427 169.947,-309.972 164.767,-319.214 171.662,-320.427"/>
</g>
<!-- 169 -->
<g id="node13" class="node"><title>169</title>
<ellipse fill="white" stroke="black" cx="241.577" cy="-282.655" rx="21.4286" ry="21.4286"/>
<text text-anchor="middle" x="241.577" y="-280.455" font-family="Times,serif" font-size="9.00">169</text>
</g>
<!-- x4&#45;&gt;169 -->
<g id="edge1" class="edge"><title>x4&#45;&gt;169</title>
<path fill="none" stroke="green" stroke-width="0.42877" d="M178.153,-345.965C190.288,-334.043 206.518,-318.099 219.522,-305.323"/>
<polygon fill="green" stroke="green" stroke-width="0.42877" points="222.069,-307.727 226.75,-298.222 217.164,-302.734 222.069,-307.727"/>
</g>
<!-- x5 -->
<g id="node6" class="node"><title>x5</title>
<polygon fill="lightgray" stroke="black" points="232.577,-382.233 196.577,-382.233 196.577,-346.233 232.577,-346.233 232.577,-382.233"/>
<text text-anchor="middle" x="214.577" y="-362.033" font-family="Times,serif" font-size="9.00">x5</text>
</g>
<!-- x5&#45;&gt;46352 -->
<g id="edge38" class="edge"><title>x5&#45;&gt;46352</title>
<path fill="none" stroke="red" stroke-width="0.259861" d="M205.898,-345.965C201.57,-337.356 196.188,-326.649 191.113,-316.552"/>
<polygon fill="red" stroke="red" stroke-width="0.259861" points="194.196,-314.892 186.578,-307.529 187.942,-318.036 194.196,-314.892"/>
</g>
<!-- x5&#45;&gt;169 -->
<g id="edge2" class="edge"><title>x5&#45;&gt;169</title>
<path fill="none" stroke="red" stroke-width="0.550368" d="M220.436,-345.965C223.713,-336.306 227.886,-324.006 231.658,-312.891"/>
<polygon fill="red" stroke="red" stroke-width="0.550368" points="235.072,-313.72 234.971,-303.125 228.444,-311.471 235.072,-313.72"/>
</g>
<!-- x6 -->
<g id="node7" class="node"><title>x6</title>
<polygon fill="lightgray" stroke="black" points="286.577,-382.233 250.577,-382.233 250.577,-346.233 286.577,-346.233 286.577,-382.233"/>
<text text-anchor="middle" x="268.577" y="-362.033" font-family="Times,serif" font-size="9.00">x6</text>
</g>
<!-- x6&#45;&gt;46352 -->
<g id="edge24" class="edge"><title>x6&#45;&gt;46352</title>
<path fill="none" stroke="green" stroke-width="0.517274" d="M250.453,-347.889C237.005,-336.505 218.409,-320.762 202.992,-307.71"/>
<polygon fill="green" stroke="green" stroke-width="0.517274" points="205.158,-304.958 195.264,-301.168 200.635,-310.301 205.158,-304.958"/>
</g>
<!-- x6&#45;&gt;169 -->
<g id="edge4" class="edge"><title>x6&#45;&gt;169</title>
<path fill="none" stroke="red" stroke-width="0.595029" d="M262.719,-345.965C259.441,-336.306 255.268,-324.006 251.497,-312.891"/>
<polygon fill="red" stroke="red" stroke-width="0.595029" points="254.711,-311.471 248.183,-303.125 248.082,-313.72 254.711,-311.471"/>
</g>
<!-- x7 -->
<g id="node8" class="node"><title>x7</title>
<polygon fill="lightgray" stroke="black" points="124.577,-382.233 88.5772,-382.233 88.5772,-346.233 124.577,-346.233 124.577,-382.233"/>
<text text-anchor="middle" x="106.577" y="-362.033" font-family="Times,serif" font-size="9.00">x7</text>
</g>
<!-- x7&#45;&gt;46352 -->
<g id="edge16" class="edge"><title>x7&#45;&gt;46352</title>
<path fill="none" stroke="red" stroke-width="0.402693" d="M121.332,-345.965C129.838,-336.012 140.739,-323.254 150.46,-311.878"/>
<polygon fill="red" stroke="red" stroke-width="0.402693" points="153.122,-314.151 156.958,-304.275 147.8,-309.603 153.122,-314.151"/>
</g>
<!-- x7&#45;&gt;169 -->
<g id="edge3" class="edge"><title>x7&#45;&gt;169</title>
<path fill="none" stroke="red" stroke-width="0.401018" d="M124.686,-351.384C127.621,-349.594 130.656,-347.818 133.577,-346.233 167.136,-328.023 179.613,-331.115 211.577,-310.233 214.089,-308.591 216.606,-306.749 219.056,-304.82"/>
<polygon fill="red" stroke="red" stroke-width="0.401018" points="221.637,-307.22 227.014,-298.092 217.118,-301.875 221.637,-307.22"/>
</g>
<!-- 56047 -->
<g id="node23" class="node"><title>56047</title>
<ellipse fill="white" stroke="black" cx="101.577" cy="-282.655" rx="27.6545" ry="27.6545"/>
<text text-anchor="middle" x="101.577" y="-280.455" font-family="Times,serif" font-size="9.00">56047</text>
</g>
<!-- x7&#45;&gt;56047 -->
<g id="edge26" class="edge"><title>x7&#45;&gt;56047</title>
<path fill="none" stroke="green" stroke-width="0.252829" d="M105.492,-345.965C105.022,-338.475 104.451,-329.396 103.893,-320.512"/>
<polygon fill="green" stroke="green" stroke-width="0.252829" points="107.37,-320.042 103.25,-310.281 100.384,-320.481 107.37,-320.042"/>
</g>
<!-- y0 -->
<g id="node9" class="node"><title>y0</title>
<ellipse fill="lightblue" stroke="black" cx="167.577" cy="-18.3848" rx="18.2703" ry="18.2703"/>
<text text-anchor="middle" x="167.577" y="-16.1848" font-family="Times,serif" font-size="9.00">y0</text>
</g>
<!-- 44988 -->
<g id="node16" class="node"><title>44988</title>
<ellipse fill="white" stroke="black" cx="241.577" cy="-191.501" rx="27.6545" ry="27.6545"/>
<text text-anchor="middle" x="241.577" y="-189.301" font-family="Times,serif" font-size="9.00">44988</text>
</g>
<!-- 58118&#45;&gt;44988 -->
<g id="edge25" class="edge"><title>58118&#45;&gt;44988</title>
<path fill="none" stroke="green" stroke-width="0.360064" d="M292.358,-260.074C283.862,-248.768 273.324,-234.746 264.054,-222.41"/>
<polygon fill="green" stroke="green" stroke-width="0.360064" points="266.685,-220.085 257.879,-214.193 261.089,-224.29 266.685,-220.085"/>
</g>
<!-- 170 -->
<g id="node14" class="node"><title>170</title>
<ellipse fill="white" stroke="black" cx="308.577" cy="-191.501" rx="21.4286" ry="21.4286"/>
<text text-anchor="middle" x="308.577" y="-189.301" font-family="Times,serif" font-size="9.00">170</text>
</g>
<!-- 46352&#45;&gt;170 -->
<g id="edge15" class="edge"><title>46352&#45;&gt;170</title>
<path fill="none" stroke="red" stroke-width="0.449599" d="M196.168,-265.435C201.145,-261.896 206.478,-258.261 211.577,-255.078 240.254,-237.18 250.851,-238.416 278.577,-219.078 280.985,-217.399 283.414,-215.551 285.791,-213.637"/>
<polygon fill="red" stroke="red" stroke-width="0.449599" points="288.226,-216.161 293.573,-207.014 283.689,-210.83 288.226,-216.161"/>
</g>
<!-- 46352&#45;&gt;44988 -->
<g id="edge21" class="edge"><title>46352&#45;&gt;44988</title>
<path fill="none" stroke="green" stroke-width="0.386114" d="M190.796,-260.074C199.292,-248.768 209.83,-234.746 219.101,-222.41"/>
<polygon fill="green" stroke="green" stroke-width="0.386114" points="222.066,-224.29 225.275,-214.193 216.47,-220.085 222.066,-224.29"/>
</g>
<!-- 58062 -->
<g id="node19" class="node"><title>58062</title>
<ellipse fill="white" stroke="black" cx="95.5772" cy="-191.501" rx="27.6545" ry="27.6545"/>
<text text-anchor="middle" x="95.5772" y="-189.301" font-family="Times,serif" font-size="9.00">58062</text>
</g>
<!-- 46352&#45;&gt;58062 -->
<g id="edge30" class="edge"><title>46352&#45;&gt;58062</title>
<path fill="none" stroke="green" stroke-width="0.102465" d="M156.651,-261.425C145.843,-249.228 131.927,-233.523 120.109,-220.186"/>
<polygon fill="green" stroke="green" stroke-width="0.102465" points="122.684,-217.815 113.433,-212.651 117.445,-222.457 122.684,-217.815"/>
</g>
<!-- 56103 -->
<g id="node12" class="node"><title>56103</title>
<ellipse fill="white" stroke="black" cx="240.577" cy="-100.347" rx="27.6545" ry="27.6545"/>
<text text-anchor="middle" x="240.577" y="-98.1467" font-family="Times,serif" font-size="9.00">56103</text>
</g>
<!-- 56103&#45;&gt;y0 -->
<g id="edge19" class="edge"><title>56103&#45;&gt;y0</title>
<path fill="none" stroke="red" stroke-width="0.321719" d="M222.156,-79.1689C211.207,-67.176 197.355,-52.0025 186.346,-39.9432"/>
<polygon fill="red" stroke="red" stroke-width="0.321719" points="188.908,-37.5584 179.581,-32.5329 183.738,-42.278 188.908,-37.5584"/>
</g>
<!-- 169&#45;&gt;170 -->
<g id="edge5" class="edge"><title>169&#45;&gt;170</title>
<path fill="none" stroke="red" stroke-width="0.410874" d="M253.866,-265.303C264.002,-251.815 278.54,-232.47 290.082,-217.112"/>
<polygon fill="red" stroke="red" stroke-width="0.410874" points="292.93,-219.149 296.139,-209.052 287.334,-214.943 292.93,-219.149"/>
</g>
<!-- 169&#45;&gt;44988 -->
<g id="edge18" class="edge"><title>169&#45;&gt;44988</title>
<path fill="none" stroke="green" stroke-width="0.719755" d="M241.577,-261.425C241.577,-251.925 241.577,-240.298 241.577,-229.318"/>
<polygon fill="green" stroke="green" stroke-width="0.719755" points="245.077,-229.08 241.577,-219.081 238.077,-229.081 245.077,-229.08"/>
</g>
<!-- 170&#45;&gt;56103 -->
<g id="edge27" class="edge"><title>170&#45;&gt;56103</title>
<path fill="none" stroke="red" stroke-width="0.196303" d="M296.105,-174.149C286.874,-162.046 274.047,-145.229 263.046,-130.806"/>
<polygon fill="red" stroke="red" stroke-width="0.196303" points="265.669,-128.473 256.822,-122.645 260.103,-132.719 265.669,-128.473"/>
</g>
<!-- 62016 -->
<g id="node17" class="node"><title>62016</title>
<ellipse fill="white" stroke="black" cx="313.577" cy="-100.347" rx="27.6545" ry="27.6545"/>
<text text-anchor="middle" x="313.577" y="-98.1467" font-family="Times,serif" font-size="9.00">62016</text>
</g>
<!-- 170&#45;&gt;62016 -->
<g id="edge32" class="edge"><title>170&#45;&gt;62016</title>
<path fill="none" stroke="green" stroke-width="0.462608" d="M309.712,-170.271C310.245,-160.771 310.897,-149.143 311.512,-138.164"/>
<polygon fill="green" stroke="green" stroke-width="0.462608" points="315.021,-138.106 312.087,-127.926 308.032,-137.714 315.021,-138.106"/>
</g>
<!-- 36052 -->
<g id="node20" class="node"><title>36052</title>
<ellipse fill="white" stroke="black" cx="167.577" cy="-100.347" rx="27.6545" ry="27.6545"/>
<text text-anchor="middle" x="167.577" y="-98.1467" font-family="Times,serif" font-size="9.00">36052</text>
</g>
<!-- 170&#45;&gt;36052 -->
<g id="edge8" class="edge"><title>170&#45;&gt;36052</title>
<path fill="none" stroke="red" stroke-width="0.593035" d="M293.674,-175.839C289.05,-171.702 283.794,-167.388 278.577,-163.924 247.777,-143.468 235.258,-146.989 203.577,-127.924 201.422,-126.627 199.236,-125.233 197.062,-123.788"/>
<polygon fill="red" stroke="red" stroke-width="0.593035" points="199.03,-120.893 188.823,-118.051 195.03,-126.637 199.03,-120.893"/>
</g>
<!-- 56762 -->
<g id="node15" class="node"><title>56762</title>
<ellipse fill="white" stroke="black" cx="27.5772" cy="-100.347" rx="27.6545" ry="27.6545"/>
<text text-anchor="middle" x="27.5772" y="-98.1467" font-family="Times,serif" font-size="9.00">56762</text>
</g>
<!-- 56762&#45;&gt;y0 -->
<g id="edge22" class="edge"><title>56762&#45;&gt;y0</title>
<path fill="none" stroke="green" stroke-width="0.329599" d="M48.8839,-82.7418C53.6223,-79.2982 58.6915,-75.7993 63.5772,-72.7696 89.3037,-56.8156 120.357,-41.33 141.796,-31.1828"/>
<polygon fill="green" stroke="green" stroke-width="0.329599" points="143.343,-34.3231 150.916,-26.9137 140.375,-27.9833 143.343,-34.3231"/>
</g>
<!-- 44988&#45;&gt;56103 -->
<g id="edge20" class="edge"><title>44988&#45;&gt;56103</title>
<path fill="none" stroke="green" stroke-width="0.282068" d="M241.277,-163.752C241.187,-155.73 241.087,-146.785 240.991,-138.23"/>
<polygon fill="green" stroke="green" stroke-width="0.282068" points="244.489,-138.037 240.877,-128.077 237.489,-138.116 244.489,-138.037"/>
</g>
<!-- 62016&#45;&gt;y0 -->
<g id="edge33" class="edge"><title>62016&#45;&gt;y0</title>
<path fill="none" stroke="red" stroke-width="0.272272" d="M292.321,-82.6585C287.58,-79.2201 282.496,-75.7444 277.577,-72.7696 250.045,-56.1204 216.555,-40.4722 193.813,-30.4761"/>
<polygon fill="red" stroke="red" stroke-width="0.272272" points="195.044,-27.1949 184.477,-26.4248 192.257,-33.6164 195.044,-27.1949"/>
</g>
<!-- 8904 -->
<g id="node18" class="node"><title>8904</title>
<ellipse fill="white" stroke="black" cx="97.5772" cy="-100.347" rx="25" ry="25"/>
<text text-anchor="middle" x="97.5772" y="-98.1467" font-family="Times,serif" font-size="9.00">8904</text>
</g>
<!-- 8904&#45;&gt;y0 -->
<g id="edge6" class="edge"><title>8904&#45;&gt;y0</title>
<path fill="none" stroke="red" stroke-width="0.9" d="M113.461,-81.2021C124.05,-69.1065 138.006,-53.1646 149.093,-40.4997"/>
<polygon fill="red" stroke="red" stroke-width="0.9" points="151.947,-42.5532 155.9,-32.7236 146.68,-37.9424 151.947,-42.5532"/>
</g>
<!-- 58062&#45;&gt;56762 -->
<g id="edge37" class="edge"><title>58062&#45;&gt;56762</title>
<path fill="none" stroke="red" stroke-width="0.440303" d="M79.1163,-168.919C70.4296,-157.53 59.6395,-143.383 50.1803,-130.982"/>
<polygon fill="red" stroke="red" stroke-width="0.440303" points="52.734,-128.558 43.8865,-122.73 47.1681,-132.804 52.734,-128.558"/>
</g>
<!-- 58062&#45;&gt;8904 -->
<g id="edge31" class="edge"><title>58062&#45;&gt;8904</title>
<path fill="none" stroke="red" stroke-width="0.559194" d="M96.1772,-163.752C96.3762,-154.882 96.6005,-144.886 96.8102,-135.535"/>
<polygon fill="red" stroke="red" stroke-width="0.559194" points="100.314,-135.423 97.0388,-125.347 93.3153,-135.266 100.314,-135.423"/>
</g>
<!-- 58062&#45;&gt;36052 -->
<g id="edge36" class="edge"><title>58062&#45;&gt;36052</title>
<path fill="none" stroke="green" stroke-width="0.189938" d="M112.64,-169.373C122.055,-157.714 133.886,-143.065 144.155,-130.349"/>
<polygon fill="green" stroke="green" stroke-width="0.189938" points="147.077,-132.302 150.637,-122.323 141.631,-127.904 147.077,-132.302"/>
</g>
<!-- 36052&#45;&gt;y0 -->
<g id="edge17" class="edge"><title>36052&#45;&gt;y0</title>
<path fill="none" stroke="red" stroke-width="0.9" d="M167.577,-72.7205C167.577,-64.4151 167.577,-55.2409 167.577,-46.8773"/>
<polygon fill="red" stroke="red" stroke-width="0.9" points="171.077,-46.8432 167.577,-36.8432 164.077,-46.8432 171.077,-46.8432"/>
</g>
<!-- 23646&#45;&gt;170 -->
<g id="edge7" class="edge"><title>23646&#45;&gt;170</title>
<path fill="none" stroke="red" stroke-width="0.755485" d="M364.277,-260.527C353.453,-247.308 339.48,-230.243 328.238,-216.512"/>
<polygon fill="red" stroke="red" stroke-width="0.755485" points="330.686,-213.978 321.643,-208.458 325.27,-218.412 330.686,-213.978"/>
</g>
<!-- 23646&#45;&gt;44988 -->
<g id="edge11" class="edge"><title>23646&#45;&gt;44988</title>
<path fill="none" stroke="red" stroke-width="0.1994" d="M360.227,-265.12C355.491,-261.672 350.434,-258.154 345.577,-255.078 317.018,-236.993 307.254,-236.977 278.577,-219.078 276.346,-217.686 274.071,-216.207 271.8,-214.687"/>
<polygon fill="red" stroke="red" stroke-width="0.1994" points="273.384,-211.528 263.168,-208.722 269.404,-217.286 273.384,-211.528"/>
</g>
<!-- 62052 -->
<g id="node22" class="node"><title>62052</title>
<ellipse fill="white" stroke="black" cx="168.577" cy="-191.501" rx="27.6545" ry="27.6545"/>
<text text-anchor="middle" x="168.577" y="-189.301" font-family="Times,serif" font-size="9.00">62052</text>
</g>
<!-- 62052&#45;&gt;56103 -->
<g id="edge35" class="edge"><title>62052&#45;&gt;56103</title>
<path fill="none" stroke="green" stroke-width="0.108555" d="M185.64,-169.373C195.055,-157.714 206.886,-143.065 217.155,-130.349"/>
<polygon fill="green" stroke="green" stroke-width="0.108555" points="220.077,-132.302 223.637,-122.323 214.631,-127.904 220.077,-132.302"/>
</g>
<!-- 56047&#45;&gt;44988 -->
<g id="edge23" class="edge"><title>56047&#45;&gt;44988</title>
<path fill="none" stroke="red" stroke-width="0.30882" d="M122.913,-265.097C127.65,-261.651 132.711,-258.139 137.577,-255.078 166.524,-236.873 176.63,-237.284 205.577,-219.078 207.706,-217.739 209.873,-216.314 212.033,-214.845"/>
<polygon fill="red" stroke="red" stroke-width="0.30882" points="214.084,-217.681 220.241,-209.059 210.051,-211.96 214.084,-217.681"/>
</g>
<!-- 56047&#45;&gt;58062 -->
<g id="edge28" class="edge"><title>56047&#45;&gt;58062</title>
<path fill="none" stroke="green" stroke-width="0.157103" d="M99.777,-254.906C99.2371,-246.884 98.6351,-237.939 98.0594,-229.385"/>
<polygon fill="green" stroke="green" stroke-width="0.157103" points="101.54,-228.974 97.3761,-219.231 94.5556,-229.444 101.54,-228.974"/>
</g>
<!-- 56047&#45;&gt;62052 -->
<g id="edge34" class="edge"><title>56047&#45;&gt;62052</title>
<path fill="none" stroke="red" stroke-width="0.245544" d="M117.796,-260.074C126.292,-248.768 136.83,-234.746 146.101,-222.41"/>
<polygon fill="red" stroke="red" stroke-width="0.245544" points="149.066,-224.29 152.275,-214.193 143.47,-220.085 149.066,-224.29"/>
</g>
</g>
</svg>
