<?xml version="1.0" encoding="UTF-8" standalone="no"?>
<!DOCTYPE svg PUBLIC "-//W3C//DTD SVG 1.1//EN"
 "http://www.w3.org/Graphics/SVG/1.1/DTD/svg11.dtd">
<!-- Generated by graphviz version 2.38.0 (20140413.2041)
 -->
<!-- Title: %3 Pages: 1 -->
<svg width="556pt" height="404pt"
 viewBox="0.00 0.00 555.69 404.37" xmlns="http://www.w3.org/2000/svg" xmlns:xlink="http://www.w3.org/1999/xlink">
<g id="graph0" class="graph" transform="scale(1 1) rotate(0) translate(4 400.375)">
<title>%3</title>
<polygon fill="white" stroke="none" points="-4,4 -4,-400.375 551.69,-400.375 551.69,4 -4,4"/>
<!-- x0 -->
<g id="node1" class="node"><title>x0</title>
<polygon fill="lightgray" stroke="black" points="362.577,-396.375 326.577,-396.375 326.577,-360.375 362.577,-360.375 362.577,-396.375"/>
<text text-anchor="middle" x="344.577" y="-376.175" font-family="Times,serif" font-size="9.00">x0</text>
</g>
<!-- 93856 -->
<g id="node14" class="node"><title>93856</title>
<ellipse fill="white" stroke="black" cx="439.577" cy="-293.262" rx="27.6545" ry="27.6545"/>
<text text-anchor="middle" x="439.577" y="-291.062" font-family="Times,serif" font-size="9.00">93856</text>
</g>
<!-- x0&#45;&gt;93856 -->
<g id="edge35" class="edge"><title>x0&#45;&gt;93856</title>
<path fill="none" stroke="green" stroke-width="0.164098" d="M362.894,-361.35C376.577,-349.379 395.534,-332.794 411.175,-319.11"/>
<polygon fill="green" stroke="green" stroke-width="0.164098" points="413.786,-321.477 419.007,-312.258 409.177,-316.208 413.786,-321.477"/>
</g>
<!-- 40636 -->
<g id="node17" class="node"><title>40636</title>
<ellipse fill="white" stroke="black" cx="100.577" cy="-293.262" rx="27.6545" ry="27.6545"/>
<text text-anchor="middle" x="100.577" y="-291.062" font-family="Times,serif" font-size="9.00">40636</text>
</g>
<!-- x0&#45;&gt;40636 -->
<g id="edge13" class="edge"><title>x0&#45;&gt;40636</title>
<path fill="none" stroke="green" stroke-width="0.9" d="M326.463,-364.731C323.58,-363.087 320.562,-361.564 317.577,-360.375 241.381,-330.018 210.558,-359.789 136.577,-324.375 133.637,-322.967 130.737,-321.265 127.936,-319.393"/>
<polygon fill="green" stroke="green" stroke-width="0.9" points="130.001,-316.567 119.89,-313.4 125.819,-322.18 130.001,-316.567"/>
</g>
<!-- x1 -->
<g id="node2" class="node"><title>x1</title>
<polygon fill="lightgray" stroke="black" points="69.5772,-396.375 33.5772,-396.375 33.5772,-360.375 69.5772,-360.375 69.5772,-396.375"/>
<text text-anchor="middle" x="51.5772" y="-376.175" font-family="Times,serif" font-size="9.00">x1</text>
</g>
<!-- x1&#45;&gt;40636 -->
<g id="edge9" class="edge"><title>x1&#45;&gt;40636</title>
<path fill="none" stroke="red" stroke-width="0.36168" d="M61.73,-360.154C67.4809,-350.399 74.8603,-337.882 81.6398,-326.383"/>
<polygon fill="red" stroke="red" stroke-width="0.36168" points="84.8418,-327.843 86.9055,-317.451 78.8118,-324.288 84.8418,-327.843"/>
</g>
<!-- 75624 -->
<g id="node21" class="node"><title>75624</title>
<ellipse fill="white" stroke="black" cx="27.5772" cy="-293.262" rx="27.6545" ry="27.6545"/>
<text text-anchor="middle" x="27.5772" y="-291.062" font-family="Times,serif" font-size="9.00">75624</text>
</g>
<!-- x1&#45;&gt;75624 -->
<g id="edge26" class="edge"><title>x1&#45;&gt;75624</title>
<path fill="none" stroke="green" stroke-width="0.2157" d="M46.6043,-360.154C44.0656,-351.362 40.8789,-340.326 37.8434,-329.814"/>
<polygon fill="green" stroke="green" stroke-width="0.2157" points="41.1425,-328.623 35.0055,-319.987 34.4173,-330.565 41.1425,-328.623"/>
</g>
<!-- x2 -->
<g id="node3" class="node"><title>x2</title>
<polygon fill="lightgray" stroke="black" points="254.577,-396.375 218.577,-396.375 218.577,-360.375 254.577,-360.375 254.577,-396.375"/>
<text text-anchor="middle" x="236.577" y="-376.175" font-family="Times,serif" font-size="9.00">x2</text>
</g>
<!-- 92458 -->
<g id="node15" class="node"><title>92458</title>
<ellipse fill="white" stroke="black" cx="246.577" cy="-293.262" rx="27.6545" ry="27.6545"/>
<text text-anchor="middle" x="246.577" y="-291.062" font-family="Times,serif" font-size="9.00">92458</text>
</g>
<!-- x2&#45;&gt;92458 -->
<g id="edge28" class="edge"><title>x2&#45;&gt;92458</title>
<path fill="none" stroke="red" stroke-width="0.162327" d="M238.649,-360.154C239.67,-351.666 240.943,-341.088 242.168,-330.909"/>
<polygon fill="red" stroke="red" stroke-width="0.162327" points="245.646,-331.301 243.366,-320.954 238.696,-330.464 245.646,-331.301"/>
</g>
<!-- x2&#45;&gt;40636 -->
<g id="edge10" class="edge"><title>x2&#45;&gt;40636</title>
<path fill="none" stroke="green" stroke-width="0.9" d="M218.432,-365.592C215.502,-363.793 212.478,-361.997 209.577,-360.375 178.006,-342.714 166.888,-344.12 136.577,-324.375 134.081,-322.749 131.563,-320.973 129.081,-319.123"/>
<polygon fill="green" stroke="green" stroke-width="0.9" points="130.888,-316.091 120.864,-312.66 126.561,-321.593 130.888,-316.091"/>
</g>
<!-- 34532 -->
<g id="node20" class="node"><title>34532</title>
<ellipse fill="white" stroke="black" cx="366.577" cy="-293.262" rx="27.6545" ry="27.6545"/>
<text text-anchor="middle" x="366.577" y="-291.062" font-family="Times,serif" font-size="9.00">34532</text>
</g>
<!-- x2&#45;&gt;34532 -->
<g id="edge11" class="edge"><title>x2&#45;&gt;34532</title>
<path fill="none" stroke="red" stroke-width="0.24998" d="M254.773,-365.68C257.697,-363.87 260.705,-362.048 263.577,-360.375 292.786,-343.359 302.579,-343.317 330.577,-324.375 333.045,-322.705 335.542,-320.898 338.009,-319.028"/>
<polygon fill="red" stroke="red" stroke-width="0.24998" points="340.544,-321.484 346.202,-312.526 336.193,-316.001 340.544,-321.484"/>
</g>
<!-- x3 -->
<g id="node4" class="node"><title>x3</title>
<polygon fill="lightgray" stroke="black" points="132.577,-396.375 96.5772,-396.375 96.5772,-360.375 132.577,-360.375 132.577,-396.375"/>
<text text-anchor="middle" x="114.577" y="-376.175" font-family="Times,serif" font-size="9.00">x3</text>
</g>
<!-- 1 -->
<g id="node13" class="node"><title>1</title>
<ellipse fill="white" stroke="black" cx="306.577" cy="-293.262" rx="14.7" ry="14.7"/>
<text text-anchor="middle" x="306.577" y="-291.062" font-family="Times,serif" font-size="9.00">1</text>
</g>
<!-- x3&#45;&gt;1 -->
<g id="edge43" class="edge"><title>x3&#45;&gt;1</title>
<path fill="none" stroke="red" stroke-width="0.232209" d="M132.767,-369.287C139.819,-366.297 148.005,-362.999 155.577,-360.375 211.415,-341.023 234.681,-357.564 283.577,-324.375 287.312,-321.839 290.698,-318.499 293.653,-314.968"/>
<polygon fill="red" stroke="red" stroke-width="0.232209" points="296.644,-316.808 299.727,-306.671 290.996,-312.672 296.644,-316.808"/>
</g>
<!-- x3&#45;&gt;92458 -->
<g id="edge34" class="edge"><title>x3&#45;&gt;92458</title>
<path fill="none" stroke="red" stroke-width="0.101978" d="M132.88,-368.595C152.664,-358.807 184.817,-342.017 210.577,-324.375 213.035,-322.691 215.525,-320.874 217.988,-318.997"/>
<polygon fill="red" stroke="red" stroke-width="0.101978" points="220.528,-321.449 226.172,-312.483 216.168,-315.972 220.528,-321.449"/>
</g>
<!-- x3&#45;&gt;40636 -->
<g id="edge8" class="edge"><title>x3&#45;&gt;40636</title>
<path fill="none" stroke="red" stroke-width="0.493651" d="M111.676,-360.154C110.235,-351.595 108.435,-340.91 106.707,-330.652"/>
<polygon fill="red" stroke="red" stroke-width="0.493651" points="110.131,-329.91 105.019,-320.631 103.229,-331.073 110.131,-329.91"/>
</g>
<!-- x3&#45;&gt;75624 -->
<g id="edge19" class="edge"><title>x3&#45;&gt;75624</title>
<path fill="none" stroke="red" stroke-width="0.337456" d="M96.5507,-360.154C84.3723,-348.519 68.0811,-332.956 54.3895,-319.876"/>
<polygon fill="red" stroke="red" stroke-width="0.337456" points="56.7417,-317.283 47.0932,-312.906 51.9063,-322.344 56.7417,-317.283"/>
</g>
<!-- x4 -->
<g id="node5" class="node"><title>x4</title>
<polygon fill="lightgray" stroke="black" points="308.577,-396.375 272.577,-396.375 272.577,-360.375 308.577,-360.375 308.577,-396.375"/>
<text text-anchor="middle" x="290.577" y="-376.175" font-family="Times,serif" font-size="9.00">x4</text>
</g>
<!-- x4&#45;&gt;1 -->
<g id="edge6" class="edge"><title>x4&#45;&gt;1</title>
<path fill="none" stroke="red" stroke-width="0.9" d="M293.892,-360.154C296.247,-347.923 299.437,-331.35 302.03,-317.885"/>
<polygon fill="red" stroke="red" stroke-width="0.9" points="305.499,-318.376 303.953,-307.895 298.625,-317.053 305.499,-318.376"/>
</g>
<!-- x4&#45;&gt;34532 -->
<g id="edge15" class="edge"><title>x4&#45;&gt;34532</title>
<path fill="none" stroke="green" stroke-width="0.9" d="M306.324,-360.154C316.478,-349.05 329.904,-334.367 341.505,-321.68"/>
<polygon fill="green" stroke="green" stroke-width="0.9" points="344.282,-323.83 348.447,-314.089 339.116,-319.107 344.282,-323.83"/>
</g>
<!-- x5 -->
<g id="node6" class="node"><title>x5</title>
<polygon fill="lightgray" stroke="black" points="416.577,-396.375 380.577,-396.375 380.577,-360.375 416.577,-360.375 416.577,-396.375"/>
<text text-anchor="middle" x="398.577" y="-376.175" font-family="Times,serif" font-size="9.00">x5</text>
</g>
<!-- x5&#45;&gt;1 -->
<g id="edge5" class="edge"><title>x5&#45;&gt;1</title>
<path fill="none" stroke="red" stroke-width="0.58567" d="M380.526,-365.487C365.959,-355.445 345.363,-340.204 329.577,-324.375 326.442,-321.231 323.361,-317.651 320.523,-314.084"/>
<polygon fill="red" stroke="red" stroke-width="0.58567" points="323.245,-311.88 314.434,-305.995 317.652,-316.09 323.245,-311.88"/>
</g>
<!-- x5&#45;&gt;93856 -->
<g id="edge38" class="edge"><title>x5&#45;&gt;93856</title>
<path fill="none" stroke="green" stroke-width="0.689684" d="M407.072,-360.154C411.727,-350.719 417.656,-338.699 423.173,-327.516"/>
<polygon fill="green" stroke="green" stroke-width="0.689684" points="426.387,-328.911 427.673,-318.394 420.11,-325.814 426.387,-328.911"/>
</g>
<!-- x5&#45;&gt;92458 -->
<g id="edge20" class="edge"><title>x5&#45;&gt;92458</title>
<path fill="none" stroke="green" stroke-width="0.394766" d="M380.534,-365.402C377.59,-363.628 374.536,-361.889 371.577,-360.375 333.596,-340.931 319.164,-346.33 282.577,-324.375 279.782,-322.698 276.982,-320.809 274.246,-318.817"/>
<polygon fill="green" stroke="green" stroke-width="0.394766" points="276.343,-316.014 266.302,-312.635 272.044,-321.538 276.343,-316.014"/>
</g>
<!-- x5&#45;&gt;34532 -->
<g id="edge24" class="edge"><title>x5&#45;&gt;34532</title>
<path fill="none" stroke="red" stroke-width="0.851246" d="M391.947,-360.154C388.471,-351.126 384.084,-339.732 379.94,-328.968"/>
<polygon fill="red" stroke="red" stroke-width="0.851246" points="383.095,-327.421 376.235,-319.346 376.562,-329.936 383.095,-327.421"/>
</g>
<!-- x6 -->
<g id="node7" class="node"><title>x6</title>
<polygon fill="lightgray" stroke="black" points="200.577,-396.375 164.577,-396.375 164.577,-360.375 200.577,-360.375 200.577,-396.375"/>
<text text-anchor="middle" x="182.577" y="-376.175" font-family="Times,serif" font-size="9.00">x6</text>
</g>
<!-- x6&#45;&gt;1 -->
<g id="edge1" class="edge"><title>x6&#45;&gt;1</title>
<path fill="none" stroke="green" stroke-width="0.785215" d="M200.715,-365.578C203.646,-363.781 206.672,-361.989 209.577,-360.375 241.544,-342.605 255.268,-347.533 283.577,-324.375 287.014,-321.563 290.238,-318.141 293.121,-314.625"/>
<polygon fill="green" stroke="green" stroke-width="0.785215" points="296.009,-316.607 299.174,-306.496 290.394,-312.427 296.009,-316.607"/>
</g>
<!-- x6&#45;&gt;92458 -->
<g id="edge25" class="edge"><title>x6&#45;&gt;92458</title>
<path fill="none" stroke="green" stroke-width="0.154702" d="M195.838,-360.154C203.93,-349.646 214.489,-335.933 223.879,-323.739"/>
<polygon fill="green" stroke="green" stroke-width="0.154702" points="226.819,-325.657 230.148,-315.598 221.273,-321.386 226.819,-325.657"/>
</g>
<!-- 96738 -->
<g id="node19" class="node"><title>96738</title>
<ellipse fill="white" stroke="black" cx="173.577" cy="-293.262" rx="27.6545" ry="27.6545"/>
<text text-anchor="middle" x="173.577" y="-291.062" font-family="Times,serif" font-size="9.00">96738</text>
</g>
<!-- x6&#45;&gt;96738 -->
<g id="edge37" class="edge"><title>x6&#45;&gt;96738</title>
<path fill="none" stroke="green" stroke-width="0.18439" d="M180.712,-360.154C179.793,-351.666 178.648,-341.088 177.546,-330.909"/>
<polygon fill="green" stroke="green" stroke-width="0.18439" points="181.024,-330.519 176.468,-320.954 174.065,-331.273 181.024,-330.519"/>
</g>
<!-- x6&#45;&gt;34532 -->
<g id="edge16" class="edge"><title>x6&#45;&gt;34532</title>
<path fill="none" stroke="red" stroke-width="0.670526" d="M200.796,-364.977C203.665,-363.299 206.651,-361.701 209.577,-360.375 260.68,-337.212 281.148,-350.923 330.577,-324.375 333.449,-322.832 336.301,-321.037 339.072,-319.105"/>
<polygon fill="red" stroke="red" stroke-width="0.670526" points="341.233,-321.859 347.07,-313.017 336.993,-316.289 341.233,-321.859"/>
</g>
<!-- x6&#45;&gt;75624 -->
<g id="edge18" class="edge"><title>x6&#45;&gt;75624</title>
<path fill="none" stroke="red" stroke-width="0.332386" d="M164.253,-369.546C133.185,-356.224 72.6435,-330.031 63.5772,-324.375 60.8119,-322.649 58.0319,-320.728 55.3092,-318.714"/>
<polygon fill="red" stroke="red" stroke-width="0.332386" points="57.4136,-315.917 47.3854,-312.498 53.0929,-321.424 57.4136,-315.917"/>
</g>
<!-- x7 -->
<g id="node8" class="node"><title>x7</title>
<polygon fill="lightgray" stroke="black" points="470.577,-396.375 434.577,-396.375 434.577,-360.375 470.577,-360.375 470.577,-396.375"/>
<text text-anchor="middle" x="452.577" y="-376.175" font-family="Times,serif" font-size="9.00">x7</text>
</g>
<!-- x7&#45;&gt;1 -->
<g id="edge7" class="edge"><title>x7&#45;&gt;1</title>
<path fill="none" stroke="red" stroke-width="0.461579" d="M434.568,-365.335C431.62,-363.569 428.555,-361.851 425.577,-360.375 384.753,-340.131 366.164,-351.538 329.577,-324.375 325.953,-321.684 322.618,-318.271 319.679,-314.718"/>
<polygon fill="red" stroke="red" stroke-width="0.461579" points="322.336,-312.422 313.589,-306.444 316.698,-316.572 322.336,-312.422"/>
</g>
<!-- x7&#45;&gt;93856 -->
<g id="edge23" class="edge"><title>x7&#45;&gt;93856</title>
<path fill="none" stroke="red" stroke-width="0.388852" d="M449.884,-360.154C448.545,-351.595 446.874,-340.91 445.269,-330.652"/>
<polygon fill="red" stroke="red" stroke-width="0.388852" points="448.705,-329.97 443.702,-320.631 441.789,-331.051 448.705,-329.97"/>
</g>
<!-- 105408 -->
<g id="node18" class="node"><title>105408</title>
<ellipse fill="white" stroke="black" cx="516.577" cy="-293.262" rx="31.2258" ry="31.2258"/>
<text text-anchor="middle" x="516.577" y="-291.062" font-family="Times,serif" font-size="9.00">105408</text>
</g>
<!-- x7&#45;&gt;105408 -->
<g id="edge41" class="edge"><title>x7&#45;&gt;105408</title>
<path fill="none" stroke="green" stroke-width="0.144304" d="M465.838,-360.154C473.321,-350.435 482.916,-337.976 491.743,-326.512"/>
<polygon fill="green" stroke="green" stroke-width="0.144304" points="494.666,-328.453 497.995,-318.394 489.12,-324.182 494.666,-328.453"/>
</g>
<!-- x7&#45;&gt;34532 -->
<g id="edge17" class="edge"><title>x7&#45;&gt;34532</title>
<path fill="none" stroke="red" stroke-width="0.858189" d="M434.758,-360.154C422.913,-348.707 407.133,-333.456 393.737,-320.51"/>
<polygon fill="red" stroke="red" stroke-width="0.858189" points="395.796,-317.632 386.173,-313.2 390.931,-322.666 395.796,-317.632"/>
</g>
<!-- y0 -->
<g id="node9" class="node"><title>y0</title>
<ellipse fill="lightblue" stroke="black" cx="214.577" cy="-18.3848" rx="18.2703" ry="18.2703"/>
<text text-anchor="middle" x="214.577" y="-16.1848" font-family="Times,serif" font-size="9.00">y0</text>
</g>
<!-- 92672 -->
<g id="node10" class="node"><title>92672</title>
<ellipse fill="white" stroke="black" cx="154.577" cy="-100.347" rx="27.6545" ry="27.6545"/>
<text text-anchor="middle" x="154.577" y="-98.1467" font-family="Times,serif" font-size="9.00">92672</text>
</g>
<!-- 92672&#45;&gt;y0 -->
<g id="edge22" class="edge"><title>92672&#45;&gt;y0</title>
<path fill="none" stroke="red" stroke-width="0.152203" d="M170.656,-77.9184C179.065,-66.7116 189.349,-53.006 197.852,-41.675"/>
<polygon fill="red" stroke="red" stroke-width="0.152203" points="200.743,-43.653 203.945,-33.5537 195.144,-39.4517 200.743,-43.653"/>
</g>
<!-- 2 -->
<g id="node11" class="node"><title>2</title>
<ellipse fill="white" stroke="black" cx="177.577" cy="-195.037" rx="14.7" ry="14.7"/>
<text text-anchor="middle" x="177.577" y="-192.837" font-family="Times,serif" font-size="9.00">2</text>
</g>
<!-- 2&#45;&gt;92672 -->
<g id="edge39" class="edge"><title>2&#45;&gt;92672</title>
<path fill="none" stroke="green" stroke-width="0.329503" d="M174.183,-180.36C171.381,-169.067 167.273,-152.509 163.539,-137.465"/>
<polygon fill="green" stroke="green" stroke-width="0.329503" points="166.841,-136.237 161.036,-127.374 160.047,-137.923 166.841,-136.237"/>
</g>
<!-- 3 -->
<g id="node12" class="node"><title>3</title>
<ellipse fill="white" stroke="black" cx="214.577" cy="-100.347" rx="14.7" ry="14.7"/>
<text text-anchor="middle" x="214.577" y="-98.1467" font-family="Times,serif" font-size="9.00">3</text>
</g>
<!-- 2&#45;&gt;3 -->
<g id="edge4" class="edge"><title>2&#45;&gt;3</title>
<path fill="none" stroke="red" stroke-width="0.9" d="M182.878,-180.756C188.819,-165.874 198.549,-141.5 205.664,-123.675"/>
<polygon fill="red" stroke="red" stroke-width="0.9" points="208.948,-124.888 209.405,-114.303 202.447,-122.293 208.948,-124.888"/>
</g>
<!-- 61563 -->
<g id="node22" class="node"><title>61563</title>
<ellipse fill="white" stroke="black" cx="274.577" cy="-100.347" rx="27.6545" ry="27.6545"/>
<text text-anchor="middle" x="274.577" y="-98.1467" font-family="Times,serif" font-size="9.00">61563</text>
</g>
<!-- 2&#45;&gt;61563 -->
<g id="edge14" class="edge"><title>2&#45;&gt;61563</title>
<path fill="none" stroke="red" stroke-width="0.770638" d="M187.958,-184.117C202.086,-170.617 227.872,-145.977 247.648,-127.079"/>
<polygon fill="red" stroke="red" stroke-width="0.770638" points="250.085,-129.592 254.897,-120.153 245.249,-124.531 250.085,-129.592"/>
</g>
<!-- 3&#45;&gt;y0 -->
<g id="edge3" class="edge"><title>3&#45;&gt;y0</title>
<path fill="none" stroke="red" stroke-width="0.321745" d="M214.577,-85.4184C214.577,-74.8613 214.577,-60.0116 214.577,-47.0674"/>
<polygon fill="red" stroke="red" stroke-width="0.321745" points="218.077,-46.7784 214.577,-36.7785 211.077,-46.7785 218.077,-46.7784"/>
</g>
<!-- 1&#45;&gt;2 -->
<g id="edge2" class="edge"><title>1&#45;&gt;2</title>
<path fill="none" stroke="red" stroke-width="0.9" d="M299.03,-280.197C294.943,-274.289 289.518,-267.348 283.577,-262.149 259.307,-240.913 247.814,-243.417 220.577,-226.149 212.892,-221.277 204.661,-215.625 197.478,-210.542"/>
<polygon fill="red" stroke="red" stroke-width="0.9" points="199.229,-207.49 189.061,-204.51 195.151,-213.18 199.229,-207.49"/>
</g>
<!-- 103088 -->
<g id="node16" class="node"><title>103088</title>
<ellipse fill="white" stroke="black" cx="260.577" cy="-195.037" rx="31.2258" ry="31.2258"/>
<text text-anchor="middle" x="260.577" y="-192.837" font-family="Times,serif" font-size="9.00">103088</text>
</g>
<!-- 1&#45;&gt;103088 -->
<g id="edge31" class="edge"><title>1&#45;&gt;103088</title>
<path fill="none" stroke="red" stroke-width="0.460348" d="M300.563,-279.682C294.904,-267.843 286.144,-249.519 278.265,-233.036"/>
<polygon fill="red" stroke="red" stroke-width="0.460348" points="281.228,-231.119 273.757,-223.607 274.912,-234.139 281.228,-231.119"/>
</g>
<!-- 93856&#45;&gt;103088 -->
<g id="edge30" class="edge"><title>93856&#45;&gt;103088</title>
<path fill="none" stroke="red" stroke-width="0.694848" d="M419.734,-274.081C414.664,-269.888 409.083,-265.638 403.577,-262.149 370.159,-240.973 328.851,-222.62 299.238,-210.66"/>
<polygon fill="red" stroke="red" stroke-width="0.694848" points="300.258,-207.299 289.672,-206.855 297.67,-213.803 300.258,-207.299"/>
</g>
<!-- 92458&#45;&gt;103088 -->
<g id="edge33" class="edge"><title>92458&#45;&gt;103088</title>
<path fill="none" stroke="green" stroke-width="0.207548" d="M250.44,-265.713C251.773,-256.547 253.298,-246.065 254.754,-236.063"/>
<polygon fill="green" stroke="green" stroke-width="0.207548" points="258.258,-236.288 256.234,-225.889 251.331,-235.28 258.258,-236.288"/>
</g>
<!-- 103088&#45;&gt;92672 -->
<g id="edge44" class="edge"><title>103088&#45;&gt;92672</title>
<path fill="none" stroke="green" stroke-width="0.365408" d="M237.577,-173.924C221.419,-159.796 199.715,-140.817 182.554,-125.81"/>
<polygon fill="green" stroke="green" stroke-width="0.365408" points="184.857,-123.175 175.025,-119.227 180.249,-128.444 184.857,-123.175"/>
</g>
<!-- 103088&#45;&gt;3 -->
<g id="edge40" class="edge"><title>103088&#45;&gt;3</title>
<path fill="none" stroke="red" stroke-width="0.258688" d="M247.024,-166.728C240.182,-152.94 231.989,-136.432 225.548,-123.454"/>
<polygon fill="red" stroke="red" stroke-width="0.258688" points="228.596,-121.722 221.016,-114.32 222.326,-124.834 228.596,-121.722"/>
</g>
<!-- 103088&#45;&gt;61563 -->
<g id="edge36" class="edge"><title>103088&#45;&gt;61563</title>
<path fill="none" stroke="red" stroke-width="0.21143" d="M265.084,-164.199C266.359,-155.754 267.762,-146.469 269.088,-137.687"/>
<polygon fill="red" stroke="red" stroke-width="0.21143" points="272.566,-138.1 270.598,-127.689 265.644,-137.054 272.566,-138.1"/>
</g>
<!-- 40636&#45;&gt;2 -->
<g id="edge12" class="edge"><title>40636&#45;&gt;2</title>
<path fill="none" stroke="green" stroke-width="0.9" d="M117.666,-270.906C130.974,-254.275 149.288,-231.389 162.153,-215.312"/>
<polygon fill="green" stroke="green" stroke-width="0.9" points="165.159,-217.158 168.674,-207.163 159.693,-212.784 165.159,-217.158"/>
</g>
<!-- 105408&#45;&gt;103088 -->
<g id="edge42" class="edge"><title>105408&#45;&gt;103088</title>
<path fill="none" stroke="green" stroke-width="0.379203" d="M492.932,-272.358C487.758,-268.615 482.154,-264.99 476.577,-262.149 418.871,-232.752 345.734,-213.771 301.086,-204"/>
<polygon fill="green" stroke="green" stroke-width="0.379203" points="301.702,-200.553 291.191,-201.884 300.238,-207.398 301.702,-200.553"/>
</g>
<!-- 96738&#45;&gt;2 -->
<g id="edge29" class="edge"><title>96738&#45;&gt;2</title>
<path fill="none" stroke="green" stroke-width="0.372488" d="M174.691,-265.458C175.282,-251.241 176.003,-233.913 176.576,-220.126"/>
<polygon fill="green" stroke="green" stroke-width="0.372488" points="180.08,-220.091 176.999,-209.955 173.086,-219.801 180.08,-220.091"/>
</g>
<!-- 96738&#45;&gt;103088 -->
<g id="edge45" class="edge"><title>96738&#45;&gt;103088</title>
<path fill="none" stroke="green" stroke-width="0.257179" d="M191.604,-272.324C203.64,-259.011 219.695,-241.254 233.286,-226.221"/>
<polygon fill="green" stroke="green" stroke-width="0.257179" points="236.024,-228.412 240.135,-218.647 230.832,-223.717 236.024,-228.412"/>
</g>
<!-- 34532&#45;&gt;2 -->
<g id="edge27" class="edge"><title>34532&#45;&gt;2</title>
<path fill="none" stroke="red" stroke-width="0.708587" d="M347.01,-273.617C341.931,-269.438 336.278,-265.311 330.577,-262.149 285.594,-237.197 266.588,-249.152 220.577,-226.149 212.438,-222.08 204.107,-216.605 196.972,-211.439"/>
<polygon fill="red" stroke="red" stroke-width="0.708587" points="198.771,-208.412 188.677,-205.19 194.558,-214.003 198.771,-208.412"/>
</g>
<!-- 75624&#45;&gt;2 -->
<g id="edge21" class="edge"><title>75624&#45;&gt;2</title>
<path fill="none" stroke="red" stroke-width="0.222784" d="M48.0377,-274.121C52.9962,-270.016 58.3717,-265.796 63.5772,-262.149 94.0747,-240.786 131.87,-219.865 155.358,-207.458"/>
<polygon fill="red" stroke="red" stroke-width="0.222784" points="157.246,-210.421 164.486,-202.686 154.002,-204.218 157.246,-210.421"/>
</g>
<!-- 61563&#45;&gt;y0 -->
<g id="edge32" class="edge"><title>61563&#45;&gt;y0</title>
<path fill="none" stroke="red" stroke-width="0.326103" d="M258.498,-77.9184C250.089,-66.7116 239.805,-53.006 231.303,-41.675"/>
<polygon fill="red" stroke="red" stroke-width="0.326103" points="234.01,-39.4517 225.209,-33.5537 228.411,-43.653 234.01,-39.4517"/>
</g>
</g>
</svg>
