<?xml version="1.0" encoding="UTF-8" standalone="no"?>
<!DOCTYPE svg PUBLIC "-//W3C//DTD SVG 1.1//EN"
 "http://www.w3.org/Graphics/SVG/1.1/DTD/svg11.dtd">
<!-- Generated by graphviz version 2.38.0 (20140413.2041)
 -->
<!-- Title: %3 Pages: 1 -->
<svg width="524pt" height="397pt"
 viewBox="0.00 0.00 523.69 397.30" xmlns="http://www.w3.org/2000/svg" xmlns:xlink="http://www.w3.org/1999/xlink">
<g id="graph0" class="graph" transform="scale(1 1) rotate(0) translate(4 393.304)">
<title>%3</title>
<polygon fill="white" stroke="none" points="-4,4 -4,-393.304 519.69,-393.304 519.69,4 -4,4"/>
<!-- x0 -->
<g id="node1" class="node"><title>x0</title>
<polygon fill="lightgray" stroke="black" points="180.113,-389.304 144.113,-389.304 144.113,-353.304 180.113,-353.304 180.113,-389.304"/>
<text text-anchor="middle" x="162.113" y="-369.104" font-family="Times,serif" font-size="9.00">x0</text>
</g>
<!-- 23965 -->
<g id="node15" class="node"><title>23965</title>
<ellipse fill="white" stroke="black" cx="108.113" cy="-286.191" rx="27.6545" ry="27.6545"/>
<text text-anchor="middle" x="108.113" y="-283.991" font-family="Times,serif" font-size="9.00">23965</text>
</g>
<!-- x0&#45;&gt;23965 -->
<g id="edge2" class="edge"><title>x0&#45;&gt;23965</title>
<path fill="none" stroke="red" stroke-width="0.899396" d="M150.924,-353.083C144.425,-343.08 136.039,-330.173 128.414,-318.437"/>
<polygon fill="red" stroke="red" stroke-width="0.899396" points="131.158,-316.236 122.775,-309.758 125.288,-320.05 131.158,-316.236"/>
</g>
<!-- 86478 -->
<g id="node19" class="node"><title>86478</title>
<ellipse fill="white" stroke="black" cx="254.113" cy="-286.191" rx="27.6545" ry="27.6545"/>
<text text-anchor="middle" x="254.113" y="-283.991" font-family="Times,serif" font-size="9.00">86478</text>
</g>
<!-- x0&#45;&gt;86478 -->
<g id="edge30" class="edge"><title>x0&#45;&gt;86478</title>
<path fill="none" stroke="red" stroke-width="0.9" d="M180.289,-353.883C193.489,-341.959 211.584,-325.611 226.556,-312.086"/>
<polygon fill="red" stroke="red" stroke-width="0.9" points="228.984,-314.609 234.058,-305.308 224.291,-309.415 228.984,-314.609"/>
</g>
<!-- x1 -->
<g id="node2" class="node"><title>x1</title>
<polygon fill="lightgray" stroke="black" points="234.113,-389.304 198.113,-389.304 198.113,-353.304 234.113,-353.304 234.113,-389.304"/>
<text text-anchor="middle" x="216.113" y="-369.104" font-family="Times,serif" font-size="9.00">x1</text>
</g>
<!-- x1&#45;&gt;23965 -->
<g id="edge9" class="edge"><title>x1&#45;&gt;23965</title>
<path fill="none" stroke="red" stroke-width="0.579972" d="M197.83,-357.323C183.136,-346.777 162.059,-331.393 144.113,-317.304 141.769,-315.464 139.361,-313.536 136.954,-311.581"/>
<polygon fill="red" stroke="red" stroke-width="0.579972" points="138.818,-308.582 128.873,-304.928 134.369,-313.986 138.818,-308.582"/>
</g>
<!-- 87589 -->
<g id="node16" class="node"><title>87589</title>
<ellipse fill="white" stroke="black" cx="181.113" cy="-286.191" rx="27.6545" ry="27.6545"/>
<text text-anchor="middle" x="181.113" y="-283.991" font-family="Times,serif" font-size="9.00">87589</text>
</g>
<!-- x1&#45;&gt;87589 -->
<g id="edge18" class="edge"><title>x1&#45;&gt;87589</title>
<path fill="none" stroke="green" stroke-width="0.396013" d="M208.861,-353.083C204.989,-343.889 200.084,-332.242 195.479,-321.305"/>
<polygon fill="green" stroke="green" stroke-width="0.396013" points="198.649,-319.815 191.542,-311.957 192.197,-322.531 198.649,-319.815"/>
</g>
<!-- x1&#45;&gt;86478 -->
<g id="edge14" class="edge"><title>x1&#45;&gt;86478</title>
<path fill="none" stroke="green" stroke-width="0.819461" d="M223.986,-353.083C228.223,-343.815 233.6,-332.055 238.635,-321.043"/>
<polygon fill="green" stroke="green" stroke-width="0.819461" points="241.96,-322.189 242.935,-311.639 235.593,-319.279 241.96,-322.189"/>
</g>
<!-- 105963 -->
<g id="node22" class="node"><title>105963</title>
<ellipse fill="white" stroke="black" cx="331.113" cy="-286.191" rx="31.2258" ry="31.2258"/>
<text text-anchor="middle" x="331.113" y="-283.991" font-family="Times,serif" font-size="9.00">105963</text>
</g>
<!-- x1&#45;&gt;105963 -->
<g id="edge37" class="edge"><title>x1&#45;&gt;105963</title>
<path fill="none" stroke="red" stroke-width="0.193749" d="M234.408,-357.604C249.662,-346.962 271.92,-331.304 291.113,-317.304 293.483,-315.575 295.923,-313.778 298.374,-311.962"/>
<polygon fill="red" stroke="red" stroke-width="0.193749" points="300.738,-314.566 306.661,-305.781 296.553,-308.954 300.738,-314.566"/>
</g>
<!-- x2 -->
<g id="node3" class="node"><title>x2</title>
<polygon fill="lightgray" stroke="black" points="126.113,-389.304 90.1127,-389.304 90.1127,-353.304 126.113,-353.304 126.113,-389.304"/>
<text text-anchor="middle" x="108.113" y="-369.104" font-family="Times,serif" font-size="9.00">x2</text>
</g>
<!-- x2&#45;&gt;23965 -->
<g id="edge1" class="edge"><title>x2&#45;&gt;23965</title>
<path fill="none" stroke="red" stroke-width="0.9" d="M108.113,-353.083C108.113,-344.684 108.113,-334.237 108.113,-324.156"/>
<polygon fill="red" stroke="red" stroke-width="0.9" points="111.613,-323.883 108.113,-313.883 104.613,-323.883 111.613,-323.883"/>
</g>
<!-- x2&#45;&gt;87589 -->
<g id="edge19" class="edge"><title>x2&#45;&gt;87589</title>
<path fill="none" stroke="red" stroke-width="0.133798" d="M123.238,-353.083C132.853,-342.136 145.522,-327.712 156.555,-315.15"/>
<polygon fill="red" stroke="red" stroke-width="0.133798" points="159.202,-317.44 163.172,-307.617 153.943,-312.821 159.202,-317.44"/>
</g>
<!-- 100649 -->
<g id="node17" class="node"><title>100649</title>
<ellipse fill="white" stroke="black" cx="31.1127" cy="-286.191" rx="31.2258" ry="31.2258"/>
<text text-anchor="middle" x="31.1127" y="-283.991" font-family="Times,serif" font-size="9.00">100649</text>
</g>
<!-- x2&#45;&gt;100649 -->
<g id="edge25" class="edge"><title>x2&#45;&gt;100649</title>
<path fill="none" stroke="red" stroke-width="0.524986" d="M92.1582,-353.083C82.6186,-342.786 70.2275,-329.411 59.1039,-317.404"/>
<polygon fill="red" stroke="red" stroke-width="0.524986" points="61.3835,-314.715 52.0198,-309.758 56.2485,-319.472 61.3835,-314.715"/>
</g>
<!-- x2&#45;&gt;86478 -->
<g id="edge21" class="edge"><title>x2&#45;&gt;86478</title>
<path fill="none" stroke="red" stroke-width="0.682926" d="M126.189,-358.395C129.129,-356.613 132.173,-354.855 135.113,-353.304 170.674,-334.537 183.895,-338.42 218.113,-317.304 220.886,-315.592 223.672,-313.68 226.399,-311.672"/>
<polygon fill="red" stroke="red" stroke-width="0.682926" points="228.611,-314.385 234.328,-305.465 224.296,-308.873 228.611,-314.385"/>
</g>
<!-- x3 -->
<g id="node4" class="node"><title>x3</title>
<polygon fill="lightgray" stroke="black" points="288.113,-389.304 252.113,-389.304 252.113,-353.304 288.113,-353.304 288.113,-389.304"/>
<text text-anchor="middle" x="270.113" y="-369.104" font-family="Times,serif" font-size="9.00">x3</text>
</g>
<!-- 101782 -->
<g id="node13" class="node"><title>101782</title>
<ellipse fill="white" stroke="black" cx="411.113" cy="-286.191" rx="31.2258" ry="31.2258"/>
<text text-anchor="middle" x="411.113" y="-283.991" font-family="Times,serif" font-size="9.00">101782</text>
</g>
<!-- x3&#45;&gt;101782 -->
<g id="edge33" class="edge"><title>x3&#45;&gt;101782</title>
<path fill="none" stroke="red" stroke-width="0.102038" d="M288.353,-358.915C291.577,-356.993 294.922,-355.055 298.113,-353.304 329.826,-335.9 340.305,-336.265 371.113,-317.304 373.694,-315.715 376.315,-314 378.916,-312.223"/>
<polygon fill="red" stroke="red" stroke-width="0.102038" points="380.964,-315.061 387.085,-306.414 376.907,-309.356 380.964,-315.061"/>
</g>
<!-- x3&#45;&gt;23965 -->
<g id="edge8" class="edge"><title>x3&#45;&gt;23965</title>
<path fill="none" stroke="green" stroke-width="0.9" d="M251.821,-358.062C248.962,-356.362 245.998,-354.716 243.113,-353.304 201.064,-332.714 184.681,-340.676 144.113,-317.304 141.289,-315.677 138.468,-313.823 135.719,-311.853"/>
<polygon fill="green" stroke="green" stroke-width="0.9" points="137.809,-309.045 127.754,-305.705 133.532,-314.586 137.809,-309.045"/>
</g>
<!-- x3&#45;&gt;86478 -->
<g id="edge22" class="edge"><title>x3&#45;&gt;86478</title>
<path fill="none" stroke="red" stroke-width="0.857516" d="M266.797,-353.083C265.15,-344.524 263.093,-333.839 261.118,-323.581"/>
<polygon fill="red" stroke="red" stroke-width="0.857516" points="264.516,-322.718 259.189,-313.56 257.643,-324.041 264.516,-322.718"/>
</g>
<!-- x4 -->
<g id="node5" class="node"><title>x4</title>
<polygon fill="lightgray" stroke="black" points="452.113,-389.304 416.113,-389.304 416.113,-353.304 452.113,-353.304 452.113,-389.304"/>
<text text-anchor="middle" x="434.113" y="-369.104" font-family="Times,serif" font-size="9.00">x4</text>
</g>
<!-- x4&#45;&gt;101782 -->
<g id="edge28" class="edge"><title>x4&#45;&gt;101782</title>
<path fill="none" stroke="green" stroke-width="0.439001" d="M429.347,-353.083C427.179,-345.248 424.518,-335.633 421.906,-326.193"/>
<polygon fill="green" stroke="green" stroke-width="0.439001" points="425.265,-325.207 419.224,-316.502 418.518,-327.074 425.265,-325.207"/>
</g>
<!-- 32797 -->
<g id="node14" class="node"><title>32797</title>
<ellipse fill="white" stroke="black" cx="488.113" cy="-286.191" rx="27.6545" ry="27.6545"/>
<text text-anchor="middle" x="488.113" y="-283.991" font-family="Times,serif" font-size="9.00">32797</text>
</g>
<!-- x4&#45;&gt;32797 -->
<g id="edge6" class="edge"><title>x4&#45;&gt;32797</title>
<path fill="none" stroke="red" stroke-width="0.513452" d="M445.302,-353.083C451.801,-343.08 460.187,-330.173 467.812,-318.437"/>
<polygon fill="red" stroke="red" stroke-width="0.513452" points="470.937,-320.05 473.451,-309.758 465.067,-316.236 470.937,-320.05"/>
</g>
<!-- x5 -->
<g id="node6" class="node"><title>x5</title>
<polygon fill="lightgray" stroke="black" points="506.113,-389.304 470.113,-389.304 470.113,-353.304 506.113,-353.304 506.113,-389.304"/>
<text text-anchor="middle" x="488.113" y="-369.104" font-family="Times,serif" font-size="9.00">x5</text>
</g>
<!-- x5&#45;&gt;32797 -->
<g id="edge7" class="edge"><title>x5&#45;&gt;32797</title>
<path fill="none" stroke="green" stroke-width="0.9" d="M488.113,-353.083C488.113,-344.684 488.113,-334.237 488.113,-324.156"/>
<polygon fill="green" stroke="green" stroke-width="0.9" points="491.613,-323.883 488.113,-313.883 484.613,-323.883 491.613,-323.883"/>
</g>
<!-- x6 -->
<g id="node7" class="node"><title>x6</title>
<polygon fill="lightgray" stroke="black" points="343.113,-389.304 307.113,-389.304 307.113,-353.304 343.113,-353.304 343.113,-389.304"/>
<text text-anchor="middle" x="325.113" y="-369.104" font-family="Times,serif" font-size="9.00">x6</text>
</g>
<!-- x6&#45;&gt;101782 -->
<g id="edge36" class="edge"><title>x6&#45;&gt;101782</title>
<path fill="none" stroke="green" stroke-width="0.407907" d="M342.932,-353.083C354.119,-342.272 368.816,-328.068 381.7,-315.617"/>
<polygon fill="green" stroke="green" stroke-width="0.407907" points="384.277,-317.993 389.035,-308.527 379.412,-312.96 384.277,-317.993"/>
</g>
<!-- x6&#45;&gt;32797 -->
<g id="edge5" class="edge"><title>x6&#45;&gt;32797</title>
<path fill="none" stroke="red" stroke-width="0.283085" d="M343.204,-358.625C346.444,-356.735 349.834,-354.883 353.113,-353.304 394.918,-333.169 410.789,-340.262 451.113,-317.304 454.156,-315.571 457.203,-313.589 460.17,-311.488"/>
<polygon fill="red" stroke="red" stroke-width="0.283085" points="462.399,-314.19 468.249,-305.357 458.167,-308.614 462.399,-314.19"/>
</g>
<!-- x6&#45;&gt;87589 -->
<g id="edge16" class="edge"><title>x6&#45;&gt;87589</title>
<path fill="none" stroke="red" stroke-width="0.416621" d="M306.923,-358.819C303.694,-356.908 300.334,-354.998 297.113,-353.304 262.606,-335.152 250.153,-338.005 217.113,-317.304 214.351,-315.573 211.573,-313.648 208.852,-311.632"/>
<polygon fill="red" stroke="red" stroke-width="0.416621" points="210.957,-308.835 200.93,-305.412 206.634,-314.34 210.957,-308.835"/>
</g>
<!-- x6&#45;&gt;86478 -->
<g id="edge12" class="edge"><title>x6&#45;&gt;86478</title>
<path fill="none" stroke="green" stroke-width="0.218478" d="M310.401,-353.083C301.139,-342.24 288.96,-327.984 278.301,-315.506"/>
<polygon fill="green" stroke="green" stroke-width="0.218478" points="280.719,-312.947 271.562,-307.617 275.396,-317.494 280.719,-312.947"/>
</g>
<!-- x7 -->
<g id="node8" class="node"><title>x7</title>
<polygon fill="lightgray" stroke="black" points="398.113,-389.304 362.113,-389.304 362.113,-353.304 398.113,-353.304 398.113,-389.304"/>
<text text-anchor="middle" x="380.113" y="-369.104" font-family="Times,serif" font-size="9.00">x7</text>
</g>
<!-- x7&#45;&gt;32797 -->
<g id="edge3" class="edge"><title>x7&#45;&gt;32797</title>
<path fill="none" stroke="green" stroke-width="0.879285" d="M398.364,-357.005C412.799,-346.408 433.401,-331.112 451.113,-317.304 453.725,-315.267 456.425,-313.131 459.12,-310.978"/>
<polygon fill="green" stroke="green" stroke-width="0.879285" points="461.514,-313.543 467.104,-304.543 457.121,-308.093 461.514,-313.543"/>
</g>
<!-- x7&#45;&gt;105963 -->
<g id="edge34" class="edge"><title>x7&#45;&gt;105963</title>
<path fill="none" stroke="green" stroke-width="0.365186" d="M369.96,-353.083C364.704,-344.167 358.088,-332.945 351.812,-322.301"/>
<polygon fill="green" stroke="green" stroke-width="0.365186" points="354.752,-320.396 346.659,-313.56 348.722,-323.952 354.752,-320.396"/>
</g>
<!-- y0 -->
<g id="node9" class="node"><title>y0</title>
<ellipse fill="lightblue" stroke="black" cx="254.113" cy="-18.3848" rx="18.2703" ry="18.2703"/>
<text text-anchor="middle" x="254.113" y="-16.1848" font-family="Times,serif" font-size="9.00">y0</text>
</g>
<!-- 79501 -->
<g id="node10" class="node"><title>79501</title>
<ellipse fill="white" stroke="black" cx="254.113" cy="-191.501" rx="27.6545" ry="27.6545"/>
<text text-anchor="middle" x="254.113" y="-189.301" font-family="Times,serif" font-size="9.00">79501</text>
</g>
<!-- 48143 -->
<g id="node11" class="node"><title>48143</title>
<ellipse fill="white" stroke="black" cx="327.113" cy="-100.347" rx="27.6545" ry="27.6545"/>
<text text-anchor="middle" x="327.113" y="-98.1467" font-family="Times,serif" font-size="9.00">48143</text>
</g>
<!-- 79501&#45;&gt;48143 -->
<g id="edge27" class="edge"><title>79501&#45;&gt;48143</title>
<path fill="none" stroke="green" stroke-width="0.662322" d="M271.413,-169.373C280.958,-157.714 292.954,-143.065 303.365,-130.349"/>
<polygon fill="green" stroke="green" stroke-width="0.662322" points="306.31,-132.278 309.937,-122.323 300.894,-127.843 306.31,-132.278"/>
</g>
<!-- 21 -->
<g id="node12" class="node"><title>21</title>
<ellipse fill="white" stroke="black" cx="190.113" cy="-100.347" rx="18.2703" ry="18.2703"/>
<text text-anchor="middle" x="190.113" y="-98.1467" font-family="Times,serif" font-size="9.00">21</text>
</g>
<!-- 79501&#45;&gt;21 -->
<g id="edge20" class="edge"><title>79501&#45;&gt;21</title>
<path fill="none" stroke="green" stroke-width="0.14784" d="M238.292,-168.463C228.576,-154.927 216.158,-137.629 206.363,-123.984"/>
<polygon fill="green" stroke="green" stroke-width="0.14784" points="209.035,-121.704 200.36,-115.621 203.348,-125.786 209.035,-121.704"/>
</g>
<!-- 90573 -->
<g id="node18" class="node"><title>90573</title>
<ellipse fill="white" stroke="black" cx="254.113" cy="-100.347" rx="27.6545" ry="27.6545"/>
<text text-anchor="middle" x="254.113" y="-98.1467" font-family="Times,serif" font-size="9.00">90573</text>
</g>
<!-- 79501&#45;&gt;90573 -->
<g id="edge17" class="edge"><title>79501&#45;&gt;90573</title>
<path fill="none" stroke="green" stroke-width="0.185454" d="M254.113,-163.752C254.113,-155.73 254.113,-146.785 254.113,-138.23"/>
<polygon fill="green" stroke="green" stroke-width="0.185454" points="257.613,-138.077 254.113,-128.077 250.613,-138.077 257.613,-138.077"/>
</g>
<!-- 48143&#45;&gt;y0 -->
<g id="edge11" class="edge"><title>48143&#45;&gt;y0</title>
<path fill="none" stroke="green" stroke-width="0.9" d="M308.692,-79.1689C297.743,-67.176 283.891,-52.0025 272.881,-39.9432"/>
<polygon fill="green" stroke="green" stroke-width="0.9" points="275.443,-37.5584 266.116,-32.5329 270.273,-42.278 275.443,-37.5584"/>
</g>
<!-- 21&#45;&gt;y0 -->
<g id="edge23" class="edge"><title>21&#45;&gt;y0</title>
<path fill="none" stroke="red" stroke-width="0.25515" d="M201.261,-85.4184C210.988,-73.2644 225.27,-55.4212 236.535,-41.3459"/>
<polygon fill="red" stroke="red" stroke-width="0.25515" points="239.576,-43.1478 243.092,-33.1535 234.111,-38.7737 239.576,-43.1478"/>
</g>
<!-- 15595 -->
<g id="node21" class="node"><title>15595</title>
<ellipse fill="white" stroke="black" cx="411.113" cy="-191.501" rx="27.6545" ry="27.6545"/>
<text text-anchor="middle" x="411.113" y="-189.301" font-family="Times,serif" font-size="9.00">15595</text>
</g>
<!-- 101782&#45;&gt;15595 -->
<g id="edge29" class="edge"><title>101782&#45;&gt;15595</title>
<path fill="none" stroke="red" stroke-width="0.310532" d="M411.113,-254.841C411.113,-246.658 411.113,-237.717 411.113,-229.227"/>
<polygon fill="red" stroke="red" stroke-width="0.310532" points="414.613,-229.175 411.113,-219.175 407.613,-229.175 414.613,-229.175"/>
</g>
<!-- 32797&#45;&gt;15595 -->
<g id="edge4" class="edge"><title>32797&#45;&gt;15595</title>
<path fill="none" stroke="red" stroke-width="0.704134" d="M470.64,-264.158C460.032,-251.388 446.351,-234.92 434.78,-220.991"/>
<polygon fill="red" stroke="red" stroke-width="0.704134" points="437.333,-218.587 428.251,-213.131 431.949,-223.06 437.333,-218.587"/>
</g>
<!-- 23965&#45;&gt;79501 -->
<g id="edge26" class="edge"><title>23965&#45;&gt;79501</title>
<path fill="none" stroke="red" stroke-width="0.9" d="M128.005,-267.087C133.074,-262.891 138.641,-258.621 144.113,-255.078 174.812,-235.198 186.825,-238.019 218.113,-219.078 220.264,-217.776 222.447,-216.378 224.62,-214.929"/>
<polygon fill="red" stroke="red" stroke-width="0.9" points="226.655,-217.777 232.855,-209.186 222.65,-212.035 226.655,-217.777"/>
</g>
<!-- 99153 -->
<g id="node20" class="node"><title>99153</title>
<ellipse fill="white" stroke="black" cx="181.113" cy="-191.501" rx="27.6545" ry="27.6545"/>
<text text-anchor="middle" x="181.113" y="-189.301" font-family="Times,serif" font-size="9.00">99153</text>
</g>
<!-- 87589&#45;&gt;99153 -->
<g id="edge32" class="edge"><title>87589&#45;&gt;99153</title>
<path fill="none" stroke="green" stroke-width="0.326905" d="M181.113,-258.381C181.113,-249.35 181.113,-239.108 181.113,-229.437"/>
<polygon fill="green" stroke="green" stroke-width="0.326905" points="184.613,-229.251 181.113,-219.251 177.613,-229.251 184.613,-229.251"/>
</g>
<!-- 100649&#45;&gt;99153 -->
<g id="edge31" class="edge"><title>100649&#45;&gt;99153</title>
<path fill="none" stroke="green" stroke-width="0.328336" d="M55.2938,-266.21C60.4296,-262.4 65.8821,-258.515 71.1127,-255.078 96.178,-238.611 125.787,-221.913 147.968,-209.913"/>
<polygon fill="green" stroke="green" stroke-width="0.328336" points="149.83,-212.886 156.985,-205.072 146.519,-206.719 149.83,-212.886"/>
</g>
<!-- 90573&#45;&gt;y0 -->
<g id="edge15" class="edge"><title>90573&#45;&gt;y0</title>
<path fill="none" stroke="red" stroke-width="0.117383" d="M254.113,-72.7205C254.113,-64.4151 254.113,-55.2409 254.113,-46.8773"/>
<polygon fill="red" stroke="red" stroke-width="0.117383" points="257.613,-46.8432 254.113,-36.8432 250.613,-46.8432 257.613,-46.8432"/>
</g>
<!-- 86478&#45;&gt;79501 -->
<g id="edge13" class="edge"><title>86478&#45;&gt;79501</title>
<path fill="none" stroke="red" stroke-width="0.501633" d="M254.113,-258.381C254.113,-249.35 254.113,-239.108 254.113,-229.437"/>
<polygon fill="red" stroke="red" stroke-width="0.501633" points="257.613,-229.251 254.113,-219.251 250.613,-229.251 257.613,-229.251"/>
</g>
<!-- 99153&#45;&gt;21 -->
<g id="edge24" class="edge"><title>99153&#45;&gt;21</title>
<path fill="none" stroke="green" stroke-width="0.243389" d="M183.813,-163.752C184.927,-152.713 186.218,-139.928 187.34,-128.815"/>
<polygon fill="green" stroke="green" stroke-width="0.243389" points="190.83,-129.086 188.352,-118.785 183.866,-128.383 190.83,-129.086"/>
</g>
<!-- 15595&#45;&gt;48143 -->
<g id="edge10" class="edge"><title>15595&#45;&gt;48143</title>
<path fill="none" stroke="red" stroke-width="0.375025" d="M392.47,-170.715C380.834,-158.364 365.69,-142.291 352.91,-128.727"/>
<polygon fill="red" stroke="red" stroke-width="0.375025" points="355.108,-125.956 345.703,-121.078 350.013,-130.756 355.108,-125.956"/>
</g>
<!-- 105963&#45;&gt;99153 -->
<g id="edge35" class="edge"><title>105963&#45;&gt;99153</title>
<path fill="none" stroke="green" stroke-width="0.293034" d="M307.099,-265.946C301.951,-262.155 296.451,-258.344 291.113,-255.078 259.914,-235.991 248.401,-238.019 217.113,-219.078 214.961,-217.776 212.778,-216.378 210.606,-214.929"/>
<polygon fill="green" stroke="green" stroke-width="0.293034" points="212.575,-212.035 202.371,-209.186 208.571,-217.777 212.575,-212.035"/>
</g>
</g>
</svg>
