<?xml version="1.0" encoding="UTF-8" standalone="no"?>
<!DOCTYPE svg PUBLIC "-//W3C//DTD SVG 1.1//EN"
 "http://www.w3.org/Graphics/SVG/1.1/DTD/svg11.dtd">
<!-- Generated by graphviz version 2.38.0 (20140413.2041)
 -->
<!-- Title: %3 Pages: 1 -->
<svg width="422pt" height="359pt"
 viewBox="0.00 0.00 422.00 359.12" xmlns="http://www.w3.org/2000/svg" xmlns:xlink="http://www.w3.org/1999/xlink">
<g id="graph0" class="graph" transform="scale(1 1) rotate(0) translate(4 355.12)">
<title>%3</title>
<polygon fill="white" stroke="none" points="-4,4 -4,-355.12 418,-355.12 418,4 -4,4"/>
<!-- x0 -->
<g id="node1" class="node"><title>x0</title>
<polygon fill="lightgray" stroke="black" points="36,-351.12 0,-351.12 0,-315.12 36,-315.12 36,-351.12"/>
<text text-anchor="middle" x="18" y="-330.92" font-family="Times,serif" font-size="9.00">x0</text>
</g>
<!-- x1 -->
<g id="node2" class="node"><title>x1</title>
<polygon fill="lightgray" stroke="black" points="90,-351.12 54,-351.12 54,-315.12 90,-315.12 90,-351.12"/>
<text text-anchor="middle" x="72" y="-330.92" font-family="Times,serif" font-size="9.00">x1</text>
</g>
<!-- 1568 -->
<g id="node10" class="node"><title>1568</title>
<ellipse fill="white" stroke="black" cx="72" cy="-254.371" rx="25" ry="25"/>
<text text-anchor="middle" x="72" y="-252.171" font-family="Times,serif" font-size="9.00">1568</text>
</g>
<!-- x1&#45;&gt;1568 -->
<g id="edge3" class="edge"><title>x1&#45;&gt;1568</title>
<path fill="none" stroke="green" stroke-width="0.279052" d="M72,-315.087C72,-307.532 72,-298.36 72,-289.494"/>
<polygon fill="green" stroke="green" stroke-width="0.279052" points="75.5001,-289.342 72,-279.342 68.5001,-289.343 75.5001,-289.342"/>
</g>
<!-- x2 -->
<g id="node3" class="node"><title>x2</title>
<polygon fill="lightgray" stroke="black" points="144,-351.12 108,-351.12 108,-315.12 144,-315.12 144,-351.12"/>
<text text-anchor="middle" x="126" y="-330.92" font-family="Times,serif" font-size="9.00">x2</text>
</g>
<!-- x3 -->
<g id="node4" class="node"><title>x3</title>
<polygon fill="lightgray" stroke="black" points="198,-351.12 162,-351.12 162,-315.12 198,-315.12 198,-351.12"/>
<text text-anchor="middle" x="180" y="-330.92" font-family="Times,serif" font-size="9.00">x3</text>
</g>
<!-- x4 -->
<g id="node5" class="node"><title>x4</title>
<polygon fill="lightgray" stroke="black" points="252,-351.12 216,-351.12 216,-315.12 252,-315.12 252,-351.12"/>
<text text-anchor="middle" x="234" y="-330.92" font-family="Times,serif" font-size="9.00">x4</text>
</g>
<!-- x5 -->
<g id="node6" class="node"><title>x5</title>
<polygon fill="lightgray" stroke="black" points="306,-351.12 270,-351.12 270,-315.12 306,-315.12 306,-351.12"/>
<text text-anchor="middle" x="288" y="-330.92" font-family="Times,serif" font-size="9.00">x5</text>
</g>
<!-- x6 -->
<g id="node7" class="node"><title>x6</title>
<polygon fill="lightgray" stroke="black" points="360,-351.12 324,-351.12 324,-315.12 360,-315.12 360,-351.12"/>
<text text-anchor="middle" x="342" y="-330.92" font-family="Times,serif" font-size="9.00">x6</text>
</g>
<!-- x7 -->
<g id="node8" class="node"><title>x7</title>
<polygon fill="lightgray" stroke="black" points="414,-351.12 378,-351.12 378,-315.12 414,-315.12 414,-351.12"/>
<text text-anchor="middle" x="396" y="-330.92" font-family="Times,serif" font-size="9.00">x7</text>
</g>
<!-- y0 -->
<g id="node9" class="node"><title>y0</title>
<ellipse fill="lightblue" stroke="black" cx="72" cy="-18.3848" rx="18.2703" ry="18.2703"/>
<text text-anchor="middle" x="72" y="-16.1848" font-family="Times,serif" font-size="9.00">y0</text>
</g>
<!-- 617 -->
<g id="node11" class="node"><title>617</title>
<ellipse fill="white" stroke="black" cx="72" cy="-172.409" rx="21.4286" ry="21.4286"/>
<text text-anchor="middle" x="72" y="-170.209" font-family="Times,serif" font-size="9.00">617</text>
</g>
<!-- 1568&#45;&gt;617 -->
<g id="edge4" class="edge"><title>1568&#45;&gt;617</title>
<path fill="none" stroke="red" stroke-width="0.106571" d="M72,-229.38C72,-221.423 72,-212.454 72,-204.066"/>
<polygon fill="red" stroke="red" stroke-width="0.106571" points="75.5001,-203.87 72,-193.87 68.5001,-203.87 75.5001,-203.87"/>
</g>
<!-- 618 -->
<g id="node12" class="node"><title>618</title>
<ellipse fill="white" stroke="black" cx="72" cy="-93.9828" rx="21.4286" ry="21.4286"/>
<text text-anchor="middle" x="72" y="-91.7828" font-family="Times,serif" font-size="9.00">618</text>
</g>
<!-- 617&#45;&gt;618 -->
<g id="edge1" class="edge"><title>617&#45;&gt;618</title>
<path fill="none" stroke="green" stroke-width="0.127755" d="M72,-150.928C72,-143.07 72,-133.925 72,-125.335"/>
<polygon fill="green" stroke="green" stroke-width="0.127755" points="75.5001,-125.255 72,-115.255 68.5001,-125.255 75.5001,-125.255"/>
</g>
<!-- 618&#45;&gt;y0 -->
<g id="edge2" class="edge"><title>618&#45;&gt;y0</title>
<path fill="none" stroke="red" stroke-width="0.742444" d="M72,-72.4816C72,-64.5864 72,-55.4368 72,-46.9802"/>
<polygon fill="red" stroke="red" stroke-width="0.742444" points="75.5001,-46.7856 72,-36.7857 68.5001,-46.7857 75.5001,-46.7856"/>
</g>
</g>
</svg>
