<?xml version="1.0" encoding="UTF-8" standalone="no"?>
<!DOCTYPE svg PUBLIC "-//W3C//DTD SVG 1.1//EN"
 "http://www.w3.org/Graphics/SVG/1.1/DTD/svg11.dtd">
<!-- Generated by graphviz version 2.38.0 (20140413.2041)
 -->
<!-- Title: %3 Pages: 1 -->
<svg width="422pt" height="378pt"
 viewBox="0.00 0.00 422.00 377.50" xmlns="http://www.w3.org/2000/svg" xmlns:xlink="http://www.w3.org/1999/xlink">
<g id="graph0" class="graph" transform="scale(1 1) rotate(0) translate(4 373.505)">
<title>%3</title>
<polygon fill="white" stroke="none" points="-4,4 -4,-373.505 418,-373.505 418,4 -4,4"/>
<!-- x0 -->
<g id="node1" class="node"><title>x0</title>
<polygon fill="lightgray" stroke="black" points="144,-369.505 108,-369.505 108,-333.505 144,-333.505 144,-369.505"/>
<text text-anchor="middle" x="126" y="-349.305" font-family="Times,serif" font-size="9.00">x0</text>
</g>
<!-- 403 -->
<g id="node11" class="node"><title>403</title>
<ellipse fill="white" stroke="black" cx="207" cy="-269.927" rx="21.4286" ry="21.4286"/>
<text text-anchor="middle" x="207" y="-267.727" font-family="Times,serif" font-size="9.00">403</text>
</g>
<!-- x0&#45;&gt;403 -->
<g id="edge3" class="edge"><title>x0&#45;&gt;403</title>
<path fill="none" stroke="green" stroke-width="0.179204" d="M143.576,-333.238C155.711,-321.315 171.941,-305.371 184.945,-292.596"/>
<polygon fill="green" stroke="green" stroke-width="0.179204" points="187.492,-294.999 192.173,-285.494 182.586,-290.006 187.492,-294.999"/>
</g>
<!-- x1 -->
<g id="node2" class="node"><title>x1</title>
<polygon fill="lightgray" stroke="black" points="198,-369.505 162,-369.505 162,-333.505 198,-333.505 198,-369.505"/>
<text text-anchor="middle" x="180" y="-349.305" font-family="Times,serif" font-size="9.00">x1</text>
</g>
<!-- x1&#45;&gt;403 -->
<g id="edge7" class="edge"><title>x1&#45;&gt;403</title>
<path fill="none" stroke="red" stroke-width="0.156947" d="M185.859,-333.238C189.136,-323.578 193.309,-311.278 197.081,-300.163"/>
<polygon fill="red" stroke="red" stroke-width="0.156947" points="200.495,-300.992 200.394,-290.397 193.866,-298.743 200.495,-300.992"/>
</g>
<!-- x2 -->
<g id="node3" class="node"><title>x2</title>
<polygon fill="lightgray" stroke="black" points="252,-369.505 216,-369.505 216,-333.505 252,-333.505 252,-369.505"/>
<text text-anchor="middle" x="234" y="-349.305" font-family="Times,serif" font-size="9.00">x2</text>
</g>
<!-- x2&#45;&gt;403 -->
<g id="edge8" class="edge"><title>x2&#45;&gt;403</title>
<path fill="none" stroke="green" stroke-width="0.18845" d="M228.141,-333.238C224.864,-323.578 220.691,-311.278 216.919,-300.163"/>
<polygon fill="green" stroke="green" stroke-width="0.18845" points="220.134,-298.743 213.606,-290.397 213.505,-300.992 220.134,-298.743"/>
</g>
<!-- x3 -->
<g id="node4" class="node"><title>x3</title>
<polygon fill="lightgray" stroke="black" points="306,-369.505 270,-369.505 270,-333.505 306,-333.505 306,-369.505"/>
<text text-anchor="middle" x="288" y="-349.305" font-family="Times,serif" font-size="9.00">x3</text>
</g>
<!-- x3&#45;&gt;403 -->
<g id="edge1" class="edge"><title>x3&#45;&gt;403</title>
<path fill="none" stroke="red" stroke-width="0.165171" d="M270.424,-333.238C258.289,-321.315 242.059,-305.371 229.055,-292.596"/>
<polygon fill="red" stroke="red" stroke-width="0.165171" points="231.414,-290.006 221.827,-285.494 226.508,-294.999 231.414,-290.006"/>
</g>
<!-- x4 -->
<g id="node5" class="node"><title>x4</title>
<polygon fill="lightgray" stroke="black" points="360,-369.505 324,-369.505 324,-333.505 360,-333.505 360,-369.505"/>
<text text-anchor="middle" x="342" y="-349.305" font-family="Times,serif" font-size="9.00">x4</text>
</g>
<!-- x4&#45;&gt;403 -->
<g id="edge9" class="edge"><title>x4&#45;&gt;403</title>
<path fill="none" stroke="green" stroke-width="0.231913" d="M323.757,-338.891C320.839,-337.07 317.845,-335.223 315,-333.505 287.573,-316.932 255.796,-298.626 233.846,-286.118"/>
<polygon fill="green" stroke="green" stroke-width="0.231913" points="235.505,-283.035 225.082,-281.135 232.045,-289.12 235.505,-283.035"/>
</g>
<!-- 80859 -->
<g id="node15" class="node"><title>80859</title>
<ellipse fill="white" stroke="black" cx="342" cy="-269.927" rx="27.6545" ry="27.6545"/>
<text text-anchor="middle" x="342" y="-267.727" font-family="Times,serif" font-size="9.00">80859</text>
</g>
<!-- x4&#45;&gt;80859 -->
<g id="edge14" class="edge"><title>x4&#45;&gt;80859</title>
<path fill="none" stroke="red" stroke-width="0.301227" d="M342,-333.238C342,-325.747 342,-316.668 342,-307.785"/>
<polygon fill="red" stroke="red" stroke-width="0.301227" points="345.5,-307.553 342,-297.553 338.5,-307.553 345.5,-307.553"/>
</g>
<!-- x5 -->
<g id="node6" class="node"><title>x5</title>
<polygon fill="lightgray" stroke="black" points="36,-369.505 0,-369.505 0,-333.505 36,-333.505 36,-369.505"/>
<text text-anchor="middle" x="18" y="-349.305" font-family="Times,serif" font-size="9.00">x5</text>
</g>
<!-- 82146 -->
<g id="node10" class="node"><title>82146</title>
<ellipse fill="white" stroke="black" cx="93" cy="-269.927" rx="27.6545" ry="27.6545"/>
<text text-anchor="middle" x="93" y="-267.727" font-family="Times,serif" font-size="9.00">82146</text>
</g>
<!-- x5&#45;&gt;82146 -->
<g id="edge17" class="edge"><title>x5&#45;&gt;82146</title>
<path fill="none" stroke="red" stroke-width="0.226875" d="M34.2739,-333.238C43.9573,-322.963 56.4563,-309.701 67.4326,-298.055"/>
<polygon fill="red" stroke="red" stroke-width="0.226875" points="70.0692,-300.361 74.3809,-290.683 64.9751,-295.56 70.0692,-300.361"/>
</g>
<!-- x5&#45;&gt;403 -->
<g id="edge2" class="edge"><title>x5&#45;&gt;403</title>
<path fill="none" stroke="green" stroke-width="0.233128" d="M36.0224,-338.491C38.9686,-336.722 42.0297,-334.996 45,-333.505 68.9708,-321.47 137.874,-295.937 177.673,-281.481"/>
<polygon fill="green" stroke="green" stroke-width="0.233128" points="178.91,-284.756 187.12,-278.06 176.526,-278.175 178.91,-284.756"/>
</g>
<!-- x6 -->
<g id="node7" class="node"><title>x6</title>
<polygon fill="lightgray" stroke="black" points="414,-369.505 378,-369.505 378,-333.505 414,-333.505 414,-369.505"/>
<text text-anchor="middle" x="396" y="-349.305" font-family="Times,serif" font-size="9.00">x6</text>
</g>
<!-- x6&#45;&gt;403 -->
<g id="edge10" class="edge"><title>x6&#45;&gt;403</title>
<path fill="none" stroke="green" stroke-width="0.19107" d="M377.978,-338.491C375.031,-336.722 371.97,-334.996 369,-333.505 324.313,-311.07 269.537,-291.441 236.498,-280.397"/>
<polygon fill="green" stroke="green" stroke-width="0.19107" points="237.57,-277.066 226.977,-277.252 235.374,-283.712 237.57,-277.066"/>
</g>
<!-- x6&#45;&gt;80859 -->
<g id="edge12" class="edge"><title>x6&#45;&gt;80859</title>
<path fill="none" stroke="red" stroke-width="0.224119" d="M384.283,-333.238C378.017,-324.004 370.114,-312.357 362.84,-301.639"/>
<polygon fill="red" stroke="red" stroke-width="0.224119" points="365.697,-299.615 357.186,-293.306 359.905,-303.546 365.697,-299.615"/>
</g>
<!-- x7 -->
<g id="node8" class="node"><title>x7</title>
<polygon fill="lightgray" stroke="black" points="90,-369.505 54,-369.505 54,-333.505 90,-333.505 90,-369.505"/>
<text text-anchor="middle" x="72" y="-349.305" font-family="Times,serif" font-size="9.00">x7</text>
</g>
<!-- x7&#45;&gt;403 -->
<g id="edge5" class="edge"><title>x7&#45;&gt;403</title>
<path fill="none" stroke="green" stroke-width="0.198811" d="M90.2434,-338.891C93.1611,-337.07 96.1554,-335.223 99,-333.505 126.427,-316.932 158.204,-298.626 180.154,-286.118"/>
<polygon fill="green" stroke="green" stroke-width="0.198811" points="181.955,-289.12 188.918,-281.135 178.495,-283.035 181.955,-289.12"/>
</g>
<!-- y0 -->
<g id="node9" class="node"><title>y0</title>
<ellipse fill="lightblue" stroke="black" cx="207" cy="-18.3848" rx="18.2703" ry="18.2703"/>
<text text-anchor="middle" x="207" y="-16.1848" font-family="Times,serif" font-size="9.00">y0</text>
</g>
<!-- 404 -->
<g id="node12" class="node"><title>404</title>
<ellipse fill="white" stroke="black" cx="207" cy="-185.137" rx="21.4286" ry="21.4286"/>
<text text-anchor="middle" x="207" y="-182.937" font-family="Times,serif" font-size="9.00">404</text>
</g>
<!-- 82146&#45;&gt;404 -->
<g id="edge18" class="edge"><title>82146&#45;&gt;404</title>
<path fill="none" stroke="green" stroke-width="0.1003" d="M114.98,-252.965C134.143,-239.048 161.927,-218.87 181.947,-204.332"/>
<polygon fill="green" stroke="green" stroke-width="0.1003" points="184.236,-206.995 190.271,-198.286 180.123,-201.331 184.236,-206.995"/>
</g>
<!-- 403&#45;&gt;404 -->
<g id="edge6" class="edge"><title>403&#45;&gt;404</title>
<path fill="none" stroke="green" stroke-width="0.200023" d="M207,-248.462C207,-238.838 207,-227.165 207,-216.534"/>
<polygon fill="green" stroke="green" stroke-width="0.200023" points="210.5,-216.367 207,-206.367 203.5,-216.367 210.5,-216.367"/>
</g>
<!-- 405 -->
<g id="node13" class="node"><title>405</title>
<ellipse fill="white" stroke="black" cx="174" cy="-100.347" rx="21.4286" ry="21.4286"/>
<text text-anchor="middle" x="174" y="-98.1467" font-family="Times,serif" font-size="9.00">405</text>
</g>
<!-- 404&#45;&gt;405 -->
<g id="edge4" class="edge"><title>404&#45;&gt;405</title>
<path fill="none" stroke="green" stroke-width="0.514236" d="M199.346,-164.935C195.181,-154.486 189.948,-141.358 185.321,-129.748"/>
<polygon fill="green" stroke="green" stroke-width="0.514236" points="188.566,-128.438 181.612,-120.444 182.064,-131.03 188.566,-128.438"/>
</g>
<!-- 82007 -->
<g id="node14" class="node"><title>82007</title>
<ellipse fill="white" stroke="black" cx="241" cy="-100.347" rx="27.6545" ry="27.6545"/>
<text text-anchor="middle" x="241" y="-98.1467" font-family="Times,serif" font-size="9.00">82007</text>
</g>
<!-- 404&#45;&gt;82007 -->
<g id="edge15" class="edge"><title>404&#45;&gt;82007</title>
<path fill="none" stroke="green" stroke-width="0.123226" d="M214.715,-165.351C218.338,-156.529 222.772,-145.732 226.959,-135.536"/>
<polygon fill="green" stroke="green" stroke-width="0.123226" points="230.302,-136.609 230.864,-126.029 223.827,-133.95 230.302,-136.609"/>
</g>
<!-- 405&#45;&gt;y0 -->
<g id="edge11" class="edge"><title>405&#45;&gt;y0</title>
<path fill="none" stroke="green" stroke-width="0.66706" d="M181.821,-80.3969C186.155,-69.8952 191.605,-56.6873 196.326,-45.2483"/>
<polygon fill="green" stroke="green" stroke-width="0.66706" points="199.661,-46.3427 200.24,-35.7638 193.19,-43.6723 199.661,-46.3427"/>
</g>
<!-- 82007&#45;&gt;y0 -->
<g id="edge16" class="edge"><title>82007&#45;&gt;y0</title>
<path fill="none" stroke="green" stroke-width="0.17701" d="M230.429,-74.4846C226.435,-65.0934 221.887,-54.397 217.867,-44.9431"/>
<polygon fill="green" stroke="green" stroke-width="0.17701" points="221.049,-43.4807 213.915,-35.6476 214.607,-46.2198 221.049,-43.4807"/>
</g>
<!-- 80859&#45;&gt;404 -->
<g id="edge13" class="edge"><title>80859&#45;&gt;404</title>
<path fill="none" stroke="green" stroke-width="0.673781" d="M318.793,-254.695C295.024,-240.119 258.138,-217.498 233.302,-202.267"/>
<polygon fill="green" stroke="green" stroke-width="0.673781" points="235.098,-199.263 224.743,-197.018 231.438,-205.23 235.098,-199.263"/>
</g>
</g>
</svg>
