<?xml version="1.0" encoding="UTF-8" standalone="no"?>
<!DOCTYPE svg PUBLIC "-//W3C//DTD SVG 1.1//EN"
 "http://www.w3.org/Graphics/SVG/1.1/DTD/svg11.dtd">
<!-- Generated by graphviz version 2.38.0 (20140413.2041)
 -->
<!-- Title: %3 Pages: 1 -->
<svg width="422pt" height="373pt"
 viewBox="0.00 0.00 422.00 373.26" xmlns="http://www.w3.org/2000/svg" xmlns:xlink="http://www.w3.org/1999/xlink">
<g id="graph0" class="graph" transform="scale(1 1) rotate(0) translate(4 369.262)">
<title>%3</title>
<polygon fill="white" stroke="none" points="-4,4 -4,-369.262 418,-369.262 418,4 -4,4"/>
<!-- x0 -->
<g id="node1" class="node"><title>x0</title>
<polygon fill="lightgray" stroke="black" points="36,-365.262 0,-365.262 0,-329.262 36,-329.262 36,-365.262"/>
<text text-anchor="middle" x="18" y="-345.062" font-family="Times,serif" font-size="9.00">x0</text>
</g>
<!-- 1486 -->
<g id="node10" class="node"><title>1486</title>
<ellipse fill="white" stroke="black" cx="207" cy="-268.513" rx="25" ry="25"/>
<text text-anchor="middle" x="207" y="-266.313" font-family="Times,serif" font-size="9.00">1486</text>
</g>
<!-- x0&#45;&gt;1486 -->
<g id="edge11" class="edge"><title>x0&#45;&gt;1486</title>
<path fill="none" stroke="red" stroke-width="0.235188" d="M36.0025,-334.208C38.9513,-332.444 42.0184,-330.73 45,-329.262 87.8933,-308.137 140.224,-290.142 173.581,-279.577"/>
<polygon fill="red" stroke="red" stroke-width="0.235188" points="174.793,-282.866 183.293,-276.542 172.704,-276.184 174.793,-282.866"/>
</g>
<!-- x1 -->
<g id="node2" class="node"><title>x1</title>
<polygon fill="lightgray" stroke="black" points="90,-365.262 54,-365.262 54,-329.262 90,-329.262 90,-365.262"/>
<text text-anchor="middle" x="72" y="-345.062" font-family="Times,serif" font-size="9.00">x1</text>
</g>
<!-- x1&#45;&gt;1486 -->
<g id="edge10" class="edge"><title>x1&#45;&gt;1486</title>
<path fill="none" stroke="green" stroke-width="0.216542" d="M90.2137,-334.599C93.1352,-332.784 96.1385,-330.953 99,-329.262 124.713,-314.071 154.44,-297.711 176.189,-285.957"/>
<polygon fill="green" stroke="green" stroke-width="0.216542" points="178.136,-288.884 185.281,-281.061 174.817,-282.721 178.136,-288.884"/>
</g>
<!-- x2 -->
<g id="node3" class="node"><title>x2</title>
<polygon fill="lightgray" stroke="black" points="144,-365.262 108,-365.262 108,-329.262 144,-329.262 144,-365.262"/>
<text text-anchor="middle" x="126" y="-345.062" font-family="Times,serif" font-size="9.00">x2</text>
</g>
<!-- x2&#45;&gt;1486 -->
<g id="edge9" class="edge"><title>x2&#45;&gt;1486</title>
<path fill="none" stroke="red" stroke-width="0.238369" d="M143.977,-329.229C155.17,-318.623 169.728,-304.829 182.033,-293.17"/>
<polygon fill="red" stroke="red" stroke-width="0.238369" points="184.501,-295.653 189.352,-286.235 179.686,-290.572 184.501,-295.653"/>
</g>
<!-- x3 -->
<g id="node4" class="node"><title>x3</title>
<polygon fill="lightgray" stroke="black" points="198,-365.262 162,-365.262 162,-329.262 198,-329.262 198,-365.262"/>
<text text-anchor="middle" x="180" y="-345.062" font-family="Times,serif" font-size="9.00">x3</text>
</g>
<!-- x3&#45;&gt;1486 -->
<g id="edge5" class="edge"><title>x3&#45;&gt;1486</title>
<path fill="none" stroke="green" stroke-width="0.222121" d="M185.992,-329.229C188.852,-321.1 192.37,-311.099 195.705,-301.621"/>
<polygon fill="green" stroke="green" stroke-width="0.222121" points="199.06,-302.63 199.077,-292.035 192.457,-300.306 199.06,-302.63"/>
</g>
<!-- x4 -->
<g id="node5" class="node"><title>x4</title>
<polygon fill="lightgray" stroke="black" points="252,-365.262 216,-365.262 216,-329.262 252,-329.262 252,-365.262"/>
<text text-anchor="middle" x="234" y="-345.062" font-family="Times,serif" font-size="9.00">x4</text>
</g>
<!-- x4&#45;&gt;1486 -->
<g id="edge2" class="edge"><title>x4&#45;&gt;1486</title>
<path fill="none" stroke="green" stroke-width="0.140989" d="M228.008,-329.229C225.148,-321.1 221.63,-311.099 218.295,-301.621"/>
<polygon fill="green" stroke="green" stroke-width="0.140989" points="221.543,-300.306 214.923,-292.035 214.94,-302.63 221.543,-300.306"/>
</g>
<!-- x5 -->
<g id="node6" class="node"><title>x5</title>
<polygon fill="lightgray" stroke="black" points="306,-365.262 270,-365.262 270,-329.262 306,-329.262 306,-365.262"/>
<text text-anchor="middle" x="288" y="-345.062" font-family="Times,serif" font-size="9.00">x5</text>
</g>
<!-- x5&#45;&gt;1486 -->
<g id="edge8" class="edge"><title>x5&#45;&gt;1486</title>
<path fill="none" stroke="red" stroke-width="0.199861" d="M270.023,-329.229C258.83,-318.623 244.272,-304.829 231.967,-293.17"/>
<polygon fill="red" stroke="red" stroke-width="0.199861" points="234.314,-290.572 224.648,-286.235 229.499,-295.653 234.314,-290.572"/>
</g>
<!-- x6 -->
<g id="node7" class="node"><title>x6</title>
<polygon fill="lightgray" stroke="black" points="360,-365.262 324,-365.262 324,-329.262 360,-329.262 360,-365.262"/>
<text text-anchor="middle" x="342" y="-345.062" font-family="Times,serif" font-size="9.00">x6</text>
</g>
<!-- x6&#45;&gt;1486 -->
<g id="edge1" class="edge"><title>x6&#45;&gt;1486</title>
<path fill="none" stroke="green" stroke-width="0.158867" d="M323.786,-334.599C320.865,-332.784 317.861,-330.953 315,-329.262 289.287,-314.071 259.56,-297.711 237.811,-285.957"/>
<polygon fill="green" stroke="green" stroke-width="0.158867" points="239.183,-282.721 228.719,-281.061 235.864,-288.884 239.183,-282.721"/>
</g>
<!-- x7 -->
<g id="node8" class="node"><title>x7</title>
<polygon fill="lightgray" stroke="black" points="414,-365.262 378,-365.262 378,-329.262 414,-329.262 414,-365.262"/>
<text text-anchor="middle" x="396" y="-345.062" font-family="Times,serif" font-size="9.00">x7</text>
</g>
<!-- x7&#45;&gt;1486 -->
<g id="edge4" class="edge"><title>x7&#45;&gt;1486</title>
<path fill="none" stroke="red" stroke-width="0.200749" d="M377.997,-334.208C375.049,-332.444 371.982,-330.73 369,-329.262 326.107,-308.137 273.776,-290.142 240.419,-279.577"/>
<polygon fill="red" stroke="red" stroke-width="0.200749" points="241.296,-276.184 230.707,-276.542 239.207,-282.866 241.296,-276.184"/>
</g>
<!-- y0 -->
<g id="node9" class="node"><title>y0</title>
<ellipse fill="lightblue" stroke="black" cx="207" cy="-18.3848" rx="18.2703" ry="18.2703"/>
<text text-anchor="middle" x="207" y="-16.1848" font-family="Times,serif" font-size="9.00">y0</text>
</g>
<!-- 1487 -->
<g id="node11" class="node"><title>1487</title>
<ellipse fill="white" stroke="black" cx="207" cy="-183.016" rx="25" ry="25"/>
<text text-anchor="middle" x="207" y="-180.816" font-family="Times,serif" font-size="9.00">1487</text>
</g>
<!-- 1486&#45;&gt;1487 -->
<g id="edge3" class="edge"><title>1486&#45;&gt;1487</title>
<path fill="none" stroke="green" stroke-width="0.322109" d="M207,-243.362C207,-235.418 207,-226.434 207,-217.903"/>
<polygon fill="green" stroke="green" stroke-width="0.322109" points="210.5,-217.824 207,-207.824 203.5,-217.824 210.5,-217.824"/>
</g>
<!-- 1488 -->
<g id="node12" class="node"><title>1488</title>
<ellipse fill="white" stroke="black" cx="207" cy="-97.5183" rx="25" ry="25"/>
<text text-anchor="middle" x="207" y="-95.3183" font-family="Times,serif" font-size="9.00">1488</text>
</g>
<!-- 1487&#45;&gt;1488 -->
<g id="edge7" class="edge"><title>1487&#45;&gt;1488</title>
<path fill="none" stroke="green" stroke-width="0.281082" d="M207,-157.865C207,-149.921 207,-140.936 207,-132.406"/>
<polygon fill="green" stroke="green" stroke-width="0.281082" points="210.5,-132.327 207,-122.327 203.5,-132.327 210.5,-132.327"/>
</g>
<!-- 1488&#45;&gt;y0 -->
<g id="edge6" class="edge"><title>1488&#45;&gt;y0</title>
<path fill="none" stroke="red" stroke-width="0.230434" d="M207,-72.5356C207,-64.4509 207,-55.3634 207,-47.02"/>
<polygon fill="red" stroke="red" stroke-width="0.230434" points="210.5,-46.981 207,-36.9811 203.5,-46.9811 210.5,-46.981"/>
</g>
</g>
</svg>
