<?xml version="1.0" encoding="UTF-8" standalone="no"?>
<!DOCTYPE svg PUBLIC "-//W3C//DTD SVG 1.1//EN"
 "http://www.w3.org/Graphics/SVG/1.1/DTD/svg11.dtd">
<!-- Generated by graphviz version 2.38.0 (20140413.2041)
 -->
<!-- Title: %3 Pages: 1 -->
<svg width="422pt" height="348pt"
 viewBox="0.00 0.00 422.00 347.81" xmlns="http://www.w3.org/2000/svg" xmlns:xlink="http://www.w3.org/1999/xlink">
<g id="graph0" class="graph" transform="scale(1 1) rotate(0) translate(4 343.806)">
<title>%3</title>
<polygon fill="white" stroke="none" points="-4,4 -4,-343.806 418,-343.806 418,4 -4,4"/>
<!-- x0 -->
<g id="node1" class="node"><title>x0</title>
<polygon fill="lightgray" stroke="black" points="36,-339.806 0,-339.806 0,-303.806 36,-303.806 36,-339.806"/>
<text text-anchor="middle" x="18" y="-319.606" font-family="Times,serif" font-size="9.00">x0</text>
</g>
<!-- x1 -->
<g id="node2" class="node"><title>x1</title>
<polygon fill="lightgray" stroke="black" points="90,-339.806 54,-339.806 54,-303.806 90,-303.806 90,-339.806"/>
<text text-anchor="middle" x="72" y="-319.606" font-family="Times,serif" font-size="9.00">x1</text>
</g>
<!-- 1596 -->
<g id="node12" class="node"><title>1596</title>
<ellipse fill="white" stroke="black" cx="72" cy="-243.057" rx="25" ry="25"/>
<text text-anchor="middle" x="72" y="-240.857" font-family="Times,serif" font-size="9.00">1596</text>
</g>
<!-- x1&#45;&gt;1596 -->
<g id="edge3" class="edge"><title>x1&#45;&gt;1596</title>
<path fill="none" stroke="red" stroke-width="0.129844" d="M72,-303.773C72,-296.219 72,-287.046 72,-278.18"/>
<polygon fill="red" stroke="red" stroke-width="0.129844" points="75.5001,-278.029 72,-268.029 68.5001,-278.029 75.5001,-278.029"/>
</g>
<!-- x2 -->
<g id="node3" class="node"><title>x2</title>
<polygon fill="lightgray" stroke="black" points="144,-339.806 108,-339.806 108,-303.806 144,-303.806 144,-339.806"/>
<text text-anchor="middle" x="126" y="-319.606" font-family="Times,serif" font-size="9.00">x2</text>
</g>
<!-- x3 -->
<g id="node4" class="node"><title>x3</title>
<polygon fill="lightgray" stroke="black" points="198,-339.806 162,-339.806 162,-303.806 198,-303.806 198,-339.806"/>
<text text-anchor="middle" x="180" y="-319.606" font-family="Times,serif" font-size="9.00">x3</text>
</g>
<!-- x4 -->
<g id="node5" class="node"><title>x4</title>
<polygon fill="lightgray" stroke="black" points="252,-339.806 216,-339.806 216,-303.806 252,-303.806 252,-339.806"/>
<text text-anchor="middle" x="234" y="-319.606" font-family="Times,serif" font-size="9.00">x4</text>
</g>
<!-- x5 -->
<g id="node6" class="node"><title>x5</title>
<polygon fill="lightgray" stroke="black" points="306,-339.806 270,-339.806 270,-303.806 306,-303.806 306,-339.806"/>
<text text-anchor="middle" x="288" y="-319.606" font-family="Times,serif" font-size="9.00">x5</text>
</g>
<!-- x6 -->
<g id="node7" class="node"><title>x6</title>
<polygon fill="lightgray" stroke="black" points="360,-339.806 324,-339.806 324,-303.806 360,-303.806 360,-339.806"/>
<text text-anchor="middle" x="342" y="-319.606" font-family="Times,serif" font-size="9.00">x6</text>
</g>
<!-- x7 -->
<g id="node8" class="node"><title>x7</title>
<polygon fill="lightgray" stroke="black" points="414,-339.806 378,-339.806 378,-303.806 414,-303.806 414,-339.806"/>
<text text-anchor="middle" x="396" y="-319.606" font-family="Times,serif" font-size="9.00">x7</text>
</g>
<!-- y0 -->
<g id="node9" class="node"><title>y0</title>
<ellipse fill="lightblue" stroke="black" cx="72" cy="-18.3848" rx="18.2703" ry="18.2703"/>
<text text-anchor="middle" x="72" y="-16.1848" font-family="Times,serif" font-size="9.00">y0</text>
</g>
<!-- 80 -->
<g id="node10" class="node"><title>80</title>
<ellipse fill="white" stroke="black" cx="72" cy="-163.924" rx="18.2703" ry="18.2703"/>
<text text-anchor="middle" x="72" y="-161.724" font-family="Times,serif" font-size="9.00">80</text>
</g>
<!-- 81 -->
<g id="node11" class="node"><title>81</title>
<ellipse fill="white" stroke="black" cx="72" cy="-91.1543" rx="18.2703" ry="18.2703"/>
<text text-anchor="middle" x="72" y="-88.9543" font-family="Times,serif" font-size="9.00">81</text>
</g>
<!-- 80&#45;&gt;81 -->
<g id="edge1" class="edge"><title>80&#45;&gt;81</title>
<path fill="none" stroke="green" stroke-width="0.386058" d="M72,-145.43C72,-137.748 72,-128.539 72,-119.955"/>
<polygon fill="green" stroke="green" stroke-width="0.386058" points="75.5001,-119.938 72,-109.938 68.5001,-119.938 75.5001,-119.938"/>
</g>
<!-- 81&#45;&gt;y0 -->
<g id="edge2" class="edge"><title>81&#45;&gt;y0</title>
<path fill="none" stroke="red" stroke-width="0.484501" d="M72,-72.6607C72,-64.9784 72,-55.7693 72,-47.185"/>
<polygon fill="red" stroke="red" stroke-width="0.484501" points="75.5001,-47.1687 72,-37.1687 68.5001,-47.1687 75.5001,-47.1687"/>
</g>
<!-- 1596&#45;&gt;80 -->
<g id="edge4" class="edge"><title>1596&#45;&gt;80</title>
<path fill="none" stroke="green" stroke-width="0.578474" d="M72,-218.075C72,-209.99 72,-200.903 72,-192.559"/>
<polygon fill="green" stroke="green" stroke-width="0.578474" points="75.5001,-192.52 72,-182.52 68.5001,-192.52 75.5001,-192.52"/>
</g>
</g>
</svg>
